<?xml version="1.0" encoding="UTF-8" standalone="no"?>
<svg
   xmlns:dc="http://purl.org/dc/elements/1.1/"
   xmlns:cc="http://creativecommons.org/ns#"
   xmlns:rdf="http://www.w3.org/1999/02/22-rdf-syntax-ns#"
   xmlns:svg="http://www.w3.org/2000/svg"
   xmlns="http://www.w3.org/2000/svg"
   version="1.1"
   id="svg2"
   height="300"
   width="300"
   preserveAspectRatio="xMidYMid"
   viewBox="0 0 300 300">
  <metadata
     id="metadata27">
    <rdf:RDF>
      <cc:Work
         rdf:about="">
        <dc:format>image/svg+xml</dc:format>
        <dc:type
           rdf:resource="http://purl.org/dc/dcmitype/StillImage" />
      </cc:Work>
    </rdf:RDF>
  </metadata>
  <defs
     id="defs25" />
  <filter
     y="-50%"
     x="-50%"
     height="500"
     width="300"
     id="ksmfy">
    <feFlood
       id="feFlood5"
       result="element"
       flood-color="#0048ba" />
    <feTurbulence
       id="feTurbulence7"
       result="element_1"
       seed="77"
       numOctaves="8"
       type="fractalNoise"
       baseFrequency="0.02" />
    <feGaussianBlur
       id="feGaussianBlur9"
       result="element_2"
       in="SourceAlpha"
       stdDeviation="4" />
    <feDisplacementMap
       id="feDisplacementMap11"
       result="element_3"
       in2="element_1"
       in="element_2"
       scale="100" />
    <feComposite
       id="feComposite13"
       result="element_4"
       in2="element_3"
       in="element"
       operator="in" />
    <feMerge
       id="feMerge15">
      <feMergeNode
         id="feMergeNode17"
         in="element_4" />
    </feMerge>
  </filter>
  <g
     id="g19"
     transform="translate(150,150) scale(1.5)">
    <path
       id="path21"
       style="filter: url(#ksmfy); stroke: rgb(0, 72, 186);"
       d="M0,0L0.9583603820791754,-4.001754971881708C1.9167207641583508,-8.003509943763415,3.8334415283167016,-16.00701988752683,-0.20395817136152194,-10.10014523289594C-4.241357871039746,-4.193270578265048,-14.232878034554544,15.623988674760149,-17.928622043876864,23.521918434703135C-21.624366053199182,31.419848194646118,-19.024333908329027,27.398448461506888,-22.38386824128517,19.33466010642824C-25.743402574241316,11.270871751349599,-35.06250338502376,-0.8353052256684652,-34.80050398923132,-2.0087530632357637C-34.53850459343887,-3.1822009008030623,-24.695404991071545,6.577080401080404,-10.193976497159731,16.34625070218006C4.307451996752086,26.115421003279717,23.467209382208384,35.894480303595564,26.263900919440303,28.143218783373147C29.06059245667222,20.39195726315073,15.49421814567976,-4.889625077609953,2.9470840207893785,-10.060858855510094C-9.600050104101003,-15.232092633410238,-21.127944042889304,-0.29297784844984065,-12.902093563745993,8.166800340756492C-4.676243084602685,16.626578529962824,23.303351812472236,18.607020123415094,38.671643990732676,17.90923875295596C54.03993616899311,17.211457382496828,56.79692562843906,13.835453048126293,46.9421472966378,10.34204652810199C37.08736896483654,6.848640008077689,14.620822841788074,3.2378313023996204,0.5736582855329644,3.646747098068936C-13.473506270722146,4.055662893738251,-19.101289260183894,8.484303190754952,-17.877770181441665,3.5767420026639503C-16.654251102699433,-1.3308191854270515,-8.57942995575322,-15.574581858625756,-5.736970287039785,-10.829168263715797C-2.89451061832635,-6.083754668805838,-5.28441242784569,17.65083519421278,-4.35664109741276,26.551844772793405C-3.4288697669798305,35.45285435137403,0.8165747034053701,29.52028364551666,8.517253554011994,23.1620028888625C16.217932404618615,16.80372213220834,27.37384563544666,10.019731324757391,33.3595547886413,5.431743795102119C39.34526394183593,0.8437562654468467,40.16076901739716,-1.5482279864127493,34.23722454983903,-7.438633937565619C28.313680082280904,-13.32903988871849,15.651086071603418,-22.717867539164633,2.4616250757500797,-21.48404499859409C-10.727835920103256,-20.250222458023543,-24.444163901132445,-8.393749726436308,-29.20855581530723,3.158287736273661C-33.972947729482016,14.710325198983632,-29.78540357680239,25.957927392816337,-16.801370992137876,29.155447497763827C-3.8173384074733683,32.35296760271132,17.963182609176034,27.500405618773595,15.42313089265534,17.050667027513178C12.883079176134641,6.600928436252762,-13.977545273556153,-9.445986762330348,-23.908420832587815,-21.42143942401271C-33.83929639161947,-33.39689208569507,-26.840423059991995,-41.30088221047669,-25.410599492364916,-45.08997817958274C-23.980775924737834,-48.87907414868878,-28.120002121111153,-48.553275962119244,-23.75018623230741,-33.25273838981974C-19.380370343503664,-17.952200817520236,-6.501512369522857,12.323076140509247,-1.4188577403350076,16.723053833503208C3.6637968888528416,21.123031526497172,0.9502481732477333,-0.35229004554438603,-4.131739832516306,-9.384304447900801C-9.213727838280345,-18.416318850257216,-16.664155134203313,-15.005026082928488,-12.462302382512664,-7.866801428208958C-8.260449630822016,-0.7285767734894293,7.5936831684822526,10.136579768620901,14.939932437365457,9.957552560914072C22.28618170624866,9.778525353207243,21.124547444710796,-1.4446856043167458,17.402614559749352,1.089695670681036C13.680681674787905,3.6240769456788176,7.398450166402877,19.91605045319837,-2.742891269858333,17.807518535606064C-12.884232706119544,15.69898661801376,-26.884684070256935,-4.810050724690399,-32.65177880834977,-8.866090686296019C-38.4188735464426,-12.92213064790164,-35.95261165849087,-0.52517322840872,-25.565645325305855,-1.8491439795268816C-15.178678992120833,-3.173114730645043,3.1289917862974814,-18.218013652374285,6.904325430190997,-22.808419763433637C10.67965907408451,-27.398825874492985,-0.0773444165467767,-21.534739174882446,-1.0631130227752195,-10.64943369148775C-2.048881629003662,0.23587179190694485,6.736584649170739,16.142396059085797,11.12931778825794,24.095658192675224L15.522050927345141,32.04892032626465" />
  </g>
</svg>
