<?xml version="1.0" encoding="UTF-8" standalone="no"?>
<svg
   xmlns:dc="http://purl.org/dc/elements/1.1/"
   xmlns:cc="http://creativecommons.org/ns#"
   xmlns:rdf="http://www.w3.org/1999/02/22-rdf-syntax-ns#"
   xmlns:svg="http://www.w3.org/2000/svg"
   xmlns="http://www.w3.org/2000/svg"
   version="1.1"
   id="svg2"
   height="300"
   width="300"
   preserveAspectRatio="xMidYMid"
   viewBox="0 0 300 300">
  <metadata
     id="metadata27">
    <rdf:RDF>
      <cc:Work
         rdf:about="">
        <dc:format>image/svg+xml</dc:format>
        <dc:type
           rdf:resource="http://purl.org/dc/dcmitype/StillImage" />
      </cc:Work>
    </rdf:RDF>
  </metadata>
  <defs
     id="defs25" />
  <filter
     y="-50%"
     x="-50%"
     height="500"
     width="300"
     id="jqelb">
    <feFlood
       id="feFlood5"
       result="element"
       flood-color="#84de02" />
    <feTurbulence
       id="feTurbulence7"
       result="element_1"
       seed="77"
       numOctaves="8"
       type="fractalNoise"
       baseFrequency="0.02" />
    <feGaussianBlur
       id="feGaussianBlur9"
       result="element_2"
       in="SourceAlpha"
       stdDeviation="4" />
    <feDisplacementMap
       id="feDisplacementMap11"
       result="element_3"
       in2="element_1"
       in="element_2"
       scale="100" />
    <feComposite
       id="feComposite13"
       result="element_4"
       in2="element_3"
       in="element"
       operator="in" />
    <feMerge
       id="feMerge15">
      <feMergeNode
         id="feMergeNode17"
         in="element_4" />
    </feMerge>
  </filter>
  <g
     id="g19"
     transform="translate(150,150) scale(1.5)">
    <path
       id="path21"
       style="filter: url(#jqelb); stroke: rgb(132, 222, 2);"
       d="M0,0L5.56440300256749,0.5949861681738138C11.12880600513498,1.1899723363476276,22.25761201026996,2.379944672695255,24.694778551551142,-0.9765693158480513C27.131945092832325,-4.333083304391358,20.877472170259715,-12.236083617825598,16.72589936535453,-5.207353838779765C12.574326560449341,1.8213759402660692,10.52565387321158,23.78183581179198,1.8980058743103854,26.982840565750806C-6.729642124590807,30.18384531970963,-21.936265435155434,14.625394956101374,-18.10745348654877,10.93121413310091C-14.278641537942105,7.237033310100446,8.585605669835846,15.407122027707771,8.775412151213953,9.994600199203857C8.965218632592057,4.582078370699943,-13.519415612429684,-14.413054003915212,-15.590002397287748,-17.321885689457673C-17.66058918214581,-20.23071737500013,0.6828714931598068,-7.053248371469894,14.075812558695212,-1.4161559212312236C27.468753624230615,4.220936529007447,35.91117507999581,2.317652425954551,32.51186223544632,4.176238069545004C29.11254939089683,6.034823713135456,13.871502246032666,11.655279103369256,13.815029803322123,14.265574029692374C13.758557360611581,16.87586895601549,28.88665962005466,16.47600341842793,24.998741192136855,14.005630946235597C21.110822764219044,11.535258474043266,-1.7931163510596573,6.994379067246168,-8.558457190664454,5.892173732653198C-15.323798030269248,4.789968398060227,-5.950540594200138,7.126437135671383,2.392699956321302,6.206571191500341C10.735940506842741,5.2867052473293,18.04916417181651,1.110504621376061,14.852098033462113,1.6286759016336099C11.655031895107713,2.1468471818911588,-2.052324046574853,7.359390368359495,-11.086137535231819,5.197306332499139C-20.119951023888785,3.035222296638782,-24.480222059520152,-6.501488961550267,-28.323812432340688,-4.5023166398838725C-32.16740280516122,-2.5031443182174797,-35.494312515170925,11.031911583304357,-32.35668353800914,18.381516479672555C-29.219054560847358,25.731121376040758,-19.61688689651408,26.89527526725532,-12.04154575568531,22.261968933271632C-4.466204614856533,17.628662599287942,1.0823100024677426,7.1978960401059995,-5.5291860762865275,8.713523960286238C-12.140682155040798,10.229151880466475,-30.912188929873615,23.691174280008894,-32.006686716181534,24.504531628473032C-33.10118450248946,25.31788897693717,-16.518673300272496,13.482581274323023,-13.633934118634745,9.135777962817913C-10.749194936996995,4.788974651312806,-21.56222777593846,7.930675730916737,-16.848482293585157,9.243121545973729C-12.134736811231853,10.555567361030722,8.105786992416219,10.038757911540774,21.356483897401468,13.24159491721362C34.607180802386715,16.444431922886466,40.86805080870914,23.366915383722098,34.251169459696484,17.652361311501842C27.634288110683826,11.93780723928158,8.139655406336088,-6.413784365994573,7.002675521208326,-13.607083388277314C5.865695636080565,-20.800382410560054,23.08636857017278,-16.835388849849387,29.761610411755818,-6.1287045657091666C36.436852253338856,4.577979718431051,32.56666300241271,22.026354726000818,18.466272918865055,24.811430847600292C4.365882835317398,27.596506969199773,-19.96470808085177,15.718284204828961,-24.414426856219958,0.5212093115885921C-28.864145631588144,-14.67586558165178,-13.432992266155345,-33.19179260376171,-12.92233375486921,-36.11100573692164C-12.411675243583076,-39.03021887008157,-26.821511586443606,-26.352718114291502,-30.366692296651923,-17.124898651550303C-33.91187300686025,-7.897079188809107,-26.592398084416356,-2.1189410191167797,-18.546290978430253,-0.28769010119635186C-10.500183872444147,1.543560816724076,-1.727444582915827,-0.572075517127395,2.108474245995989,0.048195611315375864C5.944393074907804,0.6684667397581467,4.843491443203116,4.02464533049516,5.11686542693718,2.271062032964523C5.390239410671244,0.5174787354338868,7.03788900984406,-6.345866450364399,7.25097554505348,-16.626028246836583C7.4640620802629005,-26.90619004330877,6.242585551508924,-40.60316845045485,11.24459960463142,-32.58752447114872C16.246613657753915,-24.57188049184259,27.47211829275288,5.156385873915752,33.084870610252366,20.020519056794924L38.69762292775185,34.8846522396741" />
  </g>
</svg>
