<svg viewBox="0 0 300 300" preserveAspectRatio="xMidYMid" width="300" height="300"><filter id="kmwji" width="300" height="500" x="-50%" y="-50%"><feFlood flood-color="#efdecd" result="element"></feFlood><feTurbulence baseFrequency="0.02" type="fractalNoise" numOctaves="8" seed="14" result="element_1"></feTurbulence><feGaussianBlur stdDeviation="4" in="SourceAlpha" result="element_2"></feGaussianBlur><feDisplacementMap scale="100" in="element_2" in2="element_1" result="element_3"></feDisplacementMap><feComposite operator="in" in="element" in2="element_3" result="element_4"></feComposite><feMerge><feMergeNode in="element_4"></feMergeNode></feMerge></filter><g transform="translate(150,150) scale(1.5)"><path d="M0,0L1.8287727568226626,5.564506605375103C3.657545513645325,11.129013210750205,7.31509102729065,22.25802642150041,9.269792598062864,22.924219085613508C11.224494168835077,23.59041174972661,11.47635179673418,13.793783867202603,9.387769821410199,9.191340019929946C7.299187846086219,4.588896172657291,2.8701662675391546,5.180636360635986,0.20628160852017707,6.205408073662385C-2.4576030504988005,7.230179786688785,-3.3563507899896914,8.687983024762888,-3.9603017195255834,8.570805715784504C-4.5642526490614745,8.45362840680612,-4.873406768642367,6.761470550775249,-4.06485346521506,3.504112586472732C-3.2563001617877525,0.2467546221702155,-1.3300394353522453,-4.575803450403946,0.05056334382066724,-4.678139394517782C1.4311661229935797,-4.780475338631618,2.2661109549038976,-0.16258915428513054,7.482937503109875,1.0384922988107304C12.699764051315853,2.2395737519065912,22.29847231581749,0.02385047375182503,20.48775626491935,5.123346744930319C18.67704021402121,10.222843016108813,5.456899847723291,22.637558836620567,9.67114923942865,20.239578221225813C13.885398631134008,17.841597605831055,35.534037780842645,0.6309205545297925,38.926501049849335,-3.8911124862670565C42.318964318856025,-8.413145527063906,27.45525170716077,-0.24653455735633933,17.84100838402523,-5.341100325533753C8.226765060889692,-10.435666093711166,3.8619910263138695,-28.79140859977356,-4.9852791144272945,-29.531666389840208C-13.832549255168459,-30.271924179906854,-27.162315502074968,-13.396697253977752,-32.836124445522444,2.988279394867045C-38.50993338896991,19.373256043711844,-36.52778502895836,35.26798241547234,-33.69491596643785,35.80625015582224C-30.862046903917342,36.34451789617213,-27.178457138887886,21.526327005111426,-14.92579291237777,13.844048479534992C-2.6731286858676544,6.16176995395856,18.148610002123117,5.6154037938664025,22.265951260550235,2.0051416881333752C26.383292518977356,-1.6051204175996512,13.796236347840823,-8.279278468973548,1.977840646099665,-7.157326120902886C-9.840555055641493,-6.035373772832225,-20.890290287987277,2.8826889746829947,-28.787080945984076,7.071263290138996C-36.683871603980876,11.259837605594997,-41.427717687628686,10.71892348899178,-35.6989649044253,8.931120821694147C-29.970212121221923,7.143318154396513,-13.768860471167343,4.108626936404463,-6.171403233270976,4.376677819835329C1.4260540046253922,4.644728703266195,0.41961683036354797,8.215521688119978,2.315472439800753,14.515173718473687C4.211328049237958,20.814825748827396,9.009476442374211,29.843336824681035,6.1884895866459715,27.771716698598844C3.3675027309177317,25.700096572516653,-7.072619373675002,12.528345244498638,-9.319422994051028,10.229575605031759C-11.566226614427054,7.930805965564878,-5.619711750586372,16.505018014649135,1.6614735646776198,18.12495023511123C8.942658879941611,19.74488245557332,17.558514646628915,14.410534847413244,17.546346404744977,11.402569331994684C17.534178162861036,8.394603816576122,8.89398591240586,7.713020393899076,12.360454174413228,10.749026691783135C15.826922436420594,13.785032989667194,31.400051210890503,20.53862900811236,24.17283411518355,19.963521581632236C16.945617019476597,19.38841415515211,-13.081945946407222,11.484603283746697,-20.3533665443152,-0.6816328046038684C-27.624787142223177,-12.847868892954434,-12.140065372155316,-29.276530198250153,-9.229228082767712,-29.28861868722934C-6.31839079338011,-29.300707176208533,-15.981437984672768,-12.896222848871192,-13.217136058508986,-3.7914080716429943C-10.452834132345206,5.313406705585203,4.7388169112750145,7.118551932704258,7.745514237817693,5.783498903918322C10.752211564360373,4.448445875132386,1.5739551738255093,-0.02680540955854216,-3.903539446148445,-5.136762849414691C-9.3810340661224,-10.24672028927084,-11.157766915535447,-15.991383884292208,-7.991564900930453,-15.255944189022147C-4.825362886325459,-14.520504493752084,3.283773992297574,-7.30496150819059,6.378707229113635,-7.2008284831763945C9.473640465929696,-7.096695458162199,7.554370060938784,-14.103972393695303,6.594734858443329,-17.607610861461858L5.635099655947873,-21.111249329228407" style="filter: url(#kmwji); stroke: rgb(239, 222, 205);"></path></g></svg>