<?xml version="1.0" encoding="UTF-8" standalone="no"?>
<svg
   xmlns:dc="http://purl.org/dc/elements/1.1/"
   xmlns:cc="http://creativecommons.org/ns#"
   xmlns:rdf="http://www.w3.org/1999/02/22-rdf-syntax-ns#"
   xmlns:svg="http://www.w3.org/2000/svg"
   xmlns="http://www.w3.org/2000/svg"
   version="1.1"
   id="svg2"
   height="300"
   width="300"
   preserveAspectRatio="xMidYMid"
   viewBox="0 0 300 300">
  <metadata
     id="metadata27">
    <rdf:RDF>
      <cc:Work
         rdf:about="">
        <dc:format>image/svg+xml</dc:format>
        <dc:type
           rdf:resource="http://purl.org/dc/dcmitype/StillImage" />
      </cc:Work>
    </rdf:RDF>
  </metadata>
  <defs
     id="defs25" />
  <filter
     y="-50%"
     x="-50%"
     height="500"
     width="300"
     id="fhknp">
    <feFlood
       id="feFlood5"
       result="element"
       flood-color="#64609A" />
    <feTurbulence
       id="feTurbulence7"
       result="element_1"
       seed="81"
       numOctaves="8"
       type="fractalNoise"
       baseFrequency="0.02" />
    <feGaussianBlur
       id="feGaussianBlur9"
       result="element_2"
       in="SourceAlpha"
       stdDeviation="5" />
    <feDisplacementMap
       id="feDisplacementMap11"
       result="element_3"
       in2="element_1"
       in="element_2"
       scale="100" />
    <feComposite
       id="feComposite13"
       result="element_4"
       in2="element_3"
       in="element"
       operator="in" />
    <feMerge
       id="feMerge15">
      <feMergeNode
         id="feMergeNode17"
         in="element_4" />
    </feMerge>
  </filter>
  <g
     id="g19"
     transform="translate(150,150) scale(1.5)">
    <path
       id="path21"
       style="filter: url(#fhknp); stroke: rgb(100, 96, 154);"
       d="M0,0L1.4989662372124875,0.46284759994664104C2.997932474424975,0.9256951998932821,5.99586494884995,1.8513903997865642,6.807955061666582,7.848746004719745C7.620045174483213,13.846101609652926,6.246292925691502,24.915117619626006,9.484869966204243,24.640689001937464C12.723447006716986,24.366260384248925,20.574353336534184,12.748387138898764,21.824009533214188,1.7787964762084396C23.073665729894195,-9.190794186481885,17.722071793437006,-19.512102266512372,11.154279594185168,-23.851377871592636C4.586487394933329,-28.190653476672896,-3.1975030671131623,-26.54789660680293,-8.151058100666788,-22.608424173063504C-13.104613134220413,-18.668951739324076,-15.227732739281173,-12.432763741715185,-8.526917397505965,-8.174873194987615C-1.8261020557307575,-3.9169826482600456,13.698648232880418,-1.6373895524137962,19.935596400297726,1.1204204907618656C26.172544567715033,3.8782305339375274,23.121690613938476,7.114257524442602,19.296232045205596,3.327971444550058C15.470773476472713,-0.45831463534248496,10.870710292783512,-11.266913785632646,13.408927665180578,-13.21605970650079C15.947145037577645,-15.165205627368934,25.623642966060977,-8.254898318815062,24.336085511688324,-2.8293280507341234C23.048528057315668,2.5962422173468145,10.796915220087024,6.537075444954818,0.1721920954996028,7.483848414771577C-10.452531029087817,8.430621384588335,-19.450364441034015,6.38333409661385,-21.43760344746359,-1.7568769734062375C-23.424842453893163,-9.897088043426324,-18.40148705480612,-24.13022289549201,-13.128234815290606,-27.58914302182437C-7.854982575775095,-31.04806314815673,-2.3318334958311224,-23.73276854875576,7.600593359674456,-10.122083260773152C17.533020215180034,3.488602027209458,31.87472484624722,23.394678003773706,38.04029846247625,20.017018326628012C44.20587207870528,16.639358649482315,42.19531468009616,-10.022036681373327,36.28507945330687,-20.073862294570837C30.374844226517578,-30.125687907768345,20.56493117154812,-23.56794380330772,15.952803327468061,-17.715441239542127C11.340675483387997,-11.86293867577653,11.92633285019733,-6.7156776527059625,9.509777164146803,3.20833334803237C7.093221478096277,13.132344348770703,1.674452739185889,27.8331053271768,-6.328058216882765,30.220718785768305C-14.330569172951417,32.60833224435981,-24.91682234617834,22.682798183136722,-30.124177632388182,13.094915735712696C-35.33153291859803,3.507033288288673,-35.15999031779079,-5.7431975453362885,-35.05282128527953,-5.4242429239105805C-34.945652252768255,-5.1052883024848725,-34.90285678855295,4.782851773991505,-28.59249846040166,9.821815006234408C-22.28214013225037,14.860778238477309,-9.704218940163091,15.050564626486738,-8.278218489046061,7.066395188984149C-6.85221803792903,-0.9177742485184393,-16.578138327782245,-17.075899511533045,-8.976663587921024,-18.075387016446236C-1.3751888480597998,-19.07487452135943,23.553680921515863,-4.915724268171209,31.776104016690624,0.460234745733131C39.998527111865386,5.836193759637471,31.51450353263925,2.4289615342579305,20.242019463628893,0.7272816747372655C8.969535394618532,-0.9743981847833993,-5.0914091641760475,-0.9705256784451886,-9.5035194768984,-0.04369796699933137C-13.91562978962075,0.8831297444465259,-8.678905856270873,2.7329126610000296,-8.062124653841204,0.9034704254387966C-7.445343451411534,-0.9259718101224363,-11.44850497990207,-6.434639197798406,-7.613336473877988,-3.3374711488050037C-3.7781679678539035,-0.24030309981160158,7.8953305726848,11.462700385851171,8.565664649124587,14.853520263899792C9.235998725564375,18.244340141948413,-1.0968316620947558,13.322976412382877,-3.8517474658311253,7.804225888770274C-6.606663269567495,2.285475365157674,-1.7836644893811044,-3.8306619525019947,0.33410691672587983,-5.422030254624714C2.451878322832864,-7.013398556747433,1.864422354860442,-4.079997843333203,2.695454050170728,-6.153965500222991C3.526485745481013,-8.227933157112782,5.776005104074007,-15.30926918430659,0.2180658979729131,-11.36099491672274C-5.339873308128181,-7.412720649138889,-18.70527107892336,7.565163913222622,-25.387969964320952,15.054106194403378L-32.070668849718544,22.543048475584133" />
  </g>
</svg>
