<?xml version="1.0" encoding="UTF-8" standalone="no"?>
<svg
   xmlns:dc="http://purl.org/dc/elements/1.1/"
   xmlns:cc="http://creativecommons.org/ns#"
   xmlns:rdf="http://www.w3.org/1999/02/22-rdf-syntax-ns#"
   xmlns:svg="http://www.w3.org/2000/svg"
   xmlns="http://www.w3.org/2000/svg"
   version="1.1"
   id="svg2"
   height="300"
   width="300"
   preserveAspectRatio="xMidYMid"
   viewBox="0 0 300 300">
  <metadata
     id="metadata27">
    <rdf:RDF>
      <cc:Work
         rdf:about="">
        <dc:format>image/svg+xml</dc:format>
        <dc:type
           rdf:resource="http://purl.org/dc/dcmitype/StillImage" />
      </cc:Work>
    </rdf:RDF>
  </metadata>
  <defs
     id="defs25" />
  <filter
     y="-50%"
     x="-50%"
     height="500"
     width="300"
     id="fbfmp">
    <feFlood
       id="feFlood5"
       result="element"
       flood-color="#cd9575" />
    <feTurbulence
       id="feTurbulence7"
       result="element_1"
       seed="6"
       numOctaves="8"
       type="fractalNoise"
       baseFrequency="0.02" />
    <feGaussianBlur
       id="feGaussianBlur9"
       result="element_2"
       in="SourceAlpha"
       stdDeviation="4" />
    <feDisplacementMap
       id="feDisplacementMap11"
       result="element_3"
       in2="element_1"
       in="element_2"
       scale="100" />
    <feComposite
       id="feComposite13"
       result="element_4"
       in2="element_3"
       in="element"
       operator="in" />
    <feMerge
       id="feMerge15">
      <feMergeNode
         id="feMergeNode17"
         in="element_4" />
    </feMerge>
  </filter>
  <g
     id="g19"
     transform="translate(150,150) scale(1.5)">
    <path
       id="path21"
       style="filter: url(#fbfmp); stroke: rgb(205, 149, 117);"
       d="M0,0L1.0240187820389663,0.10518744659484165C2.0480375640779327,0.2103748931896833,4.096075128155865,0.4207497863793666,8.370719227553266,3.3775519897725395C12.645363326950667,6.334354193165712,19.146613961667537,12.037583706762375,20.230756139757297,11.581674482627015C21.31489831784706,11.125765258491656,16.98193203930971,4.510717296624277,15.495811809424684,2.874196226011675C14.009691579539655,1.237675155399073,15.370417398306948,4.5796809760412485,8.5109121444535,7.0830804047099925C1.6514068906000503,9.586479833378737,-13.42832943587414,11.25127287007405,-11.59578219102421,4.489089090769412C-9.763234946174281,-2.2730946885352257,8.981595869999767,-17.462255283839816,9.808820074040913,-28.228182588902452C10.636044278082057,-38.99410989396509,-6.454338130009701,-45.33680390878576,-11.236063330690905,-42.07730156350405C-16.01778853137211,-38.817799218222326,-8.490856524642759,-25.956100512838216,-4.182286593442337,-13.199430776801625C0.12628333775808442,-0.44276104076503486,1.2164911934295772,12.208879725924033,1.5356331347184105,14.553049962985261C1.8547750760072441,16.897220200046487,1.4028511029134183,8.933919907479872,-0.033433530070956285,3.9635783510318148C-1.4697181630553307,-1.0067632054162436,-3.890363455930254,-2.9841460257457455,-7.776136468710185,1.0687812468582205C-11.661909481490115,5.121708519462187,-17.012810214175055,15.20494588499962,-14.009279076167426,12.486641930426922C-11.0057479381598,9.76833797585422,0.35221507054039236,-5.751507298828617,11.347475547055065,-13.626420042691937C22.342736023569742,-21.501332786555256,32.9752939678989,-21.731312999599062,32.034030420484896,-19.226180623289483C31.092766873070904,-16.721048246979908,18.57768183391375,-11.48080328131695,10.174281123557313,-7.449394983624312C1.7708804132008718,-3.4179866859316728,-2.520835968354855,-0.5954150562093521,3.9488939947525465,4.500719722126019C10.418623957859948,9.59685450046139,27.64980026563048,16.96655242740981,26.546075334913247,26.332299223545572C25.44235040419602,35.698046019681335,6.003724234991033,47.05984168500444,0.20539672844472134,47.336581268443865C-5.59293077810159,47.61332085188329,2.2490403780107737,36.805004353439024,1.489444059591059,29.88546458304533C0.7298477411713442,22.965924812651636,-8.631316051780448,19.935161770308504,-11.151395728702527,17.57356959699738C-13.671475405624603,15.211977423686253,-9.350470966516964,13.519556119407135,-15.048661924428192,3.804124028029138C-20.746852882339418,-5.911308063348858,-36.46423923726951,-23.64975094182573,-37.29168380992238,-27.546944425188165C-38.11912838257524,-31.4441379085506,-24.05663117295088,-21.500081996798603,-11.955451773205146,-14.932417053389116C0.14572762654059002,-8.364752109979628,10.285589216407699,-5.173478134912653,20.397048948242645,-2.594159635119882C30.508508680077593,-0.01484113532711051,40.591566553880384,1.952521889191457,28.530390413260488,3.157634503480593C16.4692142726406,4.362747117769729,-17.73619588240197,4.805609321829434,-28.51597979068904,-4.673465503400808C-39.29576369897611,-14.152540328631051,-26.649921360507687,-33.55355218315124,-21.089899068620493,-35.20966414574502C-15.529876776733296,-36.86577610833881,-17.055674531427332,-20.776988179006185,-21.975801704260583,-11.113399418505189C-26.895928877093837,-1.4498106580041907,-35.210385468066306,1.7885789336651836,-29.8498175709835,2.280072890981077C-24.489249673900705,2.7715668482969713,-5.453657288762637,0.5161651712593842,2.4428886873014237,9.642868103344881C10.339434663365484,18.769571035430378,7.0969342303555365,39.27837857663896,5.1485176970317665,41.037921189521306C3.2001011637079957,42.797463802403655,2.5457685300704016,25.807741486959763,-1.026017007958315,14.70999684765332C-4.597802545987031,3.612252208346878,-11.087040988406871,-1.5935147548221185,-7.175346283833942,-9.678863331364202C-3.263651579261012,-17.764211907906287,11.048976272304687,-28.72914209782146,20.21857261277509,-26.6402562916793C29.388168953245497,-24.55137048553715,33.414733782620615,-9.408668683337664,35.42801619730817,-1.837317782237923L37.44129861199573,5.734033118861818" />
  </g>
</svg>
