<?xml version="1.0" encoding="UTF-8" standalone="no"?>
<svg
   xmlns:dc="http://purl.org/dc/elements/1.1/"
   xmlns:cc="http://creativecommons.org/ns#"
   xmlns:rdf="http://www.w3.org/1999/02/22-rdf-syntax-ns#"
   xmlns:svg="http://www.w3.org/2000/svg"
   xmlns="http://www.w3.org/2000/svg"
   version="1.1"
   id="svg2"
   height="300"
   width="300"
   preserveAspectRatio="xMidYMid"
   viewBox="0 0 300 300">
  <metadata
     id="metadata27">
    <rdf:RDF>
      <cc:Work
         rdf:about="">
        <dc:format>image/svg+xml</dc:format>
        <dc:type
           rdf:resource="http://purl.org/dc/dcmitype/StillImage" />
      </cc:Work>
    </rdf:RDF>
  </metadata>
  <defs
     id="defs25" />
  <filter
     y="-50%"
     x="-50%"
     height="500"
     width="300"
     id="jyqgc">
    <feFlood
       id="feFlood5"
       result="element"
       flood-color="#fdd9b5" />
    <feTurbulence
       id="feTurbulence7"
       result="element_1"
       seed="31"
       numOctaves="8"
       type="fractalNoise"
       baseFrequency="0.02" />
    <feGaussianBlur
       id="feGaussianBlur9"
       result="element_2"
       in="SourceAlpha"
       stdDeviation="4" />
    <feDisplacementMap
       id="feDisplacementMap11"
       result="element_3"
       in2="element_1"
       in="element_2"
       scale="100" />
    <feComposite
       id="feComposite13"
       result="element_4"
       in2="element_3"
       in="element"
       operator="in" />
    <feMerge
       id="feMerge15">
      <feMergeNode
         id="feMergeNode17"
         in="element_4" />
    </feMerge>
  </filter>
  <g
     id="g19"
     transform="translate(150,150) scale(1.5)">
    <path
       id="path21"
       style="filter: url(#jyqgc); stroke: rgb(253, 217, 181);"
       d="M0,0L3.5792008267213253,-0.049512157659612574C7.158401653442651,-0.09902431531922515,14.316803306885301,-0.1980486306384503,8.051711947708668,-1.727389619093815C1.7866205885320348,-3.2567306075491795,-17.90196378326388,-6.216388269140683,-20.08389622553181,-6.573296948645355C-22.26582866779974,-6.930205628150027,-6.941109180539682,-4.684365325567867,0.17021655963314208,-8.44487499619406C7.281542299805966,-12.205384666820251,6.179474292891555,-21.972244310654798,-1.016516812487251,-23.36943338525387C-8.212507917866057,-24.766622459852943,-21.50242212170926,-17.794140965216545,-23.487615999128643,-6.370343634778042C-25.472809876548027,5.053453695660462,-16.153283427543595,20.92856686190107,-9.926284196581033,26.973237356215762C-3.699284965618469,33.01790785053046,-0.5648129526977739,29.232135672919238,3.4717711703140433,32.20635960412119C7.508355293325861,35.18058353532315,12.4470515264288,44.91480357533828,12.070576319839788,46.737478212514254C11.694101113250776,48.560152849690226,6.002454466969812,42.47128208402703,5.709474520500418,36.319104148224156C5.4164945740310255,30.16692621242128,10.522181327373202,23.95144110647873,8.983004330607146,22.589960073850637C7.443827333841092,21.22847904122255,-0.740213413033195,24.72100208190892,-5.446298804731913,21.79486494242534C-10.152384196430631,18.868727802941763,-11.380514232953779,9.523930483288233,-6.347179838039594,11.128728094394337C-1.313845443125408,12.73352570550044,9.980953383226112,25.28791824736618,17.484959224901882,27.420666871924197C24.988965066577652,29.55341549648222,28.702177923577672,21.264520203732523,23.596905674582484,22.04732758218094C18.491633425587295,22.83013496062936,4.567876070596896,32.68464501027589,-6.73637533035587,27.324858983044745C-18.040626731308638,21.965072955813604,-26.725372178223772,1.3909908517047853,-25.802169668513624,-7.0233330435564385C-24.87896715880347,-15.437656938817662,-14.347816692468033,-11.692222625231292,-9.61517018325791,-7.903446030090704C-4.8825236740477855,-4.114669434950117,-5.948381121962976,-0.2825505582553105,-6.964435612874311,-7.543180374342452C-7.980490103785648,-14.803810190429592,-8.94674163769313,-33.15718869929868,-4.6941764096874765,-29.68980378200243C-0.4416111816818242,-26.222418864706174,9.029770808236963,-0.9342705212445814,10.704409900684285,13.993324616635043C12.37904899313161,28.920919754514664,6.25694518810747,33.48796168681232,-2.340672771017898,28.810797308372667C-10.938290730143267,24.133632929933007,-22.011422843369864,10.212262240756045,-17.158762125029007,9.477631646884385C-12.306101406688148,8.743001053012724,8.472352143220164,21.195110554446366,19.8974212535201,19.072091419939493C31.322490363820037,16.949072285432614,33.3941750345116,0.25092451498522017,29.00258359796896,-4.3239281977212585C24.610992161426324,-8.898780910427737,13.756124617649496,-1.350338565393299,13.180061292948341,-1.074369798529986C12.60399796824719,-0.798401031666673,22.306738862621714,-7.794905842974485,22.190032176188176,-9.033554587717171C22.073325489754634,-10.27220333245986,12.137171222513025,-5.752996010637423,5.813962745106679,-3.8481766853354107C-0.509245732299666,-1.9433573600333993,-3.2195084198707487,-2.652926031251813,-3.9780653331541864,1.897804478088339C-4.736622246437625,6.448534987428491,-3.543473385433418,16.25956467732721,2.5291200590600478,25.68852131024515C8.601713503553514,35.117477943163095,19.55375153153624,44.16436151910027,22.53784148720998,38.61891983042522C25.52193144288372,33.073478141750165,20.538073326248476,12.9357111884629,17.3340941684263,2.4915131322845734C14.130115010604126,-7.952684923893753,12.706014811595018,-8.70331408296314,13.030465170146329,-17.138468669698227C13.354915528697639,-25.573623256433315,15.427916444809366,-41.69330327083411,4.690280218664533,-43.980810627726065C-6.0473560074803,-46.268317984618015,-29.595629375881693,-34.72365268400114,-33.756482102689134,-22.734804167744407C-37.91733482949657,-10.745955651487682,-22.690766914710046,1.6870760804088878,-15.077482957316786,7.903591946357173L-7.464198999923527,14.12010781230546" />
  </g>
</svg>
