<?xml version="1.0" encoding="UTF-8" standalone="no"?>
<svg
   xmlns:dc="http://purl.org/dc/elements/1.1/"
   xmlns:cc="http://creativecommons.org/ns#"
   xmlns:rdf="http://www.w3.org/1999/02/22-rdf-syntax-ns#"
   xmlns:svg="http://www.w3.org/2000/svg"
   xmlns="http://www.w3.org/2000/svg"
   version="1.1"
   id="svg2"
   height="300"
   width="300"
   preserveAspectRatio="xMidYMid"
   viewBox="0 0 300 300">
  <metadata
     id="metadata27">
    <rdf:RDF>
      <cc:Work
         rdf:about="">
        <dc:format>image/svg+xml</dc:format>
        <dc:type
           rdf:resource="http://purl.org/dc/dcmitype/StillImage" />
      </cc:Work>
    </rdf:RDF>
  </metadata>
  <defs
     id="defs25" />
  <filter
     y="-50%"
     x="-50%"
     height="500"
     width="300"
     id="egucc">
    <feFlood
       id="feFlood5"
       result="element"
       flood-color="#78dbe2" />
    <feTurbulence
       id="feTurbulence7"
       result="element_1"
       seed="79"
       numOctaves="8"
       type="fractalNoise"
       baseFrequency="0.02" />
    <feGaussianBlur
       id="feGaussianBlur9"
       result="element_2"
       in="SourceAlpha"
       stdDeviation="4" />
    <feDisplacementMap
       id="feDisplacementMap11"
       result="element_3"
       in2="element_1"
       in="element_2"
       scale="100" />
    <feComposite
       id="feComposite13"
       result="element_4"
       in2="element_3"
       in="element"
       operator="in" />
    <feMerge
       id="feMerge15">
      <feMergeNode
         id="feMergeNode17"
         in="element_4" />
    </feMerge>
  </filter>
  <g
     id="g19"
     transform="translate(150,150) scale(1.5)">
    <path
       id="path21"
       style="filter: url(#egucc); stroke: rgb(120, 219, 226);"
       d="M0,0L1.3618867950621196,8.28791031745983C2.7237735901242393,16.57582063491966,5.4475471802484785,33.15164126983932,5.412150486675032,26.9919291992596C5.376753793101586,20.832217128679883,2.5821868158304544,-8.06302764739921,-6.333493722136031,-16.950846812379844C-15.249174260102516,-25.83866597736048,-30.285968358764354,-14.719059531242657,-31.574405392303238,-14.337859563215385C-32.86284242584212,-13.956659595188114,-20.40292239425805,-24.313866105251392,-13.520161192086897,-32.88487199216405C-6.637399989915748,-41.45587787907671,-5.331797617157521,-48.24068314283874,-9.3776707876048,-41.18116750722204C-13.423543958052079,-34.12165187160534,-22.82089267170486,-13.217815336609897,-17.97344684570713,-0.9945646563618107C-13.126001019709403,11.228686023886276,5.966239345938842,14.771350849387009,17.68017559991313,15.173911873464192C29.39411185388742,15.576472897541375,33.72974399618775,12.838930120195013,32.52827375433708,6.554613577929359C31.326803512486407,0.2702970356637069,24.588230886484723,-9.560793271521234,18.817651700059606,-16.842039844088085C13.047072513634486,-24.12328641665493,8.244486766785931,-28.854689254603688,6.291739679619245,-23.338449933865405C4.338992592452559,-17.82221061312712,5.2360841649677425,-2.0583291337017933,1.5741147578254355,-1.7233555100564342C-2.0878546493168715,-1.388381886411075,-10.308885036116669,-16.482316118545683,-10.383562360780255,-23.17738675916275C-10.458239685443843,-29.872457399779822,-2.3865639479712177,-28.168664448879355,1.4511543171434478,-19.000798912468994C5.288872582258113,-9.83293337605863,4.89263337501482,6.799004745861627,1.3893340350898664,16.61081863708061C-2.1139653048350873,26.422632528299587,-8.724324777441701,29.414322188817295,-8.888823382040604,29.905845880182074C-9.053321986639506,30.39736957154686,-2.7719597232306965,28.38872729375872,-6.106968115841847,17.822445915216186C-9.441976508453,7.2561645366736585,-22.39335555708411,-11.86775594262326,-23.078802381921474,-19.116831583897877C-23.76424920675884,-26.365907225172492,-12.183763807802457,-21.74013802842481,-4.280456960667689,-11.390346765706692C3.622849886467078,-1.0405555029885765,7.848978181780231,15.033257825699971,9.501550577794978,24.016883721994382C11.154122973809725,33.00050961828879,10.23313947052607,34.893948082189056,5.179414502474751,26.69252450955803C0.1256895344234339,18.491100936927005,-9.060776898395543,0.19481532776468313,-17.756990487729084,-9.596029675624575C-26.453204077062626,-19.386874679013832,-34.65916482291073,-20.672279076630026,-33.84193955445055,-23.43480494748137C-33.02471428599037,-26.197330818332716,-23.184303003221896,-30.436978162419216,-19.110073209209858,-26.03300266584933C-15.035843415197828,-21.629027169279443,-16.72779510994223,-8.58142883205317,-18.486931685653275,-5.554591775748616C-20.246068261364318,-2.5277547194440606,-22.072389718042,-9.521678944061222,-21.500825133831363,-2.2295849350782895C-20.92926054962073,5.062509073904643,-17.959809924521778,26.640621316487668,-18.140885567511585,27.20393127453587C-18.321961210501392,27.76724123258407,-21.653563121579964,7.315748906097443,-13.453230784916252,1.3187154188075043C-5.252898448252541,-4.678318068482435,14.479368136153454,3.7791072834243113,26.88557143272463,5.790905183424453C39.2917747292958,7.802703083424595,44.37191473803216,3.368873531518133,34.52999401925574,1.1998451430856372C24.688073300479317,-0.9691832453468587,-0.07590814580987626,-0.8734104703053878,-8.40437285537146,-0.10526416450918696C-16.732837564933043,0.6628821412870137,-8.625785537767017,2.1034019778379442,-0.20725030851160398,0.37863800745023823C8.21128492074381,-1.3461259629374673,16.94130335208861,-6.236173740263809,17.170450554529328,-6.038208762050876C17.399597756970046,-5.840243783837944,9.127873730506684,-0.5542660500857362,6.215965509212723,3.240480474156957C3.304057287918763,7.03522699839965,5.751964871794206,9.338742313132828,7.0600857639941665,11.364760164761638C8.368206656194129,13.390778016390447,8.536540856718608,15.139298404914888,8.620707956980848,16.01355859917711L8.704875057243088,16.88781879343933" />
  </g>
</svg>
