<svg viewBox="0 0 300 300" preserveAspectRatio="xMidYMid" width="300" height="300"><filter id="bsirj" width="300" height="500" x="-50%" y="-50%"><feFlood flood-color="#5fbed7" result="element"></feFlood><feTurbulence baseFrequency="0.02" type="fractalNoise" numOctaves="8" seed="57" result="element_1"></feTurbulence><feGaussianBlur stdDeviation="5" in="SourceAlpha" result="element_2"></feGaussianBlur><feDisplacementMap scale="100" in="element_2" in2="element_1" result="element_3"></feDisplacementMap><feComposite operator="in" in="element" in2="element_3" result="element_4"></feComposite><feMerge><feMergeNode in="element_4"></feMergeNode></feMerge></filter><g transform="translate(150,150) scale(1.5)"><path d="M0,0L0.6671913692690211,-3.9007210223462345C1.3343827385380422,-7.801442044692469,2.6687654770760845,-15.602884089384938,7.285772325810097,-11.03908860630122C11.90277917454411,-6.475293123217503,19.802410133474094,10.453739887642403,24.789819872168938,16.678943701111937C29.777229610863785,22.904147514581467,31.852418129323496,18.42552213066063,28.14862439590277,11.689340581485062C24.44483066248205,4.953159032309493,14.962054677180895,-4.040578682120805,9.07130634245945,-5.7632819461323415C3.180558007738002,-7.485985210143878,0.8818373235962648,-1.9376540237366515,1.9223682990309179,8.063427353995857C2.9628992744655713,18.064508731728367,7.342681909476615,32.51834030078616,12.98757493226465,31.989625133232813C18.632467955052682,31.460909965679466,25.542471365617708,15.949648061514985,29.112149647742896,8.90727212179674C32.68182792986809,1.8648961820784957,32.911181083553444,3.2914062068064873,25.468289287205387,3.903551318428268C18.02539749085733,4.515696430050048,2.9102607444758632,4.313476628565617,-4.464208729032235,11.699001840570835C-11.838678202540333,19.084527052576053,-11.47248040317506,34.05779727807092,-9.556158094081493,34.97973210453532C-7.639835784987925,35.90166693099972,-4.173388966166062,22.77226635843364,-0.5835176521443113,13.887712039027285C3.0063536618774394,5.003157719620932,6.7196494710990775,0.36344965337430146,4.816475396580325,-6.849655099965938C2.9133013220615718,-14.06275985330618,-4.606342636197573,-23.849261293740028,-2.4825210931139106,-25.225556009523643C-0.35869955003024856,-26.601850725307255,11.408587494396219,-19.567938716440633,9.248932815347278,-13.716442106670609C7.089278136298336,-7.864945496900583,-8.997318266226014,-3.195864286227156,-10.005117651536054,0.17972302518988514C-11.012917036846096,3.5553103366069267,3.058080595058172,5.637403748767582,11.553367097903774,11.707417729604636C20.048653600749375,17.77743171044169,22.96822897453631,27.835366259955144,14.96649846151895,26.484317961906125C6.964767948501596,25.13326966385711,-11.95826845132005,12.37323851824562,-16.64312093169756,5.584019144306818C-21.327973412075067,-1.2052002296319833,-11.774641973008439,-2.023607831898096,-16.094386344207024,-3.032168218501198C-20.41413071540561,-4.0407286051043005,-38.60695089686941,-5.2394417760443925,-37.62284302527271,-6.521080726887035C-36.638735153676,-7.80271967772968,-16.4776992290188,-9.167284408474876,-5.122800954786706,-13.315123022488836C6.23209731944539,-17.462961636502794,8.780857943252379,-24.39407413378552,9.340500880302008,-30.93631638226374C9.900143817351637,-37.47855863074196,8.470669067643906,-43.63193063041568,7.543338083393437,-31.80991809342842C6.616007099142968,-19.98790555644115,6.190819880349762,9.809491517207107,7.9799985391192045,14.937269246430306C9.769177197888647,20.06504697565351,13.77272173422074,0.5232053604516551,13.387415668422465,1.134253109860083C13.002109602624191,1.7453008592685109,8.227952934695551,22.50923797328722,12.359980911985087,18.782289135592286C16.492008889274622,15.055340297897356,29.530221511782333,-13.162494491511216,28.485733171983224,-22.057385415769712C27.441244832184108,-30.952276340028206,12.314055530078175,-20.524223399136623,6.423802973758729,-11.027386037856388C0.5335504174392818,-1.5305486765761511,3.880234606906324,7.035073105092739,6.9771712396703,8.647035828543649C10.074107872434276,10.258998551994559,12.921296948495186,4.917302217227487,9.67976285612583,1.330122381965442C6.4382287637564755,-2.257057453296603,-2.8920284970431442,-4.089720789053622,-3.1028482514443465,-3.03254386904499C-3.3136680058455488,-1.9753669490363577,5.594949746151666,1.9716502267379261,1.9432233883174366,4.7968524680180895C-1.7085029695167933,7.6220547092982525,-17.92057343718247,9.325442016084295,-22.731411500010694,11.146462179172897C-27.542249562838922,12.967482342261498,-20.951855220829703,14.906135361652659,-11.529301116228085,14.281475819943392C-2.1067470116264646,13.656816278234123,10.147966855567553,10.468844175424428,16.275323789164563,8.87485812401958L22.402680722761573,7.2808720726147325" style="filter: url(#bsirj); stroke: rgb(95, 190, 215);"></path></g></svg>