<?xml version="1.0" encoding="UTF-8" standalone="no"?>
<svg
   xmlns:dc="http://purl.org/dc/elements/1.1/"
   xmlns:cc="http://creativecommons.org/ns#"
   xmlns:rdf="http://www.w3.org/1999/02/22-rdf-syntax-ns#"
   xmlns:svg="http://www.w3.org/2000/svg"
   xmlns="http://www.w3.org/2000/svg"
   version="1.1"
   id="svg2"
   height="300"
   width="300"
   preserveAspectRatio="xMidYMid"
   viewBox="0 0 300 300">
  <metadata
     id="metadata27">
    <rdf:RDF>
      <cc:Work
         rdf:about="">
        <dc:format>image/svg+xml</dc:format>
        <dc:type
           rdf:resource="http://purl.org/dc/dcmitype/StillImage" />
      </cc:Work>
    </rdf:RDF>
  </metadata>
  <defs
     id="defs25" />
  <filter
     y="-50%"
     x="-50%"
     height="500"
     width="300"
     id="ugewu">
    <feFlood
       id="feFlood5"
       result="element"
       flood-color="#87a96b" />
    <feTurbulence
       id="feTurbulence7"
       result="element_1"
       seed="61"
       numOctaves="8"
       type="fractalNoise"
       baseFrequency="0.02" />
    <feGaussianBlur
       id="feGaussianBlur9"
       result="element_2"
       in="SourceAlpha"
       stdDeviation="5" />
    <feDisplacementMap
       id="feDisplacementMap11"
       result="element_3"
       in2="element_1"
       in="element_2"
       scale="100" />
    <feComposite
       id="feComposite13"
       result="element_4"
       in2="element_3"
       in="element"
       operator="in" />
    <feMerge
       id="feMerge15">
      <feMergeNode
         id="feMergeNode17"
         in="element_4" />
    </feMerge>
  </filter>
  <g
     id="g19"
     transform="translate(150,150) scale(1.5)">
    <path
       id="path21"
       style="filter: url(#ugewu); stroke: rgb(135, 169, 107);"
       d="M0,0L5.485195396142531,-3.4213418127744704C10.970390792285063,-6.842683625548941,21.940781584570125,-13.685367251097881,28.445456678944318,-17.798330558257494C34.95013177331851,-21.911293865417107,36.98909116978184,-23.29453685418739,28.06797122421742,-12.869408026202679C19.146851278653003,-2.4442791982179664,-0.7343480089391576,19.78922144652174,-6.280938466428663,24.058224827221057C-11.827528923918168,28.32722820792037,-3.0395105513050176,14.631734324579295,-2.720665711612869,8.440225577981582C-2.4018208719207204,2.248716831383872,-10.552149565149573,3.5611932215295248,-16.31995561462948,3.399398274904129C-22.087761664109394,3.237603328278733,-25.47304506984036,1.6015370448822888,-22.49047142290856,-1.5565011094937757C-19.507897775976765,-4.714539263869841,-10.157467076382204,-9.394549289225525,-4.847426401680125,-9.37081866389984C0.46261427302195324,-9.347088038574155,1.7322649228315505,-4.619616762567097,4.1041663589579525,-0.8850469518545077C6.4760677950843535,2.8495228588580823,9.95022001752756,5.591191204276206,8.85182310476091,2.482269933157558C7.753426191994263,-0.6266513379610892,2.082480144017761,-9.586162225616508,-7.375652419797179,-9.852302847829952C-16.83378498361212,-10.118443470043395,-30.079104063265497,-1.6912138268148649,-28.54425784381251,5.8270264868949C-27.009411624359522,13.345266800604666,-10.694400105800176,19.954517784795666,-0.33819512676759667,19.592614983472476C10.018009852264981,19.230712182149293,14.41540829177079,11.897655595311917,17.05949077901451,0.7525617974236711C19.703573266258232,-10.392532000464577,20.594339801239865,-25.349663009403695,14.390536668186439,-20.517708053760515C8.186733535133008,-15.68575309811733,-5.111639265955484,8.935287822108158,0.5238008386224813,9.415203200742368C6.159240943200446,9.89511857937658,30.72849395344487,-13.766091583580485,27.405778449345036,-19.9835609106227C24.083062945245207,-26.20103023766491,-7.131621073198875,-14.97475872879227,-15.657461665499637,-2.8848326970690037C-24.183302257800396,9.205093334654265,-10.020299423957836,22.15867388922816,-7.967881830881726,24.42483817237346C-5.915464237805617,26.691002455518756,-15.973631885495958,18.269750467235458,-21.311783479500264,10.534861275460909C-26.64993507350456,2.7999720836863573,-27.26807061382282,-4.2485543115794435,-16.63053188458859,-6.10708779683053C-5.992993155354355,-7.965621282081618,15.900219843432371,-4.6341618573179915,23.374525866213943,4.473141129920476C30.84883188899552,13.580444117158944,23.90423093577194,28.463590666872253,17.577861606183433,30.38299004805816C11.251492276594924,32.302389429244066,5.5433545706414895,21.258041641902565,0.690410600171139,23.766269798222392C-4.162533370299212,26.274497954542216,-8.16028360528648,42.33530205452337,-8.780153365898123,38.89695422031915C-9.400023126509765,35.458606386114944,-6.642012412745784,12.521106617725371,-2.9736230105329855,4.783999514588935C0.6947663916798139,-2.9531075885475007,5.2735344823414305,4.5101779735692,4.082377011528101,4.668211946980922C2.8912195407147716,4.826245920392643,-4.0698634915735035,-2.3209716949006145,-7.281085196696634,-4.458990548001813C-10.492306901819767,-6.597009401103009,-9.953667279777754,-3.7258294920121466,-4.408168229875422,-0.2767345476097334C1.1373308200269108,3.172360396792681,11.689689297789563,7.1993703765066455,11.487787031311507,7.873777091400041C11.285884764833453,8.548183806293437,0.32972175411468996,5.869987256366263,-3.6496533905618858,0.507367987269141C-7.6290285352384615,-4.8552512818279805,-4.63161581387285,-12.90229327009505,-3.796864962313407,-17.435332471107813C-2.962114110753964,-21.968371672120572,-4.290025129000688,-22.98740808587902,-11.311255025813068,-18.906081261304962C-18.33248492262545,-14.824754436730899,-31.047033698003485,-5.643064373824325,-36.13803655702814,2.8017387825386324C-41.229039416052785,11.24654193890159,-38.69649635872405,18.95445818872093,-35.28211825559887,17.676810205673796C-31.867740152473687,16.399162222626664,-27.57152700355207,6.1359500067130535,-25.42342042909126,1.0043438987562487L-23.27531385463045,-4.127262209200556" />
  </g>
</svg>
