<svg viewBox="0 0 300 300" preserveAspectRatio="xMidYMid" width="300" height="300"><filter id="qilrs" width="300" height="500" x="-50%" y="-50%"><feFlood flood-color="#ffd12a" result="element"></feFlood><feTurbulence baseFrequency="0.02" type="fractalNoise" numOctaves="8" seed="63" result="element_1"></feTurbulence><feGaussianBlur stdDeviation="5" in="SourceAlpha" result="element_2"></feGaussianBlur><feDisplacementMap scale="100" in="element_2" in2="element_1" result="element_3"></feDisplacementMap><feComposite operator="in" in="element" in2="element_3" result="element_4"></feComposite><feMerge><feMergeNode in="element_4"></feMergeNode></feMerge></filter><g transform="translate(150,150) scale(1.5)"><path d="M0,0L1.3954035103587865,-0.6033255363774794C2.790807020717573,-1.2066510727549589,5.581614041435146,-2.4133021455099177,10.681482943087278,-1.1459145237569417C15.781351844739408,0.12147309799603434,23.1902826273261,3.8628994142569453,23.74830532681551,4.346441262284205C24.306328026304925,4.8299831103114625,18.01344264269706,2.0556404901050693,20.173951808427585,6.235015987817639C22.334460974158105,10.414391485530208,32.94836468922701,21.54748510116174,30.982158518528276,30.361118430259005C29.01595234782954,39.17475175935627,14.469636291363159,45.66892480191926,2.5994033279464617,44.125939875913595C-9.270829635470236,42.58295494990793,-18.46497950583725,33.00281205533359,-14.632968524020141,24.395011079121925C-10.800957542203033,15.787210102910253,6.057214291798198,8.151751045061243,12.322827412165326,11.904097153712968C18.588440532532452,15.656443262364695,14.261494939265479,30.79659453751716,15.439382785237568,31.709834256111492C16.617270631209657,32.623073974705825,23.299991916420815,19.309402136742023,14.965687024469863,9.444599931831572C6.631382132518912,-0.4202022730788757,-16.719948936594147,-6.836134844935977,-21.660904654071945,-2.5659515253727854C-26.60186037154975,1.704231794190406,-13.132440737392296,16.660531005173887,-10.177305097699575,21.811627119862116C-7.222169458006855,26.962723234550346,-14.78131781277887,22.308616252943324,-13.66216922135112,17.061825557029277C-12.543020629923369,11.815034861115235,-2.7455750922958515,5.975560450894169,7.561750055120832,8.288623686569593C17.869075202537516,10.601686922245017,28.686279959743366,21.06728780381693,27.52411979448734,15.622981779562284C26.36195962923132,10.178675755307637,13.220434541513423,-11.175537174773574,6.887313837918598,-16.391585555071515C0.5541931343237734,-21.607633935369456,1.0294768148520195,-10.685517765884128,8.446800673683516,-0.19382712941781133C15.864124532515012,10.297863507048506,30.223488569649756,20.359128610495812,32.03762729133444,23.86169458055312C33.851766013019116,27.364260550610428,23.120679419253726,24.308127387277736,14.500438188596535,20.65518948813071C5.880196957939344,17.002251588983682,-0.6291989096096504,12.752508954022314,2.338093400799793,15.670975369859535C5.305385711209237,18.589441785696756,17.749366199577118,28.676117252332567,18.924832876259632,28.10547034087001C20.100299552942147,27.534823429407453,10.007252417939293,16.306854139846536,0.45036342735781965,12.603240219714296C-9.106525563223654,8.899626299582058,-18.127256409383747,12.720367748878502,-13.816555900280623,10.830273337942135C-9.505855391177496,8.940178927005768,8.13627647318885,1.33924865583659,6.623183557723912,1.4977095651729622C5.1100906422589745,1.6561704745093344,-15.558227053037248,9.574022564351257,-22.258412165928448,11.655649806080099C-28.958597278819646,13.737277047808943,-21.690649809305825,9.982679441424706,-15.464152696416742,-2.0319515904136507C-9.23765558352766,-14.046582622252007,-4.052608827263318,-34.321247079544484,1.649509417990555,-32.69106927325357C7.351627663244427,-31.06089146696266,13.57081739748783,-7.5258713970883555,14.766813427891291,11.452868412837805C15.96280945829475,30.431608222763966,12.135611784858268,44.854067772741985,2.2547639354291196,35.21797672300412C-7.62608391400003,25.581885673266253,-23.560581939421844,-8.1127559761875,-15.550179711522349,-16.62569173670368C-7.539777483622853,-25.13862749721986,24.415524997597956,-8.469857368798467,36.057636774788605,-2.7708285202642906C47.69974855197926,2.9282003282698854,39.028669625139756,-2.3425121030831564,27.388205463442095,-4.835950503329573C15.747741301744432,-7.32938890357599,1.1378919051886065,-7.0455532727157815,1.4487861338638712,-13.188111682552677C1.759680362539136,-19.330670092389575,16.991318216445492,-31.899622542923574,22.367612588581718,-22.66527306443829C27.74390696071794,-13.430923585953007,23.264857851084038,17.60672782155156,12.012565255212783,18.50345296563797C0.7602726593415294,19.40017810972438,-17.265263422767074,-9.844023009607369,-26.27803146382137,-24.46612356927324L-35.29079950487568,-39.08822412893912" style="filter: url(#qilrs); stroke: rgb(255, 209, 42);"></path></g></svg>