<svg viewBox="0 0 300 300" preserveAspectRatio="xMidYMid" width="300" height="300"><filter id="bdkoa" width="300" height="500" x="-50%" y="-50%"><feFlood flood-color="#fae7b5" result="element"></feFlood><feTurbulence baseFrequency="0.02" type="fractalNoise" numOctaves="8" seed="85" result="element_1"></feTurbulence><feGaussianBlur stdDeviation="5" in="SourceAlpha" result="element_2"></feGaussianBlur><feDisplacementMap scale="100" in="element_2" in2="element_1" result="element_3"></feDisplacementMap><feComposite operator="in" in="element" in2="element_3" result="element_4"></feComposite><feMerge><feMergeNode in="element_4"></feMergeNode></feMerge></filter><g transform="translate(150,150) scale(1.5)"><path d="M0,0L1.0085641927840618,7.611054571790564C2.0171283855681237,15.222109143581129,4.034256771136247,30.444218287162258,5.580076452568244,30.768377021183365C7.125896134000242,31.092535755204473,8.200407111296112,16.51874407966556,14.918476678939472,11.418016194592399C21.63654624658283,6.31728830951924,33.998174404573675,10.689624214911838,35.279965416676994,10.818659347948149C36.56175642878031,10.94769448098446,26.7637102949961,6.833428841664486,19.826270049239135,9.401951494688978C12.88882980348217,11.970474147713471,8.811995445752455,21.221785093082428,7.459994401316681,26.69909088661469C6.107993356880908,32.17639668014696,7.480825625739077,33.87969732184253,-0.3001493318252697,28.88485734587019C-8.081124289389617,23.89001736989785,-25.01590647337648,12.197036776257605,-29.430254079238917,4.647463589501651C-33.84460168510136,-2.902109597254302,-25.738514712839375,-6.308275377125959,-18.722220609076928,-10.404748143069636C-11.705926505314478,-14.501220909013314,-5.779425270051562,-19.288000661029013,-3.3214653276024286,-13.755834813878273C-0.8635053851532941,-8.223668966727535,-1.874086735517941,7.627442479589639,6.287229512332932,17.81738443733474C14.448545760183803,28.007326395079843,31.781759606250194,32.53609886425287,36.352506901888304,21.446261602196053C40.923254197526404,10.356424340139236,32.731534942736225,-16.352022653147422,19.285791592573087,-22.502866170064316C5.840048242409944,-28.653709686981202,-12.859719203126156,-14.24694972752832,-18.828314903486415,-10.59759048203295C-24.796910603846676,-6.948231236537581,-18.034334559031095,-14.056272704999724,-16.08695719264024,-14.103257969256923C-14.139579826249392,-14.150243233514121,-17.007401138283274,-7.136172293566377,-22.57348558886126,-6.554304254771559C-28.139570039439242,-5.9724362159767415,-36.40391762856133,-11.822771078334851,-33.504259750801424,-12.190212711265422C-30.604601873041517,-12.557654344195992,-16.540938528399607,-7.442202747699023,-6.382724731155591,-4.635516347052302C3.7754890660884275,-1.8288299464055817,10.028253315934554,-1.33090874160911,10.869746900822703,-1.3733975529594857C11.71124048571085,-1.4158863643098616,7.141463405641018,-1.998785191807085,12.248945158129008,-9.82829678051853C17.356426910616996,-17.657808369229976,32.141167495662806,-32.73393271915564,32.16986401645477,-33.39142115483554C32.19856053724673,-34.048909590515436,17.471212993784835,-20.28776211194957,5.621163173709917,-11.277895099062308C-6.228886646365002,-2.2680280861750446,-15.201638743052952,1.9905584610336096,-17.07364929447954,1.378233585508589C-18.945659845906125,0.7659087099835684,-13.71692885207135,-4.717327588275127,-3.196090589245814,-5.7347399555297605C7.324747673579722,-6.7521523227843945,23.13769320539602,-3.303740759034967,28.92323219757654,-4.384973429520196C34.708771189757066,-5.466206100005425,30.466903642301816,-11.07708300472531,25.377611059064897,-10.994153772432467C20.288318475827985,-10.911224540139623,14.351600856809405,-5.1344891708340485,9.28101308316755,-3.2575423482491677C4.2104253095256965,-1.3805955256642874,0.005967381260568061,-3.403437249800101,1.5089681959979282,3.7330593560295C3.0119690107352883,10.869555961859101,10.222428568475136,27.165390897654117,1.4069709461625823,24.666152482914978C-7.408486676149973,22.166914068175846,-32.24986147851493,0.8726023029025587,-39.20461959804274,-9.81127823578533C-46.15937771757055,-20.49515877447322,-35.2275191542612,-20.568608086575715,-26.109980566704827,-13.742428116939248C-16.992441979148452,-6.916248147302781,-9.689223367345045,6.809561104072645,-3.888678552035009,15.48836857856359C1.9118662632750263,24.167176053054533,6.20973728209169,27.798981750660992,2.012778651046202,23.519636759130684C-2.1841799799992874,19.24029176760037,-14.87596826090693,7.04979608693329,-18.236724164272637,-2.995702104013377C-21.59748006763834,-13.041200294960044,-15.627203593462111,-20.941700996186295,-5.014882876264539,-18.371151499005872C5.597437840933033,-15.800602001825453,20.851802801151948,-2.7590023062383633,28.4789852812614,3.761797541555182L36.10616776137086,10.282597389348728" style="filter: url(#bdkoa); stroke: rgb(250, 231, 181);"></path></g></svg>