<?xml version="1.0" encoding="UTF-8" standalone="no"?>
<svg
   xmlns:dc="http://purl.org/dc/elements/1.1/"
   xmlns:cc="http://creativecommons.org/ns#"
   xmlns:rdf="http://www.w3.org/1999/02/22-rdf-syntax-ns#"
   xmlns:svg="http://www.w3.org/2000/svg"
   xmlns="http://www.w3.org/2000/svg"
   version="1.1"
   id="svg2"
   height="300"
   width="300"
   preserveAspectRatio="xMidYMid"
   viewBox="0 0 300 300">
  <metadata
     id="metadata27">
    <rdf:RDF>
      <cc:Work
         rdf:about="">
        <dc:format>image/svg+xml</dc:format>
        <dc:type
           rdf:resource="http://purl.org/dc/dcmitype/StillImage" />
      </cc:Work>
    </rdf:RDF>
  </metadata>
  <defs
     id="defs25" />
  <filter
     y="-50%"
     x="-50%"
     height="500"
     width="300"
     id="pvjhn">
    <feFlood
       id="feFlood5"
       result="element"
       flood-color="#2e5894" />
    <feTurbulence
       id="feTurbulence7"
       result="element_1"
       seed="44"
       numOctaves="8"
       type="fractalNoise"
       baseFrequency="0.02" />
    <feGaussianBlur
       id="feGaussianBlur9"
       result="element_2"
       in="SourceAlpha"
       stdDeviation="4" />
    <feDisplacementMap
       id="feDisplacementMap11"
       result="element_3"
       in2="element_1"
       in="element_2"
       scale="100" />
    <feComposite
       id="feComposite13"
       result="element_4"
       in2="element_3"
       in="element"
       operator="in" />
    <feMerge
       id="feMerge15">
      <feMergeNode
         id="feMergeNode17"
         in="element_4" />
    </feMerge>
  </filter>
  <g
     id="g19"
     transform="translate(150,150) scale(1.5)">
    <path
       id="path21"
       style="filter: url(#pvjhn); stroke: rgb(46, 88, 148);"
       d="M0,0L0.32481643560397977,1.6397728438589134C0.6496328712079595,3.279545687717827,1.299265742415919,6.559091375435654,3.0052623697458007,10.367485485727496C4.711258997075682,14.175879596019339,7.473619380527486,18.5131221288852,4.06442159133301,16.497959360787938C0.6552238021385346,14.482796592690676,-8.925532159702222,6.115228523630294,-18.510971468110075,8.36848851448937C-28.096410776517928,10.621748505348444,-37.68653343149288,23.495836556126978,-34.61235602573492,17.3326215710813C-31.538178619976954,11.169406586035622,-15.79970115348607,-14.031111434834267,-4.11944749342441,-21.199651418080197C7.560806166637251,-28.36819140132613,15.18283602026969,-17.5047533469481,16.213072861882456,-7.134265999268592C17.24330970349522,3.236221348410915,11.681753533088312,13.1137579893919,9.92629298838311,11.52610102605154C8.17083244367791,9.93844406271118,10.221467524674416,-3.1144065049505203,9.334824699035428,-9.912954334687774C8.44818187339644,-16.711502164425028,4.624261141121958,-17.255747256237832,2.37269160323111,-15.443255627481706C0.12112206534026237,-13.630763998725582,-0.5580962781669522,-9.46153564940053,3.287235110452252,-8.28218223245656C7.132566499071457,-7.10282881551259,15.50244761981708,-8.913350330949703,15.779672136631342,-7.880441509720125C16.056896653445605,-6.847532688490547,8.241464566328506,-2.9711935305942783,8.793439923987929,4.33124522511698C9.345415281647353,11.63368398082824,18.2647980840833,22.362222334354488,19.579054236176166,19.224532383673694C20.893310388269033,16.086842432992903,14.602439890018815,-0.9170758218949331,4.406420363697502,-11.097481579044143C-5.789599162623813,-21.277887336193352,-19.890767717016224,-24.63478059560393,-22.905371933801312,-17.226440265138784C-25.9199761505864,-9.818099934673636,-17.84801602976416,8.355473985667242,-13.60486732823165,12.982458790213714C-9.36171862669914,17.609443594760187,-8.947381344456357,8.68983928351225,-4.101099911123014,2.945011544667496C0.7451815222103306,-2.799816194177259,10.023407106634238,-5.369867360618833,4.735982137670953,-6.592778978586265C-0.5514428312923325,-7.815690596553697,-20.404518353642807,-7.691462666046988,-23.43886680909167,-7.493917088283924C-26.47321526454053,-7.296371510520861,-12.688836653087778,-7.025508285501442,-8.356555328126554,-10.406491762045047C-4.0242740031653295,-13.78747523858865,-9.144089964695633,-20.820305416695277,-11.575894703258662,-20.12313986376794C-14.007699441821693,-19.425974310840605,-13.751492957417447,-10.998813026879308,-6.962056803690268,-8.197550131039591C-0.172620649963088,-5.396287235199877,13.150045173087028,-8.220922727481746,17.660273779175913,-12.715880427936183C22.170502385264804,-17.21083812839062,17.868293774392463,-23.376118037017626,22.84975998928167,-26.770521953538058C27.83122620417088,-30.164925870058486,42.096367244821636,-30.78845379447234,44.26533140073845,-25.37750970952283C46.43429555665526,-19.96656562457332,36.50708282783811,-8.521149530260452,21.984374782674628,1.3332090955570601C7.461666737511148,11.18756772137457,-11.656536623998672,19.450868878696724,-15.749971260621747,12.785856548874158C-19.843405897244825,6.120844219051589,-8.912071808981155,-15.472481597915696,-1.9876368051572069,-15.972712619669043C4.936798198666742,-16.472943641422383,7.854334118050972,4.119920132038212,8.125775953213019,6.258386196867905C8.397217788375066,8.396852261697596,6.022565539314929,-7.919079382103616,4.388941511320001,-17.29820433495658C2.755317483325073,-26.677329287809545,1.862721676395353,-29.119647549714262,-1.554593600871319,-19.799178178852635C-4.971908878137991,-10.478708807991008,-10.913943625741615,10.604548195636962,-13.294202034542673,16.049055681891975C-15.674460443343733,21.493563168146988,-14.492942513342228,11.299321137029041,-4.317572045932515,5.302821414248295C5.857798421477199,-0.6936783085324522,25.02702142629512,-2.492435722976001,28.59598458916957,4.522926059414406C32.16494775204402,11.538287841804813,20.133651072975,27.367768821029177,14.118002733440488,35.28250931064136L8.102354393905976,43.197249800253545" />
  </g>
</svg>
