<svg viewBox="0 0 300 300" preserveAspectRatio="xMidYMid" width="300" height="300"><filter id="sklle" width="300" height="500" x="-50%" y="-50%"><feFlood flood-color="#9f8170" result="element"></feFlood><feTurbulence baseFrequency="0.02" type="fractalNoise" numOctaves="8" seed="90" result="element_1"></feTurbulence><feGaussianBlur stdDeviation="5" in="SourceAlpha" result="element_2"></feGaussianBlur><feDisplacementMap scale="100" in="element_2" in2="element_1" result="element_3"></feDisplacementMap><feComposite operator="in" in="element" in2="element_3" result="element_4"></feComposite><feMerge><feMergeNode in="element_4"></feMergeNode></feMerge></filter><g transform="translate(150,150) scale(1.5)"><path d="M0,0L1.7051462374892483,1.330092636985881C3.4102924749784966,2.660185273971762,6.820584949956993,5.320370547943524,3.9526808808638645,9.915716733669708C1.0847768117707357,14.51106291939589,-8.061323801394018,21.041570016876495,-1.0259506352121566,23.81024234236505C6.0094225309697045,26.578914667853603,29.22626947649818,25.585752221350106,32.150414569921736,23.767368076852335C35.07455966334529,21.948983932354565,17.70600290466393,19.305378089862522,8.523942998653549,15.225374745665794C-0.6581169073568289,11.145371401469065,-1.65367996069622,5.628970555567653,0.013242089464409856,1.6348975913179453C1.6801641396250397,-2.359175372931763,6.00957129328569,-4.830920455529768,6.821340638936333,-12.256486238764186C7.633109984586977,-19.682052021998608,4.927241522227613,-32.06143850586944,6.876772181953088,-27.252057501276298C8.826302841678563,-22.44267649668316,15.431232623488878,-0.4445280036260417,17.57292912665288,9.21448674590108C19.714625629816883,18.8735014954282,17.39308885433457,16.19338250142533,14.478433180107576,8.378647206734989C11.563777505880578,0.5639119120446487,8.056002932908894,-12.38543968333316,3.489489391363125,-17.8779195098832C-1.077024150182646,-23.370399336433238,-6.702276660302504,-21.406007394155502,-11.990925333191871,-17.090470044989008C-17.27957400608124,-12.774932695822514,-22.231618841740122,-6.108249939767262,-14.110340531758919,-4.362316085518394C-5.989062221777713,-2.616382231269526,15.205539233843574,-5.791197278827043,16.340795471551534,-5.38848586334435C17.476051709259494,-4.985774447861658,-1.4480372709458749,-1.0055365693387563,-15.139226432501346,1.6632732970709236C-28.830415594056817,4.332083163480604,-37.2887049369624,5.689465017777062,-31.728891259097754,-1.3002689080955578C-26.16907758123312,-8.290002833968177,-6.591160882598267,-23.626852540009875,0.8303958539409788,-28.03054476839904C8.251952590480224,-32.43423699678821,3.5171493649238643,-25.90477174752484,7.64143052967179,-25.371077844375858C11.765711694419714,-24.837383941226882,24.749077249471927,-30.29946138419229,29.58791673418807,-24.98719367827319C34.42675621890422,-19.67492597235409,31.121069633284296,-3.5883131175504825,23.19574669580526,1.928977852110812C15.270423758326228,7.446268821772106,2.7254644689880783,2.394237906291088,-1.7350885283585908,1.7691492578820085C-6.19564152570526,1.1440606094729293,-2.5717882310604487,4.9459142281357895,-3.1559638932422196,6.775607969708867C-3.740139555423991,8.605301711281943,-8.532344174432344,8.462835575765236,-5.673233093716226,3.697145105547126C-2.814122013000107,-1.0685453646709844,7.696304767440483,-10.457460169590497,5.10082635147122,-11.531296769586977C2.5053479355019554,-12.605133369583456,-13.196035676877163,-5.363891764656898,-17.14514453687768,-3.650661096171179C-21.094253396878194,-1.93743042768546,-13.291087504500107,-5.752210695640579,-12.427389957899782,-6.800576757905292C-11.56369241129946,-7.848942820170003,-17.639463210476897,-6.130894676744308,-16.67117361628009,-1.4807760940062855C-15.702884022083284,3.1693424887317385,-7.690534034512229,10.75153151078209,5.245334547133792,17.850346042995007C18.181203128779813,24.949160575207927,36.0405903045008,31.564600617583405,39.88819412336638,32.39523870644228C43.735797942231954,33.22587679530115,33.57161840424211,28.271712930643407,28.912009461829385,21.154525320426114C24.25240051941666,14.037337710208828,25.097362172581054,4.757126354431989,19.178964106023074,1.3479359006385043C13.260566039465093,-2.06125455315498,0.5788082531847394,0.40057589503489055,-3.318899940058053,1.4421294075272266C-7.216608133300846,2.483682920019563,-2.330266733506078,2.1049594968143652,5.287779264598819,-1.5719363582142103C12.905825262703717,-5.248832213242785,23.255575859118743,-12.22390050009474,29.439158203243068,-19.405457590075848C35.62274054736739,-26.587014680056956,37.64015463920102,-33.97506057316722,41.230402791187785,-29.714539574867896C44.82065094317454,-25.45401857656857,49.983733155314425,-9.54493068685965,52.565274261384374,-1.5903867420051925L55.146815367454316,6.364157202849267" style="filter: url(#sklle); stroke: rgb(159, 129, 112);"></path></g></svg>