<?xml version="1.0" encoding="UTF-8" standalone="no"?>
<svg
   xmlns:dc="http://purl.org/dc/elements/1.1/"
   xmlns:cc="http://creativecommons.org/ns#"
   xmlns:rdf="http://www.w3.org/1999/02/22-rdf-syntax-ns#"
   xmlns:svg="http://www.w3.org/2000/svg"
   xmlns="http://www.w3.org/2000/svg"
   version="1.1"
   id="svg2"
   height="300"
   width="300"
   preserveAspectRatio="xMidYMid"
   viewBox="0 0 300 300">
  <metadata
     id="metadata27">
    <rdf:RDF>
      <cc:Work
         rdf:about="">
        <dc:format>image/svg+xml</dc:format>
        <dc:type
           rdf:resource="http://purl.org/dc/dcmitype/StillImage" />
      </cc:Work>
    </rdf:RDF>
  </metadata>
  <defs
     id="defs25" />
  <filter
     y="-50%"
     x="-50%"
     height="500"
     width="300"
     id="izrha">
    <feFlood
       id="feFlood5"
       result="element"
       flood-color="#9c2542" />
    <feTurbulence
       id="feTurbulence7"
       result="element_1"
       seed="59"
       numOctaves="8"
       type="fractalNoise"
       baseFrequency="0.02" />
    <feGaussianBlur
       id="feGaussianBlur9"
       result="element_2"
       in="SourceAlpha"
       stdDeviation="4" />
    <feDisplacementMap
       id="feDisplacementMap11"
       result="element_3"
       in2="element_1"
       in="element_2"
       scale="100" />
    <feComposite
       id="feComposite13"
       result="element_4"
       in2="element_3"
       in="element"
       operator="in" />
    <feMerge
       id="feMerge15">
      <feMergeNode
         id="feMergeNode17"
         in="element_4" />
    </feMerge>
  </filter>
  <g
     id="g19"
     transform="translate(150,150) scale(1.5)">
    <path
       id="path21"
       style="filter: url(#izrha); stroke: rgb(156, 37, 66);"
       d="M0,0L9.329382272322194,4.9272355007660895C18.658764544644388,9.854471001532179,37.317529089288776,19.708942003064358,36.51791262482435,18.871022643018577C35.71829616035991,18.033103282972792,15.460298686786661,6.5027935613490495,-0.1039169512931668,-0.6887851679286867C-15.668132589372995,-7.880363897206422,-26.538566391959403,-10.73321163413815,-26.167667162076835,-9.830251917039446C-25.79676793219427,-8.927292199940743,-14.184535669842731,-4.268525028811606,-4.606384932125839,-2.771137866801217C4.971765805591051,-1.2737507047908276,12.515835018673295,-2.9377435518991852,15.1871215331028,-1.9404891004900784C17.858408047532308,-0.9432346490809715,15.65691186330908,2.7152671008455997,12.340373657223212,4.912257047926774C9.023835451137344,7.109246995007948,4.592255223188836,7.8447251392437245,1.288994573573858,10.419905169138946C-2.01426607604112,12.995085199034168,-4.189207147322568,17.409967114588834,-5.910583270237496,9.496573237426471C-7.6319593931524246,1.5831793602641095,-8.899770567700834,-18.65849030961528,-5.273871536362492,-21.901130962785178C-1.6479725050241498,-25.14377161595507,6.871636732200942,-11.387383252415471,8.76334660222097,-5.35082329027774C10.655056472240998,0.6857366718599933,5.918866975055962,-0.9975317674041405,10.812818673421166,-7.110118042018517C15.706770371786371,-13.222704316632893,30.230863265701817,-23.76460842659751,35.99473634068451,-23.21624252202096C41.75860941566721,-22.667876617444403,38.76226267171715,-11.02924069832668,26.563981065615337,-11.97204344796306C14.365699459513532,-12.914846197599442,-7.034517008740028,-26.439087615989926,-15.14924086966479,-27.404345678797803C-23.263964730589553,-28.369603741605676,-18.09319598418552,-16.775878448830937,-18.301114033884804,-13.95916316927879C-18.509032083584092,-11.142447889726643,-24.0956369293867,-17.102742623397084,-22.183584284560215,-20.210480980001876C-20.27153163973373,-23.318219336606667,-10.860821504278148,-23.573401316145805,-7.141081562118575,-16.99302179686557C-3.421341619959002,-10.412642277585334,-5.392571871095437,3.003298740514272,-8.31888251098598,6.216695836476578C-11.24519315087652,9.430092932438884,-15.126584179521167,2.4409461062638877,-11.145946228210041,-0.3191570613862598C-7.165308276898915,-3.0792602290364073,4.6773586543679855,-1.6103197381617067,10.052182731465752,1.2785813144456726C15.42700680856352,4.1674823670530525,14.333988031492154,8.47634398139311,12.366459875288811,10.342418920777526C10.398931719085468,12.20849386016194,7.556894183750147,11.631782124590714,6.480186223812928,13.737854816417556C5.403478263875709,15.843927508244398,6.092099879336591,20.632784627469313,-2.3667226968068835,17.54501612763396C-10.825545272950357,14.457247627798605,-28.43181204069819,3.492853508902984,-26.65552742996523,-8.90049550028439C-24.879242819232267,-21.29384450947176,-3.7204068300185185,-35.116148408950885,10.460426874851576,-37.081042674924355C24.64126057972167,-39.04593694089783,31.84409200024811,-29.153421573365648,29.153232349618026,-25.04384571632888C26.46237269898794,-20.934269859292122,13.877821977201336,-22.607633512750777,7.923941625521072,-25.211761618450254C1.970061273840811,-27.815889724149727,2.6468512922668928,-31.350782282090023,0.7554496510405708,-23.56340688603617C-1.1359519901857515,-15.776031489982316,-5.595545291064478,3.3336118600656857,-6.118810133889714,15.278300027878318C-6.642074976714952,27.22298819569095,-3.229011361486699,32.002721181268214,-1.6325631005924104,22.84252410597065C-0.03611483969812175,13.682327030673093,-0.256281933137797,-9.417800105499285,-0.15898680826036785,-23.25775002710343C-0.06169168338293862,-37.09769994870757,0.3530656598115951,-41.677472655743486,1.2062990298636986,-36.15478475728971C2.059532399915802,-30.632096858835947,3.3512417968254753,-15.006948354892494,0.8108992990871111,-2.4916461124849C-1.729443198651253,10.023656129922696,-8.101837591037654,19.42911211079443,-11.816914474389831,21.79498104425579C-15.531991357742008,24.16084997771714,-16.58975073205996,19.48713186376811,-17.11863041921894,17.150272806793595L-17.64751010637791,14.81341374981908" />
  </g>
</svg>
