<?xml version="1.0" encoding="UTF-8" standalone="no"?>
<svg
   xmlns:dc="http://purl.org/dc/elements/1.1/"
   xmlns:cc="http://creativecommons.org/ns#"
   xmlns:rdf="http://www.w3.org/1999/02/22-rdf-syntax-ns#"
   xmlns:svg="http://www.w3.org/2000/svg"
   xmlns="http://www.w3.org/2000/svg"
   version="1.1"
   id="svg2"
   height="300"
   width="300"
   preserveAspectRatio="xMidYMid"
   viewBox="0 0 300 300">
  <metadata
     id="metadata27">
    <rdf:RDF>
      <cc:Work
         rdf:about="">
        <dc:format>image/svg+xml</dc:format>
        <dc:type
           rdf:resource="http://purl.org/dc/dcmitype/StillImage" />
      </cc:Work>
    </rdf:RDF>
  </metadata>
  <defs
     id="defs25" />
  <filter
     y="-50%"
     x="-50%"
     height="500"
     width="300"
     id="klpyp">
    <feFlood
       id="feFlood5"
       result="element"
       flood-color="#e88e5a" />
    <feTurbulence
       id="feTurbulence7"
       result="element_1"
       seed="94"
       numOctaves="8"
       type="fractalNoise"
       baseFrequency="0.02" />
    <feGaussianBlur
       id="feGaussianBlur9"
       result="element_2"
       in="SourceAlpha"
       stdDeviation="4" />
    <feDisplacementMap
       id="feDisplacementMap11"
       result="element_3"
       in2="element_1"
       in="element_2"
       scale="100" />
    <feComposite
       id="feComposite13"
       result="element_4"
       in2="element_3"
       in="element"
       operator="in" />
    <feMerge
       id="feMerge15">
      <feMergeNode
         id="feMergeNode17"
         in="element_4" />
    </feMerge>
  </filter>
  <g
     id="g19"
     transform="translate(150,150) scale(1.5)">
    <path
       id="path21"
       style="filter: url(#klpyp); stroke: rgb(232, 142, 90);"
       d="M0,0L5.684240076761634,0.2824771247436964C11.368480153523269,0.5649542494873928,22.736960307046537,1.1299084989747856,27.8910169651031,1.0223963290021216C33.04507362315966,0.9148841590294576,31.984706785749513,0.13490556959673683,32.747147193227725,0.483792773414413C33.50958760070594,0.8326799772320892,36.09483525307252,2.3104329743001624,36.88076322099046,6.211126496267885C37.6666911889084,10.111820018235608,36.65329947237772,16.43545406510298,35.73001762233773,11.091291908191845C34.80673577229774,5.74712975128071,33.97356378874846,-11.264828609408932,32.10029324262213,-15.913614526890505C30.2270226964958,-20.56240044437208,27.31365358779243,-12.848013918645588,22.53631053757541,-8.742218066152923C17.75896748735839,-4.636422213660257,11.117650495627718,-4.139217034401419,8.496712150881427,-7.939085600456544C5.875773806135135,-11.73895416651167,7.275214108373224,-19.83589647788076,0.3739983112013112,-19.99690238948728C-6.527217485970602,-20.157908301093798,-21.729089382552516,-12.382977812937746,-26.11716964284938,-7.702833357407556C-30.50524990314624,-3.022688901877367,-24.07953852715805,-1.4373304789730403,-18.019023678890054,3.773519866200508C-11.95850883062206,8.984370211374056,-6.263190510074265,17.820712478816827,-5.580226648787873,23.45198748046147C-4.89726278750148,29.083262482106107,-9.226653385476489,31.50947021795262,-8.968367807765121,26.20672007852087C-8.710082230053754,20.90396993908912,-3.8641204766560078,7.872261924379108,-1.4716940343183773,1.7963561687319851C0.9207324080192528,-4.279549586915138,0.8596235392967676,-3.39965308349937,1.285043933757408,2.868197429993219C1.7104643282180485,9.136047943485808,2.6224139858618147,20.791852467055218,3.4129524448525954,15.737963854496954C4.2034909038433765,10.684075241938686,4.872618164181173,-11.079506506747258,6.3340068882777105,-16.50319243180412C7.795395612374248,-21.926878356860982,10.049045800229528,-11.010668458288759,5.4563741059754145,-8.848481429218241C0.8637024117213006,-6.686294400147721,-10.575291164642207,-13.278130240578903,-12.99114892699307,-22.51351133008579C-15.407006689343932,-31.74889241959267,-8.79972863768215,-43.62781875817526,-11.257591495436865,-40.25477206389541C-13.71545435319158,-36.88172536961555,-25.238458120362793,-18.25670564247325,-31.71996064520514,-0.9467401098655657C-38.20146317004749,16.36322542274212,-39.64146445256097,32.358136760815185,-25.03872683015499,32.05955754745717C-10.435989207749003,31.76097833409915,20.209487319576443,15.168908569310043,25.830769257231584,13.661999734546892C31.452051194886725,12.155090899783746,12.049138542871562,25.733342995046556,1.2745463077696657,24.51229851583807C-9.50004592733223,23.29125403662958,-11.64631774552086,7.270912982949794,-4.357477746535975,-0.9655581743421426C2.9313622524489116,-9.20202933163408,19.65531406860731,-9.654630592538165,29.14706810605557,-6.883065518238103C38.63882214350383,-4.111500443938043,40.89837840224194,1.8842309655661644,29.967324095767736,-5.21689745929433C19.036269789293524,-12.318025884154824,-5.085395082393006,-32.51601414338002,-11.14152266136324,-33.43998694035165C-17.197650240333473,-34.36395973732329,-5.188240526587407,-16.013917072041362,2.1676580382178603,-4.777989171017119C9.523556603023128,6.457938730007125,12.225944018887597,10.579751866773691,12.446880697348174,16.31658707766107C12.667817375808752,22.053422288548447,10.407303316865436,29.405279573556633,5.419295828394541,30.259759387821113C0.4312883399236469,31.114239202085592,-7.284212578074826,25.471341545606357,-8.73212057504008,25.094211640157063C-10.180028572005334,24.71708173470777,-5.360343647937368,29.605719580288415,-7.744239121992551,23.54061844015732C-10.128134596047733,17.47551730002623,-19.715610468226064,0.45667717418339215,-17.50312253835989,-5.039939187224189C-15.29063460849371,-10.536555548631771,-1.278182876583024,-4.510948145604097,8.385829853090595,0.5427726930128194C18.049842582764214,5.596493531629735,23.365416310200764,9.678327805835892,26.023203173919043,11.719244942938971L28.680990037637322,13.76016208004205" />
  </g>
</svg>
