<?xml version="1.0" encoding="UTF-8" standalone="no"?>
<svg
   xmlns:dc="http://purl.org/dc/elements/1.1/"
   xmlns:cc="http://creativecommons.org/ns#"
   xmlns:rdf="http://www.w3.org/1999/02/22-rdf-syntax-ns#"
   xmlns:svg="http://www.w3.org/2000/svg"
   xmlns="http://www.w3.org/2000/svg"
   version="1.1"
   id="svg2"
   height="300"
   width="300"
   preserveAspectRatio="xMidYMid"
   viewBox="0 0 300 300">
  <metadata
     id="metadata27">
    <rdf:RDF>
      <cc:Work
         rdf:about="">
        <dc:format>image/svg+xml</dc:format>
        <dc:type
           rdf:resource="http://purl.org/dc/dcmitype/StillImage" />
      </cc:Work>
    </rdf:RDF>
  </metadata>
  <defs
     id="defs25" />
  <filter
     y="-50%"
     x="-50%"
     height="500"
     width="300"
     id="msmws">
    <feFlood
       id="feFlood5"
       result="element"
       flood-color="#bf4f51" />
    <feTurbulence
       id="feTurbulence7"
       result="element_1"
       seed="62"
       numOctaves="8"
       type="fractalNoise"
       baseFrequency="0.02" />
    <feGaussianBlur
       id="feGaussianBlur9"
       result="element_2"
       in="SourceAlpha"
       stdDeviation="4" />
    <feDisplacementMap
       id="feDisplacementMap11"
       result="element_3"
       in2="element_1"
       in="element_2"
       scale="100" />
    <feComposite
       id="feComposite13"
       result="element_4"
       in2="element_3"
       in="element"
       operator="in" />
    <feMerge
       id="feMerge15">
      <feMergeNode
         id="feMergeNode17"
         in="element_4" />
    </feMerge>
  </filter>
  <g
     id="g19"
     transform="translate(150,150) scale(1.5)">
    <path
       id="path21"
       style="filter: url(#msmws); stroke: rgb(191, 79, 81);"
       d="M0,0L1.762989561538181,-0.7614582041878157C3.525979123076362,-1.5229164083756315,7.051958246152724,-3.045832816751263,4.906286170495759,-2.9116844940715394C2.760614094838794,-2.777536171391816,-5.056709179551498,-0.9863231176567375,-6.110378446059055,-3.3638360432338743C-7.164047712566613,-5.741348968811011,-1.4540629711914357,-12.287587873700364,-1.4540015424249289,-12.39876656966441C-1.453940113658422,-12.509945265628453,-7.1638019975005855,-6.186063752667191,-8.846181659368435,-3.760126401596161C-10.528561321236285,-1.3341890505251308,-8.183458761129824,-2.8061958613443343,-12.462894185536598,-2.051791623545369C-16.742329609943372,-1.297387385746403,-27.646303018863385,1.6834279006707313,-26.22861331769517,8.337810689693608C-24.810923616526953,14.992193478716484,-11.07157080527051,25.3201437703451,1.493674530645265,27.253950643819106C14.058919866561041,29.187757517293115,25.450057727136148,22.727420972612506,28.90821475331947,10.215320156017341C32.3663717795028,-2.29678066057782,27.891547971294344,-20.86064574908754,22.510095581776515,-18.821684768009C17.128643192258682,-16.78272378693046,10.840562221431473,5.859063263736335,11.9521540743008,16.20762049261131C13.063745927170128,26.556177721486282,21.575010603735993,24.611505128569437,21.17540034433414,29.562115785805634C20.775790084932282,34.51272644304183,11.46530488956271,46.35862035043107,10.316588286104807,35.94860403404906C9.167871682646906,25.538587717667056,16.180923671100675,-7.127338822486198,14.413296955922194,-16.960116618066003C12.645670240743712,-26.792894413645808,2.097364821932974,-13.792523464652167,-4.729326998450794,-4.638529432448433C-11.556018818834563,4.515464599755303,-14.661097040791361,9.823081715169131,-16.750137740359204,4.270870542023426C-18.839178439927043,-1.2813406311222817,-19.912181617105926,-17.693380092827525,-13.276809840162574,-21.962664630175286C-6.641438063219219,-26.231949167523045,7.70230866784637,-18.358478780513323,11.302415706485027,-11.799569932338631C14.902522745123683,-5.240661084163937,7.7589900913354075,0.003686225175730584,2.078185130027915,-2.5101272233088507C-3.602619831279577,-5.023940671793432,-7.820697100106287,-15.295914878102263,-7.354145454107313,-14.11222791660071C-6.887593808108338,-12.928540955099162,-1.7364132472836813,-0.2891928257872305,5.381494941033116,0.8027610759721142C12.499403129349915,1.894714977731459,21.584038945158852,-8.560725348061784,20.417766058554285,-11.063311424042794C19.251493171949722,-13.565897500023805,7.834311582931654,-8.115629326192588,2.527780944626037,-1.3129402160749502C-2.7787496936795795,5.489748894042687,-1.974629381272745,13.644858940446742,-0.06939444744170098,13.292586927577425C1.835840486389343,12.940314914708107,4.842190041644596,4.08066084256542,0.21803641967344767,-0.6991006377116777C-4.4061172022977,-5.4788621179887755,-16.66077400149525,-6.178731006400283,-18.964644987126302,-11.003747585505483C-21.268515972757353,-15.828764164610682,-13.621601144821907,-24.778928434409572,-12.964365231949131,-23.144209786045298C-12.307129319076356,-21.509491137681028,-18.63957232126625,-9.289889571153589,-17.852599608246184,4.276786750918181C-17.065626895226114,17.84346307298995,-9.159238466996081,32.75721415060605,-11.961024761747629,33.97765842245638C-14.762811056499178,35.198102694306705,-28.272772074232307,22.72524016039126,-26.40826398579342,12.681204834135137C-24.543755897354533,2.637169507879018,-7.304778702743628,-4.978038610717771,0.2671190155546326,-6.654410826533808C7.839016733852894,-8.330783042349845,5.743834975838512,-4.068319355385128,3.5420254935279134,-2.1079598779031956C1.3402160112173163,-0.14760040042126285,-0.9682211953894968,-0.48934513242211397,2.773821673158066,6.8115591571920495C6.515864541705629,14.112463446806213,16.308387485407568,29.05601675803539,23.016276854494492,25.11582205970045C29.724166223581413,21.175627361365507,33.34742201805332,-1.6483153465335558,25.179356652117672,-7.910393572216099C17.011291286182026,-14.172471797898641,-2.9480952401611784,-3.872685541364663,-12.927788503332781,1.2772075869023258L-22.907481766504382,6.427100715169315" />
  </g>
</svg>
