<svg viewBox="0 0 300 300" preserveAspectRatio="xMidYMid" width="300" height="300"><filter id="yvyld" width="300" height="500" x="-50%" y="-50%"><feFlood flood-color="#54626f" result="element"></feFlood><feTurbulence baseFrequency="0.02" type="fractalNoise" numOctaves="8" seed="93" result="element_1"></feTurbulence><feGaussianBlur stdDeviation="4" in="SourceAlpha" result="element_2"></feGaussianBlur><feDisplacementMap scale="100" in="element_2" in2="element_1" result="element_3"></feDisplacementMap><feComposite operator="in" in="element" in2="element_3" result="element_4"></feComposite><feMerge><feMergeNode in="element_4"></feMergeNode></feMerge></filter><g transform="translate(150,150) scale(1.5)"><path d="M0,0L2.3337157276391762,1.0097981136601022C4.6674314552783525,2.0195962273202044,9.334862910556705,4.039192454640409,10.870547244022106,4.777182712293694C12.406231577487507,5.5151729699469785,10.810168789139958,4.971557257933344,4.89119774837597,7.502973764065316C-1.0277732923880158,10.034390270197289,-11.26965258556844,15.640838994474866,-15.774886430277679,13.073194477997022C-20.28012027498692,10.505549961519177,-19.048708671224972,-0.23618779571409032,-10.234791000848663,-4.71889026568001C-1.4208733304723502,-9.201592735645928,14.975550406518328,-7.425259918344498,18.240086265402756,-12.97025005629586C21.50462212428718,-18.515240194247223,11.637270105065351,-31.38155328745138,7.997225915450182,-28.518918377120947C4.357181725835012,-25.656283466790512,6.9444453658265,-7.064700552925492,7.140964706166949,-4.289959578041389C7.337484046507399,-1.515218603157285,5.1432590871968085,-14.557319567254098,3.7047321532314252,-17.425420639553764C2.266205219266042,-20.29352171185343,1.5833763106458656,-12.98762289235595,-2.4652307449355284,-9.94130466226674C-6.513837800516923,-6.89498643217753,-13.928223003059534,-8.108248791496592,-10.376752649433119,-8.055668796685561C-6.825282295806707,-8.003088801874531,7.692043613988732,-6.684666452933408,7.173822984249924,-5.173354630769158C6.655602354511114,-3.6620428086049066,-8.898164814761943,-1.9578415132175286,-12.463189253936159,-7.063918082160786C-16.028213693110377,-12.169994651104043,-7.604495402185757,-24.086349084377936,-8.633286352329495,-30.96423659087574C-9.662077302473234,-37.84212409737354,-20.143377493685332,-39.68154467709526,-13.298557504979202,-40.62631086035082C-6.453737516273069,-41.57107704360638,17.717202652351293,-41.62118883039579,24.047423485250835,-29.31966184447092C30.377644318150374,-17.018134858546045,18.867145815325095,7.635030900093106,7.776188282003462,11.698119282032538C-3.31476925131817,15.76120766397197,-13.986185815136153,-0.7657813307883199,-17.728813718708523,-10.410221110746082C-21.471441622280892,-20.054660890703843,-18.285280865607653,-22.81655145585908,-14.174226289039533,-19.316331686926805C-10.063171712471416,-15.816111917994528,-5.0272233160084205,-6.053781814974736,-3.7840025277181453,1.6832258065270458C-2.5407817394278704,9.420233428028828,-5.0902885593103155,15.131918568012601,-12.680168609369389,19.83478277281837C-20.27004865942846,24.537646977624135,-32.90030193966416,28.231690247251898,-27.934465325492347,25.68210321254063C-22.968628711320537,23.132516177829363,-0.4067022027412168,14.339298838779062,6.358084454797273,5.6118102120743325C13.122871112335762,-3.1156784146303957,4.09051791883342,-11.777438328989556,5.07614687423555,-14.353474785630677C6.06177582963768,-16.9295112422718,17.06538693394428,-13.419824241194888,25.294812017243583,-7.310911778642872C33.52423710054289,-1.2019993160908564,38.9794761628349,7.506138607936262,36.74777248548505,3.2614859812679056C34.51606880813521,-0.983166645400452,24.597422391143507,-18.180609822764286,15.536306082524685,-19.533922684039723C6.4751897739058615,-20.887235545315164,-1.7283964263400842,-6.396418090502207,-5.641846375908547,-3.2016724328279618C-9.55529632547701,-0.006926775153716314,-9.17861002436799,-8.10825291461818,-5.828244654339649,-17.25880464095283C-2.4778792843113067,-26.40935636728748,3.8461651546363558,-36.60913368049232,6.065463866971221,-33.79889852153689C8.284762579306086,-30.98866336258146,6.399315565028154,-15.168415731465766,-2.7795123172173213,-5.433746033384347C-11.958340199462796,4.300923664697071,-28.430548949675813,7.950015429744213,-30.94012804381434,11.776798870774531C-33.44970713795286,15.60358231180485,-21.996656576016903,19.608057428818345,-13.709520173803417,13.05478967590673C-5.422383771589935,6.501521922995114,-0.30116152909893135,-10.609488699841611,-0.555451981625656,-5.171757836654997C-0.8097424341523807,0.2659730265316185,-6.439545581696834,28.252445375741573,-7.335819612009436,26.560501458738106C-8.232093642322038,24.86855754173464,-4.394838555402789,-6.50180264148225,-2.4762110119431644,-22.186982733090694L-0.5575834684835401,-37.87216282469914" style="filter: url(#yvyld); stroke: rgb(84, 98, 111);"></path></g></svg>