<svg viewBox="0 0 300 300" preserveAspectRatio="xMidYMid" width="300" height="300"><filter id="ulryp" width="300" height="500" x="-50%" y="-50%"><feFlood flood-color="#bfafb2" result="element"></feFlood><feTurbulence baseFrequency="0.02" type="fractalNoise" numOctaves="8" seed="17" result="element_1"></feTurbulence><feGaussianBlur stdDeviation="4" in="SourceAlpha" result="element_2"></feGaussianBlur><feDisplacementMap scale="100" in="element_2" in2="element_1" result="element_3"></feDisplacementMap><feComposite operator="in" in="element" in2="element_3" result="element_4"></feComposite><feMerge><feMergeNode in="element_4"></feMergeNode></feMerge></filter><g transform="translate(150,150) scale(1.5)"><path d="M0,0L1.4441076686754508,6.366153389214877C2.8882153373509016,12.732306778429754,5.776430674701803,25.464613556859508,11.52621927835002,32.44049805298459C17.276007881998236,39.41638254910967,25.887369751943766,40.63584476293008,29.026857857367627,34.64509099203398C32.16634596279149,28.654337221137876,29.833960303693683,15.453367465525274,27.9337741237095,14.018596598388914C26.033587943725315,12.583825731252558,24.565601242854758,22.915253752592445,23.774901082290675,28.945960392003997C22.98420092172659,34.97666703141555,22.87078730146898,36.706652288898766,16.06110074093361,37.03328625970106C9.251414180398243,37.35992023050335,-4.254545320414888,36.28320291462471,-7.8269951246362055,30.494703116899945C-11.399444928857521,24.70620331917518,-5.0383850364870275,14.20592103960428,-0.150073064849934,10.999912542794014C4.738238906787159,7.7939040459837505,8.15380295769085,11.882169331934117,6.554419399843109,13.557901718411802C4.955035841995368,15.233634104889484,-1.659295324603805,14.496833591894484,3.2211328586141494,12.522477442757195C8.101561041832104,10.548121293619907,24.476748574867187,7.336209508340328,33.78476844585261,5.630557476385295C43.09278831683803,3.9249054444302613,45.3336405257738,3.7255131657997715,38.94128011689118,5.4264276291891065C32.54891970800856,7.127342092578442,17.523346681307565,10.728563297987602,11.43006956083657,7.190883164837097C5.336792440365574,3.6532030316865924,8.175811226124582,-7.023378440023578,14.45700652003153,-15.82520782651212C20.738201813938478,-24.627037213000662,30.461573615993366,-31.554114514267575,30.251458810266424,-27.849334157306764C30.04134400453948,-24.144553800345957,19.897742591030703,-9.807915785157427,13.580481653391164,-12.82104684426602C7.263220715751623,-15.834177903374613,4.772300253981319,-36.19707803678033,1.5519896208077557,-33.766403480846556C-1.6683210123658083,-31.335728924912782,-5.618021816942632,-6.111479679639515,-2.3300827676188764,3.824149663856235C0.9578562817048804,13.759779007351986,11.483435184929217,8.40678844907022,14.375429551787539,0.9873184018831465C17.26742391864586,-6.432151645303928,12.525833749138162,-15.918101181396311,1.6043593198724722,-15.497344874106759C-9.317115109393217,-15.076588566817206,-26.4184737984169,-4.749126416145719,-32.302842980975974,4.2794468060617525C-38.18721216353505,13.308020028269222,-32.85459183962951,21.037704322012676,-23.10030338116969,18.341217180633176C-13.346014922709868,15.644730039253677,0.8299416703042368,2.5220714627512244,14.920196606653708,-4.280788232727093C29.010451543003178,-11.08364792820541,43.01500482268801,-11.566708742659593,40.882175651861594,-2.6709991089486476C38.749346481035175,6.224710524762298,20.479134859697496,24.49919060663837,11.996212815546274,26.285171649490902C3.5132907713950536,28.07115269234343,4.817658304430289,13.36863469617242,6.865212060026758,4.685076875188521C8.912765815623228,-3.998480945795378,11.70350579378093,-6.663078591592165,6.955546487759216,-4.632241175007749C2.207587181737501,-2.6014037584233316,-10.079071408463633,4.124868720542289,-19.887531297599054,10.722222671293586C-29.695991186734474,17.31957662204488,-37.02625237480418,23.78801204458185,-38.42410360903407,29.649101616461543C-39.82195484326395,35.51019118834124,-35.28739612365403,40.76393490956365,-26.463824873539355,33.3672034277593C-17.640253623424677,25.970471945954948,-4.527669842805257,5.9232652611238255,-3.5328838106611444,-4.23579330627075C-2.5380977785170318,-14.394851873665328,-13.661109494848228,-14.665762323623358,-17.944388524341033,-14.447521469403544C-22.22766755383384,-14.229280615183733,-19.671213896488254,-13.521888456786076,-17.692312404388748,-10.591627208166495C-15.713410912289246,-7.661365959546917,-14.312061585435826,-2.508235620705414,-15.194626848735718,2.3032667940072216C-16.07719211203561,7.114769208719856,-19.24367196548882,11.584643699303625,-13.016155588753524,12.735645538513907C-6.788639212018225,13.886647377724186,8.832873394905576,11.71877656556098,16.643629698367477,10.634841159479379L24.454386001829377,9.550905753397775" style="filter: url(#ulryp); stroke: rgb(191, 175, 178);"></path></g></svg>