<?xml version="1.0" encoding="UTF-8" standalone="no"?>
<svg
   xmlns:dc="http://purl.org/dc/elements/1.1/"
   xmlns:cc="http://creativecommons.org/ns#"
   xmlns:rdf="http://www.w3.org/1999/02/22-rdf-syntax-ns#"
   xmlns:svg="http://www.w3.org/2000/svg"
   xmlns="http://www.w3.org/2000/svg"
   version="1.1"
   id="svg2"
   height="300"
   width="300"
   preserveAspectRatio="xMidYMid"
   viewBox="0 0 300 300">
  <metadata
     id="metadata27">
    <rdf:RDF>
      <cc:Work
         rdf:about="">
        <dc:format>image/svg+xml</dc:format>
        <dc:type
           rdf:resource="http://purl.org/dc/dcmitype/StillImage" />
      </cc:Work>
    </rdf:RDF>
  </metadata>
  <defs
     id="defs25" />
  <filter
     y="-50%"
     x="-50%"
     height="500"
     width="300"
     id="zziqy">
    <feFlood
       id="feFlood5"
       result="element"
       flood-color="#000000" />
    <feTurbulence
       id="feTurbulence7"
       result="element_1"
       seed="94"
       numOctaves="8"
       type="fractalNoise"
       baseFrequency="0.02" />
    <feGaussianBlur
       id="feGaussianBlur9"
       result="element_2"
       in="SourceAlpha"
       stdDeviation="4" />
    <feDisplacementMap
       id="feDisplacementMap11"
       result="element_3"
       in2="element_1"
       in="element_2"
       scale="100" />
    <feComposite
       id="feComposite13"
       result="element_4"
       in2="element_3"
       in="element"
       operator="in" />
    <feMerge
       id="feMerge15">
      <feMergeNode
         id="feMergeNode17"
         in="element_4" />
    </feMerge>
  </filter>
  <g
     id="g19"
     transform="translate(150,150) scale(1.5)">
    <path
       id="path21"
       style="filter: url(#zziqy); stroke: rgb(0, 0, 0);"
       d="M0,0L0.9936777915858583,5.436174375634903C1.9873555831717167,10.872348751269806,3.9747111663434334,21.744697502539612,3.8287393095825166,23.897047470740763C3.6827674528216,26.049397438941913,1.40346815612805,19.481748624074406,2.8528289822208683,11.152794040751767C4.3021898083136865,2.823839457429126,9.480210757192873,-7.26642089434865,4.674583922929083,-8.723032440653634C-0.1310429113347098,-10.179643986958618,-14.92031752874148,-3.00260672779081,-12.210135313621747,-7.22462262859322C-9.499953098502015,-11.446638529395631,10.70968594914422,-27.06770759016826,20.925831185634635,-27.61827462824767C31.141976422125047,-28.168841666327076,31.36462784745964,-13.648906681713262,31.481493311044343,-7.649201988633568C31.59835877462904,-1.6494972955538745,31.609438276463848,-4.170022894008301,28.983397388781256,-8.477297089751804C26.357356501098664,-12.784571285495309,21.094195223898677,-18.87859407852789,14.463991812845297,-17.554005613227915C7.833788401791918,-16.22941714792794,-0.16345714311485082,-7.486217424295406,1.7209240430289512,-1.9831522840368634C3.605305229172753,3.519912856221679,15.371313146367125,5.782843413106231,17.58930368830954,7.035831948451843C19.807294230251948,8.288820483797458,12.477267396942397,8.531866997604133,7.1815517209173665,7.372516053436995C1.8858360448923346,6.21316510926986,-1.3755684738481768,3.6514167071289116,-6.8797986187858315,9.097647583980354C-12.384028763723485,14.543878460831799,-20.131084534858285,27.998088616675634,-17.19718386017719,28.7474710153594C-14.263283185496096,29.496853414043173,-0.6484260649991107,17.541408055566876,2.1077246402095535,8.491902186973999C4.863875345418218,-0.5576036816188825,-3.2386803646614393,-6.701170060328345,-10.980092896637284,-6.690701601757399C-18.72150542861313,-6.680233143186455,-26.101774782485165,-0.5157298473351015,-25.60682158076111,-1.5740568929015888C-25.111868379037052,-2.632383938468076,-16.741692621716904,-10.913541325452403,-10.932276123208169,-11.729748844115454C-5.122859624699431,-12.545956362778504,-1.874202385002106,-5.897214013120276,1.56305017906683,-9.037458228720729C5.000302743135766,-12.17770244432118,8.626150631576314,-25.10693322518031,2.872558948192647,-20.162450436129447C-2.8810327351910185,-15.217967647078577,-18.014063990398895,7.600228711882288,-19.647687671848058,11.616529866717947C-21.281311353297216,15.632831021553608,-9.415527460987654,0.8472369722640636,4.193395829087093,-9.660856880543834C17.80231911916184,-20.168950733351732,33.154381807001776,-26.399544389677985,32.888225919358014,-28.01505953354593C32.62207003171425,-29.630574677413875,16.737695568586798,-26.63101130882352,6.470623988008775,-11.932881770083004C-3.796447592569245,2.765247768657513,-8.446216290597828,29.161943477548192,-10.849399612786598,25.019089440909088C-13.252582934975367,20.876235404269984,-13.409180881324321,-13.8061683778989,-13.7170788477809,-18.50098693554834C-14.024976814237482,-23.19580549319778,-14.484174800801688,2.0969611736722236,-10.81806827168598,17.16310891187098C-7.151961742570277,32.22925665006974,0.6394493022253389,37.06878545959726,6.768224401297315,33.99033136028943C12.89699950036929,30.911877260981605,17.363138653717627,19.91544025283844,8.46544402167862,12.398256870105106C-0.43225061036038603,4.881073487371772,-22.693779027786736,0.8431437300482703,-22.231102634185874,5.73340383005105C-21.76842624058501,10.62366393005383,1.418454964043061,24.44211388738289,9.983670088474181,21.867541209411016C18.548885212905304,19.292968531439136,12.492434257139472,0.32537321816632137,9.973622539717892,2.3176751671549747C7.454810822296314,4.309977116143628,8.473638343218987,27.26217632739375,16.563860702430887,27.280566320522855C24.654083061642787,27.298956313651964,39.81570025914392,4.383537088660052,38.38208799502846,-7.536054246091368C36.948475730913,-19.455645580842788,18.919634005180956,-20.37940902535372,12.507831281198273,-23.48212830277478C6.09602855721559,-26.584847580195838,11.301264834982268,-31.866522690527024,13.903882973865606,-34.50736024569262L16.506501112748946,-37.14819780085821" />
  </g>
</svg>
