<?xml version="1.0" encoding="UTF-8" standalone="no"?>
<svg
   xmlns:dc="http://purl.org/dc/elements/1.1/"
   xmlns:cc="http://creativecommons.org/ns#"
   xmlns:rdf="http://www.w3.org/1999/02/22-rdf-syntax-ns#"
   xmlns:svg="http://www.w3.org/2000/svg"
   xmlns="http://www.w3.org/2000/svg"
   version="1.1"
   id="svg2"
   height="300"
   width="300"
   preserveAspectRatio="xMidYMid"
   viewBox="0 0 300 300">
  <metadata
     id="metadata27">
    <rdf:RDF>
      <cc:Work
         rdf:about="">
        <dc:format>image/svg+xml</dc:format>
        <dc:type
           rdf:resource="http://purl.org/dc/dcmitype/StillImage" />
      </cc:Work>
    </rdf:RDF>
  </metadata>
  <defs
     id="defs25" />
  <filter
     y="-50%"
     x="-50%"
     height="500"
     width="300"
     id="mqdkw">
    <feFlood
       id="feFlood5"
       result="element"
       flood-color="#a57164" />
    <feTurbulence
       id="feTurbulence7"
       result="element_1"
       seed="22"
       numOctaves="8"
       type="fractalNoise"
       baseFrequency="0.02" />
    <feGaussianBlur
       id="feGaussianBlur9"
       result="element_2"
       in="SourceAlpha"
       stdDeviation="5" />
    <feDisplacementMap
       id="feDisplacementMap11"
       result="element_3"
       in2="element_1"
       in="element_2"
       scale="100" />
    <feComposite
       id="feComposite13"
       result="element_4"
       in2="element_3"
       in="element"
       operator="in" />
    <feMerge
       id="feMerge15">
      <feMergeNode
         id="feMergeNode17"
         in="element_4" />
    </feMerge>
  </filter>
  <g
     id="g19"
     transform="translate(150,150) scale(1.5)">
    <path
       id="path21"
       style="filter: url(#mqdkw); stroke: rgb(165, 113, 100);"
       d="M0,0L3.800134727505395,-0.8873547057327935C7.60026945501079,-1.774709411465587,15.20053891002158,-3.549418822931174,23.55985216868506,-5.905340054935111C31.91916542734854,-8.26126128693905,41.03752248966471,-11.198394339481336,36.37862411141822,-2.79983199254747C31.719725733171725,5.5987303543863955,13.283571914362568,25.332988100796413,3.5112295960271824,23.696610696080192C-6.261112722308202,22.06023329136397,-7.369643540169815,-0.9467792644784936,-4.175722756983893,-8.652212814451715C-0.9818019737979711,-16.357646364424937,6.514570410435486,-8.76150090852892,4.696654525945917,-4.039954829021045C2.878738641456348,0.6815912504868287,-8.253465511756247,2.528537953606558,-4.069468482200121,6.149470707033448C0.11452854735600404,9.770403460460338,19.61472675968085,15.16532226419439,24.188679353919497,13.625405977277811C28.762631948158145,12.08548969036123,18.4103389243106,3.6107383127940205,9.962437994457092,-1.3792642968720676C1.5145370646035872,-6.369266906538156,-5.028971771255877,-7.874520748303121,-5.35023958843199,-7.18722258380503C-5.671507405608104,-6.4999244193069385,0.2294657958991344,-3.62007424854579,2.375728967995224,-9.46530098543022C4.521992140091314,-15.310527722314651,2.913545282776254,-29.880831366844664,5.720706333799425,-29.084794021811238C8.527867384822597,-28.288756676777812,15.750636344183999,-12.126378342180953,17.445663224694822,-1.165707220914034C19.140690105205646,9.794963900352883,15.307974906865894,15.55392780828986,10.833296477131798,8.367570414995683C6.358618047397702,1.1812130217015042,1.241976386269263,-18.950465672823825,3.1380104164907485,-27.500921183723534C5.034044446712234,-36.05137669462324,13.942754168283644,-33.020609021897315,11.298836213851919,-33.81640475920518C8.654918259420192,-34.61220049651304,-5.5416273710146715,-39.23455964385469,-14.809211900198836,-29.59137905400586C-24.076796429383002,-19.948198464157024,-28.415419857316465,3.960521862882283,-25.398024302187665,11.688908326291745C-22.380628747058864,19.417294789701206,-12.007214208867795,10.96534738948082,-2.4616659633366584,9.48526922822496C7.0838822821944785,8.005191066969099,15.801564235065685,13.496982144677762,18.038573344069103,14.032077748605872C20.275582453072523,14.567173352533981,16.03191871820816,10.145573482681538,16.798984432100582,2.1590796032565738C17.56605014599301,-5.8274142761683905,23.343845308642223,-17.378802165165876,19.467074791585826,-23.47740618058588C15.59030427452943,-29.576010196005885,2.0589680777674193,-30.22183033784841,-4.855852209678465,-27.935175248980233C-11.770672497124352,-25.648520160112056,-12.068976875254112,-20.42938984053318,-9.701045561137454,-9.17498381358685C-7.333114247020799,2.0794222133594786,-2.298947240657725,19.36910394767326,2.510076282570137,26.06317120007212C7.319099805797999,32.757238452470986,11.902979845890648,28.855691222954928,17.149669723784367,22.504199755250205C22.396359601678085,16.152708287545487,28.305859317372867,7.351272581652104,24.62565581451673,-2.749532248452563C20.945452311660585,-12.85033707855723,7.675545590253519,-24.250511032873177,1.9782310331063742,-26.49418038209045C-3.71908352404077,-28.73784973130772,-1.8438059169279903,-21.825014475426308,-1.004304790546415,-23.04650883517988C-0.16480366416484,-24.26800319493345,-0.36107901851446905,-33.623827170322,1.5032697309305305,-32.44667644741025C3.36761848037553,-31.269525724498493,7.292591333615158,-19.559400303286424,-0.6795453712510255,-12.084263971111401C-8.65168207611721,-4.609127638936376,-28.520928339089206,-1.3689803957983924,-28.084423882160685,0.20877338821362512C-27.64791942523217,1.7865271722256426,-6.90566424840314,1.7018874971116944,3.51446091347882,-0.5108879153378749C13.93458607536078,-2.723663327787444,14.032581222295669,-7.064574477572634,19.009516884409273,-2.1043716038637132C23.986452546522877,2.855831269845207,33.84232872381519,17.11714816704824,35.358700882312995,19.64758074577604C36.8750730408108,22.17801332450384,30.05194118051408,12.977561584756412,26.64037525036572,8.377335714882697L23.228809320217366,3.777109845008984" />
  </g>
</svg>
