<svg viewBox="0 0 300 300" preserveAspectRatio="xMidYMid" width="300" height="300"><filter id="tejpw" width="300" height="500" x="-50%" y="-50%"><feFlood flood-color="#ace5ee" result="element"></feFlood><feTurbulence baseFrequency="0.02" type="fractalNoise" numOctaves="8" seed="72" result="element_1"></feTurbulence><feGaussianBlur stdDeviation="4" in="SourceAlpha" result="element_2"></feGaussianBlur><feDisplacementMap scale="100" in="element_2" in2="element_1" result="element_3"></feDisplacementMap><feComposite operator="in" in="element" in2="element_3" result="element_4"></feComposite><feMerge><feMergeNode in="element_4"></feMergeNode></feMerge></filter><g transform="translate(150,150) scale(1.5)"><path d="M0,0L2.3451065801360507,3.4085482744599895C4.690213160272101,6.817096548919979,9.380426320544203,13.634193097839958,4.68800724068194,20.683969886374737C-0.00441183918032273,27.733746674909515,-14.07946315917695,35.01620370305909,-13.826023861813097,32.83404776648501C-13.572584564449244,30.651891829910916,1.0093453502750904,19.00512292861316,0.4183356122746922,14.94363173873386C-0.17267412572570606,10.882140548854558,-15.936623516450837,14.405927070393705,-17.630194300121513,12.588637354023142C-19.323765083792193,10.771347637652582,-6.946957260408421,3.612981683372312,4.353818064073814,-2.6359949748564175C15.65459338855605,-8.884971633085147,25.87933621413675,-14.224558995262337,21.890920101926188,-5.66826286988671C17.902503989715626,2.8880332554889154,-0.2990710602861988,25.340212868417357,-3.6507343343930834,28.41708943310758C-7.002397608499968,31.493965997797808,4.495850893288086,15.195539514249816,15.91324810347005,-0.2784911433679236C27.330645313652013,-15.752521800985663,38.66719123222789,-30.40215663267315,30.57040767977216,-27.295422269807897C22.47362412731643,-24.188687906942643,-5.0564888961709045,-3.325584349524645,-14.765226775493524,4.2225648983090345C-24.473964654816143,11.770714146142714,-16.361327389974043,6.003909084392076,-11.567914104815532,-2.1509215307476683C-6.774500819657021,-10.305752145887412,-5.300311514182097,-20.848608314416264,-2.2394211444866663,-20.44227025290563C0.8214692252087641,-20.035932191395,5.4690606591247,-8.680399899844883,6.183728075990851,-3.5729063814223845C6.898395492857002,1.5345871370001136,3.6801388926733676,0.3940418822949942,0.18963581502126603,-0.697103634796508C-3.3008672626308355,-1.7882491518880101,-7.063616817751404,-2.829994931365895,-3.5766448706729888,3.204493215279122C-0.08967292359457346,9.23898136192414,10.647020525682827,22.349703434692056,16.22040330123538,18.553989269791664C21.793786076787935,14.758275104891272,22.203858178615647,-5.943875297677433,24.281365080656396,-16.123245293284974C26.358871982697146,-26.302615288892515,30.10381368495094,-25.95920487753889,23.71845095614486,-30.47499724820284C17.33308822733878,-34.99078961886679,0.8174210674728286,-44.36578477154832,-4.085448386907162,-39.662354430828316C-8.988317841287152,-34.95892409010832,-2.278389590181182,-16.17706825598679,1.6154235791570963,1.4633200620568374C5.509236748495375,19.103708380100468,6.586934836065961,35.602629182066195,8.52395561530605,35.802430167194075C10.460976394546142,36.00223115232194,13.257319865455738,19.902912320611957,9.273897629059284,2.9092818679981853C5.290475392662829,-14.084348584615583,-5.472712551039674,-31.972290658133137,-1.4750621417306977,-30.066969979367286C2.5225882675782785,-28.16164930060144,21.281077029898732,-6.463065869552189,23.99385148614585,3.1719907673792513C26.706625942392964,12.80704740431069,13.373686092566741,10.378577247124321,2.6699439893056196,10.988375493478433C-8.0337981139555,11.598173739832543,-16.108342470651518,15.246240389727134,-15.418277913573982,20.043502821322264C-14.728213356496452,24.840765252917393,-5.27353988564537,30.787223466213057,-10.312327195866756,31.26515669203728C-15.351114506088141,31.74308991786151,-34.883362597381996,26.7524981562143,-42.45231464640131,28.536770206695998C-50.021266695420636,30.3210422571777,-45.62692270216543,38.88017811978831,-35.699483989425964,29.640050698150272C-25.772045276686487,20.399923276512233,-10.311511844462757,-6.6394674293744504,-10.953769554414807,-10.655284630068582C-11.596027264366857,-14.67110183076271,-28.34107611649469,4.336654473735715,-23.353112576762776,14.41730746411047C-18.36514903703086,24.497960454485224,8.355826894560805,25.651510130736305,6.899787574604035,29.779834424150256C5.443748254647264,33.908158717564206,-24.18930631685794,41.011257628141024,-21.611833222377058,34.498766761492675C-19.03436012789617,27.986275894844322,15.753640632570804,7.858195250970809,30.53144006404032,0.50759554625959C45.309239495509836,-6.843004158451629,40.07683759798189,-1.416122924000553,37.460636649217925,1.2973176932249848L34.84443570045396,4.010758310450523" style="filter: url(#tejpw); stroke: rgb(172, 229, 238);"></path></g></svg>