<svg viewBox="0 0 300 300" preserveAspectRatio="xMidYMid" width="300" height="300"><filter id="nvzfz" width="300" height="500" x="-50%" y="-50%"><feFlood flood-color="#5dadec" result="element"></feFlood><feTurbulence baseFrequency="0.02" type="fractalNoise" numOctaves="8" seed="98" result="element_1"></feTurbulence><feGaussianBlur stdDeviation="4" in="SourceAlpha" result="element_2"></feGaussianBlur><feDisplacementMap scale="100" in="element_2" in2="element_1" result="element_3"></feDisplacementMap><feComposite operator="in" in="element" in2="element_3" result="element_4"></feComposite><feMerge><feMergeNode in="element_4"></feMergeNode></feMerge></filter><g transform="translate(150,150) scale(1.5)"><path d="M0,0L8.392420650203611,-0.1525898355669087C16.784841300407223,-0.3051796711338174,33.569682600814446,-0.6103593422676348,34.97448327911976,0.17026219701342682C36.37928395742507,0.9508837362944884,22.40404401362847,2.817306485990429,19.64526468128973,3.7477514074283302C16.88648534895099,4.678196328866232,25.344166628070102,4.672663422046094,25.313076058002068,6.102011040487392C25.281985487934033,7.5313586589286885,16.762123068678846,10.39558680263142,14.740833414518116,10.568653765207625C12.719543760357382,10.741720727783829,17.196826871291105,8.223626509233505,10.721263480791002,-0.7982276710260052C4.2457000902908995,-9.820081851285515,-13.182709801643025,-25.345695993254214,-11.372533095158317,-29.498827693309803C-9.562356388673612,-33.651959393365395,11.486406916229726,-26.432608651507877,13.81522799767705,-25.332235387096876C16.14404907912438,-24.231862122685882,-0.24707206288430683,-29.250466335721406,-4.934406885006972,-27.50014638256996C-9.621741707129637,-25.749826429418516,-2.60529020936628,-17.230582310080106,1.689175884206417,-12.387718247791103C5.983641977779114,-7.544854185502097,7.556122667161152,-6.3783701802625,6.440924536371118,-10.103352329890072C5.325726405581082,-13.828334479517645,1.5228494546189741,-22.44478278401239,0.4619352639532799,-14.601284240073024C-0.5989789267124144,-6.757785696133659,1.0820696429183054,17.545659696239813,-1.6956738215635256,21.51595774032851C-4.473417286045357,25.486255784417214,-11.70995278463974,9.123406480221142,-11.9314478994355,2.9379514113377523C-12.152943014231264,-3.247503657545638,-5.3593977452284065,0.7444355088836536,-0.18973818485008875,1.807467397151107C4.979921375528229,2.8704992854185605,8.525695227282007,1.0046238955241753,13.476196004775542,-0.15621005056758458C18.426696782269076,-1.3170439966593444,24.78192448550237,-1.7728364989484793,22.49147206031201,-0.6527588475735023C20.201019635121646,0.46731880380147484,9.264887081507633,3.163266608840564,-2.8696613236339594,4.722450730562473C-15.004209728775553,6.281634852284383,-28.337173985444725,6.704055290689113,-27.904841472363305,8.001909203775615C-27.472508959281893,9.299763116862117,-13.274879676449888,11.473050504630388,-3.467139366831021,19.33627394400934C6.340600942787846,27.199497383388287,11.758452279193577,40.75265687437791,9.261751755845797,36.99472896669147C6.765051232498019,33.23680105900501,-3.64620115060327,12.167785752642484,-6.406156610604367,0.6901471722133818C-9.166112070605465,-10.78749140821572,-4.2747706075063725,-12.673753262711395,0.8091664643844751,-16.527458110847537C5.893103536275323,-20.381162958983676,11.169636216957926,-26.20231080076028,1.8893939318764321,-24.38725238700864C-7.390848353205062,-22.572193973257,-31.22786560405065,-13.120929303977114,-36.10411555762188,-13.457369155166475C-40.98036551119311,-13.793809006355836,-26.895848167489987,-23.91795337801445,-17.618818516017374,-21.721217732186464C-8.341788864544759,-19.524482086358482,-3.872246905302655,-5.006866423043903,-1.211286289684099,4.423597843583826C1.449674325934457,13.854062110211554,2.302053597929465,18.197374980152432,-3.415898796940193,20.03542347176937C-9.13385119180985,21.87347196338631,-21.422135253544173,21.206256076679313,-23.522708339858983,11.678181846215443C-25.623281426173794,2.1501076157515726,-17.53614353706909,-16.238824958469174,-15.372014555247297,-21.09520764235263C-13.207885573425504,-25.951590326236087,-16.96676549888662,-17.275423119782253,-10.721723867102654,-19.63127710626729C-4.476682235318686,-21.987131092752325,11.772280953710366,-35.37500627217623,18.84273659363624,-34.47407486156838C25.913192233562114,-33.573143450960536,23.80514032438481,-18.383405450320947,20.06805268389483,-15.96221907880927C16.330965043404852,-13.541032707297592,10.964841671602205,-23.888397964913832,6.220758334342632,-22.145189087888493C1.476674997083057,-20.40198021086316,-2.645368305633444,-6.568197199196254,-6.5440184210249654,1.1707781852378902C-10.442668536416488,8.909753569672034,-14.11792546448303,10.553921326873414,-15.955553928516299,11.376005205474105L-17.79318239254957,12.198089084074796" style="filter: url(#nvzfz); stroke: rgb(93, 173, 236);"></path></g></svg>