<?xml version="1.0" encoding="UTF-8" standalone="no"?>
<svg
   xmlns:dc="http://purl.org/dc/elements/1.1/"
   xmlns:cc="http://creativecommons.org/ns#"
   xmlns:rdf="http://www.w3.org/1999/02/22-rdf-syntax-ns#"
   xmlns:svg="http://www.w3.org/2000/svg"
   xmlns="http://www.w3.org/2000/svg"
   version="1.1"
   id="svg2"
   height="300"
   width="300"
   preserveAspectRatio="xMidYMid"
   viewBox="0 0 300 300">
  <metadata
     id="metadata27">
    <rdf:RDF>
      <cc:Work
         rdf:about="">
        <dc:format>image/svg+xml</dc:format>
        <dc:type
           rdf:resource="http://purl.org/dc/dcmitype/StillImage" />
      </cc:Work>
    </rdf:RDF>
  </metadata>
  <defs
     id="defs25" />
  <filter
     y="-50%"
     x="-50%"
     height="500"
     width="300"
     id="vbzdp">
    <feFlood
       id="feFlood5"
       result="element"
       flood-color="#7366bd" />
    <feTurbulence
       id="feTurbulence7"
       result="element_1"
       seed="0"
       numOctaves="8"
       type="fractalNoise"
       baseFrequency="0.02" />
    <feGaussianBlur
       id="feGaussianBlur9"
       result="element_2"
       in="SourceAlpha"
       stdDeviation="4" />
    <feDisplacementMap
       id="feDisplacementMap11"
       result="element_3"
       in2="element_1"
       in="element_2"
       scale="100" />
    <feComposite
       id="feComposite13"
       result="element_4"
       in2="element_3"
       in="element"
       operator="in" />
    <feMerge
       id="feMerge15">
      <feMergeNode
         id="feMergeNode17"
         in="element_4" />
    </feMerge>
  </filter>
  <g
     id="g19"
     transform="translate(150,150) scale(1.5)">
    <path
       id="path21"
       style="filter: url(#vbzdp); stroke: rgb(115, 102, 189);"
       d="M0,0L0.6448095737059859,4.996244121796584C1.2896191474119718,9.992488243593169,2.5792382948239436,19.984976487186337,3.5511723539251436,22.82862012855738C4.523106413026344,25.67226376992842,5.177355383816772,21.36706280907734,9.662207599315323,10.402868490688682C14.147059814813874,-0.5613258276999726,22.462515275020547,-18.1845135036262,22.04595158608194,-23.99314255569104C21.62938789714333,-29.801771607755875,12.48080505905944,-23.79584203595932,5.522447959448041,-14.842617276440098C-1.4359091401633588,-5.889392516920872,-6.204040501302267,6.0111274303210225,-5.997852505203683,-0.2056973835920921C-5.7916645091051,-6.422522197505208,-0.6111571557690247,-30.756691772573333,-1.514607096703065,-28.082139776313323C-2.418057037637105,-25.407587780053312,-9.405464272841261,4.275685787534837,-5.150470095061644,18.705148069429004C-0.8954759172820275,33.134610351323175,14.601919673481362,32.31026134752336,12.822308239561893,28.787126906441483C11.042696805642425,25.263992465359607,-8.013921652959901,19.042072586995666,-15.016745735245069,12.296423661613328C-22.019569817530236,5.550774736230993,-16.96859952349825,-1.7186032361697388,-12.369232747517113,-6.373996769734353C-7.76986597153598,-11.029390303298968,-3.6221027136057025,-13.070799398027463,5.725692263783447,-7.756946060645943C15.073487241172595,-2.443092723264421,29.621313938020617,10.226023046227118,31.557686315503823,8.301144614457542C33.494058692987025,6.376266182687962,22.818976751105414,-10.142606450342733,17.13121377741771,-19.750988616356135C11.443450803730006,-29.35937078236954,10.74300679823621,-32.05726248136565,4.448011451245345,-23.436305453847723C-1.8469838957455211,-14.815348426329798,-13.736530584233458,5.124457327702164,-11.080809730550193,17.656486563685675C-8.42508887686693,30.188515799669183,8.775899518987535,35.31276851760424,13.426863377966917,25.489845909574075C18.0778272369463,15.666923301543909,10.178766559050597,-9.10317463245148,-2.8290440090392917,-18.38934237616089C-15.83685457712918,-27.675510119870296,-33.95341503541326,-21.477747673293727,-35.58044726632059,-15.150953614443033C-37.20747949722792,-8.824159555592342,-22.344983500758516,-2.3683338844675315,-12.000285613019862,8.868562404226385C-1.655587725281209,20.1054586929203,4.171312053726687,36.12342559918332,-1.2267643074947472,35.748537661426354C-6.62484066871618,35.37364972366938,-23.247893170166943,18.60590694189242,-31.339885718903957,8.044772387528338C-39.43187826764097,-2.5163621668357457,-38.99281086366424,-6.870888493786954,-39.92568880114044,-12.228723830355442C-40.85856673861663,-17.586559166923927,-43.16339001754576,-23.94770351310969,-32.31145956394155,-20.67606048067101C-21.459529110337336,-17.404417448232323,2.549155075800213,-4.499987037169197,12.442284227569644,-0.6851232160986989C22.335413379339073,3.129740604971799,18.112987496740388,-2.144962163950334,13.844318310095355,-5.176447520595312C9.575649123450324,-8.20793287724029,5.260736632758948,-8.996200821608117,0.9270150663975434,-12.082792901015335C-3.406706499963862,-15.169384980422553,-7.759237141995297,-20.55430119486917,-11.780062973691066,-12.826001115986033C-15.800888805386837,-5.0977010371028975,-19.49000982674694,15.743815335109986,-17.28616938826224,24.770522181120977C-15.082328949777539,33.79722902713197,-6.985527051448027,31.009126346941073,-8.656559401909039,18.971758798054616C-10.327591752370049,6.93439124916816,-21.76645835162158,-14.352241168413856,-22.799664120480543,-17.378758121710348C-23.83286988933951,-20.40527507500684,-14.460414827805906,-5.171676564017809,-11.901206044762203,-0.08448666038575436C-9.341997261718499,5.0027032432463,-13.596034757164695,-0.05651546047862199,-4.677229446482752,-5.912026777496901C4.241575864199191,-11.767538094515178,26.333223981009272,-18.419342024826815,38.07533993570881,-20.45006551719954C49.817455890408354,-22.48078900957227,51.21003968299736,-19.89043206400609,45.42538884208796,-13.91491460515833C39.640738001178555,-7.93939714631057,26.678852526770743,1.4212808258187728,20.197909789566836,6.101619811883444L13.716967052362932,10.781958797948116" />
  </g>
</svg>
