<?xml version="1.0" encoding="UTF-8" standalone="no"?>
<svg
   xmlns:dc="http://purl.org/dc/elements/1.1/"
   xmlns:cc="http://creativecommons.org/ns#"
   xmlns:rdf="http://www.w3.org/1999/02/22-rdf-syntax-ns#"
   xmlns:svg="http://www.w3.org/2000/svg"
   xmlns="http://www.w3.org/2000/svg"
   version="1.1"
   id="svg2"
   height="300"
   width="300"
   preserveAspectRatio="xMidYMid"
   viewBox="0 0 300 300">
  <metadata
     id="metadata27">
    <rdf:RDF>
      <cc:Work
         rdf:about="">
        <dc:format>image/svg+xml</dc:format>
        <dc:type
           rdf:resource="http://purl.org/dc/dcmitype/StillImage" />
      </cc:Work>
    </rdf:RDF>
  </metadata>
  <defs
     id="defs25" />
  <filter
     y="-50%"
     x="-50%"
     height="500"
     width="300"
     id="qsfiv">
    <feFlood
       id="feFlood5"
       result="element"
       flood-color="#4f86f7" />
    <feTurbulence
       id="feTurbulence7"
       result="element_1"
       seed="98"
       numOctaves="8"
       type="fractalNoise"
       baseFrequency="0.02" />
    <feGaussianBlur
       id="feGaussianBlur9"
       result="element_2"
       in="SourceAlpha"
       stdDeviation="4" />
    <feDisplacementMap
       id="feDisplacementMap11"
       result="element_3"
       in2="element_1"
       in="element_2"
       scale="100" />
    <feComposite
       id="feComposite13"
       result="element_4"
       in2="element_3"
       in="element"
       operator="in" />
    <feMerge
       id="feMerge15">
      <feMergeNode
         id="feMergeNode17"
         in="element_4" />
    </feMerge>
  </filter>
  <g
     id="g19"
     transform="translate(150,150) scale(1.5)">
    <path
       id="path21"
       style="filter: url(#qsfiv); stroke: rgb(79, 134, 247);"
       d="M0,0L2.9162098877556444,-5.856194439234618C5.832419775511289,-11.712388878469236,11.664839551022578,-23.42477775693847,5.565731362729184,-20.81119912472773C-0.5333768255642095,-18.197620492516982,-18.564012977662287,-1.2580743496262574,-22.608612846905537,12.297898919744384C-26.65321271614879,25.853872189115023,-16.711776302537217,36.02627258496558,-13.199531187233546,28.364036789233012C-9.687286071929874,20.70180099350044,-12.6042322549341,-4.795070993815257,-12.396067831419023,-16.054430654107623C-12.187903407903946,-27.313790314399984,-8.854628377869563,-24.335637647669017,0.7152681729529728,-14.311256864746202C10.28516472377551,-4.286876081823387,26.091682795386202,12.783732817291273,30.4462863005528,18.49265995503975C34.80088980571939,24.201587092788227,27.70357874444189,18.54883246917052,14.979917632679442,15.290793849769518C2.2562565209169847,12.032755230368515,-16.093754641330424,11.169432615184212,-17.781125274946184,15.946433488540984C-19.46849590856194,20.72343436189776,-4.493226013546055,31.140758723795606,3.744623100389,28.386095108744385C11.982472214324055,25.631431493693164,13.482900547178277,9.704779901692875,11.795677336670975,2.970848068777918C10.108454126163675,-3.763083764137039,5.233579372294851,-1.3042958379666643,9.668107806117725,-0.19444322627725183C14.102636239940598,0.9154093854121605,27.846567861455167,0.6763266826206102,29.88728007233236,3.9670964191304074C31.927992283209555,7.257866155640205,22.265485083449377,14.07848833145135,15.853175129196481,14.67178839616035C9.440865174943585,15.265088460869354,6.278752466197977,9.631066414476212,8.693005380191408,7.271929643554348C11.107258294184838,4.912792872632483,19.09787683091731,5.828541377181896,20.468802302663924,11.99389826295911C21.839727774410537,18.159255148736325,16.590960181171297,29.57422041574134,6.372800539222793,32.602944317528774C-3.845359102725709,35.631668219316204,-19.032910793383472,30.274150755886048,-22.00282060764613,21.33047156036075C-24.97273042190879,12.386792364835458,-15.724998359776343,-0.14304856278497446,-9.603941061867737,-4.753486108060698C-3.4828837639591277,-9.363923653336421,-0.4885012302743572,-6.054957816267438,4.1330728327163,-3.3606901505463003C8.754646895706957,-0.6664224848251634,15.0034124880035,1.4131470095481256,12.423125689188641,-3.149855564314462C9.842838890373782,-7.712858138177049,-1.5665002995524793,-18.918432780275513,-4.454151529597622,-17.723176796390437C-7.341802759642764,-16.52792081250536,-1.7077660298067867,-2.9318342026367468,6.44995011783663,-2.940263304015918C14.607666265480045,-2.9486924053950894,25.2890618309309,-16.561637218022046,28.6456234307055,-13.672749237407931C32.00218503048009,-10.783861256793816,28.03391266457843,8.606859517061372,18.862041122911616,14.830665226340734C9.6901695812448,21.054470935620095,-4.6853011361871655,14.111361580323631,-3.165436306292957,8.923422702000806C-1.6455714763987466,3.7354838236779835,15.769628900821639,0.3027154223287982,11.415751187434894,-2.2114272350566955C7.061873474048152,-4.725569892442189,-19.06108232994572,-6.32108680586399,-31.746685562399886,-3.1098491921690936C-44.43228879485405,0.10138842152580274,-43.68053945576852,8.119380562337398,-32.92787860340778,8.651604227626084C-22.175217751047025,9.18382789291477,-1.42164538541107,2.230283082680547,6.527231910063235,-2.7295143513567672C14.47610920553754,-7.689311785394081,9.620291430850195,-10.655361843234488,5.047130818735224,-10.14407926388514C0.4739702066202538,-9.632796684535794,-3.81653324292234,-5.644181467996694,-9.51746460190983,-1.606430051826345C-15.218395960897322,2.4313213643440044,-22.32975522932971,6.518208980145604,-21.873683819966796,5.676963389956767C-21.41761241060388,4.835717799767929,-13.394110323445659,-0.933660996411346,-8.255709607408336,0.5006824548121811C-3.1173088913710103,1.9350259060357082,-0.8640095464545795,10.573091604662038,-4.809687283417178,13.275544791020817C-8.755365020379775,15.977997977379593,-18.900019839221404,12.744838651470818,-23.972347248642215,11.128258988516432L-29.04467465806303,9.511679325562046" />
  </g>
</svg>
