<?xml version="1.0" encoding="UTF-8" standalone="no"?>
<svg
   xmlns:dc="http://purl.org/dc/elements/1.1/"
   xmlns:cc="http://creativecommons.org/ns#"
   xmlns:rdf="http://www.w3.org/1999/02/22-rdf-syntax-ns#"
   xmlns:svg="http://www.w3.org/2000/svg"
   xmlns="http://www.w3.org/2000/svg"
   version="1.1"
   id="svg2"
   height="300"
   width="300"
   preserveAspectRatio="xMidYMid"
   viewBox="0 0 300 300">
  <metadata
     id="metadata27">
    <rdf:RDF>
      <cc:Work
         rdf:about="">
        <dc:format>image/svg+xml</dc:format>
        <dc:type
           rdf:resource="http://purl.org/dc/dcmitype/StillImage" />
      </cc:Work>
    </rdf:RDF>
  </metadata>
  <defs
     id="defs25" />
  <filter
     y="-50%"
     x="-50%"
     height="500"
     width="300"
     id="qkicx">
    <feFlood
       id="feFlood5"
       result="element"
       flood-color="#6699cc" />
    <feTurbulence
       id="feTurbulence7"
       result="element_1"
       seed="3"
       numOctaves="8"
       type="fractalNoise"
       baseFrequency="0.02" />
    <feGaussianBlur
       id="feGaussianBlur9"
       result="element_2"
       in="SourceAlpha"
       stdDeviation="4" />
    <feDisplacementMap
       id="feDisplacementMap11"
       result="element_3"
       in2="element_1"
       in="element_2"
       scale="100" />
    <feComposite
       id="feComposite13"
       result="element_4"
       in2="element_3"
       in="element"
       operator="in" />
    <feMerge
       id="feMerge15">
      <feMergeNode
         id="feMergeNode17"
         in="element_4" />
    </feMerge>
  </filter>
  <g
     id="g19"
     transform="translate(150,150) scale(1.5)">
    <path
       id="path21"
       style="filter: url(#qkicx); stroke: rgb(102, 153, 204);"
       d="M0,0L3.5494463083564094,1.6426664257931094C7.098892616712819,3.285332851586219,14.197785233425638,6.570665703172438,8.72008775809193,5.371665639178406C3.2423902827582225,4.172665575184376,-14.811897284622011,-1.5106674043899044,-13.79683523926377,-6.4383435370540685C-12.781773193905526,-11.366019669718233,7.302638464191194,-15.538038955472281,14.07088556425234,-15.728995678538597C20.839132664313485,-15.919952401604913,14.291215206339057,-12.1298465619835,6.2166538422657,-8.6842389574946C-1.8579075218076575,-5.238631353005701,-11.459112791979944,-2.1375219836493144,-6.118134577756793,5.975147619318231C-0.777156363533642,14.087817222285777,19.506005335084946,27.212047058864485,14.00468799744913,22.3725628345441C8.50337065981331,17.533078610223722,-22.782425714076915,-5.270119674995746,-30.443100778531193,-12.470292754644989C-38.10377584298547,-19.67046583429423,-22.139329598003798,-11.267613708373249,-3.605172486734313,-6.326726485484915C14.928984624535172,-1.3858392625965814,36.03285260209247,0.09308305725910404,39.62000446674159,9.461515733871744C43.2071563313907,18.829948410484384,29.27759208313163,36.087891443853984,19.120384594374368,35.990448881887026C8.963177105617106,35.89300631992007,2.57832637636165,18.44017816261656,1.466965721870816,6.537329157318898C0.3556050673799822,-5.365519847978767,4.51773448765377,-11.718389701270592,6.973278858099182,-10.1714152106084C9.428823228544594,-8.62444071994621,10.17778254916163,0.8223781146699976,12.129689659721842,4.025042252500023C14.081596770282056,7.227706390330048,17.236451670785446,4.186215831373892,18.735460961479205,4.767543806808163C20.23447025217296,5.348871782242435,20.07763393305709,9.553018292067133,21.017693662730327,8.939384505849466C21.957753392403564,8.325750719631795,23.99470917086591,2.8943366373717603,20.1377334684542,7.2661143301833295C16.28075776604249,11.6378920229949,6.529850582756725,25.812861490878074,-0.1483597171532729,34.13868353334246C-6.826570017063271,42.464505575806854,-10.4320834335975,44.94118019285246,-9.067196514010071,34.89345388098448C-7.702309594422642,24.84572756911651,-1.3670223387135545,2.2736003283349593,-7.339382434804056,-4.452906780059819C-13.31174253089456,-11.179413888454597,-31.591749978784648,-2.0603008644626053,-35.34301925144051,2.39565927092048C-39.09428852409637,6.8516194063035645,-28.316819621518007,6.644426653077743,-21.844118906191703,5.266739546779883C-15.371418190865398,3.8890524404820237,-13.203485662791156,1.3408709811121258,-10.264939045971529,-3.474591148739941C-7.3263924291519,-8.290053278592008,-3.617231723586885,-15.372796078926244,2.130117837985181,-16.505081780410013C7.877467399557248,-17.63736748189378,15.663005817136366,-12.819196084527078,11.540939048556693,-6.61168265899054C7.41887227997702,-0.40416923345400146,-8.610799674761443,7.1926862202523765,-7.288198656911021,9.851318150728542C-5.965597639060597,12.509950081204707,12.709276351378712,10.230358488450662,18.105753482215032,7.755787367463622C23.502230613051353,5.281216246476584,15.620310884284685,2.6116655972565535,10.077433274023921,8.783307126247529C4.534555663763159,14.954948655238503,1.3307201720083017,29.967782362440484,-7.5470328629127135,30.22579222364785C-16.42478589783373,30.48380208485521,-30.976456475920905,15.986988100067954,-25.567282634247817,7.999575271195694C-20.158108792574733,0.01216244232343311,5.211909468858611,-1.465849230633833,16.120046315783668,-1.8164540214573524C27.02818316270872,-2.167058812280872,23.47443859512549,-1.3902567209706445,22.899889966965603,0.9316149918114716C22.32534133880572,3.2534867045935876,24.72998865006918,7.120428038847592,12.237864654973851,13.31114446371117C-0.2542593401214752,19.501860888574747,-27.64315464157559,28.0163524040479,-33.994363368745844,33.079529030641744C-40.3455720959161,38.14270565723558,-25.659094248802486,39.75456739495011,-15.801268819105418,33.79221496528122C-5.943443389408351,27.829862535612328,-0.9142703771278269,14.293295938560021,1.6003161290124355,7.525012640033869L4.114902635152698,0.7567293415077159" />
  </g>
</svg>
