<svg viewBox="0 0 300 300" preserveAspectRatio="xMidYMid" width="300" height="300"><filter id="dphlc" width="300" height="500" x="-50%" y="-50%"><feFlood flood-color="#0d98ba" result="element"></feFlood><feTurbulence baseFrequency="0.02" type="fractalNoise" numOctaves="8" seed="63" result="element_1"></feTurbulence><feGaussianBlur stdDeviation="5" in="SourceAlpha" result="element_2"></feGaussianBlur><feDisplacementMap scale="100" in="element_2" in2="element_1" result="element_3"></feDisplacementMap><feComposite operator="in" in="element" in2="element_3" result="element_4"></feComposite><feMerge><feMergeNode in="element_4"></feMergeNode></feMerge></filter><g transform="translate(150,150) scale(1.5)"><path d="M0,0L1.3687183000177607,-0.9610764214788985C2.7374366000355215,-1.922152842957797,5.474873200071043,-3.844305685915594,4.458728988309964,-4.0122369544617715C3.4425847765488866,-4.180168223007949,-1.3271402470087912,-2.593877917142507,0.4949296684179014,0.2833001018560799C2.316999583844594,3.1604781208546666,10.730864438255658,7.328543852986398,19.364858283197016,7.045080805621015C27.998852128138374,6.761617758255633,36.85297496361002,2.026625931393136,36.0246691149565,2.8912194192655782C35.19636326630297,3.7558129071380204,24.68562873352426,10.2199917097454,17.207650880430784,15.664595596242437C9.729673027337302,21.109199482739474,5.28445185392905,25.534228453126165,0.3207119825556801,28.246594845370282C-4.64302788881769,30.9589612376144,-10.125286458156177,31.958665051715943,-13.21734268449732,31.150837060397066C-16.30939891083846,30.34300906907819,-17.01125279418226,27.72764927233889,-22.09197181733388,27.65962361675527C-27.1726908404855,27.59159796117165,-36.632275003444946,30.07090644674371,-39.44523531677382,27.88958031711487C-42.25819563010268,25.708254187486034,-38.42453209380097,18.866293442656303,-30.513093558228945,18.523794066616666C-22.601655022656924,18.18129469057703,-10.61244148781459,24.338256683327486,0.23361412859406716,27.825509326240205C11.079669745002722,31.312761969152923,20.782567442977697,32.13030526222791,20.48104582546394,23.68960000275183C20.17952420795018,15.248894743275756,9.873583274947688,-2.4500590687513704,2.422219926115976,-6.274602930637961C-5.029143422715736,-10.099146792524554,-9.625929187376666,-0.04928070427060938,-9.581513755913216,-2.6393305280873154C-9.537098324449765,-5.229380351904021,-4.851481696861933,-20.459346087791378,-5.86861416901141,-26.08750022411278C-6.885746641160886,-31.715654360434186,-13.605628213047671,-27.741996897189637,-15.251593011746687,-30.258339922878708C-16.897557810445704,-32.77468294856777,-13.469605835956948,-41.781026463190464,-10.576870073542953,-31.41538993690674C-7.6841343111289575,-21.049753410623026,-5.32661476078972,8.687863156567097,0.20695691482856526,26.47336854914388C5.740528590446851,44.258873941720665,14.450152391344185,50.09226815968411,18.492462881624846,43.42527029840122C22.534773371905505,36.758272437118336,21.90977055156949,17.59088249658911,14.012597435335637,12.866419508158769C6.115424319101782,8.141956519728428,-9.053919093029911,17.860420483396968,-10.826555287026906,15.350680259876203C-12.599191481023901,12.840940036355434,-0.9751204568861969,-1.8970043743546405,6.9083684971374035,-7.335457167138307C14.791857451161004,-12.773909959921973,18.9347643350705,-8.91287113477923,13.813374507902058,-14.451847745066C8.691984680733617,-19.99082435535277,-5.693701857512766,-34.929816401069054,-8.785504674074495,-33.1736933658617C-11.877307490636223,-31.417570330654335,-3.6752265855133004,-12.966332214523337,-3.145928682206623,-2.0793358898987018C-2.616630778899945,8.807660434725934,-9.760115877409515,12.130414967844205,-12.773337072155794,16.404916842927932C-15.786558266902075,20.679418718011657,-14.669515557885067,25.90566793506084,-8.436769719887845,23.96561459729198C-2.204023881890623,22.025561259523123,9.144425085086814,12.919205366936227,12.492214723412246,10.314588986800684C15.840004361737677,7.709972606665143,11.187134671411101,11.607095738980956,5.142608645754487,2.37231323061898C-0.9019173799021267,-6.862469277742994,-8.338099740888781,-29.229157426782756,-9.297559797419769,-32.0839693171062C-10.257019853950757,-34.938781207429656,-4.73975760602608,-18.281716839036793,-1.9968192814010335,-6.056076447411094C0.7461190432240133,6.169563944214605,0.7147334445494287,13.963780359073143,7.4318559221378475,14.36767234384641C14.148978399726266,14.771564328619677,27.61460895357769,7.785131883307674,23.062517080193835,-3.4450671420156755C18.510425206809984,-14.675266167339025,-4.059389093809143,-30.14923177267372,-11.16829249172115,-23.972544872484992C-18.277195889633155,-17.79585797229626,-9.92518838483804,10.031481433415898,-5.74918463244048,23.945151136271978L-1.5731808800429228,37.85882083912806" style="filter: url(#dphlc); stroke: rgb(13, 152, 186);"></path></g></svg>