<?xml version="1.0" encoding="UTF-8" standalone="no"?>
<svg
   xmlns:dc="http://purl.org/dc/elements/1.1/"
   xmlns:cc="http://creativecommons.org/ns#"
   xmlns:rdf="http://www.w3.org/1999/02/22-rdf-syntax-ns#"
   xmlns:svg="http://www.w3.org/2000/svg"
   xmlns="http://www.w3.org/2000/svg"
   version="1.1"
   id="svg2"
   height="300"
   width="300"
   preserveAspectRatio="xMidYMid"
   viewBox="0 0 300 300">
  <metadata
     id="metadata27">
    <rdf:RDF>
      <cc:Work
         rdf:about="">
        <dc:format>image/svg+xml</dc:format>
        <dc:type
           rdf:resource="http://purl.org/dc/dcmitype/StillImage" />
      </cc:Work>
    </rdf:RDF>
  </metadata>
  <defs
     id="defs25" />
  <filter
     y="-50%"
     x="-50%"
     height="500"
     width="300"
     id="qvbry">
    <feFlood
       id="feFlood5"
       result="element"
       flood-color="#1f75fe" />
    <feTurbulence
       id="feTurbulence7"
       result="element_1"
       seed="72"
       numOctaves="8"
       type="fractalNoise"
       baseFrequency="0.02" />
    <feGaussianBlur
       id="feGaussianBlur9"
       result="element_2"
       in="SourceAlpha"
       stdDeviation="4" />
    <feDisplacementMap
       id="feDisplacementMap11"
       result="element_3"
       in2="element_1"
       in="element_2"
       scale="100" />
    <feComposite
       id="feComposite13"
       result="element_4"
       in2="element_3"
       in="element"
       operator="in" />
    <feMerge
       id="feMerge15">
      <feMergeNode
         id="feMergeNode17"
         in="element_4" />
    </feMerge>
  </filter>
  <g
     id="g19"
     transform="translate(150,150) scale(1.5)">
    <path
       id="path21"
       style="filter: url(#qvbry); stroke: rgb(31, 117, 254);"
       d="M0,0L0.5956348332744548,-5.93052979201519C1.1912696665489095,-11.86105958403038,2.382539333097819,-23.72211916806076,-3.1356017131091782,-23.767131763850415C-8.653742759316176,-23.812144359640065,-20.88129451827908,-12.04110996718899,-22.784394008954997,-2.35025326459657C-24.687493499630918,7.340603437995852,-16.266140722019852,14.95128245072962,-5.833616597519578,15.225634655853495C4.598907526980699,15.499986860977367,17.042602998370185,8.438012258491348,17.769522260807406,0.6253460181696804C18.496441523244627,-7.187320222151986,7.506584576729582,-15.7506781003093,2.6532499613409097,-9.935252373376937C-2.2000846540477625,-4.119826646444574,-0.9168969383100619,16.07438268557746,5.203850122420119,19.98226000544679C11.3245971831503,23.89013732531611,22.28290358887296,11.511682633032724,18.051607586800518,-1.3217957317934967C13.820311584728081,-14.155274096619715,-5.600586825139455,-27.443776133988766,-6.543905275764857,-31.752715902550786C-7.487223726390258,-36.06165567111281,10.047037782226475,-31.391033170867807,14.271942000987757,-25.384011399302683C18.496846219749038,-19.37698962773755,9.412393148654866,-12.033568584852302,4.897383217088913,-10.033322533471456C0.38237328552296,-8.033076482090607,0.4368064934852255,-11.376005422214163,0.7314434707292781,-17.54942650141983C1.0260804479733308,-23.7228475806255,1.5609211944991703,-32.72676079891328,-0.7943152743953759,-29.74668296609858C-3.1495517432899223,-26.766605133283868,-8.394865427604854,-11.802536249366673,-6.381618774256334,-6.998569478028432C-4.368372120907813,-2.194602706690192,4.903434870104162,-7.550738047930908,6.307166222191294,-15.458952123067853C7.710897574278428,-23.3671661982048,1.2465532874407184,-33.82745900723798,-0.4495599037949467,-24.420082661714225C-2.1456730950306118,-15.01270631619047,0.9264448093357671,14.262339183890209,7.352643356407533,17.046418419324326C13.778841903479298,19.83049765475844,23.55912109325645,-3.8763893744540106,20.409270443910994,-11.125855206312506C17.259419794565545,-18.375321038171002,1.1794393060974855,-9.167365672675546,4.778755950891102,-3.3663703856341503C8.378072595684719,2.4346249014072447,31.656686373740012,4.828660109994579,36.13830691025787,5.781439388042578C40.61992744677572,6.734218666090578,26.304554741756135,6.2457420135992425,15.994271921518258,5.994445490692287C5.683989101280378,5.743148967785331,-0.621203834175792,5.729032574462754,-10.319670630910933,4.763730259467115C-20.018137427646074,3.7984279444714755,-33.109878085660185,1.8819397078027735,-30.938273520774416,-2.5042062734769335C-28.766668955888655,-6.890352254756641,-11.331719168103014,-13.746155980647353,0.9338379924759259,-9.03779596897857C13.199395153054866,-4.329435957309784,20.295559686427108,11.943087791918499,17.934546448837775,21.214941343402213C15.573533211248437,30.486794894885925,3.7553422026975225,32.75797824862507,-10.435363006178342,30.950500401951C-24.626068215054207,29.14302255527693,-41.18928762425502,23.256883508189638,-47.11212107365966,18.093841189571627C-53.03495452306428,12.930798870953616,-48.317402012672716,8.490853280804888,-41.42114308935696,10.792427844268595C-34.52488416604119,13.094002407732303,-25.449918829801224,22.137097124808445,-15.298691324300354,21.870157519361815C-5.14746381879948,21.60321791391518,6.080025855962297,12.02624398594577,2.0105354418524453,7.997414427991408C-2.058954972257407,3.968584870037045,-21.42542547523889,5.487899682097729,-14.624123441694657,3.533881773182559C-7.822821408150425,1.5798638642673875,25.146253161919518,-3.8474867656236382,33.68435562203751,-3.733495992610241C42.222458082155505,-3.619505219596844,26.32958843232155,2.035826956320976,15.366134243007936,-5.8582205295150285C4.402680053694328,-13.752268015351033,-1.6313586750989364,-35.195695162940865,-10.339235530783874,-41.25240960971521C-19.04711238646881,-47.309124056489566,-30.428827369045422,-37.979125802448436,-29.11258053112669,-28.1753078481832C-27.79633369320796,-18.37148989391797,-13.782125034793886,-8.093852239428637,-6.775020705586851,-2.955033412183971L0.23208362362018578,2.1837854150606955" />
  </g>
</svg>
