<?xml version="1.0" encoding="UTF-8" standalone="no"?>
<svg
   xmlns:dc="http://purl.org/dc/elements/1.1/"
   xmlns:cc="http://creativecommons.org/ns#"
   xmlns:rdf="http://www.w3.org/1999/02/22-rdf-syntax-ns#"
   xmlns:svg="http://www.w3.org/2000/svg"
   xmlns="http://www.w3.org/2000/svg"
   version="1.1"
   id="svg2"
   height="300"
   width="300"
   preserveAspectRatio="xMidYMid"
   viewBox="0 0 300 300">
  <metadata
     id="metadata27">
    <rdf:RDF>
      <cc:Work
         rdf:about="">
        <dc:format>image/svg+xml</dc:format>
        <dc:type
           rdf:resource="http://purl.org/dc/dcmitype/StillImage" />
      </cc:Work>
    </rdf:RDF>
  </metadata>
  <defs
     id="defs25" />
  <filter
     y="-50%"
     x="-50%"
     height="500"
     width="300"
     id="jeuua">
    <feFlood
       id="feFlood5"
       result="element"
       flood-color="#de5d83" />
    <feTurbulence
       id="feTurbulence7"
       result="element_1"
       seed="82"
       numOctaves="8"
       type="fractalNoise"
       baseFrequency="0.02" />
    <feGaussianBlur
       id="feGaussianBlur9"
       result="element_2"
       in="SourceAlpha"
       stdDeviation="4" />
    <feDisplacementMap
       id="feDisplacementMap11"
       result="element_3"
       in2="element_1"
       in="element_2"
       scale="100" />
    <feComposite
       id="feComposite13"
       result="element_4"
       in2="element_3"
       in="element"
       operator="in" />
    <feMerge
       id="feMerge15">
      <feMergeNode
         id="feMergeNode17"
         in="element_4" />
    </feMerge>
  </filter>
  <g
     id="g19"
     transform="translate(150,150) scale(1.5)">
    <path
       id="path21"
       style="filter: url(#jeuua); stroke: rgb(222, 93, 131);"
       d="M0,0L9.035377787523426,3.6362443664868866C18.070755575046853,7.272488732973773,36.141511150093706,14.544977465947547,36.5356925515926,9.464544504584254C36.92987395309149,4.3841115432209605,19.64748118104241,-13.049243112479399,10.658457561913043,-22.010633089337446C1.6694339427836764,-30.97202306619549,0.9737794765740189,-31.461448364211222,-0.3785720891438591,-28.929305734489805C-1.7309236548617368,-26.39716310476839,-3.7399723200878348,-20.843452547309827,-3.9462867880531363,-14.410713929190834C-4.152601256018437,-7.97797531107184,-2.5561815267229413,-0.6662086322924168,-5.330141778826066,0.23578487723112218C-8.10410203092919,1.1377783867546611,-15.248442264430933,-4.370001272977684,-22.26525260830126,-2.0558186628443256C-29.282062952171593,0.258363947289034,-36.17134340641051,10.394508827288098,-32.71726540414836,17.846664784695047C-29.263187401886213,25.298820742101995,-15.465750943123009,30.066987776916832,-6.75856397787687,22.618790806773653C1.9486229873692702,15.17059383663048,5.565560459098344,-4.4939671384707065,13.61650764679613,-17.18708196413413C21.667454834493917,-29.880196789797548,34.15241173816042,-35.6018654660232,30.83774227501024,-38.42990453379198C27.523072811860054,-41.25794360156075,8.408776981893194,-41.192353060872634,-8.762382155910188,-31.94423238407786C-25.93354129371357,-22.69611170728309,-41.161563739353475,-4.265460894381652,-44.03957946018309,2.345829454557996C-46.917595181012715,8.957119803497644,-37.445604177032045,3.749049688475503,-23.819898120916754,-5.308639733111906C-10.194192064801463,-14.366329154699315,7.585229043448454,-27.27363788285199,12.924033018904723,-26.274398558696376C18.262836994360992,-25.275159234540762,11.161023837023613,-10.369371858076855,-2.401670540672856,-6.229658369375662C-15.964364918369323,-2.0899448806744694,-35.987940516424885,-8.716305279735991,-38.56238087165848,-10.162523662766844C-41.136821226892096,-11.608742045797698,-26.262126339303748,-7.874818412797884,-26.38171606562087,-6.162521474839167C-26.501305791937995,-4.45022453688045,-41.615180132160596,-4.75955429396283,-39.909702243827944,0.5428371287068741C-38.204224355495306,5.845228551376578,-19.679394238607415,16.759341153798363,-19.994975643763468,9.324942036242211C-20.31055704891952,1.8905429186860552,-39.466549976119516,-23.89236791884804,-47.067787452690595,-31.68107058409741C-54.66902492926168,-39.46977324934677,-50.71550695520386,-29.26426774231141,-32.72057466903145,-21.88574913469287C-14.725642382859029,-14.50723052707433,17.310704215427975,-9.955698818872616,31.588180413707732,-15.663215681819588C45.86565661198749,-21.37073254476656,42.38426241026001,-37.33729797886222,28.478985296994093,-36.846731536414715C14.573708183728181,-36.35616509396721,-9.755451841076153,-19.408466774976553,-11.092793740286028,-5.436199443317355C-12.430135639495902,8.536067888341845,9.224340586888685,19.532904232669583,20.604456628478268,18.125725033140398C31.984572670067845,16.71854583361121,33.09032852686242,2.9073510902250934,31.380483946701357,-3.8660466677956418C29.6706393665403,-10.639444425816377,25.145194349423605,-10.375045198471733,17.04365481538877,-5.025550561580613C8.942115281353935,0.32394407531050806,-2.7355187695990413,10.758534121748106,-6.598588847760719,12.790686522716914C-10.461658925922396,14.82283892368572,-6.510165031292774,8.452553679185739,0.7268857282001306,7.636247644929545C7.963936487693036,6.819941610673352,18.486544112049224,11.557614786660945,18.232560530943825,10.742822719699522C17.978576949838423,9.928030652738094,6.948002163271433,3.5607733428276505,0.12356532492031369,2.9434242853481902C-6.700871513430805,2.32607522786873,-9.319170403566053,7.458634422820254,-8.631963258624776,15.207376471001563C-7.944756113683497,22.956118519182873,-3.9520429336656924,33.321043420593966,-1.1696658320323328,33.73393110674375C1.612711269601027,34.146818792893534,3.1847522928499425,24.607669263782014,-2.481009596725472,18.76029521098005C-8.146771486300885,12.91292115817809,-21.05033628870063,10.757322581685688,-27.5021186899005,9.679523293439486L-33.95390109110038,8.601724005193287" />
  </g>
</svg>
