<svg viewBox="0 0 300 300" preserveAspectRatio="xMidYMid" width="300" height="300"><filter id="zvkna" width="300" height="500" x="-50%" y="-50%"><feFlood flood-color="#af6e4d" result="element"></feFlood><feTurbulence baseFrequency="0.02" type="fractalNoise" numOctaves="8" seed="89" result="element_1"></feTurbulence><feGaussianBlur stdDeviation="4" in="SourceAlpha" result="element_2"></feGaussianBlur><feDisplacementMap scale="100" in="element_2" in2="element_1" result="element_3"></feDisplacementMap><feComposite operator="in" in="element" in2="element_3" result="element_4"></feComposite><feMerge><feMergeNode in="element_4"></feMergeNode></feMerge></filter><g transform="translate(150,150) scale(1.5)"><path d="M0,0L0.7812315507195653,-1.2836236115412114C1.5624631014391306,-2.567247223082423,3.124926202878261,-5.134494446164846,3.6052822242685103,-7.382811597612239C4.08563824565876,-9.631128749059632,3.483887187000128,-11.560515828871996,4.042980369229578,-11.739403465283136C4.6020735514590285,-11.918291101694278,6.3220109745765605,-10.346679294704195,13.502664465128548,-3.825749752434813C20.683317955680536,2.695179789834569,33.32468751366698,14.16542706738325,32.05441508260476,6.81506835726166C30.784142651542545,-0.5352903528599278,15.602228231431662,-26.706255050651787,7.559808493981425,-31.323373991547836C-0.4826112434688129,-35.94049293244389,-1.3855362982584054,-19.003766116444126,-5.974400710501854,-9.643823448206156C-10.563265122745303,-0.2838807799681853,-18.838068892442607,1.4992777405079942,-11.571341800651519,2.8736508091380095C-4.304614708860431,4.248023877768024,18.503643244419052,5.213611494551875,26.162021406705183,10.82115353277172C33.82039956899131,16.428695570991565,26.328897940284087,26.678192030647406,17.992281244841216,25.17546064714633C9.655664549398349,23.672729263645255,0.4739327872198382,10.417770036987262,-0.3824161880535919,4.3017990997395374C-1.238765163327022,-1.8141718375081866,6.230268648304628,-0.7911544853456436,2.897503089168983,-5.718413315004506C-0.43526246996666274,-10.645672144663369,-14.569827399869604,-21.523207156143634,-22.140221307941527,-13.856860367890361C-29.71061521601345,-6.190513579637088,-30.71683810225436,20.019715008349728,-29.553202739674866,18.023512283814238C-28.389567377095368,16.02730955927875,-25.056073765695466,-14.17532447777905,-24.71282442487756,-20.94024932316131C-24.36957508405965,-27.705174168543564,-27.016570013823735,-11.032389822250284,-30.33298770012544,-12.655885449613429C-33.64940538642715,-14.279381076976572,-37.63524582926648,-34.19915667799614,-30.690771578938538,-34.6587403675144C-23.7462973286106,-35.11832405703265,-5.8715083851153835,-16.117715835049598,3.095799469700257,-8.042722256700717C12.063107324515897,0.03227132164816382,12.122934090651963,-2.818349743637132,12.980786746082366,-5.299802593796505C13.838639401512767,-7.781255443955878,15.494517946237503,-9.893540078989329,17.80813422262655,-17.82770401815919C20.121750499015597,-25.761867957329045,23.09310450706895,-39.51791120063532,11.451818012787324,-41.441045517140445C-0.1894684814943055,-43.36417983364558,-26.443395478110922,-33.45440522334957,-29.57497823247676,-24.453986502504414C-32.70656098684259,-15.453567781659261,-12.71579949895765,-7.362504950264962,-9.825052391802942,-7.759746984249214C-6.934305284648234,-8.156989018233467,-21.14357255822376,-17.04253591759627,-27.880107383608397,-14.749355469098642C-34.616642208993035,-12.456175020601014,-33.88044458618678,1.0157327757570442,-29.39391783258752,6.2064911329769235C-24.907391078988258,11.397249490196803,-16.670535194595985,8.306858408278503,-12.069040292677556,4.892519435002877C-7.467545390759127,1.4781804617272505,-6.501411471314542,-2.260106402905702,-12.96857766851791,0.18952047699670915C-19.435743865721275,2.639147356899121,-33.336210179572596,11.276687981336897,-38.59876155512356,9.60070105400395C-43.86131293067452,7.924714126671005,-40.48594936792513,-4.064800352432663,-31.177400670831144,-3.33130718838306C-21.868851973737158,-2.5978140243334575,-6.627118142298582,10.858686782869416,-2.0764133190686054,6.845171130021105C2.4742915041613713,2.8316554771727933,-3.6660326808172523,-18.6518766357267,-3.7708118163530364,-22.450638002791916C-3.87559095188882,-26.249399369857127,2.055174962018236,-12.363389991088056,4.102665294518846,-2.9018500375455587C6.150155627019456,6.559689915996939,4.314370378113621,11.596760444312865,7.577705684746891,14.76801288798491C10.841040991380162,17.93926533165695,19.20349685355254,19.24469969068511,24.830604825673227,16.470754950219856C30.457712797793917,13.696810209754599,33.349472879862915,6.843486369795929,28.92463413107655,3.2328070673201177C24.49979538229019,-0.3778722351556946,12.758357802648462,-0.7459070001486482,6.887639012827598,-0.9299243826451249L1.016920223006734,-1.1139417651416017" style="filter: url(#zvkna); stroke: rgb(175, 110, 77);"></path></g></svg>