<svg viewBox="0 0 300 300" preserveAspectRatio="xMidYMid" width="300" height="300"><filter id="ekjrf" width="300" height="500" x="-50%" y="-50%"><feFlood flood-color="#b4674d" result="element"></feFlood><feTurbulence baseFrequency="0.02" type="fractalNoise" numOctaves="8" seed="50" result="element_1"></feTurbulence><feGaussianBlur stdDeviation="5" in="SourceAlpha" result="element_2"></feGaussianBlur><feDisplacementMap scale="100" in="element_2" in2="element_1" result="element_3"></feDisplacementMap><feComposite operator="in" in="element" in2="element_3" result="element_4"></feComposite><feMerge><feMergeNode in="element_4"></feMergeNode></feMerge></filter><g transform="translate(150,150) scale(1.5)"><path d="M0,0L0.9336333012974457,-0.3430210986345877C1.8672666025948914,-0.6860421972691754,3.734533205189783,-1.3720843945383507,-5.072666276219994,-0.5747509463472396C-13.879865757629771,0.22258250184387163,-33.36153132304422,2.5032915954952695,-35.86268622694122,2.8504904952641335C-38.36384113083823,3.1976893950329974,-23.884485373217803,1.6113781009193282,-20.306229051865003,0.42226293459382475C-16.727972730512203,-0.7668522317316786,-24.050815845427028,-1.5587712702690157,-22.167996495792906,-1.5959501542979642C-20.285177146158784,-1.6331290383269124,-9.196695331975711,-0.9155677678474717,3.58481341106654,8.235089244415514C16.36632215410879,17.385746256678498,30.84085782601022,34.96949901072503,21.397415423757245,28.241516787134593C11.953973021504268,21.51353456354415,-21.407447454903117,-9.526182637683256,-36.433953276509975,-19.112426805650543C-51.46045909811683,-28.698670973617826,-48.15205026492316,-16.83144210832499,-37.83831974389945,-7.955581100355571C-27.524589222875743,0.9202799076138488,-10.205537014021996,6.804773058259851,3.3202520906680997,8.445967716993234C16.846041195358193,10.087162375726617,26.578567195884634,7.4850585425473835,28.02942110264125,-2.2715506562277543C29.480275009397864,-12.028159855002892,22.64945682238465,-28.939274419373934,16.65102867921088,-24.493196464354284C10.65260053603711,-20.04711850933464,5.486562436702781,5.756151965075691,6.767534462471431,11.954521811153803C8.048506488240081,18.152891657231915,15.776488639111708,4.746360874977806,12.944223703271653,-8.68089947611167C10.111958767431599,-22.108159827201142,-3.2805532551201377,-35.556149747125986,-6.215273613277292,-28.877834152263134C-9.149993971434446,-22.199518557400285,-1.6269226651970188,4.605102552250251,0.7858659756410533,12.835595653711215C3.1986546164791254,21.066088755172178,0.5011605919178417,10.722453848443566,-1.7659661029863987,12.439584694133742C-4.033092797890639,14.15671553982392,-5.869852163137836,27.934612137932888,-8.617868892314643,20.4737461673415C-11.36588562149145,13.012880196750112,-15.025159714597866,-15.686748342541629,-13.842833615608836,-16.383092015209066C-12.660507516619806,-17.079435687876497,-6.636581225535327,10.227505506080375,-2.2030921908385492,15.601109846989957C2.230396843858229,20.974714187899536,5.073448622167307,4.41498167576183,2.654223893525799,-2.1952082813662956C0.2349991648842913,-8.805398238494421,-7.446502070707803,-5.466045640612963,-16.545507237933208,-4.963430649251663C-25.64451240515861,-4.460815657890362,-36.16102150401733,-6.794938273049218,-35.708482252389175,-2.434002568643294C-35.255943000761015,1.9269331357626305,-23.83435539864599,12.982927159733336,-16.871508042955654,12.897095412637617C-9.908660687265312,12.811263665541897,-7.404553577999659,1.5836061473797525,2.395080247288024,-2.2268366454267055C12.194714072575707,-6.037279438233163,29.28987461388542,-2.430507505683935,24.982467794683316,-8.412843080307848C20.67506097548121,-14.395178654931762,-5.034913204232714,-29.966621736728815,-4.337302836888446,-30.09670149207503C-3.639692469544176,-30.226781247421247,23.465502444858284,-14.915497676316622,22.32836369334997,-7.405997068608947C21.19122494184166,0.10350353909872728,-8.188247475577427,-0.1887788165905484,-18.629129379657876,0.024791866100593307C-29.070011283738328,0.23836254879173502,-20.572302674480145,0.9577862698632942,-16.732154306464217,-6.352608724112858C-12.892005938448285,-13.663003718089008,-13.709417811674609,-29.003217427112872,-12.691954062050458,-27.378569308601154C-11.674490312426308,-25.753921190089443,-8.822150939951685,-7.164411244042148,-6.367210470533906,2.490098041967631C-3.912270001116128,12.14460732797741,-1.8547284347551944,12.864115953949673,-2.4122504531680002,7.370504822181447C-2.9697724715808067,1.876893690413219,-6.142358074767352,-9.829837199095499,-9.442805376215691,-4.459614029348738C-12.743252677664028,0.9106091403980248,-16.17156167737416,23.357786369400266,-14.60333655285817,24.753436188708417C-13.035111428342178,26.14908600801656,-6.470352179600067,6.493208417630617,-3.1879725552290115,-3.334730377562355L0.09440706914204416,-13.162669172755328" style="filter: url(#ekjrf); stroke: rgb(180, 103, 77);"></path></g></svg>