<?xml version="1.0" encoding="UTF-8" standalone="no"?>
<svg
   xmlns:dc="http://purl.org/dc/elements/1.1/"
   xmlns:cc="http://creativecommons.org/ns#"
   xmlns:rdf="http://www.w3.org/1999/02/22-rdf-syntax-ns#"
   xmlns:svg="http://www.w3.org/2000/svg"
   xmlns="http://www.w3.org/2000/svg"
   version="1.1"
   id="svg2"
   height="300"
   width="300"
   preserveAspectRatio="xMidYMid"
   viewBox="0 0 300 300">
  <metadata
     id="metadata27">
    <rdf:RDF>
      <cc:Work
         rdf:about="">
        <dc:format>image/svg+xml</dc:format>
        <dc:type
           rdf:resource="http://purl.org/dc/dcmitype/StillImage" />
      </cc:Work>
    </rdf:RDF>
  </metadata>
  <defs
     id="defs25" />
  <filter
     y="-50%"
     x="-50%"
     height="500"
     width="300"
     id="ozhhh">
    <feFlood
       id="feFlood5"
       result="element"
       flood-color="#a17a74" />
    <feTurbulence
       id="feTurbulence7"
       result="element_1"
       seed="78"
       numOctaves="8"
       type="fractalNoise"
       baseFrequency="0.02" />
    <feGaussianBlur
       id="feGaussianBlur9"
       result="element_2"
       in="SourceAlpha"
       stdDeviation="4" />
    <feDisplacementMap
       id="feDisplacementMap11"
       result="element_3"
       in2="element_1"
       in="element_2"
       scale="100" />
    <feComposite
       id="feComposite13"
       result="element_4"
       in2="element_3"
       in="element"
       operator="in" />
    <feMerge
       id="feMerge15">
      <feMergeNode
         id="feMergeNode17"
         in="element_4" />
    </feMerge>
  </filter>
  <g
     id="g19"
     transform="translate(150,150) scale(1.5)">
    <path
       id="path21"
       style="filter: url(#ozhhh); stroke: rgb(161, 122, 116);"
       d="M0,0L4.076591109950284,1.2315573051299977C8.153182219900568,2.4631146102599955,16.306364439801136,4.926229220519991,20.802666043727847,10.17828830280784C25.298967647654553,15.430347385095688,26.138388635607402,23.47135093941139,15.729006345689042,19.173911335935813C5.319624055770678,14.87647173246024,-16.338561512018895,-1.7594110288066105,-16.81711863906301,-6.868395676839152C-17.295675766107134,-11.977380324871694,3.4053955475941997,-5.559466859669925,6.771209439255305,-1.7131860686534317C10.13702333091641,2.1330947223630616,-3.832420199462714,3.40774283919428,-12.254705820476662,0.10790551725976849C-20.67699144149061,-3.191931804674743,-23.552119153139383,-11.066254565374985,-20.50795958839538,-5.333182665900298C-17.46380002365138,0.39988923357439,-8.500353182514607,19.740355793224005,-6.293568666036702,26.439406452720196C-4.086784149558798,33.138457112216386,-8.636661957739763,27.196091871559144,-7.973985965886465,16.290729870361318C-7.311309974033166,5.385367869163494,-1.4360801821456013,-10.482990892574918,4.738538252000714,-17.97288625075618C10.91315668614703,-25.46278160893744,17.387163762552095,-24.574213563561557,16.446270786839627,-13.816494431025706C15.505377811127158,-3.0587752984898575,7.149584783297151,17.568094921205955,-4.807458459667549,21.262072353931096C-16.76450170263225,24.956049786656237,-32.322795160731644,11.717134432410711,-37.413656590075405,-1.9462001658041341C-42.50451801941915,-15.60953476401898,-37.127947420007274,-29.697288606203145,-34.28469051507835,-22.887960052581327C-31.44143361014944,-16.07863149895951,-31.131490399703495,11.627779450468292,-22.550848598333282,24.71043332374883C-13.97020679696307,37.79308719702937,2.8811335953314074,36.25198399416265,4.256929091960147,22.389433392357667C5.632724588588884,8.526882790552682,-8.467024810448118,-17.657115210190568,-11.340133407755188,-17.880412144255878C-14.213242005062256,-18.103709078321195,-5.8597098006393935,7.633695054291428,6.53620137852603,21.234205216959356C18.932112557691454,34.83471537962728,35.37040271159943,36.29833157235052,36.041186828421786,24.089073946020477C36.71197094524413,11.879816319690436,21.61524902498084,-14.002315125692883,19.36989226743469,-22.536638402996196C17.12453550988854,-31.070961680299508,27.730543915059524,-22.257476789522812,27.27517506395552,-8.986628406772633C26.81980621285151,4.284219975977546,15.30306010547251,22.012431850701212,14.919505759913786,27.081367153977222C14.535951414355063,32.15030245725323,25.285588830616618,24.55996118908159,24.147402234440698,24.03340797972374C23.009215638264777,23.506854770365898,9.983205029651387,30.044089619821847,7.342599250808927,21.824307719434305C4.7019934719664676,13.604525819046762,12.446792522894942,-9.372272831184276,18.463447683503972,-19.32720955780734C24.480102844113006,-29.282146284430404,28.76861411440259,-26.215221087445492,23.116716090462404,-18.383604260344537C17.464818066522213,-10.551987433243584,1.8725107483522478,2.0443210239734118,-3.3663305859334742,8.593121119203808C-8.605171920219195,15.141921214434204,-3.4905472706206733,15.643212947678,4.140859264089411,8.822758695737038C11.772265798799493,2.0023044437960777,21.92045421862114,-12.139895793329641,18.354855070890803,-14.396325842479536C14.789255923160471,-16.65275589162943,-2.4901307921218407,-7.0234157528034995,-13.295610544299539,-2.519123298269168C-24.101090296477235,1.9851691562651625,-28.432663085550317,1.3644139265078938,-25.71561224075171,3.7767144997095228C-22.998561395953104,6.189015072911151,-13.232886917282805,11.634371449071677,-8.136681137159947,11.914064971692149C-3.0404753570370895,12.193758494312616,-2.61373827546167,7.3077891633930285,-2.625328034626505,3.7603420710549234C-2.6369177937913406,0.21289497871681795,-3.0868343936964298,-1.9960298750398047,-8.238882783621614,-11.029151585360916C-13.390931173546797,-20.062273295682026,-23.245111353492074,-35.91959186256763,-29.78146701861848,-38.82881346516103C-36.31782268374488,-41.73803506775444,-39.536353834052406,-31.69915970605566,-41.14561940920617,-26.679722025206267L-42.75488498435993,-21.660284344356878" />
  </g>
</svg>
