<?xml version="1.0" encoding="UTF-8" standalone="no"?>
<svg
   xmlns:dc="http://purl.org/dc/elements/1.1/"
   xmlns:cc="http://creativecommons.org/ns#"
   xmlns:rdf="http://www.w3.org/1999/02/22-rdf-syntax-ns#"
   xmlns:svg="http://www.w3.org/2000/svg"
   xmlns="http://www.w3.org/2000/svg"
   version="1.1"
   id="svg2"
   height="300"
   width="300"
   preserveAspectRatio="xMidYMid"
   viewBox="0 0 300 300">
  <metadata
     id="metadata27">
    <rdf:RDF>
      <cc:Work
         rdf:about="">
        <dc:format>image/svg+xml</dc:format>
        <dc:type
           rdf:resource="http://purl.org/dc/dcmitype/StillImage" />
      </cc:Work>
    </rdf:RDF>
  </metadata>
  <defs
     id="defs25" />
  <filter
     y="-50%"
     x="-50%"
     height="500"
     width="300"
     id="rrbky">
    <feFlood
       id="feFlood5"
       result="element"
       flood-color="#ea7e5d" />
    <feTurbulence
       id="feTurbulence7"
       result="element_1"
       seed="54"
       numOctaves="8"
       type="fractalNoise"
       baseFrequency="0.02" />
    <feGaussianBlur
       id="feGaussianBlur9"
       result="element_2"
       in="SourceAlpha"
       stdDeviation="5" />
    <feDisplacementMap
       id="feDisplacementMap11"
       result="element_3"
       in2="element_1"
       in="element_2"
       scale="100" />
    <feComposite
       id="feComposite13"
       result="element_4"
       in2="element_3"
       in="element"
       operator="in" />
    <feMerge
       id="feMerge15">
      <feMergeNode
         id="feMergeNode17"
         in="element_4" />
    </feMerge>
  </filter>
  <g
     id="g19"
     transform="translate(150,150) scale(1.5)">
    <path
       id="path21"
       style="filter: url(#rrbky); stroke: rgb(234, 126, 93);"
       d="M0,0L8.647925642497302,2.450017923817671C17.295851284994605,4.900035847635342,34.59170256998921,9.800071695270685,38.1393265164675,12.533918137929748C41.68695046294579,15.26776458058881,31.486347070907765,15.835421618271596,14.69062043743276,13.648638799574417C-2.1051061960422466,11.461855980877239,-25.495956070954236,6.520633305800097,-28.160615876185854,-3.915381883500856C-30.82527568141747,-14.35139707280181,-12.763745416968717,-30.282204776326573,-6.784551257875933,-31.034366878214904C-0.8053570987831469,-31.78652898010324,-6.908499045046327,-17.360045480355137,-8.457724068623252,-10.052767664788378C-10.006949092200177,-2.745489849221623,-7.002257193090848,-2.5574177178362127,-3.312760206529608,-3.951860047807408C0.37673678003163236,-5.3463023777786045,4.751038854044784,-8.323259169106406,1.1411999050352692,-3.1184636313728458C-2.468639043974246,2.086331906360714,-14.062619016006426,15.472879773155636,-15.67233218276381,9.941092111401181C-17.282045349521194,4.409304449646729,-8.907491711003779,-20.040818740657098,-7.169608878801652,-15.402226462065263C-5.431726046599525,-10.763634183473432,-10.330514020712686,22.963673564014062,-2.8976720776609977,35.187102610010655C4.535169865390692,47.41053165600724,24.29964172560723,38.130082000512914,25.99267052778015,31.01878075545803C27.685699329953067,23.90747951040315,11.307285074082365,18.9653266757877,0.374968225952514,14.681250327662807C-10.557348622177336,10.397173979537913,-16.043568062566337,6.771174117903572,-21.734559145195053,7.688257117983403C-27.425550227823773,8.605340118063234,-33.32131295269221,14.065505979857237,-29.45072005318617,12.719184945703999C-25.580127153680127,11.37286391155076,-11.943178629799608,3.2200559814502796,0.2704397528869009,2.229744844275086C12.48405813557341,1.2394337070998924,23.274346377065903,7.4116193628499865,30.86698002016814,7.006520452137616C38.459613663270375,6.601421541425245,42.85459270798235,-0.38096193574958903,35.51878875995762,-0.8324178134121203C28.182984811932894,-1.2838736910746515,9.116397871171461,4.79559803077512,-8.050564862735119,7.192181866913055C-25.217527596641695,9.588765703050989,-40.484866123693415,8.302461653477087,-41.804289550433026,4.059930634459693C-43.123712977172644,-0.18260038455770022,-30.495221303600147,-7.3813583730185846,-27.184876365802893,-15.558779912044791C-23.874531428005636,-23.736201451070997,-29.882333225983622,-32.892286540662525,-31.045737932520055,-25.42231200536016C-32.20914263905649,-17.952337470057785,-28.52815025415137,6.143696690138485,-16.822452014022264,16.710291529880763C-5.1167537738931586,27.276886369623043,14.613650321459936,24.314041888911326,13.096838386223023,20.858771200087553C11.58002645098611,17.403500511263776,-11.184001514840809,13.45580361432794,-18.805788287094085,4.315917316054572C-26.42757505934736,-4.823968982218796,-18.907120638026996,-19.156044681829695,-10.672623872438384,-26.955513757104494C-2.438127106849775,-34.7549828323793,6.510412003007077,-36.02184528331801,8.942036069896913,-27.217858565938442C11.373660136786752,-18.413871848558873,7.288369160709573,0.4609640371389716,4.703314229237169,5.914747442714984C2.118259297764764,11.368530848290996,1.0334404108971327,3.4012617737451785,2.7116628728853045,-1.954819237385332C4.389885334873476,-7.310900248515843,8.831149145717452,-10.055793196231045,5.07755012234553,-9.53674073568138C1.3239510989736072,-9.017688275131716,-10.624510758614214,-5.234690406317185,-19.289072768689273,-10.176389797310824C-27.953634778764332,-15.118089188304463,-33.33429694132663,-28.78448583910627,-27.814579720197905,-20.443809613099404C-22.294862499069183,-12.10313338709254,-5.874765894249435,18.244615715722997,3.8037360603799546,30.960985625065778C13.482238015009344,43.677355534408555,16.419145319448376,38.762346250278576,9.874634295249518,34.47071276342852C3.3301232710506596,30.17907927657847,-12.695806081786092,26.510821587008348,-16.13665990332075,14.171073354239525C-19.57751372485541,1.8313251214707016,-10.433292015087982,-19.179913654496822,-5.861181160204267,-29.685533042480582L-1.2890703053205523,-40.19115243046434" />
  </g>
</svg>
