<?xml version="1.0" encoding="UTF-8" standalone="no"?>
<svg
   xmlns:dc="http://purl.org/dc/elements/1.1/"
   xmlns:cc="http://creativecommons.org/ns#"
   xmlns:rdf="http://www.w3.org/1999/02/22-rdf-syntax-ns#"
   xmlns:svg="http://www.w3.org/2000/svg"
   xmlns="http://www.w3.org/2000/svg"
   version="1.1"
   id="svg2"
   height="300"
   width="300"
   preserveAspectRatio="xMidYMid"
   viewBox="0 0 300 300">
  <metadata
     id="metadata27">
    <rdf:RDF>
      <cc:Work
         rdf:about="">
        <dc:format>image/svg+xml</dc:format>
        <dc:type
           rdf:resource="http://purl.org/dc/dcmitype/StillImage" />
      </cc:Work>
    </rdf:RDF>
  </metadata>
  <defs
     id="defs25" />
  <filter
     y="-50%"
     x="-50%"
     height="500"
     width="300"
     id="nptvt">
    <feFlood
       id="feFlood5"
       result="element"
       flood-color="#b0b7c6" />
    <feTurbulence
       id="feTurbulence7"
       result="element_1"
       seed="59"
       numOctaves="8"
       type="fractalNoise"
       baseFrequency="0.02" />
    <feGaussianBlur
       id="feGaussianBlur9"
       result="element_2"
       in="SourceAlpha"
       stdDeviation="4" />
    <feDisplacementMap
       id="feDisplacementMap11"
       result="element_3"
       in2="element_1"
       in="element_2"
       scale="100" />
    <feComposite
       id="feComposite13"
       result="element_4"
       in2="element_3"
       in="element"
       operator="in" />
    <feMerge
       id="feMerge15">
      <feMergeNode
         id="feMergeNode17"
         in="element_4" />
    </feMerge>
  </filter>
  <g
     id="g19"
     transform="translate(150,150) scale(1.5)">
    <path
       id="path21"
       style="filter: url(#nptvt); stroke: rgb(176, 183, 198);"
       d="M0,0L3.4459468967172904,0.5576197532311655C6.891893793434581,1.115239506462331,13.783787586869162,2.230479012924662,15.120081771316146,1.3497362503335935C16.45637595576313,0.4689934877425246,12.237070531222518,-2.407731543901944,4.283648657522512,-5.040809580239254C-3.669773216177493,-7.673887616576565,-15.357311539036893,-10.063318657606718,-16.598804262339534,-8.527603083463578C-17.840296985642176,-6.991887509320438,-8.635744109388058,-1.5310253200040052,-5.816882788807071,0.36132964981631044C-2.998021468226085,2.253684619636626,-6.564851703318229,0.5775323699608247,-15.863663165210141,-0.7123984532239399C-25.162474627102053,-2.0023292764087044,-40.19326731579373,-2.9060386731024326,-39.6296279373936,-1.368073969143777C-39.06598855899347,0.16989073481487793,-22.90791711350152,4.149529539425917,-13.773929952057191,3.8709034381815366C-4.6399427906128645,3.592277336937156,-2.5300399132161617,-0.9446136701626422,-4.5623695723203355,-0.9697204564589212C-6.594699231424508,-0.9948272427552003,-12.769261427029559,3.49185019175204,-20.691695791267428,8.622340760709204C-28.6141301555053,13.752831329666368,-38.28443668837599,19.527135033073453,-33.3984806329523,17.637527386533854C-28.512524577528605,15.747919739994256,-9.070305933810522,6.194400743507972,6.451909805614331,3.238054825563966C21.974125545039186,0.2817089076199597,33.57633838017081,3.9225360682182306,31.939660928351465,8.446247599431208C30.302983476532116,12.969959130644188,15.427415737761802,18.376555032471874,10.947371864892311,22.884982115324505C6.467327992022822,27.39340919817713,12.382807985054157,31.0036674620547,15.01309246101733,20.653067293022346C17.643376936980502,10.302467123989992,16.988465895875514,-14.00899147795229,19.827095202372366,-16.550432611567988C22.665724508869218,-19.091873745183683,28.997894162967913,0.13670258952720538,25.576788493421848,0.5618660763407144C22.155682823875782,0.9870295631542234,8.981301830684956,-17.391219797929647,-5.472547792057935,-18.389892745978095C-19.926397414800824,-19.388565694026546,-35.65971566709578,-3.007662229039573,-28.617373915508843,6.649302620883115C-21.5750321639219,16.306267470805803,8.242969591546931,19.23929370566421,13.291423815915344,19.00525140827568C18.339878040283757,18.77120911088715,-1.3812152664482493,15.370098281251682,-9.099187810138554,6.233332433429249C-16.81716035382886,-2.9034334143931835,-12.532012134477466,-17.775854280402584,-15.386672143998997,-17.84259087026412C-18.241332153520528,-17.909327460125663,-28.235800391914985,-3.170379773839339,-26.6184486061449,-3.1416548979870482C-25.00109682037481,-3.1129300221347576,-11.77192501044017,-17.7944279567165,-5.11972595729929,-18.06816648720336C1.5324730958415889,-18.341905017690223,1.6076993921887097,-4.207884144082206,-3.593985547739043,-1.3045652154400669C-8.795670487666795,1.598753713202072,-19.274266663869422,-6.728629303121669,-18.805701940089424,0.5413308768840768C-18.337137216309433,7.8112910568898215,-6.921411592546818,30.67859443322505,-2.3909178300867735,31.67348385099638C2.139575932373271,32.66837326876771,-0.21516216646925646,11.790848727975137,0.6137356561931585,2.6494762009357014C1.4426334788555735,-6.491896326103734,5.45516722302293,-3.8971168393900304,4.410720485043848,-1.875504968990558C3.366273747064766,0.14610690140891425,-2.7351534730607554,1.5945511554941556,-1.666325391307316,5.741310690654993C-0.5974973095538765,9.88807022581583,7.641586074078524,16.733145042052264,13.06794467049626,17.40685392839258C18.494303266913995,18.0805628147329,21.10793707611706,12.582905771177101,18.565868369856457,13.863727952368954C16.023799663595845,15.14455013356081,8.32602844187156,23.203851539500313,7.2180067571490945,18.642786252403695C6.109985072426628,14.081720965307076,11.591712924705982,-3.099711014825669,6.748813005552862,-10.574670141534487C1.9059130863997442,-18.049629268243308,-13.261614604185846,-15.818115541528199,-17.724104089443713,-6.782837407461396C-22.18659357470158,2.252440726605405,-15.94404485463172,18.0914832680239,-12.822770494596792,26.01100453873315L-9.701496134561863,33.9305258094424" />
  </g>
</svg>
