<svg viewBox="0 0 300 300" preserveAspectRatio="xMidYMid" width="300" height="300"><filter id="gyqnk" width="300" height="500" x="-50%" y="-50%"><feFlood flood-color="#ffff99" result="element"></feFlood><feTurbulence baseFrequency="0.02" type="fractalNoise" numOctaves="8" seed="3" result="element_1"></feTurbulence><feGaussianBlur stdDeviation="4" in="SourceAlpha" result="element_2"></feGaussianBlur><feDisplacementMap scale="100" in="element_2" in2="element_1" result="element_3"></feDisplacementMap><feComposite operator="in" in="element" in2="element_3" result="element_4"></feComposite><feMerge><feMergeNode in="element_4"></feMergeNode></feMerge></filter><g transform="translate(150,150) scale(1.5)"><path d="M0,0L4.100851560708383,-9.308456324031251C8.201703121416767,-18.616912648062502,16.403406242833533,-37.233825296125005,18.932400577777788,-33.89648812053533C21.461394912722042,-30.559150944945664,18.31768046119379,-5.267563945703817,15.853199210694575,4.8896471822786856C13.388717960195361,15.046858310261188,11.60346991072519,10.069693566984345,11.700431637882303,15.503006581153759C11.797393365039417,20.936319595323173,13.776564868823815,36.78011036693884,10.30134751689473,33.689855193462556C6.826130164965642,30.599600019986266,-2.1034760426769292,8.575298901418021,-3.8991059905120093,-2.0144272611991814C-5.6947359383470895,-12.604153423816385,-0.35638962637467797,-11.759304630482546,0.47907438340227326,-11.61612111663765C1.3145383931792245,-11.472937602792758,-2.3528798992392845,-12.031419368436808,-0.5293486382881332,-11.486996139067088C1.2941826226630182,-10.942572909697367,8.608663436983829,-9.295244685313875,13.849337508490095,-11.321505983857458C19.090011579996357,-13.34776728240104,22.256878908688076,-19.047618103871702,21.987010671243446,-14.853634234237257C21.717142433798813,-10.659650364602815,18.010538630217827,3.428168196136733,18.410161291038833,5.286547925594003C18.809783951859842,7.144927655051273,23.315633077082843,-3.226131446773734,14.951949100060412,-6.657051176154262C6.588265123037981,-10.087970905534789,-14.644951956229878,-6.5787512624708375,-28.81683089455215,-5.663458991191815C-42.98870983287442,-4.748166719912794,-50.099250630251106,-6.426801820418701,-53.66572430268666,-5.073502945371673C-57.23219797512222,-3.7202040703246464,-57.25460452261665,0.6650287802753159,-49.22877021001788,-7.811150619653342C-41.20293589741909,-16.287330019581997,-25.128860724727094,-37.62492167003928,-18.045894163674205,-40.34267904184821C-10.962927602621319,-43.06043641365714,-12.871069653207538,-27.15835950681773,-12.342067504548266,-16.867284289344525C-11.813065355888995,-6.576209071871319,-8.84691900798423,-1.8961355437643144,-1.9554686149430092,2.7162807449645596C4.93598177809821,7.328697033693433,15.752736216275885,11.873456083044175,15.182462355914028,11.316957959831875C14.612188495552175,10.760459836619575,2.65488633665079,5.102704540844231,-5.005930055976323,4.313796074243905C-12.666746448603437,3.5248876076435804,-16.03107707495628,7.604825970218274,-8.825769102970401,0.7709238450892872C-1.6204611309845234,-6.062978280039699,16.15448543934008,-23.810720892872364,20.57482793339741,-24.055622406535317C24.995170427454738,-24.300523920198266,16.060908845244796,-7.0425843346915,14.246471564925596,-0.3230867758188037C12.432034284606395,6.396410783053892,17.737421306177932,2.5774663152925195,12.285492011319512,-5.723011904724342C6.833562716461092,-14.023490124741205,-9.375682894827284,-26.805502097013555,-15.866251439633363,-29.707446988520115C-22.35681998443944,-32.60939188002668,-19.128711462763224,-25.631269690767454,-11.310695868286512,-18.709030667805234C-3.4926802738097997,-11.786791644843017,8.915242393467407,-4.920435788177805,9.394410827837257,-10.355818367555525C9.873579262207105,-15.791200946933243,-1.5760065363304054,-33.52832196235389,1.720438068963432,-30.49385797198536C5.016882674257269,-27.459393981616834,23.059357683382455,-3.6533449854591247,26.416889676343153,12.281403681932119C29.77442166930385,28.216152349323366,18.44701064610007,36.27960068794815,12.079895086275528,40.38599879029148C5.712779526450988,44.49239689263482,4.3059594300056965,44.64174475869672,7.124951847665712,35.923599213002326C9.943944265325728,27.205453667307935,16.988749197091053,9.619814709857256,10.687523004802934,9.136155114731757C4.3862968125148125,8.652495519606262,-15.260960503826752,25.27081528680595,-9.8447144782493,27.436547376953182C-4.428468452671851,29.60227946710042,26.051280914824616,17.315423880195205,29.9568391505778,11.203483725787091C33.86239738633098,5.091543571378978,11.193764490340882,5.154518849467969,6.066759529129933,8.0063694586079C0.9397545679189845,10.858220067747833,13.354377541487187,16.498946007938706,19.56168902827129,19.31930897803414L25.76900051505539,22.13967194812958" style="filter: url(#gyqnk); stroke: rgb(255, 255, 153);"></path></g></svg>