<svg viewBox="0 0 300 300" preserveAspectRatio="xMidYMid" width="300" height="300"><filter id="hfhrl" width="300" height="500" x="-50%" y="-50%"><feFlood flood-color="#ffaacc" result="element"></feFlood><feTurbulence baseFrequency="0.02" type="fractalNoise" numOctaves="8" seed="23" result="element_1"></feTurbulence><feGaussianBlur stdDeviation="4" in="SourceAlpha" result="element_2"></feGaussianBlur><feDisplacementMap scale="100" in="element_2" in2="element_1" result="element_3"></feDisplacementMap><feComposite operator="in" in="element" in2="element_3" result="element_4"></feComposite><feMerge><feMergeNode in="element_4"></feMergeNode></feMerge></filter><g transform="translate(150,150) scale(1.5)"><path d="M0,0L2.9883800597043195,5.957695857355167C5.976760119408639,11.915391714710333,11.953520238817278,23.830783429420666,12.43519541794638,20.265948712781412C12.916870597075482,16.701113996142162,7.903460835925046,-2.3439471518466775,4.882185321160712,-8.425104584151534C1.8609098063963785,-14.506262016456391,0.831768538018147,-7.623515733077268,-4.640643515806294,-8.70542428288118C-10.113055569630736,-9.787332832685093,-20.02873840890139,-18.83389621567204,-22.995468449147637,-26.457920335007394C-25.962198489393884,-34.08194445434275,-21.979975730615728,-40.283429310026506,-15.101764227989918,-35.37570966748662C-8.223552725364108,-30.467990024946733,1.5506475211093527,-14.4510658841832,10.365787462583523,-9.557862369235346C19.18092740405769,-4.664658854287493,27.03700704053257,-10.895175965155317,25.16281673213202,-10.761497236721215C23.288626423731465,-10.62781850828711,11.684166170455487,-4.129943940551079,9.906057340940158,-2.0179664559281294C8.127948511424828,0.09401102869482036,16.176191105670146,-2.1799085697953124,17.769692712138585,-0.3188104098444433C19.363194318607025,1.5422877501064258,14.501954937298581,7.538403668498297,10.71566926145709,4.210191688556437C6.929383585615602,0.8819797086145762,4.2180516152410625,-11.770560169661016,2.4708879673721156,-15.252471760402928C0.7237243195031678,-18.73438335114484,-0.05927100586018774,-13.045666654353068,-3.6644479303522077,-0.5902068644042249C-7.269624854844228,11.865252925544619,-13.696983378464912,31.087455808650535,-13.469227644963096,32.25698947446009C-13.24147191146128,33.42652314026965,-6.358601920836963,16.543387588782853,-1.4446708476401002,10.575177729317662C3.4692602255567633,4.606967869852471,6.4142523813261745,9.553683702408888,9.27948149370241,5.8569506534622295C12.144710606078643,2.1602176045155685,14.930176675061702,-10.179964325934169,20.01722391465876,-9.02339174015581C25.10427115425582,-7.86681915437745,32.49289956446688,6.786507947629006,25.12419276725592,3.0733567543947675C17.755485970044955,-0.6397944388394716,-4.370556034588031,-22.719423927314406,-19.178727297103773,-34.24773226063077C-33.98689855961952,-45.776040593947144,-41.47719908001801,-46.75302777210495,-38.836062843907776,-47.11607239906064C-36.194926607797534,-47.479117026016326,-23.422353615178558,-47.228219101769895,-20.690195476941398,-43.6534359962481C-17.958037338704237,-40.07865289072631,-25.266294054848895,-33.17998460392915,-32.78196802032801,-22.227892810245425C-40.29764198580713,-11.275801016561708,-48.02073320062071,3.7297142840085726,-40.684051432615966,9.083849488139313C-33.34736966461122,14.437984692270055,-10.950914913788152,10.140739799961258,-2.1016692364908582,14.812796901150925C6.747576440806435,19.48485400234059,2.04961304457795,33.126213097028725,-1.8936047457038547,30.390569155122808C-5.836822535985659,27.65492521321689,-9.025294720320783,8.542278234716932,-10.751363333593405,-1.1561132313379086C-12.477431946866027,-10.854504697392748,-12.741096989076146,-11.138640651002468,-10.67237794515327,-8.701590554286298C-8.603658901230395,-6.26454045757013,-4.202555771174523,-1.1063043105280692,-2.111250613474707,-4.022021264640635C-0.019945455774891374,-6.937738218753202,-0.23843827043113125,-17.927408274020394,0.8003630919957849,-19.250415801066026C1.839164454422701,-20.57342332811166,4.135259993932773,-12.229768326935726,-1.6152164114157523,-16.733997315856644C-7.365692816764279,-21.23822630477756,-21.1627411669714,-38.59033928379532,-29.15993174551074,-41.184784288356816C-37.15712232405008,-43.779229292918316,-39.35445513092162,-31.61600632302354,-30.21061137985101,-22.9265363425742C-21.0667676287804,-14.23706636212485,-0.5817473197676293,-9.021349371120927,1.1566906614691828,-4.006780421845248C2.895128642705995,1.0077885274304297,-14.113015703833153,5.821209434977862,-23.879821856969453,8.249384051867578C-33.64662801010576,10.67755866875729,-36.17209596983922,10.720486994989287,-29.336767688762993,18.513909975596388C-22.50143940768677,26.307332956203485,-6.305314885800862,41.85125059118569,1.7927473751420921,49.623209408676786L9.890809636085047,57.3951682261679" style="filter: url(#hfhrl); stroke: rgb(255, 170, 204);"></path></g></svg>