<svg viewBox="0 0 300 300" preserveAspectRatio="xMidYMid" width="300" height="300"><filter id="ylccq" width="300" height="500" x="-50%" y="-50%"><feFlood flood-color="#c95a49" result="element"></feFlood><feTurbulence baseFrequency="0.02" type="fractalNoise" numOctaves="8" seed="10" result="element_1"></feTurbulence><feGaussianBlur stdDeviation="5" in="SourceAlpha" result="element_2"></feGaussianBlur><feDisplacementMap scale="100" in="element_2" in2="element_1" result="element_3"></feDisplacementMap><feComposite operator="in" in="element" in2="element_3" result="element_4"></feComposite><feMerge><feMergeNode in="element_4"></feMergeNode></feMerge></filter><g transform="translate(150,150) scale(1.5)"><path d="M0,0L0.07316417000942643,-7.553410505482778C0.14632834001885286,-15.106821010965556,0.29265668003770573,-30.21364202193111,0.0285574938055827,-27.039044177446595C-0.23554169242654033,-23.86444633296208,-0.9100684049096393,-2.408429633027488,2.586161560921797,4.795082407088862C6.082391526753234,11.998594447205212,13.749378170899206,4.949601827503324,10.918118068735572,-1.3736100069151918C8.086857966571937,-7.696821841333708,-5.242648881901303,-13.294252890468853,-3.1971106490955092,-16.40335043908775C-1.1515724162897154,-19.512447987706643,16.269010897795113,-20.13321203580929,17.775989194359855,-23.57588321658946C19.282967490924598,-27.018554397369627,4.876340769969258,-33.283132710827324,1.8310926672640155,-39.090221076309625C-1.214155435441227,-44.897309441791926,7.10197508010363,-50.24690785929884,3.3237613574538294,-47.5864860695238C-0.4544523651959693,-44.926064279748765,-16.327010326040423,-34.25562228269178,-13.272145516943102,-24.373070697866886C-10.21728070784578,-14.490519113041987,11.765006871193318,-5.3958579404491775,17.446035959918053,3.3975460674766134C23.127065048642784,12.190950075402403,12.506835647053148,20.683096918661175,7.0736116699834275,15.27150975946109C1.6403876929137085,9.859922600261006,1.3941691403639034,-9.455398561397931,-2.2074343769758915,-15.826238823810547C-5.8090378943156855,-22.197079086223162,-12.76602637644547,-15.623438449389457,-13.36279705794747,-10.53264549987523C-13.959567739449469,-5.441852550361001,-8.196120620323686,-1.8339072881662504,-1.7844058807051058,7.868255221902103C4.627308858913473,17.57041773197046,11.687291219024846,33.366797489912415,10.943886669050121,37.285794030637106C10.200482119075396,41.2047905713618,1.6536906590145692,33.24640389486922,2.9636901974325234,25.200261501694335C4.2736897358504775,17.154119108519453,15.440480272747212,9.020220998662268,20.72013825551712,-3.246468218795301C25.999796238287036,-15.513157436252868,25.392321666930126,-31.91263776131082,22.694298782080264,-29.615075817340053C19.996275897230404,-27.317513873369293,15.207704698887595,-6.322909660369817,15.042511576080207,-0.8407302548064717C14.87731845327282,4.641449150756873,19.335503406000857,-5.388796251115911,16.160649679435895,-6.579802756474654C12.985795952870934,-7.770809261833397,2.177903547012977,-0.1225768706780972,-0.6648117026907459,1.800620299945142C-3.5075269523944685,3.723817470568381,1.6149349540560438,-0.07802057934044049,-0.8891960212228054,-5.042498897574697C-3.3933269965016546,-10.006977215808954,-13.524050853509866,-16.134095802368645,-15.492551417029311,-7.294012665731145C-17.461051980548756,1.546070470906356,-11.267329250579436,25.35335533074105,-12.185034998608968,23.965657573038868C-13.1027407466385,22.57795981533669,-21.131874972666882,-4.004720559902363,-16.130794510180507,-13.08997139785237C-11.129714047694133,-22.175222235802377,6.901581103306999,-13.763043536463336,6.267013421662568,-8.277257930788423C5.632445740018138,-2.7914723251135065,-13.667984774271854,-0.2320798131027173,-15.579752641868495,2.6399306480430775C-17.49152050946514,5.511941109188872,-2.014625730368433,8.696569519469673,7.6654216750482504,8.676900973376323C17.345469080464934,8.65723242728297,21.228669112201594,5.433266924815468,21.488736256336704,5.741302381470961C21.748803400471814,6.049337838126454,18.38573765700538,9.889374253904942,13.41943989092889,12.427081560480858C8.453142124852404,14.964788867056772,1.8836123361658679,16.20016706443011,-0.06369047987937426,18.756823140553294C-2.0109932959246164,21.313479216676473,0.6639308606714347,25.191413171549492,-4.734870138613008,18.80758489218242C-10.133671137897451,12.423756612815346,-23.606197293062387,-4.22183390079182,-23.936734710847166,-7.027385553962769C-24.26727212863194,-9.832937207133718,-11.455820809036556,1.20155000013155,-7.002136561413671,1.2495745001908398C-2.5484523137907846,1.2975990002501288,-6.452535138140396,-9.64083920689656,-6.765593731372191,-14.316869236976379C-7.078652324603987,-18.992899267056195,-3.800686686717966,-17.406521120069144,-2.161703867774955,-16.613332046575614L-0.5227210488319444,-15.820142973082088" style="filter: url(#ylccq); stroke: rgb(201, 90, 73);"></path></g></svg>