<?xml version="1.0" encoding="UTF-8" standalone="no"?>
<svg
   xmlns:dc="http://purl.org/dc/elements/1.1/"
   xmlns:cc="http://creativecommons.org/ns#"
   xmlns:rdf="http://www.w3.org/1999/02/22-rdf-syntax-ns#"
   xmlns:svg="http://www.w3.org/2000/svg"
   xmlns="http://www.w3.org/2000/svg"
   version="1.1"
   id="svg2"
   height="300"
   width="300"
   preserveAspectRatio="xMidYMid"
   viewBox="0 0 300 300">
  <metadata
     id="metadata27">
    <rdf:RDF>
      <cc:Work
         rdf:about="">
        <dc:format>image/svg+xml</dc:format>
        <dc:type
           rdf:resource="http://purl.org/dc/dcmitype/StillImage" />
      </cc:Work>
    </rdf:RDF>
  </metadata>
  <defs
     id="defs25" />
  <filter
     y="-50%"
     x="-50%"
     height="500"
     width="300"
     id="meihf">
    <feFlood
       id="feFlood5"
       result="element"
       flood-color="#dd4492" />
    <feTurbulence
       id="feTurbulence7"
       result="element_1"
       seed="19"
       numOctaves="8"
       type="fractalNoise"
       baseFrequency="0.02" />
    <feGaussianBlur
       id="feGaussianBlur9"
       result="element_2"
       in="SourceAlpha"
       stdDeviation="4" />
    <feDisplacementMap
       id="feDisplacementMap11"
       result="element_3"
       in2="element_1"
       in="element_2"
       scale="100" />
    <feComposite
       id="feComposite13"
       result="element_4"
       in2="element_3"
       in="element"
       operator="in" />
    <feMerge
       id="feMerge15">
      <feMergeNode
         id="feMergeNode17"
         in="element_4" />
    </feMerge>
  </filter>
  <g
     id="g19"
     transform="translate(150,150) scale(1.5)">
    <path
       id="path21"
       style="filter: url(#meihf); stroke: rgb(221, 68, 146);"
       d="M0,0L3.0786351683760818,3.6612561801754304C6.1572703367521635,7.322512360350861,12.314540673504327,14.645024720701722,10.929642330463803,18.517468301330542C9.544743987423278,22.389911881959364,0.6176769645900668,22.81228668286614,-7.1548665018601465,18.636793088684563C-14.92740996831036,14.461299494502981,-21.545429878377576,5.68793750523304,-16.90631746967341,1.527252781535384C-12.267205060969244,-2.633431942162272,3.629039666506303,-2.1814394002876436,9.809180168292654,-6.503806855689246C15.989320670079003,-10.826174311090849,12.453356946176157,-19.92290176376868,4.448626579059041,-16.955089173779733C-3.556103788058074,-13.987276583790786,-16.02960079838946,1.0450760488649422,-17.70548004525123,5.23910304899887C-19.38135929211301,9.433130049132798,-10.259620775505176,2.7888314167449244,-0.8912989722289408,5.126946669731767C8.477022831047297,7.465061922718611,18.091927920991935,18.78559106108017,19.082944181302903,21.815065670949075C20.073960441613867,24.84454028081798,12.44108787229116,19.58296036219423,0.39012367837079953,7.0692800058840675C-11.660840515549559,-5.444400350426093,-28.12989633406757,-25.210181144422663,-28.621020531895148,-22.199765670404283C-29.112144729722726,-19.189350196385906,-13.625337306859874,6.597261545647424,-14.663386674084691,14.069078631943851C-15.70143604130951,21.54089571824028,-33.264342198621996,10.697918148799802,-33.200290117285235,4.317564400193387C-33.13623803594846,-2.0627893484130286,-15.445227715962437,-3.980519276185384,-6.879257028371078,-3.392707018623815C1.686713659220281,-2.8048947610622457,1.1276447144169737,0.2884596818332481,-6.01339012396256,1.245668979687488C-13.154424962342093,2.202878277541728,-26.877425694297852,1.0239424303547144,-29.377836789600018,-5.52987572166167C-31.878247884902187,-12.083693873678053,-23.15606934355077,-24.012394330523808,-16.716347427856245,-28.49982256303244C-10.276625512161724,-32.98725079554107,-6.119360222124099,-30.033406803712577,-3.5290529896927927,-18.697472426252855C-0.9387457572614866,-7.361538048793134,0.08460341756350054,12.356486714297816,1.5546484446123998,15.118098509132247C3.024693471661299,17.879710303966682,4.94143435093411,3.684909130544601,5.762546404295806,-2.462001213095383C6.583658457657502,-8.608911556735368,6.309141685108082,-6.707931070593253,4.9429967618669615,-2.723666427448181C3.576851838625841,1.2605982156968918,1.1190787646930207,7.328147015844923,-3.41624150563939,4.765861008940066C-7.9515617759718005,2.203575002035209,-14.564429242703802,-8.988545811922535,-11.362043736910348,-12.128786244583255C-8.159658231116893,-15.269026677243975,4.857980247202017,-10.357386728607668,8.29739292320734,-4.4226632332850535C11.736805599212667,1.51206026203756,5.597992472904409,8.469867304046481,-0.6857635196672942,5.74098158035424C-6.969519512238996,3.012095856661997,-13.398218371074142,-9.40348263273141,-19.003792891773863,-11.318190148848556C-24.609367412473578,-13.232897664965703,-29.391817595037868,-4.646734207806589,-21.16552913992078,-4.482335620345351C-12.939240684803684,-4.317937032884114,8.29578640799479,-12.575303315120753,17.218138505523974,-12.767280984561827C26.14049060305316,-12.959258654002904,22.750167705313054,-5.085847710648418,18.587318779860286,1.7102679697058545C14.42446985440752,8.506383650060126,9.489094901242094,14.225204067414184,-3.5802162179774886,13.904264986356216C-16.64952733719707,13.583325905298247,-37.852774622470804,7.222627325828252,-43.96268114297662,13.787496208061047C-50.07258766348244,20.352365090293844,-41.089153419220324,39.84280143422943,-33.97138776573252,44.26581512345352C-26.853622112244725,48.68882881267761,-21.60152504953124,38.04441984719021,-14.313840613120671,31.383624824816042C-7.026156176710105,24.722829802441865,2.2971156333975413,22.045648723180918,4.748984855496835,17.78539279639242C7.200854077596129,13.525136869603925,2.781320711687071,7.681806095287883,10.263281569478478,9.91787151259626C17.745242427269883,12.153936929904635,37.12869750876175,22.469398538837428,46.82042504950769,27.627129343303825L56.51215259025363,32.784860147770225" />
  </g>
</svg>
