<svg viewBox="0 0 300 300" preserveAspectRatio="xMidYMid" width="300" height="300"><filter id="ahcej" width="300" height="500" x="-50%" y="-50%"><feFlood flood-color="#bc5d58" result="element"></feFlood><feTurbulence baseFrequency="0.02" type="fractalNoise" numOctaves="8" seed="55" result="element_1"></feTurbulence><feGaussianBlur stdDeviation="4" in="SourceAlpha" result="element_2"></feGaussianBlur><feDisplacementMap scale="100" in="element_2" in2="element_1" result="element_3"></feDisplacementMap><feComposite operator="in" in="element" in2="element_3" result="element_4"></feComposite><feMerge><feMergeNode in="element_4"></feMergeNode></feMerge></filter><g transform="translate(150,150) scale(1.5)"><path d="M0,0L3.5690692285400503,0.25038221820702844C7.1381384570801005,0.5007644364140569,14.276276914160201,1.0015288728281138,16.354379041058028,-5.748131403832664C18.432481167955856,-12.497791680493442,15.450546964671407,-26.497876670229058,11.472460584821928,-20.181604691762924C7.494374204972449,-13.865332713296793,2.5201356485579387,12.767296233371084,-4.3730551173564685,20.69575930682428C-11.266245883270877,28.62422238027748,-20.07838885868518,17.848519580515998,-15.9455842460238,11.641684257591294C-11.812779633362425,5.434848934666595,5.264972567374633,3.7968810885786772,11.532740170997362,3.4556933123344207C17.80050777462009,3.1145055360901646,13.258290781128492,4.07009782968957,6.009810938998099,6.832765562333211C-1.2386689031322957,9.595433294976853,-11.193411593901484,14.165176466664732,-15.737779638869952,16.240986769640884C-20.282147683838417,18.316797072617035,-19.41614108300616,17.89867450688146,-17.98050865637623,8.888404357361274C-16.5448762297463,-0.12186579215890703,-14.539617977318699,-17.724283525463697,-6.425939347365414,-21.607929087227514C1.6877392825878683,-25.49157464899133,15.909838290066833,-15.65644803921418,11.576569087239028,-11.758067009748581C7.2432998844112255,-7.859685980282981,-15.645337528723346,-9.898050531128934,-22.007751098254804,-10.356404993606912C-28.370164667786263,-10.814759456084891,-18.20635439371461,-9.693103830194897,-12.373426423544888,-12.737225087092195C-6.540498453375166,-15.781346343989494,-5.038452787107376,-22.991244483674087,-5.451013140033426,-17.295829540066396C-5.8635734929594765,-11.600414596458705,-8.190739865079367,7.00031343044127,-7.507400923010777,13.745692099911992C-6.8240619809421865,20.491070769382713,-3.130217724685115,15.381100081424181,1.9648068724006627,13.217676649102192C7.05983146948644,11.0542532167802,13.556036407400924,11.83737704009475,15.0916990193152,13.524880220540833C16.627361631229476,15.212383400986914,13.202481917143547,17.804265938564527,10.630950469288612,21.032435990244213C8.059419021433678,24.260606041923907,6.341235839809739,28.125063607705677,7.15016602865768,23.325933688453837C7.959096217505621,18.526803769202004,11.295139776825444,5.064086364916562,17.425154483726303,-1.2996982528303511C23.55516919062716,-7.663482870577265,32.47915504510905,-6.9283347017856505,37.99552491787964,-6.480879613680779C43.51189479065023,-6.033424525575907,45.620648681709504,-5.873662518157779,41.080296575381304,-1.845249387488483C36.539944469053104,2.183163743180813,25.35048636533742,10.080227997101275,15.404508408223316,10.978482162909266C5.458530451109214,11.876736328717257,-3.243967359403313,5.776180406412775,1.49682612845542,12.137293936424843C6.237619616314153,18.498407466436912,24.421704402544144,37.32119044876553,23.29367499267649,33.710158035359214C22.165645582808835,30.099125621952908,1.7255019768435318,4.054277812811666,0.8656436909739709,-1.6037134172364982C0.005785405104409946,-7.261704647284662,18.72621243933059,7.4671607017602515,27.5997702173839,7.129525904539184C36.47332799543721,6.791891107318117,35.50001651731765,-8.612243836168933,24.968376464319952,-8.617765185176484C14.43673641132225,-8.623286534184038,-5.653232216553588,6.769805711287905,-3.866015630807924,13.647205139845884C-2.078799045062258,20.524604568403863,21.58560275430491,18.886311180047876,26.307135891548622,16.444316541905046C31.028669028792336,14.002321903762219,16.80733350391259,10.756626015832543,17.4282671587412,8.307569189513394C18.049200813569815,5.8585123631942455,33.51240364810678,4.206094598485624,35.46274307476163,-3.5763049039998545C37.4130825014165,-11.358704406485334,25.850558520189235,-25.271085646747668,13.257929606286828,-21.53484411879081C0.6653006923844238,-17.79860259083396,-12.95743315419313,3.5862617053420855,-18.634114330750588,14.514447951424295C-24.310795507308047,25.4426341975065,-22.04142401384541,25.914142393494874,-10.361111419243063,24.390334272865736C1.319201175359284,22.866526152236595,22.410454871101344,19.347401714989946,32.95608171897238,17.587839496366623L43.501708566843405,15.828277277743297" style="filter: url(#ahcej); stroke: rgb(188, 93, 88);"></path></g></svg>