<svg viewBox="0 0 300 300" preserveAspectRatio="xMidYMid" width="300" height="300"><filter id="smbgb" width="300" height="500" x="-50%" y="-50%"><feFlood flood-color="#bd8260" result="element"></feFlood><feTurbulence baseFrequency="0.02" type="fractalNoise" numOctaves="8" seed="88" result="element_1"></feTurbulence><feGaussianBlur stdDeviation="5" in="SourceAlpha" result="element_2"></feGaussianBlur><feDisplacementMap scale="100" in="element_2" in2="element_1" result="element_3"></feDisplacementMap><feComposite operator="in" in="element" in2="element_3" result="element_4"></feComposite><feMerge><feMergeNode in="element_4"></feMergeNode></feMerge></filter><g transform="translate(150,150) scale(1.5)"><path d="M0,0L6.208343146015267,-0.73327831990071C12.416686292030533,-1.46655663980142,24.833372584061067,-2.93311327960284,32.8434404007608,-3.2464837256861045C40.85350821746052,-3.559854171769369,44.456957558829444,-2.7200384241344775,45.753300519186496,-1.9231768789351786C47.04964347954355,-1.1263153337358798,46.03888005888872,-0.37240799097217325,34.041285859956304,0.11248028392088974C22.043691661023885,0.5973685588139528,-0.940733316186126,0.8132377658363723,-12.327940188295127,0.922420429209498C-23.715147060404128,1.0316030925826238,-23.50513582741211,1.0340992123064559,-19.32210843507722,4.894702162041943C-15.139081042742324,8.75530511177743,-6.9830374910645485,16.474014891524572,-8.286095179171543,16.16512598536816C-9.589152867278536,15.856237079211747,-20.3513117951703,7.519749487151777,-22.56492960533952,-3.6013444725805153C-24.77854741550874,-14.722438432312806,-18.443624107955422,-28.628138759717423,-12.014776271371042,-28.25374589288635C-5.585928434786662,-27.879353026055274,0.936843930828779,-13.22486696498851,2.829406893974223,-9.822721154775238C4.721969857119667,-6.420575344561962,1.984323417795115,-14.270769785202177,8.387733686570344,-14.338099068752328C14.791143955345573,-14.40542835230248,30.335610932220586,-6.689892478762566,39.5442780607587,-2.5699849696076025C48.75294518929681,1.5499225395473615,51.62581246949803,2.0742016843173774,44.975047618372,6.154736319794896C38.324282767245975,10.235270955272416,22.149885784792694,17.87206108145744,10.972623297231404,17.184388715233734C-0.2046391903298863,16.49671634901003,-6.384767182999191,7.484581490377599,-0.6670597359327317,3.8757465795838533C5.050647711133728,0.26691166879010764,22.66619059793595,2.061376705835047,24.56520534015521,5.896247596685006C26.46422008237447,9.731118487534966,12.64670668001077,15.606395232189945,0.3143275691770775,9.6439896382897C-12.018051541656614,3.681584044389453,-22.865296360960297,-14.11850388806602,-23.064331480715285,-11.596608371915444C-23.26336660047027,-9.074712855764869,-12.814192020676565,13.769166108991753,-6.032053455165523,13.234141554534226C0.7500851103455188,12.699117000076697,3.865187661573894,-11.21481107359498,-3.48883556781284,-18.631475136428417C-10.842858797199575,-26.048139199261858,-28.666007807201417,-16.967539251257058,-29.67867085561467,-9.240493820149883C-30.691333904027925,-1.5134483890427086,-14.893510990852585,4.860042525166839,-7.9105167128146,6.040065935782826C-0.9275224347766164,7.220089346398814,-2.759356791875988,3.2066452534212417,-1.7580294352657095,0.3318387890123864C-0.7567020786554308,-2.542967675396469,3.0777869916644978,-4.279136511236607,0.030351669251183377,-3.325639697064896C-3.017083653162131,-2.3721428828931836,-12.946443368308689,1.2710195812903784,-9.496110053322548,7.721977770342684C-6.045776738336407,14.172935959394989,10.784249606782431,23.43168987331604,7.4993083104485185,22.56879802780895C4.214367014114606,21.705906182301863,-19.18554192367206,10.721368577366638,-23.381982314174827,9.641858205953447C-27.5784227046776,8.562347834540256,-12.571394547896473,17.3878646966491,-6.307734645542746,12.742066432529674C-0.04407474318901938,8.096268168410251,-2.52378309526269,-10.020845221937439,-8.317393282976639,-13.049057798047107C-14.111003470690589,-16.077270374156775,-23.218515494044816,-4.016582136028425,-22.394991471921543,9.69431305092867C-21.571467449798266,23.405208237885763,-10.816907382197492,38.7663103736716,-4.851965415468966,45.827576291278724C1.1129765512595602,52.88884220888585,2.288300417115835,51.65027190831427,-2.2503888860330887,42.97141424578025C-6.789078189182012,34.29255658324625,-17.041780661336134,18.17341155874982,-19.504048057112957,5.732184897900982C-21.96631545288978,-6.709041762947855,-16.638147772289308,-15.472350060149099,-8.250009447423894,-18.100670827855986C0.13812887744151947,-20.728991595562867,11.58623784657187,-17.222324833775392,20.192268201849412,-9.842334305559053C28.79829855712695,-2.4623437773427153,34.56225029855168,8.790970517302487,37.44422616926405,14.417627664625087L40.326202039976415,20.04428481194769" style="filter: url(#smbgb); stroke: rgb(189, 130, 96);"></path></g></svg>