<?xml version="1.0" encoding="UTF-8" standalone="no"?>
<svg
   xmlns:dc="http://purl.org/dc/elements/1.1/"
   xmlns:cc="http://creativecommons.org/ns#"
   xmlns:rdf="http://www.w3.org/1999/02/22-rdf-syntax-ns#"
   xmlns:svg="http://www.w3.org/2000/svg"
   xmlns="http://www.w3.org/2000/svg"
   version="1.1"
   id="svg2"
   height="300"
   width="300"
   preserveAspectRatio="xMidYMid"
   viewBox="0 0 300 300">
  <metadata
     id="metadata27">
    <rdf:RDF>
      <cc:Work
         rdf:about="">
        <dc:format>image/svg+xml</dc:format>
        <dc:type
           rdf:resource="http://purl.org/dc/dcmitype/StillImage" />
      </cc:Work>
    </rdf:RDF>
  </metadata>
  <defs
     id="defs25" />
  <filter
     y="-50%"
     x="-50%"
     height="500"
     width="300"
     id="ijcok">
    <feFlood
       id="feFlood5"
       result="element"
       flood-color="#cd607e" />
    <feTurbulence
       id="feTurbulence7"
       result="element_1"
       seed="26"
       numOctaves="8"
       type="fractalNoise"
       baseFrequency="0.02" />
    <feGaussianBlur
       id="feGaussianBlur9"
       result="element_2"
       in="SourceAlpha"
       stdDeviation="5" />
    <feDisplacementMap
       id="feDisplacementMap11"
       result="element_3"
       in2="element_1"
       in="element_2"
       scale="100" />
    <feComposite
       id="feComposite13"
       result="element_4"
       in2="element_3"
       in="element"
       operator="in" />
    <feMerge
       id="feMerge15">
      <feMergeNode
         id="feMergeNode17"
         in="element_4" />
    </feMerge>
  </filter>
  <g
     id="g19"
     transform="translate(150,150) scale(1.5)">
    <path
       id="path21"
       style="filter: url(#ijcok); stroke: rgb(205, 96, 126);"
       d="M0,0L0.6499486707988704,-4.840910231516114C1.2998973415977408,-9.681820463032228,2.5997946831954817,-19.363640926064456,2.2181307055635666,-17.190353319171546C1.8364667279316513,-15.017065712278638,-0.22675856892991986,-0.9886700354605935,1.3333413374885268,9.798099489684851C2.8934412439069734,20.584869014830296,8.076866353605437,28.130012388303143,2.1690716625799995,28.356819157099473C-3.73872302844544,28.5836259258958,-20.737737520194784,21.492096090015615,-19.440437219081325,17.663910253633013C-18.143136917967873,13.835724417250416,1.4504781760083816,13.270882580365406,7.871416659358157,11.871576726686548C14.292355142707933,10.472270873007691,7.540617015431231,8.238501002534983,9.8781288080752,10.868540385953493C12.21564060071917,13.498579769372002,23.642402313283807,20.99242840668173,24.227957308912416,20.341273473693544C24.81351230454102,19.690118540705363,14.557860583233593,10.893960037419271,1.9613593338439888,3.8969294672027965C-10.635141915545615,-3.1001011030136776,-25.572492693017395,-8.298003740160535,-35.54217680452607,-10.533075216062109C-45.51186091603475,-12.768146691963683,-50.513878361580325,-12.040387006619971,-43.492597125017326,-17.070662171145912C-36.47131588845433,-22.100937335671855,-17.426735969782765,-32.88924735006745,-3.447067810288976,-33.78578618220235C10.532600349204815,-34.68232501433725,19.447356749520832,-25.687092664211455,25.680414827886906,-10.289096339137982C31.913472906252977,5.108899985935489,35.4648326626691,26.909660285956637,32.67148958259912,31.443787719826467C29.878146502529138,35.9779151536963,20.740100585973046,23.245409721414823,20.190920516115575,7.502055496715313C19.6417404462581,-8.2412987279842,27.681426223099244,-26.995501745101745,34.67779935156922,-26.948463619504082C41.67417248003919,-26.901425493906412,47.627232960137995,-8.053146225593537,41.392874977875515,-3.229655007285817C35.15851699561303,1.5938362110219018,16.736740550989254,-7.607460620675539,12.596213272671868,-5.4334036957676055C8.455685994354484,-3.259346770859673,18.59640788234349,10.290063910653632,14.018983856056039,8.76327403695534C9.441559829768584,7.236484163257044,-9.854010110795329,-9.366506265652852,-10.227427133827298,-18.462544456088438C-10.600844156859269,-27.558582646524027,7.947891737640704,-29.147668598485307,3.6609976906973287,-30.490366588515606C-0.6258963562460487,-31.833064578545905,-27.748420344632777,-32.929374606645226,-31.452115712333097,-20.219999922019486C-35.155811080033416,-7.510625237393752,-15.440677827047335,19.004434159957036,-10.649218660770474,22.850579145725916C-5.857759494493614,26.69672413149479,-15.989974414925976,7.873954705681758,-21.055468030844835,-6.471717569714172C-26.1209616467637,-20.8173898451101,-26.11973395816906,-30.68596497008893,-20.33244500899834,-29.279116302365875C-14.545156059827624,-27.872267634642828,-2.971805850080827,-15.189995174217902,-2.067891399237804,-16.05716596257343C-1.1639769483947813,-16.92433675092895,-10.929498256455533,-31.34095078806493,-15.899235997760588,-29.953028584774362C-20.86897373906564,-28.565106381483794,-21.042927913615,-11.372647937766683,-21.075540165584478,-6.909789100566668C-21.108152417553953,-2.446930263366653,-20.999422746943544,-10.713671032683735,-15.741612524442106,-18.117014441318744C-10.483802301940669,-25.520357849953758,-0.07691152754819708,-32.0603038979067,2.40408848570354,-27.965733962465027C4.885088498955277,-23.87116402702335,-0.5598022489337207,-9.142078108187057,0.9979513118331811,-5.48227058607524C2.5557048726000833,-1.822463063963422,11.116102742022886,-9.231933938576079,6.713489589006118,-11.330482895869022C2.31087643598935,-13.429031853161963,-15.054747739466986,-10.21665889313519,-17.4453252199975,-7.3342208291688396C-19.835902700528013,-4.451782765202489,-7.251433486132702,-1.8992795972965588,-0.932488670036434,-2.204518789948839C5.3864561460598335,-2.509757982601119,5.439876563857059,-5.672739535811609,3.5881896598208405,-1.8304209040622723C1.7365027557846222,2.0118977276870655,-2.0202914700850396,12.85951654439623,-3.8986885830198705,18.283325952750815L-5.7770856959547014,23.707135361105397" />
  </g>
</svg>
