<?xml version="1.0" encoding="UTF-8" standalone="no"?>
<svg
   xmlns:dc="http://purl.org/dc/elements/1.1/"
   xmlns:cc="http://creativecommons.org/ns#"
   xmlns:rdf="http://www.w3.org/1999/02/22-rdf-syntax-ns#"
   xmlns:svg="http://www.w3.org/2000/svg"
   xmlns="http://www.w3.org/2000/svg"
   version="1.1"
   id="svg2"
   height="300"
   width="300"
   preserveAspectRatio="xMidYMid"
   viewBox="0 0 300 300">
  <metadata
     id="metadata27">
    <rdf:RDF>
      <cc:Work
         rdf:about="">
        <dc:format>image/svg+xml</dc:format>
        <dc:type
           rdf:resource="http://purl.org/dc/dcmitype/StillImage" />
      </cc:Work>
    </rdf:RDF>
  </metadata>
  <defs
     id="defs25" />
  <filter
     y="-50%"
     x="-50%"
     height="500"
     width="300"
     id="wgwsw">
    <feFlood
       id="feFlood5"
       result="element"
       flood-color="#933709" />
    <feTurbulence
       id="feTurbulence7"
       result="element_1"
       seed="73"
       numOctaves="8"
       type="fractalNoise"
       baseFrequency="0.02" />
    <feGaussianBlur
       id="feGaussianBlur9"
       result="element_2"
       in="SourceAlpha"
       stdDeviation="5" />
    <feDisplacementMap
       id="feDisplacementMap11"
       result="element_3"
       in2="element_1"
       in="element_2"
       scale="100" />
    <feComposite
       id="feComposite13"
       result="element_4"
       in2="element_3"
       in="element"
       operator="in" />
    <feMerge
       id="feMerge15">
      <feMergeNode
         id="feMergeNode17"
         in="element_4" />
    </feMerge>
  </filter>
  <g
     id="g19"
     transform="translate(150,150) scale(1.5)">
    <path
       id="path21"
       style="filter: url(#wgwsw); stroke: rgb(147, 55, 9);"
       d="M0,0L0.43996471803223713,6.457561830216477C0.8799294360644743,12.915123660432954,1.7598588721289485,25.830247320865908,-0.3954785320821581,31.531887994713642C-2.5508159362932648,37.23352866856138,-7.7414201807799525,35.7216863558239,1.069009037391842,20.03817041706082C9.879438255563635,4.354654478297736,32.69090093639391,-25.500535086490945,40.71875602078364,-29.184028240078295C48.746611105173365,-32.86752139366564,41.99085859312255,-10.379318136051655,31.699009402390107,2.514104998595587C21.40716021165766,15.407528133242828,7.579214342243593,18.706171144923324,1.29299324511312,19.985503545121585C-4.993227852017353,21.264835945319838,-3.737724176864229,20.52485773403585,-5.782120928714953,16.866151269005382C-7.8265176805656775,13.207444803974914,-13.170814859420249,6.630010085197963,-21.315498979250414,10.590380437085965C-29.46018309908058,14.55075078897397,-40.40525415988635,29.04892621152693,-37.61275913269641,25.669035745365758C-34.82026410550648,22.28914527920459,-18.290202990320854,1.0311889243292907,-11.716485632480556,-2.9246955968387445C-5.142768274640257,-6.88058011800678,-8.525394674145286,6.465607194532448,-5.112822534012209,11.159420287383282C-1.7002503938791333,15.853233380234116,8.507520285892047,11.894672253396557,7.096641153846059,6.30356784153331C5.685762021800072,0.7124634296700645,-7.343766922063082,-6.5111842672188684,-15.914472812435097,-2.4248543374784157C-24.485178702807115,1.661475592262038,-28.597061539687992,17.057783148631877,-33.1464593685235,17.431567468506934C-37.695857197359004,17.805351788381987,-42.682770018149135,3.156612871762256,-37.01156357617295,-4.910802010549844C-31.340357134196754,-12.978216892861944,-15.01103142945424,-14.464307740866413,-14.588869266853706,-11.673204996910393C-14.166707104253174,-8.882102252954374,-29.65170848379462,-1.8138059170378669,-26.854099071000558,8.472762502073623C-24.05648965820649,18.759330921185114,-2.9762694530769096,32.26417142349158,-0.6011927534451829,36.03225528971978C1.7738839461865439,39.800339155947974,-14.556182859679584,33.83166638609789,-12.990118227165121,25.843299651411645C-11.424053594650658,17.854932916725392,8.038142476244394,7.846872217202981,19.57576178576561,-5.5082755001792885C31.113381095286826,-18.863423217561557,34.72642364343421,-35.56565795280368,24.120179689301214,-27.00736417958913C13.513935735168214,-18.449070406374567,-11.311594721245163,15.369751875296679,-20.330083450855806,24.294168514269906C-29.348572180466448,33.21858515324313,-22.560019183274353,17.248596149518338,-16.239970377091883,8.91275512635162C-9.919921570909416,0.5769141031849013,-4.068376955736571,-0.12477893942374263,-1.724313808003786,-0.5456831080064725C0.6197493397289996,-0.9665872765892023,-0.5436689799782726,-1.106702571146018,-5.989671011339146,7.820562889739593C-11.435673042700019,16.747828350625202,-21.164258785714495,34.74247456695324,-21.15027794805233,41.0253632101996C-21.136297110390167,47.30825185344597,-11.379749692051368,41.87938292361066,-14.977288024674875,24.90659637066962C-18.574826357298384,7.933809817728573,-35.5264504408842,-20.58289435831821,-39.50124625386609,-25.652030732159552C-43.476042066847995,-30.721167106000888,-34.47400960922597,-12.342735677636783,-26.209296042556858,-12.637251042818116C-17.94458247588775,-12.931766407999449,-10.417187800171552,-31.89922856672622,-7.14126932243965,-25.04744899068752C-3.865350844707749,-18.195669414648815,-4.840908564960142,14.47535189615536,-10.99992310084914,29.47258697001739C-17.158937636738138,44.46982204387942,-28.501408988263734,41.79327088079931,-25.623646633636973,37.30914315640004C-22.745884279010205,32.82501543200077,-5.647888218231079,26.533311146282344,-2.0263119541952186,18.18591375276485C1.5952643098406414,9.838516359247365,-8.259579222866767,-0.5645741420691905,-10.922140764698597,3.4596956922773403C-13.584702306530426,7.483965526623871,-9.054981857486677,25.935595696633488,-8.433445681451811,22.188799552413755C-7.811909505416946,18.442003408194026,-11.098557602390963,-7.503219050255051,-12.741881650877973,-20.475830279479588L-14.385205699364981,-33.44844150870413" />
  </g>
</svg>
