<?xml version="1.0" encoding="UTF-8" standalone="no"?>
<svg
   xmlns:dc="http://purl.org/dc/elements/1.1/"
   xmlns:cc="http://creativecommons.org/ns#"
   xmlns:rdf="http://www.w3.org/1999/02/22-rdf-syntax-ns#"
   xmlns:svg="http://www.w3.org/2000/svg"
   xmlns="http://www.w3.org/2000/svg"
   version="1.1"
   id="svg2"
   height="300"
   width="300"
   preserveAspectRatio="xMidYMid"
   viewBox="0 0 300 300">
  <metadata
     id="metadata27">
    <rdf:RDF>
      <cc:Work
         rdf:about="">
        <dc:format>image/svg+xml</dc:format>
        <dc:type
           rdf:resource="http://purl.org/dc/dcmitype/StillImage" />
      </cc:Work>
    </rdf:RDF>
  </metadata>
  <defs
     id="defs25" />
  <filter
     y="-50%"
     x="-50%"
     height="500"
     width="300"
     id="efmdc">
    <feFlood
       id="feFlood5"
       result="element"
       flood-color="#fefefe" />
    <feTurbulence
       id="feTurbulence7"
       result="element_1"
       seed="90"
       numOctaves="8"
       type="fractalNoise"
       baseFrequency="0.02" />
    <feGaussianBlur
       id="feGaussianBlur9"
       result="element_2"
       in="SourceAlpha"
       stdDeviation="4" />
    <feDisplacementMap
       id="feDisplacementMap11"
       result="element_3"
       in2="element_1"
       in="element_2"
       scale="100" />
    <feComposite
       id="feComposite13"
       result="element_4"
       in2="element_3"
       in="element"
       operator="in" />
    <feMerge
       id="feMerge15">
      <feMergeNode
         id="feMergeNode17"
         in="element_4" />
    </feMerge>
  </filter>
  <g
     id="g19"
     transform="translate(150,150) scale(1.5)">
    <path
       id="path21"
       style="filter: url(#efmdc); stroke: rgb(254, 254, 254);"
       d="M0,0L5.971515876207137,8.023481919765558C11.943031752414274,16.046963839531116,23.88606350482855,32.09392767906223,24.72579681537149,32.02346144804336C25.56553012591443,31.95299521702449,15.301964994586038,15.76509891545563,11.518158253973926,5.280733870374145C7.734351513361814,-5.203631174707339,10.430303163465982,-9.984464963301447,8.68810697971963,-4.624560315915577C6.945910795973277,0.7353443314702908,0.7655667783764044,16.235987414836135,3.4830436166108627,10.828374933765431C6.200520454845321,5.420762452694724,17.81581814891111,-20.89510559281253,21.280877398950153,-21.03283300791464C24.7459366489892,-21.17056042301675,20.0607574550015,4.869852792286288,12.582934706351283,15.374789263848907C5.1051119577010695,25.879725735411526,-5.165354345611659,20.849185463233724,-5.654458727010894,9.874600683680452C-6.143563108410129,-1.09998409587282,3.1486944321041292,-18.01861338280156,-0.3459108650780838,-18.177202989165224C-3.840516162260297,-18.33579259552889,-20.12198429713898,-1.7343425213274735,-22.891966520216595,4.616493734163043C-25.66194874329421,10.96732998965356,-14.920445054570756,7.067552426433177,0.6435820024564443,12.35004413931902C16.207609059483644,17.632535852204864,36.59415948481459,32.09729684119693,35.317477318932674,29.450614197585907C34.040795153050766,26.803931553974888,11.100880395955997,7.045805277760774,5.078655464816692,4.484521149555348C-0.9435694663226117,1.9232370213499212,9.95189542849355,16.558795041153182,18.06814672096754,23.840035826111194C26.184398013441534,31.121276611069206,31.521435703573356,31.048200161181967,27.991287239075287,28.695980950181696C24.461138774577226,26.343761739181424,12.063804155449269,21.712399767068124,4.0484415357702686,8.959115960143924C-3.9669210839087334,-3.7941678467802777,-7.6003117041387815,-24.66937348851538,-4.650832318636306,-30.06227354887756C-1.7013529331338297,-35.45517360923974,7.83099645810117,-25.36576808822901,3.5545588889196917,-16.19118535391449C-0.7218786802617867,-7.0166026195999684,-18.807103209859743,1.2431573280183397,-19.758212279473263,4.829906612196782C-20.709321349086782,8.416655896375225,-4.526314958715868,7.3303945171138025,4.217384049987496,-1.3886245953610672C12.961083058690859,-10.107643707835937,14.26547468572667,-26.459420553524254,10.215506039976493,-27.943090991865628C6.165537394226314,-29.426761430207005,-3.2387915243098524,-16.04232546120144,-5.482353942160111,-15.366230383459635C-7.725916360010369,-14.690135305717831,-2.808712277174718,-26.722381119239788,-0.8662723783373072,-30.417484407625608C1.0761675205001038,-34.11258769601143,0.04384323533927548,-29.470548459261124,-0.4550818611490443,-25.230062766876088C-0.9540069576373641,-20.989577074491052,-0.9195328654531753,-17.150644926471294,-3.266005052426542,-20.151158513364056C-5.612477239399909,-23.151672100256818,-10.339895705530832,-32.9916314220621,-17.987148882516173,-28.763019441980333C-25.634402059501518,-24.534407461898567,-36.20148994734128,-6.237224179929759,-29.064164472229656,3.385528938969423C-21.926838997118033,13.008282057868605,2.914899840944983,13.95660501369816,15.829405540457708,11.419013318623767C28.743911239970434,8.881421623549375,29.731183800932868,2.8579152775710366,25.175543699053293,-2.844687848356829C20.61990359717372,-8.547290974284696,10.521350832452136,-13.928990880162086,5.063641826748685,-14.961944796193617C-0.3940671789547641,-15.994898712225146,-1.2109324256400773,-12.679106638410811,-6.500857241610239,-14.616176685057447C-11.790782057580401,-16.55324673170408,-21.55376644283541,-23.74317889881168,-20.898448557889203,-22.15952456607083C-20.243130672942993,-20.57587023332998,-9.169510517795567,-10.218629400740676,-1.3803243267937213,-4.323943179975459C6.408861864208124,1.5707430407897582,10.913614091064389,3.002874649730889,4.150672401722856,-6.880315158866538C-2.612269287618677,-16.763504967463966,-20.642904893158004,-37.96201619359995,-24.60052206393432,-39.85249391075854C-28.558139234710637,-41.742971627917136,-18.442737970723936,-24.325415836098337,-13.385037338730587,-15.616637940188935L-8.327336706737238,-6.907860044279535" />
  </g>
</svg>
