<svg viewBox="0 0 300 300" preserveAspectRatio="xMidYMid" width="300" height="300"><filter id="pqead" width="300" height="500" x="-50%" y="-50%"><feFlood flood-color="#dd9475" result="element"></feFlood><feTurbulence baseFrequency="0.02" type="fractalNoise" numOctaves="8" seed="73" result="element_1"></feTurbulence><feGaussianBlur stdDeviation="5" in="SourceAlpha" result="element_2"></feGaussianBlur><feDisplacementMap scale="100" in="element_2" in2="element_1" result="element_3"></feDisplacementMap><feComposite operator="in" in="element" in2="element_3" result="element_4"></feComposite><feMerge><feMergeNode in="element_4"></feMergeNode></feMerge></filter><g transform="translate(150,150) scale(1.5)"><path d="M0,0L3.408526506958799,-0.25073581670112494C6.817053013917598,-0.5014716334022499,13.634106027835196,-1.0029432668044997,6.161465695529731,-7.598506944603066C-1.3111746367757338,-14.194070622401634,-23.073508315304263,-26.883726344596518,-23.060962665835877,-26.301818341022518C-23.048417016367495,-25.71991033744852,-1.2609920389021951,-11.86643860810564,3.2449716533431934,-12.867283768498455C7.750935345588582,-13.868128928891268,-5.024562247385939,-29.72329097901978,-17.95549680451174,-23.997223335156406C-30.886431361637538,-18.271155691293036,-43.972802882914614,9.036141646562218,-41.060062294336745,16.30212022419759C-38.14732170575886,23.56809880183296,-19.23546900732603,10.79275861924845,-9.661226400873609,6.678971041366804C-0.08698379442118276,2.5651834634851585,0.14964872005083615,7.112948490306375,-3.0216954034850994,-0.2459281069170638C-6.1930395270210346,-7.604804704140504,-12.772360288564924,-26.8703229254086,-12.538897884997981,-21.558074325157705C-12.305435481431038,-16.245825724906805,-5.259189912753262,13.644189696863087,-0.39971690711363017,23.509339600352888C4.459756098526002,33.37448950384269,7.132456541127491,23.2147738890524,7.885163727062353,16.74407630956311C8.637870912997215,10.27337873007382,7.470584842265452,7.491699185885528,-3.537696699886018,12.321808103630865C-14.545978242037489,17.151917021376203,-35.39525525560866,29.593814401055166,-40.193790867382326,32.216034367721086C-44.99232647915598,34.83825433438702,-33.74012068913212,27.640796888039898,-17.363762800696833,26.748698036878245C-0.9874049122615443,25.856599185716593,20.51310507458517,31.269858929740405,28.865333281200712,28.820211573164094C37.217561487816255,26.370564216587788,32.42150791420063,16.058009759411355,20.125465295993394,17.978743297542238C7.829422677786146,19.899476835673116,-11.96660898501272,34.05349836911131,-13.63779786302784,31.91996769953934C-15.308986741042958,29.786437029967374,1.1446671657256715,11.365354157385246,8.522407621350853,2.663628524702418C15.900148076976034,-6.03809710798041,14.201975081457768,-5.02046550076394,8.09988409741326,-3.8773755786407853C1.997793113368755,-2.734285656517631,-8.50821585920199,-1.4657374194877923,-10.881279324907531,3.3260723631824565C-13.25434279061307,8.117882145852706,-7.4944607494534035,16.432953474163366,-3.131971638038904,9.694732518518418C1.2305174733755961,2.9565115628734713,4.19561365504493,-18.83500167672708,-1.0409239943264916,-24.215098038579992C-6.277461643697913,-29.5951944004329,-19.71563312411009,-18.563873884538165,-20.667137049137832,-6.245523437584708C-21.618640974165576,6.072827009368747,-10.08347734380888,19.678207387380922,2.1801860452581714,19.97446222494968C14.443849434325223,20.270717062518433,27.43601258210263,7.25784635964377,27.84934783686402,9.331666964555914C28.2626830916254,11.405487569468061,16.097190453370764,28.565999482167015,8.093060465213537,27.491079963693902C0.08893047705631218,26.41616044522079,-3.7538368610035,7.105809495575604,2.2825190343912443,0.705471860591262C8.318874929785988,-5.69486577439308,24.234354058635287,0.8148099052834183,29.191020689485757,0.5523178345652902C34.14768732033623,0.28982576384716197,28.145541453187874,-6.744834057265593,16.599786194543633,-11.816137418488216C5.054030935899391,-16.88744077971084,-12.035333714240734,-19.995387681043333,-22.954917435895922,-16.114966398678597C-33.87450115755111,-12.234545116313864,-38.62430395072136,-1.3657556502519022,-40.61251538168668,3.19789066721573C-42.600726812651985,7.761536984683362,-41.827346881412346,6.020040153556665,-27.543220585120103,9.180500847742294C-13.25909428882785,12.340961541927923,14.535778372517015,20.403379761425878,22.24558755959854,19.469426545505684C29.955396746680066,18.535473329585482,17.580142459498255,8.605148678247133,4.33603383976798,4.021952762872276C-8.908074779962291,-0.561243152502581,-23.021037732241027,0.20268966808605676,-16.86545192779107,1.0691669868950942C-10.709866123341113,1.9356443057041317,15.714268437837532,2.904666122733569,28.926335718426852,3.3891770312482876L42.13840299901618,3.873687939763006" style="filter: url(#pqead); stroke: rgb(221, 148, 117);"></path></g></svg>