<?xml version="1.0" encoding="UTF-8" standalone="no"?>
<svg
   xmlns:dc="http://purl.org/dc/elements/1.1/"
   xmlns:cc="http://creativecommons.org/ns#"
   xmlns:rdf="http://www.w3.org/1999/02/22-rdf-syntax-ns#"
   xmlns:svg="http://www.w3.org/2000/svg"
   xmlns="http://www.w3.org/2000/svg"
   version="1.1"
   id="svg2"
   height="300"
   width="300"
   preserveAspectRatio="xMidYMid"
   viewBox="0 0 300 300">
  <metadata
     id="metadata27">
    <rdf:RDF>
      <cc:Work
         rdf:about="">
        <dc:format>image/svg+xml</dc:format>
        <dc:type
           rdf:resource="http://purl.org/dc/dcmitype/StillImage" />
      </cc:Work>
    </rdf:RDF>
  </metadata>
  <defs
     id="defs25" />
  <filter
     y="-50%"
     x="-50%"
     height="500"
     width="300"
     id="kidbm">
    <feFlood
       id="feFlood5"
       result="element"
       flood-color="#ad6f69" />
    <feTurbulence
       id="feTurbulence7"
       result="element_1"
       seed="65"
       numOctaves="8"
       type="fractalNoise"
       baseFrequency="0.02" />
    <feGaussianBlur
       id="feGaussianBlur9"
       result="element_2"
       in="SourceAlpha"
       stdDeviation="4" />
    <feDisplacementMap
       id="feDisplacementMap11"
       result="element_3"
       in2="element_1"
       in="element_2"
       scale="100" />
    <feComposite
       id="feComposite13"
       result="element_4"
       in2="element_3"
       in="element"
       operator="in" />
    <feMerge
       id="feMerge15">
      <feMergeNode
         id="feMergeNode17"
         in="element_4" />
    </feMerge>
  </filter>
  <g
     id="g19"
     transform="translate(150,150) scale(1.5)">
    <path
       id="path21"
       style="filter: url(#kidbm); stroke: rgb(173, 111, 105);"
       d="M0,0L0.4803818512351806,8.582958890869598C0.9607637024703612,17.165917781739196,1.9215274049407225,34.33183556347839,-5.5655891934435076,24.703048791745555C-13.052705791827737,15.074262020012718,-28.987702691066556,-21.349229305192154,-29.410972182488877,-27.462235458983365C-29.834241673911198,-33.575241612774576,-14.745783757517016,-9.377762595152126,-7.12234990416813,-6.511721257804927C0.5010839491807535,-3.645679920457729,0.6594937394843409,-22.111076263385783,-2.0714507641946462,-18.424641175428928C-4.802395267873633,-14.73820608747207,-10.422694065535195,11.100060431369695,-9.929179363333,18.55967015944605C-9.435664661130804,26.019279887522405,-2.828336459064852,15.10023282483335,6.257888095457031,1.8159072966263325C15.344112649978914,-11.468418231580687,26.90923355695673,-27.11802222530567,17.4772225515814,-30.190813853786985C8.045211546206069,-33.263605482268304,-22.383931371522404,-23.759584745505947,-30.992286341767652,-17.773026547219775C-39.6006413120129,-11.786468348933601,-26.388208334774916,-9.317372689123605,-25.649139340467734,-7.386149526034705C-24.91007034616056,-5.4549263629458045,-36.644365334784176,-4.061575696577999,-32.76016579258107,-8.280117471290618C-28.875966250377967,-12.498659246003236,-9.373272177348136,-22.32909346179628,-7.1855432455080805,-21.803027570465687C-4.997814313668025,-21.2769616791351,-20.125050523017745,-10.394395680680876,-25.96345971008283,-3.064037760995331C-31.801868897147923,4.266320158690214,-28.351451061928383,8.044469999607083,-27.18157634485859,7.176480252953006C-26.011701627788806,6.308490506298929,-27.12237002886877,0.7943611720739061,-30.366878283115724,-6.411188277541852C-33.61138653736268,-13.61673772715761,-38.98973464477663,-22.513707292164103,-34.551652756646504,-22.616077834709046C-30.113570868516387,-22.71844837725399,-15.859058984842198,-14.026219897337377,-15.007256221345024,-3.5196257707778855C-14.15545345784785,6.986968355781609,-26.70635981452769,19.307928128983985,-27.35579385563774,19.902792965959087C-28.005227896747783,20.497657802934185,-16.75318962228803,9.366427703682007,-16.173510235698238,7.039097356689834C-15.593830849108443,4.711767009697661,-25.68651035038861,11.188336414965494,-23.43797626434859,5.032222211443794C-21.18944217830857,-1.1238919920779065,-6.599694504948369,-19.91268980438914,0.9990131327631373,-21.711895140932302C8.597720770474643,-23.51110047747546,9.205388372537454,-8.320713338250545,13.935104181119076,-1.7623800552321833C18.664819989700696,4.79595322778618,27.51658400480113,2.7222326545979914,25.256126408860062,6.331714302846802C22.995668812918993,9.941195951095612,9.622989605936425,19.233879820781418,3.1463352331278673,22.096716911232292C-3.3303191396806895,24.959554001683166,-2.910948678315236,21.392544312899105,-0.14716660404629156,21.604275574931705C2.616615470222653,21.816006836964302,7.724809157395088,25.806479049813557,10.727760798219375,26.609956422727635C13.730712439043664,27.413433795641716,14.628422033519804,25.02991632862062,10.849252815916458,27.655085556271253C7.070083598313115,30.28025478392189,-1.3859644313697146,37.91411070624426,-3.4382593750472,33.08395975515081C-5.490554318724685,28.253808804057353,-1.1390961763968264,10.95965097954808,2.8115264322300844,9.683468998257412C6.762149040856995,8.407287016966745,10.31193611578296,23.149080878894683,10.862124817861222,26.554037055191053C11.412313519939483,29.958993231487415,8.962903849170043,22.027111722152213,5.5467993567728495,7.589383077006602C2.1306948643756547,-6.848345568139008,-2.252104449649295,-27.791921349095023,-0.8046721938257075,-32.11400748831825C0.6427600619978797,-36.436093627541474,7.920423887670004,-24.13669012503191,4.4312692742508455,-16.46396540311021C0.9421146608316864,-8.791240681188496,-13.313858391678755,-5.74519473985464,-19.058312560627915,3.3116002424888933C-24.80276672957708,12.368395224832428,-22.03570201496496,27.43593924818564,-16.741391457626385,25.902676505892398C-11.447080900287812,24.369413763599155,-3.625524500222784,6.235344255659459,0.28525369980973025,-2.831690498310389L4.196031899842245,-11.898725252280238" />
  </g>
</svg>
