<?xml version="1.0" encoding="UTF-8" standalone="no"?>
<svg
   xmlns:dc="http://purl.org/dc/elements/1.1/"
   xmlns:cc="http://creativecommons.org/ns#"
   xmlns:rdf="http://www.w3.org/1999/02/22-rdf-syntax-ns#"
   xmlns:svg="http://www.w3.org/2000/svg"
   xmlns="http://www.w3.org/2000/svg"
   version="1.1"
   id="svg2"
   height="300"
   width="300"
   preserveAspectRatio="xMidYMid"
   viewBox="0 0 300 300">
  <metadata
     id="metadata27">
    <rdf:RDF>
      <cc:Work
         rdf:about="">
        <dc:format>image/svg+xml</dc:format>
        <dc:type
           rdf:resource="http://purl.org/dc/dcmitype/StillImage" />
      </cc:Work>
    </rdf:RDF>
  </metadata>
  <defs
     id="defs25" />
  <filter
     y="-50%"
     x="-50%"
     height="500"
     width="300"
     id="rzumw">
    <feFlood
       id="feFlood5"
       result="element"
       flood-color="#9aceeb" />
    <feTurbulence
       id="feTurbulence7"
       result="element_1"
       seed="77"
       numOctaves="8"
       type="fractalNoise"
       baseFrequency="0.02" />
    <feGaussianBlur
       id="feGaussianBlur9"
       result="element_2"
       in="SourceAlpha"
       stdDeviation="5" />
    <feDisplacementMap
       id="feDisplacementMap11"
       result="element_3"
       in2="element_1"
       in="element_2"
       scale="100" />
    <feComposite
       id="feComposite13"
       result="element_4"
       in2="element_3"
       in="element"
       operator="in" />
    <feMerge
       id="feMerge15">
      <feMergeNode
         id="feMergeNode17"
         in="element_4" />
    </feMerge>
  </filter>
  <g
     id="g19"
     transform="translate(150,150) scale(1.5)">
    <path
       id="path21"
       style="filter: url(#rzumw); stroke: rgb(154, 206, 235);"
       d="M0,0L6.6642189435214165,1.16651648413902C13.328437887042833,2.33303296827804,26.656875774085666,4.66606593655608,30.2774425239162,4.313061592883352C33.89800927374673,3.9600572492106223,27.810704886364967,0.9210155935871238,21.01350544820337,0.2148673673774928C14.21630601004178,-0.49128085883213823,6.7092115211003645,1.1354643443720982,11.056027979224352,3.6637975209972344C15.402844437348339,6.19213069762237,31.60357184253773,9.622051847668406,30.52528848251914,7.885989139857134C29.447005122500553,6.149926432045863,11.089710997273983,-0.752120133622717,-3.251066649899964,0.701425909244116C-17.591844297073912,2.154971952110949,-27.916105466195233,11.964110603513195,-22.585201136681206,13.300765455758462C-17.25429680716718,14.637420308003732,3.7317730209821995,7.501591361092023,8.839510089727309,6.817704331563643C13.947247158472418,6.133817302035263,3.1766514678132562,11.901872189890211,-2.1987228212456813,19.693269639300034C-7.574097110304619,27.48466708870986,-7.554249997763334,37.29940709967456,-6.1101145774844925,34.77540590164723C-4.66597915720565,32.251404703619905,-1.7975554291892528,17.388662296600554,-8.338692366629282,9.458612764497834C-14.87982930406931,1.5285632323951144,-30.830526906965765,0.531206575209027,-28.449668733031377,-0.9007904962289212C-26.06881055909699,-2.3327875676668692,-5.356396608331762,-4.199425053356679,10.511273198878815,-4.356268841193013C26.37894300608939,-4.513112629029348,37.40186866974531,-2.9601627190122093,32.580076474711674,3.7558192979844383C27.758284279678033,10.471801314981086,7.091774225954827,22.35081543895724,-1.0211462022548106,20.585979556201377C-9.134066630464448,18.821143673445516,-4.693397433160519,3.412457783957633,-4.0356016213276265,-1.8052517932097865C-3.3778058094947347,-7.022961370377206,-6.502883383132881,-2.0496946352241623,-4.621349042063796,-3.7424957671705785C-2.739814700994714,-5.435296899116995,4.148331554781599,-13.79416589816287,3.1996204701855993,-9.819193381987208C2.2509093855895994,-5.844220865811547,-6.534659039378712,10.464593165585653,-9.041050940999465,18.693740868469543C-11.547442842620217,26.922888571353432,-7.774658220893409,27.072369945724013,3.2436331292453744,21.98916766989739C14.261924479384158,16.905965394070765,32.52572255793492,6.590079468046938,32.485967582646865,2.5832909304754645C32.446212607358824,-1.4234976070960097,14.102904578231966,0.8788112437848699,7.195594994715139,1.7011030302262378C0.28828541119831286,2.5233948166676057,4.816974273291515,1.8656695386694615,13.877897471725158,2.258253891562694C22.9388206701588,2.650838244455927,36.531978204932884,4.093732228240536,35.2037160651262,6.323315983703255C33.87545392531952,8.552899739165975,17.625772110932065,11.569173266306803,10.764090965449892,4.174624228297274C3.9024098199677146,-3.2199248097122553,6.428729343390816,-21.025296412872144,7.453067866961298,-22.174305662456035C8.477406390531781,-23.323314912039926,7.999763914249646,-7.815961808047824,3.3031445417213563,-5.557264341594188C-1.3934748308069338,-3.2985668751405512,-10.309071099581379,-14.288525046225383,-6.578361351898705,-16.729723701649714C-2.847651604216029,-19.170922357074048,13.529364159923766,-13.063361496837883,18.915425052980886,-5.554935450566168C24.301485946038007,1.9534905957055484,18.696591968012452,10.862781828012814,18.02824527983917,18.954171645639224C17.35989859166589,27.045561463265635,21.62809919334488,34.31904986621119,14.705306094576253,31.136072512383596C7.782512995807625,27.953095158556,-10.331273803408621,14.313652047955266,-14.37056160775176,12.981772447201791C-18.4098494120949,11.649892846448317,-8.374638221564933,22.625576755542102,-2.6096326923361453,22.554683312136405C3.155372836892643,22.483789868730703,4.650172704820251,11.366319072825517,5.911583841703431,13.91673409534628C7.17299497858661,16.467149117867045,8.201017384425361,32.685449958813756,4.40359134351646,34.396632555823935C0.6061653026075584,36.10781515283411,-8.016709185048995,23.311879505907743,-12.328146428877274,16.913911682444564L-16.63958367270555,10.515943858981382" />
  </g>
</svg>
