<?xml version="1.0" encoding="UTF-8" standalone="no"?>
<svg
   xmlns:dc="http://purl.org/dc/elements/1.1/"
   xmlns:cc="http://creativecommons.org/ns#"
   xmlns:rdf="http://www.w3.org/1999/02/22-rdf-syntax-ns#"
   xmlns:svg="http://www.w3.org/2000/svg"
   xmlns="http://www.w3.org/2000/svg"
   version="1.1"
   id="svg2"
   height="300"
   width="300"
   preserveAspectRatio="xMidYMid"
   viewBox="0 0 300 300">
  <metadata
     id="metadata27">
    <rdf:RDF>
      <cc:Work
         rdf:about="">
        <dc:format>image/svg+xml</dc:format>
        <dc:type
           rdf:resource="http://purl.org/dc/dcmitype/StillImage" />
      </cc:Work>
    </rdf:RDF>
  </metadata>
  <defs
     id="defs25" />
  <filter
     y="-50%"
     x="-50%"
     height="500"
     width="300"
     id="bydan">
    <feFlood
       id="feFlood5"
       result="element"
       flood-color="#2e2d88" />
    <feTurbulence
       id="feTurbulence7"
       result="element_1"
       seed="88"
       numOctaves="8"
       type="fractalNoise"
       baseFrequency="0.02" />
    <feGaussianBlur
       id="feGaussianBlur9"
       result="element_2"
       in="SourceAlpha"
       stdDeviation="4" />
    <feDisplacementMap
       id="feDisplacementMap11"
       result="element_3"
       in2="element_1"
       in="element_2"
       scale="100" />
    <feComposite
       id="feComposite13"
       result="element_4"
       in2="element_3"
       in="element"
       operator="in" />
    <feMerge
       id="feMerge15">
      <feMergeNode
         id="feMergeNode17"
         in="element_4" />
    </feMerge>
  </filter>
  <g
     id="g19"
     transform="translate(150,150) scale(1.5)">
    <path
       id="path21"
       style="filter: url(#bydan); stroke: rgb(46, 45, 136);"
       d="M0,0L3.2056589670109497,0.06381443804086548C6.411317934021899,0.12762887608173096,12.822635868043799,0.2552577521634619,14.70558467113803,3.237333789013297C16.588533474232264,6.219409825863131,13.943113146398828,12.05593302348107,12.796793052265919,15.243796749007792C11.650472958133012,18.431660474534514,12.003253097700629,18.970864727970017,5.962038560135764,22.96744556567642C-0.07917597742910054,26.964026403382825,-12.514385192126449,34.417983825360125,-15.72936318582073,31.356996792800867C-18.944341179515014,28.29600976024161,-12.939087952206227,14.720078273145798,0.6119466457768876,7.209259493411372C14.162981243760001,-0.30155928632305407,35.259797212417446,-1.7472653586960936,44.33330515340586,-0.45032330262451525C53.406813094394266,0.8466187534470628,50.45701300771365,4.886208937963259,41.69610315483031,12.593013077076021C32.93519330194697,20.299817216188785,18.363173682860907,31.673835309898113,11.624995509525464,25.887165260489446C4.8868173361900205,20.100495211080787,5.982480608605194,-2.8468629814458666,4.119127961157463,-10.20461214850327C2.2557753137097314,-17.562361315560672,-2.566593253600903,-9.33050145714882,-7.443012050946268,-0.39021854182993554C-12.319430848291633,8.55006437348895,-17.24989987567173,18.19877034571487,-17.963120977215333,17.84427689693934C-18.676342078758935,17.489783448163813,-15.172315254466048,7.132090578386831,-12.1868239577256,7.704335883384876C-9.201332660985152,8.27658118838292,-6.734376891797143,19.778764668155993,-4.951524283246138,21.61031680952078C-3.1686716746951316,23.441868950885567,-2.069922226781128,15.60278975384207,-4.098185727108156,16.832058538618348C-6.1264492274351845,18.06132732339463,-11.281725676003244,28.35894408999069,-6.950116591459764,22.277325458302037C-2.618507506916286,16.195706826613385,11.199987110738732,-6.265147203359977,15.696910729555329,-19.43736264997097C20.193834348371926,-32.60957809658196,15.3691869683501,-36.49315495983059,10.675911455800453,-25.472339245147566C5.982635943250804,-14.451523530464538,1.4207322981733306,11.473684762150135,-1.4240619260204344,20.787047834706954C-4.2688561502142,30.10041090726377,-5.396540953524256,22.80192875976274,-4.446167200739631,13.006868603810824C-3.4957934479550046,3.2118084478589113,-0.46736113907569665,-9.079829716543877,-0.9595716562307788,-9.134905317156C-1.451782173385861,-9.189980917768125,-5.464635516575333,2.991506045410417,3.115163291924807,4.721195459066976C11.694962100424949,6.450884872723535,32.8674130606147,-2.2712232631418896,34.67678728258818,-5.255927688647466C36.48616150456165,-8.240632114153044,18.93245898831885,-5.487932829298773,12.708271791579918,-3.1631118855819502C6.484084594840985,-0.8382909418651282,11.589412717605923,1.0586516607142455,13.316794885079192,9.611187541910642C15.04417705255246,18.163723423107037,13.39361326473406,33.371852582920454,12.014758289498346,34.45148752150269C10.63590331426263,35.53112246008492,9.528757151609598,22.482263177435975,8.132420846375142,7.97435922929255C6.736084541140686,-6.533544718850875,5.050558093324805,-22.500493332488773,8.594271321703008,-29.279435430160127C12.137984550081212,-36.05837752783148,20.9109374546535,-33.64931310953628,24.2776223902795,-27.101259158924204C27.6443073259055,-20.553205208312132,25.60472429258521,-9.866161725383176,12.838261324880692,-4.676294620692473C0.07179835717617777,0.51357248399823,-23.421544544912564,0.20626321045068136,-26.675871161098243,6.930592855892347C-29.930197777283922,13.654922501334012,-12.945508107566539,27.410891065764893,-3.793581581108689,21.171343177433315C5.3583449453491605,14.931795289101737,6.677508328547473,-11.303269051992297,8.727161804183762,-18.381635551007125C10.776815279820052,-25.46000205002195,13.556958847894318,-13.381670706957568,13.788536945540372,-11.48515355834735C14.020115043186424,-9.588636409737129,11.703127670404264,-17.87393345558107,10.207342028457886,-16.601548696933826C8.711556386511504,-15.32916393828658,8.036972475400901,-4.499097375148145,7.6996805198456,0.9159359064210719L7.3623885642903,6.33096918799029" />
  </g>
</svg>
