<?xml version="1.0" encoding="UTF-8" standalone="no"?>
<svg
   xmlns:dc="http://purl.org/dc/elements/1.1/"
   xmlns:cc="http://creativecommons.org/ns#"
   xmlns:rdf="http://www.w3.org/1999/02/22-rdf-syntax-ns#"
   xmlns:svg="http://www.w3.org/2000/svg"
   xmlns="http://www.w3.org/2000/svg"
   version="1.1"
   id="svg2"
   height="300"
   width="300"
   preserveAspectRatio="xMidYMid"
   viewBox="0 0 300 300">
  <metadata
     id="metadata27">
    <rdf:RDF>
      <cc:Work
         rdf:about="">
        <dc:format>image/svg+xml</dc:format>
        <dc:type
           rdf:resource="http://purl.org/dc/dcmitype/StillImage" />
      </cc:Work>
    </rdf:RDF>
  </metadata>
  <defs
     id="defs25" />
  <filter
     y="-50%"
     x="-50%"
     height="500"
     width="300"
     id="skyhp">
    <feFlood
       id="feFlood5"
       result="element"
       flood-color="#ffbcd9" />
    <feTurbulence
       id="feTurbulence7"
       result="element_1"
       seed="6"
       numOctaves="8"
       type="fractalNoise"
       baseFrequency="0.02" />
    <feGaussianBlur
       id="feGaussianBlur9"
       result="element_2"
       in="SourceAlpha"
       stdDeviation="5" />
    <feDisplacementMap
       id="feDisplacementMap11"
       result="element_3"
       in2="element_1"
       in="element_2"
       scale="100" />
    <feComposite
       id="feComposite13"
       result="element_4"
       in2="element_3"
       in="element"
       operator="in" />
    <feMerge
       id="feMerge15">
      <feMergeNode
         id="feMergeNode17"
         in="element_4" />
    </feMerge>
  </filter>
  <g
     id="g19"
     transform="translate(150,150) scale(1.5)">
    <path
       id="path21"
       style="filter: url(#skyhp); stroke: rgb(255, 188, 217);"
       d="M0,0L1.303529367577847,8.64804258196481C2.607058735155694,17.29608516392962,5.214117470311388,34.59217032785924,10.903552568674188,39.676539011408984C16.592987667036986,44.76090769495873,25.364799128606894,37.633559898128595,23.26502697266636,30.158165365625113C21.16525481672582,22.682770833121637,8.193899043274843,14.85932956494482,11.711781521853975,11.743915298417264C15.229664000433107,8.628501031889709,35.23678473104235,10.221113767011413,32.889933392885474,10.832486949467624C30.543082054728597,11.443860131923834,5.8422586478056004,11.073993761714547,-4.756502350294683,3.1180075843126946C-15.355263348394967,-4.83797859308916,-11.851961937672536,-20.38008457768358,-13.220440310857386,-23.785863929586622C-14.588918684042236,-27.191643281489664,-20.829176841134366,-18.461096000701325,-18.693243271785782,-14.207729811569296C-16.557309702437202,-9.954363622437263,-6.04518440664791,-10.178178524961538,-3.4804736628522006,-13.413653438695581C-0.9157629190564918,-16.649128352429624,-6.298466727254366,-22.89626327737344,-7.610676679166051,-26.643892917980555C-8.922886631077738,-30.391522558587674,-6.164602726703235,-31.6396469148581,-8.512925413068295,-28.72457380366094C-10.861248099433356,-25.80950069246378,-18.31617737653798,-18.731230113799032,-9.978674571542589,-5.689177319964508C-1.641171766547199,7.352875473870015,22.488763120548203,26.358710482874315,29.529422991849405,28.702033905662795C36.5700828631506,31.045357328451278,26.521467718657604,16.72616916502394,20.53128375780861,9.901883695894922C14.54109979695962,3.077598226765903,12.609347019754637,3.748215451935202,9.464836650798638,2.015475624732281C6.3203262818426404,0.2827357975293596,1.9630583211356285,-3.8533610820457813,-1.4654660722744766,-2.9339911118195476C-4.893990465684581,-2.014621141593314,-7.39377129179778,3.9602156784342943,-5.346218802377057,7.133230120492611C-3.2986663129563336,10.30624456255093,3.296219491998311,10.677436626639956,5.516990316618887,12.475437240295882C7.7377611412394645,14.273437853951808,5.584416985525973,17.498247017174634,1.2879171905179962,19.445619187173396C-3.0085826044899804,21.392991357172157,-9.448238038792443,22.06292653394685,-7.886036465751689,17.42022651889193C-6.323834892710934,12.777526503837006,3.2402236876730353,2.8221912969524645,5.609040336574201,-0.18526239009475343C7.977856985475367,-3.1927160771419714,3.1514317028937295,0.7477117556481341,7.59369025186872,0.718610944356707C12.03594880084371,0.68951013306528,25.74689118137533,-3.3091193223076796,35.43773578817156,-8.515938369072337C45.128580394967784,-13.722757415836996,50.799327228028616,-20.137766053993353,44.9228483884955,-25.05371225144887C39.04636954896239,-29.969658448904394,21.62266503683532,-33.386542205659076,10.659256999642995,-31.34039966486497C-0.3041510375493246,-29.294257124070867,-4.807262599806897,-21.78508828572798,1.2871385585866761,-12.240513392907305C7.381539716980249,-2.695938500086629,24.073453596024965,8.884042447211833,24.429603413079075,15.198643692766607C24.785753230133178,21.513244938321385,8.806138985196673,22.562466482132475,0.8889357628494154,17.064420309479125C-7.028267459497842,11.566374136825772,-6.883059659255853,-0.47893975229202024,-4.082587379264414,-7.873690885565497C-1.2821150992729757,-15.268442018838973,4.173621660467912,-18.012630396268136,-2.270056858877541,-10.318427175782226C-8.713735378222994,-2.6242239552963174,-27.056829176654787,15.50837086310466,-35.320415383947456,13.182078093385872C-43.58400159124013,10.85578532366708,-41.76808020739368,-11.92939503417148,-27.075282985435422,-25.939486252449534C-12.382485763477156,-39.94957747072759,15.18718729659292,-45.18457954944513,17.43560808281606,-46.88425594241153C19.684028869039196,-48.58393233537792,-3.388802618584606,-46.74828304259317,-13.17777817121236,-34.31719485536651C-22.966753723840114,-21.886106668139846,-19.47187334147182,1.1404204135287266,-11.15241233612322,0.39246203489199516C-2.832951330774619,-0.35549634374473627,10.311090297554289,-24.87794018268677,16.883111111718744,-37.13916210215779L23.455131925883197,-49.40038402162881" />
  </g>
</svg>
