<svg viewBox="0 0 300 300" preserveAspectRatio="xMidYMid" width="300" height="300"><filter id="etxqw" width="300" height="500" x="-50%" y="-50%"><feFlood flood-color="#58427c" result="element"></feFlood><feTurbulence baseFrequency="0.02" type="fractalNoise" numOctaves="8" seed="40" result="element_1"></feTurbulence><feGaussianBlur stdDeviation="5" in="SourceAlpha" result="element_2"></feGaussianBlur><feDisplacementMap scale="100" in="element_2" in2="element_1" result="element_3"></feDisplacementMap><feComposite operator="in" in="element" in2="element_3" result="element_4"></feComposite><feMerge><feMergeNode in="element_4"></feMergeNode></feMerge></filter><g transform="translate(150,150) scale(1.5)"><path d="M0,0L9.18299820035659,-1.6055974002117264C18.36599640071318,-3.2111948004234527,36.73199280142636,-6.4223896008469055,29.709835448563926,-15.883907175064232C22.687678095701493,-25.34542474928156,-9.722633010736555,-41.057265097292756,-17.29934958402337,-33.792041290376645C-24.876066157310188,-26.526817483460523,-7.619188197445775,3.7154704783829153,-0.7055192239481991,16.531642387596765C6.208149749549377,29.347814296810615,2.7786097366801146,24.73787015339488,1.4708096369628065,22.644099463903043C0.16300953724549883,20.55032877441121,0.9769493506801448,20.972731538843277,0.8286392127943393,13.634162057497523C0.6803290749085338,6.295592576151764,-0.43023101429772326,-8.80394915097182,-7.755365456688579,-21.991992432468273C-15.080499899079435,-35.18003571396473,-28.620208694654888,-46.456580549834044,-23.224234190440985,-42.80602879418435C-17.828259686227085,-39.15547703853466,6.503398117776175,-20.577828691365955,13.770900360533314,-9.783776154202952C21.038402603290454,1.010276382960052,11.241749284801474,4.020733110117354,11.160366391797181,6.686532298932027C11.078983498792887,9.3523314877467,20.71287103127328,11.673473138218743,23.90104957513936,17.87773735170762C27.08922811900544,24.082001565196496,23.83169767425721,34.16938834170221,19.095813061895935,31.093263871601387C14.35992844953466,28.01713940150056,8.145689669560342,11.777503684793203,5.213286657060993,13.594653417725482C2.280883644561645,15.41180315065776,2.630316399537267,35.28573833322968,-0.983002151630664,34.574437667867315C-4.596320702798595,33.86313700250495,-12.172390560110077,12.566600489208307,-9.9847837417148,5.296835570603374C-7.7971769233195225,-1.9729293480015588,4.154106570782516,4.7840773280852185,8.465261179316267,7.913079244579213C12.776415787850016,11.042081161073208,9.447441510815477,10.54307831797442,3.3597951664856422,4.883489936372639C-2.727851177844192,-0.7760984452291444,-11.57416958946932,-11.596272365333922,-14.624784794116803,-5.6886793495382815C-17.675399998764284,0.21891366625735742,-14.930311996434117,22.854273617953414,-9.909113768717921,24.626966588406503C-4.887915541001725,26.399659558859593,2.4093929121005004,7.309685548069716,-2.481413317366302,-0.6490812823241741C-7.372219546833104,-8.607848112718063,-24.451140458868935,-5.4354077627159665,-24.36991827189683,-5.239551781874827C-24.28869608492472,-5.043695801033688,-7.047330798944677,-7.824424189353507,-3.624344519160294,-14.355067404339716C-0.20135823937591102,-20.885710619325927,-10.596750965787189,-31.166268660978524,-12.128226664996927,-24.68769480438006C-13.659702364206668,-18.2091209477816,-6.3272610362148685,5.028584807067929,-5.492750540068113,10.300975570899228C-4.658240043921357,15.573366334730526,-10.321660379619646,2.8804421075435958,-8.008899714257815,3.747255158454867C-5.696139048895988,4.614068209366138,4.592802617525956,19.04061853837561,5.0741555812593635,18.1924066831159C5.5555085449927715,17.344194827856196,-3.770727193962358,1.2212207883273063,-14.605123307069679,-2.223435831673038C-25.439519420177,-5.668092451673382,-37.78207590743651,3.5655683478548186,-35.79659593153585,2.0618615434017897C-33.81111595563519,0.55815473894876,-17.497599516574354,-11.6829196694855,-9.482249947509663,-10.85876797016159C-1.4669003784449752,-10.03461627083768,-1.7497176793764306,3.8547615362444,0.7196238706123679,7.157729663484488C3.1889654206011664,10.460697790724575,8.410465821510218,3.1772562381226725,11.143740638572481,-0.42121906441897994C13.877015455634744,-4.019694366960632,14.122064688850216,-3.933203419442034,12.036447009446851,4.481594737196834C9.950829330043488,12.896392893835703,5.53454473802129,29.63949825959484,1.7496660972510827,34.93381382758031C-2.0352125435191235,40.22812939556577,-5.188685233037338,34.073655165777566,-12.935282429677162,25.82815750507246C-20.681879626316984,17.582659844367356,-33.02160133007842,7.246138752745348,-36.820001262662934,1.4498221946796865C-40.61840119524744,-4.346494363385975,-35.87547935665504,-5.602606387895291,-33.50401843735884,-6.2306624001499475L-31.13255751806264,-6.858718412404606" style="filter: url(#etxqw); stroke: rgb(88, 66, 124);"></path></g></svg>