<?xml version="1.0" encoding="UTF-8" standalone="no"?>
<svg
   xmlns:dc="http://purl.org/dc/elements/1.1/"
   xmlns:cc="http://creativecommons.org/ns#"
   xmlns:rdf="http://www.w3.org/1999/02/22-rdf-syntax-ns#"
   xmlns:svg="http://www.w3.org/2000/svg"
   xmlns="http://www.w3.org/2000/svg"
   version="1.1"
   id="svg2"
   height="300"
   width="300"
   preserveAspectRatio="xMidYMid"
   viewBox="0 0 300 300">
  <metadata
     id="metadata27">
    <rdf:RDF>
      <cc:Work
         rdf:about="">
        <dc:format>image/svg+xml</dc:format>
        <dc:type
           rdf:resource="http://purl.org/dc/dcmitype/StillImage" />
      </cc:Work>
    </rdf:RDF>
  </metadata>
  <defs
     id="defs25" />
  <filter
     y="-50%"
     x="-50%"
     height="500"
     width="300"
     id="nuifp">
    <feFlood
       id="feFlood5"
       result="element"
       flood-color="#ffff31" />
    <feTurbulence
       id="feTurbulence7"
       result="element_1"
       seed="68"
       numOctaves="8"
       type="fractalNoise"
       baseFrequency="0.02" />
    <feGaussianBlur
       id="feGaussianBlur9"
       result="element_2"
       in="SourceAlpha"
       stdDeviation="4" />
    <feDisplacementMap
       id="feDisplacementMap11"
       result="element_3"
       in2="element_1"
       in="element_2"
       scale="100" />
    <feComposite
       id="feComposite13"
       result="element_4"
       in2="element_3"
       in="element"
       operator="in" />
    <feMerge
       id="feMerge15">
      <feMergeNode
         id="feMergeNode17"
         in="element_4" />
    </feMerge>
  </filter>
  <g
     id="g19"
     transform="translate(150,150) scale(1.5)">
    <path
       id="path21"
       style="filter: url(#nuifp); stroke: rgb(255, 255, 49);"
       d="M0,0L2.4647530599106844,5.125531037130184C4.929506119821369,10.251062074260368,9.859012239642738,20.502124148520736,12.06631212367725,20.083656214070764C14.273612007711764,19.66518827962079,13.758705655959421,8.577190336460475,14.07185406419761,2.8995659680081998C14.3850024724358,-2.7780584004440776,15.526205640664525,-3.045309194188317,18.463020581438265,4.424128544812702C21.39983552221201,11.893566283813723,26.132262235530764,27.09969255556,26.811096796261307,25.891870911544704C27.489931356991846,24.68404926752941,24.11517376513417,7.062279707752539,18.07894744970302,0.38654728639692526C12.042721134271865,-6.289185134958689,3.3450260952672375,-2.0188804178930475,-5.279990691050686,-0.20759647911533133C-13.90500747736861,1.603687459662385,-22.457346010999828,0.9559506201521758,-18.477824282168587,-3.518539719128313C-14.498302553337345,-7.993030058408801,2.013079437956357,-16.29427389745957,6.641303178997772,-14.058143501718618C11.269526920039187,-11.822013105977666,4.014592410828317,0.9514915245550064,2.155334727197896,5.8741496048998885C0.29607704356747533,10.79680768524477,3.832496185517505,7.868619215401863,2.7314918821044833,2.870852290568951C1.6304875786914623,-2.1269146342639615,-4.10794017008461,-9.194260014086879,-4.349000121781893,-13.121093767452919C-4.590060073479178,-17.04792752081896,0.6662477719023268,-17.834249647728125,9.07244195127954,-16.891970538029636C17.478636130656756,-15.949691428331148,29.03471664402968,-13.278811082025005,28.20763985870854,-11.470288253917893C27.3805630733874,-9.661765425810781,14.170328989372196,-8.715600115902703,1.0190279877854316,-5.554975098166365C-12.132273013801333,-2.394350080430026,-25.22464093295966,2.9807346451345715,-24.285693602971683,12.042937926340954C-23.346746272983708,21.10514120754734,-8.37648369384943,33.85446304439551,0.8189528965918558,25.495309478174164C10.014389487033142,17.136155911952812,13.435000088781436,-12.331473057338057,8.703519244168236,-18.406533587172536C3.9720383995550366,-24.481594117007013,-8.911533891419655,-7.164086207385097,-12.445632714240025,-0.1410836023225398C-15.979731537060394,6.881919002740017,-10.16435689172644,3.6104163032432166,-12.59147717958136,3.7511476933606183C-15.018597467436283,3.89187908347802,-25.68821268848008,7.444844563209624,-25.39344932525005,8.862533096657106C-25.098685962020014,10.280221630104586,-13.839544014516154,9.562633217267944,-6.637296079093771,7.916803907033339C0.5649518563286136,6.270974596798733,3.710305779669521,3.6969043891661633,8.267623227710132,4.326935165583142C12.824940675750742,4.95696594200012,18.794221648491057,8.791097702466647,10.132386023442626,16.45830408818925C1.4705503983941988,24.12551047391186,-21.822401824442974,35.62579148489054,-19.821158945466085,36.47620341637424C-17.8199160664892,37.32661534785794,9.475521914301751,27.527158199846646,20.74525011343531,19.015775873338168C32.01497831256887,10.504393546829686,27.258996730045045,3.2810860418240146,11.715737995554381,1.955454641750392C-3.8275207389362844,0.6298232416767693,-30.158056625393787,5.201867946535195,-35.73716753652584,2.0927750685906785C-41.3162784476579,-1.016317809353838,-26.143964383464514,-11.806548270101295,-17.106222185566526,-11.483161990877921C-8.068479987668544,-11.159775711654548,-5.165309656065963,0.2772273075396585,-1.9556625463738946,4.606272960266879C1.2539845633181734,8.9353186129941,4.770108451099729,6.156406899254335,11.30128311305187,8.916396740586588C17.83245777500401,11.676386581918841,27.378683211126738,19.975277978323113,26.279348449336695,27.025627373416565C25.180013687546655,34.07597676851002,13.435118727843848,39.877784162292656,11.922982382458356,30.521568570811993C10.410846037072863,21.16535297933133,19.131468306004685,-3.3488855974126235,19.587486587318583,-11.596685393948782C20.04350486863248,-19.84448519048494,12.234919162328449,-11.8258462068133,4.830693365340901,-12.104850920917492C-2.5735324316466475,-12.383855635021682,-9.573398319317716,-20.960504046901704,-13.07333126315325,-25.248828252841715L-16.573264206988785,-29.537152458781726" />
  </g>
</svg>
