<svg viewBox="0 0 300 300" preserveAspectRatio="xMidYMid" width="300" height="300"><filter id="ybnsp" width="300" height="500" x="-50%" y="-50%"><feFlood flood-color="#4a646c" result="element"></feFlood><feTurbulence baseFrequency="0.02" type="fractalNoise" numOctaves="8" seed="87" result="element_1"></feTurbulence><feGaussianBlur stdDeviation="5" in="SourceAlpha" result="element_2"></feGaussianBlur><feDisplacementMap scale="100" in="element_2" in2="element_1" result="element_3"></feDisplacementMap><feComposite operator="in" in="element" in2="element_3" result="element_4"></feComposite><feMerge><feMergeNode in="element_4"></feMergeNode></feMerge></filter><g transform="translate(150,150) scale(1.5)"><path d="M0,0L4.341262567094747,0.6168988323598305C8.682525134189493,1.233797664719661,17.365050268378987,2.467595329439322,18.458525163865694,6.066279214183393C19.552000059352405,9.664963098927466,13.056424716136327,15.628533203695948,10.054419849516147,10.806530466593065C7.052414982895966,5.984527729490184,7.54398059287168,-9.623047849484063,12.977772789943419,-18.89518837022704C18.41156498701516,-28.167328890970015,28.787583771182923,-31.104034353481723,30.081193788578226,-27.988685755127385C31.374803805973528,-24.873337156773044,23.58600505659637,-15.70593449755266,13.9838929403468,-5.429323961028333C4.381780824097226,4.847286575495994,-7.033644659024759,16.233104989324264,-8.843627934008648,13.100494713451488C-10.653611208992539,9.967884437578714,-2.858152275838332,-7.683154527995104,7.642241497195737,-18.92590888559291C18.142635270229807,-30.168663243190714,31.34796388314374,-35.00313299281251,32.480721743633474,-24.624178925354023C33.61347960412321,-14.245224857895536,22.67366671218874,11.347153026643232,14.044723438810077,21.283097823577382C5.415780165431413,31.219042620511527,-0.9022934893914467,25.498554329841056,4.985847753311024,13.951462165453677C10.873988996013495,2.4043700010662974,28.968345136241297,-14.969326037037987,32.94158351503981,-15.847436668810577C36.91482189383832,-16.725547300583173,26.76694251120755,-1.1080725260240722,20.793918473966468,11.694084728318053C14.820894436725386,24.49624198266018,13.022725744873997,34.483081716785335,11.37169288926901,22.8457175499709C9.720660033664021,11.208353383156467,8.216763014305435,-22.053214684597553,5.8773287816905855,-31.090533978380442C3.537894549075736,-40.12785327216333,0.36292310320462207,-24.940923791975088,-1.7316152333187276,-11.419331736466926C-3.826153569842077,2.10226031904124,-4.840258797017663,13.958514949869327,-1.7263314356968342,24.615237558850037C1.3875959256239945,35.27196016783075,8.629555875441238,44.72915075496408,11.032493885122651,38.764548885583174C13.435431894804065,32.79994701620225,10.999347964349651,11.413552690307093,8.499593439886677,8.359413092056988C5.999838915423702,5.305273493806884,3.436413796952166,20.583388623201838,1.595208527722006,27.420570320842547C-0.24599674150815387,34.25775201848326,-1.3649821614969384,32.65400028436972,-1.5911787329731883,20.715093740171348C-1.8173753044494387,8.776187195972973,-1.1507830274131545,-13.497874158310237,-1.095696946761574,-13.755549913589332C-1.0406108661099935,-14.013225668868426,-1.5970309818431168,7.745484174856596,-0.6078479783978994,19.13225993409057C0.38133502504731775,30.51903569332454,2.9161211476708755,31.53387736806746,3.04022819834181,23.284255141259727C3.1643352490127445,15.034632914451993,0.8777632277310564,-2.479453213906398,2.3092901579548974,-3.0975418614847117C3.7408170881787384,-3.7156305090630255,8.890442969908108,12.562278324138738,15.598728341686789,10.296698118884867C22.30701371346547,8.031117913630997,30.57395857529346,-12.777951330078507,28.584880627059047,-12.53768216017938C26.595802678824633,-12.297412990280248,14.350701920527817,8.992194593227513,8.654146838180967,14.402450728321616C2.957591755834119,19.81270686341572,3.809582349437238,9.343611550096165,-3.7736168074605616,7.134720523857851C-11.356815964358361,4.925829497619537,-27.37520487175708,10.977142758462461,-20.115467279972677,11.076534459972361C-12.855729688188276,11.175926161482261,17.682134402779248,5.323396303659134,27.161107295954604,2.999072609281183C36.64008018912996,0.6747489149032306,25.060161884513157,1.878631383970453,11.115707514486054,0.2163123027305951C-2.828746855541052,-1.446006778509263,-19.137737290978457,-5.974527410056201,-17.472208301814806,-13.053697242819869C-15.806679312651156,-20.13286707558354,3.833369101113549,-29.762686109563937,10.761370995665091,-24.05258677531828C17.689372890216635,-18.342487441072624,11.905328265555017,2.707530261399091,12.745167681451175,9.126230997809392C13.585007097347335,15.544931734219693,21.04873055380127,7.332315504568581,24.780592282028238,3.226007389743025L28.51245401025521,-0.880300725082531" style="filter: url(#ybnsp); stroke: rgb(74, 100, 108);"></path></g></svg>