<svg viewBox="0 0 300 300" preserveAspectRatio="xMidYMid" width="300" height="300"><filter id="zmywl" width="300" height="500" x="-50%" y="-50%"><feFlood flood-color="#2b6cc4" result="element"></feFlood><feTurbulence baseFrequency="0.02" type="fractalNoise" numOctaves="8" seed="39" result="element_1"></feTurbulence><feGaussianBlur stdDeviation="5" in="SourceAlpha" result="element_2"></feGaussianBlur><feDisplacementMap scale="100" in="element_2" in2="element_1" result="element_3"></feDisplacementMap><feComposite operator="in" in="element" in2="element_3" result="element_4"></feComposite><feMerge><feMergeNode in="element_4"></feMergeNode></feMerge></filter><g transform="translate(150,150) scale(1.5)"><path d="M0,0L2.5283831829123153,-4.043867415594294C5.056766365824631,-8.087734831188587,10.113532731649261,-16.175469662377175,16.486105169940437,-21.405241735028024C22.858677608231616,-26.635013807678874,30.54705611898934,-29.006823121791985,22.956689030151736,-24.75505519266557C15.36632194131414,-20.503287263539157,-7.5027907471187785,-9.627942091173217,-14.079557521923885,-1.7582957842481788C-20.65632429672899,6.11135052267686,-10.940745157906285,10.975297964160998,-11.098207727980968,9.258804999890481C-11.255670298055653,7.5423120356199655,-21.286174577027726,-0.7546213344052042,-25.38419098489095,-9.272239949670736C-29.48220739275417,-17.789858564936267,-27.647735929508535,-26.52816242544216,-25.522581406629875,-24.81937500775744C-23.397426883751216,-23.110587590072726,-20.981589301239527,-10.954708894197395,-17.574759205495535,-3.0478964595203006C-14.16792910975155,4.858915975156793,-9.77010650077526,8.516662148635652,-5.9647690965133195,2.657751971460371C-2.1594316922513808,-3.2011582057149077,1.0534205072962073,-18.576724733544324,5.123757061335785,-15.127122802760525C9.194093615375362,-11.677520871976725,14.121914523906929,10.597249517420291,16.016003036385165,20.53280451633369C17.9100915488634,30.468359515247087,16.7704476652883,28.06469912367687,12.792109813321394,16.732514149347626C8.813771961354488,5.4003291750183795,1.9967401409957732,-14.860380382069893,-3.0943552226712687,-24.9875299438315C-8.18545058633831,-35.11467950559311,-11.55060949331368,-35.10826907202805,-8.87416730366956,-26.847889450623658C-6.197725114025443,-18.587509829219268,2.520318172238163,-2.0731610199755437,5.283088242006572,5.026932255542712C8.045858311774982,12.127025531060967,4.853355165048195,9.812863272853756,1.0819438860587343,5.805171731172228C-2.6894673929307276,1.7974801894906989,-7.039786804182864,-3.903740635665146,-4.852549891859045,-4.88026296327281C-2.6653129795352273,-5.856785290880475,6.059480256364545,-2.1086091209399584,11.117129691449009,-2.220970609507283C16.17477912653347,-2.3333320980746084,17.56528476080262,-6.306231245149775,19.970504302828672,1.6247562615898357C22.375723844854726,9.555743768329446,25.795657294637678,29.39061792888383,22.747086325197262,30.67459915668835C19.69851535575685,31.958580384492873,10.181439967093064,14.691668679547528,5.661699788864439,5.889161340263204C1.1419596106358145,-2.9133459990211206,1.6195546428423493,-3.2514489726444236,-0.12010696461737846,-4.324172370715296C-1.859768572077106,-5.396895768786168,-5.816686819203095,-7.204239591304608,-6.388680625234052,-7.277049701089919C-6.960674431265009,-7.349859810875232,-4.147743796200931,-5.688136207927416,1.1732745730923742,-1.0719372391558566C6.49429294238568,3.5442617296157017,14.323399045908214,11.114936064211003,18.48111540769815,11.179150980701817C22.63883176948809,11.243365897192632,23.12515838954543,3.80112139557896,18.58795714646731,-6.182320625237885C14.05075590338919,-16.16576264605473,4.490026797175609,-28.69040218607475,1.7816339009106217,-29.557736564834805C-0.9267589953543656,-30.42507094359486,3.2171843183292417,-19.635100161094957,10.51070231791097,-11.774075341992859C17.8042203174927,-3.9130505228907593,28.247313002972554,1.0190283328135346,28.00338407578239,0.48484290185018386C27.759455148592224,-0.04934252911316683,16.82850460873204,-6.049792246744162,12.55066495986954,-2.0787678009000583C8.272825311007038,1.8922566449440446,10.648096553142219,15.834755254263246,7.507233466143803,25.140809082429094C4.366370379145385,34.446862910594945,-4.2906270369866295,39.11647195760743,-5.4113537696238145,38.30391282043371C-6.532080502261,37.49135368325997,-0.11653655140335406,31.196626361900023,-7.843535471032576,21.9604324269042C-15.570534390661798,12.724238491908377,-37.440076180777886,0.5465779432766844,-39.680185793436614,-4.744600485008467C-41.92029540609535,-10.035778913293619,-24.530972841296723,-8.44047522123223,-9.271296632544697,-5.609018240300723C5.988379576207329,-2.777561259369218,19.11840942891276,1.290049010432405,25.683424355265473,3.323854145333216L32.24843928161819,5.357659280234028" style="filter: url(#zmywl); stroke: rgb(43, 108, 196);"></path></g></svg>