<?xml version="1.0" encoding="UTF-8" standalone="no"?>
<svg
   xmlns:dc="http://purl.org/dc/elements/1.1/"
   xmlns:cc="http://creativecommons.org/ns#"
   xmlns:rdf="http://www.w3.org/1999/02/22-rdf-syntax-ns#"
   xmlns:svg="http://www.w3.org/2000/svg"
   xmlns="http://www.w3.org/2000/svg"
   version="1.1"
   id="svg2"
   height="300"
   width="300"
   preserveAspectRatio="xMidYMid"
   viewBox="0 0 300 300">
  <metadata
     id="metadata27">
    <rdf:RDF>
      <cc:Work
         rdf:about="">
        <dc:format>image/svg+xml</dc:format>
        <dc:type
           rdf:resource="http://purl.org/dc/dcmitype/StillImage" />
      </cc:Work>
    </rdf:RDF>
  </metadata>
  <defs
     id="defs25" />
  <filter
     y="-50%"
     x="-50%"
     height="500"
     width="300"
     id="djund">
    <feFlood
       id="feFlood5"
       result="element"
       flood-color="#2243b6" />
    <feTurbulence
       id="feTurbulence7"
       result="element_1"
       seed="1"
       numOctaves="8"
       type="fractalNoise"
       baseFrequency="0.02" />
    <feGaussianBlur
       id="feGaussianBlur9"
       result="element_2"
       in="SourceAlpha"
       stdDeviation="5" />
    <feDisplacementMap
       id="feDisplacementMap11"
       result="element_3"
       in2="element_1"
       in="element_2"
       scale="100" />
    <feComposite
       id="feComposite13"
       result="element_4"
       in2="element_3"
       in="element"
       operator="in" />
    <feMerge
       id="feMerge15">
      <feMergeNode
         id="feMergeNode17"
         in="element_4" />
    </feMerge>
  </filter>
  <g
     id="g19"
     transform="translate(150,150) scale(1.5)">
    <path
       id="path21"
       style="filter: url(#djund); stroke: rgb(34, 67, 182);"
       d="M0,0L0.010604969091681413,-4.046925514290491C0.021209938183362826,-8.093851028580982,0.04241987636672565,-16.187702057161964,4.506964020046025,-23.999803379139415C8.971508163725325,-31.811904701116863,17.879386512900563,-39.342256316490776,19.55774071768256,-35.3815000871102C21.236094922464563,-31.42074385772961,15.684924982853325,-15.968879783594527,10.61084092203625,-11.289535877410902C5.536756861219171,-6.610191971227276,0.9397586791962529,-12.703368232995107,-10.297061284084469,-13.034907605752652C-21.533881247365194,-13.366446978510199,-39.41052299190372,-7.936349462257457,-32.01714625691729,-4.678338921046976C-24.623769521930857,-1.4203283798364952,8.039625692580533,-0.3344048136682741,12.538656387571647,-5.774219624984625C17.03768708256276,-11.214034436300977,-6.627646741966405,-23.179587625101902,-16.378159771910912,-30.067172548741624C-26.128672801855416,-36.95475747238135,-21.964365037215266,-38.76437413085988,-10.635807569413169,-39.600029675925235C0.6927498983889269,-40.43568522099059,19.185557069352967,-40.297379652642775,29.95857159068157,-35.129590894718994C40.73158611201017,-29.961802136795217,43.78480798370334,-19.764530189295478,27.733492784829423,-9.848585664394216C11.682177585955504,0.0673588605070492,-23.4736746834855,9.70197596280984,-31.395698026890155,11.294199405420839C-39.31772137029481,12.88642284803184,-20.005915787663124,6.436252630951049,-8.621272180868527,-2.452526210058789C2.7633714259260733,-11.341305051068627,6.220853056883586,-22.668692516007514,2.488121717092219,-23.496897510882558C-1.2446096226991488,-24.3251025057576,-12.167553933239397,-14.654125030568792,-12.055229218291487,-16.690967765212914C-11.942904503343577,-18.727810499857036,-0.795310762907512,-32.472473444334085,7.346406153621807,-27.845007507736895C15.488123070151126,-23.2175415711397,20.6239631627737,-0.2179467534682722,21.436622381538896,2.9174329444514573C22.2492816003041,6.052812642371187,18.738759945211932,-10.676022779460784,14.350639611896037,-6.554993513398827C9.962519278580146,-2.4339642473368706,4.696800267040532,22.536929706619013,1.1514631364706174,27.25873760969807C-2.3938739940992977,31.980545512777127,-4.218829243699514,16.45326736497936,-5.419864628256183,8.765156810543834C-6.620900012812851,1.077046256108309,-7.198015532325972,1.2281032950350261,-8.442629767437856,1.824371556658944C-9.68724400254974,2.420639818282862,-11.599356953260388,3.46211930260398,-14.702886340678868,3.8227843518215145C-17.80641572809735,4.183449401039049,-22.101361552223658,3.8633000151529995,-14.00350643889404,3.8648022931368726C-5.905651325564419,3.8663045711207458,14.585004725221133,4.189458512974541,10.626265213109548,2.241176248363698C6.66752570099796,0.2928939837528546,-21.740609374010766,-3.9268244873226283,-22.115749382237645,-6.024212688123743C-22.490889390464524,-8.12160088892486,5.1669656680904446,-8.096658819451608,7.5378973368399205,1.654804400551618C9.908829005589396,11.406267620554845,-13.007162715466619,30.884251991088046,-16.80129979331523,40.924596622760035C-20.595436871163844,50.96494125443203,-5.267719305805054,51.567646147242804,-0.096946539751393,46.94626238478094C5.073826226302268,42.324878622319076,0.08765419305079947,32.47940620458457,1.047317646767751,29.41037598401563C2.0069811004847025,26.341345763446686,8.912480041170074,30.048757740043307,7.764644301883105,28.18035049701048C6.616808562596136,26.311943253977653,-2.5843618566631745,18.86771679131538,-13.927007891762369,14.208210292172453C-25.26965392686156,9.548703793029524,-38.75377557780064,7.673917257405944,-39.669881189159014,5.072745933623401C-40.5859868005174,2.471574609840859,-28.93407637229507,-0.8559815021006458,-29.01256641169606,-6.0594467461103925C-29.09105645109705,-11.262911990120138,-40.899946958121355,-18.342286366198127,-42.470698759939154,-22.838166157107217C-44.04145056175695,-27.334045948016314,-35.37406365836826,-29.246431153756514,-28.360109448387217,-16.99628015127486C-21.346155238406183,-4.746129148793205,-15.985633721832812,21.666558061910305,-13.305372963546127,34.872901667262056L-10.625112205259441,48.07924527261382" />
  </g>
</svg>
