<svg viewBox="0 0 300 300" preserveAspectRatio="xMidYMid" width="300" height="300"><filter id="wbsqv" width="300" height="500" x="-50%" y="-50%"><feFlood flood-color="#c53151" result="element"></feFlood><feTurbulence baseFrequency="0.02" type="fractalNoise" numOctaves="8" seed="95" result="element_1"></feTurbulence><feGaussianBlur stdDeviation="4" in="SourceAlpha" result="element_2"></feGaussianBlur><feDisplacementMap scale="100" in="element_2" in2="element_1" result="element_3"></feDisplacementMap><feComposite operator="in" in="element" in2="element_3" result="element_4"></feComposite><feMerge><feMergeNode in="element_4"></feMergeNode></feMerge></filter><g transform="translate(150,150) scale(1.5)"><path d="M0,0L0.4165678203540263,-6.3632837446994C0.8331356407080526,-12.7265674893988,1.6662712814161051,-25.4531349787976,5.746080579646305,-25.29467244412405C9.825889877876506,-25.136209909450496,17.152372833628856,-12.092717350704596,12.212475429848205,-12.14191678158816C7.272578026067556,-12.191116212471725,-9.93369973724609,-25.333007632984753,-10.381557969234539,-23.862678848345702C-10.829416201222987,-22.392350063706647,5.481145098113766,-6.309801073915509,5.8479362499993,-3.2925951771988546C6.214727401884835,-0.2753892804822007,-9.362251593680849,-10.32352647684003,-13.221872811433174,-14.04430750488591C-17.0814940291855,-17.76508853293179,-9.223757469124468,-15.158513392665721,-9.716832474492879,-13.03140742766501C-10.20990747986129,-10.9043014626643,-19.053794050659143,-9.25666467292895,-21.815817451391244,-3.4524677724900896C-24.57784085212334,2.351729127948772,-21.25800108278969,12.312486139091146,-14.478109998526133,13.440178765235302C-7.698218914262576,14.567871391379462,2.541723484930883,6.862499632525407,3.0358472228308955,2.997565581092646C3.529970960730907,-0.8673684703401147,-5.721723962662528,-0.8918648143515803,-16.74561578950208,-8.525449950943662C-27.769507616341627,-16.15903508753574,-40.56559634662729,-31.401709016708438,-40.811522395182486,-30.817805526346323C-41.057448443737684,-30.233902035984205,-28.753211810562405,-13.823421126087279,-15.110897324530569,-8.82103313341543C-1.468582838498726,-3.8186451407435786,13.511809500389681,-10.224350065296806,11.671828267307223,-12.977728711562037C9.831847034224767,-15.731107357827272,-8.828507770828553,-14.83215972580451,-12.600683250697363,-13.947615225052871C-16.372858730566172,-13.063070724301229,-5.2568548852504735,-12.19292935482071,-9.41322242545582,-0.9177414149382379C-13.569589965661166,10.357446524944233,-32.99832889138756,32.03768103522865,-34.17617409892642,27.078196211990836C-35.35401930646528,22.11871138875301,-18.280970795816618,-9.480492768007053,-9.752257168370624,-22.675911309422723C-1.2235435409246316,-35.87132985083839,-1.239164796681312,-30.662962776909673,-7.22871101740944,-24.66209743713826C-13.218257238137568,-18.66123209736684,-25.181728423837143,-11.867868491752734,-24.873001003344214,-10.720452041085556C-24.56427358285129,-9.573035590418378,-11.98334755616586,-14.07156629469813,-9.274516201093661,-9.909276188926732C-6.565684846021464,-5.746986083155336,-13.728948162562494,7.076124832667209,-15.247708443355048,3.0110216701199928C-16.7664687241476,-1.0540814924272244,-12.640725969191676,-22.007398733344203,-9.335679637145983,-23.96751153902763C-6.030633305100292,-25.927624344711056,-3.546283395964832,-8.894532715160935,-0.91577281508168,4.385310287563382C1.714737765801472,17.665153290287698,4.491409018432316,27.191747666186206,0.5807537454762839,24.409980784394904C-3.3299015274797483,21.628213902603605,-13.927883326022657,6.538085763122496,-22.327284638877543,2.3544480480582424C-30.726685951732424,-1.8291896670060108,-36.927506778899286,4.893663042346591,-41.718578175704494,8.50253034126597C-46.509649572509716,12.11139764018535,-49.890971538953295,12.606279528671507,-40.442672946458444,10.433707837137383C-30.994374353963593,8.261136145603261,-8.716455202530316,3.421110874048857,0.18965263819090367,4.710751167006023C9.095760478912123,6.000391459963189,4.630057008921287,13.419697317431925,2.5436424020486665,15.912625552498657C0.4572277951760456,18.40555378756539,0.7501020514216405,15.972104400230116,-8.182530026807365,12.081140206525639C-17.115162105036372,8.190176012821162,-35.273300517739976,2.8416970127474803,-35.54808364375926,0.5634611822252237C-35.82286676977854,-1.714774648297033,-18.21429460911351,-0.9227673092678643,-0.5861093888015105,-5.340692513892794C17.042075831510484,-9.758617718517723,34.68987411146944,-19.38647546679675,40.79072204124623,-15.626031810971611C46.89156997102301,-11.865588155146476,41.44546755061762,5.283156904782826,32.03986782970046,13.640755238519112C22.634268108783296,21.9983535722554,9.269171087354351,21.56480517979867,2.58662257663988,21.348030983570307L-4.095925934074592,21.131256787341947" style="filter: url(#wbsqv); stroke: rgb(197, 49, 81);"></path></g></svg>