<?xml version="1.0" encoding="UTF-8" standalone="no"?>
<svg
   xmlns:dc="http://purl.org/dc/elements/1.1/"
   xmlns:cc="http://creativecommons.org/ns#"
   xmlns:rdf="http://www.w3.org/1999/02/22-rdf-syntax-ns#"
   xmlns:svg="http://www.w3.org/2000/svg"
   xmlns="http://www.w3.org/2000/svg"
   version="1.1"
   id="svg2"
   height="300"
   width="300"
   preserveAspectRatio="xMidYMid"
   viewBox="0 0 300 300">
  <metadata
     id="metadata27">
    <rdf:RDF>
      <cc:Work
         rdf:about="">
        <dc:format>image/svg+xml</dc:format>
        <dc:type
           rdf:resource="http://purl.org/dc/dcmitype/StillImage" />
      </cc:Work>
    </rdf:RDF>
  </metadata>
  <defs
     id="defs25" />
  <filter
     y="-50%"
     x="-50%"
     height="500"
     width="300"
     id="kitiu">
    <feFlood
       id="feFlood5"
       result="element"
       flood-color="#9b7653" />
    <feTurbulence
       id="feTurbulence7"
       result="element_1"
       seed="9"
       numOctaves="8"
       type="fractalNoise"
       baseFrequency="0.02" />
    <feGaussianBlur
       id="feGaussianBlur9"
       result="element_2"
       in="SourceAlpha"
       stdDeviation="4" />
    <feDisplacementMap
       id="feDisplacementMap11"
       result="element_3"
       in2="element_1"
       in="element_2"
       scale="100" />
    <feComposite
       id="feComposite13"
       result="element_4"
       in2="element_3"
       in="element"
       operator="in" />
    <feMerge
       id="feMerge15">
      <feMergeNode
         id="feMergeNode17"
         in="element_4" />
    </feMerge>
  </filter>
  <g
     id="g19"
     transform="translate(150,150) scale(1.5)">
    <path
       id="path21"
       style="filter: url(#kitiu); stroke: rgb(155, 118, 83);"
       d="M0,0L1.9701753714369064,0.01170961277081044C3.9403507428738127,0.02341922554162088,7.880701485747625,0.04683845108324176,10.225037982535238,-1.0756140541217705C12.56937447932285,-2.198066559326783,13.317696730024263,-4.4663907952784285,7.035701032918624,-7.612933975625371C0.7537053358129828,-10.759477155972315,-12.55860830909971,-14.784239280714555,-15.799711639677316,-13.635648407779644C-19.04081497025492,-12.48705753484473,-12.21070798649744,-6.165113664232665,-3.017289481180284,-2.9715355665353003C6.1761290241368725,0.22204253116206432,17.732859051013705,0.2872548559447281,23.76479373465787,3.757788824191323C29.796728418302038,7.228322792437917,30.30386775871354,14.104178404148444,24.677085367280363,7.7862270015542485C19.050302975847185,1.468275598960055,7.289598852569329,-18.04348281793886,2.381313219160165,-21.954367309458497C-2.526972414248998,-25.865251800978132,-0.5828395577894675,-14.175262367118492,6.934644287467922,-7.9044912721762435C14.452128132725312,-1.6337201772339938,27.54296296678056,-0.7821674212091345,27.949805078676004,2.5504015206543773C28.356647190571447,5.882970462517889,16.079496580307087,11.696555590220054,7.073202408314681,10.319269517482763C-1.9330917636777243,8.941983444745471,-7.6685294973981755,0.3738261715687212,-10.129937227017825,-5.014272856201387C-12.591344956637473,-10.402371883971496,-11.778722682156321,-12.610412666334962,-1.8659415885800357,-10.60206815120383C8.04683950499625,-8.5937236360727,27.059779417667663,-2.368993823446968,26.83374155763617,8.359268082185295C26.607703697604677,19.08752998781756,7.142688064870271,34.319323986456354,-1.602861135474948,41.73722383819171C-10.348410335820166,49.15512368992706,-8.3744931037762,48.759129394758965,-5.101253363492205,45.062572604239094C-1.8280136232082116,41.366015813719216,2.744548625315809,34.36889652784757,13.05264266022024,27.054828428793968C23.36073669512467,19.74076032974037,39.40436251640951,12.10974341750483,36.5310651750724,7.063556216566991C33.657767833735285,2.0173690156291504,11.867547329776224,-0.4439884740109905,0.32495093425041244,6.089107726988903C-11.2176454612754,12.622203927988798,-12.512617748367958,28.149753819628724,-10.064494098820951,23.657209760431094C-7.616370449273943,19.164665701233467,-1.4251508630873668,-5.347972308801721,7.3937450175452355,-5.678338627148767C16.21264089817784,-6.008704945495811,27.659213073256463,17.843200427845286,29.79307692420633,19.020015788194154C31.926940775156186,20.196831148543026,24.748096301977284,-1.3014435041003303,18.992168853299926,-4.832387698926944C13.236241404622572,-8.363331893753557,8.903230980446766,6.073054369236575,5.522227057695882,9.816637760507632C2.1412231349449957,13.560221151778691,-0.28777428638096847,6.611001671330677,2.230314332695899,3.169701836155048C4.748402951772768,-0.27159799902058085,12.213577611252468,-0.20497818892382458,16.956035747802872,5.779603412825752C21.69849388435328,11.764185014575329,23.71823549797439,23.666728407977725,17.90468526584004,25.118944113878676C12.091135033705685,26.571159819779623,-1.5557070441841336,17.573047838179125,-9.334286521183635,14.848403544860165C-17.11286599818314,12.123759251541205,-19.023182874292324,15.672582646503784,-17.88320490247144,20.571473375145253C-16.743226930650565,25.47036410378672,-12.552954110899622,31.719322166107084,-7.577464672608791,28.362336069452446C-2.6019752343179627,25.00534997279781,3.1587308225127533,12.04241971716817,5.9479908685642915,0.3578202499944858C8.73725091461583,-11.3267792171792,8.555064949888191,-21.73304789589693,9.69816792266112,-16.708556720728026C10.84127089543405,-11.68406554555912,13.309662805707546,8.771185483496424,9.976575166585022,10.036820357703299C6.643487527462497,11.302455231910173,-2.491079661056051,-6.6215260487316225,-5.1254056666934735,-12.439295849819064C-7.759731672330896,-18.257065650906505,-3.893816495087193,-11.968623972439595,-5.694687404350824,-6.9345549847056915C-7.495558313614455,-1.9004859969717893,-14.96321530938542,1.879210300029103,-18.6970438072709,3.769058448529549L-22.430872305156385,5.658906597029995" />
  </g>
</svg>
