<svg viewBox="0 0 300 300" preserveAspectRatio="xMidYMid" width="300" height="300"><filter id="cimfm" width="300" height="500" x="-50%" y="-50%"><feFlood flood-color="#6e5160" result="element"></feFlood><feTurbulence baseFrequency="0.02" type="fractalNoise" numOctaves="8" seed="51" result="element_1"></feTurbulence><feGaussianBlur stdDeviation="4" in="SourceAlpha" result="element_2"></feGaussianBlur><feDisplacementMap scale="100" in="element_2" in2="element_1" result="element_3"></feDisplacementMap><feComposite operator="in" in="element" in2="element_3" result="element_4"></feComposite><feMerge><feMergeNode in="element_4"></feMergeNode></feMerge></filter><g transform="translate(150,150) scale(1.5)"><path d="M0,0L4.313701104002627,5.419942370960492C8.627402208005254,10.839884741920985,17.254804416010508,21.67976948384197,21.60840063627509,16.896132357516276C25.96199685653967,12.112495231190582,26.04178708906358,-8.29466376338179,19.98182779914572,-9.716046176828781C13.921868509227863,-11.137428590275771,1.7221596968682382,6.426965577402621,-4.902797830179358,3.677361617265067C-11.527755357226953,0.927757657127513,-12.577961598962519,-22.135844430825987,-7.102949570021289,-31.446158078172363C-1.6279375410800583,-40.75647172551874,10.37229275853797,-36.313496932258005,14.39711900482736,-30.022889435792884C18.421945251116753,-23.73228193932776,14.471367444077506,-15.59404173965826,7.898387699937361,-11.259922051846468C1.3254079557972167,-6.9258023640346735,-7.869973725443828,-6.395803188080587,-8.823993820596465,-1.9939649312109977C-9.778013915749103,2.407873325658592,-2.490672424813335,10.681550663443684,1.9047950192903769,12.567817033297372C6.300262463394089,14.45408340315106,7.803855860665744,9.952938805073346,7.125657593263719,8.036409835093108C6.447459325861693,6.11988086511287,3.587469393785985,6.787967523230108,-0.526366442488782,8.153942168027308C-4.640202278763549,9.519916812824508,-10.007884019237375,11.583779444301669,-16.531356953771077,17.54951993592231C-23.05482988830478,23.515260427542948,-30.734094016898354,33.38287877930706,-34.266401033644996,29.58302361404098C-37.79870805039164,25.783168448774894,-37.184057955291344,8.315839766478604,-23.396178860159228,6.223499333634183C-9.608299765027116,4.131158900789762,17.352808330136817,17.413806717397208,25.404855814275386,16.378813000723753C33.456903298413955,15.343819284050294,22.599890171527164,-0.008815965904069856,15.22413960979516,-9.63361041301567C7.848389048063154,-19.25840486012727,3.953901051485932,-23.155358504396105,-0.009624937089876884,-15.970931212123302C-3.973150925665686,-8.7865039198505,-8.005714906240081,9.479304308963943,-10.795002983738113,12.590632000267014C-13.584291061236144,15.701959691570087,-15.130303235657811,3.658806845361787,-10.806214777129036,-3.2266135163289866C-6.48212631860026,-10.11203387801976,3.7120627728789577,-11.839721755193008,-1.0862402281561758,-10.911944657850013C-5.88454322919131,-9.984167560507014,-25.675338322740796,-6.400925488647774,-19.96021767907836,-4.916528710728503C-14.245097035415927,-3.4321319328092317,16.97593934545843,-4.04658044882993,27.671752448215248,-2.6854704325948755C38.36756555097207,-1.3243604163598208,28.538155375611353,2.0123081321309866,16.592277175047148,1.1130995048954604C4.646398974482945,0.21389087765993464,-9.41594725128475,-4.921194925301925,-14.650798424173491,-8.751894141791112C-19.88564959706223,-12.5825933582803,-16.293005717072013,-15.108905988296817,-12.380940433966739,-16.02180461532765C-8.468875150861464,-16.934703242358484,-4.237388464641132,-16.234187866403634,-1.7446334005637611,-16.24517183217807C0.7481216635136089,-16.25615579795251,1.502145105448016,-16.97863910545623,-4.685141954635804,-11.772386166391254C-10.872429014719623,-6.566133227326281,-24.00102657682167,4.56885595830739,-33.43089121309026,2.0305920922523066C-42.86075584935885,-0.5076717738027767,-48.591887559793996,-16.719188691546613,-47.58130334305539,-19.512229657754382C-46.57071912631679,-22.30527062396215,-38.81841898240444,-11.67983563863385,-24.036805080804406,-11.062970154805376C-9.255191179204378,-10.446104670976903,12.555736480083329,-19.837808688648256,23.727568943002044,-25.855134613769117C34.899401405920756,-31.87246053888998,35.43213867247047,-34.51540837146035,31.69844564271867,-28.48877364844804C27.96475261296687,-22.46213892543572,19.964629286913542,-7.765921646840713,18.761880977182642,0.19383252231431136C17.559132667451742,8.153586691469336,23.15375937404327,9.376877751184377,25.404042978931052,15.540808119236573C27.65432658381884,21.704738487288765,26.560267087002885,32.80930816367811,25.6449731287307,33.142596633312834C24.729679170458514,33.47588510294755,23.993150750730102,23.037892365827638,23.624886540865894,17.818895997267678L23.256622331001687,12.599899628707723" style="filter: url(#cimfm); stroke: rgb(110, 81, 96);"></path></g></svg>