<svg viewBox="0 0 300 300" preserveAspectRatio="xMidYMid" width="300" height="300"><filter id="szmtg" width="300" height="500" x="-50%" y="-50%"><feFlood flood-color="#ceff1d" result="element"></feFlood><feTurbulence baseFrequency="0.02" type="fractalNoise" numOctaves="8" seed="15" result="element_1"></feTurbulence><feGaussianBlur stdDeviation="4" in="SourceAlpha" result="element_2"></feGaussianBlur><feDisplacementMap scale="100" in="element_2" in2="element_1" result="element_3"></feDisplacementMap><feComposite operator="in" in="element" in2="element_3" result="element_4"></feComposite><feMerge><feMergeNode in="element_4"></feMergeNode></feMerge></filter><g transform="translate(150,150) scale(1.5)"><path d="M0,0L1.517765187066659,1.103619762536296C3.035530374133318,2.207239525072592,6.071060748266636,4.414479050145184,4.9392694881219805,7.744183096520398C3.8074782279773243,11.073887142895614,-1.491634666445306,15.526055710573452,-2.6873726050910824,19.043549313721844C-3.8831105437368585,22.56104291687024,-0.9754735266057808,25.143861555489188,-3.868080934416879,23.793741452141553C-6.7606883422279775,22.44362134879392,-15.453540174981253,17.160562503479696,-15.58306963608255,12.174231704605976C-15.71259909718385,7.1879009057322545,-7.2788061866331715,2.498298153299035,-4.022705602469363,-2.327634776786063C-0.7666050183055537,-7.15356770687116,-2.6881967605286134,-12.115830814608135,-2.824180081340669,-11.302547393835459C-2.9601634021527246,-10.489263973062782,-1.3105383015537757,-3.900434023780455,-2.7216772241121676,-1.0526858293366739C-4.132816146670559,1.7950623651071074,-8.604719092386292,0.9017288047123426,-6.632461074148048,3.3089814992342346C-4.660203055909806,5.716234193756127,3.7562159262824117,11.424073143194676,5.82707514067209,9.637226246095441C7.897934355061769,7.850379348996206,3.623233801648908,-1.4311533946408126,9.498507983470374,-6.676842852460547C15.37378216529184,-11.922532310280284,31.39903108234763,-13.132378482282736,33.45562767153694,-19.674338733278848C35.51222426072624,-26.216298984274957,23.600168522049056,-38.09037331426473,5.926653537717121,-35.895556138673875C-11.746861446614815,-33.700738963083026,-35.1818356766015,-17.437030281911557,-43.71717181438758,-7.7045266611412595C-52.25250795217366,2.0279769596290365,-45.88820599775913,5.229275519998158,-35.563065624644,6.062413135383019C-25.237925251528857,6.89555075076788,-10.951946459713106,5.360527421168483,-5.178703319181372,11.83530357574525C0.5945398213503625,18.31007973032202,-2.1449526894019186,32.79465536907496,-2.2073585283957753,37.30282333339411C-2.269764367389632,41.81099129771326,0.34491646537493637,36.34275158759862,-0.28023010221837086,24.966326616477467C-0.9053766698116781,13.589901645356312,-4.770350637762861,-3.6947085867713625,-3.852845132652351,-9.693043552214844C-2.9353396275418424,-15.691378517658325,2.7646453506303583,-10.403438216417614,-3.838552482760763,-4.375260811955456C-10.441750316151884,1.652916592506704,-29.348130961106328,8.421331100190312,-28.11824723334987,5.0364935175517855C-26.888363505593414,1.6516559349132596,-5.522215405126056,-11.8864337380474,10.493327579970469,-12.369867091673463C26.508870565066992,-12.853300445299526,37.17380843479269,-0.2820774795909937,29.769883996845685,7.975429624882261C22.365959558898684,16.232936729355515,-3.106827186721013,20.17672797259349,-2.2726299411075885,19.730450351944533C-1.4384326954941642,19.284172731295577,25.70274854135238,14.447826246759682,29.00703238417056,14.56931293985213C32.311316226988744,14.690799632944579,11.77870267577856,19.77011950366537,5.05135551009959,17.95910574887688C-1.675991655579379,16.14809199408839,5.401927564272866,7.446744613790621,6.859764374107072,-3.8532588083160952C8.317601183941276,-15.153262230422811,4.15535558375744,-29.051921694338475,1.1230454374460175,-34.205588661506745C-1.9092647088654056,-39.35925562867501,-3.811639401304416,-35.76793009909588,-5.151608361934722,-32.10160634431751C-6.4915773225650275,-28.435282589539142,-7.269140551386629,-24.693960609561532,-9.502660794411154,-14.04596926236284C-11.73618103743568,-3.3979779151641463,-15.425658294663128,14.15668279925563,-18.321366367831477,11.307837276546115C-21.217074440999827,8.458991753836603,-23.319013330109076,-14.7933600060022,-20.16118331206882,-14.431111834912192C-17.003353294028567,-14.068863663822189,-8.585754368838806,9.907984438196625,-4.783242021348855,16.904310798847686C-0.9807296738589037,23.900637159498743,-1.7933039040687613,13.916441778782048,-2.9253663911159586,8.135057083487276C-4.057428878163156,2.353672388192504,-5.508979622047693,0.7750983783196557,1.318995709759763,-7.792156796550938C8.14697104156722,-16.359411971421533,23.254472449066668,-31.915348311289872,30.808223152816392,-39.69331648122404L38.36197385656612,-47.471284651158214" style="filter: url(#szmtg); stroke: rgb(206, 255, 29);"></path></g></svg>