<svg viewBox="0 0 300 300" preserveAspectRatio="xMidYMid" width="300" height="300"><filter id="iwfyg" width="300" height="500" x="-50%" y="-50%"><feFlood flood-color="#14A989" result="element"></feFlood><feTurbulence baseFrequency="0.02" type="fractalNoise" numOctaves="8" seed="19" result="element_1"></feTurbulence><feGaussianBlur stdDeviation="4" in="SourceAlpha" result="element_2"></feGaussianBlur><feDisplacementMap scale="100" in="element_2" in2="element_1" result="element_3"></feDisplacementMap><feComposite operator="in" in="element" in2="element_3" result="element_4"></feComposite><feMerge><feMergeNode in="element_4"></feMergeNode></feMerge></filter><g transform="translate(150,150) scale(1.5)"><path d="M0,0L8.945424911115943,-5.943855016553847C17.890849822231885,-11.887710033107695,35.78169964446377,-23.77542006621539,40.03089315873407,-25.232005932413696C44.28008667300436,-26.688591798612002,34.88762387931306,-17.71405349790092,16.3792897148134,-15.906477263696843C-2.129044449686262,-14.098901029492762,-29.753249984994287,-19.45828686179568,-31.68255023180085,-15.37241509453561C-33.611850478607415,-11.286543327275538,-9.846245436912517,2.244586039547526,8.464118303823192,13.914428992028203C26.7744820445589,25.58427194450888,39.62960448433542,35.392828482647175,46.30591549573256,26.90985875487533C52.98222650712971,18.426889027103496,53.47972609014748,-8.347606966578471,46.87429467973891,-12.264321356434948C40.26886326933034,-16.181035746291425,26.560500865495417,2.7600314676775906,24.991663106569323,7.670470507851234C23.422825347643233,12.580909548024877,33.993512233625964,3.4607204144031507,35.909845567705645,-5.120859471419772C37.826178901785326,-13.702439357242694,31.088158683961957,-21.74540999526681,20.474135647086197,-22.94060961464958C9.860112610210434,-24.13580923403235,-4.62991324571772,-18.483237834773774,-9.69331612610806,-21.838923833947447C-14.7567190064984,-25.194609833121127,-10.393498911350926,-37.55855323072706,-1.9088126344655238,-35.01224816239972C6.575873642419879,-32.46594309407237,19.18202610104321,-15.00938955981176,17.33625953187653,-3.7584403018103223C15.490492962709851,7.492508956191116,-0.8071926342468405,12.537853937933377,-15.452588532071735,12.692238852833201C-30.097984429896627,12.846623767733025,-43.091090628589725,8.110048615790415,-37.878627196217685,7.052046244955255C-32.666163763845645,5.994043874120098,-9.248130700408472,8.614614284392392,0.7322346518699759,4.745338558590681C10.712600004148424,0.8760628327889677,7.255297645268145,-9.483059029086753,2.370772628766496,-10.77291297407362C-2.513752387735153,-12.062766919060486,-8.825500061858172,-4.283352947158499,-5.346821690443013,-1.6049285384632788C-1.8681433190278565,1.0734958702319415,11.400961097925478,-1.3490692842796048,16.563725637495452,-7.350408017412043C21.726490177065426,-13.351746750544482,18.78291483925204,-22.93185906229781,10.050865366121528,-14.83666252823705C1.3188158929910152,-6.7414659941762825,-13.201707715456624,19.029039385698574,-15.921668484329068,25.129441534664767C-18.64162925320151,31.229843683630957,-9.56102718249876,17.66014260168848,-0.43420084632932276,6.1263367797748804C8.692625489840117,-5.407469042138722,17.865676091476242,-14.905379604023446,15.228637018739702,-13.523968183601122C12.591597946003166,-12.142556763178796,-1.8555308011060365,0.11817663955058322,-9.292081495692816,6.019902076592351C-16.728632190279598,11.92162751363412,-17.154604832343953,11.464344984988278,-18.031170229270064,9.402506058073444C-18.90773562619617,7.340667131158607,-20.234893777984034,3.674271805974779,-13.535473382250965,-2.631020338195028C-6.836052986517896,-8.936312482364835,7.8899459567361,-17.88050144552062,4.462042028067165,-19.511948451938796C1.0341380993982288,-21.143395458356967,-20.54766870119364,-15.462100508037532,-21.804844211806607,-11.008092531587243C-23.062019722419578,-6.5540845551369555,-3.9945639430536524,-3.3273635525558154,-1.669645808552092,-1.1619142132638687C0.6552723259494684,1.0035351260280776,-13.762347184413338,2.10771280203083,-18.835845068958243,2.4815698754355413C-23.90934295350315,2.8554269488402526,-19.638719212230157,2.4989634196469224,-14.601603018863015,5.101925022985233C-9.564486825495877,7.704886626323544,-3.7608781800345916,13.267273362193496,-1.81912260501073,19.05362585644245C0.12263297001313123,24.839978350691407,-1.797464525400431,30.850296603319364,2.197133742434096,28.968921486001996C6.191732010268622,27.087546368684627,16.101026041351236,17.31447788142193,16.270598564872547,17.719490632385387C16.440171088393857,18.12450338334884,6.87002210435386,28.70759737253845,6.960584045522084,31.859313700709258C7.051145986690307,35.01103002888006,16.80241885306675,30.73136869603206,21.67805528625497,28.59153802960806L26.553691719443194,26.45170736318406" style="filter: url(#iwfyg); stroke: rgb(20, 169, 137);"></path></g></svg>