<svg viewBox="0 0 300 300" preserveAspectRatio="xMidYMid" width="300" height="300"><filter id="bglgr" width="300" height="500" x="-50%" y="-50%"><feFlood flood-color="#ff5470" result="element"></feFlood><feTurbulence baseFrequency="0.02" type="fractalNoise" numOctaves="8" seed="27" result="element_1"></feTurbulence><feGaussianBlur stdDeviation="5" in="SourceAlpha" result="element_2"></feGaussianBlur><feDisplacementMap scale="100" in="element_2" in2="element_1" result="element_3"></feDisplacementMap><feComposite operator="in" in="element" in2="element_3" result="element_4"></feComposite><feMerge><feMergeNode in="element_4"></feMergeNode></feMerge></filter><g transform="translate(150,150) scale(1.5)"><path d="M0,0L0.2962154554869312,2.788064207198007C0.5924309109738624,5.576128414396014,1.1848618219477247,11.152256828792028,11.062139855366539,11.988568661205468C20.939417888785353,12.824880493618908,40.10154304464912,8.921375744049772,43.13904579006721,5.092824641684372C46.176548535485296,1.2642735393189724,33.089428870457695,-2.489323915842692,22.518555755857832,-2.5247316554288C11.947682641257973,-2.5601393950149083,3.893056077085848,1.12264258097454,-3.3729917821592226,5.1396978574484C-10.639039641404294,9.15675313392226,-17.11650879572231,13.508081710880534,-18.955053057848417,8.234952670821091C-20.793597319974523,2.961823630761648,-17.993216689908717,-11.93576302631551,-14.056757879022935,-16.85634888934489C-10.120299068137156,-21.77693475237427,-5.047762076431396,-16.720519821355875,-4.0301074324565045,-12.616593890931204C-3.012452788481613,-8.512667960506533,-6.049680492237589,-5.361231030675587,-5.649947054363626,-4.25998057746731C-5.250213616489661,-3.158730124259032,-1.4135190369857558,-4.107666147673424,-0.2666237448830223,-0.06269545994627546C0.8802715472197111,3.9822752277808733,-0.6626324480787269,13.021152626649561,3.3189914628522956,15.596082777146169C7.300615373783318,18.171012927642778,16.806767190943802,14.2819958297673,14.780849532795187,12.425805536199158C12.754931874646575,10.569615242631015,-0.8030552588111348,10.746251753370203,-9.155815046815015,14.6506813955826C-17.508574834818894,18.555111037794994,-20.656107277368946,26.1873338114806,-15.42179891234116,30.29829970925337C-10.18749054731337,34.40926560702614,3.428658625292261,34.99897462888609,6.470709930629427,31.74196046508431C9.512761235966593,28.48494630128254,1.9807146740352932,21.381208951819048,-3.8939921233308605,16.261113698390098C-9.768698920697014,11.141018444961146,-13.986065953498024,8.004565287566734,-16.998068789744345,5.698517084326157C-20.010071625990662,3.3924688810855796,-21.816710265682293,1.9168256319988362,-23.340544794447833,1.9523078920573944C-24.864379323213377,1.9877901521159527,-26.10540974105283,3.5343979213198127,-24.301690948854574,2.445538450487262C-22.497972156656317,1.3566789796547112,-17.649504154420352,-2.3676477312142508,-13.148384260577965,-7.6691782434659785C-8.647264366735577,-12.970708755717707,-4.49349258128677,-19.8494430693522,-7.35186202509515,-9.418701751254938C-10.210231468903531,1.0120395668423292,-20.0807421419691,28.752256516671356,-13.033572837089809,40.84390860385329C-5.986403532210513,52.93556069103523,17.978445750613645,49.37864791557007,16.236846812278216,45.85070638801594C14.495247873942786,42.3227648604618,-12.952799285552231,38.82379458081868,-19.351408420835426,29.7884269865703C-25.750017556118625,20.75305939232192,-11.099188667189999,6.1812944834682835,-5.030545584973353,2.0961129557727487C1.038097497243291,-1.9890685719227856,-1.4754452272520449,4.412333281539782,-3.161369852222733,5.22920067081231C-4.847294477193422,6.046068060084838,-5.7056010026394635,1.2784009851673264,-5.2488653009657105,-2.7550920301473836C-4.792129599291959,-6.788585045462093,-3.020351670498414,-10.087904001174001,-5.288245192315928,-0.13369903736681366C-7.556138714133442,9.820505926440372,-13.863703686562014,33.02823480976665,-14.78152172500595,35.44057304106658C-15.699339763449885,37.85291127236649,-11.227410867909185,19.46985885164005,-7.475495376814022,9.25259522422838C-3.7235798857188613,-0.9646684031832956,-0.6916777990692393,-3.0161432372802026,0.43782430039415776,-0.483101568046965C1.5673263998575548,2.049940101186272,0.7944285121347271,9.167498273749654,0.5165882975007325,4.807789832020983C0.23874808286673807,0.4480813902923124,0.45596554132157674,-15.38889366572841,10.183874570052915,-13.502861491862905C19.911783598784254,-11.6168293179974,39.15038419779209,7.9922100857543334,36.630476824576974,18.7477088338174C34.11056945136187,29.503207581880464,9.832154105923802,31.40516567425486,5.209730414216915,29.398953085171325C0.5873067225100286,27.39274049608779,15.620874684534318,21.478357225546326,23.13765866554646,18.52116559027559L30.654442646558607,15.563973955004858" style="filter: url(#bglgr); stroke: rgb(255, 84, 112);"></path></g></svg>