<?xml version="1.0" encoding="UTF-8" standalone="no"?>
<svg
   xmlns:dc="http://purl.org/dc/elements/1.1/"
   xmlns:cc="http://creativecommons.org/ns#"
   xmlns:rdf="http://www.w3.org/1999/02/22-rdf-syntax-ns#"
   xmlns:svg="http://www.w3.org/2000/svg"
   xmlns="http://www.w3.org/2000/svg"
   version="1.1"
   id="svg2"
   height="300"
   width="300"
   preserveAspectRatio="xMidYMid"
   viewBox="0 0 300 300">
  <metadata
     id="metadata27">
    <rdf:RDF>
      <cc:Work
         rdf:about="">
        <dc:format>image/svg+xml</dc:format>
        <dc:type
           rdf:resource="http://purl.org/dc/dcmitype/StillImage" />
      </cc:Work>
    </rdf:RDF>
  </metadata>
  <defs
     id="defs25" />
  <filter
     y="-50%"
     x="-50%"
     height="500"
     width="300"
     id="jmqlq">
    <feFlood
       id="feFlood5"
       result="element"
       flood-color="#6dae81" />
    <feTurbulence
       id="feTurbulence7"
       result="element_1"
       seed="62"
       numOctaves="8"
       type="fractalNoise"
       baseFrequency="0.02" />
    <feGaussianBlur
       id="feGaussianBlur9"
       result="element_2"
       in="SourceAlpha"
       stdDeviation="4" />
    <feDisplacementMap
       id="feDisplacementMap11"
       result="element_3"
       in2="element_1"
       in="element_2"
       scale="100" />
    <feComposite
       id="feComposite13"
       result="element_4"
       in2="element_3"
       in="element"
       operator="in" />
    <feMerge
       id="feMerge15">
      <feMergeNode
         id="feMergeNode17"
         in="element_4" />
    </feMerge>
  </filter>
  <g
     id="g19"
     transform="translate(150,150) scale(1.5)">
    <path
       id="path21"
       style="filter: url(#jmqlq); stroke: rgb(109, 174, 129);"
       d="M0,0L1.189087768470886,-3.7297047809569563C2.378175536941772,-7.459409561913913,4.756351073883544,-14.918819123827825,6.095377674616936,-18.526829451292958C7.434404275350328,-22.134839778758092,7.7342819398753395,-21.891450871774442,10.447068974610776,-27.400357210250124C13.15985600934621,-32.909263548725804,18.285552414292074,-44.17046513266081,25.268291196932978,-37.482619172814026C32.251029979573886,-30.794773212967247,41.09081113990984,-6.157879709338671,41.5204334916627,4.5013513770288345C41.950055843415555,15.160582463396338,33.96951938658531,11.842151132502774,26.89326873307109,7.550071859146828C19.817018079556867,3.257992585790884,13.64505322935866,-2.00773463002744,10.649730476176119,-4.974885806686489C7.654407722993575,-7.942036983345536,7.835727066826696,-8.610612120845309,8.414436364738226,-10.81245374497369C8.993145662649757,-13.01429536910207,9.969244914639699,-16.749403479859062,7.074044347171159,-12.089283307927728C4.17884377970262,-7.429163135996397,-2.587656607224399,5.626185318623255,-12.36035124176637,9.941848557678686C-22.13304587630834,14.257511796734113,-34.911934758465264,9.833489820225317,-33.33160959889112,6.056048572760905C-31.75128443931698,2.278607325296492,-15.811745238011772,-0.8522531931235391,-6.478124435097102,-3.3770449258063646C2.85549636781757,-5.90183665848919,5.583198772341708,-7.82055960543481,-1.2456296205689812,-8.071915769453318C-8.07445801347967,-8.323271933471826,-24.459817203825185,-6.907261314563223,-20.580139892191134,-8.350531568712377C-16.70046258055709,-9.793801822861532,7.444251233056519,-14.096352950068447,16.639784100341544,-13.049339032175459C25.835316967626568,-12.002325114282469,20.081668888583003,-5.605746151289579,9.325225537271104,2.697768676368584C-1.4312178140407958,11.001283504026748,-17.19045643762103,21.211734196350182,-25.480111974276795,26.60374317642605C-33.76976751093255,31.99575215650191,-34.589839960663845,32.5693194243302,-20.471061372689068,27.42087404815425C-6.352282784714291,22.272428671978297,22.705346840966552,11.401970651798099,24.888860176378845,0.3403672739531629C27.072373511791138,-10.721236103891773,2.38177055693488,-21.973984839401446,-8.510260025554718,-16.765066648237926C-19.402290608044314,-11.556148457074407,-16.49574881816725,10.114436660762305,-11.823843460008405,7.68581629867477C-7.151938101849561,5.257195936587236,-0.7146691754089334,-21.270629905424546,-2.278522926919412,-26.08861161712093C-3.8423766784298907,-30.906593328817312,-13.407353107891476,-14.014730910198296,-17.12149172033873,-8.201731692177761C-20.83563033278599,-2.3887324741572256,-18.698931128218916,-7.654596456735169,-16.13981712722303,-1.000303346802749C-13.580703126227142,5.6539897631296725,-10.59917432880244,24.22843996557246,-14.947266739902064,29.991566534529838C-19.29535915100169,35.75469310348721,-30.97307277062564,28.706496038959173,-33.20019812092461,24.581082099090523C-35.42732347122357,20.45566815922187,-28.203860552197558,19.253037344012597,-22.44090571432182,15.168965624587361C-16.677950876446076,11.084893905162126,-12.375504119720617,4.119381281520926,-0.24603683860737924,1.7653350473600555C11.883430442505858,-0.5887111868008152,31.839918248006875,1.6687089685186436,33.292688502247366,0.7516274049684049C34.745458756487864,-0.16545415858183388,17.694511459467847,-4.257037441001771,12.756319066795612,-1.7006218119343952C7.818126674123379,0.8557938171329793,14.99268918579893,10.060208357687666,7.2810898857015305,8.391791509010863C-0.4305094143958694,6.723374660334062,-23.02827052626622,-5.817873577574227,-28.028295781020265,-7.855349144217337C-33.02832103577431,-9.892824710860445,-20.43061043341205,-1.426527606238376,-11.39837914261113,-1.2950088441003866C-2.3661478518102097,-1.1634900819623972,3.100604127429368,-9.36674966230849,4.824705353137632,-12.168797450847752C6.548806578845896,-14.970845239387014,4.530257051022845,-12.37168123611945,5.715204028796767,-11.514283146825505C6.900151006570688,-10.656885057531564,11.28859448994158,-11.541252882211243,13.482816231627025,-11.983436794551082L15.677037973312473,-12.425620706890925" />
  </g>
</svg>
