<svg viewBox="0 0 300 300" preserveAspectRatio="xMidYMid" width="300" height="300"><filter id="vkhyi" width="300" height="500" x="-50%" y="-50%"><feFlood flood-color="#e936a7" result="element"></feFlood><feTurbulence baseFrequency="0.02" type="fractalNoise" numOctaves="8" seed="84" result="element_1"></feTurbulence><feGaussianBlur stdDeviation="4" in="SourceAlpha" result="element_2"></feGaussianBlur><feDisplacementMap scale="100" in="element_2" in2="element_1" result="element_3"></feDisplacementMap><feComposite operator="in" in="element" in2="element_3" result="element_4"></feComposite><feMerge><feMergeNode in="element_4"></feMergeNode></feMerge></filter><g transform="translate(150,150) scale(1.5)"><path d="M0,0L1.813659470395065,-2.6732105055089583C3.62731894079013,-5.346421011017917,7.25463788158026,-10.692842022035833,12.042546573565797,-9.286017131025737C16.830455265551336,-7.879192240015643,22.778953708732278,0.28087855302246467,24.715404311746564,2.543851606252623C26.651854914760847,4.806824659482781,24.576257677608474,1.1726999729049905,22.460647835046423,-2.2458061535972056C20.345037992484375,-5.664312280099402,18.189415544512652,-8.867199846526002,9.333536790474213,-6.883106424434003C0.4776580364357734,-4.899013002342004,-15.078477023669384,2.2720614082685966,-17.285067003899666,4.319869001552726C-19.49165698412995,6.367676594836855,-8.348701884485354,3.292217370794512,-0.1434706586580563,1.292222242382263C8.061760567169243,-0.7077728860299863,13.329267919179246,-1.632303918812142,15.560871793909254,-7.018100265870633C17.792475668639263,-12.403896612929124,16.988176066089277,-22.25095827426395,14.945611424087813,-21.096990349449765C12.903046782086347,-19.943022424635583,9.622217100633403,-7.788024913672385,5.625707921344546,-2.192481542687509C1.6291987420556886,3.403061828297367,-3.082989935069083,2.439151059303922,0.6059576678961518,-4.762010145170371C4.294905270861387,-11.963171349644664,16.384989153916628,-25.401582989599806,23.997944980256204,-21.534399935138673C31.61090080659578,-17.667216880677543,34.74672857621969,3.5055608681998613,22.169689693857926,1.1637643314147201C9.59265081149617,-1.178032205370421,-18.697254722851255,-27.034403027818108,-22.039741729672112,-26.533474624810843C-25.38222873649297,-26.032546221803578,-3.777297215787261,0.8256814066586387,3.757904606788025,14.466015618539753C11.293106429363311,28.106349830420868,4.7585785538081735,28.528790625720884,5.100519707746752,24.20642274722305C5.442460861685331,19.88405486872522,12.660871045117625,10.816878316429541,16.284744730008807,8.482749939478825C19.90861841489999,6.148621562528113,19.937955601250064,10.547541360922363,16.91479140062299,10.16131689430932C13.89162719999591,9.775092427696276,7.815961612391682,4.603723696075937,1.9067231600727856,2.663776913269687C-4.002515292246111,0.7238301304634376,-9.745326609279678,2.0153052964712774,-18.25774745433889,-2.203863139539886C-26.770168299398097,-6.42303157555105,-38.05219867248295,-16.15284361358122,-32.15154719709442,-13.54985070714321C-26.250895721705906,-10.946857800705205,-3.167562397844007,3.9889400502009753,2.1095849165294043,3.1731937220979916C7.386732230902815,2.357447393995006,-5.14230646421226,-14.209843113117143,-8.534654013761408,-17.497658725069083C-11.927001563310556,-20.785474337021018,-6.182657967293776,-10.793815053812745,-1.870527196827996,3.708300297136975C2.441603573637784,18.210415648086695,5.321521518552564,37.222987066777854,-3.0919262865633907,38.198964315294056C-11.505374091679347,39.17494156381024,-31.212187646826035,22.114324642151466,-38.07180393173816,12.875957619513345C-44.931420216650274,3.6375905968752242,-38.94383923132782,2.221473473257758,-36.416681034325286,-2.9582089885698535C-33.88952283732275,-8.137891450397465,-34.82278742864014,-17.08113925043522,-29.8501653354796,-15.489273844132438C-24.87754324231906,-13.89740843782965,-13.999034464680598,-1.7704298251863193,-8.123832907773474,7.434744075816439C-2.2486313508663494,16.6399179768192,-1.376737014690562,22.92328716618138,-8.869470641991143,20.780554605493368C-16.362204269291723,18.63782204480535,-32.21956586006868,8.068987734067132,-32.26744168968629,0.4275528730934295C-32.3153175193039,-7.213881987880274,-16.553707587762176,-11.927917399089464,-2.3844830052165396,-10.844851297757135C11.784741577329097,-9.761785196424805,24.361580810878646,-2.8816175825509576,22.15413219217257,-0.23995270286953677C19.946683573466494,2.401712176811884,2.9549471025047964,0.8048743223008775,-9.677207046821533,-4.759232978878021C-22.30936119614786,-10.32334028005692,-30.581933023838815,-19.85471702790371,-22.567645297321654,-24.206048975912406C-14.55335757080449,-28.5573809239211,9.747789709920793,-27.728668072091704,21.898363350283436,-27.314311646177007L34.04893699064608,-26.899955220262306" style="filter: url(#vkhyi); stroke: rgb(233, 54, 167);"></path></g></svg>