<?xml version="1.0" encoding="UTF-8" standalone="no"?>
<svg
   xmlns:dc="http://purl.org/dc/elements/1.1/"
   xmlns:cc="http://creativecommons.org/ns#"
   xmlns:rdf="http://www.w3.org/1999/02/22-rdf-syntax-ns#"
   xmlns:svg="http://www.w3.org/2000/svg"
   xmlns="http://www.w3.org/2000/svg"
   version="1.1"
   id="svg2"
   height="300"
   width="300"
   preserveAspectRatio="xMidYMid"
   viewBox="0 0 300 300">
  <metadata
     id="metadata27">
    <rdf:RDF>
      <cc:Work
         rdf:about="">
        <dc:format>image/svg+xml</dc:format>
        <dc:type
           rdf:resource="http://purl.org/dc/dcmitype/StillImage" />
      </cc:Work>
    </rdf:RDF>
  </metadata>
  <defs
     id="defs25" />
  <filter
     y="-50%"
     x="-50%"
     height="500"
     width="300"
     id="acafm">
    <feFlood
       id="feFlood5"
       result="element"
       flood-color="#c364c5" />
    <feTurbulence
       id="feTurbulence7"
       result="element_1"
       seed="51"
       numOctaves="8"
       type="fractalNoise"
       baseFrequency="0.02" />
    <feGaussianBlur
       id="feGaussianBlur9"
       result="element_2"
       in="SourceAlpha"
       stdDeviation="5" />
    <feDisplacementMap
       id="feDisplacementMap11"
       result="element_3"
       in2="element_1"
       in="element_2"
       scale="100" />
    <feComposite
       id="feComposite13"
       result="element_4"
       in2="element_3"
       in="element"
       operator="in" />
    <feMerge
       id="feMerge15">
      <feMergeNode
         id="feMergeNode17"
         in="element_4" />
    </feMerge>
  </filter>
  <g
     id="g19"
     transform="translate(150,150) scale(1.5)">
    <path
       id="path21"
       style="filter: url(#acafm); stroke: rgb(195, 100, 197);"
       d="M0,0L4.176441099596326,-5.130368922073019C8.352882199192653,-10.260737844146037,16.705764398385305,-20.521475688292075,20.257370306541425,-17.357122359064284C23.808976214697545,-14.192769029836496,22.559305831817134,2.3966754727651196,19.12112068336919,4.523850935864284C15.682935534921246,6.651026398963449,10.05623562090577,-5.684067177439838,6.366356019668627,-0.7899605705645243C2.6764764184314855,4.104146036310787,0.9234171299726759,26.2274528264647,5.666457468556011,26.279152743695022C10.409497807139347,26.33085266092535,21.64863777276483,4.3109457052320845,28.461862526196235,-2.7030110964698753C35.27508727962764,-9.716967898171834,37.66239682086498,-1.7249745458824917,32.76445791006188,-0.9788290853743375C27.86651899925877,-0.23268362486618344,15.683331636415229,-6.732386056139219,5.920457009590113,-14.05163259392322C-3.8424176172350037,-21.37087913170722,-11.184979508041694,-29.509669776002184,-17.938004869815433,-20.221902560215227C-24.69103023158917,-10.934135344428274,-30.854519064329956,15.780189731440604,-26.829939856840323,21.85363139803282C-22.805360649350686,27.927073064625034,-8.592713401630629,13.359631321940588,1.283918752814201,2.8169269548805818C11.160550907259031,-7.725777412179424,16.701167968428635,-14.24374440361499,13.383590231469903,-13.688991987437609C10.066012494511172,-13.134239571260228,-2.1097600405758925,-5.5067677474698975,-7.018044843257568,-10.741058202864291C-11.926329645939244,-15.975348658258683,-9.56712671621553,-34.0714013928378,-11.52092599998987,-40.93933407754626C-13.47472528376421,-47.80726676225473,-19.741526781036605,-43.447079397092544,-13.795264273173528,-36.503147310849286C-7.849001765310451,-29.559215224606035,10.310324747688096,-20.031538417281713,8.975303809613026,-11.04161089659249C7.640282871537956,-2.0516833759032664,-13.189085517610732,6.400494858150857,-18.943491621931308,3.1310839221539686C-24.69789772625188,-0.13832701384292,-15.37734154574434,-15.12932711989082,-12.770335196082224,-24.202180472544086C-10.163328846420109,-33.27503382519735,-14.269872327603416,-36.42974042445597,-15.09515650633602,-24.119033519748072C-15.920440685068622,-11.808326615040171,-13.46446556135052,15.967793793634257,-3.30567154499804,19.635432982759063C6.853122471354442,23.303072171883876,24.714735380341303,2.862230141459065,29.36649460447259,-7.179190615963174C34.018253828603875,-17.220611373385413,25.460159367879587,-16.86261085780508,19.57429544962333,-12.833183221493561C13.68843153136708,-8.803755585182042,10.474798155578862,-1.1029008281393367,9.5315379516104,1.7096635477803717C8.588277747641936,4.52222792370008,9.91539071549323,2.4465019184967898,8.04076431096015,4.6680226961399445C6.16613790642707,6.8895434737831,1.0897721295096177,13.408311034272698,-3.8791268412331448,9.861412456295835C-8.848025811975907,6.314513878318971,-13.709457976543979,-7.298050838124356,-12.976687609559617,-12.220304960973928C-12.243917242575256,-17.1425590838235,-5.916944344038461,-13.374502613079319,-0.048101081707717874,-7.940164291924102C5.820742180623026,-2.5058259707688855,11.231455806747718,4.594794200797365,16.544427524251226,13.224780791299771C21.857399241754734,21.85476738180218,27.072629050637055,32.014120391240745,24.423724610348405,36.44556823838081C21.77482017005976,40.877016085520864,11.261781480600137,39.580558770362416,5.792270397919822,34.53794743420735C0.3227593152395061,29.495336098052277,-0.10322416066150472,20.70657074090059,-0.877324393911955,6.590708651736735C-1.6514246271624051,-7.525153437427123,-2.773641617762295,-26.968112258603153,-3.8919713362238046,-28.03987230456026C-5.010301054685314,-29.11163235051737,-6.124743501008444,-11.812193621255561,-1.1783073154181727,-1.2887780960146968C3.7681288701720987,9.234637429226169,14.775443687675772,12.982029750446088,14.920565908193575,13.153021116390136C15.065688128711379,13.324012482334183,4.348617752243314,9.918602893002362,3.8807165197462825,5.409585525215565C3.412815287249251,0.9005681574287694,13.194083198723252,-4.712056988812999,18.084717154460254,-7.518369561933882L22.975351110197256,-10.324682135054768" />
  </g>
</svg>
