<?xml version="1.0" encoding="UTF-8" standalone="no"?>
<svg
   xmlns:dc="http://purl.org/dc/elements/1.1/"
   xmlns:cc="http://creativecommons.org/ns#"
   xmlns:rdf="http://www.w3.org/1999/02/22-rdf-syntax-ns#"
   xmlns:svg="http://www.w3.org/2000/svg"
   xmlns="http://www.w3.org/2000/svg"
   version="1.1"
   id="svg2"
   height="300"
   width="300"
   preserveAspectRatio="xMidYMid"
   viewBox="0 0 300 300">
  <metadata
     id="metadata27">
    <rdf:RDF>
      <cc:Work
         rdf:about="">
        <dc:format>image/svg+xml</dc:format>
        <dc:type
           rdf:resource="http://purl.org/dc/dcmitype/StillImage" />
      </cc:Work>
    </rdf:RDF>
  </metadata>
  <defs
     id="defs25" />
  <filter
     y="-50%"
     x="-50%"
     height="500"
     width="300"
     id="wgofv">
    <feFlood
       id="feFlood5"
       result="element"
       flood-color="#cc6666" />
    <feTurbulence
       id="feTurbulence7"
       result="element_1"
       seed="34"
       numOctaves="8"
       type="fractalNoise"
       baseFrequency="0.02" />
    <feGaussianBlur
       id="feGaussianBlur9"
       result="element_2"
       in="SourceAlpha"
       stdDeviation="5" />
    <feDisplacementMap
       id="feDisplacementMap11"
       result="element_3"
       in2="element_1"
       in="element_2"
       scale="100" />
    <feComposite
       id="feComposite13"
       result="element_4"
       in2="element_3"
       in="element"
       operator="in" />
    <feMerge
       id="feMerge15">
      <feMergeNode
         id="feMergeNode17"
         in="element_4" />
    </feMerge>
  </filter>
  <g
     id="g19"
     transform="translate(150,150) scale(1.5)">
    <path
       id="path21"
       style="filter: url(#wgofv); stroke: rgb(204, 102, 102);"
       d="M0,0L5.671137582426217,-3.7106939927750653C11.342275164852435,-7.421387985550131,22.68455032970487,-14.842775971100261,19.405006250020328,-15.808143470274674C16.125462170335787,-16.773510969449084,-1.7759011538857337,-11.282857982247778,-5.782998580410569,-10.16259760456694C-9.790096006935403,-9.0423372268861,0.09707246423644378,-12.292469458725728,3.948161854106819,-5.29453789016862C7.799251243977194,1.7033936783884904,5.614261552546095,18.949389047342336,1.2488554544741146,21.644643555637614C-3.116550643597866,24.339898063932893,-9.662373148310728,12.484411711569601,-19.71447468800038,0.9550360945932077C-29.76657622769003,-10.574339522383184,-43.32495680235647,-21.777604403972678,-42.1088472173216,-25.63711972575593C-40.892737632286746,-29.496635047539183,-24.902137887550573,-26.012400809516198,-9.066280190062466,-20.387884981956617C6.769577507425643,-14.763369154397036,22.450693157665693,-6.998571737300862,25.09906503303481,-4.450377584690328C27.747436908403934,-1.9021834320797937,17.363065008902126,-4.570592543954899,6.966901735476548,-1.165042067148521C-3.429261537949028,2.2405084096578562,-13.83721618529837,11.720018475145718,-17.063551238157356,12.36156917271634C-20.289886291016344,13.003119870286962,-16.334601749384973,4.806711199940349,-16.090992283664225,5.737074617360524C-15.847382817943481,6.6674380347807,-19.315448428133365,16.724573539967665,-13.742219934714745,16.776202109757982C-8.168991441296129,16.827830679548295,6.445531155730988,6.873952313941961,13.343536652421344,-5.63248829755705C20.241542149111698,-18.138928909056062,19.423030545465295,-33.197931766447745,12.796902348716113,-35.56318400358365C6.170774151966935,-37.928436240719556,-6.262970637885018,-27.59993785759967,-9.336637892641235,-23.59093689722841C-12.410305147397453,-19.58193593685715,-6.123894867057936,-21.892432399234504,-4.91477787727253,-15.049872802184122C-3.7056608874871246,-8.207313205133735,-7.573837188255831,7.788302451344393,-7.458768314916786,13.204427898719995C-7.343699441577741,18.620553346095598,-3.2453853941309445,13.457188584368676,-3.189716639906245,12.362320966952453C-3.1340478856815457,11.267453349536229,-7.121024424678944,14.241082876430703,0.768952399989236,12.769226207011462C8.658929224657417,11.29736953759222,28.425859412991173,5.3800266718592615,24.062373533070993,6.246188563154417C19.698887653150813,7.112350454449575,-8.79501429502331,14.762017102772846,-13.357821741893442,17.798006743153497C-17.920629188763574,20.833996383534142,1.4476578656702852,19.256309015972167,12.014223208269513,16.453561994013786C22.58078855086874,13.650814972055406,24.345632181633338,9.623008295700618,23.213485254391067,8.368499912776926C22.081338327148792,7.113991529853235,18.05220084189965,8.632781440360638,19.59633081621912,7.30612783412534C21.140460790538587,5.979474227890041,28.257858224426663,1.8073771049120397,20.766812063239982,-7.27619352234053C13.275765902053294,-16.3597641495931,-8.823723854208152,-30.35480828112024,-13.966722509161727,-35.4983991441477C-19.1097211641153,-40.64199000717515,-7.296228717761003,-36.93412760170293,-2.346540909362981,-26.519775455720392C2.603146899035041,-16.105423309737855,0.6890300694767866,1.015418576755005,-4.864777670067987,11.574026400329764C-10.418585409612762,22.132634223904525,-19.612084059144056,26.12900798456118,-11.244674145021683,23.856086168606833C-2.877264230899314,21.583164352652485,23.05105424687672,13.040946960087126,33.26009704274834,2.888861494446571C43.46913983861996,-7.2632239711939866,37.958906952587164,-19.025177509909742,26.58333277798753,-20.239396773398962C15.207758603387893,-21.453616036888178,-2.0331568597785825,-12.120101025150857,-10.445214999702607,-1.5356026104984535C-18.85727313962663,9.048895804153949,-18.440473956308207,20.884377621721434,-11.390375833532577,26.56356759600189C-4.340277710756947,32.24275757028234,9.343119351475888,31.765655701275772,12.510146101583084,29.125305031543334C15.677172851690278,26.4849543618109,8.327829289671836,21.681354891352598,4.653157508662614,19.279555156123443L0.9784857276533927,16.877755420894296" />
  </g>
</svg>
