<svg viewBox="0 0 300 300" preserveAspectRatio="xMidYMid" width="300" height="300"><filter id="eajjh" width="300" height="500" x="-50%" y="-50%"><feFlood flood-color="#ffdf46" result="element"></feFlood><feTurbulence baseFrequency="0.02" type="fractalNoise" numOctaves="8" seed="4" result="element_1"></feTurbulence><feGaussianBlur stdDeviation="4" in="SourceAlpha" result="element_2"></feGaussianBlur><feDisplacementMap scale="100" in="element_2" in2="element_1" result="element_3"></feDisplacementMap><feComposite operator="in" in="element" in2="element_3" result="element_4"></feComposite><feMerge><feMergeNode in="element_4"></feMergeNode></feMerge></filter><g transform="translate(150,150) scale(1.5)"><path d="M0,0L1.6452929478103722,-0.23407331473544046C3.2905858956207443,-0.4681466294708809,6.581171791241489,-0.9362932589417619,10.242567482958208,5.200823663130208C13.903963174674928,11.337940585202178,17.93616866248762,24.080321058817,14.988055036110621,26.82609808442679C12.039941409733622,29.57187511003658,2.1115086691669287,22.321048687641344,0.2332730333521016,18.384448595670456C-1.6449626024627255,14.447848503699566,4.5269988664743135,13.825474742153025,5.060620565016095,17.031845519321006C5.594242263557877,20.238216296488993,0.489524191704402,27.2733316123715,-7.846895765911551,23.76599264106456C-16.183315723527507,20.258653669757624,-27.751437566905935,6.2088604112612416,-30.96338235952406,2.240531448537171C-34.17532715214219,-1.7277975141868995,-29.031094894,4.385337818861341,-20.115558732731387,2.393488466252844C-11.200022571462771,0.40163911364434757,1.4868174929322748,-9.695194924620887,5.166405101448411,-11.204461569047218C8.845992709964547,-12.71372821347355,3.518327862601772,-5.63542746406098,0.7199380691533159,-1.2751382307933068C-2.07845172429514,3.0851510024743662,-2.347566463829278,4.727428719597142,3.2954797383528,4.608189174998751C8.938525940534879,4.48894963040036,20.493733084433174,2.608192824080803,20.847957716141686,-6.146294201003682C21.202182347850194,-14.900781226088167,10.355424467368923,-30.52899846993758,2.0534252028478637,-31.97740407118818C-6.248574061673195,-33.42580967243878,-12.00581471023404,-20.694403631090562,-9.042126515364833,-14.6236765327441C-6.078438320495624,-8.552949434397636,5.606178717803637,-9.142901279052927,7.544102673121735,-1.6442172640108446C9.482026628439835,5.854466751031238,1.6732575007767707,21.441786625770693,4.1485192838364195,18.952372526764563C6.6237810668960675,16.462958427758426,19.38307376067843,-4.1031896449932965,22.928205845324612,-19.47584496079864C26.473337929970796,-34.848500276603986,20.804309405480808,-45.02766283546295,15.618668481455158,-41.09407437538441C10.433027557429508,-37.16048591530586,5.730774233868199,-19.114146436289808,8.384932703014368,-8.892728612086113C11.039091172160537,1.3286892121175833,21.049661434014183,3.725185381508921,29.955937976439508,4.0432612790583535C38.86221451886483,4.361337176607787,46.664197341861836,2.6009928023153144,44.625774779235655,2.347847960104498C42.587352216609474,2.0947031178936824,30.70852426836012,3.348757807764523,29.90632093888945,2.9395340296274766C29.104117609418786,2.5303102514904308,39.37853889872681,0.45780800534549804,36.424690375218056,-0.0027211064929930084C33.47084185170931,-0.46325021833148405,17.288723515383776,0.6881938041364665,9.137086730974042,6.228196213244113C0.9854499465643076,11.768198622351758,0.8642947140703693,21.6967594180991,-2.262901983719644,21.540641602916978C-5.390098681509657,21.384523787734857,-11.523336844595745,11.14372736162327,-12.840869144717196,7.508788219385304C-14.158401444838649,3.8738490771473377,-10.660227881995464,6.844767218782989,-7.627993164316563,7.90450123578233C-4.595758446637663,8.964235252781673,-2.0294625741230456,8.112785145144704,5.207955818512009,5.203467956249985C12.445374211147064,2.2941507673552652,24.353915123902556,-2.673033502797205,18.719960212959844,-6.662554532099014C13.086005302017135,-10.652075561400823,-10.090445432623778,-13.66393334985197,-23.08212059804022,-10.484412235441335C-36.07379576345666,-7.3048911210307,-38.880695359648634,2.066008896241719,-34.52662752425422,7.28186027397981C-30.17255968885982,12.497711651717903,-18.657524421879035,13.558514389921667,-15.937245915328479,12.471169715216831C-13.216967408777922,11.383825040511994,-19.291445662657594,8.148332952898555,-13.143519575350393,7.54646509296089C-6.995593488043189,6.9445972330232255,11.374736940450887,8.976353600761334,16.656370321933455,16.006523813664256C21.938003703416022,23.03669402656718,14.130940037887079,35.06527808463492,2.9811212327233623,32.61947473236633C-8.168697572440356,30.17367138009774,-22.66127151723885,13.253480617492826,-29.9075584896381,4.793385236190368L-37.153845462037346,-3.6667101451120887" style="filter: url(#eajjh); stroke: rgb(255, 223, 70);"></path></g></svg>