<?xml version="1.0" encoding="UTF-8" standalone="no"?>
<svg
   xmlns:dc="http://purl.org/dc/elements/1.1/"
   xmlns:cc="http://creativecommons.org/ns#"
   xmlns:rdf="http://www.w3.org/1999/02/22-rdf-syntax-ns#"
   xmlns:svg="http://www.w3.org/2000/svg"
   xmlns="http://www.w3.org/2000/svg"
   version="1.1"
   id="svg2"
   height="300"
   width="300"
   preserveAspectRatio="xMidYMid"
   viewBox="0 0 300 300">
  <metadata
     id="metadata27">
    <rdf:RDF>
      <cc:Work
         rdf:about="">
        <dc:format>image/svg+xml</dc:format>
        <dc:type
           rdf:resource="http://purl.org/dc/dcmitype/StillImage" />
      </cc:Work>
    </rdf:RDF>
  </metadata>
  <defs
     id="defs25" />
  <filter
     y="-50%"
     x="-50%"
     height="500"
     width="300"
     id="klclz">
    <feFlood
       id="feFlood5"
       result="element"
       flood-color="#b05c52" />
    <feTurbulence
       id="feTurbulence7"
       result="element_1"
       seed="97"
       numOctaves="8"
       type="fractalNoise"
       baseFrequency="0.02" />
    <feGaussianBlur
       id="feGaussianBlur9"
       result="element_2"
       in="SourceAlpha"
       stdDeviation="4" />
    <feDisplacementMap
       id="feDisplacementMap11"
       result="element_3"
       in2="element_1"
       in="element_2"
       scale="100" />
    <feComposite
       id="feComposite13"
       result="element_4"
       in2="element_3"
       in="element"
       operator="in" />
    <feMerge
       id="feMerge15">
      <feMergeNode
         id="feMergeNode17"
         in="element_4" />
    </feMerge>
  </filter>
  <g
     id="g19"
     transform="translate(150,150) scale(1.5)">
    <path
       id="path21"
       style="filter: url(#klclz); stroke: rgb(176, 92, 82);"
       d="M0,0L2.6507060941727065,1.1282487249170163C5.301412188345413,2.2564974498340327,10.602824376690826,4.512994899668065,20.388195374713888,5.338112935336955C30.173566372736953,6.163230971005845,44.44289618043767,5.556969592509592,41.469787832186675,-0.6286170078548245C38.49667948393569,-6.814203608219241,18.281132979732995,-18.57911543045182,7.800387782927336,-22.346716747291907C-2.6803574138783226,-26.114318064131993,-3.4263013032869454,-21.884608875579588,4.9656656125722005,-16.00253227240104C13.357632528431347,-10.120455669222494,30.88751024955826,-2.5860116514178095,33.13780172690791,6.203255023421829C35.388093204257565,14.992521698261468,22.358798437829947,25.03661103013606,13.871131222074128,27.898503020183167C5.383464006318307,30.760395010230276,1.4374243412342795,26.440089658449903,-2.254893011846247,23.430790135812202C-5.947210364926773,20.4214906131745,-9.385805406003799,18.723196919679477,-13.212829347384522,15.237849968568959C-17.039853288765244,11.75250301745844,-21.255306130449664,6.48010280873243,-26.210029796288765,7.725004612692782C-31.16475346212786,8.969906416653135,-36.85874795212163,16.73211023329985,-34.93767735111091,16.474351859227248C-33.01660675010019,16.216593485154647,-23.48047105808497,7.938872920362723,-15.527029026812995,5.620386086509079C-7.5735869955410156,3.301899252655434,-1.202838625012281,6.942646149740066,1.3092055456698346,15.24414704454739C3.82124971635195,23.545647939354712,2.474589687187446,36.50790283188473,7.9884071464814435,30.091200876423528C13.50222460577544,23.67449892096234,25.876519553527938,-2.121159882490062,32.809764215860895,-9.731795097458505C39.74300887819385,-17.34243031242695,41.23520325510725,-6.768041938911433,32.37437984917613,-5.416883881743868C23.513556443245008,-4.065725824576301,4.299715254469357,-11.937798083756684,-2.277870451882813,-10.397024520765555C-8.855456158234983,-8.856250957774424,-2.7967863821636705,2.097368427388216,-1.185250785933369,6.720244416093262C0.4262848102969323,11.34312040479831,-2.4093137733137766,9.635252997045761,2.710061984563551,6.889916354229707C7.829437742440879,4.144579711413655,20.903787841806242,0.361773833534099,17.760397019012135,6.629659078270901C14.617006196218027,12.897544323007704,-4.744125548735553,29.216120690360867,-11.177736353120654,26.72410594348677C-17.611347157505755,24.23209119661267,-11.117437021322377,2.9294853355113126,-6.854189478205476,-5.783263759664671C-2.5909419350885754,-14.496012854840655,-0.558356985038153,-10.618905184091266,-2.008215484375824,-7.565961855221905C-3.4580739837134957,-4.513018526352543,-8.39037593243926,-2.2842395393632082,-7.771647984797922,-3.355234448938735C-7.152920037156582,-4.426229358514261,-0.9831621931481371,-8.79699816465465,-3.081246127994659,-8.620209697813076C-5.179330062841181,-8.443421230971502,-15.54525577654267,-3.719075491147966,-16.183520577888714,-4.992068489138026C-16.821785379234758,-6.265061487128086,-7.732389268225359,-13.535393222931742,-8.44462343887524,-17.421123378997027C-9.156857609525122,-21.306853535062316,-19.670722061834287,-21.807982111389233,-23.556827966707786,-15.251047087716854C-27.442933871581282,-8.694112064044475,-24.701281229019113,4.920886559627201,-21.170794453947614,3.216501445543911C-17.640307678876113,1.5121163314606232,-13.320986771295278,-15.51165252037763,-8.900039263902014,-19.04599164066101C-4.479091756508751,-22.580330760944392,0.04348235069694484,-12.625240149672898,-2.1894584979465046,-7.246191434595625C-4.4223993465899545,-1.8671427195183525,-13.410855151082549,-1.0641359006353013,-20.797439315597536,1.7879591596498254C-28.184023480112522,4.640054219934952,-33.9687360046499,9.541237521622154,-31.375541466039476,11.748437779540245C-28.782346927429053,13.955638037458336,-17.81124532567083,13.468855251607314,-14.365942829571878,9.443334717375372C-10.920640333472928,5.417814183143429,-15.001136943033254,-2.146444099469435,-13.94433468497622,-7.7896756304041475C-12.887532426919186,-13.43290716133886,-6.693431301244793,-17.15511194059542,-3.596380738407597,-19.0162143302237L-0.49933017557040055,-20.877316719851983" />
  </g>
</svg>
