<?xml version="1.0" encoding="UTF-8" standalone="no"?>
<svg
   xmlns:dc="http://purl.org/dc/elements/1.1/"
   xmlns:cc="http://creativecommons.org/ns#"
   xmlns:rdf="http://www.w3.org/1999/02/22-rdf-syntax-ns#"
   xmlns:svg="http://www.w3.org/2000/svg"
   xmlns="http://www.w3.org/2000/svg"
   version="1.1"
   id="svg2"
   height="300"
   width="300"
   preserveAspectRatio="xMidYMid"
   viewBox="0 0 300 300">
  <metadata
     id="metadata27">
    <rdf:RDF>
      <cc:Work
         rdf:about="">
        <dc:format>image/svg+xml</dc:format>
        <dc:type
           rdf:resource="http://purl.org/dc/dcmitype/StillImage" />
      </cc:Work>
    </rdf:RDF>
  </metadata>
  <defs
     id="defs25" />
  <filter
     y="-50%"
     x="-50%"
     height="500"
     width="300"
     id="uwebt">
    <feFlood
       id="feFlood5"
       result="element"
       flood-color="#ab92b3" />
    <feTurbulence
       id="feTurbulence7"
       result="element_1"
       seed="54"
       numOctaves="8"
       type="fractalNoise"
       baseFrequency="0.02" />
    <feGaussianBlur
       id="feGaussianBlur9"
       result="element_2"
       in="SourceAlpha"
       stdDeviation="4" />
    <feDisplacementMap
       id="feDisplacementMap11"
       result="element_3"
       in2="element_1"
       in="element_2"
       scale="100" />
    <feComposite
       id="feComposite13"
       result="element_4"
       in2="element_3"
       in="element"
       operator="in" />
    <feMerge
       id="feMerge15">
      <feMergeNode
         id="feMergeNode17"
         in="element_4" />
    </feMerge>
  </filter>
  <g
     id="g19"
     transform="translate(150,150) scale(1.5)">
    <path
       id="path21"
       style="filter: url(#uwebt); stroke: rgb(171, 146, 179);"
       d="M0,0L1.8082146045426815,-7.402764103867768C3.616429209085363,-14.805528207735536,7.232858418170726,-29.611056415471072,4.1460919478085385,-36.493945055447114C1.0593254774463512,-43.376833695423144,-8.730636672363387,-42.337082767639686,-11.422030794734788,-36.847552343714C-14.11342491710619,-31.358021919788317,-9.706251012039257,-21.418711999720404,-4.572131870558349,-18.838750864480684C0.5619872709225593,-16.258789729240966,6.423051648817442,-21.038177378829438,9.820274252764246,-19.315291911059667C13.217496856711053,-17.5924064432899,14.150877686709782,-9.367247858161887,19.985817373356774,-5.0144474730994855C25.820757060003768,-0.661647088037083,36.557255603299026,-0.18120490304028858,35.45431208008275,5.912357831211119C34.351368556866476,12.005920565462525,21.408982967138677,23.712603848968545,11.63583964348607,27.77831262735385C1.8626963198334656,31.844021405739156,-4.741204737743943,28.268755679003746,-1.4069417805390438,21.677989855608573C1.9273211766658553,15.087224032213399,15.199748148653063,5.480958112158465,10.395070793990957,-4.92927242194936C5.590393439328848,-15.339502956057183,-17.291388241982574,-26.553698104217897,-16.006310139344606,-20.554782656513495C-14.721232036706638,-14.5558672088091,10.730705849880719,8.656158834760408,11.531363760784304,14.51768154646649C12.332021671687887,20.37920425817257,-11.518600393092303,8.890223638015224,-16.404538439014786,-5.49309541181654C-21.290476484937262,-19.876414461648302,-7.211730512002031,-37.154071941154484,-3.056253473811838,-44.20808543680995C1.099223564378355,-51.26209893246541,-4.6685683321764895,-48.09246844427017,3.968246133330071,-38.59412862108895C12.605060598836632,-29.095788797907737,35.6464814264046,-13.268739639740557,42.38534808311411,-13.894098813893395C49.12421473982362,-14.51945798804623,39.560527225674676,-31.597225494519083,38.580457580910874,-33.86118308619467C37.60038793614708,-36.125140677870256,45.20393616076842,-23.57528835474858,39.28961784927347,-13.057439746527272C33.37529953777852,-2.539591138305963,13.943114690167274,5.94625375501498,4.933021074812117,5.42449602745374C-4.077072540543039,4.902738299892499,-2.665074923642107,-4.626622048550925,-0.6904402016460323,-8.033183274823335C1.2841945203500424,-11.439744501095742,3.8214663474412593,-8.723506605197137,1.9568903534241633,-3.05128058023677C0.09231435940706767,2.6209454447235956,-6.174109455718341,11.24915959874572,0.24271942377036027,15.895887731790538C6.659548303259061,20.542615864835355,25.759629877361874,21.207857976902865,37.80858396461281,14.947058107620911C49.85753805186374,8.68625823833896,54.8553646522628,-4.500583612292455,47.12827351983261,-11.870262037059941C39.401182387402415,-19.23994046182743,18.949173522142964,-20.792455460730988,2.936311634519832,-16.345955804185948C-13.076550253103301,-11.899456147640912,-24.650265163090122,-1.4539418356472744,-15.816783493253077,1.168807443861914C-6.983301823416035,3.7915567233711025,22.25737642624487,-1.408459029604157,31.29274460332436,-6.622073280517441C40.32811278040384,-11.835687531430725,29.158170884901907,-17.062900280282033,21.845331912968476,-7.107793735112484C14.532492941035049,2.8473128100570637,11.076756892670122,27.98473864924747,7.059823785330214,39.71522678788093C3.042890677990307,51.44571492651439,-1.5352394883245815,49.76926536459091,-4.001276824915421,41.141828537862715C-6.467314161506261,32.51439171113453,-6.821258668373051,16.935967619601623,-13.018501327206447,0.48230908158985564C-19.215743986039843,-15.971349456421912,-31.256284796839843,-33.30024244091254,-28.21708153837099,-31.597760141761707C-25.177878279902135,-29.89527784261087,-7.058930952164426,-9.161420259818565,-5.551334823987541,-2.1691387212803805C-4.0437386958106565,4.8231428172578035,-19.147493767194597,-1.9261516884581331,-23.91788690147199,-3.991313231531234C-28.688280035749383,-6.056474774604336,-23.125311232920232,-3.4375033550346012,-15.596628248722737,-5.6306854755259375C-8.067945264525244,-7.823867596017274,1.426451901040589,-14.82920325656968,6.173650483823506,-18.331871086845883L10.920849066606422,-21.83453891712209" />
  </g>
</svg>
