<svg viewBox="0 0 300 300" preserveAspectRatio="xMidYMid" width="300" height="300"><filter id="yufmi" width="300" height="500" x="-50%" y="-50%"><feFlood flood-color="#e7c697" result="element"></feFlood><feTurbulence baseFrequency="0.02" type="fractalNoise" numOctaves="8" seed="99" result="element_1"></feTurbulence><feGaussianBlur stdDeviation="4" in="SourceAlpha" result="element_2"></feGaussianBlur><feDisplacementMap scale="100" in="element_2" in2="element_1" result="element_3"></feDisplacementMap><feComposite operator="in" in="element" in2="element_3" result="element_4"></feComposite><feMerge><feMergeNode in="element_4"></feMergeNode></feMerge></filter><g transform="translate(150,150) scale(1.5)"><path d="M0,0L1.273574925747034,2.0632009998035206C2.547149851494068,4.126401999607041,5.094299702988136,8.252803999214082,9.280851834635198,5.5989076355921865C13.467403966282262,2.945011271970291,19.29335837808232,-6.489183454880542,14.35889473958085,-0.14288710179038233C9.424431101079378,6.203409251299778,-6.270450587723621,28.33019668433093,-14.345027527626394,28.91456894499155C-22.419604467529165,29.498941205652173,-22.873876658531714,8.540898293942266,-23.982741532304722,8.680830616875664C-25.091606406077737,8.820762939809061,-26.855063962621212,30.058670497385762,-19.816480377498202,30.09776828361431C-12.777896792375191,30.13686606984286,3.06272793441431,8.977154084723256,4.242597850642225,1.2089720690316974C5.42246776687014,-6.559209946659862,-8.058417127463532,-0.9358619929233747,-10.493823757840156,0.26296069898688645C-12.92923038821678,1.4617833908971476,-4.31915875463636,-1.7639191790188171,5.420181925594045,0.47836013970770397C15.159522605824451,2.720639458434225,26.028132332704843,10.430900665803232,25.03246964341467,11.340337577155514C24.036806954124504,12.249774488507795,11.176871848663776,6.35838710384335,0.7523245176856577,7.669214599209972C-9.67222281329246,8.980042094576593,-17.66138236978797,17.49308446997428,-16.206696979965372,12.950872020271472C-14.752011590142768,8.408659570568666,-3.8534812540020607,-9.188807704234634,0.1562019861628975,-6.8103684423263315C4.165885226327855,-4.431929180418029,1.2867213705170637,17.922416618201876,0.8878544330862398,31.846890991424992C0.4889874956554159,45.771365364648105,2.57041747660456,51.265968312474435,-3.391387950944774,38.21956586757662C-9.353193378494108,25.173163422678797,-23.35823421454192,-6.41424441494317,-15.167673477255274,-16.537385525284165C-6.977112739968632,-26.660526635625164,23.409049570652467,-15.319401018685191,26.150106911683338,-17.147615773229035C28.891164252714205,-18.975830527772878,3.98711662415484,-33.973385653800534,0.4999570694258004,-40.65618163052522C-2.9872024853032393,-47.3389776072499,14.942526033798044,-45.70701443467161,18.54012716691461,-31.269856477883145C22.137728300031174,-16.832698521094674,11.403202047163019,10.409654219903974,15.403479318756052,19.63067765891723C19.403756590349087,28.85170109793048,38.13883738640331,20.051395234958335,42.80391687775212,4.387109566499246C47.468996369100935,-11.277176101959846,38.064074555744334,-33.80544157590588,29.407780069692137,-28.974484950261214C20.751485583639944,-24.143528324616547,12.843818424892152,8.046650400618827,10.64624509465364,14.806836823568371C8.448671764415131,21.567023246517913,11.961192262685897,2.897217367181625,14.391448142319891,-9.858973533822802C16.821704021953884,-22.61516443482723,18.169695282951107,-29.457740357499798,15.591109227535576,-35.4443595890995C13.012523172120043,-41.4309788206992,6.5073598002917565,-46.56164136122604,4.819166117245127,-43.6220281264587C3.130972434198496,-40.68241489169135,6.259748439933523,-29.672525881629834,8.920221843146635,-22.21872205554899C11.580695246359749,-14.764918229468151,13.77286604705095,-10.867199587367988,14.499834648422741,-4.59700610717343C15.226803249794534,1.673187373021129,14.488569651846918,10.315855691310086,13.318938045980525,6.549710595541095C12.149306440114131,2.783565499772104,10.54827682632896,-13.391393010054834,13.639774411017282,-17.521539768199318C16.731271995705605,-21.651686526343802,24.515296778867423,-13.73702153280583,17.207942008567652,-11.057077207547426C9.900587238267883,-8.377132882289024,-12.498147085493473,-10.931909225310186,-20.656818631488335,-13.810726643163978C-28.815490177483195,-16.689544061017767,-22.73409894571156,-19.892402553704184,-14.710587954094299,-13.265234044563758C-6.68707696247704,-6.638065535423333,3.278553788985846,9.819129975543936,9.67210384508879,12.889802260123165C16.065653901191734,15.960474544702393,18.887123261934736,5.644623602893583,16.594354093189562,-2.105006280057016C14.301584924444388,-9.854636163007616,6.894577226211036,-15.038044987100003,3.1910733770943605,-17.629749399146196L-0.5124304720223151,-20.22145381119239" style="filter: url(#yufmi); stroke: rgb(231, 198, 151);"></path></g></svg>