<svg viewBox="0 0 300 300" preserveAspectRatio="xMidYMid" width="300" height="300"><filter id="ixlug" width="300" height="500" x="-50%" y="-50%"><feFlood flood-color="#85754e" result="element"></feFlood><feTurbulence baseFrequency="0.02" type="fractalNoise" numOctaves="8" seed="65" result="element_1"></feTurbulence><feGaussianBlur stdDeviation="5" in="SourceAlpha" result="element_2"></feGaussianBlur><feDisplacementMap scale="100" in="element_2" in2="element_1" result="element_3"></feDisplacementMap><feComposite operator="in" in="element" in2="element_3" result="element_4"></feComposite><feMerge><feMergeNode in="element_4"></feMergeNode></feMerge></filter><g transform="translate(150,150) scale(1.5)"><path d="M0,0L3.3091340655114756,-9.524391221680439C6.618268131022951,-19.048782443360878,13.236536262045902,-38.097564886721756,14.264548885476172,-38.8572857459041C15.292561508906442,-39.61700660508644,10.73031862474403,-22.087665880090245,4.739836391249923,-16.961066131236336C-1.250645842244185,-11.834466382382423,-8.66936742506999,-19.110607609670794,-12.447600897415025,-12.974053988653768C-16.22583436976006,-6.837500367636743,-16.36357973162433,12.711748101685682,-9.859271987768857,21.47195234569692C-3.3549642439133844,30.232156589708158,9.79139660566183,28.20331660840821,9.99905782296179,24.25523320166766C10.20671904026175,20.30714979492711,-2.5243193747135493,14.439822962745962,-2.5107290652602847,0.5767430338397226C-2.49713875580702,-13.286336895066517,10.261080278074807,-35.145169920697846,21.971977063712753,-36.40768657561587C33.6828738493507,-37.67020323053388,44.34644838674477,-18.336403514738585,36.87064308588134,-8.294573984681763C29.394837785017913,1.7472555453750567,3.779652645896995,2.497114889693399,-1.0062851065276401,10.064300985031913C-5.792222858952275,17.631487080370427,10.251086775319372,32.015999926729116,16.905713046287982,31.369758833684322C23.56033931725659,30.72351774063953,20.826282224922167,15.046522708191258,11.882846113659681,12.979166546396044C2.9394100023971976,10.911810384600832,-12.213405127793344,22.454093093458678,-13.511659090582164,29.27783162109738C-14.809913053370984,36.10157014873609,-2.253605848758083,38.206764495155646,1.6838289192219902,29.202495931111333C5.621263687202063,20.198227367067012,0.9398260185493088,0.0844958925588255,-7.152441039688165,-14.749555449641928C-15.244708097925638,-29.58360679184268,-26.747804545747833,-39.137978001735995,-22.848317022317122,-41.871929952902995C-18.94882949888641,-44.60588190406999,0.35324199579719817,-40.51941459651067,2.196092360884866,-39.73557895237381C4.038942725972534,-38.95174330823694,-11.577428038535741,-41.47053932752254,-11.989083644528183,-30.949473748673856C-12.400739250520626,-20.42840816982517,2.3923203020027657,3.132519007157791,9.755751444671514,8.538356191068074C17.119182587340262,13.944193374978354,17.052985320154367,1.1949405658159549,12.333910951615366,-5.096683114839395C7.614836583076366,-11.388306795494746,-1.7571148868157414,-11.22230134764305,-7.548543270565431,-12.398737357032676C-13.339971654315121,-13.575173366422302,-15.550876951922392,-16.094050833053252,-15.194704617938095,-13.95811033011566C-14.838532283953796,-11.822169827178067,-11.915282318377926,-5.031411354671935,-6.0675248966497115,-0.17422952561468752C-0.21976747492149507,4.682952303442559,8.552497402959066,7.60655748905092,4.614537164167978,13.837777008410647C0.6765769253768905,20.068996527770373,-15.971608430085848,29.607830380881463,-14.82006073266285,23.932064939047923C-13.66851303523985,18.256299497214385,5.282767715068887,-2.6340652395637854,3.320059229974893,-2.95021689590493C1.3573507448808968,-3.2663685522460746,-21.519346975615832,16.991692871849807,-22.60287903418671,21.820237327691924C-23.68641109275759,26.64878178353404,-2.9767774894026235,16.047809271122393,1.329983008343997,11.379424557825416C5.6367435060906175,6.711039844528439,-6.459369101771109,7.97524293034613,-8.720505553596263,7.037127199594092C-10.981642005421417,6.099011468842055,-3.4078023012099994,2.958576921520288,1.8962648064337584,-0.33129987892097956C7.200331914077516,-3.6211766793622475,10.234626425153614,-7.060495732923016,9.982964060818041,-0.8162570480990148C9.731301696482468,5.4279816367249865,6.193682456735225,21.35577805993376,4.517188200270871,24.63597990350273C2.8406939438065164,27.916181747071704,3.025324670625051,18.548789011000874,6.686281588981739,10.315054499198036C10.347238507338428,2.0813199873951973,17.484521617233273,-5.018756300139653,12.2604395149842,-14.506282022773359C7.0363574127351285,-23.99380774540706,-10.549089901657858,-35.868782903139625,-16.123847684023264,-39.03269795719751C-21.69860546638867,-42.19661301125541,-15.262673716726498,-36.64946796163864,-12.044707841895411,-33.875895436830255L-8.826741967064326,-31.102322912021872" style="filter: url(#ixlug); stroke: rgb(133, 117, 78);"></path></g></svg>