<?xml version="1.0" encoding="UTF-8" standalone="no"?>
<svg
   xmlns:dc="http://purl.org/dc/elements/1.1/"
   xmlns:cc="http://creativecommons.org/ns#"
   xmlns:rdf="http://www.w3.org/1999/02/22-rdf-syntax-ns#"
   xmlns:svg="http://www.w3.org/2000/svg"
   xmlns="http://www.w3.org/2000/svg"
   version="1.1"
   id="svg2"
   height="300"
   width="300"
   preserveAspectRatio="xMidYMid"
   viewBox="0 0 300 300">
  <metadata
     id="metadata27">
    <rdf:RDF>
      <cc:Work
         rdf:about="">
        <dc:format>image/svg+xml</dc:format>
        <dc:type
           rdf:resource="http://purl.org/dc/dcmitype/StillImage" />
      </cc:Work>
    </rdf:RDF>
  </metadata>
  <defs
     id="defs25" />
  <filter
     y="-50%"
     x="-50%"
     height="500"
     width="300"
     id="giusu">
    <feFlood
       id="feFlood5"
       result="element"
       flood-color="#676767" />
    <feTurbulence
       id="feTurbulence7"
       result="element_1"
       seed="51"
       numOctaves="8"
       type="fractalNoise"
       baseFrequency="0.02" />
    <feGaussianBlur
       id="feGaussianBlur9"
       result="element_2"
       in="SourceAlpha"
       stdDeviation="5" />
    <feDisplacementMap
       id="feDisplacementMap11"
       result="element_3"
       in2="element_1"
       in="element_2"
       scale="100" />
    <feComposite
       id="feComposite13"
       result="element_4"
       in2="element_3"
       in="element"
       operator="in" />
    <feMerge
       id="feMerge15">
      <feMergeNode
         id="feMergeNode17"
         in="element_4" />
    </feMerge>
  </filter>
  <g
     id="g19"
     transform="translate(150,150) scale(1.5)">
    <path
       id="path21"
       style="filter: url(#giusu); stroke: rgb(103, 103, 103);"
       d="M0,0L5.724509129280289,-9.899384549507149C11.449018258560578,-19.798769099014297,22.898036517121156,-39.597538198028595,23.359359358146325,-35.80449674919165C23.820682199171497,-32.0114553003547,13.29430962266126,-4.626603303666508,12.978084895591433,12.576558464614589C12.661860168521608,29.779720232895688,22.555783290892194,36.80119177276969,24.078646796856027,34.36008292274995C25.601510302819865,31.918974072730215,18.753314192376948,20.015284832816736,10.975464376396689,4.573125992460064C3.1976145604164294,-10.86903284789661,-5.509888961101172,-29.849661288696478,-4.691293860593534,-29.885958384259713C-3.872698760085896,-29.92225547982295,6.47199496244698,-11.014221230149555,7.019746659004885,-1.2419351502193696C7.567498355562789,8.530350929710817,-1.6816919738542806,9.166888839897794,-4.096139358437229,7.745479108475711C-6.510586743020178,6.324069377053626,-2.0902911827690067,2.844712004022481,1.757511623120413,1.2534526577162337C5.605314429009833,-0.33780668859001356,8.880624480537502,-0.04096800817136231,13.84241245684846,-4.732875977839413C18.80420043315942,-9.424783947507464,25.452466334253668,-19.105438567262215,22.08754158352836,-19.299292574830066C18.722616832803055,-19.493146582397912,5.344501430258198,-10.200199977778851,9.686754996837111,-2.085110133046784C14.029008563416024,6.029979711685283,36.09163109911871,12.967212796530358,36.48574285689237,3.5577102561154437C36.87985461466603,-5.851792284299469,15.605455594510671,-31.608030449974372,0.6995215729462885,-36.54888668284521C-14.206412448618094,-41.48974291571605,-22.743881471591497,-25.615217215782824,-16.12555106512736,-14.971808793059239C-9.507220658663226,-4.328400370335653,12.26690917723845,1.0838907751782934,15.32612781845646,6.086415065286662C18.385346459674466,11.08893935539503,2.7296539062088065,15.68169679009782,-9.910759997703991,17.913522559134936C-22.551173901616785,20.145348328172048,-32.176309155976725,20.016242431543485,-27.803249662482436,11.269903379956087C-23.430190168988148,2.5235643283686873,-5.05893592763964,-14.840007878177548,6.8301100109771165,-12.907891511306012C18.719155949593873,-10.975775144434477,24.125993585478877,10.252029795854828,20.17716173038053,21.288767018950267C16.22832987528218,32.3255042420457,2.923828529200483,33.17117374794727,-11.823596176724907,26.29186235101493C-26.571020882650295,19.41255095408259,-42.761368948419374,4.808258654316336,-38.96617638412195,-1.4028864133147212C-35.170983819824514,-7.614031480945778,-11.390250625460574,-5.432029316441637,-1.694432212881973,-6.982588352541639C8.001386199696627,-8.533147388641641,3.6122898304898885,-13.816267625345784,0.12445746230157262,-14.783920323796771C-3.3633749058867433,-15.751573022247758,-5.949943273056635,-12.40375818244559,-11.125515732209053,-3.8428155561499864C-16.301088191361472,4.718127070145618,-24.065664742496413,18.492197482934657,-30.853927361666834,20.119108729557162C-37.64218998083726,21.746019976179667,-43.45413866804316,11.225772056635641,-38.261244286737394,8.389914812780447C-33.06834990543164,5.554057568925254,-16.870612455614218,10.402591000758893,-8.529738890513627,6.389798113082646C-0.18886532541303497,2.377005225406399,0.29514435497073255,-10.497113981779734,-0.19292946302225383,-12.816878969332965C-0.6810032810152402,-15.1366439568862,-2.1411605973849803,-6.902054724806533,-1.6642735913976,-5.255997504820101C-1.1873865854102188,-3.609940284833669,1.226544742934283,-8.552415076940472,-4.645113985350758,-10.718865523483862C-10.516772713635799,-12.885315970027253,-24.67402149855038,-12.275742071007233,-25.218182787116945,-5.261613432013701C-25.762344075683504,1.7525152069798313,-12.693417867902046,15.171198585946875,-8.23924137021664,10.44937705564491C-3.7850648725312332,5.727555525342938,-7.945638084941881,-17.134770914228042,-4.106353622995837,-22.095676201404665C-0.2670691610497933,-27.056581488581283,11.572072975252942,-14.116065623363538,13.660155084114685,-6.966507234355154C15.748237192976427,0.18305115465322996,8.085259274397176,1.5416520674522545,4.253770315107551,2.2209525238517664L0.4222813558179256,2.900252980251279" />
  </g>
</svg>
