<?xml version="1.0" encoding="UTF-8" standalone="no"?>
<svg
   xmlns:dc="http://purl.org/dc/elements/1.1/"
   xmlns:cc="http://creativecommons.org/ns#"
   xmlns:rdf="http://www.w3.org/1999/02/22-rdf-syntax-ns#"
   xmlns:svg="http://www.w3.org/2000/svg"
   xmlns="http://www.w3.org/2000/svg"
   version="1.1"
   id="svg2"
   height="300"
   width="300"
   preserveAspectRatio="xMidYMid"
   viewBox="0 0 300 300">
  <metadata
     id="metadata27">
    <rdf:RDF>
      <cc:Work
         rdf:about="">
        <dc:format>image/svg+xml</dc:format>
        <dc:type
           rdf:resource="http://purl.org/dc/dcmitype/StillImage" />
      </cc:Work>
    </rdf:RDF>
  </metadata>
  <defs
     id="defs25" />
  <filter
     y="-50%"
     x="-50%"
     height="500"
     width="300"
     id="xcyaf">
    <feFlood
       id="feFlood5"
       result="element"
       flood-color="#6f2da8" />
    <feTurbulence
       id="feTurbulence7"
       result="element_1"
       seed="12"
       numOctaves="8"
       type="fractalNoise"
       baseFrequency="0.02" />
    <feGaussianBlur
       id="feGaussianBlur9"
       result="element_2"
       in="SourceAlpha"
       stdDeviation="5" />
    <feDisplacementMap
       id="feDisplacementMap11"
       result="element_3"
       in2="element_1"
       in="element_2"
       scale="100" />
    <feComposite
       id="feComposite13"
       result="element_4"
       in2="element_3"
       in="element"
       operator="in" />
    <feMerge
       id="feMerge15">
      <feMergeNode
         id="feMergeNode17"
         in="element_4" />
    </feMerge>
  </filter>
  <g
     id="g19"
     transform="translate(150,150) scale(1.5)">
    <path
       id="path21"
       style="filter: url(#xcyaf); stroke: rgb(111, 45, 168);"
       d="M0,0L3.7072592692616926,3.1588110090145407C7.414518538523385,6.317622018029081,14.82903707704677,12.635244036058163,12.511238233818396,14.280441056175512C10.193439390590024,15.92563807629286,-1.8566768343901074,12.898410098498475,-11.671597330002783,10.15033728181421C-21.486517825615458,7.402264465129941,-29.06624259186068,4.933346809555792,-17.34919519607201,-4.114002723271186C-5.632147800283342,-13.161352256098166,25.381671757539213,-28.787133666177972,33.889522533285174,-29.267504857605008C42.397373309031146,-29.74787604903204,28.399255302700517,-15.082837021806299,16.952782076347688,-2.205241574763299C5.506308849994857,10.672353872279702,-3.3885195963801804,21.76250573913996,-2.425240233640234,20.18881346060698C-1.4619608709002865,18.615121182074006,9.359426300954645,4.377584758147789,16.700561687409582,-5.223492428537352C24.04169707386452,-14.824569615222492,27.902580674919463,-19.789187564666555,24.12649704949142,-24.391780934197087C20.350413424063376,-28.99437430372761,8.937362572152349,-33.2349430933446,5.14115207168455,-23.1040572912812C1.3449415712167487,-12.973171489217808,5.1655714221921745,11.52916890452597,6.306541796941176,22.05494293435364C7.447512171690178,32.580716964181306,5.908823070212756,29.12992463009287,7.887045836240079,23.76341962544305C9.8652686022674,18.396914620793233,15.360403235799467,11.114696945582038,11.39762920469255,1.9337946103403247C7.434855173585632,-7.247107724901388,-5.98582752216027,-18.32669472017362,-7.805986931207678,-21.7153939871761C-9.626146340255085,-25.10409325417858,0.1542175373960024,-20.80190479291131,11.60356899776982,-15.849218837719086C23.052920458143635,-10.896532882526863,36.17125950124018,-5.293349433409684,36.23838550954129,-1.6805781033531293C36.30551151784239,1.9321932267034259,23.321424491348058,3.554552437699358,15.825035546234576,10.645025550659325C8.328646601121095,17.735498663619293,6.319955737388466,30.294085678543293,5.087858246492067,31.161567253792345C3.8557607555956683,32.0290488290414,3.4002566375354997,21.20542496461551,5.950804162217486,13.01906478524503C8.501351686899474,4.832704605874547,14.057950854323616,-0.7163918884405258,17.644664854475305,-1.3750835977398619C21.231378854626996,-2.0337753070391975,22.848207687506232,2.1979377686772033,19.882102822340844,0.44886331571816385C16.915997957175456,-1.3002111372408756,9.36695939396545,-9.030073118875356,0.3934467987771688,-10.133407748009459C-8.580065796411112,-11.23674237714356,-18.978052423577665,-5.713549653777286,-24.19713704972964,-0.23183616279554942C-29.416221675881616,5.249877328186187,-29.45640430101901,10.690111586783386,-31.83418363882512,14.943012227615647C-34.211962976631234,19.19591286844791,-38.92733902710607,22.261479891515233,-29.738626376213507,11.815882800876814C-20.54991372532094,1.3702857102383987,2.542887626939015,-22.58647549410576,9.11590408083916,-24.188201439915154C15.688920534739303,-25.789927385724553,5.7421520902796335,-5.036618072999186,2.8894692148702408,8.684539138971934C0.03678633946084853,22.405696350943053,4.278189033101733,29.094701462159925,4.29581483703919,27.328950237499793C4.313440640976648,25.56319901283966,0.10728955521067673,15.342691452302525,5.2135445373330995,11.200157784162334C10.319799519455522,7.057624116022146,24.73846056946634,8.993064340278908,23.177391670621148,9.411529749441971C21.616322771775955,9.829995158605039,4.075523924074751,8.73148575267441,3.7663987333039888,6.806232004461852C3.457273542533226,4.880978256249294,20.379822008692905,2.1289801657548075,19.927498438436746,0.7112656957440691C19.475174868180588,-0.7064487742666697,1.6479792615085955,-0.7898796237936612,-13.041128216725795,4.289136744815607C-27.730235694960186,9.368153113424874,-39.281255044756975,19.609616700170402,-37.528633298726575,19.45850482527492C-35.77601155269617,19.307392950379437,-20.719748710838576,8.763705613842943,-17.003360544545448,2.3841419483348347C-13.28697237825232,-3.9954217171732727,-20.91045888752366,-6.210861711652993,-24.722202142159333,-7.318581708892854L-28.533945396795,-8.426301706132714" />
  </g>
</svg>
