<?xml version="1.0" encoding="UTF-8" standalone="no"?>
<svg
   xmlns:dc="http://purl.org/dc/elements/1.1/"
   xmlns:cc="http://creativecommons.org/ns#"
   xmlns:rdf="http://www.w3.org/1999/02/22-rdf-syntax-ns#"
   xmlns:svg="http://www.w3.org/2000/svg"
   xmlns="http://www.w3.org/2000/svg"
   version="1.1"
   id="svg2"
   height="300"
   width="300"
   preserveAspectRatio="xMidYMid"
   viewBox="0 0 300 300">
  <metadata
     id="metadata27">
    <rdf:RDF>
      <cc:Work
         rdf:about="">
        <dc:format>image/svg+xml</dc:format>
        <dc:type
           rdf:resource="http://purl.org/dc/dcmitype/StillImage" />
      </cc:Work>
    </rdf:RDF>
  </metadata>
  <defs
     id="defs25" />
  <filter
     y="-50%"
     x="-50%"
     height="500"
     width="300"
     id="vmggw">
    <feFlood
       id="feFlood5"
       result="element"
       flood-color="#95918c" />
    <feTurbulence
       id="feTurbulence7"
       result="element_1"
       seed="99"
       numOctaves="8"
       type="fractalNoise"
       baseFrequency="0.02" />
    <feGaussianBlur
       id="feGaussianBlur9"
       result="element_2"
       in="SourceAlpha"
       stdDeviation="4" />
    <feDisplacementMap
       id="feDisplacementMap11"
       result="element_3"
       in2="element_1"
       in="element_2"
       scale="100" />
    <feComposite
       id="feComposite13"
       result="element_4"
       in2="element_3"
       in="element"
       operator="in" />
    <feMerge
       id="feMerge15">
      <feMergeNode
         id="feMergeNode17"
         in="element_4" />
    </feMerge>
  </filter>
  <g
     id="g19"
     transform="translate(150,150) scale(1.5)">
    <path
       id="path21"
       style="filter: url(#vmggw); stroke: rgb(149, 145, 140);"
       d="M0,0L5.5356125670324605,-7.6263500992934405C11.071225134064921,-15.252700198586881,22.142450268129842,-30.505400397173762,21.00215222717059,-40.18336066628065C19.861854186211342,-49.86132093538754,6.510032970227922,-53.964541275014426,2.846979337558248,-42.67800962649952C-0.816074295111425,-31.391477977984607,5.209639655532649,-4.715194341327891,8.688934124923673,4.96418001076988C12.168228594314698,14.64355436286765,13.101103582452671,7.326019430406475,8.388340312487955,-3.592014577519011C3.675577042523236,-14.510048585444498,-6.682824485544174,-29.028581668834295,-12.33130369791733,-28.63052836538243C-17.97978291029049,-28.232475061930558,-18.918339806969392,-12.91783537163702,-16.310072895853672,-11.59489639940141C-13.701805984737952,-10.271957427165798,-7.546715265827607,-22.940719172988114,5.223409381273636,-21.461532458866927C17.993534028374878,-19.98234574474574,37.37869260366702,-4.355210570681047,37.27051554745591,3.4976951505528917C37.162338491244796,11.350600871786831,17.560825803530427,11.429277140190017,3.781942889551832,7.199647513664452C-9.996940024426765,2.970017887138889,-17.953193164669592,-5.567917634315424,-17.62465659295289,-4.915468044089251C-17.296120021236188,-4.2630184538630775,-8.682793737559956,5.579816248043581,-6.936244841903532,7.179625776939725C-5.189695946247109,8.779435305835868,-10.309924438610492,2.1362196617214972,-17.60519063519566,3.7864218206740596C-24.900456831780826,5.4366239796266225,-34.370760732587776,15.380243941646118,-35.60981689801349,17.013240566635417C-36.8488730634392,18.64623719162471,-29.856681493483677,11.968610479583807,-28.236293802024214,11.650325127908218C-26.615906110564758,11.332039776232627,-30.367322297601355,17.37309578492235,-27.314276562073843,10.87437003434757C-24.261230826546328,4.375644283772788,-14.4037231684547,-14.662863226066497,-4.662283759977076,-8.997778307366097C5.079155648500548,-3.3326933886656995,14.704526807364168,27.035983958574384,9.472442396274726,28.247948428446414C4.240357985185286,29.459912898318446,-15.849181995857217,1.5151644908224284,-18.36475542197887,-16.98348185278917C-20.880328848100522,-35.482128196400765,-5.821935719301326,-44.53467247612794,-4.969601788828885,-41.673326206846255C-4.117267858356444,-38.81197993756458,-17.470993126210757,-24.036743119274057,-22.77617513851541,-18.27967719148084C-28.08135715082006,-12.522611263687619,-25.337995907575046,-15.783716226391707,-14.905726021482739,-8.016915680634828C-4.47345613539043,-0.25011513487794446,13.647722393549172,18.544590919339907,16.698774399060394,29.223588714238296C19.74982640457162,39.90258650913669,7.730751886654468,42.46587604471562,4.288662777879339,39.65425106935683C0.846573669104211,36.842626093998035,5.981469969471107,28.65608660770152,5.595624262928865,13.475201585846893C5.209778556386622,-1.7056834360077318,-0.696809157064759,-23.880913993420467,-1.2543746305543058,-19.17827955887798C-1.811940104043852,-14.475645124335493,2.979516662428436,17.104854302162217,2.4591135566094793,21.925277345287522C1.9387104507905217,26.745700388412832,-3.8935525273196805,4.806047048165736,-7.663397716130422,-3.252295882122556C-11.433242904941164,-11.310638812410849,-13.140670304452446,-5.487671332740336,-11.418350487918408,-0.3018827144298375C-9.69603067138437,4.883905903880661,-4.543963638805014,9.432515660831147,-11.76713465881479,12.912736534924651C-18.99030567882457,16.392957409018152,-38.588714751423474,18.804789400254673,-38.42522701823078,17.137376249152194C-38.261739285038075,15.46996309804971,-18.33635474605376,9.723304804608228,-8.349329121272874,8.073807624156919C1.6376965035080142,6.424310443705607,1.6863632140854776,8.871974376244468,-0.8314965433548829,11.118794869380956C-3.3493563007952436,13.365615362517442,-8.433742526253429,15.411592416251557,-17.54929548021743,17.662129211762476C-26.66484843418143,19.912666007273394,-39.811568116651245,22.36776254456112,-38.49654349156997,16.965727977384724C-37.1815188664887,11.56369341020833,-21.404749933856337,-1.6954722614321867,-13.516365467540155,-8.325055097252445L-5.627981001223974,-14.954637933072704" />
  </g>
</svg>
