<?xml version="1.0" encoding="UTF-8" standalone="no"?>
<svg
   xmlns:dc="http://purl.org/dc/elements/1.1/"
   xmlns:cc="http://creativecommons.org/ns#"
   xmlns:rdf="http://www.w3.org/1999/02/22-rdf-syntax-ns#"
   xmlns:svg="http://www.w3.org/2000/svg"
   xmlns="http://www.w3.org/2000/svg"
   version="1.1"
   id="svg2"
   height="300"
   width="300"
   preserveAspectRatio="xMidYMid"
   viewBox="0 0 300 300">
  <metadata
     id="metadata27">
    <rdf:RDF>
      <cc:Work
         rdf:about="">
        <dc:format>image/svg+xml</dc:format>
        <dc:type
           rdf:resource="http://purl.org/dc/dcmitype/StillImage" />
      </cc:Work>
    </rdf:RDF>
  </metadata>
  <defs
     id="defs25" />
  <filter
     y="-50%"
     x="-50%"
     height="500"
     width="300"
     id="tezpf">
    <feFlood
       id="feFlood5"
       result="element"
       flood-color="#6eaea1" />
    <feTurbulence
       id="feTurbulence7"
       result="element_1"
       seed="93"
       numOctaves="8"
       type="fractalNoise"
       baseFrequency="0.02" />
    <feGaussianBlur
       id="feGaussianBlur9"
       result="element_2"
       in="SourceAlpha"
       stdDeviation="5" />
    <feDisplacementMap
       id="feDisplacementMap11"
       result="element_3"
       in2="element_1"
       in="element_2"
       scale="100" />
    <feComposite
       id="feComposite13"
       result="element_4"
       in2="element_3"
       in="element"
       operator="in" />
    <feMerge
       id="feMerge15">
      <feMergeNode
         id="feMergeNode17"
         in="element_4" />
    </feMerge>
  </filter>
  <g
     id="g19"
     transform="translate(150,150) scale(1.5)">
    <path
       id="path21"
       style="filter: url(#tezpf); stroke: rgb(110, 174, 161);"
       d="M0,0L3.0190677654252074,4.071443685917605C6.038135530850415,8.14288737183521,12.07627106170083,16.28577474367042,13.791096633832712,16.302424838895565C15.505922205964595,16.31907493412071,12.897437819377943,8.209487752735793,15.034327631445388,11.578529347782123C17.17121744351283,14.94757094282845,24.053481454234372,29.795241314306026,22.075061319675022,32.21646372777378C20.09664118511567,34.63768614124153,9.257536905275428,24.632460596699463,2.9006518037340587,21.133635042392385C-3.4562332978073105,17.634809488085303,-5.330899221049807,20.642383924013213,-2.833944147488139,16.850317938627573C-0.3369890739264694,13.058251953241932,6.531586996439366,2.466545546542739,7.6232538915752155,-1.2426959846997034C8.714920786711065,-4.951937515942146,4.029678506616929,-1.7787141717278394,-2.7771397430285827,3.9830866497533446C-9.583957992674096,9.744887471234529,-18.512352211870983,18.09526576998259,-18.29077965996462,17.208731430981544C-18.069207108058254,16.3221970919805,-8.697667785048639,6.198750115230344,-8.71702601178486,2.4972261420321518C-8.73638423852108,-1.20429783116604,-18.146640015003136,1.5161011991877298,-24.561445624219566,5.959843874319239C-30.97625123343599,10.403586549450749,-34.39560667538678,16.57067286936,-29.577504516280605,20.982765671047268C-24.75940235717443,25.394858472734537,-11.703842597011285,28.051957756199826,-6.211102787989724,22.473450302914976C-0.7183629789681618,16.894942849630127,-2.788443121088185,3.080828659595136,-4.567635626855486,-4.463784283873277C-6.346828132622788,-12.008397227341689,-7.835133002037367,-13.283508924243526,-0.30459787278514217,-14.301039146167552C7.225937256467083,-15.31856936809158,23.775312384386112,-16.0785181150378,26.10696418868581,-22.189184256068145C28.438615992985508,-28.299850397098496,16.552544473665876,-39.761233932212974,7.428350519544409,-35.64548590718644C-1.6958434345770543,-31.529737882159914,-8.058159823500349,-11.83685829699238,-10.263705948671628,-0.05261980437524638C-12.469252073842904,11.731618688241888,-10.518027935262165,15.607216088308622,-4.159327055146791,12.814789390187585C2.199373824968583,10.022362692066547,12.96555144661859,0.5619118957577385,16.656632453409575,1.045999341119726C20.34771346020056,1.5300867864817134,16.96369785213252,11.958712473514495,12.13147997595258,17.68280706158403C7.299262099772642,23.406901649653562,1.0188419554808057,24.42646513875984,0.9592368067384083,26.32204302525298C0.8996316579960109,28.217620911746117,7.060841504803053,30.98921319562611,13.532201629579511,31.07381279146653C20.00356175435597,31.158412387306953,26.785072157101844,28.556019295107806,24.21744104604536,24.160191560456877C21.649809934988873,19.764363825805948,9.733037310130026,13.575101448703238,2.9674003768836887,9.375705307399922C-3.7982365563626486,5.176309166096608,-5.412737797996476,2.9667792605926873,-4.457400889878687,-0.7676149466731004C-3.5020639817608985,-4.502009153938888,0.023111076108506268,-9.761267662966542,-0.36085471709593886,-13.19022255308187C-0.744820510300384,-16.6191774431972,-5.037927154578679,-18.2178287144002,-7.627605078665917,-7.7881160391837465C-10.217283002753156,2.6415966360327054,-11.103532206649337,25.099673257668613,-13.57046379195445,26.681755637893275C-16.037395377259564,28.263838018117937,-20.08500934397361,8.969926156931354,-18.28930731500672,7.623386800643891C-16.493605286039827,6.276847444356427,-8.854587261392002,22.877680592968083,-9.736037822684636,30.593307422277235C-10.617488383977271,38.30893425158639,-20.019407531210362,37.13935476159304,-10.258758494152985,33.74301148562856C-0.4981094570956053,30.346668209664067,28.425107764252246,24.723561147728446,39.71743194735046,14.811516017302793C51.00975613044868,4.899470886877143,44.67118727529727,-9.301512312038538,33.64869266813182,-10.34581097272584C22.62619806096636,-11.39010963341314,6.919777701786863,0.7222762441279418,-7.928166650666535,7.441033185038853C-22.776111003119933,14.159790125949765,-36.76557934884723,15.484918130230508,-43.76031352171088,16.14748213237088L-50.75504769457453,16.81004613451125" />
  </g>
</svg>
