<svg viewBox="0 0 300 300" preserveAspectRatio="xMidYMid" width="300" height="300"><filter id="rvczz" width="300" height="500" x="-50%" y="-50%"><feFlood flood-color="#a7f432" result="element"></feFlood><feTurbulence baseFrequency="0.02" type="fractalNoise" numOctaves="8" seed="43" result="element_1"></feTurbulence><feGaussianBlur stdDeviation="5" in="SourceAlpha" result="element_2"></feGaussianBlur><feDisplacementMap scale="100" in="element_2" in2="element_1" result="element_3"></feDisplacementMap><feComposite operator="in" in="element" in2="element_3" result="element_4"></feComposite><feMerge><feMergeNode in="element_4"></feMergeNode></feMerge></filter><g transform="translate(150,150) scale(1.5)"><path d="M0,0L1.0105598190390892,3.1821779513659125C2.0211196380781784,6.364355902731825,4.042239276156357,12.72871180546365,-3.3597112858786,12.00231477922507C-10.761661847913556,11.27591775298649,-27.586682610061647,3.458767797777507,-29.82116874861024,-0.07996929415690612C-32.05565488715883,-3.6187063860913193,-19.699606402107925,-2.8790306147511617,-7.960099752901804,-3.2120479142184073C3.779406896304316,-3.5450652136856524,14.902371709665648,-4.950775583960301,16.943413802717497,-4.315825644245543C18.98445589576935,-3.680875704530786,11.94357526851172,-1.005265454826623,7.376288201244549,7.788540615492099C2.809001133977376,16.58234668581082,0.7153076267006602,31.494348576744102,2.7627268033569026,22.329223568283805C4.810145980013145,13.164098559823511,10.998677840602346,-20.078153348030362,11.019194555163201,-18.108053497567465C11.039711269724059,-16.137953647104567,4.89221283825657,21.0444979616751,1.131218068894206,28.48449486768366C-2.629776700468158,35.924491773692225,-4.004267807725396,13.622033976929684,-10.38598648128217,-0.4423186861855193C-16.767705154838946,-14.506671349300722,-28.15665139469526,-20.332918878768588,-27.24901911509833,-22.886818636484172C-26.341386835501403,-25.440718394199756,-13.137176036451235,-24.72227038016306,-5.78780264942065,-20.41785675812451C1.5615707376099355,-16.11344313608596,3.056106712620939,-8.223063906045558,3.1064787581864963,-11.551117165861392C3.1568508037520537,-14.879170425677223,1.763058919872165,-29.42565617534929,-0.18227938105113162,-22.119734140162024C-2.127617681974428,-14.813812104974756,-4.624502399941132,14.344517715071845,-4.006219728339003,22.612217850872774C-3.3879370567368747,30.879917986673707,0.3455130044340877,18.256988438228966,-3.7448385279178935,5.2188788169381715C-7.835190060269875,-7.819230804352623,-19.7493431861448,-21.272520498489474,-17.047485233853504,-27.32517019840335C-14.345627281562207,-33.37781989831722,2.9722417488953106,-32.029829604008114,1.8962470642837097,-26.34369508231947C0.8202523796721088,-20.657560560630827,-18.649606020008612,-10.633281811562641,-22.711683660930575,-5.365812415487998C-26.773761301852534,-0.09834301941335472,-15.42805818401574,0.4123170236677456,-9.069750493845481,0.2321280220573908C-2.711442803675222,0.05193902044703602,-1.340530541171498,-0.8190990258547738,-5.356343534551796,-0.10293594677205553C-9.372156527932093,0.6132271323106628,-18.774694777196412,2.916591336777909,-19.894110979672625,3.0912139634781868C-21.013527182148845,3.2658365901784645,-13.84982133783696,1.311717639111773,-17.264138055528626,3.1336895719265314C-20.678454773220288,4.95566150474129,-34.6707940529155,10.553724321437498,-33.60974784176712,8.75044790755704C-32.54870163061874,6.947171493676582,-16.43426992862676,-2.2574441507805405,-11.06334093914743,-11.356506494728386C-5.692411949668099,-20.455568838676232,-11.064985672701413,-29.4490778821148,-14.180132272132958,-33.04798714597213C-17.295278871564506,-36.64689640982945,-18.152998347394284,-34.85120589410553,-19.539194922365056,-30.183864712401594C-20.925391497335823,-25.516523530697654,-22.840065171447588,-17.977531683013694,-13.648571749605274,-12.41732330298847C-4.4570783277629555,-6.8571149229632455,15.840582190033441,-3.27569001059676,25.97507786273441,-7.768100888834294C36.10957353543537,-12.260511767071828,36.080904363040915,-24.82675843591338,31.40979685927099,-18.315509733463934C26.738689355501066,-11.804261031014487,17.425143520355675,13.784483042725956,13.203963587246099,11.25096746831751C8.982783654136524,8.717451893909061,9.853969623062762,-21.938323328648277,4.422270178790996,-28.00933290493983C-1.0094292654807697,-34.08034248123138,-12.744014122950539,-15.56658641125715,-13.824245078249495,-9.744901294746798C-14.904476033548452,-3.9232161782364474,-5.330353086676597,-10.793602015189977,-2.429181385752704,-4.827020208441959C0.4719903151711895,1.1395615983060594,-3.2997892298528786,19.943111048755625,-2.34269680431777,21.409428438106097C-1.385604378782661,22.87574582745657,4.3003600173116245,7.004831155707949,7.143342215358768,-0.9306261801663611L9.98632441340591,-8.866083516040671" style="filter: url(#rvczz); stroke: rgb(167, 244, 50);"></path></g></svg>