<?xml version="1.0" encoding="UTF-8" standalone="no"?>
<svg
   xmlns:dc="http://purl.org/dc/elements/1.1/"
   xmlns:cc="http://creativecommons.org/ns#"
   xmlns:rdf="http://www.w3.org/1999/02/22-rdf-syntax-ns#"
   xmlns:svg="http://www.w3.org/2000/svg"
   xmlns="http://www.w3.org/2000/svg"
   version="1.1"
   id="svg2"
   height="300"
   width="300"
   preserveAspectRatio="xMidYMid"
   viewBox="0 0 300 300">
  <metadata
     id="metadata27">
    <rdf:RDF>
      <cc:Work
         rdf:about="">
        <dc:format>image/svg+xml</dc:format>
        <dc:type
           rdf:resource="http://purl.org/dc/dcmitype/StillImage" />
      </cc:Work>
    </rdf:RDF>
  </metadata>
  <defs
     id="defs25" />
  <filter
     y="-50%"
     x="-50%"
     height="500"
     width="300"
     id="olebk">
    <feFlood
       id="feFlood5"
       result="element"
       flood-color="#f0e891" />
    <feTurbulence
       id="feTurbulence7"
       result="element_1"
       seed="89"
       numOctaves="8"
       type="fractalNoise"
       baseFrequency="0.02" />
    <feGaussianBlur
       id="feGaussianBlur9"
       result="element_2"
       in="SourceAlpha"
       stdDeviation="4" />
    <feDisplacementMap
       id="feDisplacementMap11"
       result="element_3"
       in2="element_1"
       in="element_2"
       scale="100" />
    <feComposite
       id="feComposite13"
       result="element_4"
       in2="element_3"
       in="element"
       operator="in" />
    <feMerge
       id="feMerge15">
      <feMergeNode
         id="feMergeNode17"
         in="element_4" />
    </feMerge>
  </filter>
  <g
     id="g19"
     transform="translate(150,150) scale(1.5)">
    <path
       id="path21"
       style="filter: url(#olebk); stroke: rgb(240, 232, 145);"
       d="M0,0L2.3988226750277404,-6.065027527031733C4.797645350055481,-12.130055054063465,9.595290700110962,-24.26011010812693,14.403242604340708,-19.320263650358235C19.211194508570454,-14.380417192589539,24.029452966974468,7.629330777011319,18.94850022201716,18.310928368678674C13.867547477059855,28.99252596034603,-1.1126164712587698,28.34597317407988,-5.451616642487823,21.499631165668227C-9.790616813716877,14.653289157256571,-3.4884532078563595,1.607157926699407,-4.133899521246132,-5.387441900223209C-4.7793458346359055,-12.382041727145825,-12.372402067275969,-13.325110150433892,-7.062112271690623,-4.139752985639159C-1.7518224761052785,5.045604179155575,16.461813347705473,24.35938693203311,20.048466204202466,24.418311947439538C23.635119060699456,24.477236962845964,12.594788949882686,5.281304240781285,7.786204667611713,0.18796813479409025C2.9776203853407424,-4.905367971193105,4.400781931615571,4.103892538897185,4.602263980530913,1.8443879722224157C4.8037460294462555,-0.4151165944523534,3.7835485810021128,-13.943386237892181,12.387390740081534,-16.33092175805233C20.991232899160956,-18.71845727821248,39.21911466576394,-9.965258675092953,29.871687136963825,-5.534735582205472C20.52425960816371,-1.1042124893179905,-16.398477216039502,-0.9963649066625565,-28.118151492508563,-5.956252625838995C-39.83782576897762,-10.916140345015434,-26.354437497712535,-20.94376336602374,-8.08056365505228,-15.224772284871944C10.193310187607974,-9.505781203720147,33.257669601663395,11.959823979591759,35.53878947126561,12.26573956679002C37.81990934086782,12.571655153988278,19.317789666016825,-8.28211885492711,14.523814889808452,-18.28343079416082C9.729840113600078,-28.28474273339453,18.644010236034323,-27.433592602946568,19.81367625437279,-21.554373195617256C20.983342272711262,-15.67515378828794,14.408504186953957,-4.7678651040772735,9.656423008534492,-0.6004025337800585C4.904341830115027,3.5670600365171565,1.9750175590334016,0.994696492900921,0.3121194243410249,-2.630284480248193C-1.3507787103513516,-6.255265453397306,-1.747250708654479,-10.932863856079297,5.668665080470317,-16.23791315115671C13.084580869595115,-21.542962446234124,28.312884446147837,-27.47546263370696,22.954842122256835,-16.861723453809432C17.596799798365836,-6.247984273911904,-8.347588425968885,20.911994273355987,-10.420147723235974,26.506684642301984C-12.492707020503062,32.10137501124798,9.306562609297483,16.13077720187209,14.745981972817056,11.381224895437503C20.18540133633663,6.631672589002918,9.264970433575229,13.103165785509642,-1.7744967431593404,14.052314779518134C-12.81396391989391,15.001463773526629,-23.97246737060165,10.428268565036893,-26.053729832770685,10.250307021264275C-28.13499229493972,10.072345477491655,-21.139013768570052,14.289617598436156,-23.670807332974128,14.082382382336654C-26.202600897378204,13.87514716623715,-38.262166552556025,9.243404613093645,-33.75475474325407,8.297079962065762C-29.247342933952115,7.350755311037878,-8.172953660170393,10.089848562125615,-1.4967118523957386,10.3242622435842C5.179529955378916,10.558675925042783,-2.542375702853499,8.288410036872214,-6.007245679882205,6.250543686222237C-9.47211565691091,4.212677335572261,-8.679949952735907,2.4072105224428775,-6.464166468683056,5.253501072542982C-4.248382984630206,8.099791622643087,-0.6089817206995072,15.59783953597268,4.20619416391795,16.29631833749562C9.021370048535408,16.994797139018562,15.012320553839624,10.893706828734853,17.949724410925693,6.74591735395975C20.88712826801176,2.5981278791846476,20.77098547687968,0.40363923991815365,24.073292302658672,-5.341895965638897C27.375599128437663,-11.087431171195947,34.09635557112773,-20.384012943043555,35.82651645513708,-23.92298327199329C37.556677339146425,-27.461953600943026,34.29624266447505,-25.243312486994895,27.74301726478206,-14.963828827362178C21.18979186508907,-4.684345167729463,11.34377574037446,13.655981037587837,5.526784199828763,23.025781732770042C-0.29020734071693466,32.39558242795224,-2.0781742970937183,32.794857612999344,-2.9721577752821102,32.994495205522895L-3.866141253470502,33.194132798046454" />
  </g>
</svg>
