<?xml version="1.0" encoding="UTF-8" standalone="no"?>
<svg
   xmlns:dc="http://purl.org/dc/elements/1.1/"
   xmlns:cc="http://creativecommons.org/ns#"
   xmlns:rdf="http://www.w3.org/1999/02/22-rdf-syntax-ns#"
   xmlns:svg="http://www.w3.org/2000/svg"
   xmlns="http://www.w3.org/2000/svg"
   version="1.1"
   id="svg2"
   height="300"
   width="300"
   preserveAspectRatio="xMidYMid"
   viewBox="0 0 300 300">
  <metadata
     id="metadata27">
    <rdf:RDF>
      <cc:Work
         rdf:about="">
        <dc:format>image/svg+xml</dc:format>
        <dc:type
           rdf:resource="http://purl.org/dc/dcmitype/StillImage" />
      </cc:Work>
    </rdf:RDF>
  </metadata>
  <defs
     id="defs25" />
  <filter
     y="-50%"
     x="-50%"
     height="500"
     width="300"
     id="sbcax">
    <feFlood
       id="feFlood5"
       result="element"
       flood-color="#1cac78" />
    <feTurbulence
       id="feTurbulence7"
       result="element_1"
       seed="89"
       numOctaves="8"
       type="fractalNoise"
       baseFrequency="0.02" />
    <feGaussianBlur
       id="feGaussianBlur9"
       result="element_2"
       in="SourceAlpha"
       stdDeviation="4" />
    <feDisplacementMap
       id="feDisplacementMap11"
       result="element_3"
       in2="element_1"
       in="element_2"
       scale="100" />
    <feComposite
       id="feComposite13"
       result="element_4"
       in2="element_3"
       in="element"
       operator="in" />
    <feMerge
       id="feMerge15">
      <feMergeNode
         id="feMergeNode17"
         in="element_4" />
    </feMerge>
  </filter>
  <g
     id="g19"
     transform="translate(150,150) scale(1.5)">
    <path
       id="path21"
       style="filter: url(#sbcax); stroke: rgb(28, 172, 120);"
       d="M0,0L0.4096403383901459,0.5385245386782219C0.8192806767802918,1.0770490773564438,1.6385613535605836,2.1540981547128877,-8.316732993971836,5.670477463798368C-18.272027341504256,9.186856772883848,-39.00189671334938,15.142566313698364,-34.41370908128215,13.481182724630273C-29.825521449214918,11.819799135562182,0.08072318676468271,2.541322416611483,11.839408101791891,-4.241344797947349C23.5980930168191,-11.024012012506182,17.20921821089392,-15.310869722673148,7.272989098244192,-7.906625349026296C-2.6632400144055337,-0.5023809753794417,-16.146823433779804,18.592965482081233,-20.487737500006773,21.924978322807274C-24.828651566233745,25.256991163533314,-20.02689627931342,12.825670387524722,-18.06041001674643,15.990523610586072C-16.093923754179443,19.155376833647423,-16.962706515965795,37.91640405577871,-15.62619092922219,41.34512656019724C-14.289675342478587,44.77384906461577,-10.747861407205026,32.870266851321524,-9.205644883781614,25.387352910746948C-7.663428360358202,17.90443897017237,-8.120809248784937,14.842193302317458,-6.305343449084115,3.1876218625430113C-4.489877649383292,-8.466949577231436,-0.40156516155491095,-28.713846788925416,2.495037839612243,-26.948285941359785C5.391640840779397,-25.182725093794158,7.096534355285323,-1.4047061869689195,1.9895223146783394,12.44829194066395C-3.1174897259286434,26.30129006829682,-15.036407321648536,30.22926741673732,-17.267166273810613,29.063809146352533C-19.49792522597269,27.89835087596774,-12.040525534576954,21.639456986757665,-11.776718274851007,19.209148800760108C-11.51291101512506,16.77884061476255,-18.4426961870689,18.177118131977515,-19.20683483034358,20.141375703887178C-19.970973473618262,22.10563327579684,-14.569465588223778,24.6358709024012,-12.041926204546352,28.831021090290758C-9.514386820868927,33.026171278180314,-9.860815938908559,38.88623402735507,-8.265537992362198,33.06530842832318C-6.670260045815837,27.244382829291286,-3.1332750346834835,9.74246888205274,-0.9690344561865039,6.465497110884969C1.1952061223104757,3.188525339717196,1.9867022681720818,14.136495744620195,4.123912360992024,6.261800604066046C6.261122453811965,-1.6128945364881027,9.744046493590243,-28.3102552224994,7.2522879557650475,-33.698066782725434C4.760529417939852,-39.08587834295148,-3.7059116974888173,-23.164140777392262,-13.543740946290828,-10.047783217609858C-23.38157019509284,3.068574342172546,-34.590787577268195,13.37955189617814,-36.78852580986459,11.613908975440232C-38.986264042460974,9.848266054702322,-32.172523125478406,-3.9939973407790914,-16.070890484597403,-15.464742832713917C0.030742156283594113,-26.93548832464874,25.420266521063017,-36.034715913036976,27.20555538357922,-37.74115255877106C28.990844246095428,-39.44758920450516,7.17189760634842,-33.7612349075851,-8.629808027452729,-21.933237786412064C-24.43151366125388,-10.105240665239029,-34.21597828910917,7.8643992801869835,-30.746821458595758,12.819119674225872C-27.277664628082345,17.77384006826476,-10.554886339200234,9.71364091091653,-6.911325931940938,5.0397149385823425C-3.267765524681642,0.3657889662481566,-12.703422999045163,-0.9218638210719827,-14.503938545053064,-0.2692093219190651C-16.304454091060965,0.3834451772338523,-10.469827708713249,2.9764069628598264,-9.946452735574624,-0.20767423612163727C-9.423077762435998,-3.3917554351031014,-14.210954198506466,-12.352879618692004,-13.664314728354787,-17.925868773904867C-13.117675258203105,-23.498857929117726,-7.236519881829278,-25.683712055954544,3.2708946193739763,-19.359621741554285C13.77830912057723,-13.035531427154023,28.91198274660991,1.7975033284833195,29.291996864942647,2.4017397913657215C29.672010983275385,3.0059762542481234,15.298365593908171,-10.618585575624415,4.973708574080871,-22.04406660920091C-5.350948445746431,-33.4695476427774,-11.62661709603382,-42.69594788005785,-8.732514615323321,-30.812757997981755C-5.838412134612826,-18.929568115905656,6.225461477095559,14.06321188552699,13.889160510917364,26.66428562164192C21.55285954473917,39.26535935775685,24.816384000674397,31.47472682855407,26.448146228642006,27.579410563952674L28.079908456609623,23.684094299351283" />
  </g>
</svg>
