<svg viewBox="0 0 300 300" preserveAspectRatio="xMidYMid" width="300" height="300"><filter id="gtjyh" width="300" height="500" x="-50%" y="-50%"><feFlood flood-color="#1164b4" result="element"></feFlood><feTurbulence baseFrequency="0.02" type="fractalNoise" numOctaves="8" seed="45" result="element_1"></feTurbulence><feGaussianBlur stdDeviation="4" in="SourceAlpha" result="element_2"></feGaussianBlur><feDisplacementMap scale="100" in="element_2" in2="element_1" result="element_3"></feDisplacementMap><feComposite operator="in" in="element" in2="element_3" result="element_4"></feComposite><feMerge><feMergeNode in="element_4"></feMergeNode></feMerge></filter><g transform="translate(150,150) scale(1.5)"><path d="M0,0L1.1929050906531278,-0.5154379850867483C2.3858101813062556,-1.0308759701734966,4.771620362612511,-2.0617519403469933,4.254500100530038,-0.25705015651030805C3.7373798384475645,1.5476516273263772,0.31732913297636234,6.187931165173245,0.5396324014414553,4.020893129284945C0.7619356699065483,1.8538550933966462,4.626592912307936,-7.120500516226819,12.153870761451596,-10.68641764752298C19.681148610595258,-14.25233477881914,30.87104706648119,-12.409813431787995,28.51850080201768,-10.089454747933189C26.165954537554175,-7.769096064078383,10.270963552741227,-4.970900043399913,4.456206616015819,-3.031978784012022C-1.3585503207095893,-1.0930575246241303,2.906926790652542,-0.013411026526816361,4.282242650496773,-1.5270167247102133C5.657558510341003,-3.04062242289361,4.142713118667333,-7.147480317357718,2.7027375971824457,-11.234498346760416C1.2627620756975577,-15.321516376163114,-0.10234357559854856,-19.388694540504403,6.836954093097588,-22.141200733625936C13.776251761793723,-24.89370692674747,29.019952750482105,-26.33154114864925,33.669529118967475,-30.95798683556931C38.31910548745284,-35.58443252248937,32.374557235735196,-43.39948967442771,28.381270354199927,-38.12840646932218C24.387983472664658,-32.857323264216646,22.34595796131177,-14.500099702067228,14.435753506621124,-8.02270595043091C6.525549051930483,-1.5453121987945906,-7.252834346097908,-6.947748257671371,-5.971034682150051,-7.446629402241541C-4.689235018202195,-7.945510546811711,11.652747707721907,-3.5408367770752713,16.91608091461069,1.2451473484208442C22.17941412149947,6.031131473916959,16.36409780935293,11.19842595517275,8.424522784545886,11.165891784676564C0.48494775973884074,11.133357614180376,-9.57888597772871,5.900994791932209,-12.974469367044145,-1.5720869148785401C-16.37005275635958,-9.04516862168929,-13.097385797522904,-18.758969213062624,-5.048655806174851,-19.112359722134478C3.000074185173199,-19.46575023120633,15.824867209032625,-10.458730657976702,19.728935998715617,-5.713247036737336C23.63300478839861,-0.9677634154979706,18.61634934390517,-0.4838157462488698,14.289265993204737,1.0386018954680545C9.962182642504304,2.5610195371849787,6.324671385596876,5.121907151369726,-3.741825081415584,5.10958474575119C-13.808321548428045,5.097262340132653,-30.30380322554554,2.5117299147108327,-26.368245239298403,3.051613647467974C-22.432687253051274,3.5914973802251158,1.933910396560485,7.256797271161219,3.4606091577544644,6.896180033644127C4.987307918948444,6.535562796127035,-16.325892208275356,2.1490284301567466,-15.672678392732166,0.40497539628971324C-15.019464577188971,-1.3390776375773201,7.6001631811212125,-0.44064933934109896,4.30158091194404,-7.928726394583442C1.0029986427668653,-15.416803449825785,-28.213793653897667,-31.291385858546693,-32.08459830820835,-29.726888390119296C-35.95540296251903,-28.162390921691895,-14.480219974475865,-9.158813576116193,-6.842675459834966,-2.821964358358932C0.7948690548059312,3.5148848593983297,-5.405224903955439,-2.8149940506628504,-12.12091682637959,-8.908121787789844C-18.83660874880374,-15.001249524916837,-26.06789863489067,-20.857626089109644,-22.116913498138526,-15.642138055885235C-18.16592836138638,-10.42665002266083,-3.032668201795163,5.860702607980789,4.99774477472779,12.519073728970856C13.028157751250742,19.17744484996092,13.95572354470543,16.206834461299437,16.051885315833342,14.592972956111314C18.148047086961252,12.97911145092319,21.412804835762387,12.72199882920843,12.632448812792822,9.368655791471898C3.852092789823253,6.015312753735369,-16.97337700491702,-0.4342607000229304,-24.407490286694863,-4.495697849162207C-31.841603568472706,-8.557134998301482,-25.884360337288122,-10.230435842821736,-18.65441196059497,-14.26293213735146C-11.424463583901824,-18.295428431881184,-2.9218100617001097,-24.687120176420375,-8.227662828005318,-23.24010030939981C-13.533515594310526,-21.793080442379242,-32.647874649122656,-12.507348963798913,-30.229028111324254,-10.542043612425848C-27.810181573525853,-8.576738261052785,-3.858129443116912,-13.931859036886983,8.117896622087557,-16.609419424804084L20.09392268729203,-19.286979812721185" style="filter: url(#gtjyh); stroke: rgb(17, 100, 180);"></path></g></svg>