<?xml version="1.0" encoding="UTF-8" standalone="no"?>
<svg
   xmlns:dc="http://purl.org/dc/elements/1.1/"
   xmlns:cc="http://creativecommons.org/ns#"
   xmlns:rdf="http://www.w3.org/1999/02/22-rdf-syntax-ns#"
   xmlns:svg="http://www.w3.org/2000/svg"
   xmlns="http://www.w3.org/2000/svg"
   version="1.1"
   id="svg2"
   height="300"
   width="300"
   preserveAspectRatio="xMidYMid"
   viewBox="0 0 300 300">
  <metadata
     id="metadata27">
    <rdf:RDF>
      <cc:Work
         rdf:about="">
        <dc:format>image/svg+xml</dc:format>
        <dc:type
           rdf:resource="http://purl.org/dc/dcmitype/StillImage" />
      </cc:Work>
    </rdf:RDF>
  </metadata>
  <defs
     id="defs25" />
  <filter
     y="-50%"
     x="-50%"
     height="500"
     width="300"
     id="rmfap">
    <feFlood
       id="feFlood5"
       result="element"
       flood-color="#ff7a00" />
    <feTurbulence
       id="feTurbulence7"
       result="element_1"
       seed="46"
       numOctaves="8"
       type="fractalNoise"
       baseFrequency="0.02" />
    <feGaussianBlur
       id="feGaussianBlur9"
       result="element_2"
       in="SourceAlpha"
       stdDeviation="5" />
    <feDisplacementMap
       id="feDisplacementMap11"
       result="element_3"
       in2="element_1"
       in="element_2"
       scale="100" />
    <feComposite
       id="feComposite13"
       result="element_4"
       in2="element_3"
       in="element"
       operator="in" />
    <feMerge
       id="feMerge15">
      <feMergeNode
         id="feMergeNode17"
         in="element_4" />
    </feMerge>
  </filter>
  <g
     id="g19"
     transform="translate(150,150) scale(1.5)">
    <path
       id="path21"
       style="filter: url(#rmfap); stroke: rgb(255, 122, 0);"
       d="M0,0L5.55661538700937,-2.3860422196007187C11.11323077401874,-4.772084439201437,22.22646154803748,-9.544168878402875,28.712601934013733,-11.527806266883864C35.19874231998999,-13.511443655364854,37.057792317923756,-12.706633993125395,33.017525222430606,-11.142842475689806C28.977258126937457,-9.579050958254218,19.037673938017395,-7.256277585622501,7.350639627700522,-5.618167860674942C-4.33639468261635,-3.980058135727383,-17.770879114330032,-3.026612058463984,-10.84124108079907,-2.5657760065947284C-3.9116030472681125,-2.104939954725473,23.38215745150749,-2.1367139282503613,34.744085336017235,-3.0382399348159144C46.106013220526975,-3.9397659413814674,41.536108490770864,-5.711043980987685,33.074835634111885,1.617011521962402C24.6135627774529,8.94506702491249,12.260921793891047,25.37245607041888,7.434568995210153,26.9861059203212C2.60821619652926,28.599755770223528,5.3081515827293275,15.39966642452178,5.64271785413831,7.062916137918714C5.977284125547292,-1.273834148684351,3.94648128216519,-4.747245376188736,2.719971668794358,-3.661385631704721C1.4934620554235263,-2.5755258872207065,1.0712456720639647,3.069604829251707,0.6535394607059184,-2.2095456993980385C0.2358332493478718,-7.488696228047784,-0.1773627900086597,-23.69212800181969,-9.465631890112261,-24.483063667607468C-18.75390099021586,-25.273999333395242,-36.917243151066536,-10.65243889119889,-31.515153445763243,-7.315766241280286C-26.113063740459957,-3.979093591361681,2.8544578309972906,-11.927308733720821,12.524360414019837,-13.861482424751603C22.194262997042383,-15.795656115782386,12.566546591630226,-11.715788355484811,0.616843095387364,-7.591417864702004C-11.332860400855498,-3.4670473739191983,-25.604550987929066,0.7018258473488395,-26.566456878462137,1.058683393564511C-27.52836276899521,1.4155409397801826,-15.180483962987779,-2.039617189056512,-12.239223851390282,-1.5886624585769078C-9.297963739792786,-1.1377077280973031,-15.763322322605223,3.2193598616986003,-15.277471696262179,12.29805436636325C-14.791621069919133,21.3767488710279,-7.354561234420604,35.17707029056129,3.9038744230601066,32.20401903996698C15.162310080540816,29.230967789372674,30.24212156000371,9.484543868650663,26.23654063058118,6.259970011452362C22.230959701158653,3.0353961542540606,-0.860013637149299,16.33267236057947,-11.902996154782505,17.553086704097627C-22.945978672415713,18.773501047615785,-21.94097036937417,7.917053528326689,-17.863725120362545,5.352992454971032C-13.786479871350922,2.7889313816153747,-6.636997676369214,8.517256754193156,-2.447363337440494,9.696710025471182C1.7422710014882261,10.876163296749208,2.9720574843639573,7.506744466727481,11.304868374301803,0.45985106600077863C19.63767926423965,-6.587042334725924,35.07351456123961,-17.3114103061576,35.26578212095257,-19.085091334143293C35.45804968066553,-20.858772362128988,20.406749503091493,-13.681766446668696,14.640868881183934,-6.832780830747029C8.874988259276378,0.016204785174637415,12.394527193035303,6.537170101557679,11.533081311555339,6.777499207093015C10.671635430075375,7.017828312628351,5.4292047333565225,0.9775212073159834,0.6160263810378472,-6.868883342226129C-4.197151971280829,-14.715287891768241,-8.581077979199328,-24.367789885540095,-8.527142862103016,-23.67268228847417C-8.473207745006702,-22.977574691408243,-3.9814115028955777,-11.934857503504533,5.945701638629602,-6.364602571345635C15.872814780154783,-0.7943476391867369,31.235244821094017,-0.6965549627726504,34.27727649698858,-0.1537069542029288C37.31930817288313,0.3891410543667928,28.040941483733008,1.3770443950921494,18.364740090996506,-0.6788592380048404C8.688538698260007,-2.73476287110183,-1.3854973980628644,-7.834473478021167,-7.158777239154469,-8.162455550471373C-12.932057080246075,-8.490437622921581,-14.404580666106412,-4.046691160902658,-18.847555516250033,-1.0261860948740005C-23.290530366393654,1.9943189711546572,-30.703956480820555,3.59158264119305,-27.576534494008815,-3.2582668414331555C-24.44911250719707,-10.108116324059361,-10.780842419146685,-25.405078959350167,-3.9467073751214916,-33.05356027699557L2.887427668903702,-40.702041594640974" />
  </g>
</svg>
