<?xml version="1.0" encoding="UTF-8" standalone="no"?>
<svg
   xmlns:dc="http://purl.org/dc/elements/1.1/"
   xmlns:cc="http://creativecommons.org/ns#"
   xmlns:rdf="http://www.w3.org/1999/02/22-rdf-syntax-ns#"
   xmlns:svg="http://www.w3.org/2000/svg"
   xmlns="http://www.w3.org/2000/svg"
   version="1.1"
   id="svg2"
   height="300"
   width="300"
   preserveAspectRatio="xMidYMid"
   viewBox="0 0 300 300">
  <metadata
     id="metadata27">
    <rdf:RDF>
      <cc:Work
         rdf:about="">
        <dc:format>image/svg+xml</dc:format>
        <dc:type
           rdf:resource="http://purl.org/dc/dcmitype/StillImage" />
      </cc:Work>
    </rdf:RDF>
  </metadata>
  <defs
     id="defs25" />
  <filter
     y="-50%"
     x="-50%"
     height="500"
     width="300"
     id="mtwpt">
    <feFlood
       id="feFlood5"
       result="element"
       flood-color="#319177" />
    <feTurbulence
       id="feTurbulence7"
       result="element_1"
       seed="52"
       numOctaves="8"
       type="fractalNoise"
       baseFrequency="0.02" />
    <feGaussianBlur
       id="feGaussianBlur9"
       result="element_2"
       in="SourceAlpha"
       stdDeviation="4" />
    <feDisplacementMap
       id="feDisplacementMap11"
       result="element_3"
       in2="element_1"
       in="element_2"
       scale="100" />
    <feComposite
       id="feComposite13"
       result="element_4"
       in2="element_3"
       in="element"
       operator="in" />
    <feMerge
       id="feMerge15">
      <feMergeNode
         id="feMergeNode17"
         in="element_4" />
    </feMerge>
  </filter>
  <g
     id="g19"
     transform="translate(150,150) scale(1.5)">
    <path
       id="path21"
       style="filter: url(#mtwpt); stroke: rgb(49, 145, 119);"
       d="M0,0L7.337416067727806,1.6370535900064038C14.674832135455611,3.2741071800128076,29.349664270911223,6.548214360025615,29.853025091795566,8.071905702930149C30.356385912679904,9.595597045834683,16.688275418992973,9.368872551630945,4.779865348007485,-1.179231136928018C-7.128544722978003,-11.727334825486981,-17.27725437126205,-32.59681770840117,-15.961366384029873,-29.980044412977897C-14.645478396797694,-27.363271117554625,-1.8649927740492913,-1.26024164379389,10.803125673338092,11.67065744379104C23.471244120725476,24.60155653137597,36.02699539275184,24.360325232785094,33.233671432002446,18.155940637707694C30.440347471253048,11.951556042630292,12.297948277727894,-0.21598184893363737,0.6768224861335956,-2.2653950292967053C-10.944303305460702,-4.314808209659773,-16.04415569512414,3.7539033211780204,-14.918068562458116,9.170891235972825C-13.791981429792092,14.58787915076763,-6.439954774796605,17.353143449519447,3.713807471367981,19.312433427883377C13.867569717532566,21.271723406247304,26.823067554866252,22.42503906422335,17.04870880330146,12.10962906309278C7.274350051736665,1.7942190619622096,-25.229865288726607,-19.989916598274974,-29.474327675986082,-25.771689793221995C-33.71879006324556,-31.553462988169017,-9.703499497301234,-21.332873717825876,1.0140700127756221,-15.842018878416805C11.731639522852479,-10.351164039007731,9.15148797706187,-9.590043630532723,11.125211270022373,-0.7365941545549202C13.098934562982878,8.116855321422882,19.626532694694497,25.062633864903475,21.468237903309,29.58981518713628C23.309943111923502,34.11699650936909,20.46575539744089,26.225580610354108,12.380101440597782,13.40785320118671C4.294447483754677,0.5901257920193075,-9.032672715448925,-17.153913127300513,-13.619739343111064,-18.29818934159694C-18.206805970773203,-19.44246555589337,-14.053819026893878,-3.986979065166409,-7.033099494617986,-3.782552515500532C-0.012379962342093265,-3.578125965834655,9.876072158330366,-18.624759357229863,4.0068323430517445,-20.562934617184826C-1.8624074722268773,-22.50110987713979,-23.489339223456582,-11.330827005654514,-23.41300313282095,-5.607381264460915C-23.336667042185322,0.116064476732685,-1.5570631096843552,0.3926730876346088,6.063773305150762,4.677187567364834C13.684609719985879,8.96170204709506,7.146678617155149,17.25412239565359,1.2164217447766656,8.956653548762741C-4.713835127601817,0.6591847018718937,-10.036417769528052,-24.228173340468327,-1.2105358214578743,-26.545897863951907C7.615346126612302,-28.863622387435484,30.58969266467889,-8.61171339206242,27.121693573052852,1.6259214565395945C23.65369448142681,11.863556305141609,-6.256650239891854,12.086917006972573,-16.60760217502474,5.4259884870296515C-26.95855411015763,-1.2349400329132703,-17.750113259104737,-14.780157774630078,-17.96571785916394,-17.717870039022923C-18.181322459223146,-20.65558230341577,-27.82097251039444,-12.985789090484651,-23.468340386989862,-10.837998817118043C-19.115708263585287,-8.690208543751435,-0.7707939656048328,-12.064421209949339,7.923951888169524,-11.50992229103351C16.618697741943883,-10.95542337211768,15.663275151512142,-6.472212868088118,7.627256100043692,-3.930791196825926C-0.4087629514247588,-1.389369525563735,-15.525378463929922,-0.7897366870689155,-20.383998034121284,-0.036836419293303335C-25.24261760431265,0.7160638484823089,-19.84324123219021,1.6222315455387137,-12.854714333153623,8.111920737639291C-5.866187434117039,14.601609929739867,2.7114899918336937,26.674820616884617,0.5344370116275545,32.57460282467228C-1.6426159685785846,38.47438503245995,-14.574399354941596,38.20073876089053,-13.472978681305435,36.767111777386155C-12.371558007669272,35.33348479388179,2.7630667259660644,32.73987709844247,6.239318730911007,22.589570001617172C9.715570735855952,12.439262904791871,1.5334500121105021,-5.267743593419411,0.5720307860666689,-10.788351605425284C-0.3893884399771643,-16.30895961743116,5.869893831680618,-9.643169143231626,3.962080335786669,-1.4820024233226086C2.054266839892721,6.679164296586409,-8.020642423552959,16.335707262204913,-13.058097055275798,21.163978745014163L-18.09555168699864,25.99225022782342" />
  </g>
</svg>
