<?xml version="1.0" encoding="UTF-8" standalone="no"?>
<svg
   xmlns:dc="http://purl.org/dc/elements/1.1/"
   xmlns:cc="http://creativecommons.org/ns#"
   xmlns:rdf="http://www.w3.org/1999/02/22-rdf-syntax-ns#"
   xmlns:svg="http://www.w3.org/2000/svg"
   xmlns="http://www.w3.org/2000/svg"
   version="1.1"
   id="svg2"
   height="300"
   width="300"
   preserveAspectRatio="xMidYMid"
   viewBox="0 0 300 300">
  <metadata
     id="metadata27">
    <rdf:RDF>
      <cc:Work
         rdf:about="">
        <dc:format>image/svg+xml</dc:format>
        <dc:type
           rdf:resource="http://purl.org/dc/dcmitype/StillImage" />
      </cc:Work>
    </rdf:RDF>
  </metadata>
  <defs
     id="defs25" />
  <filter
     y="-50%"
     x="-50%"
     height="500"
     width="300"
     id="bgvko">
    <feFlood
       id="feFlood5"
       result="element"
       flood-color="#5d76cb" />
    <feTurbulence
       id="feTurbulence7"
       result="element_1"
       seed="90"
       numOctaves="8"
       type="fractalNoise"
       baseFrequency="0.02" />
    <feGaussianBlur
       id="feGaussianBlur9"
       result="element_2"
       in="SourceAlpha"
       stdDeviation="5" />
    <feDisplacementMap
       id="feDisplacementMap11"
       result="element_3"
       in2="element_1"
       in="element_2"
       scale="100" />
    <feComposite
       id="feComposite13"
       result="element_4"
       in2="element_3"
       in="element"
       operator="in" />
    <feMerge
       id="feMerge15">
      <feMergeNode
         id="feMergeNode17"
         in="element_4" />
    </feMerge>
  </filter>
  <g
     id="g19"
     transform="translate(150,150) scale(1.5)">
    <path
       id="path21"
       style="filter: url(#bgvko); stroke: rgb(93, 118, 203);"
       d="M0,0L0.24074652992320458,-2.01487152133567C0.48149305984640917,-4.02974304267134,0.9629861196928183,-8.05948608534268,-6.1730967222631685,-6.244744398662985C-13.309179564219155,-4.43000271198329,-28.062838307977536,3.229223704047441,-26.84118103462001,6.69725228080449C-25.61952376126248,10.16528085756154,-8.42255047078904,9.442111595044906,2.362272961918149,7.653342338067677C13.14709639462534,5.864573081090448,17.51976996956628,3.0102038296526223,17.587606112971226,3.4716471152911206C17.65544225637617,3.933090400929618,13.418440968245118,7.710346223644439,9.465571320587486,7.682325118433813C5.512701672929855,7.654304013223187,1.8439636657456409,3.821005980087112,-5.545326563959689,1.573563368539699C-12.93461679366502,-0.6738792430077137,-24.044459245891467,-1.335466432966465,-18.713418551758224,3.934726992242084C-13.382377857624984,9.204920417450634,8.389545982867944,20.406894457826482,14.260025920836775,18.294509565828662C20.130505858805606,16.18212467383084,10.09954189425034,0.7553808494593497,9.959853920362486,5.363302865388901C9.820165946474633,9.971224881318452,19.571753963254192,34.61381273754905,18.32441528103135,38.67785212679089C17.07707659880851,42.74189151603274,4.830811217583268,26.227382438285836,1.250213002115863,9.528094242120046C-2.3303852133515415,-7.171193954045739,2.7546837369388912,-24.05526126863041,8.127697939844062,-29.112104874964338C13.500712142749231,-34.168948481298266,19.161671598269137,-27.39856837938145,13.102346126085495,-14.96001657060916C7.043020653901852,-2.5214647618368673,-10.736589745985341,15.5852587537909,-18.002844462764465,19.383061984101676C-25.269099179543584,23.180865214412453,-22.021998213214633,12.669748159406243,-17.51066693718543,7.219156300461173C-12.999335661156223,1.7685644415161041,-7.223774075426765,1.378497778632177,-2.946805401139306,0.710063498837964C1.3301632731481532,0.04162921904375105,4.108539035993612,-0.9051726776607479,2.520221523891816,-2.0998935456078396C0.9319040117900199,-3.294614413554931,-5.023106775259031,-4.737254252744615,-15.077221045160208,-4.62312475126861C-25.131335315061385,-4.508995249792604,-39.284553067814684,-2.838096407650909,-36.41731669411495,-0.08779738434085815C-33.55008032041521,2.662501638969193,-13.662389820262439,6.4922008434476,-2.7696721148550703,4.445570149624757C8.123045590552298,2.398939455801915,10.020790501214261,-5.524021136322178,9.234246866248869,-8.123598641411693C8.447703231283477,-10.72317614650121,4.976871050690729,-7.999370564556148,6.091691208717606,-12.80195694711701C7.206511366744481,-17.604543329677874,12.90698386339098,-29.933521676744657,10.397301569867475,-31.76060819192448C7.887619276343966,-33.5876947071043,-2.832217807349548,-24.912889390397154,-13.709831157520986,-9.183469082385304C-24.587444507692425,6.545951225626542,-35.622834124341786,29.329986524943095,-27.841950666642628,32.04631610415768C-20.06106720894347,34.76264568337227,6.536089323104207,17.411269542484902,17.617938504166123,6.668807875805483C28.69978768522804,-4.073653790873933,24.266329515304193,-8.207200983345395,21.267416402468307,-8.280640712736773C18.26850328963242,-8.35408044212815,16.704135233884493,-4.367412708439443,10.277284705710873,3.9944413010844846C3.8504341775372524,12.356295310608411,-7.438898823062059,25.09333559596756,-9.949871094073131,25.283501677049106C-12.460843365084202,25.473667758130645,-6.193454906507033,13.116959634934583,4.63465650279088,8.732810744969033C15.462767912088792,4.348661855003482,30.85160227210745,7.937072198268443,28.544616481637703,10.621617845065312C26.237630691167954,13.306163491862181,6.234824750209803,15.086844442190957,-9.590444635118697,7.18535471622827C-25.415714020447197,-0.7161350097344172,-37.06344685014605,-18.29979541198857,-39.876579224928804,-28.499053672364305C-42.68971159971156,-38.69831193274004,-36.668243519578226,-41.51316805123736,-27.91283208067625,-43.600995055199355C-19.157420641774273,-45.68882205916137,-7.668065844103651,-47.04961994858806,-1.9233884452683414,-47.7300188933014L3.8212889535669685,-48.41041783801475" />
  </g>
</svg>
