<?xml version="1.0" encoding="UTF-8" standalone="no"?>
<svg
   xmlns:dc="http://purl.org/dc/elements/1.1/"
   xmlns:cc="http://creativecommons.org/ns#"
   xmlns:rdf="http://www.w3.org/1999/02/22-rdf-syntax-ns#"
   xmlns:svg="http://www.w3.org/2000/svg"
   xmlns="http://www.w3.org/2000/svg"
   version="1.1"
   id="svg2"
   height="300"
   width="300"
   preserveAspectRatio="xMidYMid"
   viewBox="0 0 300 300">
  <metadata
     id="metadata27">
    <rdf:RDF>
      <cc:Work
         rdf:about="">
        <dc:format>image/svg+xml</dc:format>
        <dc:type
           rdf:resource="http://purl.org/dc/dcmitype/StillImage" />
      </cc:Work>
    </rdf:RDF>
  </metadata>
  <defs
     id="defs25" />
  <filter
     y="-50%"
     x="-50%"
     height="500"
     width="300"
     id="rhwpi">
    <feFlood
       id="feFlood5"
       result="element"
       flood-color="#D05340" />
    <feTurbulence
       id="feTurbulence7"
       result="element_1"
       seed="97"
       numOctaves="8"
       type="fractalNoise"
       baseFrequency="0.02" />
    <feGaussianBlur
       id="feGaussianBlur9"
       result="element_2"
       in="SourceAlpha"
       stdDeviation="5" />
    <feDisplacementMap
       id="feDisplacementMap11"
       result="element_3"
       in2="element_1"
       in="element_2"
       scale="100" />
    <feComposite
       id="feComposite13"
       result="element_4"
       in2="element_3"
       in="element"
       operator="in" />
    <feMerge
       id="feMerge15">
      <feMergeNode
         id="feMergeNode17"
         in="element_4" />
    </feMerge>
  </filter>
  <g
     id="g19"
     transform="translate(150,150) scale(1.5)">
    <path
       id="path21"
       style="filter: url(#rhwpi); stroke: rgb(208, 83, 64);"
       d="M0,0L0.49200268871549047,2.962023873353362C0.9840053774309809,5.924047746706724,1.9680107548619619,11.848095493413448,-0.2661622589574235,14.981922084628646C-2.500335272776809,18.115748675843843,-7.952686677846561,18.459354111567514,-7.847311050780107,21.462798134643936C-7.741935423713654,24.46624215772036,-2.078832764510997,30.12952476814953,8.873109717253389,31.791079171025498C19.825052199017776,33.452633573901466,36.065834503343886,31.112459769224238,33.365251872313046,20.82482883001769C30.664669241282198,10.537197890811141,9.022721674894392,-7.697890182924727,-0.7664660584414644,-10.674801342463592C-10.55565379177732,-13.651712502002457,-8.492081692061227,-1.3704467473443174,-5.109422634413164,3.570630885192359C-1.7267635767651006,8.511708517729035,2.9749824388149317,6.11259802814425,5.5407156074452555,7.101027153354085C8.106448776075577,8.08945627856392,8.536169097756193,12.465425018568377,14.167323953406285,15.024040934406687C19.798478809056377,17.582656850244994,30.631068198675948,18.323919941917158,26.79996007783151,9.759816227068548C22.96885195698708,1.195712512219938,4.474046325678641,-16.673758009149445,-6.2839689730241215,-11.308132704919542C-17.041984271726882,-5.942507400689639,-20.06320923782397,22.65821372913955,-25.869144538086754,33.71358394434909C-31.675079838349536,44.76895415955862,-40.265725472778016,38.27897346014851,-30.27386331820818,30.48269250135106C-20.282001163638345,22.686411542553625,8.292368779929802,13.583830324368865,17.919773195201824,8.965729681197118C27.54717761047385,4.347629038025373,18.227616497449745,4.21400896986664,6.232076734985717,3.944751866629379C-5.763463027478314,3.675494763392117,-20.43498143938227,3.2706006250763258,-28.567749770488987,8.414325825511597C-36.700518101595705,13.558051025946869,-38.29453635190518,24.250395565133203,-30.861231450750026,32.44329606378064C-23.427926549594876,40.63619656242808,-6.967298496975098,46.32965302053662,3.090885079651799,40.790661710500274C13.149068656278697,35.25167040046393,16.804807756912712,18.480231322282695,20.278897283771173,10.072369538925175C23.752986810629636,1.6645077555676577,27.04542676371254,1.620223267033856,22.794050248070416,-2.0915123007932994C18.542673732428288,-5.803247868620455,6.747480748061127,-13.182434515740965,1.0123835762430795,-15.580774569926833C-4.722713595574968,-17.9791146241127,-4.397714954843902,-15.396608085363928,-2.8716705056369456,-2.35873219920067C-1.3456260564299893,10.679143686962588,1.3814642012528577,34.17238892054033,-5.116640578932503,36.64100677712581C-11.614745359117865,39.1096246337113,-27.338045177171434,20.553615113304517,-37.264546520099714,7.016498372487661C-47.19104786302799,-6.520618368329195,-51.32075073083098,-15.038842329556129,-46.5720525120739,-11.230050344055C-41.823354293316825,-7.421258358553871,-28.196254987999687,8.71454957367532,-13.272363448367647,17.62983283230923C1.6515280912643924,26.54511609094314,17.872211865211334,28.23987467598177,20.0950375269954,19.13753230909238C22.317863188779466,10.035189942202985,10.542830738400658,-9.86425337661443,-2.9908174180591613,-14.606073565199088C-16.52446557451898,-19.347893753783744,-31.81672943705981,-8.932090812135643,-32.454099168542136,-4.620729765614835C-33.09146890002447,-0.3093687190940275,-19.073944500448302,-2.1024495677005124,-11.057153379402017,-1.965081119532699C-3.0403622583557324,-1.8277126713648852,-1.0243044158393295,0.2401050735772272,-3.4292968183939028,2.1696408706879593C-5.834289220948476,4.099176667798692,-12.660331868574024,5.890430517078044,-9.236939920182618,11.715128667545759C-5.813547971791209,17.539826818013477,7.859278572617156,27.397969269669556,6.155110315780314,20.165608710807973C4.450942058943472,12.933248151946387,-12.630220999138578,-11.389615417432863,-11.615754886085373,-17.35721965694876C-10.601288773032167,-23.324823896464654,8.508806511156294,-10.937168806117198,17.590820318064374,-4.385853903603851C26.67283412497245,2.165460998909496,25.726766454600146,2.8804357135887315,25.253732619413995,3.2379230709283497L24.78069878422784,3.5954104282679675" />
  </g>
</svg>
