<?xml version="1.0" encoding="UTF-8" standalone="no"?>
<svg
   xmlns:dc="http://purl.org/dc/elements/1.1/"
   xmlns:cc="http://creativecommons.org/ns#"
   xmlns:rdf="http://www.w3.org/1999/02/22-rdf-syntax-ns#"
   xmlns:svg="http://www.w3.org/2000/svg"
   xmlns="http://www.w3.org/2000/svg"
   version="1.1"
   id="svg2"
   height="300"
   width="300"
   preserveAspectRatio="xMidYMid"
   viewBox="0 0 300 300">
  <metadata
     id="metadata27">
    <rdf:RDF>
      <cc:Work
         rdf:about="">
        <dc:format>image/svg+xml</dc:format>
        <dc:type
           rdf:resource="http://purl.org/dc/dcmitype/StillImage" />
      </cc:Work>
    </rdf:RDF>
  </metadata>
  <defs
     id="defs25" />
  <filter
     y="-50%"
     x="-50%"
     height="500"
     width="300"
     id="ggvjt">
    <feFlood
       id="feFlood5"
       result="element"
       flood-color="#da614e" />
    <feTurbulence
       id="feTurbulence7"
       result="element_1"
       seed="18"
       numOctaves="8"
       type="fractalNoise"
       baseFrequency="0.02" />
    <feGaussianBlur
       id="feGaussianBlur9"
       result="element_2"
       in="SourceAlpha"
       stdDeviation="5" />
    <feDisplacementMap
       id="feDisplacementMap11"
       result="element_3"
       in2="element_1"
       in="element_2"
       scale="100" />
    <feComposite
       id="feComposite13"
       result="element_4"
       in2="element_3"
       in="element"
       operator="in" />
    <feMerge
       id="feMerge15">
      <feMergeNode
         id="feMergeNode17"
         in="element_4" />
    </feMerge>
  </filter>
  <g
     id="g19"
     transform="translate(150,150) scale(1.5)">
    <path
       id="path21"
       style="filter: url(#ggvjt); stroke: rgb(218, 97, 78);"
       d="M0,0L6.315651608435605,-3.5923630442639944C12.63130321687121,-7.184726088527989,25.26260643374242,-14.369452177055978,23.869838904359245,-16.758909844076C22.47707137497607,-19.14836751109602,7.060233099338513,-16.742556756608074,2.4940949169196727,-15.51493973578878C-2.0720432654991674,-14.287322714969486,4.212518645300711,-14.237899427818842,8.490550642866342,-9.58943064315581C12.768582640431976,-4.940961858492776,15.04008472476336,4.306552423682646,10.212474925394154,9.615368227911599C5.384865126024946,14.924184032140552,-6.541856557044857,16.294301358423034,-5.645782862653973,19.487824523474025C-4.749709168263088,22.68134768852502,8.969159903588483,27.69827669234452,4.089928649845719,23.85309003309363C-0.7893026038970454,20.007903373842733,-24.266634183234146,7.300601051521447,-26.65636246286625,7.228673860308966C-29.046090742498357,7.156746669096485,-10.348215722425474,19.72019460899281,-2.5699170920230316,20.95698215506148C5.2083815383794105,22.19376970113014,2.06710377911141,12.103896853371149,-2.0072576670060758,5.179632969274001C-6.081619113123562,-1.744630914823144,-11.089064246090533,-5.503285835258443,-15.698870904820584,-13.845075315889904C-20.30867756355064,-22.186864796521363,-24.52084574804377,-35.11178883734899,-21.164125934731313,-33.33638789765574C-17.807406121418857,-31.560986957962495,-6.881798310300813,-15.085261037748381,-7.325630425881356,-6.468393995565306C-7.769462541461899,2.1484730466177706,-19.58273458374103,2.90648121076981,-23.56233090188299,-2.7712381165336164C-27.54192722002495,-8.448957443837044,-23.687847814029737,-20.562404262595937,-14.349821428188017,-15.14560093271592C-5.011795042346291,-9.728797602835908,9.810178323341948,13.218255875683013,15.759679848777665,19.711057113156016C21.70918137421338,26.203858350629023,18.786211059396578,16.242407347056112,16.66900708584212,2.3535134354587015C14.551803112287667,-11.535380476138709,13.24036547999556,-29.35171729576062,13.379108705506901,-33.435639800055185C13.517851931018244,-37.51956230434976,15.106776014333036,-27.871070493316992,11.566846317679715,-19.944873197945395C8.026916621026395,-12.018675902573799,-0.6418668555950413,-5.814773122863377,-6.603120403163505,3.0570481022467657C-12.56437395073197,11.928869327356908,-15.818097569247463,23.46860899786677,-12.822967889197134,25.131045800413506C-9.827838209146803,26.79348260296024,-0.5838552305306504,18.578616537543848,-2.282514220688026,8.720584098475744C-3.9811732108454017,-1.137448340592364,-16.622474169776304,-12.638647153312185,-21.04930828644515,-10.595660296511877C-25.476142403113997,-8.552673439711569,-21.68850967752078,7.034499086608866,-25.394757339584775,12.279096593783951C-29.10100500164877,17.523694100959034,-40.30113305136997,12.425716588988765,-36.964704067771684,7.961425025125259C-33.62827508417339,3.4971334612617535,-15.755289067255609,-0.3334721544949897,-4.64821024726426,-0.7747097165177073C6.458868572727089,-1.2159472785404248,10.800040195792004,1.7321832131708832,15.397305925826771,7.895634215707963C19.994571655861535,14.059085218245041,24.847931492866152,23.437856731607894,27.809689198960413,27.571429038015545C30.771446905054678,31.70500134442319,31.841602480238585,30.59337444387564,29.997632322790903,25.082600935275575C28.15366216534322,19.57182742667551,23.395566275263945,9.661907310022936,12.301049232730726,6.498889768945336C1.206532190197505,3.3358722278677337,-16.22440600478966,6.9197572623651045,-18.878942030406144,13.121136820289816C-21.53347805602263,19.322516378214527,-9.411611912268436,28.141390459566576,-3.1059509900136257,27.60188557966313C3.1997099322411846,27.062380699759682,3.68916563299661,17.164496858600735,4.599628777618687,7.989421022572035C5.510091922240763,-1.185654813456667,6.84156251072949,-9.637922644355122,1.446378734058774,-16.660460737532574C-3.9488050426119425,-23.682998830710023,-16.070643184442105,-29.275807186166467,-18.40720928165311,-23.086918204132797C-20.743775378864115,-16.898029222099126,-13.295069431455964,1.0725570974246637,-9.570716457751889,10.057850257186558L-5.8463634840478145,19.043143416948453" />
  </g>
</svg>
