<?xml version="1.0" encoding="UTF-8" standalone="no"?>
<svg
   xmlns:dc="http://purl.org/dc/elements/1.1/"
   xmlns:cc="http://creativecommons.org/ns#"
   xmlns:rdf="http://www.w3.org/1999/02/22-rdf-syntax-ns#"
   xmlns:svg="http://www.w3.org/2000/svg"
   xmlns="http://www.w3.org/2000/svg"
   version="1.1"
   id="svg2"
   height="300"
   width="300"
   preserveAspectRatio="xMidYMid"
   viewBox="0 0 300 300">
  <metadata
     id="metadata27">
    <rdf:RDF>
      <cc:Work
         rdf:about="">
        <dc:format>image/svg+xml</dc:format>
        <dc:type
           rdf:resource="http://purl.org/dc/dcmitype/StillImage" />
      </cc:Work>
    </rdf:RDF>
  </metadata>
  <defs
     id="defs25" />
  <filter
     y="-50%"
     x="-50%"
     height="500"
     width="300"
     id="xldzm">
    <feFlood
       id="feFlood5"
       result="element"
       flood-color="#3bb08f" />
    <feTurbulence
       id="feTurbulence7"
       result="element_1"
       seed="57"
       numOctaves="8"
       type="fractalNoise"
       baseFrequency="0.02" />
    <feGaussianBlur
       id="feGaussianBlur9"
       result="element_2"
       in="SourceAlpha"
       stdDeviation="5" />
    <feDisplacementMap
       id="feDisplacementMap11"
       result="element_3"
       in2="element_1"
       in="element_2"
       scale="100" />
    <feComposite
       id="feComposite13"
       result="element_4"
       in2="element_3"
       in="element"
       operator="in" />
    <feMerge
       id="feMerge15">
      <feMergeNode
         id="feMergeNode17"
         in="element_4" />
    </feMerge>
  </filter>
  <g
     id="g19"
     transform="translate(150,150) scale(1.5)">
    <path
       id="path21"
       style="filter: url(#xldzm); stroke: rgb(59, 176, 143);"
       d="M0,0L5.979679916539753,3.215023386349245C11.959359833079507,6.43004677269849,23.918719666159014,12.86009354539698,23.630164092424373,4.3558318529144415C23.341608518689736,-4.148429839568097,10.805137538140947,-27.586999997231665,14.554466806298532,-35.11884787314981C18.303796074456113,-42.650695749067964,38.33892559132006,-34.27582134324069,40.09157535438363,-26.672618154096398C41.8442251174472,-19.06941496495211,25.314395126710384,-12.2378829924908,10.593046502906718,-10.341674953624807C-4.128302120896947,-8.445466914758814,-17.04116937776746,-11.48458280948814,-13.646753297432138,-16.506757192559437C-10.252337217096814,-21.528931575630736,9.449362200444348,-28.534164447044002,14.42785189348169,-24.983159704115465C19.406341586519034,-21.432154961186924,9.661621555052553,-7.324912603916573,0.05700125208021589,-5.137488899533256C-9.547619050892123,-2.95006519514994,-19.01213962537032,-12.682460143653657,-12.394902080806954,-15.57748901857032C-5.777664536243583,-18.472517893486987,16.921331127361356,-14.530180694816597,22.485041159912992,-19.574914443970023C28.048751192464632,-24.61964819312345,16.47717559396297,-38.651452890100686,2.536454366409881,-35.15195053714776C-11.404266861143206,-31.65244818419483,-27.714133717747714,-10.621638781311738,-23.63762754184365,-0.2727389790803363C-19.561121365939584,10.076160823151065,4.901757842473057,9.743151024730773,10.916045960806564,12.058797237328235C16.93033407914007,14.374443449925696,4.496031107394446,19.338745673540913,4.813947709715823,22.53953925264873C5.1318643120372,25.74033283175655,18.20200048842558,27.177617766356974,21.6165257227132,28.204144190043092C25.031050957000815,29.23067061372921,18.789965249187674,29.846438526501025,7.685119653731242,30.276360694875475C-3.41972594172519,30.706282863249925,-19.388331424824912,30.95035928722701,-13.271929831514655,27.65829992246917C-7.155528238204397,24.366240557711336,21.045880431515837,17.53804540421858,32.180022185880205,20.514456659574506C43.31416394024457,23.49086791493043,37.381038779253075,36.27188557913504,32.8974091037602,37.904101803312685C28.413779428267322,39.536318027490324,25.379645238273067,30.019732811641,20.154883292582753,13.386202590255538C14.930121346892442,-3.2473276311299237,7.514731645506069,-26.99780285805152,3.4621282333668177,-30.437171159815623C-0.5904751787724343,-33.876539461579725,-1.280292301664567,-17.004800838186327,-5.53542939613355,-9.97410229421291C-9.790566490602533,-2.943403750239495,-17.611023556648366,-5.753745285686058,-19.892850826486146,-5.736052137215305C-22.174678096323923,-5.718358988744551,-18.91787556995365,-2.8726311563564817,-13.440536065357099,-3.2843764044146733C-7.963196560760547,-3.6961216524728657,-0.2653200779377167,-7.3653399809773195,6.489008685312788,-4.698768927674385C13.243337448563292,-2.03219787437145,19.05411849224147,6.970162560738874,16.917292071224146,7.4586537820423C14.780465650206823,7.947145003345726,4.696031764493997,-0.07823298915774668,-1.605293051010522,-4.888228319771927C-7.90661786651504,-9.698223650386108,-10.42483361181125,-11.292836319110995,-9.486307648427452,-11.543751938066775C-8.547781685043654,-11.794667557022553,-4.15251401297985,-10.701886126209223,5.547890777156859,-1.0600732155957706C15.248295567293567,8.581739695017683,30.25383747550318,26.77258408543126,35.62868181042566,37.204522765542315C41.00352614534813,47.63646144565337,36.74767290698348,50.309494415461906,35.260281716054955,49.90797729091027C33.77289052512644,49.50646016635862,35.05396138163405,46.030392947446806,26.844052187224555,44.038778592618236C18.634142992815054,42.047164237789666,0.9332537474884326,41.54000274704435,0.6037872672254307,33.883224095614075C0.2743207869624289,26.2264454441838,17.316277071763047,11.420049632068569,16.952273131889385,4.679073591517432C16.588269192015723,-2.0619024490337043,-1.181694972532222,-0.7374587180207464,-14.054584590801642,-0.7407267000231796C-26.92747420907106,-0.7439946820256129,-34.90328928106196,-2.0749743770434375,-38.891196817057406,-2.7404642245523494L-42.87910435305285,-3.405954072061262" />
  </g>
</svg>
