<?xml version="1.0" encoding="UTF-8" standalone="no"?>
<svg
   xmlns:dc="http://purl.org/dc/elements/1.1/"
   xmlns:cc="http://creativecommons.org/ns#"
   xmlns:rdf="http://www.w3.org/1999/02/22-rdf-syntax-ns#"
   xmlns:svg="http://www.w3.org/2000/svg"
   xmlns="http://www.w3.org/2000/svg"
   version="1.1"
   id="svg2"
   height="300"
   width="300"
   preserveAspectRatio="xMidYMid"
   viewBox="0 0 300 300">
  <metadata
     id="metadata27">
    <rdf:RDF>
      <cc:Work
         rdf:about="">
        <dc:format>image/svg+xml</dc:format>
        <dc:type
           rdf:resource="http://purl.org/dc/dcmitype/StillImage" />
      </cc:Work>
    </rdf:RDF>
  </metadata>
  <defs
     id="defs25" />
  <filter
     y="-50%"
     x="-50%"
     height="500"
     width="300"
     id="gcvdj">
    <feFlood
       id="feFlood5"
       result="element"
       flood-color="#436CB9" />
    <feTurbulence
       id="feTurbulence7"
       result="element_1"
       seed="70"
       numOctaves="8"
       type="fractalNoise"
       baseFrequency="0.02" />
    <feGaussianBlur
       id="feGaussianBlur9"
       result="element_2"
       in="SourceAlpha"
       stdDeviation="4" />
    <feDisplacementMap
       id="feDisplacementMap11"
       result="element_3"
       in2="element_1"
       in="element_2"
       scale="100" />
    <feComposite
       id="feComposite13"
       result="element_4"
       in2="element_3"
       in="element"
       operator="in" />
    <feMerge
       id="feMerge15">
      <feMergeNode
         id="feMergeNode17"
         in="element_4" />
    </feMerge>
  </filter>
  <g
     id="g19"
     transform="translate(150,150) scale(1.5)">
    <path
       id="path21"
       style="filter: url(#gcvdj); stroke: rgb(67, 108, 185);"
       d="M0,0L8.630151919911025,-2.1641232062875053C17.26030383982205,-4.328246412575011,34.5206076796441,-8.656492825150021,35.26804265091386,-8.427606217190252C36.01547762218362,-8.198719609230483,20.250043724901083,-3.412699980735936,14.216927602657204,3.050392973429009C8.183811480413326,9.513485927593955,11.883013133208102,17.653652207429296,12.095195344893254,15.445178130774218C12.307377556578405,13.236704054119143,9.032540327153932,0.6795896209736467,13.619991749408605,-2.6222466751446576C18.207443171663275,-5.924082971262962,30.657183245597093,0.029358869645925267,36.94995554620213,3.636091781076325C43.24272784680717,7.2428246925067254,43.37853237408342,8.502848674458638,39.12823098067142,-0.7736166964221525C34.8779295872594,-10.050082067302945,26.241522273159124,-29.86303679101644,14.60114228252308,-38.88695904015729C2.9607622918870398,-47.91088128929814,-11.683590375284766,-46.14577106386634,-13.771233538832117,-37.96761170362947C-15.858876702379467,-29.789452343392597,-5.389810362302365,-15.198243848350646,7.323844043547352,-7.16428362798279C20.03749844939707,0.8696765923850666,34.9957409210194,2.346388538078832,31.911339682011032,3.5975224812909645C28.826938443002668,4.848656424503097,7.699893493363611,5.874212365233596,-2.8924324977303404,1.9130058540669896C-13.48475848882429,-2.048200657099617,-13.542365521373135,-10.996169620163329,-13.367763833366375,-15.59603622721465C-13.193162145359617,-20.195902834265972,-12.786351736797254,-20.447667085304907,-3.1313547234775747,-18.886415513728046C6.523642289842105,-17.325163942151185,25.426825907919103,-13.950896547958534,18.7540942149458,-5.103845902890831C12.081362521972494,3.7432047421768733,-20.167284482051112,18.06303863811963,-29.81170647683858,20.607301909690687C-39.456128471626045,23.15156518126174,-26.496325457177377,13.9202578284611,-24.361596025435855,8.761423854338116C-22.226866593694332,3.6025898802151315,-30.917210744659958,2.5162292847698042,-32.84991961411378,2.244198933933712C-34.782628483567606,1.9721685830976199,-29.957702071509637,2.5144684768707624,-27.511319477748295,5.764325932900807C-25.06493688398695,9.01418338893085,-24.997098108522234,14.971598407217796,-30.163296321241216,6.580499513544217C-35.3294945339602,-1.8105993801293625,-45.729729734862886,-24.550212185763467,-43.3324616545562,-35.40885735244311C-40.93519357424952,-46.26750251912274,-25.740422212733467,-45.24518004684792,-12.66385452510184,-38.232333139444215C0.41271316252978707,-31.219486232040502,11.371077176276993,-18.216114889507903,16.53039531582086,-10.2094390075508C21.689713455364732,-2.202763125593697,21.04998572070527,0.8072172957879102,22.283060296628335,3.6622021503307023C23.516134872551397,6.517187004873494,26.62201175905699,9.217176292577472,29.327871229568075,11.6448805929964C32.03373070007916,14.072584893415328,34.339572754595736,16.22800420654921,26.92554751513144,13.808895270188033C19.511522275667154,11.389786333826857,2.3776297422220054,4.396149147970624,-7.612901678092689,-6.989458589530528C-17.603433098407383,-18.375066327031682,-20.45060340559162,-34.15264461617775,-14.897966733741397,-37.416342352722545C-9.345330061891172,-40.68004008926734,4.607113588993515,-31.429857273210843,10.302366737130729,-27.018990266233175C15.997619885267941,-22.6081232592555,13.435682530657683,-23.03657206135664,18.120814659128087,-18.765419895483866C22.805946787598486,-14.494267729611085,34.73814839914955,-5.523514595764388,32.35674515089641,2.3522815686794685C29.975341902643255,10.228077733123325,13.280333794585891,17.008916928164336,1.1907832964792107,17.532332985722732C-10.89876720162747,18.055749043281125,-18.382860089783467,12.321741963356898,-18.189576897661162,7.464547932554208C-17.996293705538864,2.6073539017515177,-10.125634433138263,-1.3730270799296367,-2.5701277610951934,-2.836054722188368C4.985378910947876,-4.2990823644471,12.225732982633415,-3.2447566672834096,14.089103513262305,-3.9146125600524804C15.952474043891195,-4.584468452821552,12.438861033463436,-6.978505935523384,10.682054528249557,-8.175524676874302L8.925248023035678,-9.372543418225218" />
  </g>
</svg>
