<svg viewBox="0 0 300 300" preserveAspectRatio="xMidYMid" width="300" height="300"><filter id="uirlw" width="300" height="500" x="-50%" y="-50%"><feFlood flood-color="#fefe22" result="element"></feFlood><feTurbulence baseFrequency="0.02" type="fractalNoise" numOctaves="8" seed="74" result="element_1"></feTurbulence><feGaussianBlur stdDeviation="4" in="SourceAlpha" result="element_2"></feGaussianBlur><feDisplacementMap scale="100" in="element_2" in2="element_1" result="element_3"></feDisplacementMap><feComposite operator="in" in="element" in2="element_3" result="element_4"></feComposite><feMerge><feMergeNode in="element_4"></feMergeNode></feMerge></filter><g transform="translate(150,150) scale(1.5)"><path d="M0,0L0.4094120055053894,-0.22490441103085818C0.8188240110107788,-0.44980882206171635,1.6376480220215577,-0.8996176441234327,-7.367757311422577,3.775228841697512C-16.37316264486671,8.450075327518457,-35.20279732276576,18.249577121222064,-37.008327835303376,22.087963864005413C-38.813858347841,25.926350606788766,-23.59528469501719,23.803622298651867,-14.030395073123573,23.060300498758583C-4.465505451229955,22.3169786988653,-0.5542998602665246,22.953063407215634,-3.9629700051104924,19.092392453277025C-7.371640149954461,15.231721499338413,-18.100186030605826,6.874294883110855,-19.515258501360677,-0.16240787072209306C-20.930330972115527,-7.199110624555042,-13.031930032973863,-12.91508951599338,-6.308049616661286,-19.03182939662254C0.4158307996512898,-25.148569277251706,5.965190693134778,-31.666070147071693,2.776551054880949,-30.730627176368724C-0.41208858337287957,-29.795184205665752,-12.338727753364026,-21.40679739443982,-14.342157101031477,-7.092611993475449C-16.345586448698928,7.221573407488924,-8.425805974042689,27.46155739819174,-11.482491297953677,28.615822231182047C-14.539176621864666,29.770087064172362,-28.572327744342882,11.838632739450167,-29.296628256729644,-3.7564298998281878C-30.020928769116402,-19.351492539106545,-17.436378671411706,-32.61016349294106,-6.156538036048305,-30.281521478185642C5.123302599315096,-27.952879463430225,15.0984337723372,-10.036924480084874,18.68784905483281,-0.6516238670020726C22.27726433732842,8.733676746080729,19.480963729297535,9.588322988900977,15.373355714314155,16.218514467925335C11.265747699330776,22.848705946949693,5.846832277394899,35.25444266217816,8.148369998880158,39.013064534948555C10.449907720365415,42.771686407718946,20.471898585271806,37.88319343803127,20.950333313493427,27.777935279769167C21.428768041715042,17.672677121507064,12.363646633251886,2.3506537746705334,4.748194995139614,-5.956950230729716C-2.867256642972657,-14.264554236129966,-9.033038510734045,-15.557738900093932,-16.89690321338275,-13.693589811337203C-24.760767916031455,-11.829440722580472,-34.322715453567476,-6.807957881103045,-24.605629972932356,-4.3715663177062085C-14.888544492297243,-1.9351747543093722,14.10757400650901,-2.0838744689931263,21.551653322642277,-2.0395076152199603C28.995732638775543,-1.9951407614467942,14.887772772235822,-1.757707339216708,5.909662824335222,-1.2905950639395405C-3.068447123565379,-0.8234827886623731,-6.916707152826861,-0.1266916603381243,-1.4888563056226092,-1.4394004849599291C3.938994541581642,-2.7521093095817335,18.642956265251627,-6.074318087149592,19.77667647516664,-8.963458299052139C20.91039668508165,-11.852598510954687,8.473875381241694,-14.308670157191923,6.2911319648098765,-12.120228590232808C4.108388548378059,-9.931787023273692,12.179423019354383,-3.098832243118223,15.710715424874593,5.225420493673814C19.242007830394805,13.54967323046585,18.2335581704589,23.365223923894455,11.837836497083664,14.74446164672826C5.44211482370843,6.123699369562065,-6.340878863106136,-20.93337587819893,-7.720087396677906,-25.778819297976074C-9.099295930249678,-30.62426271775322,-0.07471931057865255,-13.258074309546515,5.281882339684814,-2.4275904168196147C10.63848398994828,8.402893475907286,12.327110670804188,12.697672853154382,11.105303542750136,14.271856100414636C9.883496414696081,15.846039347674889,5.751255477732064,14.6996264649483,6.320193601067871,12.536990250735084C6.889131724403677,10.374354036521863,12.159248908039306,7.195494490822015,11.827317746754424,3.321735323671672C11.495386585469541,-0.5520238434786715,5.561407079264148,-5.120682632079509,-3.195784637104852,-4.521181025982317C-11.952976353473852,-3.9216794198851233,-23.533380280006458,1.8459825809101011,-19.187724655137572,2.8145320684768658C-14.842069030268682,3.7830815560436304,5.4296461460017,-0.047481469618064764,10.899836233711637,0.2699211305655813C16.370026321421573,0.5873237307492274,7.0386913205710675,5.052691956778215,7.501667695820163,1.631062477143896C7.964644071069258,-1.7905670024904223,18.221931822417954,-13.099194187788047,23.350575698092307,-18.75350778043686L28.479219573766652,-24.40782137308567" style="filter: url(#uirlw); stroke: rgb(254, 254, 34);"></path></g></svg>