<?xml version="1.0" encoding="UTF-8" standalone="no"?>
<svg
   xmlns:dc="http://purl.org/dc/elements/1.1/"
   xmlns:cc="http://creativecommons.org/ns#"
   xmlns:rdf="http://www.w3.org/1999/02/22-rdf-syntax-ns#"
   xmlns:svg="http://www.w3.org/2000/svg"
   xmlns="http://www.w3.org/2000/svg"
   version="1.1"
   id="svg2"
   height="300"
   width="300"
   preserveAspectRatio="xMidYMid"
   viewBox="0 0 300 300">
  <metadata
     id="metadata27">
    <rdf:RDF>
      <cc:Work
         rdf:about="">
        <dc:format>image/svg+xml</dc:format>
        <dc:type
           rdf:resource="http://purl.org/dc/dcmitype/StillImage" />
      </cc:Work>
    </rdf:RDF>
  </metadata>
  <defs
     id="defs25" />
  <filter
     y="-50%"
     x="-50%"
     height="500"
     width="300"
     id="lodeq">
    <feFlood
       id="feFlood5"
       result="element"
       flood-color="#fcb4d5" />
    <feTurbulence
       id="feTurbulence7"
       result="element_1"
       seed="64"
       numOctaves="8"
       type="fractalNoise"
       baseFrequency="0.02" />
    <feGaussianBlur
       id="feGaussianBlur9"
       result="element_2"
       in="SourceAlpha"
       stdDeviation="4" />
    <feDisplacementMap
       id="feDisplacementMap11"
       result="element_3"
       in2="element_1"
       in="element_2"
       scale="100" />
    <feComposite
       id="feComposite13"
       result="element_4"
       in2="element_3"
       in="element"
       operator="in" />
    <feMerge
       id="feMerge15">
      <feMergeNode
         id="feMergeNode17"
         in="element_4" />
    </feMerge>
  </filter>
  <g
     id="g19"
     transform="translate(150,150) scale(1.5)">
    <path
       id="path21"
       style="filter: url(#lodeq); stroke: rgb(252, 180, 213);"
       d="M0,0L7.058417891385791,2.1900735215345666C14.116835782771583,4.380147043069133,28.233671565543165,8.760294086138266,31.1166621690747,17.621431492923648C33.99965277260623,26.48256889970903,25.64879819689772,39.824696670210656,10.541602954058252,39.53163817677251C-4.565592288781216,39.23857968333436,-26.429128198751638,25.31033492595643,-28.21065598701133,16.51762907319422C-29.99218377527102,7.724923220432019,-11.691703441819984,4.067756272285537,2.8787132185531084,5.097540908834979C17.4491298789262,6.12732554538442,28.28948286622135,11.844061766629785,26.306777825495555,6.409381418365182C24.324072784769765,0.9747010701005792,9.518309716023033,-15.611395847673991,3.679340308980046,-15.37168355254408C-2.159629098062941,-15.131971257414172,0.968195156597816,1.9335502506202182,5.144413261276439,9.419742004203151C9.32063136595506,16.905933757786084,14.545243320651547,14.812795756917561,16.626590741592143,14.076444256031895C18.707938162532734,13.34009275514623,17.646021049717433,13.960527754243422,14.227907493653259,20.406597716350753C10.809793937589083,26.85266767845808,5.035483938276031,39.124372603575544,4.521651737845268,33.20844487928224C4.007819537414505,27.292517154988946,8.754465135866031,3.188956781284885,10.271290102666978,-2.703321454317174C11.788115069467922,-8.595599689919233,10.075119404618288,3.72340421258071,8.609320089260523,7.445593680446978C7.143520773902756,11.167783148313244,5.9249178080368585,6.293158181545836,8.044188578174312,1.2948627160010706C10.163459348311767,-3.703432749543695,15.620603854452572,-8.825398713865818,19.862907257202153,-5.762715850628048C24.105210659951737,-2.7000329873902773,27.132672959310092,8.547298703407385,22.036856663508427,10.125684113104608C16.941040367706762,11.70406952280183,3.7219454767450726,3.613508651398612,-5.1730784308236775,-3.6598324162494684C-14.068102338392427,-10.933173483897548,-18.639055262568238,-17.38929474779049,-17.642268647051,-15.674876625531015C-16.64548203153376,-13.960458503271537,-10.080955876323472,-4.075500994859643,-15.446412548219778,0.1693484991848287C-20.811869220116083,4.4141979932293,-38.10730871911898,3.0189394729063475,-37.089211599378814,11.720940602702004C-36.071114479638645,20.422941732497662,-16.739480741155415,39.22220251241193,-4.475067288700613,43.256313833135614C7.789346163754189,47.29042515385929,12.98653933018056,36.55938701539239,9.15195195484606,36.368944566205C5.317364579511558,36.178502117017615,-7.549003337583816,46.528655357109756,-5.170384432157785,44.76932384107512C-2.791765526731755,43.009992325040486,14.83184020121568,29.14117605287909,23.260001345016455,19.61630536027888C31.688162488817234,10.091434667678673,30.920879048471356,4.910509554639655,28.25490713953671,4.093040346811062C25.588935230602058,3.2755711389824698,21.024274853078637,6.821557836364302,16.6164208627141,-0.23065094446793388C12.20856687234956,-7.28285972530017,7.957519269143901,-24.933263984346475,5.394499822270432,-25.227776277924896C2.8314803753969624,-25.52228857150332,1.9564890848556826,-8.460908899613862,0.509733489538067,-0.04404777259355663C-0.9370221057795485,8.37281335442675,-2.9555420058734994,8.145155936577902,-6.244614542164113,7.855679791255309C-9.533687078454726,7.566203645932715,-14.093312250942002,7.214908773136375,-21.972962510460718,11.69031362299001C-29.852612769979437,16.165718472843643,-41.052288116529596,25.467823045347252,-38.653325125856874,32.872748949996705C-36.25436213518416,40.27767485464615,-20.256760807288558,45.78542209144145,-21.072192807191634,48.420224920958795C-21.88762480709471,51.055027750476135,-39.516090134796464,50.81688617271553,-35.97470267490358,51.352976386507635C-32.43331521501071,51.88906660029974,-7.722074967523213,53.19938860564456,10.77047379717844,45.384531318420564C29.263022561880092,37.56967403119657,41.5368798437959,20.62963745140376,38.40168049436028,11.69618853993013C35.26648114492465,2.7627396284564996,16.722225164137594,1.8358783853020435,7.450097173744068,1.3724477637248156L-1.8220308166494588,0.9090171421475877" />
  </g>
</svg>
