<?xml version="1.0" encoding="UTF-8" standalone="no"?>
<svg
   xmlns:dc="http://purl.org/dc/elements/1.1/"
   xmlns:cc="http://creativecommons.org/ns#"
   xmlns:rdf="http://www.w3.org/1999/02/22-rdf-syntax-ns#"
   xmlns:svg="http://www.w3.org/2000/svg"
   xmlns="http://www.w3.org/2000/svg"
   version="1.1"
   id="svg2"
   height="300"
   width="300"
   preserveAspectRatio="xMidYMid"
   viewBox="0 0 300 300">
  <metadata
     id="metadata27">
    <rdf:RDF>
      <cc:Work
         rdf:about="">
        <dc:format>image/svg+xml</dc:format>
        <dc:type
           rdf:resource="http://purl.org/dc/dcmitype/StillImage" />
      </cc:Work>
    </rdf:RDF>
  </metadata>
  <defs
     id="defs25" />
  <filter
     y="-50%"
     x="-50%"
     height="500"
     width="300"
     id="zdxpn">
    <feFlood
       id="feFlood5"
       result="element"
       flood-color="#253529" />
    <feTurbulence
       id="feTurbulence7"
       result="element_1"
       seed="40"
       numOctaves="8"
       type="fractalNoise"
       baseFrequency="0.02" />
    <feGaussianBlur
       id="feGaussianBlur9"
       result="element_2"
       in="SourceAlpha"
       stdDeviation="4" />
    <feDisplacementMap
       id="feDisplacementMap11"
       result="element_3"
       in2="element_1"
       in="element_2"
       scale="100" />
    <feComposite
       id="feComposite13"
       result="element_4"
       in2="element_3"
       in="element"
       operator="in" />
    <feMerge
       id="feMerge15">
      <feMergeNode
         id="feMergeNode17"
         in="element_4" />
    </feMerge>
  </filter>
  <g
     id="g19"
     transform="translate(150,150) scale(1.5)">
    <path
       id="path21"
       style="filter: url(#zdxpn); stroke: rgb(37, 53, 41);"
       d="M0,0L6.045762976985907,8.124283927044242C12.091525953971814,16.248567854088485,24.18305190794363,32.49713570817697,33.72018286091365,25.039270813590225C43.25731381388367,17.58140591900348,50.24004976585189,-13.582891724258499,40.63833589308926,-28.825074993132585C31.036622020326632,-44.067258262006675,4.850458322833145,-43.387327156492866,3.503166962150887,-36.1858280276279C2.1558756014686296,-28.98432889876292,25.647456577597602,-15.261261746546777,23.137564110734317,-8.554460747344873C20.627671643871032,-1.8476597481429677,-7.883694265984513,-2.157124901955302,-23.487531132343587,1.8127762709296988C-39.09136799870266,5.7826774438147,-41.78767582156526,14.031944943397036,-39.063421244699555,13.816672388681875C-36.33916666783386,13.601399833966711,-28.19434969123985,4.9215872249540515,-18.76734687073059,0.06453355599170285C-9.34034405022133,-4.792520112970646,1.3688446142031871,-5.826814841882683,6.965625354829437,-12.093156898260421C12.562406095455687,-18.359498954638163,13.04677891228367,-29.8578883384816,9.737549012382594,-32.865535271792304C6.428319112481517,-35.87318220510301,-0.6745135041486208,-30.390086687880974,2.62347106568797,-23.62441955502891C5.921455635524561,-16.858752422176842,19.62025739182788,-8.810513673694745,19.304482336966956,0.8062867808627789C18.98870728210603,10.423087235420304,4.658355416080864,21.608449396053256,-0.28305853224730837,22.966626460364825C-5.224472480575481,24.324803524676398,-0.7769485112066588,15.85579549266659,1.7068230667101487,14.896852435522836C4.190594644626956,13.937909378379082,4.710613831091749,20.48903129610138,8.426755219023082,18.696312846267702C12.142896606954416,16.903594396434027,19.055160196352293,6.7670355790443715,24.559855248910498,-1.234960780458191C30.064550301468707,-9.236957139960753,34.16167681718725,-15.104391041576221,24.765302491718572,-14.70076444204767C15.368928166249887,-14.29713784251912,-7.520947000406016,-7.622450741846549,-14.237008274084435,-4.066632571373738C-20.95306954776285,-0.5108144009009249,-11.495316928463785,-0.07386516062787013,-6.079298826008664,-4.888499470297392C-0.6632807235535434,-9.703133779966914,0.7110028620576307,-19.76935163957901,-2.2517745526390884,-13.253258104318409C-5.214551967335808,-6.737164569057807,-12.51439038234042,16.361240361075495,-14.812893181041035,26.213067553898497C-17.11139597974165,36.06489474672151,-14.408563162138272,32.67014420223421,-18.56892861669574,31.2339051391938C-22.72929407125321,29.797666076153387,-33.75285779797153,30.319938494559853,-35.80153497647847,26.33183710285548C-37.850212154985414,22.34373571115111,-30.92400278528098,13.845260509335898,-26.222436845922715,5.00482903804781C-21.520870906564447,-3.835602433240277,-19.04394839755235,-13.017990174001241,-15.026496288690202,-14.71742420490363C-11.009044179828056,-16.416858235806018,-5.45106247111586,-10.633338556849829,-2.76008465159112,-7.4334820047908785C-0.06910683206638024,-4.233625452731927,-0.24513290172909596,-3.617432027570211,0.17098117718800654,-3.024597927994801C0.587095256105109,-2.431763828419391,1.5953494836020297,-1.8622890544302857,2.4375966506724724,-1.0674217878897663C3.2798438177429157,-0.27255452134924674,3.956083924386881,0.7477052377426869,4.667751101187832,-3.7516949566660447C5.379418277988784,-8.251095151074777,6.1265125249467225,-18.270155298984175,5.7389259247758515,-17.57283030657042C5.3513393246049805,-16.87550531415667,3.8290718773053007,-5.4617951814197685,2.7148703257090894,1.951698313353739C1.6006687741128784,9.365191808127246,0.8945331182201359,12.778468664937359,4.480112022456398,11.691771042141841C8.065690926692659,10.605073419346326,15.942984391057925,5.01840131694518,15.20472596516728,5.070166523950738C14.466467539276632,5.121931730956297,5.112657223130075,10.81213424736856,4.618992282788516,7.67819777986474C4.1253273424469565,4.544261312360922,12.491807777910397,-7.413814139058978,14.19433776400419,-12.432415600685834C15.896867750097984,-17.45101706231269,10.935447286822129,-15.530144534146503,8.4547370551842,-14.569708270063408L5.974026823546273,-13.609272005980316" />
  </g>
</svg>
