<?xml version="1.0" encoding="UTF-8" standalone="no"?>
<svg
   xmlns:dc="http://purl.org/dc/elements/1.1/"
   xmlns:cc="http://creativecommons.org/ns#"
   xmlns:rdf="http://www.w3.org/1999/02/22-rdf-syntax-ns#"
   xmlns:svg="http://www.w3.org/2000/svg"
   xmlns="http://www.w3.org/2000/svg"
   version="1.1"
   id="svg2"
   height="300"
   width="300"
   preserveAspectRatio="xMidYMid"
   viewBox="0 0 300 300">
  <metadata
     id="metadata27">
    <rdf:RDF>
      <cc:Work
         rdf:about="">
        <dc:format>image/svg+xml</dc:format>
        <dc:type
           rdf:resource="http://purl.org/dc/dcmitype/StillImage" />
      </cc:Work>
    </rdf:RDF>
  </metadata>
  <defs
     id="defs25" />
  <filter
     y="-50%"
     x="-50%"
     height="500"
     width="300"
     id="gbfdq">
    <feFlood
       id="feFlood5"
       result="element"
       flood-color="#fff44f" />
    <feTurbulence
       id="feTurbulence7"
       result="element_1"
       seed="83"
       numOctaves="8"
       type="fractalNoise"
       baseFrequency="0.02" />
    <feGaussianBlur
       id="feGaussianBlur9"
       result="element_2"
       in="SourceAlpha"
       stdDeviation="5" />
    <feDisplacementMap
       id="feDisplacementMap11"
       result="element_3"
       in2="element_1"
       in="element_2"
       scale="100" />
    <feComposite
       id="feComposite13"
       result="element_4"
       in2="element_3"
       in="element"
       operator="in" />
    <feMerge
       id="feMerge15">
      <feMergeNode
         id="feMergeNode17"
         in="element_4" />
    </feMerge>
  </filter>
  <g
     id="g19"
     transform="translate(150,150) scale(1.5)">
    <path
       id="path21"
       style="filter: url(#gbfdq); stroke: rgb(255, 244, 79);"
       d="M0,0L3.7669312500366745,6.839151469402079C7.533862500073349,13.678302938804158,15.067725000146698,27.356605877608317,18.098977995127953,28.7859077296942C21.130230990109208,30.215209581780083,19.658874479998367,19.39551034714769,11.644764973269236,9.811623561627588C3.630655466540105,0.227736776107486,-10.92620703680732,-8.120337560300324,-9.580810343112658,-9.769709212908818C-8.235413649417996,-11.419080865517312,9.012242241318752,-6.369749834326486,12.323710070987211,-9.068055183401198C15.635177900655668,-11.76636053247591,5.010457669255837,-22.21230226181616,5.845174856391305,-22.7681548055922C6.679892043526772,-23.324007349368248,18.97404664919754,-13.989770707580085,24.35550405762958,-1.9671510525750504C29.73696146606162,10.055468602429986,28.20572167725493,24.7664712706519,14.99454985115446,31.275282252207347C1.7833780250539828,37.784093233762796,-23.10772583834028,36.09071252865178,-24.083019168173493,24.918777782447865C-25.0583124980067,13.746843036243952,-2.1177952942788583,-6.90364575105286,8.019670338655565,-12.091339480456002C18.157135971589987,-17.279033209859143,15.491550033730995,-7.003931881368618,12.401471369965478,-7.203482584260811C9.31139270619996,-7.403033287153003,5.79682131652792,-18.077236021427915,5.2599244384430435,-23.724362387064065C4.723027560358166,-29.371488752700216,7.163805193860453,-29.991538749697607,5.7385664185920735,-24.426905022694243C4.313327643323694,-18.86227129569088,-0.9779275407153518,-7.112953844686763,-3.965455208727359,-6.31753927424462C-6.952982876739366,-5.5221247038024766,-7.636783028724334,-15.680613013922306,-6.366134409085759,-7.489878649310203C-5.095485789447183,0.7008557153018984,-1.8703883981850633,27.240812754645933,-6.2109679807588245,30.34243486782381C-10.551547563332587,33.44405698100169,-22.457804119742228,13.10734416801341,-21.359379026110943,5.118093132883615C-20.26095393247966,-2.8711579022461806,-6.157847188807446,1.487052840482507,3.176347860169717,4.168254182584714C12.510542909146881,6.84945552468692,17.075826263428993,7.853647466162647,11.340357401170198,5.747789941875219C5.604888538911402,3.6419324175877903,-10.431332539888306,-1.5739745724627916,-23.05987705002689,6.485420837810366C-35.68842156016548,14.544816248083524,-44.909289501642945,35.87951405868042,-48.67820559451073,33.9147390923767C-52.44712168737851,31.949964126072977,-50.764085931636615,6.685716382868636,-44.398142175768136,-9.8683776361643C-38.03219841989964,-26.422471655197235,-26.983346663904577,-34.26641195005877,-24.098706041304727,-26.626407201660975C-21.214065418704873,-18.98640245326318,-26.493635929500236,4.1375473383939365,-18.43528816981305,7.3481887417250995C-10.376940410125865,10.558830145056262,11.019325620043873,-6.1438368399385315,16.2847264080797,-2.9374033759286258C21.550127196115525,0.26903008808127993,10.684662742017437,23.384564001095885,9.850766721821383,27.143752970662423C9.016870701625326,30.902941940228956,18.214543115331303,15.305785966347425,15.00054368718364,12.561253451478226C11.78654425903598,9.816720936609029,-3.839127010965317,19.924811880752163,-10.242015099972333,20.78650991908528C-16.64490318897935,21.648207957418393,-13.825008096992082,13.263513089941489,-3.751763167132135,9.824340283900373C6.321481762727811,6.385167477859256,23.648076530460436,7.891516733253928,23.472289906768847,1.6040174858520873C23.296503283077257,-4.683481761549754,5.618335267961449,-18.764829511748108,-0.8850632370433901,-11.262662413069261C-7.388461742048229,-3.7604953143904147,-2.7170907369420987,25.325186633165636,-5.914271389208058,36.74949420560998C-9.111452041474017,48.17380177805431,-20.177184351112068,41.93673497538694,-24.551340614962253,32.85803745182305C-28.92549687881244,23.779339928259166,-26.608077096874766,11.859011683798762,-23.023087668988637,4.777641115053445C-19.438098241102512,-2.303729453691873,-14.585539167267934,-4.546142346722107,-3.935696681764603,-5.837084134409713C6.714145803738726,-7.1280259220973194,23.161271700910806,-7.4674966044422995,31.384834649496845,-7.63723194561479L39.60839759808289,-7.80696728678728" />
  </g>
</svg>
