<?xml version="1.0" encoding="UTF-8" standalone="no"?>
<svg
   xmlns:dc="http://purl.org/dc/elements/1.1/"
   xmlns:cc="http://creativecommons.org/ns#"
   xmlns:rdf="http://www.w3.org/1999/02/22-rdf-syntax-ns#"
   xmlns:svg="http://www.w3.org/2000/svg"
   xmlns="http://www.w3.org/2000/svg"
   version="1.1"
   id="svg2"
   height="300"
   width="300"
   preserveAspectRatio="xMidYMid"
   viewBox="0 0 300 300">
  <metadata
     id="metadata27">
    <rdf:RDF>
      <cc:Work
         rdf:about="">
        <dc:format>image/svg+xml</dc:format>
        <dc:type
           rdf:resource="http://purl.org/dc/dcmitype/StillImage" />
      </cc:Work>
    </rdf:RDF>
  </metadata>
  <defs
     id="defs25" />
  <filter
     y="-50%"
     x="-50%"
     height="500"
     width="300"
     id="znlwp">
    <feFlood
       id="feFlood5"
       result="element"
       flood-color="#fdff00" />
    <feTurbulence
       id="feTurbulence7"
       result="element_1"
       seed="31"
       numOctaves="8"
       type="fractalNoise"
       baseFrequency="0.02" />
    <feGaussianBlur
       id="feGaussianBlur9"
       result="element_2"
       in="SourceAlpha"
       stdDeviation="5" />
    <feDisplacementMap
       id="feDisplacementMap11"
       result="element_3"
       in2="element_1"
       in="element_2"
       scale="100" />
    <feComposite
       id="feComposite13"
       result="element_4"
       in2="element_3"
       in="element"
       operator="in" />
    <feMerge
       id="feMerge15">
      <feMergeNode
         id="feMergeNode17"
         in="element_4" />
    </feMerge>
  </filter>
  <g
     id="g19"
     transform="translate(150,150) scale(1.5)">
    <path
       id="path21"
       style="filter: url(#znlwp); stroke: rgb(253, 255, 0);"
       d="M0,0L3.533716693427316,5.023594263608798C7.067433386854632,10.047188527217596,14.134866773709264,20.094377054435192,15.90962668795174,30.066985268706986C17.684386602194213,40.03959348297878,14.16647304382453,49.93762138430478,18.85008762301735,43.174116354314755C23.533702202210176,36.41061132432474,36.418844918965505,12.985573363018714,40.24714027760065,2.790794046081615C44.07543563623579,-7.403985270855484,38.84688363675074,-4.368505943423656,28.797924779569918,-0.044917973788277C18.748965922389093,4.278669995847102,3.8796002075124987,9.890366607686033,0.958960059143978,7.61026121380782C-1.9616800892245427,5.330155819929606,7.066405328915012,-4.841751579665752,15.957006447439046,-4.549450603183331C24.84760756596308,-4.25714962670091,33.60072438487159,6.499359725859291,32.82354316622367,9.987825184409713C32.046361947575754,13.476290642960135,21.738882691371398,9.696712207500779,15.07435695743019,3.1349420096697673C8.409831223488982,-3.4268281881612457,5.38825901181092,-12.770790148363915,2.9020941961713915,-10.567544847477874C0.41592938053186335,-8.364299546591834,-1.5348280390691305,5.386153015382914,-4.2968556591676865,6.42777578544452C-7.058883279266242,7.469398555506125,-10.632181099862361,-4.197808466345413,-11.178711545772712,-8.24132684786215C-11.725241991683063,-12.284845229378883,-9.245005062907646,-8.704674970560815,-0.502097129784886,-3.234806381610295C8.240810803337874,2.2350622073402255,23.246389740807977,9.594629126423198,21.04339140560184,17.675708132230643C18.84039307039571,25.756787138038092,-0.5711825374866653,34.55937823057001,-4.863048164375728,34.125064108951776C-9.154913791264791,33.69074998733355,1.6729305628394568,24.019530651565155,10.820021460926418,12.031500178581815C19.967112359013377,0.04346970559847385,27.43344980108305,-14.261371904599823,17.193623147247628,-20.492140235470846C6.953796493412209,-26.72290856634187,-20.992194256328304,-24.87960361788562,-31.51104642823779,-19.53477583242012C-42.02989860014728,-14.189948046954619,-35.12161219422573,-5.34359742447987,-22.1240218984791,-1.0064197966599981C-9.126431602732474,3.3307578311598736,9.960462582839238,3.1587624643248677,19.94933087917112,2.391103423985867C29.938199175503005,1.6234443836468662,30.82904158259506,0.26012166980387097,19.1553473675668,-2.7676082496491907C7.48165315253854,-5.795338169102252,-16.756577684610036,-10.48747529416538,-21.503868761363933,-15.139243037528272C-26.251159838117832,-19.791010780891163,-11.507511154477054,-24.402409142553818,-1.098550222223695,-22.883626754361423C9.310410710029664,-21.364844366169024,15.384683890895607,-13.715881228121576,8.32015091168136,-13.193758131545966C1.2556179324671106,-12.671635034970356,-18.947721206827328,-19.276351979866583,-24.662166646768625,-24.13974406604632C-30.376612086709923,-29.00313615222606,-21.602163827298078,-32.12520337968931,-17.83773352575651,-25.627232886451182C-14.07330322421494,-19.12926239321306,-15.318890880543647,-3.011254179273571,-6.68508042254224,9.451036923779952C1.9487300354591657,21.913328026833476,20.461938607790685,30.719902019001026,26.680535153175573,26.454922870506138C32.89913169856046,22.18994372201125,26.82311621699872,4.853411432853919,16.502966282081076,1.5162357001263613C6.182816347163424,-1.8209400326011966,-8.38146804111013,8.841240791101018,-14.249877111129688,14.886451908512438C-20.118286181149244,20.931663025923857,-17.290819932914808,22.35990443704448,-12.655638500410177,10.35889909980961C-8.020457067905545,-1.6421062374252635,-1.5775604511307217,-27.07235832301563,7.76395310589105,-33.38810703674483C17.10546666291282,-39.703855750474034,29.34559716018154,-26.905101092342065,30.797845133883087,-16.47716031891812C32.250093107584625,-6.049219545494174,22.914458557718994,2.007907343221749,13.783955098817806,9.429817518106411C4.65345163991662,16.851727692991073,-4.271920728020119,23.638421154044472,-7.355882160982988,19.82872473646463C-10.439843593945858,16.019028318884786,-7.682394091934859,1.6129420226716942,-6.30366934092936,-5.590101125434851L-4.924944589923861,-12.793144273541396" />
  </g>
</svg>
