<?xml version="1.0" encoding="UTF-8" standalone="no"?>
<svg
   xmlns:dc="http://purl.org/dc/elements/1.1/"
   xmlns:cc="http://creativecommons.org/ns#"
   xmlns:rdf="http://www.w3.org/1999/02/22-rdf-syntax-ns#"
   xmlns:svg="http://www.w3.org/2000/svg"
   xmlns="http://www.w3.org/2000/svg"
   version="1.1"
   id="svg2"
   height="300"
   width="300"
   preserveAspectRatio="xMidYMid"
   viewBox="0 0 300 300">
  <metadata
     id="metadata27">
    <rdf:RDF>
      <cc:Work
         rdf:about="">
        <dc:format>image/svg+xml</dc:format>
        <dc:type
           rdf:resource="http://purl.org/dc/dcmitype/StillImage" />
      </cc:Work>
    </rdf:RDF>
  </metadata>
  <defs
     id="defs25" />
  <filter
     y="-50%"
     x="-50%"
     height="500"
     width="300"
     id="sijze">
    <feFlood
       id="feFlood5"
       result="element"
       flood-color="#ffff38" />
    <feTurbulence
       id="feTurbulence7"
       result="element_1"
       seed="93"
       numOctaves="8"
       type="fractalNoise"
       baseFrequency="0.02" />
    <feGaussianBlur
       id="feGaussianBlur9"
       result="element_2"
       in="SourceAlpha"
       stdDeviation="4" />
    <feDisplacementMap
       id="feDisplacementMap11"
       result="element_3"
       in2="element_1"
       in="element_2"
       scale="100" />
    <feComposite
       id="feComposite13"
       result="element_4"
       in2="element_3"
       in="element"
       operator="in" />
    <feMerge
       id="feMerge15">
      <feMergeNode
         id="feMergeNode17"
         in="element_4" />
    </feMerge>
  </filter>
  <g
     id="g19"
     transform="translate(150,150) scale(1.5)">
    <path
       id="path21"
       style="filter: url(#sijze); stroke: rgb(255, 255, 56);"
       d="M0,0L1.5013887540653077,1.2246499196331109C3.0027775081306154,2.4492998392662217,6.005555016261231,4.8985996785324435,9.853131910604947,5.837308413658905C13.700708804948663,6.776017148785366,18.39308508550548,6.204134779772067,18.164530733277598,4.49173147705965C17.935976381049716,2.7793281743472327,12.786491396037135,-0.07359606206430302,10.982733160862807,0.1757565380263264C9.178974925688483,0.42510913811695583,10.72094344035241,3.7767385747097504,5.933065447317253,8.514422664706515C1.1451874542820946,13.25210675470328,-9.972537046452151,19.375845498104017,-6.641201435903326,20.255405266732858C-3.309865825354498,21.134965035361695,14.470529896477402,16.770345829218634,18.59710749448063,8.113396472738604C22.723685092483855,-0.5435528837414267,13.196444566658409,-13.492832390558428,14.51587408625743,-15.436540671283929C15.83530360585645,-17.38024895200943,28.001403170879936,-8.318386006643435,32.190153851059776,-5.400154743479552C36.37890453123961,-2.481923480315669,32.5903063265758,-5.7073238993539,34.459011472190696,-8.362837420963695C36.32771661780559,-11.018350942573488,43.85372511369919,-13.103977566754844,46.76050649960791,-11.575917902657222C49.667287885516615,-10.047858238559597,47.95484216144043,-4.906112286182993,41.57441106216795,-6.1185393962518315C35.19397996289546,-7.33096650632067,24.145563488426667,-14.89756667883495,17.375166171703597,-10.97759304327535C10.604768854980533,-7.057619407715747,8.112390696003189,8.348928035917737,7.102295344369097,9.687754448960494C6.092199992735004,11.026580862003252,6.564387448444161,-1.7023137555447176,-1.6668324019102299,-11.945307846533916C-9.898052252264621,-22.188301937523114,-26.832679408682562,-29.94539550195354,-36.436743385734275,-30.221412553028493C-46.040807362786,-30.497429604103445,-48.3143081604715,-23.292370141822925,-43.87313674018658,-23.702687608988317C-39.431965319901664,-24.11300507615371,-28.27612168164633,-32.13869947276501,-24.62032281881089,-32.04178877405577C-20.964523955975444,-31.944878075346526,-24.80876986855989,-23.725362281316734,-21.422036711429616,-21.98582333379052C-18.03530355429934,-20.246284386264307,-7.417591327454343,-24.986722285241665,-0.21615344341146026,-12.560354487413363C6.985284440631422,-0.13398668958505766,10.770447981872191,29.459186805048912,10.179559121902834,29.07975035082646C9.588670261933474,28.700313896603998,4.621729000753987,-1.651732506474886,-0.4003983956028536,-11.345262617672525C-5.4225257919596945,-21.038792728870163,-10.499839323493891,-10.073806548186555,-13.63508423576429,-5.881833355240989C-16.77032914803469,-1.6898601622954235,-17.963505441041296,-4.270899957087899,-6.848655317239645,-4.823339567208237C4.266194806562007,-5.375779177328573,27.689071347171915,-3.899618602776772,24.738811475930518,-11.23050177305025C21.788551604689125,-18.56138494332373,-7.534844678403569,-34.69931185842249,-15.553894982290295,-31.294710694745124C-23.572945286177017,-27.890109531067765,-10.28764961085777,-4.942980288614281,-1.5493788592276365,4.8886712312007035C7.188891892402497,14.72032275101569,11.380137720343516,11.436496548192178,10.544749348654172,3.4960694459098374C9.709360976964827,-4.444357656372501,3.8473384056451208,-17.04138565811367,3.8206658051846345,-22.968612835965793C3.7939932047241482,-28.895840013817914,9.602670575122882,-28.153266367780994,7.148700007735175,-18.80983027354742C4.6947294403474675,-9.466394179313841,-6.0218890648266825,8.47790436311639,-8.219425626915267,7.785435192813363C-10.416962189003852,7.0929660225103355,-4.095416808006871,-12.236270860525952,7.228028211779346,-16.15689134673172C18.551473231565563,-20.07751183293748,34.87681789014102,-8.58951592231272,34.41426557788845,-1.8419627975967774C33.95171326563589,4.905590327119166,16.7012639825553,6.912700665926291,10.665287960096242,5.047238529896941C4.629311937637185,3.181776393867591,9.80780917579966,-2.5562582169982337,9.981921947108079,-4.887022171957259C10.1560347184165,-7.217786126916285,5.3257630228708654,-6.141279425968511,2.910627175098049,-5.603026075494624L0.4954913273252318,-5.064772725020737" />
  </g>
</svg>
