<?xml version="1.0" encoding="UTF-8" standalone="no"?>
<svg
   xmlns:dc="http://purl.org/dc/elements/1.1/"
   xmlns:cc="http://creativecommons.org/ns#"
   xmlns:rdf="http://www.w3.org/1999/02/22-rdf-syntax-ns#"
   xmlns:svg="http://www.w3.org/2000/svg"
   xmlns="http://www.w3.org/2000/svg"
   version="1.1"
   id="svg2"
   height="300"
   width="300"
   preserveAspectRatio="xMidYMid"
   viewBox="0 0 300 300">
  <metadata
     id="metadata27">
    <rdf:RDF>
      <cc:Work
         rdf:about="">
        <dc:format>image/svg+xml</dc:format>
        <dc:type
           rdf:resource="http://purl.org/dc/dcmitype/StillImage" />
      </cc:Work>
    </rdf:RDF>
  </metadata>
  <defs
     id="defs25" />
  <filter
     y="-50%"
     x="-50%"
     height="500"
     width="300"
     id="nyfks">
    <feFlood
       id="feFlood5"
       result="element"
       flood-color="#1a1110" />
    <feTurbulence
       id="feTurbulence7"
       result="element_1"
       seed="65"
       numOctaves="8"
       type="fractalNoise"
       baseFrequency="0.02" />
    <feGaussianBlur
       id="feGaussianBlur9"
       result="element_2"
       in="SourceAlpha"
       stdDeviation="4" />
    <feDisplacementMap
       id="feDisplacementMap11"
       result="element_3"
       in2="element_1"
       in="element_2"
       scale="100" />
    <feComposite
       id="feComposite13"
       result="element_4"
       in2="element_3"
       in="element"
       operator="in" />
    <feMerge
       id="feMerge15">
      <feMergeNode
         id="feMergeNode17"
         in="element_4" />
    </feMerge>
  </filter>
  <g
     id="g19"
     transform="translate(150,150) scale(1.5)">
    <path
       id="path21"
       style="filter: url(#nyfks); stroke: rgb(26, 17, 16);"
       d="M0,0L0.5330460158798493,3.206588737924399C1.0660920317596987,6.413177475848798,2.1321840635193974,12.826354951697596,2.4940318678294684,8.210722590557879C2.8558796721395394,3.5950902294181617,2.513483248999983,-12.04935196871007,2.2775018983898474,-14.435965424965433C2.0415205477797116,-16.822578881220796,1.9119542696989968,-5.951363595603293,1.629918432553371,-5.19651159727238C1.3478825954077456,-4.441659598941468,0.9133771991972092,-13.803170887897148,1.5563611972264977,-15.810418484825089C2.199345195255786,-17.817666081753032,3.919818587524899,-12.470649986653239,-1.4271630518545235,-8.650565808535683C-6.774144691233946,-4.830481630418124,-19.188581362261903,-2.5373293692828027,-18.574148489896384,0.03808667402821975C-17.95971561753087,2.613502717339242,-4.316413201771874,5.471182542825966,3.0327958745852315,15.112146203752548C10.382004950942337,24.75310986467913,11.437120687897552,41.177357361045566,10.768642266394801,32.03984730620876C10.100163844892048,22.902337251371968,7.708091264931329,-11.796930354668074,5.636083957210347,-20.866367931240525C3.564076649489366,-29.935805507812976,1.812134614008123,-13.375413054917836,-5.161618021166954,1.1507194025485399C-12.135370656342031,15.676851860014917,-24.330933891210943,28.16872432205253,-21.447573397063376,25.796741865453136C-18.564212902915806,23.424759408853742,-0.6019286797517509,6.188922033617342,5.975773942896732,-0.6061805258981675C12.553476565545214,-7.401283085413676,7.746597587678125,-3.7556508292082937,7.226796351574185,2.1536380831934743C6.706995115470246,8.062926995595243,10.474271621129455,16.235872564193397,13.067541525123328,20.01464846437424C15.6608114291172,23.793424364555086,17.080074731445734,23.178030596318628,11.704277858691352,19.13090901273568C6.328480985936972,15.083787429152729,-5.842376061900326,7.6049380302232885,-9.083550565515804,12.463417940175937C-12.32472506913128,17.321897850128586,-6.636217028524934,34.51770706896332,-8.99578284891992,39.4176106452508C-11.355348669314907,44.317514221538275,-21.762988350711225,36.921512155278485,-21.602061414089484,28.42804518461262C-21.44113447746774,19.934578213946757,-10.71164092282794,10.343646338874818,-4.97397541426148,0.01195824076112384C0.7636900943049785,-10.319729857352568,1.509527556798093,-21.392174178508014,0.13038659413848053,-18.429571714460504C-1.2487543685211322,-15.466969250412996,-4.752873756333472,1.530679998837467,-4.6132600499130785,7.772485916666846C-4.473646343492686,14.014291834496225,-0.69029954283956,9.50025442090452,1.471760402824016,9.093108905800452C3.633820348487592,8.685963390696383,4.174593439161618,12.385709774079952,4.743080298902772,6.522157397280962C5.311567158643927,0.6586050204819696,5.907767787452209,-14.768246116499583,3.9049531612868655,-14.069584107129373C1.9021385351215225,-13.370922097759163,-2.6996913460174463,3.453253057962808,5.060654282964069,8.327463446018234C12.820999911945584,13.20167383407366,32.94352105104758,6.125919454462539,39.80638585886132,10.489071881905236C46.669250666675055,14.852224309347934,40.27245914320053,30.65428354384445,23.64677705737974,32.68960329250539C7.021094971558952,34.724923041166335,-19.833477676608098,22.9935033039917,-19.79685322189064,11.077040118004474C-19.76022876717318,-0.8394230679827555,7.167592790428788,-12.940929702782583,8.881758190716372,-11.377450804588289C10.595923591003954,-9.813971906393995,-12.903567166022848,5.414492524794424,-19.371493300559386,9.944831132097313C-25.839419435095927,14.475169739400203,-15.2757809471422,8.307382522817562,-10.348168596963067,5.924333970492591C-5.420556246783932,3.5412854181676208,-6.128970034379388,4.94297553010032,-4.643058029924535,8.88947371704878C-3.1571460254696815,12.83597190399724,0.5230917710354812,19.327278165961463,0.8994026260829435,27.647901626225227C1.2757134811304058,35.96852508648899,-1.6519026052798322,46.11846574505229,-2.2382628712855115,41.217773509046744C-2.8246231372911903,36.3170812730412,-1.0697275828923105,16.3657561424668,-0.19227980569287056,6.390093577179601L0.6851679715065694,-3.5855689881075974" />
  </g>
</svg>
