<?xml version="1.0" encoding="UTF-8" standalone="no"?>
<svg
   xmlns:dc="http://purl.org/dc/elements/1.1/"
   xmlns:cc="http://creativecommons.org/ns#"
   xmlns:rdf="http://www.w3.org/1999/02/22-rdf-syntax-ns#"
   xmlns:svg="http://www.w3.org/2000/svg"
   xmlns="http://www.w3.org/2000/svg"
   version="1.1"
   id="svg2"
   height="300"
   width="300"
   preserveAspectRatio="xMidYMid"
   viewBox="0 0 300 300">
  <metadata
     id="metadata27">
    <rdf:RDF>
      <cc:Work
         rdf:about="">
        <dc:format>image/svg+xml</dc:format>
        <dc:type
           rdf:resource="http://purl.org/dc/dcmitype/StillImage" />
      </cc:Work>
    </rdf:RDF>
  </metadata>
  <defs
     id="defs25" />
  <filter
     y="-50%"
     x="-50%"
     height="500"
     width="300"
     id="ctjye">
    <feFlood
       id="feFlood5"
       result="element"
       flood-color="#ae98aa" />
    <feTurbulence
       id="feTurbulence7"
       result="element_1"
       seed="56"
       numOctaves="8"
       type="fractalNoise"
       baseFrequency="0.02" />
    <feGaussianBlur
       id="feGaussianBlur9"
       result="element_2"
       in="SourceAlpha"
       stdDeviation="5" />
    <feDisplacementMap
       id="feDisplacementMap11"
       result="element_3"
       in2="element_1"
       in="element_2"
       scale="100" />
    <feComposite
       id="feComposite13"
       result="element_4"
       in2="element_3"
       in="element"
       operator="in" />
    <feMerge
       id="feMerge15">
      <feMergeNode
         id="feMergeNode17"
         in="element_4" />
    </feMerge>
  </filter>
  <g
     id="g19"
     transform="translate(150,150) scale(1.5)">
    <path
       id="path21"
       style="filter: url(#ctjye); stroke: rgb(174, 152, 170);"
       d="M0,0L0.18307661507497658,4.378274172778145C0.36615323014995316,8.75654834555629,0.7323064602999063,17.51309669111258,4.077023210839276,17.446073455233872C7.4217399613786466,17.379050219355168,13.745020232307434,8.488455402041463,20.691813436903956,3.790962777796162C27.63860664150048,-0.9065298464491405,35.20891277976474,-1.410920277626042,34.79208646313007,-4.724228322184689C34.3752601464954,-8.037536366743335,25.971301374961808,-14.159762024683728,19.07291600866219,-22.111366447203725C12.174530642362575,-30.06297086972372,6.781718681296933,-39.84395405682332,4.929820120299069,-41.52646401756284C3.0779215593012044,-43.20897397830235,4.766936398371117,-36.79301071268179,12.587290860836312,-30.691522012969724C20.40764532330151,-24.590033313257656,34.35933940916198,-18.80301917945409,40.121388898567865,-18.12361664453707C45.88343838797373,-17.44421410962005,43.45584328092501,-21.872423173589574,44.1727027616164,-14.329939086101035C44.8895622423078,-6.7874549986125,48.750876310739315,12.725722240334099,42.19425236210652,18.529803603925465C35.637628413473706,24.333884967516827,18.663066447776583,16.428870455752957,9.16441407466759,13.069749735219572C-0.3342382984414023,9.710629014686187,-2.356981078962259,10.897402085383288,-0.75745575634182,2.9083760093478848C0.8420695662786191,-5.080650066687518,6.063862992040354,-22.245475289455424,7.433784707580724,-20.864353623399083C8.803706423121094,-19.483231957342742,6.321756428440096,0.44383659753784777,2.79669793315324,7.77242997610857C-0.7283605621336173,15.101023354679292,-5.296527558026334,9.831141556940146,-15.3722385600581,8.046159814657253C-25.447949562089867,6.26117807237436,-41.031204570260684,7.961096385547718,-38.96702938655563,9.263538098349926C-36.90285420285058,10.565979811152133,-17.191248827269646,11.470944923583192,2.037585536470031,10.251755159673385C21.266419900209712,9.032565395763577,40.01248325210814,5.689220755512904,34.71935087508251,1.1921098379692552C29.426218498056887,-3.3050010795743945,0.0938903921071983,-8.955878274411022,-8.522528985910043,-11.319182013201873C-17.138948363927284,-13.682485751992726,-5.039459014012081,-12.758216034737801,0.35348309871824424,-5.801908628795114C5.746425211448569,1.1543987771475734,4.432820086994016,14.142743871778023,4.539520142286786,14.249235528513646C4.646220197579557,14.355727185249265,6.173225432619651,1.5803654040900526,-3.1740747920219023,-6.147978989167824C-12.521375016663455,-13.876323382425701,-32.74298070098666,-16.557650387782243,-31.368611112204352,-13.071381709688376C-29.99424152342204,-9.58511303159451,-7.0238966615342235,0.06875132994976596,3.145162728029201,0.8448908667779236C13.314222117592625,1.6210304036060812,10.681996034831657,-6.480554884281879,6.722184599126871,-6.233683461685226C2.762373163422086,-5.986812039088574,-2.5250236252265177,2.6085160939926926,-3.9525754854010526,3.2485213850424453C-5.380127345575588,3.8885266760921975,-2.947834277276055,-3.426790874889564,-5.263570751139246,-6.7030110716352995C-7.579307225002437,-9.979231268381035,-14.643073241028352,-9.216354110890743,-19.411924458103215,-11.37360268735811C-24.180775675178072,-13.530851263825475,-26.654712093301875,-18.6082255742505,-22.003278048095456,-9.16143333418631C-17.351844002889035,0.2853589058778834,-5.57503949435239,24.256317696431292,-5.040391670008887,28.872943117078126C-4.505743845665384,33.48956853772496,-15.213252705515021,18.751860588465227,-16.76421809516811,13.645283356309132C-18.3151834848212,8.538706124153038,-10.709605404277738,13.063259609100584,-10.188275973183023,14.576154826986382C-9.666946542088308,16.08905004487218,-16.229865760442337,14.590286995696236,-13.038470624697883,8.271903808979069C-9.847075488953429,1.9535206222619035,3.098634000889506,-9.184482701996481,2.4925584380073404,-12.200843126453277C1.886482875125175,-15.217203550910073,-12.271377740482091,-10.111921075565277,-19.141388370344252,-6.238776731069537C-26.01139900020641,-2.365632386573796,-25.593559644323467,0.2753738270728927,-25.384639966381993,1.5958769338962369L-25.175720288440523,2.9163800407195812" />
  </g>
</svg>
