<svg viewBox="0 0 300 300" preserveAspectRatio="xMidYMid" width="300" height="300"><filter id="atexu" width="300" height="500" x="-50%" y="-50%"><feFlood flood-color="#db91ef" result="element"></feFlood><feTurbulence baseFrequency="0.02" type="fractalNoise" numOctaves="8" seed="97" result="element_1"></feTurbulence><feGaussianBlur stdDeviation="4" in="SourceAlpha" result="element_2"></feGaussianBlur><feDisplacementMap scale="100" in="element_2" in2="element_1" result="element_3"></feDisplacementMap><feComposite operator="in" in="element" in2="element_3" result="element_4"></feComposite><feMerge><feMergeNode in="element_4"></feMergeNode></feMerge></filter><g transform="translate(150,150) scale(1.5)"><path d="M0,0L0.3206449134420815,-1.3042844926253914C0.641289826884163,-2.6085689852507827,1.282579653768326,-5.2171379705015655,1.8368318383559625,-6.426785798022297C2.3910840229435992,-7.636433625543029,2.858298565234709,-7.44716029533371,2.168979378323152,-0.5593140600098074C1.4796601914115948,6.328532175314094,-0.3661927247026293,19.914951315752578,-1.097870265031474,27.475269066837527C-1.8295478053603187,35.03558681792248,-1.4470499699037842,36.5698031796539,-2.5750200242044503,30.824482760880894C-3.702990078505116,25.079162342107885,-6.341428022562983,12.054305142830454,-6.299059410018097,11.275742721484502C-6.256690797473212,10.49718030013855,-3.533515628325574,21.964912656724078,-2.0746323866111056,22.52067365975589C-0.6157491448966377,23.076434662787698,-0.42115783061533835,12.72022431226579,1.3747334577614956,3.3802056649418395C3.1706247461383295,-5.95981298238211,6.5678160086106985,-14.283639926508101,4.419945957814768,-16.49335198989097C2.2720759070188388,-18.70306405327384,-5.4208554570453895,-14.798661235913588,-1.130600505846167,-10.401253296030244C3.1596544453530555,-6.003845356146903,19.433095711815728,-1.113432293740468,19.03800688612743,5.7064244525561865C18.642918060439136,12.52628119885284,1.5792991425998704,21.275581629039717,0.8594534977874257,23.573185387300164C0.13960785297498113,25.870789145560607,15.763535481189358,21.716696231894627,21.056808205605993,20.90881774392095C26.350080930022628,20.100939255947267,21.312698750641527,22.639275193665885,10.421492256533622,24.39736720998996C-0.4697142375742853,26.155459226314026,-17.214745046408993,27.133307321243546,-14.981724076715832,21.303283677168317C-12.748703107022667,15.473260033093094,8.46236964119837,2.8353646500131218,12.813776219285213,-4.326723730158376C17.165182797372054,-11.488812110329873,4.6569232053246985,-13.175093487592894,2.6714467683563443,-19.94636925112324C0.6859703313879901,-26.717645014653584,9.223277049498636,-38.57391516445126,5.305072702718833,-30.668188081265924C1.3868683559390291,-22.762460998080602,-14.986847055731223,4.905263318087719,-21.745423675824235,11.9506599005703C-28.504000295917244,18.99605648305288,-25.64743812443301,5.4191253318497195,-16.777445124306364,-3.745725532228512C-7.907452124179715,-12.910576396306745,6.975971704589346,-17.663346973260047,17.43072963427622,-12.308038421475542C27.885487563963096,-6.952729869691041,33.91157959456778,8.510657810831267,21.463280458850917,8.001450590689563C9.014981323134055,7.4922433705478575,-21.90770897890436,-8.98955875025786,-25.099940383590077,-13.03745609884981C-28.292171788275795,-17.08535344744176,-3.7539442956088145,-8.699346023819945,12.200282100672641,-3.050636492429293C28.1545084969541,2.5980730389613607,35.524733796850036,5.50948467812085,32.20976463663318,3.8481624332523965C28.894795476416324,2.1868401883839432,14.89463185608668,-4.047215940512453,9.212277569123748,-12.19806184463879C3.529923282160816,-20.348907748765125,6.165378328564598,-30.4165434281214,12.2591749339479,-28.70562433463766C18.3529715393312,-26.994705241153916,27.90510970369402,-13.505231374830151,31.26264616305332,-6.401449241474364C34.620182622412614,0.7023328918814253,31.783117376768395,1.42042329226924,31.05409186634091,-1.8141040829790842C30.325066355913428,-5.048631458227408,31.70408058070268,-12.235776609111872,18.81958930790904,-20.05058543327069C5.935098035115402,-27.865394257429514,-21.212898735261128,-36.307866754862694,-30.869659163924183,-32.04018848947048C-40.52641959258723,-27.77251022407827,-32.69194367953681,-10.794681195860676,-25.65585467873378,-11.703361264231212C-18.619765677930747,-12.612041332601752,-12.382063589375102,-31.407230497560423,-8.524392156583732,-22.576957947767315C-4.666720723792359,-13.746685397974211,-3.189079946765261,22.709048866570676,-11.59485951065668,34.123080321382965C-20.000639074548097,45.53711177619526,-38.28983897935803,31.90944042127495,-46.812775389096934,24.718275082311653C-55.335711798835845,17.52710974334835,-54.09238471350372,16.772450420342054,-53.47072117083765,16.395120758838907L-52.84905762817159,16.01779109733576" style="filter: url(#atexu); stroke: rgb(219, 145, 239);"></path></g></svg>