<svg viewBox="0 0 300 300" preserveAspectRatio="xMidYMid" width="300" height="300"><filter id="rswmb" width="300" height="500" x="-50%" y="-50%"><feFlood flood-color="#ff4466" result="element"></feFlood><feTurbulence baseFrequency="0.02" type="fractalNoise" numOctaves="8" seed="53" result="element_1"></feTurbulence><feGaussianBlur stdDeviation="4" in="SourceAlpha" result="element_2"></feGaussianBlur><feDisplacementMap scale="100" in="element_2" in2="element_1" result="element_3"></feDisplacementMap><feComposite operator="in" in="element" in2="element_3" result="element_4"></feComposite><feMerge><feMergeNode in="element_4"></feMergeNode></feMerge></filter><g transform="translate(150,150) scale(1.5)"><path d="M0,0L2.04471188417263,-0.8548031012051411C4.08942376834526,-1.7096062024102823,8.17884753669052,-3.4192124048205645,13.734503890883776,-3.3815240727787943C19.290160245077033,-3.343835740737024,26.31204918511828,-1.5588528742432015,24.59430158843334,1.3567648119790532C22.876553991748395,4.272382498201308,12.419169858337257,8.318635004151995,5.54862381254083,6.428174913799943C-1.3219222332555964,4.537714823447892,-4.605630191437315,-3.2894578632068976,-0.27926347365851356,-4.295515736896277C4.0471032441202865,-5.301573610585656,15.983544637859605,0.5134833286903739,25.42061656470508,1.7494778559479554C34.857688491550554,2.9854723832055363,41.795390951502185,-0.3575955015553318,41.802369034735875,-7.067502239160006C41.80934711796956,-13.77740897676468,34.88560082448531,-23.854154567213158,25.837099436348264,-22.041868314872115C16.78859804821122,-20.229582062531072,5.615341565421393,-6.528263967400506,-7.176941400276409,1.5425409207370206C-19.96922436597421,9.613345808874548,-34.380533814579984,12.053637490019035,-37.895202281078724,6.50206985446162C-41.40987074757746,0.9505022189042052,-34.02789823196916,-12.592924733355114,-25.719520983601335,-23.850811805001896C-17.411143735233512,-35.10869887664869,-8.176361754106171,-44.081046067682934,-1.9370525809971342,-49.43526474914958C4.302256592111903,-54.78948343061622,7.546092957202635,-56.52557360251525,7.449334665399656,-41.83708552850597C7.352576373596675,-27.148597454496695,3.9152234248999838,3.9644688654209013,9.47020092585171,9.5778791785782C15.025178426803436,15.1912894917355,29.57248637740358,-4.694956201867496,28.197211059241617,-10.611711233009952C26.82193574107966,-16.528466264152406,9.524077154155595,-8.475730632834324,3.980821884639782,-7.727852729491285C-1.5624333848760301,-6.979974826148245,4.648914663016411,-13.53695465078025,9.548815927073386,-12.780341738561878C14.448717191130362,-12.023728826343508,18.03717167135187,-3.9535231772747603,13.622308900431852,1.0513735876256571C9.207446129511833,6.056270352526075,-3.210733892549717,7.995858233258161,-5.570298192136768,9.357147509002885C-7.929862491723819,10.71843678474761,-0.23081106883637137,11.501427455504972,5.291392791653134,7.076607428177864C10.81359665214264,2.651787400850753,14.158952950234205,-6.980843324560828,16.612918811645237,-8.096428224055888C19.066884673056272,-9.212013123550948,20.62946009778677,-1.8105521971294865,13.899114274227859,1.1265654244728396C7.168768450668945,4.063683046075165,-7.854498621179381,2.5364573628583558,-13.129577227028324,6.29680453057418C-18.40465583287727,10.057151698290005,-13.931545972726834,19.105071716938465,-6.427326989161148,11.630211640667339C1.0768919944045372,4.1553515643962164,11.612220101385473,-19.84228860679449,11.540406005300024,-28.373399959857124C11.468591909214572,-36.904511312919766,0.7896356100627351,-29.969093847854328,-3.8502616625891832,-28.635964767264063C-8.490158935241102,-27.302835686673795,-7.090997181393102,-31.5719949905587,-11.150581529295946,-24.637130603962056C-15.21016587719879,-17.702266217365406,-24.72849632685248,0.43662185971278866,-21.921806939702304,7.887139733807301C-19.11511755255213,15.337657607901813,-3.9834083285980935,12.099805279012642,2.5603771418752306,9.755419307033497C9.104162612348555,7.411033335054354,7.060024329341165,5.960113719985237,5.280865166980262,7.941179986680249C3.50170600461936,9.92224625337526,1.9875259629049444,15.3352984018344,1.3129037464365068,8.502438875889158C0.6382815299680688,1.6695793499439144,0.8032171387456091,-17.409191850405712,0.18754774299364907,-27.97768837376344C-0.42812165275831093,-38.546184897121165,-1.8243960530397711,-40.60440674348698,0.34670731859765747,-35.994505853437495C2.517810690235086,-31.384604963388007,8.256291833791403,-20.106581336923202,8.40448300823849,-12.368925833139434C8.552674182685573,-4.631270329355665,3.1105753880234266,-0.43398294825293027,-1.1098575966782094,8.81835429403761C-5.330290581379845,18.07069153632815,-8.329057756120969,32.378078639806496,-9.828441343491532,39.53177219154567L-11.327824930862095,46.685465743284844" style="filter: url(#rswmb); stroke: rgb(255, 68, 102);"></path></g></svg>