<svg viewBox="0 0 300 300" preserveAspectRatio="xMidYMid" width="300" height="300"><filter id="amjtq" width="300" height="500" x="-50%" y="-50%"><feFlood flood-color="#cd4a4c" result="element"></feFlood><feTurbulence baseFrequency="0.02" type="fractalNoise" numOctaves="8" seed="3" result="element_1"></feTurbulence><feGaussianBlur stdDeviation="5" in="SourceAlpha" result="element_2"></feGaussianBlur><feDisplacementMap scale="100" in="element_2" in2="element_1" result="element_3"></feDisplacementMap><feComposite operator="in" in="element" in2="element_3" result="element_4"></feComposite><feMerge><feMergeNode in="element_4"></feMergeNode></feMerge></filter><g transform="translate(150,150) scale(1.5)"><path d="M0,0L0.5761673107363494,-4.642789716074207C1.1523346214726988,-9.285579432148413,2.3046692429453977,-18.571158864296827,3.1067861822711045,-16.410495768627648C3.908903121596811,-14.249832672958469,4.360802378775525,-0.6429270494716963,3.9264520154656886,0.4159851573796902C3.4921016521558514,1.4748973642310768,2.1715016683574637,-10.014183845552921,-0.481812150849632,-6.669150137029961C-3.1351259700567278,-3.324116428506999,-7.12115362467253,14.855032198322924,-8.678779866000339,21.72010734823518C-10.236406107328147,28.58518249814744,-9.36563093536796,24.136184171142038,-6.92112151266522,26.384943488018287C-4.4766120899624795,28.63370280489454,-0.4583684165171862,37.580219765652444,-0.7094148398504674,33.53774166382485C-0.9604612631837486,29.495263561997263,-5.480797783295605,12.463790397584178,-6.582640442983783,4.760823716612881C-7.68448310267196,-2.942142964358414,-5.36783190193646,-1.3166031618879213,-8.431900745312994,0.4230614883048712C-11.49596958868953,2.1627261384976637,-19.940758476178097,4.016515636412756,-25.875238916636633,3.782022914008361C-31.80971935709517,3.547530191603965,-35.23389135052367,1.2247552488800812,-33.735371509499565,7.497595159219786C-32.23685166847545,13.770435069559491,-25.815639992998737,28.638889832962786,-18.136509912645124,26.51557344835657C-10.457379832291512,24.39225706375035,-1.5203313470610036,5.277169531134623,3.5847057114904084,-0.13750135981992662C8.689742770041821,-5.552172250774476,9.962768401914136,2.7335734999321524,10.174605998160812,5.302556439850656C10.386443594407487,7.87153937976916,9.537093155028522,4.7237595088995405,16.886966108167698,0.6609792565317809C24.236839061306878,-3.4018009958359783,39.7859354069642,-8.379581629701876,40.34801389486702,-8.868344901565116C40.91009238276984,-9.357108173428356,26.485153012918154,-5.3568540832889395,25.772414614969506,-1.0553159098612688C25.059676217020858,3.2462222635664015,38.05913879097525,7.849044520282325,42.4018233338238,8.465733938097932C46.74450787667236,9.082423355913543,42.43041438841508,5.7129799348288355,33.43820043752386,9.834019552057738C24.44598648663265,13.95505916928664,10.775652073107493,25.56658182482915,4.200485309753245,28.15763324990389C-2.3746814536010032,30.748684674978627,-1.8546805667843436,24.319264869585595,-1.7403262834631317,19.01444428164002C-1.6259720001419193,13.709623693694454,-1.9172643203161548,9.529402323196344,0.7793354817984319,9.953549410585255C3.4759352839130186,10.377696497974165,9.160427208316428,15.406212043250097,5.3949660617486765,8.421117009015369C1.6295049151809238,1.4360219747806422,-11.58590930235799,-17.562683638964742,-18.165637119502897,-14.408184225715065C-24.745364936647803,-11.253684812465389,-24.689406353398702,14.054019627779349,-22.41207273869632,24.98263113692334C-20.134739123993942,35.911242646067336,-15.636030477838275,32.460761224110584,-12.420083631502452,26.205927082937897C-9.204136785166625,19.951092941765214,-7.270951738650638,10.891906081376597,-1.0886304440002492,4.868511108177065C5.093690850650138,-1.154883865022465,15.525148393434927,-4.142486951032909,15.844499448564354,-7.338888289613967C16.16385050369378,-10.535289628195025,6.371095071167847,-13.940489219346698,-0.751361074604247,-13.81413116512137C-7.873817220376341,-13.687773110896043,-12.325974079394594,-10.029857411293715,-5.736920483949904,-5.017806383346085C0.8521331114947888,-0.005755355398455286,18.482397161402428,6.360431000894476,19.842300189854193,6.43638365665316C21.20220321830596,6.512336312411844,6.291745225301856,0.29805526763628265,-1.674416845230267,0.4813512148938113C-9.64057891576239,0.6646471621513399,-10.662445063822531,7.245520101441959,-4.109913539283058,6.608689646643228C2.4426179852564154,5.971859191844498,16.569547182395503,-1.882674657043582,21.159616285859066,-2.3084295636479935C25.74968538932263,-2.7341844702524045,20.802894399110667,4.268839565426853,15.79875327603033,0.8652993765708947C10.794612152949995,-2.5382408122850633,5.733120897001285,-16.348345225676237,3.2023752690269305,-23.25339743237182L0.6716296410525756,-30.158449639067413" style="filter: url(#amjtq); stroke: rgb(205, 74, 76);"></path></g></svg>