<?xml version="1.0" encoding="UTF-8" standalone="no"?>
<svg
   xmlns:dc="http://purl.org/dc/elements/1.1/"
   xmlns:cc="http://creativecommons.org/ns#"
   xmlns:rdf="http://www.w3.org/1999/02/22-rdf-syntax-ns#"
   xmlns:svg="http://www.w3.org/2000/svg"
   xmlns="http://www.w3.org/2000/svg"
   version="1.1"
   id="svg2"
   height="300"
   width="300"
   preserveAspectRatio="xMidYMid"
   viewBox="0 0 300 300">
  <metadata
     id="metadata27">
    <rdf:RDF>
      <cc:Work
         rdf:about="">
        <dc:format>image/svg+xml</dc:format>
        <dc:type
           rdf:resource="http://purl.org/dc/dcmitype/StillImage" />
      </cc:Work>
    </rdf:RDF>
  </metadata>
  <defs
     id="defs25" />
  <filter
     y="-50%"
     x="-50%"
     height="500"
     width="300"
     id="mddua">
    <feFlood
       id="feFlood5"
       result="element"
       flood-color="#edd19c" />
    <feTurbulence
       id="feTurbulence7"
       result="element_1"
       seed="67"
       numOctaves="8"
       type="fractalNoise"
       baseFrequency="0.02" />
    <feGaussianBlur
       id="feGaussianBlur9"
       result="element_2"
       in="SourceAlpha"
       stdDeviation="4" />
    <feDisplacementMap
       id="feDisplacementMap11"
       result="element_3"
       in2="element_1"
       in="element_2"
       scale="100" />
    <feComposite
       id="feComposite13"
       result="element_4"
       in2="element_3"
       in="element"
       operator="in" />
    <feMerge
       id="feMerge15">
      <feMergeNode
         id="feMergeNode17"
         in="element_4" />
    </feMerge>
  </filter>
  <g
     id="g19"
     transform="translate(150,150) scale(1.5)">
    <path
       id="path21"
       style="filter: url(#mddua); stroke: rgb(237, 209, 156);"
       d="M0,0L3.0358589449523254,3.4082981021293914C6.071717889904651,6.816596204258783,12.143435779809302,13.633192408517566,11.070310138127256,15.834310222489941C9.997184496445211,18.035428036462317,1.7792153231764711,15.621067460148288,-1.0657347302373914,8.58630003645589C-3.910684783651254,1.5515326127634923,-1.382615717210238,-10.103641658307271,2.536712836084596,-9.878223417328355C6.456041389379429,-9.652805176349435,11.76662942952808,2.4532055766791645,15.72791630722063,5.874110204198912C19.68920318491318,9.295014831718658,22.301188900149626,4.030813333729553,22.347622122622276,3.9217072909233384C22.394055345094927,3.812601248117124,19.874936074803784,8.858590660493801,23.1228649348204,10.113773720279656C26.370793794837017,11.36895678006551,35.3857707851614,8.83333348726054,35.29405358718247,0.32065370364393164C35.202336389203545,-8.192026079972676,26.003925002921314,-22.681762354400924,18.705823433174206,-28.94076532525259C11.407721863427101,-35.19976829610426,6.009930110215121,-33.22803796337935,4.229682227828264,-28.37649832924797C2.449434345441407,-23.524958695116595,4.286730333879673,-15.79360975957875,3.600388203547678,-8.193205744665528C2.9140460732156837,-0.5928017297523036,-0.295934175886571,6.876657364536299,-1.3416114094339793,7.790317714096945C-2.3872886429813875,8.703978063657592,-1.2686628609739492,3.0618396684902844,0.7475886823856468,-1.7319483354535286C2.7638402257452426,-6.5257363393973415,5.677717530456997,-10.47117395211766,4.4971320060992355,-13.237319275989815C3.316546481741476,-16.00346459986197,-1.9585018716857987,-17.590317634885963,-7.315993486541849,-14.047364243133394C-12.673485101397901,-10.504410851380829,-18.113419977682728,-1.8316510328517062,-15.343650649078176,-5.413645472028635C-12.573881320473623,-8.995639911205563,-1.5944077869796915,-24.832388608088543,3.6925529599277054,-29.573621344369837C8.979513706835101,-34.31485408065113,8.573961667155963,-27.96057085633074,8.492386707285043,-26.66396288202546C8.41081174741412,-25.367354907720177,8.653213867351415,-29.128422183430004,15.20896860568294,-24.344711151363832C21.76472334401447,-19.56100011929766,34.633830700740226,-6.232510779455483,25.099594038147654,-2.4475647949196473C15.565357375555081,1.3373811896161882,-16.372223306355824,-4.421216181154317,-19.962235742613508,-8.129203101845487C-23.552248178871196,-11.837190022536658,1.205307630524338,-13.494566493148495,15.687349166549362,-20.23511385758308C30.169390702574386,-26.975661222017667,34.3759179652289,-38.799379480275,30.105299365744724,-37.006314494981225C25.83468076626055,-35.21324950968745,13.086916304637686,-19.803401280842557,-0.9854600473848789,-5.568454399163582C-15.057836399407442,8.666492482515395,-30.454824641829706,21.72653801702846,-27.536409603610714,19.857758545031608C-24.61799456539172,17.988979073034756,-3.384176246531471,1.191374594527991,7.231543403719925,-7.917252744160105C17.84726305397132,-17.0258800828482,17.844884035613866,-18.445530281717623,19.422226373822703,-14.29296905861977C20.99956871203154,-10.140407835521916,24.156632406806665,-0.4156351904567819,16.03617766036151,6.685412244224997C7.915722913916358,13.786459678906777,-11.482250273749077,18.2637819032052,-17.758971681563867,16.674306278751633C-24.035693089378654,15.084830654298063,-17.19116271734279,7.428557181092502,-17.583969475094687,2.2583372468769563C-17.976776232846582,-2.91188268733859,-25.60692012038623,-5.596049082564122,-22.54824532991597,-13.112317105515718C-19.48957053944571,-20.628585128467314,-5.742077070965543,-32.976954779144975,-8.125211848988979,-34.54005290102162C-10.508346627012417,-36.10315102289825,-29.02210965153946,-26.880977615973865,-33.92163863989411,-16.789473666853137C-38.82116762824877,-6.69796971773241,-30.106462580431042,4.262864773584657,-15.633535012971597,4.040391225298025C-1.160607445512154,3.8179176770113914,19.070542641589004,-7.587863910878942,21.193962138011358,-5.069835294028529C23.317381634433715,-2.5518066771781154,7.333070540177268,13.890032144413045,-0.6590850069509555,22.110951555208622L-8.651240554079179,30.331870966004203" />
  </g>
</svg>
