<svg viewBox="0 0 300 300" preserveAspectRatio="xMidYMid" width="300" height="300"><filter id="kgyax" width="300" height="500" x="-50%" y="-50%"><feFlood flood-color="#469496" result="element"></feFlood><feTurbulence baseFrequency="0.02" type="fractalNoise" numOctaves="8" seed="99" result="element_1"></feTurbulence><feGaussianBlur stdDeviation="5" in="SourceAlpha" result="element_2"></feGaussianBlur><feDisplacementMap scale="100" in="element_2" in2="element_1" result="element_3"></feDisplacementMap><feComposite operator="in" in="element" in2="element_3" result="element_4"></feComposite><feMerge><feMergeNode in="element_4"></feMergeNode></feMerge></filter><g transform="translate(150,150) scale(1.5)"><path d="M0,0L2.8016284945174172,-2.6238821261009777C5.6032569890348345,-5.247764252201955,11.206513978069669,-10.49552850440391,13.59807273633686,-14.136557999166605C15.98963149460405,-17.7775874939293,15.169492022103595,-19.811882231252735,21.393594364094064,-21.132688168209988C27.61769670608453,-22.453494105167245,40.88604086256592,-23.060811241758316,44.32997157056607,-22.726015650019264C47.77390227856624,-22.39122005828021,41.39341953808517,-21.11431173821103,40.486526005299275,-15.563220228547872C39.579632472513396,-10.01212871888471,44.14632814742269,-0.18685401962757098,29.970714809982073,-2.079743578134921C15.795101472541461,-3.972633136642271,-17.122820877249065,-17.58368695291411,-25.485356962103626,-20.69717698721829C-33.847893046958184,-23.81066702152247,-17.65504286687677,-16.42659327385899,-10.153234418826003,-14.712065909081254C-2.6514259707752323,-12.997538544303517,-3.840659254755105,-16.952557562411524,-5.940473053884276,-12.95903673446793C-8.040286853013445,-8.965515906524333,-11.050681167291913,2.9765447674708643,-16.853104450306944,5.735117074624329C-22.655527733321975,8.493689381777793,-31.249979985073566,2.068773322089524,-29.50842442506913,-3.394323656339916C-27.76686886506469,-8.857420634769356,-15.689305493304222,-13.358698531939968,-13.31249683753281,-12.3591259980754C-10.935688181761398,-11.359553464210833,-18.259634241979043,-4.859130499311085,-17.37548845060818,-0.2061024618937357C-16.49134265923732,4.446925575523613,-7.399105016277943,7.252558685458564,-7.660304557307658,8.681407317206677C-7.921504098337373,10.110255948954789,-17.536140823356178,10.162320102516063,-21.32987626957232,4.463592486717912C-25.123611715788464,-1.2351351290802377,-23.09644588320195,-12.684654514237813,-15.002523860852992,-10.061762185920351C-6.908601838504035,-7.438869857602889,7.252076373607368,9.256434184189612,18.864513329403334,17.594448447281675C30.476950285199297,25.932462710373738,39.54114598467982,25.913187194765364,35.675756290105916,20.002034948805967C31.810366595532,14.09088270284657,15.015391506903644,2.2878537265361505,8.777098389959033,-6.164246095789405C2.5388052730144213,-14.61634591811496,6.8571941277535515,-19.717516586455652,6.68567546038535,-18.198380518622702C6.514156793017148,-16.679244450789753,1.852730603541614,-8.539801646783165,-0.4545508655632878,1.1078102914227026C-2.7618323346681897,10.75542222962857,-2.714969083402459,21.911203302033716,-1.6952122188411018,29.485343496881057C-0.6754553542797446,37.059483691728396,1.3171951235772394,41.05198300901793,4.231264144957041,37.03974806305581C7.145333166336842,33.02751311709368,10.980820731239461,21.0105439078799,6.116575555180525,13.356957298217502C1.252330379121588,5.703370688555102,-12.311647537898905,2.4131666784440897,-6.886278818729809,-0.4564452717233237C-1.4609100995607118,-3.326057221890737,22.953805255797974,-5.775077112114551,25.507828066212834,-10.524570528588207C28.061850876627698,-15.274063945061865,8.755181142098738,-22.324030887785366,0.5646113650004638,-20.922142191638052C-7.625958412097811,-19.520253495490742,-4.700428231765399,-9.666509160472616,0.8145791004136944,-4.466165723190019C6.329586432592789,0.7341777140925786,14.434070916618566,1.281120253639648,10.593378240540915,4.494268161330048C6.752685564463265,7.707416069020448,-9.033184271717813,13.586769344854178,-5.703762890169343,7.342938266032683C-2.3743415086208746,1.099107187211187,20.07037109065714,-17.267908246265534,25.07937340710964,-26.2171206351075C30.088375723562134,-35.16633302394947,17.661667757189107,-34.69774236815668,10.669120635632304,-32.99210960721764C3.6765735140755,-31.286476846278607,2.118187237334917,-28.343801980193316,2.122772341417721,-21.85412699397379C2.1273574455005257,-15.364452007754268,3.694913930406717,-5.3277769014005125,7.055966003713057,-5.604925864882341C10.417018077019396,-5.882074828364169,15.571565738725885,-16.473047861681582,13.67032674730527,-8.784917011531412C11.769087755884655,-1.096786161381246,2.812062111336937,24.8704485722365,-1.666450710936922,37.85406593904537L-6.144963533210781,50.83768330585425" style="filter: url(#kgyax); stroke: rgb(70, 148, 150);"></path></g></svg>