<?xml version="1.0" encoding="UTF-8" standalone="no"?>
<svg
   xmlns:dc="http://purl.org/dc/elements/1.1/"
   xmlns:cc="http://creativecommons.org/ns#"
   xmlns:rdf="http://www.w3.org/1999/02/22-rdf-syntax-ns#"
   xmlns:svg="http://www.w3.org/2000/svg"
   xmlns="http://www.w3.org/2000/svg"
   version="1.1"
   id="svg2"
   height="300"
   width="300"
   preserveAspectRatio="xMidYMid"
   viewBox="0 0 300 300">
  <metadata
     id="metadata27">
    <rdf:RDF>
      <cc:Work
         rdf:about="">
        <dc:format>image/svg+xml</dc:format>
        <dc:type
           rdf:resource="http://purl.org/dc/dcmitype/StillImage" />
      </cc:Work>
    </rdf:RDF>
  </metadata>
  <defs
     id="defs25" />
  <filter
     y="-50%"
     x="-50%"
     height="500"
     width="300"
     id="iqnsn">
    <feFlood
       id="feFlood5"
       result="element"
       flood-color="#979aaa" />
    <feTurbulence
       id="feTurbulence7"
       result="element_1"
       seed="62"
       numOctaves="8"
       type="fractalNoise"
       baseFrequency="0.02" />
    <feGaussianBlur
       id="feGaussianBlur9"
       result="element_2"
       in="SourceAlpha"
       stdDeviation="5" />
    <feDisplacementMap
       id="feDisplacementMap11"
       result="element_3"
       in2="element_1"
       in="element_2"
       scale="100" />
    <feComposite
       id="feComposite13"
       result="element_4"
       in2="element_3"
       in="element"
       operator="in" />
    <feMerge
       id="feMerge15">
      <feMergeNode
         id="feMergeNode17"
         in="element_4" />
    </feMerge>
  </filter>
  <g
     id="g19"
     transform="translate(150,150) scale(1.5)">
    <path
       id="path21"
       style="filter: url(#iqnsn); stroke: rgb(151, 154, 170);"
       d="M0,0L5.22909593041547,-5.791340919808388C10.45819186083094,-11.582681839616775,20.91638372166188,-23.16536367923355,20.879619286009063,-23.901208825331448C20.84285485035625,-24.637053971429346,10.311134118219679,-14.52606242400837,-0.5100359817962259,-8.701754395808637C-11.331206081812132,-2.8774463676089046,-22.44182554970737,-1.3398218586304182,-15.046175449755907,7.920465372751265C-7.650525349804438,17.180752604132948,18.251394317993736,34.16370255791782,23.453744808027793,34.257924167021315C28.656095298061842,34.35214577612481,13.158876610331777,17.557639040546906,6.712718226536546,15.554675695420034C0.2665598427413145,13.551712350293164,2.8714617628809176,26.340292395617322,3.9671825942669194,23.599404840050465C5.062903425652921,20.858517284483607,4.649443168285323,2.5881621280257363,1.4224835396281024,1.256337144281205C-1.8044760890291176,-0.07548783946332627,-7.844935088975959,15.531217349505482,-13.402427492646662,21.9554335752053C-18.959919896317366,28.37964980090512,-24.034445703711928,25.621377063335956,-29.43450151113919,20.983381686316964C-34.834557318566446,16.34538630929797,-40.560143126026404,9.827668292829156,-31.396481366399122,9.021786361438707C-22.23281960677184,8.215904430048258,1.8200897199426755,13.121858583736177,7.197208989699348,11.106644962518807C12.57432825945602,9.091431341301437,-0.7243425277451507,0.15504994517878057,-6.505701571747169,-2.0773784111696507C-12.287060615749187,-4.309806767518083,-10.551107916552052,0.16171791590771178,-2.429863160605964,-2.316078410204586C5.691381595340124,-4.793874736316884,20.197918408035164,-14.220992071967274,20.66914658803017,-10.256898485719145C21.14037476802517,-6.292804899471017,7.57629431532013,11.06249960867563,1.4435468621764598,16.248522770188544C-4.68920059096721,21.434545931701457,-3.39061504454951,14.45128774658064,5.989130527254983,13.491838692890994C15.368876099059475,12.532389639201348,32.82978169625076,17.59674971694287,33.28614455383962,16.473447971256274C33.74250741142847,15.350146225569679,17.194327529414895,8.039182656454962,6.485806393847958,-2.480008717946813C-4.222714741718982,-12.99920009234859,-9.091577130839285,-26.726619272037425,-8.071446367781386,-28.116808553326717C-7.051315604723487,-29.50699783461601,-0.1421916894873867,-18.55995721750576,4.699938769778712,-16.822633631763505C9.542069229044811,-15.08531004602125,12.317206232340908,-22.55770349164699,17.95486995039648,-18.611332514388796C23.592533668452045,-14.664961537130605,32.09272410126708,0.7001738630115231,32.188022006712124,13.706960135608295C32.28331991215717,26.71374640820507,23.97372529023221,37.362183553256486,18.958226306443116,43.97239598608624C13.942727322654022,50.582608418915996,12.22132397700079,53.15459613952409,8.4886519854583,42.52747003748592C4.755979993915813,31.90034393544775,-0.9879606435159323,8.074104010763318,-2.808678044168962,-7.930880091566441C-4.629395444821991,-23.9358641938962,-2.526889608696306,-32.11959247387128,-10.671286207831884,-30.833374013074113C-18.815682806967462,-29.547155552276944,-37.2069818413643,-18.790990350707524,-42.56403912197186,-13.291353471020253C-47.9210964025794,-7.791716591332983,-40.243911929397655,-7.548608033527861,-40.07154004231393,-13.63028351010744C-39.89916815523019,-19.711958986687016,-47.23160885424447,-32.11841849765129,-40.03279674662565,-37.21223481874973C-32.83398463900683,-42.30605113984816,-11.103919724754906,-40.08722427108074,-8.621308643434949,-29.91869298715813C-6.1386975621149915,-19.75016170323551,-22.903540313727,-1.6319260041576875,-23.67889566424809,4.096396277357273C-24.454251014769174,9.824718558872233,-9.24011896419934,3.1631274228243322,-4.833950171369638,-5.770785709378761C-0.4277813785399367,-14.704698841581855,-6.8295758434503675,-25.91093396994014,-13.966932777238316,-27.89905297594094C-21.104289711026265,-29.88717198194174,-28.977209113691732,-22.65717486558506,-25.58244034574668,-19.11196657564445C-22.18767157780162,-15.566758285703836,-7.525214639246044,-15.706338822179296,-0.19398616996825502,-15.776129090417026L7.137242299309534,-15.845919358654758" />
  </g>
</svg>
