<?xml version="1.0" encoding="UTF-8" standalone="no"?>
<svg
   xmlns:dc="http://purl.org/dc/elements/1.1/"
   xmlns:cc="http://creativecommons.org/ns#"
   xmlns:rdf="http://www.w3.org/1999/02/22-rdf-syntax-ns#"
   xmlns:svg="http://www.w3.org/2000/svg"
   xmlns="http://www.w3.org/2000/svg"
   version="1.1"
   id="svg2"
   height="300"
   width="300"
   preserveAspectRatio="xMidYMid"
   viewBox="0 0 300 300">
  <metadata
     id="metadata27">
    <rdf:RDF>
      <cc:Work
         rdf:about="">
        <dc:format>image/svg+xml</dc:format>
        <dc:type
           rdf:resource="http://purl.org/dc/dcmitype/StillImage" />
      </cc:Work>
    </rdf:RDF>
  </metadata>
  <defs
     id="defs25" />
  <filter
     y="-50%"
     x="-50%"
     height="500"
     width="300"
     id="zygws">
    <feFlood
       id="feFlood5"
       result="element"
       flood-color="#c8385a" />
    <feTurbulence
       id="feTurbulence7"
       result="element_1"
       seed="41"
       numOctaves="8"
       type="fractalNoise"
       baseFrequency="0.02" />
    <feGaussianBlur
       id="feGaussianBlur9"
       result="element_2"
       in="SourceAlpha"
       stdDeviation="5" />
    <feDisplacementMap
       id="feDisplacementMap11"
       result="element_3"
       in2="element_1"
       in="element_2"
       scale="100" />
    <feComposite
       id="feComposite13"
       result="element_4"
       in2="element_3"
       in="element"
       operator="in" />
    <feMerge
       id="feMerge15">
      <feMergeNode
         id="feMergeNode17"
         in="element_4" />
    </feMerge>
  </filter>
  <g
     id="g19"
     transform="translate(150,150) scale(1.5)">
    <path
       id="path21"
       style="filter: url(#zygws); stroke: rgb(200, 56, 90);"
       d="M0,0L1.7663862132591492,4.948393624159431C3.5327724265182985,9.896787248318862,7.065544853036597,19.793574496637724,8.025006130917784,17.4955475787799C8.984467408798972,15.197520660922075,7.370617538043048,0.704679576887564,9.679159996366366,-2.8848637539477755C11.987702454689684,-6.474407084783115,18.218637242092246,0.8393473375807172,11.387905408984857,1.2909234158489082C4.557173575877469,1.7424994941170993,-15.335224877739869,-4.668102771710351,-27.522470448816343,-9.618152034374479C-39.70971601989282,-14.568201297038605,-44.191808708428425,-18.05769755653941,-39.49033935757033,-24.115626898975208C-34.78887000671223,-30.173556241411013,-20.90383861646042,-38.799918666781814,-11.062660204984946,-42.545324521576745C-1.2214817935094753,-46.29073037637168,4.575843639189657,-45.15517966059074,0.5290662271261279,-40.87495330015512C-3.5177111849374,-36.5947269397195,-17.408591441763587,-29.16982493462919,-12.757449057539967,-19.110698087302683C-8.106306673316343,-9.051571239976177,15.08685835195709,3.6417804495865242,24.426262126890485,8.401902354036313C33.76566590182388,13.162024258486102,29.251308426417236,9.988916377822978,26.692977133549405,7.57894674940085C24.134645840681575,5.168977120978724,23.53234073035256,3.5221457447975952,14.733836078174475,4.5973978716218795C5.935331425996392,5.672649998446163,-11.059372768030759,9.46998562827586,-13.683230875438113,10.121420997479268C-16.307088982845467,10.772856366682676,-4.560101003633028,8.278391475259795,1.2128619723812366,6.234922522018664C6.985824948395501,4.191453568777532,6.7847629212115885,2.5989805537181487,1.05667218579506,-7.691999912682672C-4.671418549621469,-17.982980379083493,-15.926537993270614,-36.972468296825745,-15.321645154390882,-32.87796908133888C-14.716752315511151,-28.783469865852013,-2.25184719410254,-1.60498351713602,4.692826173802222,4.289780177499227C11.637499541706983,10.184543872134475,13.061941156107896,-5.204415087311023,4.837082709008245,-9.028333715540887C-3.387775738091406,-12.85225234377075,-21.261934246691624,-5.111130640784979,-16.316262929682964,-1.6739038479951729C-11.370591612674307,1.7633229447946333,16.394909529943224,0.896654827388474,20.34524360502955,0.11252203105660114C24.295577680115876,-0.6716107652752716,4.430744687670996,-1.373208240532858,-5.073520280512037,-1.9936080931862283C-14.57778524869507,-2.6140079458395986,-13.721482192616257,-3.153210175888752,-13.944517004530285,-3.7935696357173065C-14.167551816444313,-4.433929095545861,-15.469924496351181,-5.175445785153816,-17.881188444812764,-8.12864228222955C-20.292452393274345,-11.081838779305285,-23.812607610290645,-16.246715083848798,-28.6578429779382,-14.099315730218173C-33.50307834558575,-11.951916376587548,-39.673393863864554,-2.4922413647827835,-31.542707996331103,0.8413422405193436C-23.412022128797645,4.174925845821471,-0.980334875451927,1.3824180446209606,2.5120834190041226,1.7516297418990243C6.004501713460172,2.120841439177088,-9.442348950973445,5.651772634933725,-11.243721710440404,13.390571634946195C-13.045094469907362,21.12937063495867,-1.2009893244076597,33.07603743922697,6.167075715074729,34.200746091260505C13.53514075455712,35.325454743294046,16.427165688022196,25.62820524309281,18.707468578757105,16.97021753417188C20.987771469492017,8.312229825250945,22.656352317496758,0.6935039076103093,10.058233504475222,3.2310071812819134C-2.5398853085463173,5.7685104549535176,-29.404703782594137,18.46224291993736,-33.658522639941665,23.569797494322323C-37.9123414972892,28.67735206870728,-19.555160737936436,26.19872875249336,-10.611133327561925,26.162145375657516C-1.6671059171874116,26.125561998821674,-2.1362318557911477,28.531018561363915,-4.510110830123732,26.36853187228297C-6.8839898044563155,24.206045183202026,-11.162621814517747,17.475615242497895,-10.33707984475497,18.02176816125182C-9.51153787499219,18.56792108000574,-3.5818219254052,26.390656858217714,-2.184915487586825,31.831270770731145C-0.7880090497684495,37.27188468324458,-3.9239121237186887,40.33037673005948,-5.491863660693808,41.85962275346693L-7.059815197668929,43.388868776874375" />
  </g>
</svg>
