<?xml version="1.0" encoding="UTF-8" standalone="no"?>
<svg
   xmlns:dc="http://purl.org/dc/elements/1.1/"
   xmlns:cc="http://creativecommons.org/ns#"
   xmlns:rdf="http://www.w3.org/1999/02/22-rdf-syntax-ns#"
   xmlns:svg="http://www.w3.org/2000/svg"
   xmlns="http://www.w3.org/2000/svg"
   version="1.1"
   id="svg2"
   height="300"
   width="300"
   preserveAspectRatio="xMidYMid"
   viewBox="0 0 300 300">
  <metadata
     id="metadata27">
    <rdf:RDF>
      <cc:Work
         rdf:about="">
        <dc:format>image/svg+xml</dc:format>
        <dc:type
           rdf:resource="http://purl.org/dc/dcmitype/StillImage" />
      </cc:Work>
    </rdf:RDF>
  </metadata>
  <defs
     id="defs25" />
  <filter
     y="-50%"
     x="-50%"
     height="500"
     width="300"
     id="pddao">
    <feFlood
       id="feFlood5"
       result="element"
       flood-color="#ef98aa" />
    <feTurbulence
       id="feTurbulence7"
       result="element_1"
       seed="79"
       numOctaves="8"
       type="fractalNoise"
       baseFrequency="0.02" />
    <feGaussianBlur
       id="feGaussianBlur9"
       result="element_2"
       in="SourceAlpha"
       stdDeviation="5" />
    <feDisplacementMap
       id="feDisplacementMap11"
       result="element_3"
       in2="element_1"
       in="element_2"
       scale="100" />
    <feComposite
       id="feComposite13"
       result="element_4"
       in2="element_3"
       in="element"
       operator="in" />
    <feMerge
       id="feMerge15">
      <feMergeNode
         id="feMergeNode17"
         in="element_4" />
    </feMerge>
  </filter>
  <g
     id="g19"
     transform="translate(150,150) scale(1.5)">
    <path
       id="path21"
       style="filter: url(#pddao); stroke: rgb(239, 152, 170);"
       d="M0,0L4.846082201373237,-6.810414158188569C9.692164402746474,-13.620828316377137,19.38432880549295,-27.241656632754275,10.585440543424928,-22.109753916652295C1.786552281356908,-16.97785120055032,-25.503388645525607,6.906782548030774,-27.776650636340715,21.530210313210432C-30.04991262715582,36.15363807839009,-7.306495681903517,41.515859860168305,-0.18005062971561125,35.47618646262926C6.946394422472294,29.43651306509022,-1.5441324184041978,11.994944488233923,-12.36180861635694,2.671726890677476C-23.17948481430968,-6.651490706878971,-36.324310369338676,-7.856357325135567,-27.535990594444275,-1.2029707298705876C-18.747670819549874,5.450415865394392,11.973794285267925,19.96205567418095,17.052255207869933,21.739828506567047C22.13071613047194,23.51760133895315,1.5661728708581588,12.561507194938795,-4.524496490025644,7.357727537242562C-10.615165850909449,2.1539478795463296,-2.231961313063273,2.702482708168218,1.894915491848413,3.331375680982925C6.021792296760099,3.960268653797632,5.892341368737297,4.669519770805158,4.833859427830543,2.5642419487046824C3.775377486923788,0.4589641266042075,1.787864533133082,-4.460842634604268,5.406074435948293,-4.908920889274191C9.024284338763504,-5.356999143944115,18.248217098184632,-1.3333488920754872,24.418184851810185,7.1616767986671785C30.588152605435738,15.656702489409845,33.70415535326572,28.62310361902655,32.615650618389196,34.633266404859924C31.527145883512674,40.6434291906933,26.234133665929658,39.697353632743344,15.070297348744244,34.84255746787878C3.9064610315588286,29.98776130301421,-13.128199385228983,21.22424453123504,-17.451347457547037,13.617246656205628C-21.774495529865085,6.010248781176215,-13.386131257713375,-0.440230197103439,-6.8706392582039415,-1.4610533909196373C-0.35514725869450947,-2.4818765847358355,4.287472468172646,1.9269560059114221,14.044154569003933,-0.7454080937531384C23.80083666983522,-3.417772193417699,38.67158114463064,-13.171332983394077,34.82845618463507,-7.935293643775837C30.985331224639506,-2.6992543041575967,8.428336829852949,17.526385165055263,-0.20126726213447232,15.32945439208063C-8.830871354121893,13.132523619105996,-3.533085143310179,-11.486977396056131,-1.2987412690797957,-18.113766389929772C0.9356026051505877,-24.740555383803407,0.10650414279963993,-13.374632356388556,-1.9634982556001368,-2.312346986353205C-4.033500653999914,8.749938383682146,-7.34440698844852,19.508586096337996,-8.065835644280941,25.0097616429303C-8.787264300113362,30.510937189522597,-6.9192152773296,30.754640570051347,0.25468774066907596,31.76317693015089C7.428590758667752,32.771713290250446,19.908347771881342,34.545082629920785,22.94720020588641,24.2449613524373C25.986052639891476,13.944840074953813,19.584000494688024,-8.428771819683508,12.600845784796451,-17.305547044655356C5.617691074904878,-26.1823222696272,-1.9465661996748151,-21.562260824933574,-4.868918891627496,-16.592597486109124C-7.791271583580177,-11.622934147284678,-6.071719692905846,-6.30366891432941,-2.9405370706170193,-2.864113071191646C0.19064555167180774,0.5754427719461177,4.733458905575131,2.1352892252663764,7.163148284367504,5.281838539439151C9.592837663159877,8.428387853611925,9.9094030668413,13.161640028637215,5.023660981547538,15.849018230018178C0.13791889625377518,18.53639643139914,-9.95013067801517,19.17790065913578,-13.233945106175636,12.470501659884043C-16.517759534336104,5.7631026606323115,-12.99733881638809,-8.293199565607791,-16.105076747600513,-8.40819455534946C-19.21281467881294,-8.523189545091132,-28.9487112591858,5.303122701665631,-24.243753799838192,8.76868282423199C-19.538796340490588,12.234242946798348,-0.39298484142251233,5.339050945174304,4.016561460276008,4.314227654483757C8.426107761974528,3.2894043637932087,-1.9006111336965068,8.134949784036158,2.6298084076776522,3.316092518121776C7.160227949051812,-1.5027647477926074,26.547785927471168,-15.986024699864322,29.482217951378995,-18.233600254985078C32.41664997528682,-20.481175810105828,18.897956044683127,-10.493066968275622,12.138609079381277,-5.499012547360518L5.379262114079429,-0.5049581264454146" />
  </g>
</svg>
