<?xml version="1.0" encoding="UTF-8" standalone="no"?>
<svg
   xmlns:dc="http://purl.org/dc/elements/1.1/"
   xmlns:cc="http://creativecommons.org/ns#"
   xmlns:rdf="http://www.w3.org/1999/02/22-rdf-syntax-ns#"
   xmlns:svg="http://www.w3.org/2000/svg"
   xmlns="http://www.w3.org/2000/svg"
   version="1.1"
   id="svg2"
   height="300"
   width="300"
   preserveAspectRatio="xMidYMid"
   viewBox="0 0 300 300">
  <metadata
     id="metadata27">
    <rdf:RDF>
      <cc:Work
         rdf:about="">
        <dc:format>image/svg+xml</dc:format>
        <dc:type
           rdf:resource="http://purl.org/dc/dcmitype/StillImage" />
      </cc:Work>
    </rdf:RDF>
  </metadata>
  <defs
     id="defs25" />
  <filter
     y="-50%"
     x="-50%"
     height="500"
     width="300"
     id="bfyqo">
    <feFlood
       id="feFlood5"
       result="element"
       flood-color="#fdbcb4" />
    <feTurbulence
       id="feTurbulence7"
       result="element_1"
       seed="0"
       numOctaves="8"
       type="fractalNoise"
       baseFrequency="0.02" />
    <feGaussianBlur
       id="feGaussianBlur9"
       result="element_2"
       in="SourceAlpha"
       stdDeviation="4" />
    <feDisplacementMap
       id="feDisplacementMap11"
       result="element_3"
       in2="element_1"
       in="element_2"
       scale="100" />
    <feComposite
       id="feComposite13"
       result="element_4"
       in2="element_3"
       in="element"
       operator="in" />
    <feMerge
       id="feMerge15">
      <feMergeNode
         id="feMergeNode17"
         in="element_4" />
    </feMerge>
  </filter>
  <g
     id="g19"
     transform="translate(150,150) scale(1.5)">
    <path
       id="path21"
       style="filter: url(#bfyqo); stroke: rgb(253, 188, 180);"
       d="M0,0L2.9748075306849864,-1.8095169135744196C5.949615061369973,-3.619033827148839,11.899230122739946,-7.238067654297678,19.500248706511176,-3.4883642140403355C27.101267290282404,0.26133922621700734,36.35368939645489,11.379779933880531,30.43233892175506,12.729369324041848C24.510988447055233,14.078958714203162,3.4158653914830897,5.659696786862269,-2.3719769934597874,0.10925023473306861C-8.159819378402664,-5.441196317396132,1.3596189072837248,-8.122827494313638,1.7486448254218887,-6.502957140937278C2.1376707435600526,-4.8830867875609165,-6.603715705850009,1.0382850961093122,-8.371448497240404,4.798202275098325C-10.139181288630796,8.558119454087338,-4.933260422001524,10.156581928395134,1.1566214724938422,12.124144291905104C7.246503366989208,14.091706655415074,14.220346289350667,16.42836890812722,8.856115020081731,20.041925706392874C3.4918837508127964,23.65548250465853,-14.210421710086532,28.545933848477702,-19.549382658323157,24.087327779973606C-24.88834360655978,19.62872171146951,-17.863960042133698,5.821058230642144,-14.03176292417204,-3.6053935932192123C-10.199565806210384,-13.031845417080568,-9.559555134713147,-18.077085583975915,-6.659751994116132,-16.316499238430083C-3.7599488535191172,-14.555912892884255,1.3996467561776749,-5.989500034897246,7.1542052533022105,-2.605113127069849C12.908763750426747,0.7792737807575476,19.258285134979026,-1.0183652615746681,17.619348251729175,-7.080289489378249C15.98041136847932,-13.142213717181829,6.353016217427335,-23.468423130456774,2.281475274860581,-20.286332371052737C-1.7900656677061724,-17.1042416116487,-0.30575240178769314,-0.41385067956567845,0.9937661386017055,3.6367226849346492C2.293284678991104,7.687296049434977,3.408008493851422,-0.901948153647389,8.486420998481698,-10.738807683459088C13.564833503111974,-20.575667213270787,22.60693469751221,-31.660142069811823,18.530490926323985,-30.781983097216234C14.454047155135765,-29.903824124620645,-2.7409415816409126,-17.063031322888435,1.5818654669801173,-8.798310014098291C5.904672515601147,-0.533588705308147,31.745275349619885,3.155061110539932,33.29423686786949,6.407799805075487C34.84319838611909,9.660538499611041,12.100518588599567,12.477366072834071,-5.874333109138804,11.37325928446735C-23.849184806877172,10.26915249610063,-37.056208404834386,5.244111346144162,-40.84436831116527,3.29185577860755C-44.63252821749615,1.3396002110709377,-39.001824432200706,2.460130225954183,-33.944792751932546,-0.7019643507458482C-28.887761071664386,-3.864058927445879,-24.404401496423514,-11.308778095729187,-14.547568326225784,-7.292435274434094C-4.690735156028055,-3.276092453139004,10.539571609126531,12.201312357734485,14.722266193011741,16.785210561861888C18.90496077689695,21.36910876598929,12.040043179512782,15.059500363370603,10.446727269425068,9.634726905374738C8.853411359337352,4.209953447378874,12.531697136546088,-0.3299850659941699,7.071742861798418,-2.4712973229520823C1.6117885870507482,-4.612609579909995,-12.986405739653328,-4.3552955804527755,-18.519764891150075,-5.686006505756534C-24.053124042646818,-7.016717431060293,-20.521648018936233,-9.935453281125028,-15.89946317513472,-3.4566854524372213C-11.277278331333205,3.0220823762505855,-5.5643846674407635,18.898353883690937,-0.7935116846083705,22.639321819568703C3.977361298224022,26.380289755446476,7.806213599996365,17.985954119761665,7.453613181408698,12.925542488461012C7.101012762821029,7.865130857160358,2.5669596238733514,6.138643230243863,-2.1522285789919664,2.8020570129576976C-6.871416781857285,-0.534529204328468,-11.775740048640241,-5.481214011984305,-7.69372132103285,-7.288437637200495C-3.6117025934254583,-9.095661262416684,9.456658128572283,-7.763423705193228,8.841667954530438,-8.105119990369278C8.22667778048859,-8.446816275545327,-6.071663289592842,-10.462446403120882,-9.061273877503165,-9.491864523099773C-12.050884465413485,-8.521282643078665,-3.7317645711526977,-4.564488755460889,-0.3391713014040321,-2.715083915897771C3.0534219683446335,-0.8656790763346522,1.5194886135811758,-1.1236632848261896,0.7525219361994472,-1.2526553890719585L-0.014444741182281621,-1.3816474933177272" />
  </g>
</svg>
