<?xml version="1.0" encoding="UTF-8" standalone="no"?>
<svg
   xmlns:dc="http://purl.org/dc/elements/1.1/"
   xmlns:cc="http://creativecommons.org/ns#"
   xmlns:rdf="http://www.w3.org/1999/02/22-rdf-syntax-ns#"
   xmlns:svg="http://www.w3.org/2000/svg"
   xmlns="http://www.w3.org/2000/svg"
   version="1.1"
   id="svg2"
   height="300"
   width="300"
   preserveAspectRatio="xMidYMid"
   viewBox="0 0 300 300">
  <metadata
     id="metadata27">
    <rdf:RDF>
      <cc:Work
         rdf:about="">
        <dc:format>image/svg+xml</dc:format>
        <dc:type
           rdf:resource="http://purl.org/dc/dcmitype/StillImage" />
      </cc:Work>
    </rdf:RDF>
  </metadata>
  <defs
     id="defs25" />
  <filter
     y="-50%"
     x="-50%"
     height="500"
     width="300"
     id="xtofo">
    <feFlood
       id="feFlood5"
       result="element"
       flood-color="#0a7e8c" />
    <feTurbulence
       id="feTurbulence7"
       result="element_1"
       seed="31"
       numOctaves="8"
       type="fractalNoise"
       baseFrequency="0.02" />
    <feGaussianBlur
       id="feGaussianBlur9"
       result="element_2"
       in="SourceAlpha"
       stdDeviation="4" />
    <feDisplacementMap
       id="feDisplacementMap11"
       result="element_3"
       in2="element_1"
       in="element_2"
       scale="100" />
    <feComposite
       id="feComposite13"
       result="element_4"
       in2="element_3"
       in="element"
       operator="in" />
    <feMerge
       id="feMerge15">
      <feMergeNode
         id="feMergeNode17"
         in="element_4" />
    </feMerge>
  </filter>
  <g
     id="g19"
     transform="translate(150,150) scale(1.5)">
    <path
       id="path21"
       style="filter: url(#xtofo); stroke: rgb(10, 126, 140);"
       d="M0,0L3.9245864465364186,-1.8533065015746857C7.849172893072837,-3.7066130031493714,15.698345786145675,-7.413226006298743,23.94009352857173,-10.343183166240221C32.18184127099778,-13.2731403261817,40.81616386277705,-15.426441642915288,35.74298898457731,-16.023309201021746C30.669814106377576,-16.620176759128206,11.88914175819883,-15.660610558607537,5.049098393999704,-12.160821248127894C-1.7909449701994222,-8.661031937648248,3.3096406495810697,-2.6210195172096276,-5.527522831738244,-1.8258781429133686C-14.364686313057557,-1.0307367686171096,-37.139598895476674,-5.480466440463212,-36.63081374622885,-6.305636231421538C-36.122028596981025,-7.130806022379863,-12.329545716066258,-4.33141593245041,3.6806810317925134,-5.767274796352236C19.690907779651283,-7.203133660254062,27.91887839445406,-12.874241477987166,17.404616851239474,-20.049230601995053C6.890355308024887,-27.22421972600294,-22.366138393207063,-35.90309015628561,-21.96023574843653,-34.814887694368366C-21.554333103665996,-33.726685232451125,8.51396588710702,-22.87140987833397,18.449636497074778,-15.787083788585315C28.38530710704254,-8.702757698836663,18.188349336205043,-5.389380873456513,11.315720667926106,-1.3222697144744333C4.443091999647169,2.7448414445076463,0.8947924339267954,7.565686937091654,0.4670741049050533,5.338564143617672C0.039355775883311184,3.1114413501436893,2.7322186835602014,-6.163649729388284,3.3439979110595988,-15.256215313436304C3.9557771385589966,-24.348780897484325,2.486472685880902,-33.25882098604839,0.9972130246914137,-29.116866117463918C-0.49204663649807445,-24.97491124887944,-2.001261506198956,-7.780961423146417,1.6362450822379437,-0.3889740486249774C5.2737516706748435,7.003013325896462,14.057979717249525,4.593038249206318,17.66418794699643,-4.4484992874660865C21.270396176743336,-13.490036824138492,19.698584589662467,-29.16313682079316,16.403367032141844,-36.55462847886111C13.108149474621221,-43.94612013692907,8.089525946660844,-43.05600345641031,6.59486866889455,-30.833614423825352C5.100211391128256,-18.611225391240392,7.129520363556045,4.94343599341077,9.724372660008681,8.03433624106227C12.319224956461316,11.125236488713771,15.479620576938798,-6.2476244006343915,14.172655086896867,-2.7926552930216406C12.865689596854935,0.6623138145911103,7.091362996293593,24.945112919164774,0.8214095832740007,33.33348865798651C-5.448543829745591,41.72186439680824,-12.214124055223433,34.215816769878046,-3.802143360089561,19.336347792125007C4.609837335044309,4.456878814371969,28.199378950789892,-17.79601151420392,23.406813456321828,-21.98548106855967C18.614247961853764,-26.17495062291542,-14.560424642827947,-12.30099940305104,-21.97420315501548,-3.893128448076666C-29.387981667203015,4.51474250689771,-11.040866086896374,7.456533196982075,-2.118209762725668,-0.6379256097824131C6.804446561445038,-8.732384416546902,6.3026436294798085,-27.863092720160246,3.4785603058765067,-29.638076918938562C0.6544769822732053,-31.41306111771688,-4.491886732968168,-15.832321211660172,-6.6376214852674975,-13.411580265899053C-8.783356237566828,-10.990839320137933,-7.928462026924115,-21.7300973346724,-1.0655802679116544,-22.21085390021146C5.797301491100807,-22.691610465750518,18.66817079848302,-12.913865582294166,19.36824886192418,-6.838006983939992C20.06832692536534,-0.762148385585818,8.597613744865459,1.6118239276661774,1.5353825829635295,-3.535424813454143C-5.5268485789384,-8.682673554574464,-8.180597722242375,-21.3511433500671,-3.6749634314223147,-24.351271095298856C0.8306708593977445,-27.35139884053061,12.495688584341838,-20.683184535501486,20.849558766321497,-11.257164599647087C29.203428948301156,-1.831144663792685,34.246151587316376,10.352680902886991,29.588850455342502,11.765519446695995C24.93154932336862,13.178357990505,10.574224420405642,3.820209511443335,10.512546326339567,0.2147446042242218C10.450868232273493,-3.3907203029948914,24.684836947104323,-1.2435016383714523,29.940490869462916,-3.867129272210562C35.19614479182151,-6.490756906049672,31.473483921707864,-13.88523083835133,29.612153486651042,-17.58246780450216L27.750823051594217,-21.27970477065299" />
  </g>
</svg>
