<svg viewBox="0 0 300 300" preserveAspectRatio="xMidYMid" width="300" height="300"><filter id="ivsak" width="300" height="500" x="-50%" y="-50%"><feFlood flood-color="#3AA8C1" result="element"></feFlood><feTurbulence baseFrequency="0.02" type="fractalNoise" numOctaves="8" seed="82" result="element_1"></feTurbulence><feGaussianBlur stdDeviation="4" in="SourceAlpha" result="element_2"></feGaussianBlur><feDisplacementMap scale="100" in="element_2" in2="element_1" result="element_3"></feDisplacementMap><feComposite operator="in" in="element" in2="element_3" result="element_4"></feComposite><feMerge><feMergeNode in="element_4"></feMergeNode></feMerge></filter><g transform="translate(150,150) scale(1.5)"><path d="M0,0L2.318280857713969,-4.916948552836304C4.636561715427938,-9.833897105672609,9.273123430855875,-19.667794211345218,9.955976654255615,-18.120230023465304C10.638829877655352,-16.572665835585386,7.367974609026891,-3.6436403541529465,7.348041202706957,0.7849775374128016C7.328107796387024,5.21359542897855,10.559096252375618,1.1418057306776062,8.976614540105562,-0.7919326483884084C7.394132827835506,-2.725671027454423,0.9981809473068006,-2.521358087285509,8.07874015270036,-3.019991023356633C15.159299358093921,-3.5186239594277584,35.71636964940975,-4.720202771738922,38.759409347816515,-9.556963699581429C41.80244904622329,-14.393724627423936,27.331458151720998,-22.865667670797784,20.366124259514013,-12.206940988935692C13.40079036730703,-1.5482143070736,13.94111347739535,28.24118210002443,10.492467317980898,33.13070538970502C7.043821158566445,38.02022867938561,-0.39379427035078063,18.009878851648757,-3.0304061680857464,6.2057608867680845C-5.667018065820712,-5.598357078112586,-3.502626432373418,-9.196243180137074,-5.758778606620876,-9.185226967370491C-8.014930780868335,-9.174210754603909,-14.691626762810545,-5.554292227046254,-19.9070244488328,-2.7612612025915872C-25.12242213485506,0.03176982186307864,-28.87652152495737,1.997913343214756,-25.61229606545059,4.2836225304388895C-22.348070605943807,6.569331717663024,-12.065520296827945,9.174606570759614,-12.24876827418045,8.985206767485574C-12.432016251532957,8.795806964211534,-23.081062515353832,5.811732504566866,-25.871121492546024,6.558298754278855C-28.66118046973821,7.304865003990845,-23.592252160301708,11.782071963059495,-18.68082675871925,7.578621723199669C-13.76940135713679,3.3751714833398445,-9.015478863408372,-9.508935955448456,-6.280688580813559,-11.90550365666959C-3.5458982982187432,-14.30207135789072,-2.830240226757531,-6.211099321544683,0.7951395645490207,4.655714533234397C4.420519355855573,15.522528388013477,10.955620867007463,29.1651840612256,7.393448794283931,24.519890009427392C3.831276721560398,19.87459595762918,-9.828168935038558,-3.0586478191793667,-5.451946116450581,-9.448542192969922C-1.075723297862604,-15.838436566760478,21.336167995912305,-5.684981537533044,32.196905608347194,-3.5729259138698577C43.05764322078208,-1.4608702902066715,42.36722715187694,-7.390214072107733,27.638478658144876,-0.9692633492141782C12.909730164412805,5.451687373679377,-15.857350754146193,24.22293260136755,-21.749476612249104,31.071327346494904C-27.64160247035202,37.91972209162226,-10.658773267998848,32.8452663541888,-4.0014775214654685,15.949239920450776C2.6558182250679105,-0.9467865132872504,-1.0124194842185021,-29.664383643329845,-2.0159051774705143,-40.43784659826063C-3.0193908707225265,-51.21130955319141,-1.3581245479401383,-44.04063833301039,3.113864270041435,-32.52588361078539C7.585853088023008,-21.011128888560386,14.868564401203765,-5.152290664291405,9.013882707019095,6.361012989997996C3.159201012834423,17.874316644287397,-15.832873688715678,25.04208572859722,-13.3452429477959,24.151558524528845C-10.85761220687612,23.26103132046047,13.10972397651354,14.312207828013904,12.580640722173122,9.489046637125961C12.051557467832707,4.665885446238019,-12.973945224237784,3.9683865569087033,-20.18059189090194,6.31420592786648C-27.387238557566096,8.660025298824255,-16.775029198823916,14.049162930069125,-11.207914223301833,20.985474221510394C-5.640799247779749,27.92178551295166,-5.11877865547776,36.40527046458933,-3.7758444041509605,23.974141222464755C-2.4329101528241615,11.543011980340179,-0.2690622424725515,-21.802731455546642,-1.990151914085868,-28.848270400586884C-3.7112415856991845,-35.893809345627126,-9.317268839277428,-16.639143799820797,-9.595129176963127,-4.06995910622046C-9.872989514648825,8.499225587379877,-4.822682936441981,14.38292942877422,0.22756009989078052,15.875367455383596C5.277803136223543,17.367805481992974,10.327982630682223,14.468977693817381,12.420074342630842,12.785964322461956C14.512166054579462,11.102950951106529,13.64616998401802,10.635751996571269,13.2131719487373,10.40215251930364L12.78017391345658,10.16855304203601" style="filter: url(#ivsak); stroke: rgb(58, 168, 193);"></path></g></svg>