<svg viewBox="0 0 300 300" preserveAspectRatio="xMidYMid" width="300" height="300"><filter id="qezgk" width="300" height="500" x="-50%" y="-50%"><feFlood flood-color="#c54b8c" result="element"></feFlood><feTurbulence baseFrequency="0.02" type="fractalNoise" numOctaves="8" seed="9" result="element_1"></feTurbulence><feGaussianBlur stdDeviation="4" in="SourceAlpha" result="element_2"></feGaussianBlur><feDisplacementMap scale="100" in="element_2" in2="element_1" result="element_3"></feDisplacementMap><feComposite operator="in" in="element" in2="element_3" result="element_4"></feComposite><feMerge><feMergeNode in="element_4"></feMergeNode></feMerge></filter><g transform="translate(150,150) scale(1.5)"><path d="M0,0L8.00190464674564,-0.9533910892472857C16.00380929349128,-1.9067821784945713,32.00761858698256,-3.8135643569891426,34.577438117587754,0.03834950510325852C37.14725764819295,3.8902633671956597,26.28308741591205,13.500873269875033,16.55540632797047,21.233935295976202C6.827725240028885,28.966997322077376,-1.7634667035733882,34.82251147160034,-1.5490454518048344,37.75186544149442C-1.3346242000362798,40.68121941138848,7.685410247103102,40.684413201653655,10.241085799745656,25.39967146641234C12.796761352388211,10.114929731171024,8.888078010533938,-20.457747529576785,9.063993494308754,-26.698852880656304C9.23990897808357,-32.93995823173582,13.500423287487473,-14.849491673147053,19.930033088226423,-3.7200020418512105C26.359642888965375,7.409487589444631,34.95834818103937,11.578000293447543,28.264514698006725,5.77656396339092C21.57068121497408,-0.02487236666570425,-0.41569104316521077,-15.796257730781864,-9.38000135736289,-10.011298750493413C-18.34431167156057,-4.226339770204966,-14.286560041816637,23.114963554488092,-16.920194637108665,22.443044723604345C-19.553829232400695,21.771125892720598,-28.878850052728684,-6.914015093739959,-26.669105167045778,-24.217522915276643C-24.459360281362873,-41.52103073681333,-10.714849689669075,-47.44290539342614,-11.707895245975834,-39.29215784530486C-12.700940802282593,-31.141410297183565,-28.43154250658991,-8.918040544328178,-27.865818399486717,-4.0396791269635965C-27.300094292383523,0.8386822904009854,-10.438044373869817,-11.627964627725238,-9.669037263411344,-10.587056324048547C-8.900030152952873,-9.546148020371858,-24.224065850549636,5.002315505107745,-23.820534978981524,8.558647719780634C-23.417004107413415,12.114979934453523,-7.285906666680437,4.679180838319696,-0.6432782788404834,7.351294696181346C5.9993501089994705,10.023408554042994,3.153509443946397,22.80343536590012,8.78312980305367,23.823196361071517C14.412750162160943,24.842957356242916,28.51783154542856,14.102452534728585,29.539749871264085,6.374017727073421C30.561668197099607,-1.354417080581741,18.500423465503033,-6.070781874377735,10.10920829078532,-15.842697881152905C1.7179931160676083,-25.614613887928073,-3.003192501771246,-40.44208110768242,-4.187059470637176,-38.83480074587784C-5.370926439503106,-37.22752038407326,-3.017474759396111,-19.18549244070976,1.2491529466152111,-13.259818548689541C5.515780652626534,-7.3341446566693245,11.695584384542183,-13.524824815992393,10.575653670337337,-14.374486080057588C9.45572295613249,-15.224147344122787,1.0360577958071469,-10.732789712930114,-2.303266290420264,-10.950789231880599C-5.642590376647675,-11.168788750831084,-3.9015733887771535,-16.096145419924728,-5.827791130266174,-15.237622695693894C-7.754008871755195,-14.379099971463061,-13.347461342603758,-7.734697853907747,-14.303763498689454,0.4417048085674944C-15.260065654775149,8.618107471042736,-11.579217496097975,18.326510678437906,-0.315835225895281,17.285693419198868C10.947547044307413,16.24487615995983,29.79346342603563,4.454838434086588,32.07112443885312,-3.3629977922113614C34.348785451670615,-11.18083401850931,20.058191095577385,-15.026468745231966,3.926609920944312,-23.216228520168833C-12.20497125368876,-31.405988295105697,-30.17753924686167,-43.93987311825677,-35.88226055253209,-34.586471594282386C-41.58698185820251,-25.233070070308003,-35.02385647637044,6.007617800791849,-29.400284015737643,13.301851407033496C-23.776711555104846,20.596085013275143,-19.09269201567132,3.9438643546585848,-10.86265888918575,3.7457834621413237C-2.6326257627001786,3.5477025696240627,9.143420950837438,19.8037614432061,15.154609089420074,23.927931102048493C21.16579722800271,28.05210076089089,21.412126791630367,20.04438120499365,18.037789031426154,20.198903969025807C14.663451271221936,20.353426733057965,7.668446187185847,28.670191817019525,9.567388677378695,35.86692499263202C11.466331167571543,43.063658168244515,22.25922123199333,49.14035943550794,19.075255279798064,43.05770136281157C15.891289327602802,36.975043290115195,-1.2695326412095103,18.733025877459024,-9.849943625615666,9.612017171130937L-18.430354610021823,0.4910084648028511" style="filter: url(#qezgk); stroke: rgb(197, 75, 140);"></path></g></svg>