<?xml version="1.0" encoding="UTF-8" standalone="no"?>
<svg
   xmlns:dc="http://purl.org/dc/elements/1.1/"
   xmlns:cc="http://creativecommons.org/ns#"
   xmlns:rdf="http://www.w3.org/1999/02/22-rdf-syntax-ns#"
   xmlns:svg="http://www.w3.org/2000/svg"
   xmlns="http://www.w3.org/2000/svg"
   version="1.1"
   id="svg2"
   height="300"
   width="300"
   preserveAspectRatio="xMidYMid"
   viewBox="0 0 300 300">
  <metadata
     id="metadata27">
    <rdf:RDF>
      <cc:Work
         rdf:about="">
        <dc:format>image/svg+xml</dc:format>
        <dc:type
           rdf:resource="http://purl.org/dc/dcmitype/StillImage" />
      </cc:Work>
    </rdf:RDF>
  </metadata>
  <defs
     id="defs25" />
  <filter
     y="-50%"
     x="-50%"
     height="500"
     width="300"
     id="izmri">
    <feFlood
       id="feFlood5"
       result="element"
       flood-color="#828e84" />
    <feTurbulence
       id="feTurbulence7"
       result="element_1"
       seed="28"
       numOctaves="8"
       type="fractalNoise"
       baseFrequency="0.02" />
    <feGaussianBlur
       id="feGaussianBlur9"
       result="element_2"
       in="SourceAlpha"
       stdDeviation="4" />
    <feDisplacementMap
       id="feDisplacementMap11"
       result="element_3"
       in2="element_1"
       in="element_2"
       scale="100" />
    <feComposite
       id="feComposite13"
       result="element_4"
       in2="element_3"
       in="element"
       operator="in" />
    <feMerge
       id="feMerge15">
      <feMergeNode
         id="feMergeNode17"
         in="element_4" />
    </feMerge>
  </filter>
  <g
     id="g19"
     transform="translate(150,150) scale(1.5)">
    <path
       id="path21"
       style="filter: url(#izmri); stroke: rgb(130, 142, 132);"
       d="M0,0L7.883481101731558,3.9521067896684885C15.766962203463116,7.904213579336977,31.533924406926232,15.808427158673954,26.905691254110593,8.660589541240483C22.27745810129495,1.512751923807011,-2.7459704077994473,-20.687136890396907,-6.267139148554092,-25.735443024209356C-9.788307889308737,-30.783749158021802,8.192783138276372,-18.680472611442777,17.80729059023158,-11.194878341025364C27.421798042186786,-3.7092840706079477,28.669721918512092,-0.841372076352144,23.956004442350615,1.2234783058995424C19.24228696618913,3.288328688151229,8.566928137540865,4.550117458398798,11.128982024719724,11.513117932965311C13.691035911898583,18.476118407531825,29.490502514904566,31.14033058641728,31.923113326906293,29.850499912159542C34.355724138908016,28.56066923790181,23.42147915990548,13.316795710500879,16.454691472961535,7.832824017280374C9.487903786017586,2.3488523240598687,6.4885733911322285,6.624782465019788,5.4925336376985525,6.083131175033852C4.4964938842648765,5.541479885047915,5.503744772282882,0.18224716411612318,8.563181834895381,2.015287000935455C11.62261889750788,3.8483268377547875,16.734242134714876,12.873639232325244,17.363477705528748,18.07995129451117C17.99271327634262,23.2862633566971,14.139561180763375,24.673575086498495,10.588271779909128,15.506976434911993C7.03698237905488,6.34037778332549,3.7875556729256314,-13.380131249648915,7.090213627607534,-15.2784972230119C10.392871582289436,-17.17686319637488,20.24761419778249,-1.253086110126441,16.351287178209205,12.947441665004934C12.454960158635918,27.147969440136308,-5.192436496003705,39.62524790415062,-6.632580976270999,32.50244952645804C-8.072725456538294,25.379651148765443,6.694382237566742,-1.3432240706340437,18.4457425656447,-13.634044246570719C30.197102893722658,-25.924864422507394,38.932715855773544,-23.783629554981257,35.1941324052257,-16.876305011047656C31.45554895467787,-9.968980467114056,15.242769091531315,1.7044337532270077,6.471544723028442,0.09752638422785154C-2.2996796454744306,-1.5093809847713047,-3.629348519333622,-16.396609943110683,1.8200145085949049,-22.732531060253656C7.269377536523432,-29.068452177396633,19.497772466239677,-26.85306545334321,21.140054349471534,-22.2511194091191C22.782336232703393,-17.64917336489498,13.838505069450862,-10.660668000500177,11.039083078330089,-8.693932964668612C8.239661087209317,-6.727197928837045,11.5846482682203,-9.782233221568717,12.251299900916896,-9.435985056240604C12.91795153361349,-9.08973689091249,10.906267617995699,-5.342205267524593,13.123117902577095,-3.8620210846516043C15.339968187158492,-2.381836901778616,21.78535267193908,-3.1690001594205386,22.330707358812838,-5.600437935576229C22.87606204568659,-8.03187571173192,17.521386934653517,-12.107588006401379,17.816225173528142,-5.067870698909635C18.111063412402764,1.9718466085821085,24.05541500118509,20.126993518235054,31.168587953936864,20.817128093421758C38.28176090668863,21.507262668608462,46.563755223409856,4.732384909328918,33.65764350055752,1.4369874769400566C20.751531777705186,-1.8584099554488045,-13.34268598472071,8.325672939053016,-21.678968730296305,7.372176887867996C-30.0152514758719,6.418680836682973,-12.593599204597197,-5.67239416018889,-4.587370982174791,-10.493721349804762C3.4188572402476134,-15.315048539420633,2.0096614138177187,-12.866627921780513,-2.74194227656502,-4.647786064900828C-7.493545966947758,3.571055791978857,-15.58755752128334,17.56031888809811,-18.911241921189767,24.89511388016119C-22.234926321096193,32.22990887222427,-20.78828356657346,32.910235760231174,-12.323871091233777,32.89713955209023C-3.859458615894086,32.88404334394927,11.62272358026256,32.17752403966046,15.405622490599171,18.579504421912024C19.18852140093578,4.98148480416358,11.272137025452352,-21.508035127044487,7.568282131692829,-28.61498344791657C3.8644272379333073,-35.72193176878864,4.373101825897692,-23.44630847932473,4.1861187449354285,-7.814168998605572C3.9991356639731666,7.817970482113586,3.1164949140842584,26.80662615408799,2.675174539139804,36.300953990075186L2.2338541641953498,45.79528182606239" />
  </g>
</svg>
