<?xml version="1.0" encoding="UTF-8" standalone="no"?>
<svg
   xmlns:dc="http://purl.org/dc/elements/1.1/"
   xmlns:cc="http://creativecommons.org/ns#"
   xmlns:rdf="http://www.w3.org/1999/02/22-rdf-syntax-ns#"
   xmlns:svg="http://www.w3.org/2000/svg"
   xmlns="http://www.w3.org/2000/svg"
   version="1.1"
   id="svg2"
   height="300"
   width="300"
   preserveAspectRatio="xMidYMid"
   viewBox="0 0 300 300">
  <metadata
     id="metadata27">
    <rdf:RDF>
      <cc:Work
         rdf:about="">
        <dc:format>image/svg+xml</dc:format>
        <dc:type
           rdf:resource="http://purl.org/dc/dcmitype/StillImage" />
      </cc:Work>
    </rdf:RDF>
  </metadata>
  <defs
     id="defs25" />
  <filter
     y="-50%"
     x="-50%"
     height="500"
     width="300"
     id="cdrpu">
    <feFlood
       id="feFlood5"
       result="element"
       flood-color="#d65282" />
    <feTurbulence
       id="feTurbulence7"
       result="element_1"
       seed="54"
       numOctaves="8"
       type="fractalNoise"
       baseFrequency="0.02" />
    <feGaussianBlur
       id="feGaussianBlur9"
       result="element_2"
       in="SourceAlpha"
       stdDeviation="5" />
    <feDisplacementMap
       id="feDisplacementMap11"
       result="element_3"
       in2="element_1"
       in="element_2"
       scale="100" />
    <feComposite
       id="feComposite13"
       result="element_4"
       in2="element_3"
       in="element"
       operator="in" />
    <feMerge
       id="feMerge15">
      <feMergeNode
         id="feMergeNode17"
         in="element_4" />
    </feMerge>
  </filter>
  <g
     id="g19"
     transform="translate(150,150) scale(1.5)">
    <path
       id="path21"
       style="filter: url(#cdrpu); stroke: rgb(214, 82, 130);"
       d="M0,0L1.9996001842511977,0.009402391818390901C3.9992003685023954,0.018804783636781803,7.998400737004791,0.037609567273563606,12.636792271145207,-1.2613930096918458C17.27518380528562,-2.5603955866572554,22.55276650506406,-5.177205524224856,21.738780116765483,-5.866256762901219C20.92479372846691,-6.555308001577581,14.019238252091322,-5.316600541362706,9.466085578802177,-3.791457075850266C4.912932905513034,-2.2663136103378263,2.712183035310334,-0.4547341395278217,-7.704944781943123,0.7980792926167789C-18.122072599196578,2.0508927247613795,-36.75557836350079,2.744940118240576,-36.02283868180691,2.4254137145521124C-35.29009900011302,2.1058873108636487,-15.191113872421038,0.772787110007524,-4.334773788237721,-2.8237112206008286C6.521566295945597,-6.420209551209181,8.13526133662025,-12.280106011569762,12.065876233258363,-9.351437333760657C15.996491129896476,-6.422768655951551,22.24402588249805,5.294465160027241,23.221202509361227,10.441596145256554C24.198379136224403,15.588727130485868,19.905197637349183,14.165755284965702,13.383511848429183,16.583049572435954C6.861826059509182,19.000343859906202,-1.8883640194556008,25.257904280366866,2.5510715972331965,25.902055715086252C6.990507213921993,26.54620714980564,24.61956852626437,21.57694959878375,31.75209126191195,23.879844678407075C38.88461399755953,26.1827397580304,35.52059815651232,35.75778746829894,22.37587648525951,31.221413064637584C9.2311548140067,26.68503866097622,-13.694272687451713,8.037242143384951,-16.474728938665923,-4.322175928136897C-19.25518518988013,-16.681593999658745,-1.8906701908501304,-22.75263362511117,5.769969347312683,-15.886567177678138C13.430608885475497,-9.020500730245105,11.387372962771128,10.782671790073382,0.043364056702642984,12.354789092458903C-11.300644849365844,13.926906394844423,-31.945426738798446,-2.732031520703025,-34.08943964108737,-10.887338388483842C-36.23345254337628,-19.04264525626466,-19.876696458521522,-18.694321076278847,-5.424072503392377,-8.798791337358743C9.028551451736766,1.0967384015613586,21.577043277140287,20.53947369941575,21.911371009533127,25.18073173154663C22.245698741925963,29.8219897636775,10.365862381308116,19.66177053008486,7.827662643651251,7.988016964801694C5.289462905994386,-3.6857366004814676,12.092899791298503,-16.873024497455148,12.46151926879088,-17.246253177549963C12.830138746283255,-17.619481857644782,6.763940815963891,-5.178651320860741,-4.963201447776845,4.188568777886621C-16.69034371151758,13.555788876633983,-34.078430308679685,19.849398537344666,-40.48654726664598,9.135517106544466C-46.894664224612264,-1.578364324255734,-42.32281154338274,-29.299736846566816,-33.76463638134707,-28.36768822956114C-25.20646121931139,-27.435639612555466,-12.66196357646957,2.1498301437669625,-0.5691329862723107,5.451330574242734C11.52369760392495,8.752831004718505,23.16486114147765,-14.22963789065238,19.157125394466995,-22.248252715654605C15.149389647456342,-30.266867540656833,-4.507245384117667,-23.321628295290402,-13.47049531486488,-16.758359937882496C-22.433745245612094,-10.195091580474589,-20.703610075532517,-4.013794111025206,-15.242449392689695,-6.154495479721502C-9.78128870984687,-8.295196848417797,-0.5891025142407997,-18.75789705525977,9.99437698222532,-20.34308462634785C20.57785647869144,-21.92827219743593,32.55262927601761,-14.63594713277012,21.803550603960222,-0.665957880892373C11.054471931902828,13.304031370985374,-22.41845820953813,33.95168481007506,-30.379149847471133,35.24861340952827C-38.339841485404136,36.54554200898149,-20.78829461982919,18.491745768798246,-10.84686306017617,8.259999019205532C-0.9054315005231499,-1.9717477303871838,1.4258847532079457,-4.381444989389367,8.400533965263831,-4.032788909113778C15.375183177319714,-3.68413282883819,26.993165347700387,-0.5771234092848305,30.73384659005004,3.8506362607394427C34.47452783239969,8.278395930763716,30.337908146718316,14.026905851258903,27.07048516043186,12.990056320480361C23.80306217414541,11.953206789701818,21.404835887253874,4.130997807649546,20.205722743808103,0.21989331662341083L19.00660960036234,-3.691211174402725" />
  </g>
</svg>
