<svg viewBox="0 0 300 300" preserveAspectRatio="xMidYMid" width="300" height="300"><filter id="fgsky" width="300" height="500" x="-50%" y="-50%"><feFlood flood-color="#ad4379" result="element"></feFlood><feTurbulence baseFrequency="0.02" type="fractalNoise" numOctaves="8" seed="55" result="element_1"></feTurbulence><feGaussianBlur stdDeviation="5" in="SourceAlpha" result="element_2"></feGaussianBlur><feDisplacementMap scale="100" in="element_2" in2="element_1" result="element_3"></feDisplacementMap><feComposite operator="in" in="element" in2="element_3" result="element_4"></feComposite><feMerge><feMergeNode in="element_4"></feMergeNode></feMerge></filter><g transform="translate(150,150) scale(1.5)"><path d="M0,0L1.6441954405280668,3.288056133871568C3.2883908810561335,6.576112267743136,6.576781762112267,13.152224535486273,14.266560508370862,8.783426268322055C21.956339254629455,4.414628001157837,34.04750586609051,-10.899080800913735,26.795838712538934,-13.054087552807342C19.544171558987355,-15.20909430470095,-7.050329359576855,-4.205399006416592,-12.886624056584349,1.6531759823477388C-18.72291875359184,7.511750971112069,-3.801007229042618,8.225205650356372,6.752411094366758,9.12383006428973C17.305829417776135,10.02245447822309,23.490754540045664,11.106248626845503,20.82741836446382,14.325894697660365C18.16408218888198,17.545540768475227,6.652484715448765,22.90103876148254,1.759169335852375,21.534635132312147C-3.1341460437440154,20.16823150314175,-1.4091793295035822,12.079926251793655,-1.9500445404616884,-2.360386508413181C-2.490909751419794,-16.80069926862002,-5.29760688757644,-37.59301953768559,2.911344630252221,-36.75585573595825C11.12029614808088,-35.91869193423089,30.344896319894847,-13.45204406171062,32.498052216661385,-6.404305420246064C34.65120811342792,0.6434332212184914,19.73291973514703,-7.727737368372676,10.945806185257593,-11.747592948273127C2.158692635368158,-15.767448528173578,-0.49724608612982246,-15.435989098383313,-1.9201046154616672,-16.357859832275153C-3.342963144793512,-17.279730566166997,-3.532741481959221,-19.45493146374094,-3.777634331921047,-7.546907896091742C-4.0225271818828725,4.361115671557453,-4.322534544640815,30.35236370442979,4.06616406540437,33.90885435433922C12.454862675449554,37.46534500424865,29.532267258297864,18.587078271195164,30.333992950474872,3.365447345981133C31.135718642651884,-11.8561835792329,15.661765444157592,-23.42117869660748,8.022000746030201,-29.078667074515355C0.3822360479028096,-34.736155452423226,0.576659850142321,-34.48613709086439,5.634281292630024,-28.80375494239477C10.691902735117726,-23.121372793925158,20.612721817853622,-12.006626858544763,19.09966312528682,-5.665561799258383C17.586604432720023,0.6755032600279947,4.639667964850534,2.242887443220357,-2.8224624051274043,7.228211637254455C-10.284592775105342,12.213535831288553,-12.261917047191728,20.61680003616439,-10.535312472758587,18.88984671408505C-8.808707898325443,17.162893392005707,-3.378174477372771,5.305722542971193,-2.8219838049077786,0.5518178292806333C-2.265793132442786,-4.202086884409926,-6.583945208465472,-1.8527254627565304,-6.337620702993442,-0.5824428011101035C-6.091296197521412,0.6878398605363234,-1.2804951105546651,0.8790437621757812,0.14789593354881853,5.9569520940839835C1.5762869776523023,11.034860425992186,-0.3777320211074777,20.99947318816913,0.29805863722899795,21.191267880339044C0.9738492955654736,21.383062572508955,4.2794496109982045,11.802039194671828,4.593176748617848,15.923516505427179C4.906903886237492,20.04499381618253,2.228757846044048,37.86897181553036,4.206996664373175,36.70199837559656C6.1852354827023035,35.53502493566276,12.819859159554003,15.377100056447338,11.718958544625156,6.207463939626003C10.61805792969631,-2.9621721771953315,1.7816330229869166,-1.1435195316225781,-1.5509485178014801,4.828296303476055C-4.883530058589877,10.800112138574688,-2.7122682334572774,20.9250911631992,-6.822693275598607,25.75739110743475C-10.933118317739938,30.589691051670297,-21.325230227155195,30.12931191551688,-18.767157142182867,22.321859183454627C-16.20908405721054,14.514406451392375,-0.7008259778506236,-0.6401198765787157,8.80441094268436,-4.684177967651274C18.309647863219343,-8.728236058723832,21.811863624929394,-1.6618259128978563,21.38820074312549,5.491745038695674C20.96453786132159,12.645315990289205,16.614996336003728,19.88604774765029,15.925856162819601,11.704015506358498C15.236715989635474,3.5219832650667033,18.20797716858508,-20.082812974877967,24.992281925825395,-27.594211161591915C31.77658668306571,-35.10560934830586,42.373935018596725,-26.523609481789073,41.31569488362769,-26.98575428743618C40.25745474865866,-27.447899093083286,27.54362614318957,-36.95418857089429,21.186711840455025,-41.707333309799786L14.82979753772048,-46.46047804870528" style="filter: url(#fgsky); stroke: rgb(173, 67, 121);"></path></g></svg>