<svg viewBox="0 0 300 300" preserveAspectRatio="xMidYMid" width="300" height="300"><filter id="fkceb" width="300" height="500" x="-50%" y="-50%"><feFlood flood-color="#214fc6" result="element"></feFlood><feTurbulence baseFrequency="0.02" type="fractalNoise" numOctaves="8" seed="44" result="element_1"></feTurbulence><feGaussianBlur stdDeviation="4" in="SourceAlpha" result="element_2"></feGaussianBlur><feDisplacementMap scale="100" in="element_2" in2="element_1" result="element_3"></feDisplacementMap><feComposite operator="in" in="element" in2="element_3" result="element_4"></feComposite><feMerge><feMergeNode in="element_4"></feMergeNode></feMerge></filter><g transform="translate(150,150) scale(1.5)"><path d="M0,0L1.4625886202579186,3.6415313992591463C2.925177240515837,7.2830627985182925,5.850354481031674,14.566125597036585,5.699567898302342,6.092010742831441C5.548781315573009,-2.382104111373703,2.3220309095985066,-26.613396618302282,-0.012840886040283439,-25.00475620183466C-2.347712681679073,-23.396115785367037,-3.7907058669821505,4.05245755449679,-2.3507329862461033,18.992006316574358C-0.9107601055100556,33.931555078651925,3.4121788412651166,36.36207926294324,3.704289173913012,32.968736036203936C3.9963995065609073,29.57539280946464,0.2576812250815257,20.35818217169473,-2.0871341141362887,16.402268421217954C-4.431949453354103,12.44635467074118,-5.38286185031035,13.751737807557543,2.109154763509463,13.438978362667097C9.601171377329276,13.12621891777665,25.53611700192515,11.195316891179395,19.57637612613828,12.354797373205788C13.616635250351408,13.514277855232184,-14.237792125818208,17.764140845882228,-20.767692134488797,15.142608163711028C-27.297592143159385,12.521075481539826,-12.502964784330945,3.028147126547381,-11.356148052756431,3.964907804478362C-10.209331321181917,4.901668482409343,-22.710325216861328,16.26811819326375,-16.976741145984672,10.705939935142283C-11.243157075108014,5.143761677020814,12.72500496232471,-17.347044550076525,20.319063881013797,-21.54384681394182C27.913122799702876,-25.74064907780711,19.133078599648318,-11.643447378440355,12.817414003609377,-2.9854491586974223C6.5017494075704345,5.672549061045508,2.650464415547109,8.891343801164615,4.109502322510098,9.30024205685946C5.5685402294730855,9.709140312554304,12.337901035422387,7.308142083824886,6.965832101228294,2.4940763158136363C1.5937631670342007,-2.319989452197613,-15.919735507303287,-9.547122759490694,-15.288518281541869,-7.558827098983243C-14.65730105578045,-5.570531438475792,4.118632070079874,5.633193189832193,2.101635841351249,2.8485374536985955C0.08463961262262387,0.06388171756499617,-22.72528597069495,-16.709154383010187,-25.69133223061142,-27.133873841132047C-28.657378490527886,-37.55859329925391,-11.779545427043248,-41.63499611492245,-6.315319187188255,-32.31184285426036C-0.851092947333262,-22.988689593598266,-6.800473531107915,-0.2659802566055429,-13.18877038218901,9.477311075047687C-19.577067233270107,19.220602406700916,-26.40428035165764,15.984475733014651,-23.09499162348673,8.902071509631973C-19.78570289531582,1.8196672862492917,-6.3399123205864605,-9.109014486829803,-0.08876670725300184,-13.88809398114093C6.162378906080457,-18.667173475452053,5.218879558018015,-17.296650690995214,10.579835019758091,-19.651732076616717C15.94079048149817,-22.00681346223822,27.606200753040763,-28.08749901793807,26.673119509847353,-27.251926196492192C25.740038266653947,-26.416353375046317,12.208465508724537,-18.66452217645471,4.335750705716386,-13.385537192605371C-3.536964097291767,-8.10655220875603,-5.750820945378662,-5.300413439648954,-8.598765485785915,-1.4092381721692884C-11.446710026193168,2.4819370953103777,-14.928742258920781,7.458148861162632,-9.388127664674274,12.42053582006185C-3.847513070427766,17.382922778961067,10.715748350792861,22.331484930907244,14.689669126177911,23.5423172364952C18.66358990156296,24.753149542083154,12.048170031112438,22.226252001312886,13.817595950492692,12.47536981828783C15.587021869872945,2.724487635262774,25.741293579083976,-14.250379190017068,16.485652963572253,-13.863854663754747C7.2300123480605265,-13.47733013749243,-21.435540592173957,4.270585740312049,-33.49216083021571,2.760852921874047C-45.548781068257455,1.2511201034360457,-40.99646860410647,-19.516261411244436,-35.63734177092689,-23.042387660967442C-30.2782149377473,-26.56851391069045,-24.11227373553912,-12.853384895455982,-18.43372512375099,-4.678802711430823C-12.755176511962862,3.4957794725943376,-7.564020490594782,6.1298148254101905,-7.204769212111319,7.590837302297463C-6.845517933627856,9.051859779184737,-11.31817139802901,9.33986938014343,-2.2896537795405205,14.755211263610818C6.738863838947967,20.170553147078206,29.268552540326098,30.713227313054286,40.533396891015165,35.98456439604233L51.79824124170423,41.25590147903037" style="filter: url(#fkceb); stroke: rgb(33, 79, 198);"></path></g></svg>