<?xml version="1.0" encoding="UTF-8" standalone="no"?>
<svg
   xmlns:dc="http://purl.org/dc/elements/1.1/"
   xmlns:cc="http://creativecommons.org/ns#"
   xmlns:rdf="http://www.w3.org/1999/02/22-rdf-syntax-ns#"
   xmlns:svg="http://www.w3.org/2000/svg"
   xmlns="http://www.w3.org/2000/svg"
   version="1.1"
   id="svg2"
   height="300"
   width="300"
   preserveAspectRatio="xMidYMid"
   viewBox="0 0 300 300">
  <metadata
     id="metadata27">
    <rdf:RDF>
      <cc:Work
         rdf:about="">
        <dc:format>image/svg+xml</dc:format>
        <dc:type
           rdf:resource="http://purl.org/dc/dcmitype/StillImage" />
      </cc:Work>
    </rdf:RDF>
  </metadata>
  <defs
     id="defs25" />
  <filter
     y="-50%"
     x="-50%"
     height="500"
     width="300"
     id="wwrno">
    <feFlood
       id="feFlood5"
       result="element"
       flood-color="#4f42b5" />
    <feTurbulence
       id="feTurbulence7"
       result="element_1"
       seed="81"
       numOctaves="8"
       type="fractalNoise"
       baseFrequency="0.02" />
    <feGaussianBlur
       id="feGaussianBlur9"
       result="element_2"
       in="SourceAlpha"
       stdDeviation="5" />
    <feDisplacementMap
       id="feDisplacementMap11"
       result="element_3"
       in2="element_1"
       in="element_2"
       scale="100" />
    <feComposite
       id="feComposite13"
       result="element_4"
       in2="element_3"
       in="element"
       operator="in" />
    <feMerge
       id="feMerge15">
      <feMergeNode
         id="feMergeNode17"
         in="element_4" />
    </feMerge>
  </filter>
  <g
     id="g19"
     transform="translate(150,150) scale(1.5)">
    <path
       id="path21"
       style="filter: url(#wwrno); stroke: rgb(79, 66, 181);"
       d="M0,0L2.5855277675578936,1.2180883505893594C5.171055535115787,2.4361767011787188,10.342111070231574,4.8723534023574375,8.008363136971617,0.2985551733886789C5.674615203711658,-4.27524305558008,-4.163936197924045,-15.859016214696316,-3.0612363056989134,-20.993169492544457C-1.958536413473782,-26.127322770392595,10.085414772612184,-24.811856166972643,12.599583691514722,-14.48939033139945C15.11375261041726,-4.166924495826258,8.09813926213637,15.162540571900172,-4.203261727206325,23.22747316164029C-16.504662716549017,31.292405751380404,-34.09185134695351,28.092805863134206,-31.737237495087136,25.771196415224566C-29.38262364322075,23.44958696731492,-7.086207309083491,22.005967959741838,2.928326816581075,15.004342867686185C12.942860942245641,8.002717775630536,10.675512859437514,-4.556913400907682,9.64122781195003,-4.275113325766505C8.606942764462543,-3.9933132506253273,8.805720752295699,9.129918076195246,2.1996039430423133,19.99368300906597C-4.406512866211073,30.857447941936694,-17.817524472551,39.46174648085757,-22.494493718376887,35.535542699685614C-27.17146296420277,31.609338918513657,-23.114389849514616,15.152632817248866,-20.684541510078688,5.415137743864481C-18.254693170642764,-4.322357329519907,-17.45206960645907,-7.340641375023889,-13.288034462808671,-8.051935659527022C-9.123999319158274,-8.763229944030154,-1.5985525960411708,-7.167534467532439,0.9843221353127009,-11.188791279895943C3.5671968666665723,-15.210048092259449,1.2074996062572128,-24.848257193484173,2.879962662888561,-23.540226480210197C4.552425719519908,-22.232195766936222,10.257049093191965,-9.977925239163545,12.386918765404092,-4.560033057200388C14.51678843761622,0.8578591247627687,13.071904408368422,-0.5606270390835946,15.972985681773583,3.9653821780417724C18.874066955178744,8.49139139516714,26.121113531236862,18.961895993264235,24.51107053332496,21.080713861615738C22.90102753541306,23.19953172996724,12.433894963531143,16.966662868573145,7.356920288881708,8.079703015000614C2.279945614232273,-0.8072568385719165,2.593128836815323,-12.348307684322883,5.072382174406311,-13.453955393107407C7.551635511997299,-14.55960310189193,12.196958964596226,-5.2298476737100135,14.997226663129322,-1.2623720340683626C17.79749436166242,2.705103605573288,18.75270630612969,1.3102994566746722,13.315859294710487,5.498074021606392C7.879012283291287,9.68584858653811,-3.9498936840143832,19.456201865300166,-5.705005211480067,24.7918134147333C-7.46011673894575,30.127424964166437,0.858566173428553,31.028294784270656,3.2332375672879405,28.64557562930235C5.607908961147328,26.262856474334047,2.0385688364918,20.596548344293222,0.6977506411855162,20.850978409391058C-0.6430675541207673,21.105408474488893,0.24463617992219389,27.28057673472539,-5.059777021203119,18.929705538206363C-10.364190222328432,10.57883434168734,-21.860720358622018,-12.298076311587208,-23.65825450004014,-18.40059716245293C-25.455788641458263,-24.503118013318648,-17.554326788000925,-13.831249061775544,-13.47542689280541,-4.348044105794667C-9.396526997609895,5.1351608501862085,-9.140189060676207,13.429701810604854,-9.342486816910471,6.31895173379227C-9.544784573144735,-0.7917983430203162,-10.205718022546954,-23.307839457064134,-12.11257228263985,-26.788571947548682C-14.019426542732745,-30.269304438033235,-17.17220161351632,-14.71472830495852,-22.134585152416236,-13.944248021796838C-27.096968691316146,-13.17376773863516,-33.8689606983324,-27.187383305386515,-30.389659879905558,-34.22657779979576C-26.910359061478722,-41.26577229420501,-13.179765417608799,-41.33054571627215,-5.631303024980116,-42.40900844298751C1.9171593676485679,-43.48747116970288,3.2834905090360094,-45.57962320106647,2.09900949829232,-36.58502741951244C0.9145284875486306,-27.590431637958424,-2.8207646753261897,-7.5090880434867895,-1.9368536738293538,-1.126036695791035C-1.0529426723325175,5.257014651904719,4.450172493535975,-2.058226247175405,11.376143620784386,-3.2576585240572853C18.3021147480328,-4.457090800939166,26.650941836661133,0.4592855443771984,30.825355380975296,2.91747371703538L34.999768925289466,5.375661889693562" />
  </g>
</svg>
