<?xml version="1.0" encoding="UTF-8" standalone="no"?>
<svg
   xmlns:dc="http://purl.org/dc/elements/1.1/"
   xmlns:cc="http://creativecommons.org/ns#"
   xmlns:rdf="http://www.w3.org/1999/02/22-rdf-syntax-ns#"
   xmlns:svg="http://www.w3.org/2000/svg"
   xmlns="http://www.w3.org/2000/svg"
   version="1.1"
   id="svg2"
   height="300"
   width="300"
   preserveAspectRatio="xMidYMid"
   viewBox="0 0 300 300">
  <metadata
     id="metadata27">
    <rdf:RDF>
      <cc:Work
         rdf:about="">
        <dc:format>image/svg+xml</dc:format>
        <dc:type
           rdf:resource="http://purl.org/dc/dcmitype/StillImage" />
      </cc:Work>
    </rdf:RDF>
  </metadata>
  <defs
     id="defs25" />
  <filter
     y="-50%"
     x="-50%"
     height="500"
     width="300"
     id="tkhek">
    <feFlood
       id="feFlood5"
       result="element"
       flood-color="#fd5240" />
    <feTurbulence
       id="feTurbulence7"
       result="element_1"
       seed="61"
       numOctaves="8"
       type="fractalNoise"
       baseFrequency="0.02" />
    <feGaussianBlur
       id="feGaussianBlur9"
       result="element_2"
       in="SourceAlpha"
       stdDeviation="4" />
    <feDisplacementMap
       id="feDisplacementMap11"
       result="element_3"
       in2="element_1"
       in="element_2"
       scale="100" />
    <feComposite
       id="feComposite13"
       result="element_4"
       in2="element_3"
       in="element"
       operator="in" />
    <feMerge
       id="feMerge15">
      <feMergeNode
         id="feMergeNode17"
         in="element_4" />
    </feMerge>
  </filter>
  <g
     id="g19"
     transform="translate(150,150) scale(1.5)">
    <path
       id="path21"
       style="filter: url(#tkhek); stroke: rgb(253, 82, 64);"
       d="M0,0L0.6993656033822987,4.558360321373841C1.3987312067645974,9.116720642747682,2.797462413529195,18.233441285495363,12.019680610416778,18.804663743847446C21.241898807304363,19.375886202199528,38.28760399431493,11.401610476156009,37.017114297285396,1.946934104965325C35.746624600255856,-7.5077422662253595,16.159940019186216,-18.44281928256321,6.298718175203332,-19.37832209799278C-3.5625036687795526,-20.313824913422348,-3.698262775675679,-11.24975352794363,-2.834655433575755,-12.852942572790333C-1.9710480914758308,-14.456131617637032,-0.10807430037985633,-26.726581092809152,2.6149590150207267,-27.288193718251303C5.33799233042131,-27.84980634369345,8.921085170126503,-16.702582119405637,12.162136993394673,-6.857923389183787C15.403188816662844,2.9867353410380657,18.302199623493994,11.528828577193952,14.301864906868108,10.568756329118916C10.301530190242216,9.608684081043878,-0.5981500498407115,-0.8535536512620858,-1.3627397843204259,-12.983060117972807C-2.12732951880014,-25.112566584683528,7.243171252323359,-38.90934178579901,16.728285452332027,-38.418684955306965C26.213399652340698,-37.928028124814915,35.813127281234536,-23.14993926271534,36.91056226933217,-24.353349065061487C38.0079972574298,-25.556758867407638,30.603139604731226,-42.74166733419951,23.05342244372444,-39.310839051576906C15.50370528271766,-35.8800107689543,7.80912861340267,-11.833445736917215,-0.6753105462599742,-3.7132164373628407C-9.159749705922618,4.407012862191533,-18.434051355932915,-3.3990935707368033,-9.597562003553254,-1.0530871718981345C-0.7610726511735884,1.2929192269405352,26.18620770359604,13.791038457546211,27.015767913604606,16.498419606408437C27.845328123613175,19.205800755270662,2.557168188860686,12.122443822389439,-0.1823623468712814,0.15570881478396092C-2.921892882603249,-11.811026192821519,16.887205980685305,-28.661139275151253,16.899829522846883,-30.988862321140246C16.912453065008464,-33.31658536712924,-2.8713987139569355,-21.1219183767775,-4.1120181111647085,-11.402917764918726C-5.3526375083724815,-1.6839171530599515,11.94997547617737,5.559417080305852,14.963292852589243,6.903188986205777C17.976610229001114,8.246960892105701,6.700631997275006,3.691170470539748,5.717911544298071,-2.5992897324511706C4.735191091321135,-8.88974993544209,14.045728417093372,-16.914879919857974,21.783309292931897,-14.72424373533411C29.520890168770425,-12.533607550810247,35.68551459467524,-0.12720519734663682,34.1763527192899,7.304861472148438C32.667190843904564,14.736928141643514,23.484242667229076,17.194659127170056,16.72780746744997,10.70591691844545C9.971372267670867,4.217174709720842,5.641450044788151,-11.21804069325491,3.8213549236773456,-14.576061798325838C2.0012598025665413,-17.934082903396767,2.6909917832276475,-9.214909710562871,0.24076166967576018,-2.0807094904914907C-2.209468443876127,5.05349072957989,-7.799660651641009,10.602717976888757,-7.0107488546738015,11.89142066910338C-6.221837057706594,13.180123361318007,0.9461787439927027,10.20830149843839,2.75647404664434,8.432881004614824C4.566769349295977,6.6574605107912594,1.0193441528999543,6.078441386023746,-3.6736394945553963,3.1669969452484326C-8.366623142010747,0.2555525044731195,-14.205165240525425,-4.988317252309993,-6.748684085405555,-8.642327842363239C0.7077970697143154,-12.296338432416485,21.459301478468735,-14.360489855739866,26.9632909004205,-15.260733932305612C32.46728032237227,-16.160978008871353,22.723754757521387,-15.897314738679464,6.789561577974858,-13.321798983961772C-9.144631601571671,-10.746283229244078,-31.26949239581385,-5.858914990000582,-38.18141181695897,0.6645301607768381C-45.0933312381041,7.187975311554259,-36.79230928615217,15.347497373865604,-28.49823104808148,22.590378677080018C-20.20415281001079,29.83325998029443,-11.917018285821337,36.15950052441191,-13.79747651048137,25.1994805608542C-15.677934735141406,14.23946059729649,-27.725985708650928,-14.006819873936404,-31.65918664783228,-13.819368011618481C-35.592387587013626,-13.631916149300558,-31.410738491866802,14.989268046568183,-29.31991394429339,29.299860144502553L-27.22908939671998,43.61045224243693" />
  </g>
</svg>
