<svg viewBox="0 0 300 300" preserveAspectRatio="xMidYMid" width="300" height="300"><filter id="eejux" width="300" height="500" x="-50%" y="-50%"><feFlood flood-color="#bab86c" result="element"></feFlood><feTurbulence baseFrequency="0.02" type="fractalNoise" numOctaves="8" seed="8" result="element_1"></feTurbulence><feGaussianBlur stdDeviation="4" in="SourceAlpha" result="element_2"></feGaussianBlur><feDisplacementMap scale="100" in="element_2" in2="element_1" result="element_3"></feDisplacementMap><feComposite operator="in" in="element" in2="element_3" result="element_4"></feComposite><feMerge><feMergeNode in="element_4"></feMergeNode></feMerge></filter><g transform="translate(150,150) scale(1.5)"><path d="M0,0L6.133711922244812,5.638732089231216C12.267423844489624,11.277464178462433,24.534847688979248,22.554928356924865,26.864869992509412,16.167558679826C29.194892296039576,9.780189002727136,21.587513058610284,-14.272014529933026,15.450024078898274,-19.35357374784359C9.312535099186263,-24.435132965754157,4.644936377191534,-10.546047868915124,8.880714465502537,-3.1290028391058518C13.116492553813538,4.288042190703422,26.25564745243027,5.2330471534829375,35.57716002807853,0.7956131653163085C44.898672603726794,-3.6418208228503204,50.40254285640658,-13.461693761963094,47.357698607703504,-10.259334543979731C44.31285435900043,-7.056975325996369,32.71929560891449,9.167616049083131,23.594766389698385,12.71129481865477C14.470237170482275,16.25497358822641,7.814737482135993,7.117739752290186,7.778000794370229,-1.3376682643171636C7.741264106604465,-9.793076280924513,14.323290419419218,-17.56665847820299,19.586954441590343,-17.156240434223417C24.850618463761467,-16.745822390243838,28.795920195288964,-8.151404105006211,18.76318064646327,-13.007213235548543C8.730441097637573,-17.863022366090874,-15.280339731541316,-36.16905891241316,-19.34214322530215,-31.087838544855842C-23.40394671906298,-26.006618177298524,-7.516772877405756,2.4618591041384015,-8.1258603145814,17.986638838473862C-8.734947751757044,33.51141857280932,-25.840296467765558,36.092500760043315,-35.76540325027951,31.791115817861524C-45.69051003279347,27.489730875679733,-48.435374881812855,16.305878804082155,-46.077907343985075,15.330842246732438C-43.72043980615729,14.35580568938272,-36.26063988148233,23.589584646280862,-27.593027455381545,22.45304259081364C-18.925415029280767,21.316500535346425,-9.049990101754167,9.809637467513848,1.2606472500066532,6.825431246076169C11.571284601767475,3.8412250246384887,22.317134377762518,9.379675649595706,20.071814573488325,7.662954768041853C17.82649476921413,5.9462338864880016,2.5900053846707003,-3.0256585015769186,-7.737476223517559,3.670537844159588C-18.06495783170582,10.366734189896095,-23.48343166353891,32.73101926943403,-28.19757281277039,36.49458350338676C-32.91171396200187,40.25814773733949,-36.92152242863175,25.420991125707026,-38.62678511040109,16.293612887460043C-40.33204779217043,7.16623464921306,-39.73276468907923,3.748634784351564,-32.63957972876556,1.0707222122315057C-25.546394768451886,-1.6071903598885529,-11.95930795091574,-3.5454156392671745,-6.883328259168806,-8.845222813413429C-1.807348567421872,-14.145029987559681,-5.2424760014641505,-22.80641905647357,-4.862426052521853,-22.620738677875956C-4.482376103579554,-22.435058299278346,-0.2871487716526784,-13.402308473169237,-0.6436849834549414,-8.046683650056444C-1.0002211952572044,-2.6910588269436504,-5.908520950788606,-1.0125590068271717,-2.286722868543513,3.5535388265909638C1.3350752137015807,8.1196366600091,13.48697113372317,15.573332506728892,11.21426824916345,23.86123636208802C8.94156536460373,32.149140217447155,-7.755736324537299,41.271252081445624,-13.627813828498402,34.53779444932596C-19.499891332459505,27.8043368172063,-14.546744651240681,5.215309688968505,-1.5465348645552979,1.5141036533146206C11.453674922130086,-2.1871023823392637,32.50094781428203,12.999512674590761,39.50092127048446,14.028186855022728C46.500894726686894,15.056861035454695,39.45356874693982,1.9275943393886035,21.222557567675178,0.9093665797198502C2.9915463884105336,-0.10886117994890299,-26.42314999037168,10.983949996779682,-29.427523964738256,5.182532647187918C-32.43189793910483,-0.6188847024038466,-9.025949509055762,-23.31453057831596,-0.34979724180305305,-19.988770235198025C8.326355025449656,-16.66300989208009,2.272711129906007,12.684156670067889,-7.4012303280276495,20.311988192884332C-17.075171785961306,27.939819715700768,-30.36941080628497,13.848316199185671,-34.52906529101432,15.301954396962014C-38.688719775743664,16.75559259473836,-33.713789724878694,33.75437250680615,-25.153436706001006,24.04441066893091C-16.593083687123308,14.334448831055681,-4.447307700232889,-22.084254756762572,1.625580293212321,-40.2936065506717L7.698468286657532,-58.50295834458083" style="filter: url(#eejux); stroke: rgb(186, 184, 108);"></path></g></svg>