<?xml version="1.0" encoding="UTF-8" standalone="no"?>
<svg
   xmlns:dc="http://purl.org/dc/elements/1.1/"
   xmlns:cc="http://creativecommons.org/ns#"
   xmlns:rdf="http://www.w3.org/1999/02/22-rdf-syntax-ns#"
   xmlns:svg="http://www.w3.org/2000/svg"
   xmlns="http://www.w3.org/2000/svg"
   version="1.1"
   id="svg2"
   height="300"
   width="300"
   preserveAspectRatio="xMidYMid"
   viewBox="0 0 300 300">
  <metadata
     id="metadata27">
    <rdf:RDF>
      <cc:Work
         rdf:about="">
        <dc:format>image/svg+xml</dc:format>
        <dc:type
           rdf:resource="http://purl.org/dc/dcmitype/StillImage" />
      </cc:Work>
    </rdf:RDF>
  </metadata>
  <defs
     id="defs25" />
  <filter
     y="-50%"
     x="-50%"
     height="500"
     width="300"
     id="aaidy">
    <feFlood
       id="feFlood5"
       result="element"
       flood-color="#353839" />
    <feTurbulence
       id="feTurbulence7"
       result="element_1"
       seed="85"
       numOctaves="8"
       type="fractalNoise"
       baseFrequency="0.02" />
    <feGaussianBlur
       id="feGaussianBlur9"
       result="element_2"
       in="SourceAlpha"
       stdDeviation="5" />
    <feDisplacementMap
       id="feDisplacementMap11"
       result="element_3"
       in2="element_1"
       in="element_2"
       scale="100" />
    <feComposite
       id="feComposite13"
       result="element_4"
       in2="element_3"
       in="element"
       operator="in" />
    <feMerge
       id="feMerge15">
      <feMergeNode
         id="feMergeNode17"
         in="element_4" />
    </feMerge>
  </filter>
  <g
     id="g19"
     transform="translate(150,150) scale(1.5)">
    <path
       id="path21"
       style="filter: url(#aaidy); stroke: rgb(53, 56, 57);"
       d="M0,0L1.16113717076048,6.221352641790084C2.32227434152096,12.442705283580167,4.64454868304192,24.885410567160335,6.0559163908152,27.26181617116486C7.467284098588479,29.638221775169384,7.967745172614078,21.94832769959827,10.628185965661732,11.347215470898565C13.288626758709386,0.7461032421988598,18.109047270779094,-12.766227139629434,13.266602268298627,-22.35677194678574C8.424157265818163,-31.94731675394205,-6.081153251212476,-37.616075986426374,-7.254972009294014,-35.65145808877174C-8.42879076737555,-33.686840191117106,3.7288822334920138,-24.088845163323512,2.224617892655764,-13.94581164567583C0.7203535518195139,-3.80277812802815,-14.44584813072055,6.885293879473617,-15.815919106174288,16.012874708693147C-17.185990081628027,25.140455537912676,-4.759930349995438,32.70754518884996,-0.25750440721760426,27.029721655285936C4.244921535560229,21.351898121721902,0.8237136894833075,2.4291614036565505,6.23382297377683,-0.23767543164599125C11.643932258070354,-2.904512266948533,25.88535867273432,10.684550780511737,29.334463359559415,10.557390674357425C32.7835680463845,10.430230568203116,25.440351005370722,-3.4131526915657737,19.654753006892278,-11.280231641917817C13.86915500841384,-19.14731059226986,9.64117605247074,-21.03808523320506,10.7260610141633,-17.50129262673478C11.810945975855857,-13.964500020264502,18.20869485518407,-5.000140166388748,16.666347062183796,-3.4534043851697995C15.12399926918352,-1.906668603950851,5.641554803854753,-7.777556895388708,2.8763066972303877,-9.392745565452824C0.11105859060602308,-11.007934235516938,4.063006842686061,-8.367423284207309,-1.593066652051097,-4.83941643035183C-7.249140146788255,-1.3114095764963491,-22.513235388342608,3.1040931799049836,-15.011423461371338,2.789481412447196C-7.509611534400069,2.4748696449894085,22.758107561096825,-2.569856646327499,37.76046656205992,-1.900455823140192C52.762825563023,-1.2310549999528844,52.49982446945228,5.152472937738638,40.2200186793312,3.183584572157958C27.940212889210112,1.214696206577278,3.6436024025386597,-9.106608462275606,0.37580925992975533,-3.380302905417431C-2.891983882679149,2.3460026514407435,14.869040318774495,24.119918434009975,14.613253997136965,21.205390826020732C14.357467675499437,18.29086321803149,-3.915129169229262,-9.312107780516227,-15.700070423903217,-13.574786729126405C-27.485011678577173,-17.83746567773658,-32.78229734319638,1.2401474235907841,-28.319566038267283,8.282758641146163C-23.856834733338182,15.325369858701542,-9.634086458860775,10.332979192484935,-0.33238000582647365,1.5427140952328156C8.969326447207827,-7.247551002019305,13.349991078799022,-19.835690530306938,12.743668824806301,-18.2697277124032C12.13734657081358,-16.703764894499457,6.544037431236948,-0.9836997304043411,7.361192546790162,13.45878047924288C8.178347662343377,27.901260688890098,15.405967033026439,41.066155944089424,16.64912424632382,32.756840236588744C17.8922814596212,24.447524529088053,13.150976515532893,-5.336002141112644,8.3063297427858,-18.33714255715023C3.4616829700387117,-31.338282973187816,-1.4863056313671645,-27.557037135062295,-10.207213505425367,-12.762472105684889C-18.92812137948357,2.0320929236925203,-31.4219485261941,27.839977144321814,-36.2913158398707,36.757576349989C-41.1606831535473,45.67517555565618,-38.40559063418998,37.702489746361266,-27.94722801430737,35.36094615032367C-17.488865394424767,33.019402554286074,0.67276732598312,36.3090011715058,8.227092959765091,40.11940834082843C15.781418593547064,43.92981551015106,12.728437140703122,48.261031231576595,2.2078309378359373,49.14822715208326C-8.312775265031247,50.03542307258992,-26.301006217921675,47.47859919217771,-31.299784131894214,33.91643927098655C-36.29856204586675,20.3542793497954,-28.307886920921412,-4.213216612174694,-20.87424812240089,-9.640852002264527C-13.44060932388037,-15.06848739235436,-6.564006851784674,-1.3562622105639282,0.28198033209819195,3.272653449099312C7.127967515981057,7.901569108762552,13.943339411651092,3.447175246298601,17.35102535948611,1.2199783150666257L20.75871130732113,-1.0072186161653498" />
  </g>
</svg>
