<svg viewBox="0 0 300 300" preserveAspectRatio="xMidYMid" width="300" height="300"><filter id="lrout" width="300" height="500" x="-50%" y="-50%"><feFlood flood-color="#ff7538" result="element"></feFlood><feTurbulence baseFrequency="0.02" type="fractalNoise" numOctaves="8" seed="1" result="element_1"></feTurbulence><feGaussianBlur stdDeviation="4" in="SourceAlpha" result="element_2"></feGaussianBlur><feDisplacementMap scale="100" in="element_2" in2="element_1" result="element_3"></feDisplacementMap><feComposite operator="in" in="element" in2="element_3" result="element_4"></feComposite><feMerge><feMergeNode in="element_4"></feMergeNode></feMerge></filter><g transform="translate(150,150) scale(1.5)"><path d="M0,0L0.7877504538980562,2.6272530790547046C1.5755009077961124,5.254506158109409,3.151001815592225,10.509012316218818,7.52788827254039,10.80272146113248C11.904774729488555,11.096430606046141,19.083046735588773,6.429342737764056,19.646082872530375,-1.4378222542056025C20.209119009471976,-9.30498724617526,14.15691927725496,-20.372229361832492,15.036246694916567,-18.913666823317524C15.915574112578174,-17.45510428480256,23.7264286801184,-3.470737092115395,24.475612936005763,-0.5072670009670297C25.22479719189313,2.4562030901813356,18.912311136127634,-5.601223920209097,18.646566426074465,-14.41345382919054C18.380821716021295,-23.225683738171988,24.161818351680452,-32.79271654574444,26.973024172611403,-27.524265897839637C29.784229993542358,-22.25581524993483,29.625644999745102,-2.1518811465527623,17.594652161387184,3.749252688322755C5.56365932302927,9.650386523198272,-18.339741359889306,1.348720089567239,-20.113583245457242,-1.1861738536777708C-21.887425131025182,-3.721067796922781,-1.5317082192424802,-0.4891892497817669,1.9071922548135625,1.3923474382245378C5.346092728869605,3.2738841262308425,-8.131823234801011,3.805078955102438,-14.079047929704018,-0.302097616641571C-20.026272624607024,-4.40927418838558,-18.44280605074242,-13.154822160745194,-14.553361743596449,-18.59411862134679C-10.663917436450477,-24.033415081948384,-4.46849539602314,-26.166460030791963,-11.518190699559,-21.219292576576017C-18.56788600309486,-16.272125122360073,-38.86269865059392,-4.244745265084603,-46.21663900990683,-1.9687683541176741C-53.570579369219736,0.30720855684925485,-47.983647440346495,-7.168217478492356,-38.806227115832186,-7.7884257334130105C-29.628806791317867,-8.408633988333662,-16.86089807116248,-2.1736244628333585,-10.785604483950735,0.38946365465667776C-4.7103108967389895,2.9525517721467143,-5.327632442470887,1.8437184816264822,-4.777956872698924,-4.843120089513843C-4.228281302926962,-11.529958660654168,-2.511608617651139,-23.794802512414588,-4.3734672034059585,-30.188750928459694C-6.235325789160778,-36.5826993445048,-11.675715645946239,-37.1057523248346,-4.580834771746453,-26.86110539895303C2.5140461024533334,-16.61645847307146,22.14419770763837,4.395888359021468,32.16518381874733,9.479876482070283C42.18616992985629,14.563864605119097,42.59799054688917,3.719494019123796,29.280504506497337,-0.07533527653222938C15.9630184661055,-3.870164572188255,-11.083774231711054,-0.615452577505005,-20.0465516474705,-3.2351042894858058C-29.009329063229945,-5.8547560014666065,-19.888091196932283,-14.348771420111458,-17.994248683786743,-13.978961114815974C-16.100406170641204,-13.609150809520486,-21.43395901064779,-4.375514780284663,-23.247306388977687,2.2537394903651777C-25.06065376730758,8.882993761015019,-23.35379568396079,12.907866273078875,-25.034653271451866,12.19581148641709C-26.71551085894295,11.48375669975531,-31.7840841172719,6.034774614367886,-32.87581850045172,-0.052089320116685656C-33.96755288363154,-6.138953254601257,-31.082448391662233,-12.863699038182977,-25.60586637180109,-13.330965669146693C-20.129284351939944,-13.798232300110406,-12.061224804186963,-8.008019778456113,-6.829769933881353,4.702264896928212C-1.5983150635757437,17.412549572312535,0.7965351292824949,37.0429064014269,9.698646628078746,34.55339746912297C18.600758126874997,32.06388853681905,34.01013093160926,7.454513843096841,28.542112025788683,-2.2131682494964116C23.074093119968108,-11.880850342089664,-3.2713174964073097,-6.606839833553963,-13.702039120155707,0.5917091115996382C-24.132760743904107,7.790258056753238,-18.648793375025484,16.91334543852474,-14.801023498243474,13.650033951422209C-10.953253621461464,10.386722464319684,-8.741681236776063,-5.26298789165687,0.7479572534341523,-1.540228700559794C10.237595743644368,2.1825304905372818,27.0053003393794,25.277759228707986,28.75419818574791,22.569392382533493C30.50309603211642,19.861025536359005,17.233187129118406,-8.650936894160683,12.932240476678903,-16.117520301182807C8.631293824239402,-23.584103708204925,13.299309422358409,-10.005308091729482,15.633317221417913,-3.215910283491759L17.967325020477418,3.573487524745964" style="filter: url(#lrout); stroke: rgb(255, 117, 56);"></path></g></svg>