<?xml version="1.0" encoding="UTF-8" standalone="no"?>
<svg
   xmlns:dc="http://purl.org/dc/elements/1.1/"
   xmlns:cc="http://creativecommons.org/ns#"
   xmlns:rdf="http://www.w3.org/1999/02/22-rdf-syntax-ns#"
   xmlns:svg="http://www.w3.org/2000/svg"
   xmlns="http://www.w3.org/2000/svg"
   version="1.1"
   id="svg2"
   height="300"
   width="300"
   preserveAspectRatio="xMidYMid"
   viewBox="0 0 300 300">
  <metadata
     id="metadata27">
    <rdf:RDF>
      <cc:Work
         rdf:about="">
        <dc:format>image/svg+xml</dc:format>
        <dc:type
           rdf:resource="http://purl.org/dc/dcmitype/StillImage" />
      </cc:Work>
    </rdf:RDF>
  </metadata>
  <defs
     id="defs25" />
  <filter
     y="-50%"
     x="-50%"
     height="500"
     width="300"
     id="zedxe">
    <feFlood
       id="feFlood5"
       result="element"
       flood-color="#ff2b2b" />
    <feTurbulence
       id="feTurbulence7"
       result="element_1"
       seed="13"
       numOctaves="8"
       type="fractalNoise"
       baseFrequency="0.02" />
    <feGaussianBlur
       id="feGaussianBlur9"
       result="element_2"
       in="SourceAlpha"
       stdDeviation="5" />
    <feDisplacementMap
       id="feDisplacementMap11"
       result="element_3"
       in2="element_1"
       in="element_2"
       scale="100" />
    <feComposite
       id="feComposite13"
       result="element_4"
       in2="element_3"
       in="element"
       operator="in" />
    <feMerge
       id="feMerge15">
      <feMergeNode
         id="feMergeNode17"
         in="element_4" />
    </feMerge>
  </filter>
  <g
     id="g19"
     transform="translate(150,150) scale(1.5)">
    <path
       id="path21"
       style="filter: url(#zedxe); stroke: rgb(255, 43, 43);"
       d="M0,0L3.762529013896346,1.5097009850710637C7.525058027792692,3.0194019701421273,15.050116055585384,6.038803940284255,18.971273812521993,11.656978578603946C22.8924315694586,17.275153216923638,23.20968905553913,25.49210052342089,27.67155307046974,23.947885596817006C32.13341708540036,22.403670670213124,40.73988762918106,11.0982935105081,37.71154283805531,6.982897160058183C34.683198046929554,2.8675008096082646,20.020037920897337,5.942085268413452,2.8189169741404463,6.959119848025241C-14.382203972616448,7.97615442763703,-34.12128574009802,6.935639128055422,-35.53307602094098,4.023979171539717C-36.944866301783954,1.1123192150240127,-20.029365095988318,-3.6704853984257886,-15.365926329062212,-7.680501397915917C-10.702487562136108,-11.690517397406044,-18.291111234079533,-14.9277447829365,-24.581474738811444,-16.545697988209085C-30.87183824354336,-18.16365119348167,-35.863941581063756,-18.16233021849638,-23.62621232728343,-14.092944890487436C-11.388483073503101,-10.023559562478495,18.079078771577954,-1.886109881445896,30.794908802793287,1.8277287903353607C43.51073883400863,5.5415674621166175,39.47483705135824,4.831795124646534,33.282036008133396,6.4059557651048555C27.089234964908552,7.980116405563177,18.73953466110924,11.838210023949905,16.369089890914896,15.984289276213335C13.998645120720553,20.130368528476765,17.607455884131177,24.5644334146169,20.973139135757457,21.348678353538215C24.33882238738374,18.13292329245953,27.46137812722568,7.267348284162029,23.66391546958577,2.833508123477488C19.866452811945866,-1.6003320372070537,9.14897175682411,0.39756264972136446,-2.491374492284373,-1.6505747317737338C-14.131720741392856,-3.698712113268832,-26.694932184488067,-9.792881563187446,-31.05881261614526,-9.851552361955937C-35.422693047802454,-9.910223160724428,-31.58724246802162,-3.933395308342793,-24.95547136591832,-4.0315911298739024C-18.323700263815017,-4.129786951405012,-8.895608639389238,-10.303006446848865,0.794186383775207,-11.757663958627585C10.483981406939652,-13.212321470406305,20.435479828842762,-9.94841699851989,28.46496002120502,-6.087438406120583C36.49444021356728,-2.2264598137212763,42.60190217638869,2.2315928991909244,40.553196968913916,4.709998370220126C38.50449176143915,7.188403841249328,28.299619383668194,7.687162070395531,24.74656550829085,6.567439820222593C21.19351163291351,5.4477175700496545,24.29227625992977,2.709514840557575,27.292580114444483,2.3078386841346226C30.29288396895919,1.9061625277116703,33.19472705097235,3.8410129443578453,22.055534394279817,-3.526095587066706C10.916341737587288,-10.893204118491258,-14.263886657810929,-27.562271597986534,-20.23386988741052,-24.54311932731237C-26.203853117010112,-21.5239670566382,-12.963591180811083,1.183404964205419,-5.83103941296603,8.58378477571291C1.3015123548790233,15.984164587220402,2.326353954370097,8.077552189391769,9.61025426017359,4.763155892782226C16.894154565977082,1.4487595961726856,30.437113578092998,2.7265794007822364,29.70267799039367,1.884798370830139C28.968242402694344,1.043017340878041,13.956412215179775,-1.9183645236357054,6.727764786948181,5.958943773259891C-0.5008826412834122,13.836252070155489,0.05365268976796839,32.552250528460426,-2.0177893059046395,37.557851237296035C-4.089231301577247,42.56345194613165,-8.786650623973843,33.85865490549793,-9.803138982764835,25.408799152849678C-10.819627341555828,16.95894340020143,-8.155184736741218,8.764028935538647,-9.023470109628382,7.048084363248975C-9.891755482515547,5.332139790959303,-14.292768833104487,10.095165111042744,-18.260897154390165,12.683199528731048C-22.229025475675844,15.271233946419354,-25.76426876765826,15.684277461712522,-27.85307598339015,14.052742184653479C-29.94188319912204,12.421206907594435,-30.5842543386034,8.745092838183181,-24.8606421341366,8.695442197012113C-19.137029929669804,8.645791555841045,-7.047434381254849,12.222604342910165,4.580976829404855,17.236464657283513C16.20938804006456,22.25032497165686,27.37661491296901,28.70123281333443,32.960228349421236,31.926686734173217L38.54384178587346,35.152140655012005" />
  </g>
</svg>
