<?xml version="1.0" encoding="UTF-8" standalone="no"?>
<svg
   xmlns:dc="http://purl.org/dc/elements/1.1/"
   xmlns:cc="http://creativecommons.org/ns#"
   xmlns:rdf="http://www.w3.org/1999/02/22-rdf-syntax-ns#"
   xmlns:svg="http://www.w3.org/2000/svg"
   xmlns="http://www.w3.org/2000/svg"
   version="1.1"
   id="svg2"
   height="300"
   width="300"
   preserveAspectRatio="xMidYMid"
   viewBox="0 0 300 300">
  <metadata
     id="metadata27">
    <rdf:RDF>
      <cc:Work
         rdf:about="">
        <dc:format>image/svg+xml</dc:format>
        <dc:type
           rdf:resource="http://purl.org/dc/dcmitype/StillImage" />
      </cc:Work>
    </rdf:RDF>
  </metadata>
  <defs
     id="defs25" />
  <filter
     y="-50%"
     x="-50%"
     height="500"
     width="300"
     id="suqxk">
    <feFlood
       id="feFlood5"
       result="element"
       flood-color="#f8d568" />
    <feTurbulence
       id="feTurbulence7"
       result="element_1"
       seed="86"
       numOctaves="8"
       type="fractalNoise"
       baseFrequency="0.02" />
    <feGaussianBlur
       id="feGaussianBlur9"
       result="element_2"
       in="SourceAlpha"
       stdDeviation="5" />
    <feDisplacementMap
       id="feDisplacementMap11"
       result="element_3"
       in2="element_1"
       in="element_2"
       scale="100" />
    <feComposite
       id="feComposite13"
       result="element_4"
       in2="element_3"
       in="element"
       operator="in" />
    <feMerge
       id="feMerge15">
      <feMergeNode
         id="feMergeNode17"
         in="element_4" />
    </feMerge>
  </filter>
  <g
     id="g19"
     transform="translate(150,150) scale(1.5)">
    <path
       id="path21"
       style="filter: url(#suqxk); stroke: rgb(248, 213, 104);"
       d="M0,0L3.671336955341193,6.546862160553049C7.342673910682386,13.093724321106098,14.685347821364772,26.187448642212196,22.1510823632267,28.830072443899244C29.61681690508863,31.47269624558629,37.2056120781301,23.664219527854293,31.13466250280057,20.539984057378156C25.06371292747103,17.415748586902023,5.333018603770483,18.975754363681755,-9.798196379384517,18.44244170936463C-24.92941136253952,17.9091290550475,-35.46114700514897,15.282497969633514,-39.67920054656619,8.976940275152407C-43.897254087983406,2.671382580671297,-41.801625528208376,-7.313101722876932,-33.50728917759871,-10.889900657729221C-25.212952826989042,-14.46669959258151,-10.71990868554473,-11.635813158737859,-2.961586894818598,-8.131085285277766C4.7967348959075355,-4.626357411817674,5.820334335915492,-0.4477880987411389,6.515297395075505,7.743951249999981C7.2102604542355175,15.9356905987411,7.576587132547588,28.140599983146803,7.628265183387427,30.067539138231226C7.679943234227264,31.99447829331565,7.41697265759487,23.643447219078794,7.0912179120540735,18.064047982454333C6.765463166513276,12.484648745829869,6.376924252064076,9.6768813468178,8.797378481717157,12.231018539384307C11.217832711370237,14.785155731950814,16.4472800851256,22.7011975160959,23.46516559143481,27.323965899939168C30.483051097744024,31.94673428378243,39.28937473660709,33.27622926732387,26.204241306140148,29.609763932976826C13.119107875673205,25.94329859862977,-21.857482624123747,17.280872946394222,-21.934208742001914,15.26234055682291C-22.01093485988008,13.243808167251593,12.812203404160542,17.869169040344513,28.825185178960922,22.155600084803627C44.8381669537613,26.442031129262737,42.04099223932144,30.389532345088046,32.42195140675076,26.66810631509321C22.80291057418006,22.94668028509837,6.362003623478542,11.556327009283391,-0.07682736895105857,9.641924352504045C-6.515658361380659,7.727521695724698,-2.952413395538341,15.289069657980985,-3.4319302657258177,22.18100625198304C-3.9114471359132947,29.072942845985096,-8.433725842130567,35.29526807173292,-1.6673555224468233,33.087752689349166C5.09901479723692,30.88023730696541,23.15403414282168,20.24288131645008,25.105314408633625,14.631162482822186C27.056594674445567,9.019443649194292,12.904135860484697,8.433361972453836,0.9649447011070347,9.488074589285352C-10.974246458270628,10.542787206116868,-20.700169963065086,13.238294116520356,-21.04286233239212,11.310184852027783C-21.385554701719148,9.382075587535212,-12.345015935578754,2.830350148146578,-7.560843214689001,2.6422873570066723C-2.776670493799247,2.4542245658667667,-2.2488638181601335,8.629824422975588,5.11654187809387,3.7228873715738198C12.481947574347874,-1.1840496798279485,26.684952291216767,-17.17352363974031,23.756007458062292,-22.051342091926998C20.827062624907818,-26.92916054411369,0.7661682417299716,-20.69532348857471,-0.36963629441431944,-20.20111956564635C-1.5054408305586104,-19.70691564271799,16.283844480330654,-24.95234485240025,19.974836680666503,-14.708168062409039C23.665828881002355,-4.463991272417829,13.258527970784794,21.26979151724685,6.318837367749168,23.53946332006351C-0.6208532352864564,25.80913512288017,-4.092933531140146,4.614695938848813,-7.149851790124703,-9.04808849652073C-10.206770049109263,-22.710872931890275,-12.848526271224689,-28.842002618598006,-3.9232668482176987,-28.957702444758592C5.001992574789293,-29.07340227091918,25.494267642918704,-23.17367223653262,35.51202577464236,-11.595703264948531C45.52978390636602,-0.017734293364439324,45.073025101683925,17.238473615417185,37.15706706568895,22.547350265440812C29.24110902969397,27.85622691546444,13.865951762386102,21.217772306730073,1.4253040630055764,7.602731165253433C-11.015343636374949,-6.012309976223207,-20.52148176782813,-26.60393765044212,-25.20872722061697,-28.80241779549923C-29.895972673405808,-31.000897940556342,-29.764325447530304,-14.80623055645165,-29.261586888414094,-12.957713453330038C-28.758848329297876,-11.109196350208428,-27.885018436940953,-23.6068295280699,-27.44810349076249,-29.85564611700063L-27.011188544584037,-36.10446270593137" />
  </g>
</svg>
