<?xml version="1.0" encoding="UTF-8" standalone="no"?>
<svg
   xmlns:dc="http://purl.org/dc/elements/1.1/"
   xmlns:cc="http://creativecommons.org/ns#"
   xmlns:rdf="http://www.w3.org/1999/02/22-rdf-syntax-ns#"
   xmlns:svg="http://www.w3.org/2000/svg"
   xmlns="http://www.w3.org/2000/svg"
   version="1.1"
   id="svg2"
   height="300"
   width="300"
   preserveAspectRatio="xMidYMid"
   viewBox="0 0 300 300">
  <metadata
     id="metadata27">
    <rdf:RDF>
      <cc:Work
         rdf:about="">
        <dc:format>image/svg+xml</dc:format>
        <dc:type
           rdf:resource="http://purl.org/dc/dcmitype/StillImage" />
      </cc:Work>
    </rdf:RDF>
  </metadata>
  <defs
     id="defs25" />
  <filter
     y="-50%"
     x="-50%"
     height="500"
     width="300"
     id="pvpvg">
    <feFlood
       id="feFlood5"
       result="element"
       flood-color="#e6a8d7" />
    <feTurbulence
       id="feTurbulence7"
       result="element_1"
       seed="64"
       numOctaves="8"
       type="fractalNoise"
       baseFrequency="0.02" />
    <feGaussianBlur
       id="feGaussianBlur9"
       result="element_2"
       in="SourceAlpha"
       stdDeviation="4" />
    <feDisplacementMap
       id="feDisplacementMap11"
       result="element_3"
       in2="element_1"
       in="element_2"
       scale="100" />
    <feComposite
       id="feComposite13"
       result="element_4"
       in2="element_3"
       in="element"
       operator="in" />
    <feMerge
       id="feMerge15">
      <feMergeNode
         id="feMergeNode17"
         in="element_4" />
    </feMerge>
  </filter>
  <g
     id="g19"
     transform="translate(150,150) scale(1.5)">
    <path
       id="path21"
       style="filter: url(#pvpvg); stroke: rgb(230, 168, 215);"
       d="M0,0L1.6094728177945108,3.3827450143843105C3.2189456355890216,6.765490028768621,6.437891271178043,13.530980057537242,11.00685810245821,18.97215390156181C15.575824933738375,24.41332774558638,21.494812960709687,28.5301854048669,27.993435274440213,23.601904624430006C34.49205758817074,18.673623843993113,41.570314188660475,4.700204623838812,32.57706292390891,-2.329600753651822C23.58381165915735,-9.359406131142457,-1.4809474708355168,-9.445597665969423,-14.109999155763937,1.1369955019182054C-26.739050840692357,11.719588669805834,-26.93239508055633,32.97096654040806,-23.933406064321623,34.729834144132646C-20.93441704808691,36.488701747857235,-14.743094775753521,18.755059084704193,-11.92276700077181,11.385940770379296C-9.1024392257901,4.0168224560544035,-9.653105948160068,7.012228490557656,-5.509424412568593,10.757082142391909C-1.3657428769771176,14.50193579422616,7.472286916575802,18.996237063391412,8.304013283337595,18.75860268774592C9.135739650099389,18.52096831210043,1.9611625900700562,13.551398291644196,-5.49874669273102,8.945105598321723C-12.958655975532096,4.33881290499925,-20.703897481104917,0.09579753881053676,-22.87803621620547,-3.7667158412165733C-25.05217495130602,-7.629229221243683,-21.65521091593431,-11.111240615109192,-13.973721006408633,-9.654375724179461C-6.292231096882956,-8.19751083324973,5.673784686796682,-1.801769657524762,9.806029363197744,7.5103394642979575C13.938274039598808,16.82244858612068,10.236747608721295,29.050925654041148,13.077856517497107,26.8144778565087C15.91896542627292,24.57803005897625,25.302709674702058,7.876657395990885,24.03366536182856,-3.3241371587250708C22.76462104895506,-14.524931713441028,10.842788174778931,-20.225148159887574,0.15942856249730397,-20.580896290664747C-10.523931049784322,-20.93664442144192,-19.968817400171446,-15.94792423654972,-13.071664804853688,-12.675791749700297C-6.1745122095359335,-9.403659262850871,17.0646793314867,-7.848114474044221,25.402309212235075,-6.023845788081053C33.73993909298345,-4.199577102117887,27.176007313457568,-2.106584518998204,20.5535532279804,-0.618108166120578C13.931099142503232,0.8703681867570482,7.2501227510747785,1.7543283093926179,2.7466576181373323,4.611517928885402C-1.7568075148001139,7.468707548378186,-4.082761389246553,12.299126664728185,-3.7039915510671184,9.459669602490411C-3.3252217128876844,6.620212540252638,-0.2417281620823768,-3.8891207005729083,1.786539669188329,-4.510325181640039C3.8148075004590347,-5.13152966270717,4.787849612195139,4.135394615984115,11.507217514916988,10.132756513080036C18.22658541763884,16.13011841017596,30.692279111346437,18.857917925676517,26.71620894724429,13.191405096192083C22.740138783142143,7.524892266707645,2.3223047612302494,-6.5359329077617865,-5.197658396247103,-5.437991175955835C-12.717621553724456,-4.340049444149882,-7.3397138467672685,11.916659193931455,-3.195949319190872,15.489098398229013C0.947815208385524,19.06153760252657,3.85743655658113,9.94970737304035,4.030667468406044,8.23385544243326C4.203898380230958,6.518003511826167,1.640738855685182,12.198129880098204,0.3101033888248961,5.6499748423578975C-1.02053207803539,-0.8981801953824089,-1.1186434872101851,-19.67461663913506,1.870258177246055,-25.955538231344995C4.859159841702295,-32.23645982355493,10.935074579789571,-26.02186656422215,7.129302519280671,-17.84781511860494C3.3235304587717707,-9.673763672987736,-10.363928400333306,0.4597459589138966,-6.894950601784185,-0.3459639902787406C-3.4259728032350623,-1.1516739394713778,17.199441652968257,-12.896603469758286,22.737465144290795,-8.391305028548095C28.27548863561333,-3.886006587337903,18.726121162055083,16.869519825369387,6.549508064851034,24.12373209071433C-5.627105032353015,31.377944356059274,-20.430963753202867,25.130842474041867,-23.40089496372586,21.623837592471205C-26.370826174248855,18.11683271090054,-17.506829874444996,17.34992482977662,-13.972306991237152,10.44239016248049C-10.437784108029312,3.5348554951843596,-12.23273464141749,-9.513305958283976,-13.130209908111578,-16.03738668501814L-14.027685174805669,-22.56146741175231" />
  </g>
</svg>
