<?xml version="1.0" encoding="UTF-8" standalone="no"?>
<svg
   xmlns:dc="http://purl.org/dc/elements/1.1/"
   xmlns:cc="http://creativecommons.org/ns#"
   xmlns:rdf="http://www.w3.org/1999/02/22-rdf-syntax-ns#"
   xmlns:svg="http://www.w3.org/2000/svg"
   xmlns="http://www.w3.org/2000/svg"
   version="1.1"
   id="svg2"
   height="300"
   width="300"
   preserveAspectRatio="xMidYMid"
   viewBox="0 0 300 300">
  <metadata
     id="metadata27">
    <rdf:RDF>
      <cc:Work
         rdf:about="">
        <dc:format>image/svg+xml</dc:format>
        <dc:type
           rdf:resource="http://purl.org/dc/dcmitype/StillImage" />
      </cc:Work>
    </rdf:RDF>
  </metadata>
  <defs
     id="defs25" />
  <filter
     y="-50%"
     x="-50%"
     height="500"
     width="300"
     id="ynxpe">
    <feFlood
       id="feFlood5"
       result="element"
       flood-color="#414a4c" />
    <feTurbulence
       id="feTurbulence7"
       result="element_1"
       seed="71"
       numOctaves="8"
       type="fractalNoise"
       baseFrequency="0.02" />
    <feGaussianBlur
       id="feGaussianBlur9"
       result="element_2"
       in="SourceAlpha"
       stdDeviation="4" />
    <feDisplacementMap
       id="feDisplacementMap11"
       result="element_3"
       in2="element_1"
       in="element_2"
       scale="100" />
    <feComposite
       id="feComposite13"
       result="element_4"
       in2="element_3"
       in="element"
       operator="in" />
    <feMerge
       id="feMerge15">
      <feMergeNode
         id="feMergeNode17"
         in="element_4" />
    </feMerge>
  </filter>
  <g
     id="g19"
     transform="translate(150,150) scale(1.5)">
    <path
       id="path21"
       style="filter: url(#ynxpe); stroke: rgb(65, 74, 76);"
       d="M0,0L0.04623847677610158,-4.658915710896229C0.09247695355220316,-9.317831421792459,0.18495390710440632,-18.635662843584917,5.30602034704669,-26.518768564189827C10.427086786988975,-34.401874284794744,20.57674271332134,-40.8502543042121,14.452690949164372,-36.102502833388044C8.328639185007408,-31.354751362563974,-14.06912026963889,-15.410868401498481,-15.020588271450745,-4.518100627226561C-15.972056273262593,6.3746671470453595,4.522767177760002,12.216319734523708,7.3236740078282745,10.839655126628497C10.124580837896547,9.462990518733283,-4.768428952989504,0.8680087154645086,-11.391542057067298,-0.9649415457137493C-18.01465516114509,-2.7978918068920073,-16.367871578414622,2.131189474020251,-13.18613550515221,0.3386624147443511C-10.004399431889798,-1.4538646445315493,-5.287710868095439,-9.968000043995609,-1.7877145899651463,-4.159592916782348C1.7122816881651461,1.6488142104309134,3.9955856806313714,21.779763864321495,4.572999215756956,25.240567887624774C5.1504127508825395,28.701371910928057,4.021935828667482,15.492030303644038,-0.8691200643547967,10.686547702132636C-5.760175957377076,5.881065100621235,-14.413810821206578,9.479441504882452,-6.963811044513478,7.43106514081789C0.48618873217962033,5.382688776753328,24.03982314939532,-2.31244035563701,18.626569954951258,-1.227782626896328C13.213316760507198,-0.1431248981556461,-21.166824045596627,9.721319691716056,-24.874650642846017,11.159602208839344C-28.582477240095407,12.597884725962627,-1.617989628490367,5.610005170337497,9.452543806994443,-4.298763584330425C20.523077242479253,-14.207532338998348,15.699656501843833,-27.03719029270906,11.488786542807599,-26.816698816331623C7.277916583771363,-26.59620733995418,3.6795974063343135,-13.325566433488587,-0.2497521772759268,-0.5513009331238488C-4.179101760886168,12.222964567240888,-8.439481750669598,24.50085466150477,-9.3972568436427,17.303505625576086C-10.3550319366158,10.106156589647409,-8.010202132778572,-16.566431576473835,-5.2959628134535235,-22.526760788215654C-2.5817234941284735,-28.487089999957465,0.5019253406843969,-13.735160257319853,3.5244847951544136,-2.302173296779144C6.54704424962443,9.130813663761563,9.508514323751593,17.244857842205366,2.0823096771952496,9.4367955531065C-5.343894969361095,1.6287332640076357,-23.157774336600944,-22.101435492633897,-25.249409518825743,-24.024105879331454C-27.341044701050542,-25.946776266029012,-13.710435698260284,-6.061948282782591,-7.2237984015436005,0.48176001538026014C-0.7371611048269167,7.0254683135431115,-1.3944955141838058,0.2280569266223953,-1.755907956476733,-0.23030248707178913C-2.1173203987696603,-0.6886619007659736,-2.1828108739986254,5.192030658766374,-8.839044769439898,-2.1446502730470574C-15.49527866488117,-9.481331204860489,-28.74225598053475,-30.035385628019696,-24.621662503745977,-28.474169564656844C-20.501069026957204,-26.91295350129399,0.9870952422739201,-3.236466951409078,8.434639479280415,10.543052936096199C15.88218371628691,24.322572823601476,9.289107921068776,28.205126048727116,7.816886742689376,32.068073316190684C6.344665564309976,35.93102058365425,9.993299002769309,39.774361893455755,12.790809669904373,35.07905970464494C15.58832033703944,30.383757515834123,17.534708232850235,17.14981182841099,9.208639521649538,14.135211271751073C0.8825708104488363,11.120610715091155,-17.715954507763364,18.325355289194455,-12.835164991601603,19.397483233693258C-7.954375475439843,20.46961117819206,20.405728875095875,15.409122493086372,23.740260733485876,9.20673660178637C27.07479259187588,3.0043507104863663,5.383751958120168,-4.3399323870079485,-0.1702365980810998,-4.374617213986619C-5.724225154282368,-4.409302040965291,4.858838367070808,2.8656114025716812,10.314518931766926,4.77859603092523C15.770199496463045,6.6915806592787765,16.098497104502105,3.2426364724489005,10.463051606840207,-2.515503999110742C4.827606109178308,-8.273644470670385,-6.7715824941845515,-16.340981226959794,-7.301852146294391,-16.438024256350275C-7.832121798404231,-16.535067285740762,2.7065275007389493,-8.66181658823232,7.97585215031054,-4.725191239478099L13.24517679988213,-0.7885658907238793" />
  </g>
</svg>
