<?xml version="1.0" encoding="UTF-8" standalone="no"?>
<svg
   xmlns:dc="http://purl.org/dc/elements/1.1/"
   xmlns:cc="http://creativecommons.org/ns#"
   xmlns:rdf="http://www.w3.org/1999/02/22-rdf-syntax-ns#"
   xmlns:svg="http://www.w3.org/2000/svg"
   xmlns="http://www.w3.org/2000/svg"
   version="1.1"
   id="svg2"
   height="300"
   width="300"
   preserveAspectRatio="xMidYMid"
   viewBox="0 0 300 300">
  <metadata
     id="metadata27">
    <rdf:RDF>
      <cc:Work
         rdf:about="">
        <dc:format>image/svg+xml</dc:format>
        <dc:type
           rdf:resource="http://purl.org/dc/dcmitype/StillImage" />
      </cc:Work>
    </rdf:RDF>
  </metadata>
  <defs
     id="defs25" />
  <filter
     y="-50%"
     x="-50%"
     height="500"
     width="300"
     id="zbifw">
    <feFlood
       id="feFlood5"
       result="element"
       flood-color="#ff6e4a" />
    <feTurbulence
       id="feTurbulence7"
       result="element_1"
       seed="90"
       numOctaves="8"
       type="fractalNoise"
       baseFrequency="0.02" />
    <feGaussianBlur
       id="feGaussianBlur9"
       result="element_2"
       in="SourceAlpha"
       stdDeviation="4" />
    <feDisplacementMap
       id="feDisplacementMap11"
       result="element_3"
       in2="element_1"
       in="element_2"
       scale="100" />
    <feComposite
       id="feComposite13"
       result="element_4"
       in2="element_3"
       in="element"
       operator="in" />
    <feMerge
       id="feMerge15">
      <feMergeNode
         id="feMergeNode17"
         in="element_4" />
    </feMerge>
  </filter>
  <g
     id="g19"
     transform="translate(150,150) scale(1.5)">
    <path
       id="path21"
       style="filter: url(#zbifw); stroke: rgb(255, 110, 74);"
       d="M0,0L2.9960864871184403,-1.2678531321518736C5.992172974236881,-2.535706264303747,11.984345948473761,-5.071412528607494,13.162916350784252,-5.513031202389256C14.341486753094742,-5.954649876171018,10.706454583478845,-4.302180959430796,4.48847644289067,-3.7713910427947503C-1.7295016976975024,-3.240601126158705,-10.530425809257949,-3.8314902096268373,-11.917563084546218,-9.159975437818398C-13.304700359834486,-14.488460666009958,-7.278050798850577,-24.554542038924946,1.0654387905036664,-17.920186286233314C9.40892837985791,-11.285830533541679,20.069257997582486,12.048962344756577,14.784085220937724,25.640432199244614C9.498912444292959,39.231902053732654,-11.731762726721147,43.08004888441047,-17.216331722018303,36.55749539860276C-22.700900717315452,30.034941912795052,-12.439363536895653,13.141688110501814,-4.349051575694879,5.32319893461026C3.7412603855058952,-2.495290241281294,9.660347127487643,-1.2390147907711622,6.303672819656995,-0.057521154422995324C2.9469985118263464,1.1239724819251713,-9.685436845816698,2.230684304111373,-5.298769291562339,5.580600033014836C-0.9121017373079798,8.9305157619183,20.493668728843783,14.523635397539024,21.29740306440473,10.328894233188471C22.10113739996568,6.13415306883792,2.302835604935815,-7.8484488954839104,-5.660076273715134,-15.851167798829643C-13.622988152366084,-23.853886702175377,-9.750510114638118,-25.87672254454501,-14.19399583276429,-24.521068737176883C-18.637481550890463,-23.165414929808758,-31.396931024870778,-18.431271472702868,-26.07705222358268,-10.976553991843033C-20.75717342229458,-3.5218365109831984,2.642033654261928,6.6534549936305805,12.403533087189395,2.5930259165445744C22.16503252011686,-1.4674031605414317,18.288824309415286,-19.763552819327224,16.78194816749157,-24.98715244094141C15.275072025567853,-30.2107520625556,16.137527952421998,-22.36180164699818,13.831241275264189,-15.372844582944769C11.524954598106383,-8.38388751889136,6.049925316936627,-2.2549238063419548,2.813098621051852,4.891477194371677C-0.4237280748329239,12.037878195085309,-1.4223521854327197,20.201716483963168,-2.0155629248234983,12.244342647991608C-2.6087736642142767,4.286968812020049,-2.796571032396038,-19.791617148800928,-7.944773696739215,-20.625846667306405C-13.092976361082393,-21.46007618581189,-23.201584321586985,0.9500507379981258,-14.983054392903576,0.8996500825464633C-6.764524464220164,0.8492494270948008,19.78114335365125,-21.66167880761854,29.886651220124755,-21.367480478910224C39.99215908659826,-21.07328215020191,33.65750700167385,2.0260427419280624,28.36349381711136,15.248221497951663C23.06948063254887,28.470400253975264,18.8161063483483,31.815432873892494,15.832350219864455,26.23068463889379C12.848594091380615,20.645936403895096,11.134456118613507,6.131407313980467,13.391049325981989,0.7253391546045084C15.647642533350469,-4.68072900477145,21.87496692085454,-0.9783362336087382,20.21337576009792,-4.293583638332347C18.551784599341307,-7.608831043055956,9.00127789032401,-17.941718623665885,2.5924061614811893,-16.083101835808122C-3.8164655673616306,-14.224485047950362,-7.083702316029971,-0.1743638916249104,-9.492419179979924,6.232894685380376C-11.901136043929878,12.640153262385663,-13.451333023161443,11.404549260070787,-9.260434203764394,4.407628388487324C-5.069535384367343,-2.5892924830961386,4.862459233658322,-15.347530223948187,7.119835656592241,-18.068361498661304C9.37721207952616,-20.789192773374417,3.9599703073683328,-13.4726175819486,-6.113312728014243,-5.996943985097869C-16.18659576339682,1.4787296117528594,-30.915920062004144,9.1135016140285,-27.874243336135734,16.302830129898474C-24.832566610267328,23.492158645768445,-4.019888859923192,30.23604367523275,8.704231366064374,32.769993653869236C21.42835159205194,35.30394363250572,26.063914293682927,33.62795856031438,23.398444051001714,31.27561682280471C20.732973808320494,28.92327508529504,10.766470621327072,25.894576682467033,0.12567870065198772,14.574461923577072C-10.515113220023094,3.254347164687111,-21.830193874379837,-16.3571839502648,-27.487734201558204,-26.162949507740755L-33.14527452873658,-35.96871506521671" />
  </g>
</svg>
