<?xml version="1.0" encoding="UTF-8" standalone="no"?>
<svg
   xmlns:dc="http://purl.org/dc/elements/1.1/"
   xmlns:cc="http://creativecommons.org/ns#"
   xmlns:rdf="http://www.w3.org/1999/02/22-rdf-syntax-ns#"
   xmlns:svg="http://www.w3.org/2000/svg"
   xmlns="http://www.w3.org/2000/svg"
   version="1.1"
   id="svg2"
   height="300"
   width="300"
   preserveAspectRatio="xMidYMid"
   viewBox="0 0 300 300">
  <metadata
     id="metadata27">
    <rdf:RDF>
      <cc:Work
         rdf:about="">
        <dc:format>image/svg+xml</dc:format>
        <dc:type
           rdf:resource="http://purl.org/dc/dcmitype/StillImage" />
      </cc:Work>
    </rdf:RDF>
  </metadata>
  <defs
     id="defs25" />
  <filter
     y="-50%"
     x="-50%"
     height="500"
     width="300"
     id="zwyms">
    <feFlood
       id="feFlood5"
       result="element"
       flood-color="#1ca9c9" />
    <feTurbulence
       id="feTurbulence7"
       result="element_1"
       seed="61"
       numOctaves="8"
       type="fractalNoise"
       baseFrequency="0.02" />
    <feGaussianBlur
       id="feGaussianBlur9"
       result="element_2"
       in="SourceAlpha"
       stdDeviation="4" />
    <feDisplacementMap
       id="feDisplacementMap11"
       result="element_3"
       in2="element_1"
       in="element_2"
       scale="100" />
    <feComposite
       id="feComposite13"
       result="element_4"
       in2="element_3"
       in="element"
       operator="in" />
    <feMerge
       id="feMerge15">
      <feMergeNode
         id="feMergeNode17"
         in="element_4" />
    </feMerge>
  </filter>
  <g
     id="g19"
     transform="translate(150,150) scale(1.5)">
    <path
       id="path21"
       style="filter: url(#zwyms); stroke: rgb(28, 169, 201);"
       d="M0,0L7.807839068324007,0.6859649002479197C15.615678136648015,1.3719298004958393,31.23135627329603,2.7438596009916787,33.46985699520731,1.6439612899574885C35.70835771711859,0.5440629789232982,24.569681024293132,-3.0276634436409218,19.12452413827185,-3.0740061870139934C13.679367252250564,-3.1203489303870646,13.927730173033455,0.3586920054310121,12.741342306098932,0.2559665910460718C11.55495443916441,0.15324117666113146,8.933815784512475,-3.531250587926826,3.499513712351333,-3.716459499795704C-1.9347883598098097,-3.9016684116645823,-10.182253849480162,-0.5875944708143814,-5.903211156325474,4.856965578155375C-1.6241684631707862,10.30152562712513,15.181382412808942,17.87657178421444,14.620973400584482,17.486917183370657C14.06056438836002,17.09726258252687,-3.865804512068628,8.742907223749992,-11.484830329928108,3.09272397424799C-19.10385614778759,-2.5574592752540117,-16.415538883077904,-5.503470415481134,-14.65873319092583,-8.566030716081801C-12.901927498773754,-11.628591016682467,-12.07663337917929,-14.80770047765668,-5.324070095410688,-19.692427912193263C1.428493188357912,-24.577155346729846,14.10832563630065,-31.167500754828804,15.142818242321605,-30.226384013524555C16.17731084834256,-29.285267272220302,5.566463612441733,-20.812688381512842,5.806920817778882,-14.413299634842037C6.047378023116031,-8.013910888171228,17.139139669691158,-3.6877122855370734,19.46547899314599,-0.22957879584741847C21.79181831660083,3.228554693842236,15.35273531693537,5.81862307058739,3.6759801215685446,5.962364965399301C-8.00077507379828,6.106106860211211,-24.91520246486647,3.803522273089879,-23.907476677092042,2.2851120558163047C-22.89975088931761,0.7667018385427306,-3.9698719227005554,0.03246599111691434,-1.4526136176604592,5.190617321296867C1.0646446873796371,10.34876865147682,-12.830717669157226,21.39930715926254,-15.333181140144218,22.328835914180345C-17.83564461113121,23.258364669098146,-8.945209196568337,14.066883671148027,-6.808326272677105,1.6553012861499123C-4.671443348785872,-10.756281098848202,-9.288112915566282,-26.387964870894308,-8.039498006849229,-35.05007870526146C-6.790883098132178,-43.71219253962862,0.32301628608233557,-45.404736436316824,3.0690755334676503,-46.64960021336708C5.815134780852965,-47.89446399041734,4.193353891409082,-48.69164764782966,10.822656842777373,-40.78789014074082C17.451959794145665,-32.88413263365197,32.33234658632613,-16.27943396206196,29.694442581949165,-7.5388332436159375C27.056538577572205,1.2017674748300857,6.900343776637811,2.078270240132123,-9.395571679050185,-4.485984124971341C-25.691487134738182,-11.050238490074804,-38.12712324517979,-25.05524998558377,-34.033597120508375,-26.839598082698316C-29.94007099583696,-28.623946179812865,-9.317382636052539,-18.187630878532993,-2.6981789029793393,-10.075289420675263C3.9210248300938595,-1.9629479628175317,-3.463256063544168,3.825419651618061,-4.031581379907463,3.476481421876988C-4.599906696270756,3.127543192135914,1.6477235646406827,-3.3587008817818256,8.847257636329825,1.796078970899055C16.046791708018965,6.950858823579936,24.198229590485813,23.746662602859438,23.512257095405253,25.04035644968744C22.826284600324698,26.334050296515446,13.30290172769674,12.12563421089195,-1.194194123822168,3.687656846331868C-15.691289975341077,-4.750320518228216,-35.16209880575094,-7.41785916172489,-37.03350201382945,-12.956048706574919C-38.90490522190797,-18.494238251424946,-23.176902807655132,-26.90307869762833,-15.922193681182167,-20.00301796645637C-8.667484554709203,-13.102957235284407,-9.886068716016103,9.106004673262898,-7.474119481209537,12.265949682526138C-5.06217024640297,15.425894691789376,0.9803123845170627,-0.46317719823145254,3.045697974898891,-3.625133149600856C5.111083565280719,-6.78708910097026,3.1993721151243424,2.7780708863117614,2.2225853269919704,0.35171760575138933C1.2457985388595985,-2.0746356748089827,1.2039364127512313,-16.492502223211748,-4.1570125818029275,-9.990456285259755C-9.517961576357086,-3.488410347307763,-20.197997439357035,23.93354807699899,-25.53801537085701,37.644527289152364L-30.87803330235699,51.35550650130574" />
  </g>
</svg>
