<?xml version="1.0" encoding="UTF-8" standalone="no"?>
<svg
   xmlns:dc="http://purl.org/dc/elements/1.1/"
   xmlns:cc="http://creativecommons.org/ns#"
   xmlns:rdf="http://www.w3.org/1999/02/22-rdf-syntax-ns#"
   xmlns:svg="http://www.w3.org/2000/svg"
   xmlns="http://www.w3.org/2000/svg"
   version="1.1"
   id="svg2"
   height="300"
   width="300"
   preserveAspectRatio="xMidYMid"
   viewBox="0 0 300 300">
  <metadata
     id="metadata27">
    <rdf:RDF>
      <cc:Work
         rdf:about="">
        <dc:format>image/svg+xml</dc:format>
        <dc:type
           rdf:resource="http://purl.org/dc/dcmitype/StillImage" />
      </cc:Work>
    </rdf:RDF>
  </metadata>
  <defs
     id="defs25" />
  <filter
     y="-50%"
     x="-50%"
     height="500"
     width="300"
     id="cmrgl">
    <feFlood
       id="feFlood5"
       result="element"
       flood-color="#ffcfab" />
    <feTurbulence
       id="feTurbulence7"
       result="element_1"
       seed="51"
       numOctaves="8"
       type="fractalNoise"
       baseFrequency="0.02" />
    <feGaussianBlur
       id="feGaussianBlur9"
       result="element_2"
       in="SourceAlpha"
       stdDeviation="5" />
    <feDisplacementMap
       id="feDisplacementMap11"
       result="element_3"
       in2="element_1"
       in="element_2"
       scale="100" />
    <feComposite
       id="feComposite13"
       result="element_4"
       in2="element_3"
       in="element"
       operator="in" />
    <feMerge
       id="feMerge15">
      <feMergeNode
         id="feMergeNode17"
         in="element_4" />
    </feMerge>
  </filter>
  <g
     id="g19"
     transform="translate(150,150) scale(1.5)">
    <path
       id="path21"
       style="filter: url(#cmrgl); stroke: rgb(255, 207, 171);"
       d="M0,0L0.16003536327005335,8.996053342859987C0.3200707265401067,17.992106685719975,0.6401414530802134,35.98421337143995,4.054369018924775,41.13507588457506C7.468596584769337,46.28593839771017,13.976980989918355,38.59555673826042,11.197446575821012,33.75699366097041C8.417912161723669,28.91843058368039,-3.6495410716200336,26.931686088550112,-5.155959439999157,25.254698423393425C-6.662377808378281,23.57771075823674,2.3922386882071747,22.210479923053644,12.810806257201296,23.228084460693612C23.229373826195417,24.245688998333584,35.0118924675982,27.648128908796615,34.754646737436886,24.152344694439016C34.49740100727558,20.656560480081414,22.200390905550165,10.262552140903178,15.392443469030738,10.954037933496513C8.58449603251131,11.645523726089847,7.26561126119787,23.42250365045475,7.005336286502457,24.280528342819228C6.745061311807044,25.138553035183705,7.543396133729659,15.077622495547757,0.1428822386391726,16.10479868775097C-7.257631656451314,17.13197487995419,-22.8569942685549,29.24725780399657,-24.470809101786976,27.147711622872652C-26.084623935019046,25.04816544174874,-13.712890989379604,8.733790155458527,-7.669614866156969,4.932878919871963C-1.6263387429343352,1.1319676842853994,-1.9115194421285087,9.844520499402485,-0.42821838709739635,10.55554357058793C1.055082667933716,11.266566641773375,4.306865477190114,3.9760599690271823,4.183141860392525,-0.1830951422330389C4.059418243594936,-4.34225025349326,0.5601882007433601,-5.37005380326751,0.2080305365861821,0.6606441003599048C-0.14412712757099588,6.6913420039873195,2.6507875869662243,19.780541361016397,-0.008197544493076858,21.58536180627291C-2.667182675952378,23.39018225152942,-10.7800676534082,13.910623785013367,-12.161507699057205,5.095873262262694C-13.542947744706211,-3.7188772604879796,-8.192942858548399,-11.868819839473273,-2.330911856156732,-16.734658608569468C3.5311191462349347,-21.60049737766566,9.905176264860454,-23.182232336872755,9.157423152095834,-20.476244439226225C8.40967003933121,-17.77025654157969,0.5401066951764468,-10.776545787079534,-2.6423860600173814,-4.286460529087151C-5.82487881521121,2.2036247289052335,-4.320300981444101,8.190084490389847,-3.5430821531438035,11.495459092689195C-2.7658633248435054,14.800833694988544,-2.716003502010018,15.42512313810263,3.491892098860236,15.803067954037159C9.69978769973049,16.181012769971687,22.06571907863751,16.312612958726657,18.994266653230838,8.159286887821079C15.92281422782416,0.005960816915504097,-2.586022001896211,-16.43229151365062,-9.042468715444896,-17.276134499175832C-15.49891542899358,-18.119977484701046,-9.90297262637058,-3.369411125185356,-9.42671189957659,-1.4073185735058695C-8.9504511727826,0.5547739781736167,-13.59387252181762,-10.271607277983103,-17.150262911256622,-12.187984069215592C-20.706653300695624,-14.104360860448084,-23.17601273053861,-7.110733186756345,-13.62136196524213,-2.712734539715059C-4.066711199945649,1.685264107326228,17.511949760490293,3.4876337277170637,20.234824952918228,-3.59896002773032C22.957700145346163,-10.685553783177705,6.82478956976609,-26.661110914463308,2.3213811638799347,-28.265119803228416C-2.182027242006221,-29.869128691993527,4.94406652180154,-17.101589338238142,4.194296555047384,-6.794744485877612C3.4445265882932263,3.5121003664829202,-5.1811071090228475,11.358250717448598,-4.349207245047422,13.413835277916624C-3.517307381071995,15.469419838384649,6.772126044194931,11.734438608355022,14.589029962734621,5.918099251877094C22.40593388127431,0.10175989539916586,27.750308293086764,-7.795937587527063,27.430079127212867,-9.757421904921888C27.10984996133897,-11.71890622231671,21.12501721777872,-7.744177374180128,16.913915910074458,-0.23914329030694415C12.702814602370196,7.26589079356624,10.26544473052192,18.301230113176025,15.761509517290197,13.666041142830254C21.257574304058473,9.03085217248448,34.6870737494433,-11.274865087816854,34.68508317259352,-15.413258362054359C34.683092595743744,-19.55165163629186,21.249611996659358,-7.522720924465534,14.532871697117166,-1.5082555685523704L7.816131397574974,4.506209787360794" />
  </g>
</svg>
