<?xml version="1.0" encoding="UTF-8" standalone="no"?>
<svg
   xmlns:dc="http://purl.org/dc/elements/1.1/"
   xmlns:cc="http://creativecommons.org/ns#"
   xmlns:rdf="http://www.w3.org/1999/02/22-rdf-syntax-ns#"
   xmlns:svg="http://www.w3.org/2000/svg"
   xmlns="http://www.w3.org/2000/svg"
   version="1.1"
   id="svg2"
   height="300"
   width="300"
   preserveAspectRatio="xMidYMid"
   viewBox="0 0 300 300">
  <metadata
     id="metadata27">
    <rdf:RDF>
      <cc:Work
         rdf:about="">
        <dc:format>image/svg+xml</dc:format>
        <dc:type
           rdf:resource="http://purl.org/dc/dcmitype/StillImage" />
      </cc:Work>
    </rdf:RDF>
  </metadata>
  <defs
     id="defs25" />
  <filter
     y="-50%"
     x="-50%"
     height="500"
     width="300"
     id="aejlk">
    <feFlood
       id="feFlood5"
       result="element"
       flood-color="#b768a2" />
    <feTurbulence
       id="feTurbulence7"
       result="element_1"
       seed="9"
       numOctaves="8"
       type="fractalNoise"
       baseFrequency="0.02" />
    <feGaussianBlur
       id="feGaussianBlur9"
       result="element_2"
       in="SourceAlpha"
       stdDeviation="4" />
    <feDisplacementMap
       id="feDisplacementMap11"
       result="element_3"
       in2="element_1"
       in="element_2"
       scale="100" />
    <feComposite
       id="feComposite13"
       result="element_4"
       in2="element_3"
       in="element"
       operator="in" />
    <feMerge
       id="feMerge15">
      <feMergeNode
         id="feMergeNode17"
         in="element_4" />
    </feMerge>
  </filter>
  <g
     id="g19"
     transform="translate(150,150) scale(1.5)">
    <path
       id="path21"
       style="filter: url(#aejlk); stroke: rgb(183, 104, 162);"
       d="M0,0L1.4001739603893806,-0.47602480888208965C2.800347920778761,-0.9520496177641793,5.600695841557522,-1.9040992355283586,6.015092501017866,3.1707459270589484C6.42948916047821,8.245591089646256,4.457934558620137,19.34733103258505,11.377780192677152,12.587016659277607C18.29762582673417,5.826702285970168,34.108871696706274,-18.795666403583507,33.4266782600449,-23.739474941411192C32.74448482338354,-28.68328347923888,15.568852080088693,-13.948531865340582,13.829422121784376,-6.474925256524287C12.089992163480062,0.9986813522920092,25.786764990166272,1.2111429560263012,25.072301225003823,3.032444901609239C24.35783745984137,4.853746847192177,9.23213710283025,8.283889134623761,3.850340633420738,9.852381823839726C-1.531455835988774,11.42087451305569,2.830651582203319,11.127717604056034,8.883642064713099,11.20826746403866C14.936632547222878,11.288817324021286,22.680506094050347,11.743073952986194,26.886809373568973,16.940453704314113C31.0931126530876,22.137833455642028,31.76184566529739,32.078336329332956,29.52923834703714,31.924038913770037C27.296631028776893,31.76974149820712,22.162683380046612,21.520643793390366,11.17264762022003,11.408722080774858C0.182611860393445,1.2968003681593503,-16.663512010529438,-8.677945352254909,-21.980531405444378,-8.829873508618022C-27.297550800359318,-8.981801664981134,-21.08546571926631,0.6890877427068993,-20.837007843914403,3.758727190742134C-20.588549968562504,6.828366638777369,-26.303719298951705,3.2967561271598047,-20.7507134499703,-3.7393102777127174C-15.197707600988894,-10.77537668258524,1.623473427363118,-21.31589898071272,13.117857185886585,-27.629696245420718C24.61224094441005,-33.94349351012872,30.77982743310497,-36.030565741417234,21.398535326866213,-27.85853808626334C12.017243220627455,-19.686510431109447,-12.912927480544983,-1.2553828895131396,-26.343539557895802,8.315681343194619C-39.774151635246625,17.886745575902378,-41.70520508877583,18.597746499721588,-36.95740006553091,13.752943103154285C-32.209595042286004,8.908139706586981,-20.78293154226698,-1.4924680103668386,-18.413057406897767,-5.2282152631895125C-16.043183271528555,-8.963962516012186,-22.730098500809156,-6.034849304703716,-20.059166125154917,-2.437651037152372C-17.388233749500685,1.159547230398971,-5.3594537689116155,5.424830554193186,-0.34223689602422447,4.894573681963239C4.674979976863167,4.3643168097332925,2.680633742048879,-0.9614802585208171,0.6030293612524027,-1.8167122514520955C-1.4745750195440737,-2.671944244383374,-3.635437546322739,0.943388838008179,-11.574336478508837,-5.963740560274247C-19.513235410694932,-12.870869958556673,-33.230170748288465,-30.300461837513076,-37.32584017266676,-26.910602677486594C-41.42150959704505,-23.520743517460108,-35.89591310820811,0.6885666815492648,-26.67019629792318,8.768889913087328C-17.44447948763825,16.84921314462539,-4.518642355905326,8.800549408692143,2.421884580080317,-3.929727035417245C9.362411516065961,-16.660003479526633,10.317628256304324,-34.07189263181217,10.497773506617518,-40.54493680042647C10.677918756930715,-47.017980969040764,10.082992517318743,-42.552180153983834,8.183641845797982,-31.804927053473588C6.284291174277222,-21.057673952963338,3.080516070847673,-4.028968566999774,-5.5646389543711425,9.901662835084824C-14.209793979589959,23.832294237169425,-28.29632892659804,34.66485165537506,-33.83631201399372,32.03509666134496C-39.3762951013894,29.40534166731486,-36.36972632917267,13.313274261049031,-35.34550239908166,3.211038088914356C-34.321278468990656,-6.891198083220319,-35.27939938102536,-11.003603021223837,-28.538178294752825,-12.338865359514603C-21.79695720848029,-13.674127697805368,-7.356394123900518,-12.23224743638338,-0.42471612879897047,-7.591066409672368C6.506961866302577,-2.9498853829613534,5.929754771925901,4.890596409038686,3.4433327521866763,7.239369424018377C0.9569107324474517,9.588142438998068,-3.438726212654321,6.445206676957409,-4.468856757963477,14.204401942016617C-5.498987303272631,21.963597207075825,-3.163611448789167,40.624923499234896,-1.9959235215474356,49.95558664531443L-0.8282355943057039,59.28624979139397" />
  </g>
</svg>
