<?xml version="1.0" encoding="UTF-8" standalone="no"?>
<svg
   xmlns:dc="http://purl.org/dc/elements/1.1/"
   xmlns:cc="http://creativecommons.org/ns#"
   xmlns:rdf="http://www.w3.org/1999/02/22-rdf-syntax-ns#"
   xmlns:svg="http://www.w3.org/2000/svg"
   xmlns="http://www.w3.org/2000/svg"
   version="1.1"
   id="svg2"
   height="300"
   width="300"
   preserveAspectRatio="xMidYMid"
   viewBox="0 0 300 300">
  <metadata
     id="metadata27">
    <rdf:RDF>
      <cc:Work
         rdf:about="">
        <dc:format>image/svg+xml</dc:format>
        <dc:type
           rdf:resource="http://purl.org/dc/dcmitype/StillImage" />
      </cc:Work>
    </rdf:RDF>
  </metadata>
  <defs
     id="defs25" />
  <filter
     y="-50%"
     x="-50%"
     height="500"
     width="300"
     id="nlleh">
    <feFlood
       id="feFlood5"
       result="element"
       flood-color="#ABAD48" />
    <feTurbulence
       id="feTurbulence7"
       result="element_1"
       seed="13"
       numOctaves="8"
       type="fractalNoise"
       baseFrequency="0.02" />
    <feGaussianBlur
       id="feGaussianBlur9"
       result="element_2"
       in="SourceAlpha"
       stdDeviation="5" />
    <feDisplacementMap
       id="feDisplacementMap11"
       result="element_3"
       in2="element_1"
       in="element_2"
       scale="100" />
    <feComposite
       id="feComposite13"
       result="element_4"
       in2="element_3"
       in="element"
       operator="in" />
    <feMerge
       id="feMerge15">
      <feMergeNode
         id="feMergeNode17"
         in="element_4" />
    </feMerge>
  </filter>
  <g
     id="g19"
     transform="translate(150,150) scale(1.5)">
    <path
       id="path21"
       style="filter: url(#nlleh); stroke: rgb(171, 173, 72);"
       d="M0,0L1.2163850223026387,2.179131458623911C2.4327700446052773,4.358262917247822,4.865540089210555,8.716525834495645,8.81075978539079,7.149723762505099C12.755979481571023,5.582921690514554,18.213648829326214,-1.9089453707143598,13.900094839501275,-9.157488641616398C9.586540849676336,-16.406031912518436,-4.498236477728735,-23.4112513930936,-14.261365912562557,-19.432937918874714C-24.02449534739638,-15.45462444465583,-29.46597688965895,-0.49277801564289625,-26.11204524384874,4.363361380626595C-22.75811359803853,9.219500776896087,-10.608768764155535,3.9699331404221385,-2.5231377702615045,-0.9265309243348914C5.562493223632526,-5.822994989091922,9.584410377537592,-10.366355482132033,12.089450622509831,-2.9591356652848884C14.594490867482072,4.448084151562256,15.58265420352149,23.805884278296652,9.768434432881218,24.7391353906554C3.9542146622409433,25.672386503014145,-8.66238821507902,8.181088600997239,-10.502244599775251,-7.008752488306626C-12.342100984471482,-22.198593577610488,-3.405210876543984,-35.08697785420131,4.86640836766553,-30.324272163124125C13.138027611875042,-25.56156647204694,20.74437599236657,-3.147770813301751,24.970931344457526,6.1413542315176475C29.197486696548484,15.430479276337046,30.04424902023887,11.594933707230654,29.543853460640733,11.62348131929733C29.043457901042597,11.65202893136401,27.19590445815594,15.544669724603757,17.330640725462388,5.142114557518791C7.465376992768832,-5.260440609566174,-10.41759702973162,-29.958191736975856,-17.137468077973345,-26.77763305582459C-23.85733912621507,-23.597074374673326,-19.414107200198067,7.461794115038881,-14.354082707050733,12.563715278369923C-9.294058213903396,17.66563644170096,-3.6172411536257245,-3.189389721349169,4.484312089422518,-15.172547323760813C12.58586533247076,-27.15570492617246,23.112154758289574,-30.266993967945623,28.592372251747573,-19.571071368576877C34.07258974520557,-8.875148769208133,34.50673530630276,15.627985471302518,29.971192092679892,28.935050910675393C25.43564887905703,42.24211635004827,15.930416890714124,44.35311298828337,10.446269667614162,35.2259402120996C4.962122444514199,26.098767435915818,3.49905998665718,5.733425245313164,-1.2484648729201289,1.0313978472514194C-5.995989732497438,-3.6706295508103253,-14.027976993795036,7.290657843668841,-14.635670814381633,5.790673006072263C-15.24336463496823,4.290688168475686,-8.426765014843824,-9.670568901196635,-8.453097794479367,-12.162912109485772C-8.479430574114911,-14.65525531777491,-15.348695753510404,-5.678684664680865,-17.874605960745093,-3.0473943714841516C-20.400516167979784,-0.416104078287439,-18.583071403053673,-4.130094144988059,-10.391952577645727,-10.026175189532918C-2.2008337522377825,-15.922256234077775,12.363959133651996,-24.000428256466872,12.48610395999114,-25.6679946401176C12.608248786330288,-27.33556102376832,-1.7122544468811967,-22.592521768680673,-8.399510026078582,-12.382340535291997C-15.086765605275968,-2.1721593019033243,-14.140773530459255,13.505163909786376,-5.0290994857549425,16.566032921271262C4.082574558949371,19.62690193275615,21.359930573541284,10.071316744036228,32.469765374602176,7.057381289233238C43.579600175663074,4.043445834430248,48.521913763192956,7.571160113544192,46.162495853452754,6.484223306687417C43.80307794371255,5.397286499830641,34.14192853670228,-0.30430139299685344,22.958547618340916,-1.964040521894091C11.775166699979547,-3.6237796507913287,-0.930445729732913,-1.2416700157583098,-1.9337546289778476,-2.934502392959486C-2.937063528222782,-4.627334770160662,7.761931102999808,-10.395109159596034,10.631113981531048,-9.630208370418718C13.500296860062289,-8.865307581241403,8.539667985902177,-1.567731613451401,9.378991920765664,4.145332095230893C10.218315855629152,9.858395803913188,16.857592599516238,13.986947253487775,17.254052197090722,13.483964666373335C17.650511794665203,12.980982079258895,11.804154245927084,7.846465455455428,7.265019383916264,9.582190582990396C2.7258845219054457,11.317915710525366,-0.5060276533780703,19.923882589398772,-2.1219837410198283,24.226866028835474L-3.7379398286615864,28.529849468272175" />
  </g>
</svg>
