<svg viewBox="0 0 300 300" preserveAspectRatio="xMidYMid" width="300" height="300"><filter id="feewg" width="300" height="500" x="-50%" y="-50%"><feFlood flood-color="#c5d0e6" result="element"></feFlood><feTurbulence baseFrequency="0.02" type="fractalNoise" numOctaves="8" seed="51" result="element_1"></feTurbulence><feGaussianBlur stdDeviation="5" in="SourceAlpha" result="element_2"></feGaussianBlur><feDisplacementMap scale="100" in="element_2" in2="element_1" result="element_3"></feDisplacementMap><feComposite operator="in" in="element" in2="element_3" result="element_4"></feComposite><feMerge><feMergeNode in="element_4"></feMergeNode></feMerge></filter><g transform="translate(150,150) scale(1.5)"><path d="M0,0L8.048886919601326,-7.556762166173177C16.097773839202652,-15.113524332346355,32.195547678405305,-30.22704866469271,40.11213101710089,-35.65299982303972C48.02871435579648,-41.07895098138673,47.76410719398501,-36.817328965734404,40.537584778309984,-35.30402265451961C33.311062362634964,-33.790716343304815,19.12262469309639,-35.02572573652756,11.680265341757618,-33.06511784227786C4.237905990418843,-31.104509948028152,3.5416249572798666,-25.948284766305992,3.6218180574562187,-18.398285516553244C3.70201115763257,-10.848286266800498,4.55867839112425,-0.904512949017164,2.2402633607175932,3.0438741950639283C-0.0781516696890634,6.992261339145021,-5.571648963994056,4.945262309523872,-0.5917217620057551,-0.46676596067316956C4.388205439982546,-5.878794230870211,19.84155713826414,-14.655851741643145,28.5802523208875,-19.10479800922216C37.318947503510856,-23.553744276801176,39.34298617047598,-23.67457930118627,26.50522307034018,-19.727405004961025C13.667459970204373,-15.780230708735772,-14.032104897032355,-7.765047091900177,-18.065349610664395,-12.417272381678984C-22.09859432429644,-17.069497671457793,-2.465518884323794,-34.389131867851006,3.832999272736221,-33.18879872498804C10.131517429796236,-31.988465582125084,3.0954783039436222,-12.268165100005954,2.2360477693852125,-1.0865437329285692C1.3766172348268029,10.095077634148815,6.693795291562598,12.738019886184453,13.836180494942624,8.483876359005784C20.978565698322647,4.229732831827112,29.946158048346906,-6.921496474565869,29.25890108709115,-6.346003349865934C28.571644125835387,-5.770510225166001,18.22953785329961,6.531705330626847,7.554492249239919,5.658505359984264C-3.1205533548197746,4.785305389341682,-14.128538290403387,-9.263310107736332,-17.844425181697115,-10.772865234256061C-21.560312072990847,-12.282420360775788,-17.98410091999469,-1.2529151167372312,-9.348213656603004,11.064548772934298C-0.7123263932113151,23.382012662605824,12.983236980575908,36.98743519791032,14.668561896139948,36.724933907903704C16.35388681170399,36.46243261789708,6.028973269044847,22.332007502579337,1.1515467004713915,9.669520186736783C-3.7258798681020644,-2.99296712910577,-3.155819462589834,-14.187516645473131,-1.74456758921001,-21.563786847727368C-0.33331571583018516,-28.940057049981604,1.919127625417234,-32.498047938122724,-0.3587720822338971,-26.186912900698836C-2.636671789885028,-19.875777863274948,-9.444914546434708,-3.6955169002860604,-7.768382620839815,-0.2536444985605568C-6.09185069524492,3.1882279031649468,4.069455912494549,-6.1082882563729335,11.201883824119253,-3.8961948023662387C18.33431173574396,-1.684101348359544,22.437860951253896,12.036601719191726,10.58900175651613,14.347449162671321C-1.2598574382216405,16.658296606150916,-29.06112504320712,7.559288425558833,-27.722815887349263,7.464900247248011C-26.38450673149141,7.370512068937186,4.093379185209777,16.280743892907623,12.969982133649877,16.46049514368556C21.846585082089977,16.640246394463496,9.12190506226899,8.08951707204894,2.9596440463021674,3.1680909101342625C-3.2026169696646565,-1.753335251780415,-2.8024589817773173,-3.045458253195212,-3.978366064636413,-2.4539937879684928C-5.154273147495509,-1.8625293227417745,-7.906245301101039,0.6125226091264593,-5.367169589001419,1.2427981223404956C-2.828093876901799,1.8730736355545317,5.0020297009029715,0.6585727301143702,3.2084786939908576,2.6232620526616914C1.4149276870787437,4.587951375209013,-10.002297904550254,9.731830925743816,-8.405750247996318,13.71735976856133C-6.809202591442383,17.702888611378846,7.801118313294485,20.530066746479072,10.426428681724639,17.07692030463062C13.051739050154794,13.62377386278217,3.6920388822782333,3.8903028439850424,6.345285797670888,1.4372904707528573C8.998532713063543,-1.0157219024793278,23.66472671172541,3.8117243698534296,29.494423467984436,8.631325979190022C35.32412022424346,13.450927588526616,32.317319738099634,18.262684534867045,19.778731763542112,8.225303931628835C7.240143788984588,-1.8120766716093772,-14.830231673986635,-26.69859482442623,-25.865419405472245,-39.141853900834654L-36.90060713695786,-51.585112977243085" style="filter: url(#feewg); stroke: rgb(197, 208, 230);"></path></g></svg>