<?xml version="1.0" encoding="UTF-8" standalone="no"?>
<svg
   xmlns:dc="http://purl.org/dc/elements/1.1/"
   xmlns:cc="http://creativecommons.org/ns#"
   xmlns:rdf="http://www.w3.org/1999/02/22-rdf-syntax-ns#"
   xmlns:svg="http://www.w3.org/2000/svg"
   xmlns="http://www.w3.org/2000/svg"
   version="1.1"
   id="svg2"
   height="300"
   width="300"
   preserveAspectRatio="xMidYMid"
   viewBox="0 0 300 300">
  <metadata
     id="metadata27">
    <rdf:RDF>
      <cc:Work
         rdf:about="">
        <dc:format>image/svg+xml</dc:format>
        <dc:type
           rdf:resource="http://purl.org/dc/dcmitype/StillImage" />
      </cc:Work>
    </rdf:RDF>
  </metadata>
  <defs
     id="defs25" />
  <filter
     y="-50%"
     x="-50%"
     height="500"
     width="300"
     id="ixsra">
    <feFlood
       id="feFlood5"
       result="element"
       flood-color="#8ba8b7" />
    <feTurbulence
       id="feTurbulence7"
       result="element_1"
       seed="7"
       numOctaves="8"
       type="fractalNoise"
       baseFrequency="0.02" />
    <feGaussianBlur
       id="feGaussianBlur9"
       result="element_2"
       in="SourceAlpha"
       stdDeviation="4" />
    <feDisplacementMap
       id="feDisplacementMap11"
       result="element_3"
       in2="element_1"
       in="element_2"
       scale="100" />
    <feComposite
       id="feComposite13"
       result="element_4"
       in2="element_3"
       in="element"
       operator="in" />
    <feMerge
       id="feMerge15">
      <feMergeNode
         id="feMergeNode17"
         in="element_4" />
    </feMerge>
  </filter>
  <g
     id="g19"
     transform="translate(150,150) scale(1.5)">
    <path
       id="path21"
       style="filter: url(#ixsra); stroke: rgb(139, 168, 183);"
       d="M0,0L5.76229206450728,-7.031237849386031C11.52458412901456,-14.062475698772062,23.04916825802912,-28.124951397544123,24.889481723371407,-36.17288910575238C26.72979518871369,-44.22082681396064,18.885837990383706,-46.254226531605106,18.7728348830694,-36.74268293585585C18.659831775755098,-27.231139340106605,26.27778275945648,-6.174652430963642,26.623851593265872,0.98716554208172C26.96992042707526,8.148983515127082,20.04410711099266,1.416132552074843,9.13806454570868,3.350058414475481C-1.7679780195753008,5.283984276876119,-16.65424983406066,15.884686964729633,-23.07256425501283,13.963136394520255C-29.490878675964996,12.041585824310877,-27.441235703383974,-2.4022180039613943,-23.06129491813945,-9.759717120458363C-18.681354132894924,-17.117216236955333,-11.971115534986893,-17.388410641676998,-11.490067221571604,-9.242651004765905C-11.009018908156316,-1.0968913678548127,-16.757160879233766,15.465822310689042,-16.123960538992467,23.160082667210034C-15.49076019875117,30.85434302373103,-8.476217547191123,29.680150058229163,-12.880230251430632,21.332358925886634C-17.284242955670145,12.984567793544104,-33.10681101570921,-2.5368215056390895,-36.89686919209507,-8.083533927591407C-40.68692736848092,-13.630246349543727,-32.44447566121357,-9.20228189426517,-26.508491814893844,0.9058131772462215C-20.572507968574115,11.013908248757614,-16.94299198320201,26.802133936501843,-13.389982380116061,22.019576411693915C-9.836972777030113,17.23701888688599,-6.360469556230319,-8.116321850474087,-3.605508711652617,-12.956504237252027C-0.8505478670749165,-17.796686624029967,1.1828706012806938,-2.1237106602257647,-1.1558618644811935,5.62370134012081C-3.494594330243081,13.371113340467385,-10.205477730122466,13.192961377356335,-16.377959134544952,11.097526865454968C-22.550440538967436,9.002092353553602,-28.18451994793302,4.98937529286192,-26.606209405066735,2.0562695708503744C-25.027898862200455,-0.8768361511611705,-16.2371983675023,-2.7303305344925786,-10.292498521053812,0.19205056659494968C-4.347798674605319,3.114431667682478,-1.249099476406488,10.812688253188943,5.667946337099082,12.343268893540442C12.584992150604652,13.873849533891942,23.32038457941696,9.236754229088476,28.052144102842078,10.29225723841456C32.78390362626719,11.347760247740643,31.51203024430512,18.095861571196277,32.36391960937512,18.451862361884857C33.21580897444511,18.807863152573432,36.19146108654718,12.77176341049495,38.302434161268565,12.396197534215368C40.41340723598995,12.020631657935787,41.659701273330654,17.305599647455107,28.97786482216369,13.747258426331495C16.296028370996726,10.188917205207883,-10.313938568677898,-2.21273322655866,-13.50246463076092,-10.742019947626638C-16.690990692843943,-19.271306668694617,3.5419241226646374,-23.92822967906403,5.350606827409173,-23.731049043048344C7.159289532153709,-23.53386840703266,-9.4562598738658,-18.482584124631874,-14.798241311372735,-16.375198862949855C-20.14022274887967,-14.267813601267834,-14.208636217874027,-15.10432736030458,-10.1798571802183,-5.1598644984015944C-6.151078142562578,4.784598363501392,-4.025106598256768,25.51003784634411,-2.7758811498629687,32.485605911119535C-1.5266557014691693,39.46117397589495,-1.1541763489873804,32.68687062260308,-0.9030262403330429,26.979901403386666C-0.6518761316787053,21.27293218417026,-0.5220552668518189,16.633297099029313,-0.34053616669239384,9.02179695562742C-0.15901706653296874,1.4102968122255222,0.07420026895899506,-9.173068389437326,1.439087437170775,-13.721680246677472C2.803974605382555,-18.270292103917622,5.30053160631415,-16.784150616735072,12.279756177363337,-18.694164350384284C19.258980748412526,-20.6041780840335,30.7208728895793,-25.910347038514473,29.474711643026243,-20.271085380430666C28.22855039647318,-14.63182372234686,14.274335762200284,1.9528685483017298,10.456298276675675,2.3841077473384296C6.6382607911510645,2.8153469463751293,12.956400454374744,-12.906866926200061,12.90271099885081,-13.15832290261222C12.849021543326877,-13.40977887902438,6.42350296905533,1.8095230407264928,3.2107436819195563,9.419174000601929L-0.002015605216216827,17.028824960477365" />
  </g>
</svg>
