<?xml version="1.0" encoding="UTF-8" standalone="no"?>
<svg
   xmlns:dc="http://purl.org/dc/elements/1.1/"
   xmlns:cc="http://creativecommons.org/ns#"
   xmlns:rdf="http://www.w3.org/1999/02/22-rdf-syntax-ns#"
   xmlns:svg="http://www.w3.org/2000/svg"
   xmlns="http://www.w3.org/2000/svg"
   version="1.1"
   id="svg2"
   height="300"
   width="300"
   preserveAspectRatio="xMidYMid"
   viewBox="0 0 300 300">
  <metadata
     id="metadata27">
    <rdf:RDF>
      <cc:Work
         rdf:about="">
        <dc:format>image/svg+xml</dc:format>
        <dc:type
           rdf:resource="http://purl.org/dc/dcmitype/StillImage" />
      </cc:Work>
    </rdf:RDF>
  </metadata>
  <defs
     id="defs25" />
  <filter
     y="-50%"
     x="-50%"
     height="500"
     width="300"
     id="oncig">
    <feFlood
       id="feFlood5"
       result="element"
       flood-color="#fddde6" />
    <feTurbulence
       id="feTurbulence7"
       result="element_1"
       seed="50"
       numOctaves="8"
       type="fractalNoise"
       baseFrequency="0.02" />
    <feGaussianBlur
       id="feGaussianBlur9"
       result="element_2"
       in="SourceAlpha"
       stdDeviation="4" />
    <feDisplacementMap
       id="feDisplacementMap11"
       result="element_3"
       in2="element_1"
       in="element_2"
       scale="100" />
    <feComposite
       id="feComposite13"
       result="element_4"
       in2="element_3"
       in="element"
       operator="in" />
    <feMerge
       id="feMerge15">
      <feMergeNode
         id="feMergeNode17"
         in="element_4" />
    </feMerge>
  </filter>
  <g
     id="g19"
     transform="translate(150,150) scale(1.5)">
    <path
       id="path21"
       style="filter: url(#oncig); stroke: rgb(253, 221, 230);"
       d="M0,0L8.021089089177305,0.3450641098027374C16.04217817835461,0.6901282196054748,32.08435635670922,1.3802564392109495,32.188179888074934,1.4567335606810408C32.292003419440654,1.533210682151132,16.457472303817475,0.9960367054858397,8.148006424821508,-1.86918632077834C-0.16145945417446028,-4.7344093470425195,-0.9458600965432165,-9.927681422905586,-5.517645786490657,-10.585741474370005C-10.089431476438099,-11.243801525834424,-18.448602213964225,-7.3666495529001965,-21.66047331907646,-1.3040847960822228C-24.87234442418869,4.758479960735751,-22.93691589688703,13.00645750143747,-21.723877842645507,16.301245408237964C-20.510839788403985,19.59603331503846,-20.020192207222603,17.93763158793773,-26.008217454433503,18.7691797811648C-31.996242701644398,19.600727974391873,-44.46294077724758,22.92222608794674,-37.74323274111453,20.914738253520007C-31.02352470498148,18.90725041909327,-5.1174105571121995,11.570776636684926,-1.0260406839442906,7.1882364716825675C3.0653291892236183,2.8056963066802085,-14.658045212309844,1.377089759083834,-20.962702396183083,0.28436845494139207C-27.267359580056326,-0.8083528492010499,-22.15329954626935,-1.5651889098895593,-23.713273755353054,5.7150096895401035C-25.27324796443676,12.995208288969765,-33.50725641639115,28.3124415485176,-26.783278467487943,24.07196746902119C-20.05930051858474,19.83149338952478,1.6226638311760553,-3.9666880290158772,7.35698669030837,-6.84124977266222C13.091309549440684,-9.715811516308563,2.8779909179445182,8.333246414939408,3.826520807948978,5.306308336504286C4.7750506979534375,2.2793702580691626,16.885429109458524,-21.823563830049054,17.36331821801155,-28.399507611788724C17.84120732656458,-34.9754513935284,6.686607132165548,-24.024404868889533,-1.5375546586233297,-23.883542419180944C-9.761716449412207,-23.742679969472363,-15.055439836590931,-34.41200159469406,-13.154949551924737,-31.39894695966244C-11.254459267258543,-28.385892324630824,-2.159755310747432,-11.69046142934589,-2.1762225300635194,-4.186407573808091C-2.192689749379607,3.3176462817297065,-11.320328144522893,1.6303230975203677,-19.06084442068837,8.294790971066885C-26.80136069685384,14.959258844613402,-33.1547548540415,29.975517775915772,-29.443632054451772,29.531961363468806C-25.732509254862045,29.088404951021836,-11.956869498494925,13.185033194825525,0.0028086691302124933,8.784715616396712C11.962486836755351,4.384398037967896,22.106203415638507,11.487134637306577,18.437852249396304,7.382850262994873C14.769501083154104,3.27856588868317,-2.7109178282134607,-12.032739459278918,-13.172626355107147,-14.897745762708034C-23.634334882000836,-17.76275206613715,-27.077333024420643,-8.181459325033297,-25.773412976613105,-6.504418736228108C-24.469492928805565,-4.827378147422919,-18.41865469077068,-11.054589710916394,-13.388667915394521,-14.340260673758104C-8.358681140018364,-17.625931636599816,-4.349545827300939,-17.970061998789763,-2.865214488886809,-16.875906405643256C-1.3808831504726795,-15.78175081249675,-2.4213557863618465,-13.24930926401379,1.2843597471441601,-3.8589622438640383C4.990075280650167,5.531384776285714,13.441978983551346,21.77963726810226,10.629955893720874,22.491823311762797C7.8179328038904,23.204009355423338,-6.258017078671726,8.380128950927876,-1.467611333782223,6.743236785086856C3.3227944111072816,5.106344619245838,26.979555783448415,16.656440692059263,31.921939630556956,17.385823540369653C36.864323477665494,18.11520638868004,23.092329799541442,8.02387601248739,15.327056885611352,-0.2502277390958203C7.561783971681262,-8.524331490679032,5.803231821945133,-14.981208617652802,-0.06190786939181425,-13.635462687498872C-5.927047560728761,-12.28971675734494,-15.898774793666526,-3.1413477700633115,-19.277875527915718,0.010106187677037415C-22.656976262164914,3.1615601454173863,-19.443450497725536,0.31609907361645373,-13.142348816207813,0.1815168997744656C-6.841247134690091,0.046934725932477495,2.547430463905976,2.623231450049434,5.344272215746461,6.762800990464982C8.141113967586945,10.902370530880532,4.3461198726718475,16.60521288759467,2.4486228252142985,19.456634065951743L0.5511257777567493,22.308055244308814" />
  </g>
</svg>
