<?xml version="1.0" encoding="UTF-8" standalone="no"?>
<svg
   xmlns:dc="http://purl.org/dc/elements/1.1/"
   xmlns:cc="http://creativecommons.org/ns#"
   xmlns:rdf="http://www.w3.org/1999/02/22-rdf-syntax-ns#"
   xmlns:svg="http://www.w3.org/2000/svg"
   xmlns="http://www.w3.org/2000/svg"
   version="1.1"
   id="svg2"
   height="300"
   width="300"
   preserveAspectRatio="xMidYMid"
   viewBox="0 0 300 300">
  <metadata
     id="metadata27">
    <rdf:RDF>
      <cc:Work
         rdf:about="">
        <dc:format>image/svg+xml</dc:format>
        <dc:type
           rdf:resource="http://purl.org/dc/dcmitype/StillImage" />
      </cc:Work>
    </rdf:RDF>
  </metadata>
  <defs
     id="defs25" />
  <filter
     y="-50%"
     x="-50%"
     height="500"
     width="300"
     id="qfsyq">
    <feFlood
       id="feFlood5"
       result="element"
       flood-color="#f78fa7" />
    <feTurbulence
       id="feTurbulence7"
       result="element_1"
       seed="58"
       numOctaves="8"
       type="fractalNoise"
       baseFrequency="0.02" />
    <feGaussianBlur
       id="feGaussianBlur9"
       result="element_2"
       in="SourceAlpha"
       stdDeviation="4" />
    <feDisplacementMap
       id="feDisplacementMap11"
       result="element_3"
       in2="element_1"
       in="element_2"
       scale="100" />
    <feComposite
       id="feComposite13"
       result="element_4"
       in2="element_3"
       in="element"
       operator="in" />
    <feMerge
       id="feMerge15">
      <feMergeNode
         id="feMergeNode17"
         in="element_4" />
    </feMerge>
  </filter>
  <g
     id="g19"
     transform="translate(150,150) scale(1.5)">
    <path
       id="path21"
       style="filter: url(#qfsyq); stroke: rgb(247, 143, 167);"
       d="M0,0L0.5360921884163734,-7.769638092766145C1.0721843768327468,-15.53927618553229,2.1443687536654936,-31.07855237106458,0.8904961886265998,-29.720087603796557C-0.3633763764122939,-28.361622836528536,-3.9433058833228283,-10.105417116460202,-5.372803720082513,-4.573930258453514C-6.802301556842196,0.9575565995531745,-6.081367723451031,-6.23567540450178,-5.351345078290372,-7.044396759595417C-4.621322433129713,-7.853118114689053,-3.882210976199561,-2.2773288208213716,-7.386239072582434,1.6772834469345872C-10.890267168965307,5.631895714690546,-18.637434818661205,7.965330956334782,-17.339478271095473,6.987472595679403C-16.04152172352974,6.009614235024023,-5.6984409787023775,1.7204622720690286,4.326590846626248,-0.7769297484170768C14.351622671954871,-3.2743217689031825,24.058605577784757,-3.979953846920398,29.31060701443504,-6.8435285720360355C34.562608451085325,-9.707103297151672,35.35962841855601,-14.72862066936573,31.29408472163419,-9.69427037763751C27.22854102471237,-4.65992008590929,18.300433663398056,10.430297869761208,8.902847620812667,14.117449713770458C-0.4947384217727251,17.80460155777971,-10.361803145629192,10.088687290127709,-7.933140217194908,2.9440976853799827C-5.504477288760624,-4.200491919367742,9.21991329196441,-10.773756861211197,13.667695657718507,-11.866361019100697C18.115478023472605,-12.9589651769902,12.286652174255769,-8.570908550925749,7.489300815108243,0.8052412947232339C2.69194945596072,10.181391140372217,-1.073927413117492,24.54563420560573,5.239181888667376,25.806773627488067C11.552291190452245,27.067913049370404,27.944386663100193,15.225948827901565,28.011454998720637,9.253553238940134C28.07852333434108,3.2811576499787005,11.820564532934027,3.178330693524674,0.36690941069522687,2.92531550863331C-11.086745711543571,2.6723003237419456,-17.736097154614114,2.269096910413244,-11.425550927317468,1.2955287950650625C-5.1150047000208225,0.3219606797168806,14.155439197643009,-1.2219721376507815,17.297594003865235,-2.84981554077916C20.439748810087462,-4.477658943907539,7.4536145248680805,-6.189412932796634,-4.959846729264397,-9.52041436437528C-17.373307983396874,-12.85141579595393,-29.21409620644245,-17.801664670222127,-26.96617317680242,-13.06897051333252C-24.718250147162394,-8.33627635644291,-8.38161586483676,6.0793608316045065,-5.671034665305671,8.078952725051908C-2.96045346577458,10.078544618499308,-13.875925349038031,-0.33790878265330804,-19.03674992568895,-0.9349006665652708C-24.19757450233987,-1.5318925504772336,-23.60375177237826,7.690577082851457,-20.563979017478278,15.183361622465293C-17.5242062625783,22.676146162079128,-12.038483482739949,28.439245607978112,-7.007675219929432,26.768943725339557C-1.9768669571189128,25.098641842701003,2.599026788663773,15.994938631524908,4.980125717598886,8.424933120151934C7.361224646534,0.8549276087789606,7.5475287586215405,-5.181380202790893,6.118683281171439,-7.590250490688561C4.689837803721337,-9.999120778586231,1.6458427367335928,-8.780553542811713,5.647292109390498,-8.346802422345712C9.648741482047402,-7.913051301879708,20.695635294348957,-8.26411629672222,29.47295443061525,-10.752310168885744C38.25027356688154,-13.240504041049268,44.75801802711257,-17.865826790533806,37.958758976848216,-13.14588707093041C31.159499926583862,-8.425947351327011,11.053237365824135,5.63925483736432,4.562532901239537,5.675647942239133C-1.9281715633450593,5.712041047113944,5.196682068245478,-8.280374931827765,8.230428050893194,-12.619408799799675C11.26417403354091,-16.958442667771585,10.206812367245806,-11.644094424773698,6.730891056740864,-16.3229431126558C3.2549697462359237,-21.001791800537905,-2.639511208478854,-35.6738374193,-2.460550897046608,-40.530961340348725C-2.2815905856143615,-45.388085261397435,3.9708109919649086,-40.43028748473278,6.376636454875441,-32.022093200117205C8.782461917785971,-23.61389891550163,7.341711266027765,-11.755308122935139,2.5854488564947204,-13.229551971251711C-2.1708135530383235,-14.703795819568285,-10.242587720346204,-29.51087430876792,-14.278474804000146,-36.914413553367744L-18.314361887654087,-44.317952797967564" />
  </g>
</svg>
