<?xml version="1.0" encoding="UTF-8" standalone="no"?>
<svg
   xmlns:dc="http://purl.org/dc/elements/1.1/"
   xmlns:cc="http://creativecommons.org/ns#"
   xmlns:rdf="http://www.w3.org/1999/02/22-rdf-syntax-ns#"
   xmlns:svg="http://www.w3.org/2000/svg"
   xmlns="http://www.w3.org/2000/svg"
   version="1.1"
   id="svg2"
   height="300"
   width="300"
   preserveAspectRatio="xMidYMid"
   viewBox="0 0 300 300">
  <metadata
     id="metadata27">
    <rdf:RDF>
      <cc:Work
         rdf:about="">
        <dc:format>image/svg+xml</dc:format>
        <dc:type
           rdf:resource="http://purl.org/dc/dcmitype/StillImage" />
      </cc:Work>
    </rdf:RDF>
  </metadata>
  <defs
     id="defs25" />
  <filter
     y="-50%"
     x="-50%"
     height="500"
     width="300"
     id="xplol">
    <feFlood
       id="feFlood5"
       result="element"
       flood-color="#fc74fd" />
    <feTurbulence
       id="feTurbulence7"
       result="element_1"
       seed="97"
       numOctaves="8"
       type="fractalNoise"
       baseFrequency="0.02" />
    <feGaussianBlur
       id="feGaussianBlur9"
       result="element_2"
       in="SourceAlpha"
       stdDeviation="5" />
    <feDisplacementMap
       id="feDisplacementMap11"
       result="element_3"
       in2="element_1"
       in="element_2"
       scale="100" />
    <feComposite
       id="feComposite13"
       result="element_4"
       in2="element_3"
       in="element"
       operator="in" />
    <feMerge
       id="feMerge15">
      <feMergeNode
         id="feMergeNode17"
         in="element_4" />
    </feMerge>
  </filter>
  <g
     id="g19"
     transform="translate(150,150) scale(1.5)">
    <path
       id="path21"
       style="filter: url(#xplol); stroke: rgb(252, 116, 253);"
       d="M0,0L1.0807484994244094,0.3681807176598013C2.161496998848819,0.7363614353196026,4.322993997697638,1.4727228706392053,8.972545952097246,3.3767339236449665C13.622097906496855,5.280744976650729,20.759704816447254,8.352405647342648,22.6432492625934,7.722444356862349C24.52679370873955,7.092483066382048,21.156275691081447,2.7608998147295276,17.859276805723535,5.04839862617497C14.562277920365622,7.335897437620413,11.3387981673079,16.24247831216382,8.803413508608122,26.0400870951396C6.268028849908344,35.83769587811538,4.420739285566509,46.52633256952355,-3.253969663925318,39.807870710064805C-10.928678613417144,33.089408850606056,-24.430806948058965,8.963848440280413,-22.94876853126217,7.191339528660613C-21.466730114465378,5.418830617040813,-5.000524946229972,25.999373204126858,-1.015745270552431,34.66422753464583C2.96903440512511,43.32908186516481,-5.527611411755215,40.07824793911672,-6.429945636297592,28.86360675121457C-7.33227986083997,17.64896556331241,-0.6403024930443992,-1.529482886443816,-0.978520695599546,-0.4902841897694694C-1.3167388981546928,0.5489145069048771,-8.685152671060557,21.8057603500098,-16.768626851956398,26.082937337337285C-24.85210103285224,30.360114324664774,-33.650635621738054,17.65762245621483,-30.469663777617367,2.701951662046218C-27.28869193349668,-12.253719132122395,-12.12821365636949,-29.46256885200968,-6.535863450405282,-38.7083360460563C-0.9435132444410761,-47.95410324010293,-4.919291109639856,-49.2367879083089,-10.445944142939858,-41.43715853530958C-15.972597176239859,-33.637529162310265,-23.05012537764108,-16.75558574810567,-16.384695149061898,-0.5156293831982302C-9.719264920482715,15.72432698170921,10.689123738076871,31.322296297319497,18.618952460881562,30.771081520452856C26.54878118368625,30.219866743586216,22.000049970736043,13.519467874242654,15.861969419940424,10.33685790987122C9.723888869144808,7.154247945499786,1.9964589805037818,17.489426886100482,-7.079571431564698,20.368816292821872C-16.15560184363318,23.248205699543256,-26.580232779129116,18.671805572385338,-24.460787812555626,8.248964967560143C-22.34134284598214,-2.1738756372650485,-7.6778219773392316,-18.44315671975751,-2.174675481560822,-14.477929737140041C3.328471014217588,-10.512702754522572,-0.32875686286850136,13.687032293204833,7.04595785922113,15.598621619190409C14.420672581310761,17.51021094517598,32.82732990257612,-2.866345450580276,33.332867184344046,-2.8611628421267206C33.83840446611198,-2.855980233673165,16.442821708382493,17.530941378990203,8.424886170487984,23.255469369237503C0.40695063259347375,28.9799973594848,1.7666623145339428,20.042131727316022,-3.9449252816588105,14.796278336798684C-9.656512877851565,9.550424946281346,-22.43939975217754,7.996583797415443,-25.846438674597533,7.188418518061145C-29.253477597017525,6.380253238706847,-23.284668567531536,6.317763828864153,-17.746349332675166,8.228922854546806C-12.208030097818797,10.14008188022946,-7.1002006575920475,14.024889341437461,-1.4714172965052255,11.770342423429348C4.157366064581597,9.515795505421234,10.307103346528493,1.1218942081970056,14.021553466334357,-7.119886697886131C17.73600358614022,-15.361667603969268,19.015166543805055,-23.451328118911313,15.300457641023623,-20.155485773620395C11.58574873824219,-16.859643428329477,2.8771679750144914,-2.178298222805598,-0.5837474229762759,4.3648340038001745C-4.044662820967043,10.907966230405947,-2.2579128537208795,9.312885478093612,5.095010596179234,-2.3388147798954178C12.447934046079348,-13.990515037884448,25.367030978633412,-35.69883480155017,34.77359238664586,-33.36571394790092C44.1801537946583,-31.032593094251666,50.07417967812913,-4.658031623287432,44.20161373092141,0.759593379309857C38.32904778371369,6.177218381907146,20.689890005827436,-9.36209308386251,10.90994789716492,-12.01499950689078C1.1300057885024086,-14.667905929919048,-0.7907206509363589,-4.434407310205931,-2.35652648381975,-0.48774700738129717C-3.922332316703142,3.458913295443337,-5.133217543031157,1.1187352813794886,-5.738660156195165,-0.051353725652435706L-6.344102769359173,-1.22144273268436" />
  </g>
</svg>
