<?xml version="1.0" encoding="UTF-8" standalone="no"?>
<svg
   xmlns:dc="http://purl.org/dc/elements/1.1/"
   xmlns:cc="http://creativecommons.org/ns#"
   xmlns:rdf="http://www.w3.org/1999/02/22-rdf-syntax-ns#"
   xmlns:svg="http://www.w3.org/2000/svg"
   xmlns="http://www.w3.org/2000/svg"
   version="1.1"
   id="svg2"
   height="300"
   width="300"
   preserveAspectRatio="xMidYMid"
   viewBox="0 0 300 300">
  <metadata
     id="metadata27">
    <rdf:RDF>
      <cc:Work
         rdf:about="">
        <dc:format>image/svg+xml</dc:format>
        <dc:type
           rdf:resource="http://purl.org/dc/dcmitype/StillImage" />
      </cc:Work>
    </rdf:RDF>
  </metadata>
  <defs
     id="defs25" />
  <filter
     y="-50%"
     x="-50%"
     height="500"
     width="300"
     id="xtnvg">
    <feFlood
       id="feFlood5"
       result="element"
       flood-color="#B07080" />
    <feTurbulence
       id="feTurbulence7"
       result="element_1"
       seed="45"
       numOctaves="8"
       type="fractalNoise"
       baseFrequency="0.02" />
    <feGaussianBlur
       id="feGaussianBlur9"
       result="element_2"
       in="SourceAlpha"
       stdDeviation="4" />
    <feDisplacementMap
       id="feDisplacementMap11"
       result="element_3"
       in2="element_1"
       in="element_2"
       scale="100" />
    <feComposite
       id="feComposite13"
       result="element_4"
       in2="element_3"
       in="element"
       operator="in" />
    <feMerge
       id="feMerge15">
      <feMergeNode
         id="feMergeNode17"
         in="element_4" />
    </feMerge>
  </filter>
  <g
     id="g19"
     transform="translate(150,150) scale(1.5)">
    <path
       id="path21"
       style="filter: url(#xtnvg); stroke: rgb(176, 112, 128);"
       d="M0,0L3.2426609140007607,-1.278154096749866C6.4853218280015215,-2.556308193499732,12.970643656003043,-5.112616386999464,12.162166325630027,-5.30491532845511C11.353688995257013,-5.497214269910755,3.2514125065094603,-3.3255039593223144,0.4313174765076192,-0.540228415605307C-2.388777553494222,2.245047128111701,0.0733088752496478,5.643887904957276,-0.6575510037380319,12.591517311715151C-1.3884108827257116,19.539146718473027,-5.312217069444941,30.03556475514321,-0.5209347553387378,20.980505532299382C4.270347558767464,11.925446309455555,17.776718373699097,-16.681090172902277,19.811758028048374,-21.53798209185239C21.84679768239765,-26.394874010802496,12.41050617616457,-7.502121366344882,16.013136094236053,-2.212498307857021C19.61576601230754,3.0771247506308406,36.257317354683586,-5.23638177685105,35.33269961197223,-8.131657258551153C34.40808186926088,-11.026932740251253,15.917295041462125,-8.503977176169567,11.554915620861198,-6.142450511298165C7.192536200260272,-3.7809238464267634,16.958564186857174,-1.580826080765648,9.96357456875382,6.374126534635183C2.968584950650465,14.329079150036014,-20.787422272153144,28.03888661517656,-30.032308460277335,28.398444747231984C-39.27719464840152,28.75800287928741,-34.01095980184629,15.767311678257713,-27.31439117731223,8.934000656641794C-20.61782255277817,2.100689635025875,-12.490920150265275,1.424758792823733,-7.245856629595989,3.8622743110759843C-2.0007931089267035,6.299789829328236,0.36243152989897465,11.85075170803488,4.757785309743742,16.803436683665137C9.153139089588509,21.756121659295392,15.580622010452364,26.11052973184926,16.668292807837496,19.091307366691176C17.755963605222632,12.072085001533093,13.50382227912904,-6.320767801336942,8.457701855958597,-11.154884071695427C3.4115814327881555,-15.989000342053913,-2.428518087459139,-7.264380079900849,-3.5519603629191643,2.1230839324036315C-4.67540263837919,11.510547944708112,-1.0821876690519447,21.56085570716401,2.2338945464744677,11.782431503329935C5.54997676200088,2.0040072994958607,8.58892622372646,-27.603148870628186,4.186809936054878,-26.82490422951257C-0.21530635161670464,-26.046659588396953,-12.05848838868545,5.116985863958327,-15.702885750601922,8.814280630231796C-19.34728311251839,12.511575396505263,-14.792895799282585,-11.25748052330308,-10.914372382031544,-15.06992504646629C-7.035848964780501,-18.882369569629496,-3.8331894435142244,-2.738202696147569,-1.7233590279014226,-4.261532430119968C0.38647138771137907,-5.784862164092367,1.403472697670705,-24.97568850551909,3.277272406746986,-27.44068241013701C5.151072115823267,-29.90567631475494,7.881670224016502,-15.644837782564057,6.55439282045169,0.25437438253396394C5.227115416886878,16.153586547631985,-0.1580374984359807,33.69117234563715,-7.058348484617201,32.3897165784815C-13.958659470798422,31.088260811325846,-22.374128527838003,10.947763479009382,-28.112029661131636,5.960163400300863C-33.849930794425276,0.9725633215923448,-36.910264003972955,11.137860496491772,-24.62733179388053,9.268402039721417C-12.344399583788093,7.398943582951063,15.28179804594446,-6.505270505489074,22.54221232090362,-12.008164789981663C29.802626595862776,-17.511059074474254,16.69725751604854,-14.612633555019297,0.998433902243347,-19.71007386803096C-14.700389711561847,-24.80751418104262,-32.992667859358,-37.9008203265209,-33.21087364805935,-27.767128868481144C-33.42907943676071,-17.63343741044139,-15.573212866367264,15.727251651116404,-9.286841709489178,23.723169156561543C-3.0004705526110937,31.71908666200668,-8.28359480924837,14.350232611339163,-8.800191550870474,-3.1221954687470515C-9.316788292492577,-20.594623548833265,-5.066857519099508,-38.170625658338174,-0.19310921384924207,-37.68694985901054C4.680639091401023,-37.203274059682904,10.178204928508485,-18.659920351522718,7.199263606601523,-6.9992558206291955C4.220322284694562,4.661408710264327,-7.235126196226823,9.439384063891188,-10.99312397548858,7.285999750950169C-14.751121754750336,5.132615438009152,-10.811668832352463,-3.9521285414997447,-8.841942371153525,-8.494500531254193L-6.8722159099545905,-13.036872521008643" />
  </g>
</svg>
