<svg viewBox="0 0 300 300" preserveAspectRatio="xMidYMid" width="300" height="300"><filter id="vezlv" width="300" height="500" x="-50%" y="-50%"><feFlood flood-color="#5946b2" result="element"></feFlood><feTurbulence baseFrequency="0.02" type="fractalNoise" numOctaves="8" seed="59" result="element_1"></feTurbulence><feGaussianBlur stdDeviation="5" in="SourceAlpha" result="element_2"></feGaussianBlur><feDisplacementMap scale="100" in="element_2" in2="element_1" result="element_3"></feDisplacementMap><feComposite operator="in" in="element" in2="element_3" result="element_4"></feComposite><feMerge><feMergeNode in="element_4"></feMergeNode></feMerge></filter><g transform="translate(150,150) scale(1.5)"><path d="M0,0L4.479645009071703,-0.049995667641192024C8.959290018143406,-0.09999133528238405,17.918580036286812,-0.1999826705647681,13.36445319227799,6.530090628996242C8.810326348269168,13.260163928557253,-9.257217357891882,26.82030186296166,-19.179530709759746,29.407687044809165C-29.101844061627613,31.995072226656667,-30.878927059202294,23.609704655947272,-30.864213879414606,8.044110387816975C-30.849500699626923,-7.521483880313324,-29.042991342476874,-30.267304845864526,-18.96246723732993,-41.426238601680794C-8.881943132182977,-52.58517235749706,9.47259572096087,-52.157218903578396,11.833285313210942,-38.48694152463478C14.193974905461012,-24.816664145691153,0.5608152368173052,2.095937158277426,-4.771651954923422,6.862216487472868C-10.10411914666415,11.62849581666831,-7.135893861501898,-5.751546828909383,-4.551568574724754,-3.7741712676948485C-1.967243287947611,-1.7967957064803137,0.2331820004444245,19.53799806152645,6.512726810323071,20.647122258963794C12.792271620201717,21.75624645640114,23.15093595156697,2.639701083269065,15.893953988258541,-4.077790287956018C8.63697202495011,-10.795281659181102,-16.23565623303201,-5.113719028499196,-21.11145173866063,-3.495474465172217C-25.98724724428925,-1.8772299018452379,-10.866209997564368,-4.322303405873186,-6.826232803349945,2.661706333614333C-2.7862556091355204,9.645716073101852,-9.827338467431552,26.05880905610484,-13.847387226760917,19.554285390787562C-17.867435986090282,13.04976172547029,-18.866450646452982,-16.37237858816725,-12.681730980543648,-26.662665501957576C-6.497011314634312,-36.9529524157479,6.871442677547055,-28.111385929691014,0.7593686237524793,-21.997058551587738C-5.352705430042096,-15.882731173484462,-30.945307529812617,-12.495642903334797,-33.54275714926306,-14.847439316436173C-36.14020676871352,-17.199235729537552,-15.7425039078439,-25.289916825889968,0.48369457287071604,-30.62707147382418C16.709893053585333,-35.964226121758394,28.764587154144948,-38.5478543212744,24.303054185875553,-25.255561583257595C19.841521217606164,-11.96326884524079,-1.1362388194922328,17.204944830308825,-7.674519179497623,19.559413210368604C-14.212799539503013,21.91388159042838,-6.311600222415397,-2.545395325001678,-8.948259218144688,-11.39485567315358C-11.58491821387398,-20.244316021305483,-24.75943552242018,-13.483959802179232,-16.69351387144458,-8.852915689447011C-8.627592220468983,-4.221871576714792,20.678768390028413,-1.7201395703766054,26.342020052382708,-7.044952746968954C32.005271714737006,-12.369765923561301,14.0254144289482,-25.521124283084184,3.412845700911447,-21.30947839046732C-7.199723027125306,-17.097832497850455,-10.445003197410008,4.476817646906163,-10.333877734850262,9.360090537945544C-10.222752272290517,14.243363428984926,-6.755221176886325,2.435259066307073,-13.209211546706076,-2.643345660865007C-19.663201916525825,-7.721950388037087,-36.03871375156952,-6.0710554797033955,-32.98153223064824,0.1840999854716978C-29.924350709726962,6.439255450646792,-7.434475832840713,17.298671472663287,2.436101482275556,20.23831183941398C12.306678797391825,23.17795220616468,9.557958550738114,18.197816917649575,10.442318016179929,6.976407471634214C11.326677481621747,-4.245001974381147,15.844116659159091,-21.70768557789677,20.68014984404109,-19.352078675694898C25.516183028923088,-16.996471773493024,30.670810221149736,5.177425634426342,26.734606275390348,13.157750998200129C22.798402329630957,21.138076361973916,9.771367245885529,14.92482968160212,10.951891679911409,14.728078899462087C12.132416113937289,14.531328117322055,27.520500065734478,20.351073233413786,20.03330069160682,19.6307673582848C12.54610131747916,18.91046148315581,-17.81638138257335,11.65010461680611,-27.354815358681996,9.66636156369779C-36.893249334790646,7.682618510589471,-25.607634586955434,10.975489270722534,-18.72869600967205,12.743478335900164C-11.849757432388666,14.511467401077798,-9.377495025657113,14.7545747713,-14.603773774080757,15.572258144118349C-19.8300525225044,16.389941516936698,-32.75487242608324,17.782200892351195,-39.21728237787266,18.478330580058444L-45.679692329662075,19.174460267765692" style="filter: url(#vezlv); stroke: rgb(89, 70, 178);"></path></g></svg>