<?xml version="1.0" encoding="UTF-8" standalone="no"?>
<svg
   xmlns:dc="http://purl.org/dc/elements/1.1/"
   xmlns:cc="http://creativecommons.org/ns#"
   xmlns:rdf="http://www.w3.org/1999/02/22-rdf-syntax-ns#"
   xmlns:svg="http://www.w3.org/2000/svg"
   xmlns="http://www.w3.org/2000/svg"
   version="1.1"
   id="svg2"
   height="300"
   width="300"
   preserveAspectRatio="xMidYMid"
   viewBox="0 0 300 300">
  <metadata
     id="metadata27">
    <rdf:RDF>
      <cc:Work
         rdf:about="">
        <dc:format>image/svg+xml</dc:format>
        <dc:type
           rdf:resource="http://purl.org/dc/dcmitype/StillImage" />
      </cc:Work>
    </rdf:RDF>
  </metadata>
  <defs
     id="defs25" />
  <filter
     y="-50%"
     x="-50%"
     height="500"
     width="300"
     id="qqlbl">
    <feFlood
       id="feFlood5"
       result="element"
       flood-color="#ff85cf" />
    <feTurbulence
       id="feTurbulence7"
       result="element_1"
       seed="14"
       numOctaves="8"
       type="fractalNoise"
       baseFrequency="0.02" />
    <feGaussianBlur
       id="feGaussianBlur9"
       result="element_2"
       in="SourceAlpha"
       stdDeviation="4" />
    <feDisplacementMap
       id="feDisplacementMap11"
       result="element_3"
       in2="element_1"
       in="element_2"
       scale="100" />
    <feComposite
       id="feComposite13"
       result="element_4"
       in2="element_3"
       in="element"
       operator="in" />
    <feMerge
       id="feMerge15">
      <feMergeNode
         id="feMergeNode17"
         in="element_4" />
    </feMerge>
  </filter>
  <g
     id="g19"
     transform="translate(150,150) scale(1.5)">
    <path
       id="path21"
       style="filter: url(#qqlbl); stroke: rgb(255, 133, 207);"
       d="M0,0L3.0520417353846305,-3.0796722568545047C6.104083470769261,-6.1593445137090095,12.208166941538522,-12.318689027418019,11.237843090971834,-12.281415453820774C10.267519240405147,-12.244141880223529,2.2227880685025094,-6.010250219320028,5.620943714045039,-4.807947700096232C9.019099359587567,-3.6056451808724375,23.86014182257526,-7.434931803328348,27.88366111166795,-6.391253133743866C31.907180400760645,-5.347574464159383,25.113176515958333,0.5690694974654926,14.06121519980218,-6.499275918141473C3.0092538836460303,-13.567621333748438,-12.300664863863961,-33.620956126587245,-9.754115240079797,-41.79438352939412C-7.207565616295632,-49.96781093220099,13.195452378782688,-46.26133094497594,13.459563998105914,-29.657879597855846C13.723675617429135,-13.054428250735745,-6.151119139002738,16.445994456279394,-12.371488041806012,19.788578619230023C-18.591856944609287,23.13116278218066,-11.157799993783964,0.3159084010667854,-3.78754503853588,-0.3979985667414079C3.5827099167122043,-1.1119055345496012,10.88916287638305,20.275534910947886,11.723566798070102,28.34511643710416C12.557970719757153,36.41469796326044,6.9203256034604115,31.166420570075495,-0.05584455269248467,21.890044053362054C-7.03201470884538,12.613667536648617,-15.34670990485443,-0.6908081035933229,-13.743253895421226,-10.571011860719835C-12.139797885988024,-20.451215617846348,-0.6181906711125684,-26.907147491857433,3.3685286711055764,-29.93098612791696C7.355248013323721,-32.95482476397649,3.807079482884555,-32.54657016208445,3.33792533254656,-27.079168305519303C2.868771182208565,-21.61176644895415,5.478631411971741,-11.085217337715875,4.5239188969256166,-14.357569422513205C3.5692063818794937,-17.62992150731053,-0.9500788779759302,-34.70117478814346,-10.236146111202341,-40.3780692543219C-19.522213344428753,-46.05496372050034,-33.57506255102615,-40.3374993720243,-40.829137049354316,-27.629313944257735C-48.083211547682495,-14.921128516491173,-48.53851133774144,4.777777990565905,-39.829407462992435,4.819832445967119C-31.120303588243438,4.861886901368333,-13.246796048686498,-14.752910694886317,-2.78523548657484,-21.996076818115824C7.676325075536818,-29.23924294134533,10.725938660203193,-24.110777591549695,19.890806419732876,-14.858773167049055C29.055674179262557,-5.606768742548417,44.33579611365555,7.7687747566572245,46.41418387361176,15.825113658642064C48.49257163356798,23.8814525606269,37.36922521908742,26.618586865390935,26.99989250171817,21.252454804759978C16.630559784348915,15.886322744129018,7.0152407640909695,2.4169243181030655,4.466678384096415,-5.8858876923015355C1.918116004101861,-14.188699702706135,6.436310264370698,-17.324925297489386,9.305412201579404,-12.963998799557299C12.174514138788108,-8.603072301625211,13.394523752936683,3.2550062890222113,8.331144348879397,11.053453566881156C3.267764944822108,18.8519008447401,-8.079003477441042,22.590716809810566,-7.000576779643469,16.81840529772759C-5.922150081845895,11.046093785644615,7.581471736012402,-4.237345203591804,15.368318512314234,-6.516789517492447C23.155165288616068,-8.79623383139309,25.225237023361434,1.9283165300420428,21.540677472907134,5.689236761303944C17.85611792245283,9.450156992565844,8.416927086798864,6.247447093654513,5.286900717913726,4.432752000968257C2.1568743490285884,2.6180569082820013,5.336012446912283,2.1913766218208206,2.9034256411182113,0.10476951390057776C0.4708388353241393,-1.981837594019665,-7.573472874147699,-5.7283715233989705,-9.627472676077849,-7.053110603021369C-11.681472478007995,-8.377849682643767,-7.745160372396454,-7.280793912509258,-10.807708361283154,-5.1479619096569715C-13.870256350169853,-3.0151299068046873,-23.931664433554793,0.15347832876537426,-25.331654309623623,-8.41189674321266C-26.73164418569246,-16.977271815190694,-19.470215854445186,-37.27663019471682,-14.30241787125559,-38.01036649639496C-9.134619888065997,-38.74410279807309,-6.060452252934083,-19.91221702190322,-10.761096339841068,-10.523796724802871C-15.461740426748051,-1.135376427702525,-27.937196235693932,-1.1904216096716986,-34.17492414016687,-1.2179442006562855L-40.41265204463981,-1.2454667916408724" />
  </g>
</svg>
