<?xml version="1.0" encoding="UTF-8" standalone="no"?>
<svg
   xmlns:dc="http://purl.org/dc/elements/1.1/"
   xmlns:cc="http://creativecommons.org/ns#"
   xmlns:rdf="http://www.w3.org/1999/02/22-rdf-syntax-ns#"
   xmlns:svg="http://www.w3.org/2000/svg"
   xmlns="http://www.w3.org/2000/svg"
   version="1.1"
   id="svg2"
   height="300"
   width="300"
   preserveAspectRatio="xMidYMid"
   viewBox="0 0 300 300">
  <metadata
     id="metadata27">
    <rdf:RDF>
      <cc:Work
         rdf:about="">
        <dc:format>image/svg+xml</dc:format>
        <dc:type
           rdf:resource="http://purl.org/dc/dcmitype/StillImage" />
      </cc:Work>
    </rdf:RDF>
  </metadata>
  <defs
     id="defs25" />
  <filter
     y="-50%"
     x="-50%"
     height="500"
     width="300"
     id="pwspe">
    <feFlood
       id="feFlood5"
       result="element"
       flood-color="#fe4eda" />
    <feTurbulence
       id="feTurbulence7"
       result="element_1"
       seed="91"
       numOctaves="8"
       type="fractalNoise"
       baseFrequency="0.02" />
    <feGaussianBlur
       id="feGaussianBlur9"
       result="element_2"
       in="SourceAlpha"
       stdDeviation="4" />
    <feDisplacementMap
       id="feDisplacementMap11"
       result="element_3"
       in2="element_1"
       in="element_2"
       scale="100" />
    <feComposite
       id="feComposite13"
       result="element_4"
       in2="element_3"
       in="element"
       operator="in" />
    <feMerge
       id="feMerge15">
      <feMergeNode
         id="feMergeNode17"
         in="element_4" />
    </feMerge>
  </filter>
  <g
     id="g19"
     transform="translate(150,150) scale(1.5)">
    <path
       id="path21"
       style="filter: url(#pwspe); stroke: rgb(254, 78, 218);"
       d="M0,0L1.6307764621854404,-4.902067520410335C3.2615529243708807,-9.80413504082067,6.5231058487417615,-19.60827008164134,11.814426846648622,-22.017176913864432C17.10574784455548,-24.426083746087528,24.426836915998322,-19.439762369713044,19.573827559695175,-13.513841438815248C14.720818203392032,-7.587920507917451,-2.306289580657099,-0.7224000224963376,-10.787380469287326,-5.127903554262117C-19.268471357917555,-9.533407086027896,-19.20354535112888,-25.20993463498057,-11.680798925310446,-24.747359794582476C-4.158052499492014,-24.284784954184378,10.82251434535618,-7.6831077244355175,19.417125181281428,-0.6707042996774748C28.011736017206672,6.341699125080568,30.220390844208975,3.764828744847792,26.731329502935047,-1.8770240690698925C23.242268161661112,-7.518876882987578,14.055490652110947,-16.22571213059017,4.8755775811303375,-17.348123140063983C-4.3043354898502715,-18.47053414953779,-13.477384122261327,-12.008520920882818,-8.465304011599585,-6.441671396673373C-3.4532239009378447,-0.8748218724639272,15.743984952796692,3.7968639472999897,16.417985629844743,11.587036109346261C17.091986306892792,19.377208271392533,-0.7572211927456411,30.28586677572116,-6.352552267969171,20.898455879961745C-11.9478833431927,11.511044984202325,-5.289337994001325,-18.17243531164514,-3.2072444423855986,-24.629635625951387C-1.1251508907698722,-31.086835940257632,-3.6195091367297954,-14.317756273022665,5.33414689169776,-5.5035976010293775C14.287802920125314,3.3105610709639093,34.68947322294034,4.169798747715516,39.85059498945,3.9000913318237074C45.011716755959654,3.630383915931899,34.93228998616394,2.2317314073966745,27.896063660665654,0.25315587367434134C20.85983733516737,-1.7254196600479923,16.86681145396652,-4.283918218957435,11.799374557427257,-6.214150070470715C6.731937660887994,-8.144381921983994,0.5900897490103172,-9.446347066101112,-1.239633671036066,-8.112035600936913C-3.0693570910824493,-6.777724135772716,-0.5869560192975385,-2.807136061327205,-1.5266025795741336,-0.14157612386608798C-2.4662491398507287,2.523983813595029,-6.827943332188829,3.884515614071752,-7.885489147111256,4.79941270077026C-8.943034962033684,5.7143097874687685,-6.696432399540438,6.183572160389062,-6.5293607243599565,0.630283810328307C-6.362289049179475,-4.923004539732448,-8.27474826131176,-16.49884361277425,-9.682983728501812,-20.358944470398427C-11.091219195691865,-24.219045328022602,-11.995230917939686,-20.36340797022915,-7.779302368018546,-15.512762518594286C-3.5633738180974035,-10.66211706695942,5.772495003992701,-4.816463521483141,9.295856222868057,3.006656509550864C12.81921744174341,10.82977654058487,10.530071057404014,20.630363057176602,17.35621945548764,24.69457644324511C24.182367853571268,28.75878982931362,40.12381103407792,27.086630084858907,42.52019644714166,18.568318141821507C44.9165818602054,10.050006198784105,33.767909505826225,-5.314457942835983,22.522800002371376,-5.9164312316783665C11.277690498916527,-6.5184045205207495,-0.06385615361400188,7.642113043414572,-4.113705784517928,11.074901842152304C-8.163555415421856,14.507690640890035,-4.92170802469918,7.212750674430177,-11.719664271461747,12.20287242957685C-18.517620518224316,17.19299418472352,-35.35538040247212,34.46817766147672,-35.61912306603447,34.61374107407775C-35.8828657295968,34.759304486678786,-19.572591172473672,17.775247835127647,-8.87938675424343,4.765433685159575C1.8138176639868093,-8.244380464808497,6.88995194332416,-17.279952113193502,9.642796613221536,-17.367752934152342C12.395641283118913,-17.45555375511118,12.825196343576316,-8.595583748643852,2.875079082922654,3.4215337552369833C-7.075038177731008,15.43865125911782,-27.40482775949573,30.612916260412167,-21.221813028764434,31.631573311219398C-15.038798298033132,32.65023036202663,17.657020745194195,19.51327946234676,31.828932988433657,12.479986517157933C46.00084523167312,5.446693571969103,41.64885067492472,4.517058581271321,40.29424206180556,6.396710486476606C38.93963344868641,8.276362391681891,40.5824107791965,12.965301192790243,41.40379944445154,15.30977059334442L42.22518810970659,17.654239993898596" />
  </g>
</svg>
