<?xml version="1.0" encoding="UTF-8" standalone="no"?>
<svg
   xmlns:dc="http://purl.org/dc/elements/1.1/"
   xmlns:cc="http://creativecommons.org/ns#"
   xmlns:rdf="http://www.w3.org/1999/02/22-rdf-syntax-ns#"
   xmlns:svg="http://www.w3.org/2000/svg"
   xmlns="http://www.w3.org/2000/svg"
   version="1.1"
   id="svg2"
   height="300"
   width="300"
   preserveAspectRatio="xMidYMid"
   viewBox="0 0 300 300">
  <metadata
     id="metadata27">
    <rdf:RDF>
      <cc:Work
         rdf:about="">
        <dc:format>image/svg+xml</dc:format>
        <dc:type
           rdf:resource="http://purl.org/dc/dcmitype/StillImage" />
      </cc:Work>
    </rdf:RDF>
  </metadata>
  <defs
     id="defs25" />
  <filter
     y="-50%"
     x="-50%"
     height="500"
     width="300"
     id="bwqgy">
    <feFlood
       id="feFlood5"
       result="element"
       flood-color="#9d81ba" />
    <feTurbulence
       id="feTurbulence7"
       result="element_1"
       seed="8"
       numOctaves="8"
       type="fractalNoise"
       baseFrequency="0.02" />
    <feGaussianBlur
       id="feGaussianBlur9"
       result="element_2"
       in="SourceAlpha"
       stdDeviation="4" />
    <feDisplacementMap
       id="feDisplacementMap11"
       result="element_3"
       in2="element_1"
       in="element_2"
       scale="100" />
    <feComposite
       id="feComposite13"
       result="element_4"
       in2="element_3"
       in="element"
       operator="in" />
    <feMerge
       id="feMerge15">
      <feMergeNode
         id="feMergeNode17"
         in="element_4" />
    </feMerge>
  </filter>
  <g
     id="g19"
     transform="translate(150,150) scale(1.5)">
    <path
       id="path21"
       style="filter: url(#bwqgy); stroke: rgb(157, 129, 186);"
       d="M0,0L8.133148077453889,0.3338727426028931C16.266296154907778,0.6677454852057862,32.532592309815556,1.3354909704115725,37.29223150814524,0.36934823518598037C42.05187070647492,-0.5967945000396118,35.30485294822651,-3.1968254556965823,27.651350258173547,-7.977837713516173C19.99784756812058,-12.758849971335763,11.437859946263053,-19.720843531317975,13.39494455879201,-18.64296740471825C15.352029171320966,-17.565091278118526,27.826186018236406,-8.447345464936866,27.713502558829184,-1.8518954843963291C27.600819099421965,4.743554496144208,14.901295333692083,8.816708644043622,10.9445674572395,8.36397120040023C6.9878395807869165,7.911233756756835,11.77390759361163,2.9326047215706343,14.467175989612805,1.5539862303872773C17.160444385613978,0.17536773920392057,17.76091316479161,2.396759792023408,15.932326716276737,5.904152161528569C14.103740267761864,9.41154453103373,9.846098591554483,14.204937217224566,6.833581477113982,14.642635521527417C3.821064362673479,15.08033382583027,2.0536718099998548,11.162337748245136,5.778554891391845,5.585679800120923C9.503437972783837,0.009021851996711128,18.720596688241443,-7.226297966666581,20.11032947067966,-6.213709280724326C21.50006225311788,-5.201120594782072,15.062369102536707,4.0593765957657295,9.915964882089254,1.424482736232064C4.769560661641801,-1.2104111233016024,0.9144453713280671,-15.740696032916736,4.548100547447896,-17.880468288046927C8.181755723567726,-20.020240543177124,19.304181366121117,-9.769500143822379,24.855537187018363,-1.0801252946180333C30.406893007915606,7.609249554586311,30.387179007156703,14.737258853640254,34.05127614284791,10.694464619000955C37.71537327853912,6.6516703843616565,45.06328155068043,-8.561927383970886,38.3374660218348,-9.302678621484123C31.611650492989178,-10.04342985899736,10.812111163156608,3.6886654343087066,-1.496196215510739,3.7957642159728193C-13.804503594178085,3.902862997636932,-17.62157902168021,-9.61503473234091,-19.892383198017665,-12.003553637920502C-22.16318737435512,-14.392072543500095,-22.887720299527913,-5.651212624681442,-19.881865385693043,1.2639519930127037C-16.876010471858173,8.17911661070685,-10.139767719015644,13.268585927276487,-0.06024372014031254,14.90649538007371C10.019280278735021,16.54440483287094,23.442085523643154,14.730754421895751,24.421754560633868,18.124161694572283C25.40142359762458,21.51756896724882,13.93795642669787,30.118033923577073,11.976615438381344,29.86953802062924C10.01527445006482,29.621042117681412,17.55605964435848,20.5235853554575,10.422779880247342,17.118289600989236C3.2895001161361996,13.712993846520973,-18.517844606379743,15.999859099808363,-22.775032106607338,15.872003638338205C-27.03221960683493,15.744148176868045,-13.739249884774173,13.201572000640336,-8.684710506458039,5.552953986554877C-3.6301711281419062,-2.0956640275305842,-6.814062093570395,-14.850323879473798,-3.533377900930474,-16.534294556090796C-0.25269370829055227,-18.218265232707793,9.49256564241778,-8.831546733998575,18.014158606429394,-1.5937484361290433C26.535751570441008,5.644049861740489,33.833678147755904,10.732927958770334,28.995668532536488,2.8116584206106428C24.157658917317065,-5.109611117549049,7.1837131095633255,-26.04102829089828,-1.801763866298951,-28.57107602590891C-10.787240842161228,-31.10112376091954,-11.78424898613204,-15.229802057591574,-12.040907213327312,-12.959303661008299C-12.297565440522582,-10.688805264425028,-11.813873750942312,-22.019130174586447,-7.337827804153526,-21.699324981362466C-2.861781857364738,-21.37951978813848,5.606618346632565,-9.40958449152909,9.078358696695997,-1.1075239320780241C12.550099046759426,7.194536627373043,11.025179542888985,11.828722449665786,17.48657881275173,10.072289133632225C23.94797808261448,8.315855817598663,38.39569612621042,0.16880336323879774,44.54271047912917,-0.4083907406375502C50.689724832047915,-0.9855848445138982,48.53603549428948,6.0070794020932725,39.769982002174245,5.995645037706429C31.003928510059016,5.984210673319586,15.62551086358699,-1.0313223020612723,7.936302040350979,-4.539088789751701L0.2470932171149665,-8.04685527744213" />
  </g>
</svg>
