<?xml version="1.0" encoding="UTF-8" standalone="no"?>
<svg
   xmlns:dc="http://purl.org/dc/elements/1.1/"
   xmlns:cc="http://creativecommons.org/ns#"
   xmlns:rdf="http://www.w3.org/1999/02/22-rdf-syntax-ns#"
   xmlns:svg="http://www.w3.org/2000/svg"
   xmlns="http://www.w3.org/2000/svg"
   version="1.1"
   id="svg2"
   height="300"
   width="300"
   preserveAspectRatio="xMidYMid"
   viewBox="0 0 300 300">
  <metadata
     id="metadata27">
    <rdf:RDF>
      <cc:Work
         rdf:about="">
        <dc:format>image/svg+xml</dc:format>
        <dc:type
           rdf:resource="http://purl.org/dc/dcmitype/StillImage" />
      </cc:Work>
    </rdf:RDF>
  </metadata>
  <defs
     id="defs25" />
  <filter
     y="-50%"
     x="-50%"
     height="500"
     width="300"
     id="lzejs">
    <feFlood
       id="feFlood5"
       result="element"
       flood-color="#7442c8" />
    <feTurbulence
       id="feTurbulence7"
       result="element_1"
       seed="99"
       numOctaves="8"
       type="fractalNoise"
       baseFrequency="0.02" />
    <feGaussianBlur
       id="feGaussianBlur9"
       result="element_2"
       in="SourceAlpha"
       stdDeviation="5" />
    <feDisplacementMap
       id="feDisplacementMap11"
       result="element_3"
       in2="element_1"
       in="element_2"
       scale="100" />
    <feComposite
       id="feComposite13"
       result="element_4"
       in2="element_3"
       in="element"
       operator="in" />
    <feMerge
       id="feMerge15">
      <feMergeNode
         id="feMergeNode17"
         in="element_4" />
    </feMerge>
  </filter>
  <g
     id="g19"
     transform="translate(150,150) scale(1.5)">
    <path
       id="path21"
       style="filter: url(#lzejs); stroke: rgb(116, 66, 200);"
       d="M0,0L1.2859726387482535,-0.0592557814427841C2.571945277496507,-0.1185115628855682,5.143890554993014,-0.2370231257711364,5.828700870134331,4.195954972105841C6.5135111852756475,8.628933069982818,5.311186538061774,17.61340082862234,4.124305249835399,26.933360712313593C2.9374239616090243,36.25332059600484,1.7659860323701477,45.908772604747824,3.808304627792231,42.63855447156237C5.850623223214313,39.36833633837692,11.106698343297357,23.17244806326304,4.884102323747619,21.450338379703513C-1.338493695802116,19.728228696143987,-19.039760854984632,32.47989760413882,-17.888718127289884,29.86235667955781C-16.737675399595137,27.244815754976795,3.265677214976872,9.25806499781994,5.733378820841219,-4.121482232114995C8.201080426705566,-17.501029462049928,-6.866868976137749,-26.273373164762944,-14.505539691210434,-26.051919896320843C-22.14421040628312,-25.830466627878742,-22.353602433585174,-16.615216388281524,-22.550573076118713,-6.56462747896237C-22.747543718652253,3.4859614303567863,-22.932092976417273,14.371889009397883,-20.478901222220752,18.279731751999368C-18.025709468024232,22.187574494600852,-12.934776701866173,19.117332400762727,-3.430468900993847,11.86086394310659C6.073838899878478,4.604395485450455,19.991521735465067,-6.838299336023687,21.34491718708558,-5.627280150895732C22.698312638706092,-4.416260965767776,11.487420706360526,9.448472225962277,11.711232559545163,14.603279656263833C11.935044412729797,19.75808708656539,23.593560051444634,16.202968755438445,30.83427229639815,10.972587133747876C38.07498454135167,5.742205512057309,40.89789339254386,-1.1634394001968849,31.01429124020354,-5.218646874978004C21.130689087863214,-9.273854349759125,-1.4594240680096249,-10.478624387067171,-0.9257915957987342,-3.18883951603741C-0.39215912358784344,4.1009453549923505,23.265218976706777,19.88528513435992,19.69961864954453,15.196868235734106C16.134018322382282,10.508451337108294,-14.65456043223683,-14.652722239510897,-24.958711775394455,-20.418111185507406C-35.26286311855208,-26.18350013150391,-25.08258705024822,-12.55310444687773,-14.655088352184325,-4.5572787620099735C-4.227589654120431,3.4385469228577827,6.447131673703497,5.799802607967115,5.570698788604746,10.0992613171527C4.694265903505992,14.398720026338285,-7.73332119451544,20.63638175960012,-10.443841824057909,15.307326287468525C-13.15436245360038,9.97827081533693,-6.147816614663886,-6.917501862188097,6.029781163321901,-13.638114094552709C18.207378941307688,-20.35872632691732,35.55602865834277,-16.90417811412152,33.80467555220414,-15.581429972832456C32.05332244606551,-14.25868183154339,11.201966516753174,-15.06773376176106,4.0074560006211515,-10.95552035721245C-3.1870545155108707,-6.843306952663841,3.2752803815374216,2.1901717866510477,-2.6507095055200143,11.649674648564496C-8.57669939257745,21.10917751047794,-26.891014063740613,30.99470449498995,-28.008752434065975,28.257720727756055C-29.126490804391338,25.52073696052216,-13.047652873878897,10.161242441542363,-9.040818498768719,5.209452525597013C-5.033984123658539,0.25766260965166277,-13.09915330395062,5.71357729674076,-20.00392451072795,4.986331868799129C-26.908695717505275,4.2590864408575,-32.653068950767846,-2.651319102114858,-27.897625384087526,0.10675915183760942C-23.142181817407206,2.864837405790076,-7.886921450783996,15.291399456667367,2.370398551539659,22.311462947892238C12.627718553863314,29.33152643911711,17.887098191887414,30.94509137068956,22.977279089457994,22.61619799510447C28.067459987028577,14.287304619519384,32.98844214414564,-3.984047063223244,30.353581393297492,-2.614175731888519C27.71872064244935,-1.2443044005537942,17.528016983636007,19.76678994485828,18.327924335138366,31.72273177786181C19.127831686640725,43.67867361086534,30.91835004845879,46.57946293146031,29.19681094615702,47.08788979146229C27.475271843855246,47.596316651464264,12.241675277433638,45.71238105087323,-1.1522824758267998,35.9387964560704C-14.546240229087237,26.16521186126757,-26.100559169186504,8.50197827225293,-31.877718639236136,-0.3296385222543887L-37.654878109285775,-9.161255316761709" />
  </g>
</svg>
