<?xml version="1.0" encoding="UTF-8" standalone="no"?>
<svg
   xmlns:dc="http://purl.org/dc/elements/1.1/"
   xmlns:cc="http://creativecommons.org/ns#"
   xmlns:rdf="http://www.w3.org/1999/02/22-rdf-syntax-ns#"
   xmlns:svg="http://www.w3.org/2000/svg"
   xmlns="http://www.w3.org/2000/svg"
   version="1.1"
   id="svg2"
   height="300"
   width="300"
   preserveAspectRatio="xMidYMid"
   viewBox="0 0 300 300">
  <metadata
     id="metadata27">
    <rdf:RDF>
      <cc:Work
         rdf:about="">
        <dc:format>image/svg+xml</dc:format>
        <dc:type
           rdf:resource="http://purl.org/dc/dcmitype/StillImage" />
      </cc:Work>
    </rdf:RDF>
  </metadata>
  <defs
     id="defs25" />
  <filter
     y="-50%"
     x="-50%"
     height="500"
     width="300"
     id="frvio">
    <feFlood
       id="feFlood5"
       result="element"
       flood-color="#9c51b6" />
    <feTurbulence
       id="feTurbulence7"
       result="element_1"
       seed="15"
       numOctaves="8"
       type="fractalNoise"
       baseFrequency="0.02" />
    <feGaussianBlur
       id="feGaussianBlur9"
       result="element_2"
       in="SourceAlpha"
       stdDeviation="4" />
    <feDisplacementMap
       id="feDisplacementMap11"
       result="element_3"
       in2="element_1"
       in="element_2"
       scale="100" />
    <feComposite
       id="feComposite13"
       result="element_4"
       in2="element_3"
       in="element"
       operator="in" />
    <feMerge
       id="feMerge15">
      <feMergeNode
         id="feMergeNode17"
         in="element_4" />
    </feMerge>
  </filter>
  <g
     id="g19"
     transform="translate(150,150) scale(1.5)">
    <path
       id="path21"
       style="filter: url(#frvio); stroke: rgb(156, 81, 182);"
       d="M0,0L2.5869746662838495,6.12869470769958C5.173949332567699,12.25738941539916,10.347898665135398,24.51477883079832,11.730141212835191,16.392107422190286C13.112383760534982,8.269436013582247,10.70291952336687,-20.233296219032987,15.669938875771003,-26.679190357160543C20.63695822817514,-33.1250844952881,32.98046117015152,-17.51414053892798,34.42201418569706,-2.9972351871343097C35.863567201242596,11.519670164659361,26.40317029035728,24.942536911886585,21.984395693262236,26.361855391190428C17.56562109616719,27.781173870494268,18.188468812862418,17.19694408187473,18.04399507508675,14.67809630412863C17.899521337311082,12.159248526382529,16.987726145064524,17.705782759509866,13.217240805953919,18.402775456495778C9.446755466843314,19.09976815348169,2.8175799808686612,14.947219314326178,-1.1205540671481669,8.602123703520821C-5.058688115164995,2.257028092715462,-6.305780725223999,-6.280614289739743,-0.408816979956768,-8.723543453265679C5.4881467653104625,-11.166472616791616,18.529166865903928,-7.514688561388283,20.309505548112416,-3.0947009110976387C22.089844230320907,1.3252867391930052,12.609501494144418,6.513477984370961,10.470826817074212,7.521200799853149C8.332152140004006,8.528923615335339,13.53514552204008,5.356178001121762,18.016780981258897,3.1970156913876724C22.498416440477712,1.0378533816535833,26.258693976879265,-0.10772562360101812,22.43467067542765,-3.5712306627723125C18.610647373976036,-7.034735701943607,7.202323234671255,-12.816166775031594,4.658249183282572,-18.259122684650634C2.114175131893889,-23.702078594269675,8.434351168421307,-28.80655934041977,0.9023485090257743,-22.21735916107549C-6.629654150369756,-15.628158981731204,-28.013835505688235,2.65472212310746,-21.86031936122635,1.3601002596552751C-15.706803216764463,0.06547839620309048,17.98441042747779,-20.806646435539943,22.625799352766624,-22.483357351956386C27.267188278055457,-24.16006826837283,2.858752484390866,-6.6413652694626855,-11.749049034528614,-5.5956119097551955C-26.356850553448094,-4.549858550047706,-31.164017797622463,-19.97705482954287,-35.31815465289611,-21.952832611810077C-39.472291508169754,-23.928610394077282,-42.97339797454268,-12.45296967911653,-36.01998577412103,-10.362153564355193C-29.066573573699394,-8.271337449593853,-11.658642706483196,-15.565345935031928,-7.446345255384956,-12.353532569996517C-3.234047804286715,-9.141719204961106,-12.217383769306432,4.575916010547793,-11.554093530396717,4.7123565617747785C-10.890803291487002,4.8487971130017655,-0.5808868486478556,-8.595957000053161,-3.5501206025150767,-11.031235690258981C-6.519354356382298,-13.466514380464801,-22.767738306955884,-4.892317647821516,-24.553835252148744,0.5459348216264672C-26.339932197341607,5.98418729107445,-13.663742137153738,8.286495497327131,-12.534296023569361,-0.0329593606538614C-11.404849909984982,-8.352414218634854,-21.822147743004095,-27.293632140849517,-20.603002520819913,-28.469834998034045C-19.38385729863574,-29.646037855218573,-6.528269021248272,-13.057225647372961,3.9560361199033274,-4.970366894617779C14.440341261054927,3.116491858137402,22.55336326597066,2.701397155802153,22.522600185922304,2.466178431290867C22.49183710587395,2.2309597067795806,14.31728894086151,2.175616960092257,17.082750591686487,1.4026759648051161C19.848212242511465,0.6297349695179751,33.55368370917386,-0.8608042743689834,29.180906287015393,-0.9565256057071149C24.808128864856926,-1.0522469370452465,2.3571025538775885,0.24684964416544897,-4.2056414655137715,0.8575397811623183C-10.768385484905131,1.4682299181591876,-1.442847212708517,1.390513610942231,3.7966110164067857,4.608960561424402C9.03606924552209,7.827407511906574,10.18944743155608,14.342017720087874,1.418017158937868,16.882770215616507C-7.353413113680341,19.42352271114514,-26.049651844950752,17.99041749402111,-20.1666488344431,16.78198555376381C-14.283645823935448,15.573553613506515,16.178598928350265,14.589794950115953,29.379342089634747,4.913746546243168C42.58008525091924,-4.762301857629616,38.5193268212025,-23.130640001984624,36.48894760634412,-32.31480907416213L34.458568391485755,-41.49897814633963" />
  </g>
</svg>
