<svg viewBox="0 0 300 300" preserveAspectRatio="xMidYMid" width="300" height="300"><filter id="mcjsa" width="300" height="500" x="-50%" y="-50%"><feFlood flood-color="#a6a6a6" result="element"></feFlood><feTurbulence baseFrequency="0.02" type="fractalNoise" numOctaves="8" seed="35" result="element_1"></feTurbulence><feGaussianBlur stdDeviation="5" in="SourceAlpha" result="element_2"></feGaussianBlur><feDisplacementMap scale="100" in="element_2" in2="element_1" result="element_3"></feDisplacementMap><feComposite operator="in" in="element" in2="element_3" result="element_4"></feComposite><feMerge><feMergeNode in="element_4"></feMergeNode></feMerge></filter><g transform="translate(150,150) scale(1.5)"><path d="M0,0L4.639946561734253,3.0985617901033677C9.279893123468506,6.1971235802067355,18.559786246937012,12.394247160413471,19.512571687774066,17.497998587928492C20.46535712861112,22.601750015443514,13.091034886816722,26.612129290266825,11.925238116124484,19.698584359295058C10.759441345432247,12.78503942832329,15.802170045842168,-5.0524297084435545,22.190140465063724,-17.481044527696092C28.57811088428528,-29.90965934694863,36.31132302231847,-36.92941984868686,37.53652456776343,-37.96556420595548C38.76172611320839,-39.0017085632241,33.47891706606513,-34.054236776023096,33.71847849003514,-26.294063173747524C33.95803991400515,-18.533889571471953,39.71997180908843,-7.961014154121808,27.950521098908396,-8.836511911880194C16.181070388728358,-9.712009669638581,-13.119762926714989,-22.0358806025055,-18.08049458741734,-20.259608299591854C-23.041226248119692,-18.48333599667821,-3.6618562540810444,-2.6069204579840015,4.863079720670783,6.142098070327942C13.388015695422611,14.891116598639886,11.058517650887621,16.512738116569565,13.131161916513605,14.514667080731702C15.203806182139592,12.516596044893838,21.678592757926552,6.898832455288428,19.574347225825402,8.675106635660907C17.47010169372425,10.451380816033383,6.786824053734986,19.62169276638375,-5.024593170851916,16.171846285495626C-16.83601039543882,12.72199980460751,-29.77556720462336,-3.348005107519093,-30.816915167365643,-11.1272318648876C-31.85826313010793,-18.906458622256107,-21.001402246407956,-18.39490722486652,-7.0516830855612245,-14.890117276604114C6.898036075285503,-11.385327328341708,23.94061351327899,-4.887298829206483,17.290734917880705,-1.6867163065471438C10.64085632248242,1.5138662161121959,-19.70147830630763,1.417002762295651,-26.777213207438663,1.6959035940369356C-33.85294810856969,1.97480442577822,-17.6620832820417,2.629469543077334,-7.578046911688071,5.118836062386471C2.5059894586655593,7.608202581695608,6.4831973728448276,11.932270503014767,2.847714047173433,10.257837897650115C-0.7877692784979624,8.583405292285462,-12.035943844020021,0.9104721602370018,-8.516751130481849,-7.412865877242213C-4.997558416943676,-15.736203914721427,13.289001575654728,-24.709946857631394,19.094846311759664,-22.934501074114745C24.900691047864594,-21.159055290598097,18.22582052747606,-8.634420780654835,5.299034259822102,-2.1085885546368015C-7.6277520078318535,4.417243671381232,-26.80645402275123,4.944273613474036,-23.13665648360977,7.380824050293248C-19.466858944468317,9.81737448711246,7.051438148733968,14.163445418658082,13.439979081562376,17.91647797954264C19.828520014390783,21.6695105404272,6.08730478684531,24.829504730650697,1.422570609884177,23.293241603962837C-3.242163567076956,21.756978477274977,1.169583306546249,15.524458033675756,-5.539783652846875,19.050478167884727C-12.249150612239998,22.5764983020937,-30.07963140464945,35.861059014110864,-29.6364032908239,35.29058183795903C-29.193175176998345,34.720104661807184,-10.476238156937788,20.29458959748634,-2.5785362311426634,11.293567931406217C5.319165694652461,2.292546265326092,2.397632526182152,-1.2839820025133126,-3.1977980578467817,-1.3820802361076088C-8.793228641875716,-1.4801784697019043,-17.062556641463274,1.9001533309489087,-18.541229733569185,9.708552821908697C-20.019902825675096,17.516952312868487,-14.707921010299358,29.75341949413725,-3.1753742245517627,36.368960770776894C8.357172561195835,42.984502047416534,26.110284317315294,43.97911741942705,26.996780806324267,37.32197913242463C27.88327729533324,30.66484084542221,11.903158517231724,16.35594889940685,-1.2370838605617722,7.264898872813886C-14.37732623835527,-1.826151153779079,-24.677692215840747,-5.699359260949651,-24.031804888729745,-2.7241363945554964C-23.385917561618747,0.25108647183865784,-11.793776929911266,10.074740311797537,-3.88840252591892,11.331935293874295C4.016971878073425,12.589130275951051,8.235580054350637,5.279866400145685,9.025266957181262,1.585856106924652C9.81495386001189,-2.108154186296381,7.175719489395931,-2.186910896933079,5.856102304087953,-2.226289252251428L4.536485118779973,-2.2656676075697773" style="filter: url(#mcjsa); stroke: rgb(166, 166, 166);"></path></g></svg>