<svg viewBox="0 0 300 300" preserveAspectRatio="xMidYMid" width="300" height="300"><filter id="pdplg" width="300" height="500" x="-50%" y="-50%"><feFlood flood-color="#ff496c" result="element"></feFlood><feTurbulence baseFrequency="0.02" type="fractalNoise" numOctaves="8" seed="99" result="element_1"></feTurbulence><feGaussianBlur stdDeviation="5" in="SourceAlpha" result="element_2"></feGaussianBlur><feDisplacementMap scale="100" in="element_2" in2="element_1" result="element_3"></feDisplacementMap><feComposite operator="in" in="element" in2="element_3" result="element_4"></feComposite><feMerge><feMergeNode in="element_4"></feMergeNode></feMerge></filter><g transform="translate(150,150) scale(1.5)"><path d="M0,0L4.326284794802234,0.31271733163561555C8.652569589604468,0.6254346632712311,17.305139179208936,1.2508693265424622,20.75172138296866,9.085823776657053C24.198303586728382,16.920778226771645,22.43889840464336,31.965252463729595,19.209138484029175,33.98137055014774C15.97937856341499,35.99748863656589,11.279263904271637,24.985250572444233,9.008108695439597,13.627716136801855C6.7369534866075576,2.2701817011594754,6.894757728086829,-9.432649106003627,5.907626873400531,-8.256723869806873C4.920496018714232,-7.080798633610119,2.7884300678623637,6.9738826459464915,1.8244342565231382,6.90472194962901C0.8604384451839129,6.8355612533115275,1.0645127733573305,-7.357441418880047,1.7318449710649704,-5.964396420617792C2.39917716877261,-4.571351422355535,3.5297672360144716,12.407741246360551,4.0893630006697705,11.226484343763733C4.6489587653250695,10.045227441166913,4.637560227393806,-9.29637903274281,3.492458235920777,-19.882268966415232C2.3473562444477487,-30.46815890008766,0.06855079943295617,-32.29833229352278,1.2902841384732082,-34.55610325900984C2.51201747751346,-36.81387422449689,7.234289600608757,-39.49924276203588,0.17625584507879655,-38.708411440390336C-6.881777910451164,-37.917580118744795,-25.72011754460638,-33.65054893791473,-30.128623022885968,-32.60719666164725C-34.537128501165554,-31.56384438537978,-24.515799823569516,-33.7441710136749,-26.22162063941326,-22.235192657922443C-27.927441455257004,-10.726214302169984,-41.36041176454053,14.472069037630046,-40.9046783305301,21.72336752270236C-40.44894489651967,28.974666007774676,-26.104507719215285,18.278979638119278,-19.030762093633236,7.708919458148824C-11.95701646805118,-2.8611407218216334,-12.153962394191456,-13.305574712107145,-11.593200851377203,-16.065334466341376C-11.032439308562948,-18.825094220575608,-9.713970296794162,-13.900179738758558,-14.928521233821327,-7.285867313092121C-20.14307217084849,-0.6715548874256818,-31.89064305667161,7.632155482090145,-30.541861268806965,3.765777828703084C-29.193079480942323,-0.10059982468397521,-14.747945019389922,-16.13706550097392,-7.248204842436016,-23.17118922046438C0.25153533451788923,-30.20531293995484,0.8058812268732973,-28.237094702645813,-2.717443463321138,-25.400448991133004C-6.240768153515575,-22.563803279620195,-13.841763426259854,-18.8587300939036,-7.415528172492057,-15.031461709361318C-0.9892929187242601,-11.204193324819036,19.464172861555614,-7.254729741451068,16.34269005014273,-2.585688529040009C13.22120723872984,2.08335268337105,-13.475224164375808,7.4719715248252,-18.048595265301874,6.3176626915443155C-22.621966366227937,5.163353858263433,-5.072277164974416,-2.533882649752485,-1.222920783323004,-2.322877956000294C2.626435598328408,-2.1118732622481042,-7.224540839622287,6.007372633272194,-13.805323518525169,7.864413363523297C-20.38610619742805,9.7214540937744,-23.696695117283113,5.316289658756309,-29.213315523403033,2.5015230303413896C-34.72993592952295,-0.31324359807352997,-42.45258782190771,-1.5376124198852776,-37.36249722366167,-4.508353202585786C-32.27240662541562,-7.479093985286294,-14.369573536538757,-12.196206728875563,-4.496256973894774,-7.560073966895068C5.377059588749209,-2.923941204914575,7.220859625160312,11.06543706263568,8.39429992583693,9.639016456627374C9.56774022651355,8.212595850619065,10.070820791455684,-8.629623628947805,8.12807559443165,-3.3416862569090977C6.185330397407614,1.9462511151296091,1.79675943841741,29.364345338773894,2.5481653055333604,34.345857607606234C3.299571172649311,39.32736987643859,9.190953865871416,21.872300190458997,6.193160283543607,12.788130210319366C3.1953667012157965,3.703960230179735,-8.691603156661929,2.990689955880063,-13.866543385246498,9.294711504203445C-19.04148361383107,15.598733052526828,-17.504394213122485,28.920046423473266,-16.75987923327578,18.9557493821779C-16.01536425342907,8.991452340882532,-16.063423694444243,-24.25845511265464,-7.3898014144068815,-29.761004641653862C1.2838208656304797,-35.26355417065308,18.67912486672037,-13.018745775114345,27.37677686726532,-1.896341577344978L36.07442886781027,9.22606262042439" style="filter: url(#pdplg); stroke: rgb(255, 73, 108);"></path></g></svg>