<?xml version="1.0" encoding="UTF-8" standalone="no"?>
<svg
   xmlns:dc="http://purl.org/dc/elements/1.1/"
   xmlns:cc="http://creativecommons.org/ns#"
   xmlns:rdf="http://www.w3.org/1999/02/22-rdf-syntax-ns#"
   xmlns:svg="http://www.w3.org/2000/svg"
   xmlns="http://www.w3.org/2000/svg"
   version="1.1"
   id="svg2"
   height="300"
   width="300"
   preserveAspectRatio="xMidYMid"
   viewBox="0 0 300 300">
  <metadata
     id="metadata27">
    <rdf:RDF>
      <cc:Work
         rdf:about="">
        <dc:format>image/svg+xml</dc:format>
        <dc:type
           rdf:resource="http://purl.org/dc/dcmitype/StillImage" />
      </cc:Work>
    </rdf:RDF>
  </metadata>
  <defs
     id="defs25" />
  <filter
     y="-50%"
     x="-50%"
     height="500"
     width="300"
     id="cqgxu">
    <feFlood
       id="feFlood5"
       result="element"
       flood-color="#714b23" />
    <feTurbulence
       id="feTurbulence7"
       result="element_1"
       seed="28"
       numOctaves="8"
       type="fractalNoise"
       baseFrequency="0.02" />
    <feGaussianBlur
       id="feGaussianBlur9"
       result="element_2"
       in="SourceAlpha"
       stdDeviation="4" />
    <feDisplacementMap
       id="feDisplacementMap11"
       result="element_3"
       in2="element_1"
       in="element_2"
       scale="100" />
    <feComposite
       id="feComposite13"
       result="element_4"
       in2="element_3"
       in="element"
       operator="in" />
    <feMerge
       id="feMerge15">
      <feMergeNode
         id="feMergeNode17"
         in="element_4" />
    </feMerge>
  </filter>
  <g
     id="g19"
     transform="translate(150,150) scale(1.5)">
    <path
       id="path21"
       style="filter: url(#cqgxu); stroke: rgb(113, 75, 35);"
       d="M0,0L1.4289224302181296,-7.354296501935858C2.857844860436259,-14.708593003871716,5.715689720872518,-29.41718600774343,11.438680059649418,-29.515387033369908C17.161670398426317,-29.61358805899639,25.74980621554386,-15.101397106377627,32.71168378873245,-4.537447864580748C39.673561361921045,6.026501377216132,45.00918069118068,12.642208908191131,39.502398333054295,11.428148746906245C33.99561597492791,10.214088585621361,17.646431929415492,1.1702607320765956,5.514933979767644,-3.2760940087907438C-6.616563969880205,-7.722448749658083,-14.530375823663483,-7.571330377847996,-14.42911234137725,-6.108786816456808C-14.327848859091018,-4.646243255065621,-6.211510040735272,-1.872274504093334,-8.16409819111033,-0.6736289409264482C-10.116686341485389,0.5250166222404375,-22.13820146059125,0.14833899760192176,-29.424399895344894,5.151920666656268C-36.710598330098534,10.155502335710613,-39.26148008049996,20.539343298457823,-33.43037199183703,21.285995447021868C-27.59926390317409,22.032647595585917,-13.386165975446803,13.142110929966808,-11.372851892875907,10.95371749601056C-9.359537810305016,8.765324062054313,-19.546007572890517,13.27907385976093,-19.33104450656157,16.473389598690595C-19.116081440232627,19.667705337620262,-8.499685544989237,21.542587017772977,-10.397859702210628,17.24123978039362C-12.29603385943202,12.93989254301426,-26.708778069118193,2.4623163881028276,-25.674529744210005,1.392275150321772C-24.640281419301814,0.32223391254071654,-8.15904055979926,8.65972759189004,-7.550795692836775,13.721287925754408C-6.9425508258742905,18.78284825961878,-22.207301951451875,20.5684752479982,-14.738894618425428,20.30249921267142C-7.270487285398982,20.03652317734464,22.931078506231493,17.718944118311665,31.32791394004225,16.189541308752286C39.72474937385301,14.66013849919291,26.316854449844044,13.91891193910713,11.96712228192909,9.387310851507962C-2.382609885985863,4.855709763908797,-17.674179297806806,-3.466265851203757,-19.166122480024526,2.325010214526336C-20.658065662242254,8.116286280256428,-8.350382614856759,28.020814026829168,-1.894322811109799,30.177461159088672C4.561736992637162,32.33410829134817,5.16617355274559,16.742874809294438,6.793435342659245,14.62993059091649C8.420697132572897,12.516986372538543,11.070784152291777,23.882331417836387,18.163051212418416,26.31960284080202C25.255318272545058,28.756874263767653,36.78976537307946,22.266072064401076,29.89095120442751,14.360946707993826C22.99213703577556,6.455821351586571,-2.3399384020627423,-2.8636271618613574,-10.477745835709184,-5.4357155510971165C-18.615553269355626,-8.007803940332876,-9.559092698810211,-3.8325322053564657,-0.6600605871347609,3.771144935344541C8.238971524540688,11.374822076045549,16.98057517734617,22.406904622471153,18.397237752520503,25.95806881299513C19.81390032769484,29.509233003519114,13.905621825238025,25.57947883814147,18.53207583425477,20.23490485043886C23.158529843271513,14.89033086273625,38.31971636376181,8.13093705270867,37.71231997250237,1.5434352820971315C37.10492358124292,-5.0440664885144075,20.72894427823373,-11.459676219709907,16.755502587014597,-9.930978967134752C12.782060895795464,-8.4022817145596,21.21115681636639,1.0707225217862089,20.479235692537905,7.219513924307594C19.74731456870942,13.368305326828981,9.854376400481522,16.192883895525945,1.0928646129366149,9.356278326375488C-7.668647174608291,2.519672757225031,-15.298732581470206,-13.978116949772845,-12.758121725418766,-17.577225054252807C-10.217510869367327,-21.176333158732767,2.493796249597466,-11.876759660694812,13.259265675973966,-2.2409473385055216C24.024735102350466,7.39486498368377,32.844366836138676,17.3669161300244,30.034673623557875,17.748156842439577C27.224980410977082,18.129397554854755,12.785962252027288,8.91982783334448,3.370685397719343,-1.6895197539878533C-6.044591456588602,-12.298867341320186,-10.436127006254695,-24.307992794474576,-6.806290096107427,-33.25348680163364C-3.176453185960158,-42.19898080879271,8.474756184000473,-48.08084336995645,14.300360868980787,-51.02177465053832L20.1259655539611,-53.9627059311202" />
  </g>
</svg>
