<?xml version="1.0" encoding="UTF-8" standalone="no"?>
<svg
   xmlns:dc="http://purl.org/dc/elements/1.1/"
   xmlns:cc="http://creativecommons.org/ns#"
   xmlns:rdf="http://www.w3.org/1999/02/22-rdf-syntax-ns#"
   xmlns:svg="http://www.w3.org/2000/svg"
   xmlns="http://www.w3.org/2000/svg"
   version="1.1"
   id="svg2"
   height="300"
   width="300"
   preserveAspectRatio="xMidYMid"
   viewBox="0 0 300 300">
  <metadata
     id="metadata27">
    <rdf:RDF>
      <cc:Work
         rdf:about="">
        <dc:format>image/svg+xml</dc:format>
        <dc:type
           rdf:resource="http://purl.org/dc/dcmitype/StillImage" />
      </cc:Work>
    </rdf:RDF>
  </metadata>
  <defs
     id="defs25" />
  <filter
     y="-50%"
     x="-50%"
     height="500"
     width="300"
     id="jhsey">
    <feFlood
       id="feFlood5"
       result="element"
       flood-color="#e3256b" />
    <feTurbulence
       id="feTurbulence7"
       result="element_1"
       seed="67"
       numOctaves="8"
       type="fractalNoise"
       baseFrequency="0.02" />
    <feGaussianBlur
       id="feGaussianBlur9"
       result="element_2"
       in="SourceAlpha"
       stdDeviation="5" />
    <feDisplacementMap
       id="feDisplacementMap11"
       result="element_3"
       in2="element_1"
       in="element_2"
       scale="100" />
    <feComposite
       id="feComposite13"
       result="element_4"
       in2="element_3"
       in="element"
       operator="in" />
    <feMerge
       id="feMerge15">
      <feMergeNode
         id="feMergeNode17"
         in="element_4" />
    </feMerge>
  </filter>
  <g
     id="g19"
     transform="translate(150,150) scale(1.5)">
    <path
       id="path21"
       style="filter: url(#jhsey); stroke: rgb(227, 37, 107);"
       d="M0,0L2.8994461044655737,-0.5967286318880574C5.798892208931147,-1.1934572637761147,11.597784417862295,-2.3869145275522294,11.060605377888274,-6.9417522461587575C10.523426337914255,-11.496589964765285,3.650176049035068,-19.412808138202227,-3.5420459611369175,-16.090548752500858C-10.734267971308903,-12.768289366799488,-18.24546170277369,1.7924475780401927,-26.156564797946935,7.5610106036777225C-34.06766789312018,13.329573629315252,-42.37868035200189,10.305962735750633,-38.503430840979576,7.3478116824444735C-34.62818132995725,4.389660629138313,-18.5666698490309,1.4969694160906144,-6.321269423555878,-3.0987132062198812C5.924131001919147,-7.694395828530377,14.35342037194285,-13.993069860103668,12.288762808589045,-21.325408045426837C10.22410524523524,-28.657746230750007,-2.334499251496073,-37.02374856982305,-7.301152954989994,-25.81477602429245C-12.267806658483915,-14.60580347876185,-9.642509568740444,16.178143951372395,-6.402420100262171,27.821390873462462C-3.162330631783898,39.464637795552534,0.6925512154291784,31.96718420959843,3.9730357211957736,17.260524996994427C7.253520226962369,2.553865784390423,9.959607391282482,-19.361999054863478,9.398640530907626,-18.133270252915736C8.83767367053277,-16.90454145096799,5.00965278546294,7.4687809921813955,5.778483483782083,13.505109420405182C6.547314182101227,19.541437848628966,11.912996463809343,7.240772261927149,5.861197655765968,4.642962784415209C-0.19060115227740582,2.045153306903269,-17.65988105007227,9.150199938581206,-27.344564219398602,9.574318985047858C-37.02924738872494,9.998438031514508,-38.929333829582745,3.741629492769875,-33.09436477917842,6.154711673827038C-27.2593957287741,8.5677938548842,-13.68937118710764,19.650766755743163,-7.852829543633364,20.953539379801427C-2.0162879001590883,22.256312003859694,-3.9132291548769955,13.778884351117263,2.1028450084826797,10.179034187455624C8.118919171842354,6.579184023793983,22.04800875327961,7.8569113492131315,22.480453008496667,7.212071386255347C22.912897263713717,6.567231423297562,9.848696192710566,3.999824171962845,5.410080594124532,2.482272621505285C0.9714649955384953,0.964721071047725,5.158434869369575,0.4970252214673218,3.7986426421387223,-4.471101363222909C2.4388504149078694,-9.43922794791314,-4.4677039133849155,-18.907785267713198,-10.63197930849104,-23.883239314311666C-16.796254703597164,-28.858693360910134,-22.21825116551663,-29.341044134307012,-17.560827244102118,-25.0793006239196C-12.903403322687602,-20.81755711353219,1.8334409820608926,-11.811719319360488,5.8818058064075025,-2.3102257620884856C9.930170630754112,7.191267795183517,3.2900559746988396,17.188417115555822,-4.313843327359924,20.559223261118646C-11.917742629418688,23.930029406681466,-20.485426577480943,20.67449237743481,-19.335322128769736,15.946871737187516C-18.185217680058525,11.219251096940223,-7.317324834573854,5.019546845692298,-10.172505138951351,2.2652982008401907C-13.027685443328846,-0.4889504440119167,-29.60593889756851,0.20225651753179397,-37.62627508383055,3.8809038246777003C-45.64661127009258,7.559551131823606,-45.109030188376984,14.225638784571709,-46.90343605425046,10.50265618168525C-48.697841920123935,6.779673578798789,-52.82423473358647,-7.332379279722232,-41.454869175090316,-6.7520155364767795C-30.08550361659415,-6.171651793231327,-3.2203796861392817,9.101128551780599,12.65225686503423,6.339499399242799C28.524893416207743,3.5778702467050003,33.4050425880999,-17.218168403382524,31.237243419114375,-24.202841578400953C29.069444250128853,-31.187514753419375,19.853696740265654,-24.360822453368705,14.81761668214487,-19.179127935027736C9.781536624024088,-13.997433416686766,8.925124017645725,-10.460736680055502,14.871099311251395,-4.899119831812143C20.81707460485707,0.6624970164312165,33.56543779844677,8.249033976286672,32.33960994644903,12.055271779288343C31.11378209445128,15.861509582290013,15.91376319686609,15.8874482284379,4.910282853715378,11.19683382853441C-6.093197489435335,6.506219428630921,-12.900139278151567,-2.9009480173239464,-16.303610172509686,-7.60453174030138L-19.7070810668678,-12.308115463278813" />
  </g>
</svg>
