<svg viewBox="0 0 300 300" preserveAspectRatio="xMidYMid" width="300" height="300"><filter id="eiocc" width="300" height="500" x="-50%" y="-50%"><feFlood flood-color="#8d4e85" result="element"></feFlood><feTurbulence baseFrequency="0.02" type="fractalNoise" numOctaves="8" seed="44" result="element_1"></feTurbulence><feGaussianBlur stdDeviation="4" in="SourceAlpha" result="element_2"></feGaussianBlur><feDisplacementMap scale="100" in="element_2" in2="element_1" result="element_3"></feDisplacementMap><feComposite operator="in" in="element" in2="element_3" result="element_4"></feComposite><feMerge><feMergeNode in="element_4"></feMergeNode></feMerge></filter><g transform="translate(150,150) scale(1.5)"><path d="M0,0L2.7214417920215963,6.516367268713861C5.442883584043193,13.032734537427721,10.885767168086385,26.065469074855443,13.004328207725765,28.389394443659796C15.122889247365144,30.713319812464146,13.917127742600712,22.328436012645128,11.40914319094397,13.413766893588132C8.901158639287232,4.499097774531135,5.090951040738183,-4.9453566637638415,3.474649410783315,-5.849955293387957C1.8583477808284465,-6.754553923012071,2.4359521194677582,0.8807032560346766,3.796117234362925,10.141045234950022C5.156282349258091,19.40138721386537,7.299008240409112,30.28681399264931,8.631595755194997,30.871648993586568C9.964183269980884,31.45648399452382,10.486632408401636,21.74072721761438,4.5686542204711476,19.940874333177355C-1.3493239674593411,18.14102144874033,-13.707729481741069,24.257072456775713,-9.914756889452494,25.00708723096954C-6.121784297163918,25.757102005163368,13.82256640169496,21.141080545515642,24.11338772200554,20.362205679677537C34.40420904231612,19.583330813839424,35.0415009840784,22.641602541810933,21.295480613646582,15.086886489254631C7.549460243214767,7.532170436698328,-20.579872439411144,-10.635533396385789,-28.434159533792247,-16.08964773620535C-36.28844662817335,-21.543762076024912,-23.86768813430963,-14.284286922579922,-6.748114246643288,-7.077620572546911C10.371459641023057,0.12904577748609913,32.18984892249203,7.282903324107128,37.31463031633501,5.160368512597678C42.43941171017799,3.0378337010882266,30.870585216394964,-8.361093468551704,21.891837766204343,-19.773847455439032C12.913090316013724,-31.186601442326364,6.52442190941551,-42.61318224646109,2.5708111382579872,-38.60728283007464C-1.3827996328995356,-34.60138341368818,-2.901352768616366,-15.163003776780545,-6.570281412438907,-2.6505071700081273C-10.239210056261447,9.86198943676429,-16.0585142081897,15.448603013401488,-16.59373947368662,11.141193089427793C-17.128964739183544,6.833783165454098,-12.380111118249143,-7.36765025913049,-3.3042825368352435,-12.778609805292973C5.771546044578656,-18.189569351455454,19.174349586472054,-14.810055019195833,16.856525675347648,-9.833422253123572C14.538701764223244,-4.856789487051316,-3.499749599918962,1.7169617128335783,-13.1481454970572,-5.852323336534159C-22.796541394195437,-13.421608385901898,-24.05488182432971,-35.133929684522265,-17.07133625475697,-33.086996366498184C-10.087790685184231,-31.040063048474103,5.137640884095518,-5.233875113805569,9.48836376959453,4.422396942683211C13.83908665509354,14.07866899917199,7.315100856811815,7.585025177481016,5.282249332623333,-5.229757073770433C3.24939780843485,-18.04453932502188,5.70768055833961,-37.1804600058338,5.743566406143179,-30.25158450942371C5.779452253946749,-23.322709013013615,3.3929411996491283,9.670962660618496,2.4020536130271894,24.263076562133065C1.4111660264052504,38.85519046364763,1.815901907458993,35.04574659304466,-5.583371681591581,29.825196790056964C-12.982645270642154,24.604646987069266,-28.185928329797044,17.972991251696836,-27.455390214175527,13.035479554643299C-26.72485209855401,8.097967857589763,-10.060492808156084,4.854600198855119,-3.598736386365311,6.255052964379638C2.863020035425462,7.655505729904157,-0.8778264113909189,13.69977891968784,-2.058991508659723,13.635071174585033C-3.240156605928527,13.570363429482223,-1.8616403536497543,7.396674749492919,-1.4356365934502162,-0.5698196536249958C-1.0096328332506779,-8.536314056742912,-1.5361415651303738,-18.29561418298944,-5.001259948172203,-19.819222839609573C-8.466378331214033,-21.342831496229703,-14.870106365417994,-14.63074868322344,-11.887592994795945,-15.14245304356793C-8.905079624173894,-15.65415740391242,3.4636751512741677,-23.389648937607664,12.887858860338191,-14.199572658363682C22.312042569402212,-5.009496379119694,28.791655212082194,21.10614771306352,30.80915397100555,21.698391979701327C32.82665272992891,22.290636246339137,30.38203760509564,-2.640519312568463,18.118543598508378,-10.679128470294259C5.855049591921116,-18.717737628020053,-16.227323296420142,-9.863800384564046,-27.26850974059077,-5.436831762836042L-38.3096961847614,-1.0098631411080379" style="filter: url(#eiocc); stroke: rgb(141, 78, 133);"></path></g></svg>