<?xml version="1.0" encoding="UTF-8" standalone="no"?>
<svg
   xmlns:dc="http://purl.org/dc/elements/1.1/"
   xmlns:cc="http://creativecommons.org/ns#"
   xmlns:rdf="http://www.w3.org/1999/02/22-rdf-syntax-ns#"
   xmlns:svg="http://www.w3.org/2000/svg"
   xmlns="http://www.w3.org/2000/svg"
   version="1.1"
   id="svg2"
   height="300"
   width="300"
   preserveAspectRatio="xMidYMid"
   viewBox="0 0 300 300">
  <metadata
     id="metadata27">
    <rdf:RDF>
      <cc:Work
         rdf:about="">
        <dc:format>image/svg+xml</dc:format>
        <dc:type
           rdf:resource="http://purl.org/dc/dcmitype/StillImage" />
      </cc:Work>
    </rdf:RDF>
  </metadata>
  <defs
     id="defs25" />
  <filter
     y="-50%"
     x="-50%"
     height="500"
     width="300"
     id="abwxj">
    <feFlood
       id="feFlood5"
       result="element"
       flood-color="#ff48d0" />
    <feTurbulence
       id="feTurbulence7"
       result="element_1"
       seed="45"
       numOctaves="8"
       type="fractalNoise"
       baseFrequency="0.02" />
    <feGaussianBlur
       id="feGaussianBlur9"
       result="element_2"
       in="SourceAlpha"
       stdDeviation="4" />
    <feDisplacementMap
       id="feDisplacementMap11"
       result="element_3"
       in2="element_1"
       in="element_2"
       scale="100" />
    <feComposite
       id="feComposite13"
       result="element_4"
       in2="element_3"
       in="element"
       operator="in" />
    <feMerge
       id="feMerge15">
      <feMergeNode
         id="feMergeNode17"
         in="element_4" />
    </feMerge>
  </filter>
  <g
     id="g19"
     transform="translate(150,150) scale(1.5)">
    <path
       id="path21"
       style="filter: url(#abwxj); stroke: rgb(255, 72, 208);"
       d="M0,0L0.649510409699517,-5.636109555774561C1.299020819399034,-11.272219111549122,2.598041638798068,-22.544438223098243,7.519902347369425,-20.752964978523032C12.441763055940783,-18.96149173394782,20.98646365368446,-4.106326133248274,15.689061589205611,-2.839500202992423C10.391659524726762,-1.5726742727365721,-8.747845201974616,-13.894188012924417,-10.16904038162909,-14.291595030983576C-11.590235561283563,-14.689002049042736,4.70687880610887,-3.162302344973213,0.2475574596749599,-2.700039108991048C-4.21176388675895,-2.237775873008883,-29.427520947019204,-12.839949105114076,-25.14397939061981,-13.587214977775993C-20.860437834220413,-14.334480850437908,12.922402338838634,-5.226839363656545,27.038317952660435,0.5559167229033131C41.15423356648223,6.338672809463171,35.60322462106679,8.796543495801524,29.22714913183426,8.350068713597723C22.851073642601726,7.903593931393923,15.649931609552098,4.552773680647967,12.587177154078775,1.7581577452153918C9.524422698605454,-1.0364581902171839,10.600055820708436,-3.274869810336379,11.243019984893516,-3.1668810962925935C11.885984149078599,-3.058892382248808,12.096279355345779,-0.604503334042042,12.778402555763087,0.9592982444962904C13.460525756180397,2.523099823034623,14.614476950747836,3.1963139319045215,6.556361115679159,9.360549471289097C-1.5017547193895187,15.524785010673671,-18.771937584094314,27.180041980572923,-21.702236767392733,25.5650365893949C-24.632535950691153,23.950031198216873,-13.222951452583196,9.064763445961574,0.5730181993823669,3.224432251637129C14.368987851347928,-2.615898942687315,30.551342657171094,0.5887064209190975,30.347946402023144,1.591699165918208C30.144550146875197,2.5946919109173185,13.55540283075613,1.3960720373091273,7.103733383156433,1.1169769833513732C0.6520639355567344,0.837881929393619,4.337872356476405,1.4783116950863022,12.52371002223655,2.959826730171838C20.709547687996697,4.4413417652573735,33.39541459859731,6.763942069735762,40.3515118057584,2.0837939715332077C47.307609012919485,-2.596354126669347,48.53393651664104,-14.279250627552845,33.55890559992879,-11.289420545011973C18.58387468321655,-8.299590462471102,-12.592514653929499,9.362966203494137,-20.050826299767216,17.7148892766554C-27.509137945604937,26.066812349816658,-11.249371900134328,25.108101830173943,-3.6479360409953783,16.30840948319774C3.9534998181435705,7.508717136221529,2.8966054909508605,-9.131957038088169,10.219711358670992,-18.193769063565416C17.542817226391122,-27.255581089042664,33.2459232890241,-28.73853096568746,25.709197598102815,-25.56910020256398C18.17247190718153,-22.3996694394405,-12.604085537294011,-14.57785803654875,-17.019382756754545,-9.766816844649595C-21.434679976215087,-4.955775652750442,0.5112830293393813,-3.155504671843886,4.73509269447583,-0.904408574515494C8.958902359612278,1.3466875228128978,-4.539441315669291,4.048608736563125,-5.029868854896578,9.265114748448514C-5.520296394123864,14.481620760333902,6.997192202703132,22.21271157035445,7.866909829388032,22.492308160230188C8.736627456072931,22.771904750105925,-2.0414258873842677,15.600007119836846,-7.879945920744513,7.265757799135379C-13.718465954104758,-1.0684915215660906,-14.61745267736805,-10.565092532699952,-9.009701587714726,-13.33794785660459C-3.401950498061405,-16.11080318050923,8.712538404508532,-12.15991281718465,12.07534523603675,-8.503426915362128C15.43815206756497,-4.846941013539606,10.049276828051472,-1.4848595732191447,5.991724774597828,-3.8434297013499696C1.9341727211441846,-6.201999829480794,-0.792056146249605,-14.281221526062906,-7.340165957427084,-9.164475090285078C-13.888275768604563,-4.0477286545072495,-24.25826652356573,14.264985913630518,-26.60951473420178,18.349711505462842C-28.960762944837825,22.434437097295163,-23.29326861114875,12.291173712822044,-16.33839438039772,6.615240364617733C-9.383520149646685,0.9393070164134241,-1.1412660218336939,-0.26929629552207335,3.1776334550157053,-7.222549280458208C7.496532931865104,-14.175802265394342,7.892077757750911,-26.87370492333111,8.089850170693815,-33.2226562522995L8.287622583636718,-39.571607581267884" />
  </g>
</svg>
