<svg viewBox="0 0 300 300" preserveAspectRatio="xMidYMid" width="300" height="300"><filter id="nxkax" width="300" height="500" x="-50%" y="-50%"><feFlood flood-color="#ee204d" result="element"></feFlood><feTurbulence baseFrequency="0.02" type="fractalNoise" numOctaves="8" seed="97" result="element_1"></feTurbulence><feGaussianBlur stdDeviation="4" in="SourceAlpha" result="element_2"></feGaussianBlur><feDisplacementMap scale="100" in="element_2" in2="element_1" result="element_3"></feDisplacementMap><feComposite operator="in" in="element" in2="element_3" result="element_4"></feComposite><feMerge><feMergeNode in="element_4"></feMergeNode></feMerge></filter><g transform="translate(150,150) scale(1.5)"><path d="M0,0L2.271547684535098,0.7003876881224393C4.543095369070196,1.4007753762448787,9.086190738140392,2.8015507524897574,13.305778351987668,-0.07375040316220449C17.525365965834943,-2.9490515588141664,21.421445824459298,-10.10042924636297,13.389062987492089,-8.237185385003237C5.356680150524879,-6.373941523643504,-14.604165382033898,4.503923886624763,-19.689746827699217,7.510699517994146C-24.77532827336454,10.517475149363529,-14.985645632136404,5.653161001834028,-13.523425485999644,2.1890859971535814C-12.061205339862882,-1.2749890075268657,-18.926447688817497,-3.3388248693582576,-9.206127762275774,-4.464235601215406C0.5141921642659497,-5.5896463330725545,26.82007436630401,-5.776631934955459,25.194232072025915,-12.824876863620874C23.568389777747818,-19.87312179228629,-5.9891770128464366,-33.78262604773422,-11.004073084887757,-31.201985399996577C-16.018969156929078,-28.621344752258935,3.508805489582535,-9.550559201335723,5.682032807555828,2.705537152689767C7.855260125529123,14.961633506715257,-7.326059885035902,20.403040663843026,-5.567268796207683,18.977084631168992C-3.8084777073794633,17.55112859849496,14.890424480842,9.25780937601912,24.276019394773577,12.508039570120662C33.661614308705154,15.758269764222206,33.73390194834684,30.55204937490113,27.768406425235142,25.151746264352475C21.802910902123443,19.75144315380382,9.799632216258354,-5.842942677972415,2.424163688054352,-13.396559940528068C-4.951304840149651,-20.95017720308372,-7.698963210692566,-10.463025896418792,-5.772591757722889,-0.2875264362608583C-3.8462203047532113,9.887973023897075,2.754180971729058,19.751820637548015,8.015710558040436,23.725248464997605C13.277240144351813,27.698676292447196,17.1998980404923,25.781684333695445,20.878001663440358,23.486251119810632C24.55610528638842,21.19081790592582,27.989654636144053,18.516943436907948,22.86372752184615,16.64066868756975C17.737800407548246,14.764393938231551,4.052396829196803,13.685718908573024,3.2695711993979355,9.680484110447512C2.4867455695990683,5.6752493123219985,14.606497888352777,-1.2565452542705016,18.323105667832763,-5.111629864036694C22.03971344731275,-8.966714473802888,17.353176687519017,-9.745089126742775,9.190429924827377,-4.005341289235515C1.0276831621357374,1.7344065482717452,-10.611273603453807,13.992276876226152,-15.119582490967781,15.748458723676688C-19.627891378481756,17.504640571127226,-17.00555238792016,8.759133938073894,-10.942111869851285,4.306280564025594C-4.8786713517824065,-0.14657281002270703,4.6258706937937575,-0.30677292506597786,7.117616254024709,-0.6995893363052272C9.60936181425566,-1.0924057475444766,5.088310889141399,-1.7178384549797046,2.3574101630522475,-6.9506652912214975C-0.3734905630369032,-12.18349212746329,-1.314241090100944,-22.02371309251165,0.3691614963689105,-14.481331163935998C2.052564082838765,-6.938949235360347,6.3601197828425144,17.986035586839314,5.500490836165264,20.151430940248858C4.640861889488013,22.3168262936584,-1.385951703870238,1.7226321782778236,5.990971407060092,-6.592014325786499C13.367894517990422,-14.906660829850821,34.14855433320933,-10.941759722598892,33.373491258768055,-3.892492273748587C32.59842818432678,3.156775175101717,10.267642220225316,13.290408965550395,9.592658555782213,10.670539698133169C8.91767489133911,8.050670430715945,29.89849352655437,-7.322701894567182,33.89406535232372,-15.033749060102846C37.88963717809308,-22.74479622563851,24.89996219441653,-22.79351823142671,22.512684008001735,-16.541985916940437C20.125405821586945,-10.290453602454166,28.340524432433906,2.2613330323065757,26.527436401052174,0.3027387157610777C24.71434836967044,-1.6558556007844203,12.873053696060012,-18.12483086863616,4.901544229980917,-16.536944326046815C-3.069965236098178,-14.94905778345747,-7.171689494645939,4.695690569572957,-9.472061741594011,6.570152805939749C-11.772433988542081,8.444615042306541,-12.271454223890462,-7.451208837990302,-10.152200082937904,-5.934644523949595C-8.032945941985348,-4.418080209908888,-3.295417424731851,14.51087229846937,-0.9266531661051027,23.975348552658495L1.4421110925216458,33.439824806847625" style="filter: url(#nxkax); stroke: rgb(238, 32, 77);"></path></g></svg>