<?xml version="1.0" encoding="UTF-8" standalone="no"?>
<svg
   xmlns:dc="http://purl.org/dc/elements/1.1/"
   xmlns:cc="http://creativecommons.org/ns#"
   xmlns:rdf="http://www.w3.org/1999/02/22-rdf-syntax-ns#"
   xmlns:svg="http://www.w3.org/2000/svg"
   xmlns="http://www.w3.org/2000/svg"
   version="1.1"
   id="svg2"
   height="300"
   width="300"
   preserveAspectRatio="xMidYMid"
   viewBox="0 0 300 300">
  <metadata
     id="metadata27">
    <rdf:RDF>
      <cc:Work
         rdf:about="">
        <dc:format>image/svg+xml</dc:format>
        <dc:type
           rdf:resource="http://purl.org/dc/dcmitype/StillImage" />
      </cc:Work>
    </rdf:RDF>
  </metadata>
  <defs
     id="defs25" />
  <filter
     y="-50%"
     x="-50%"
     height="500"
     width="300"
     id="idgzy">
    <feFlood
       id="feFlood5"
       result="element"
       flood-color="#ff5349" />
    <feTurbulence
       id="feTurbulence7"
       result="element_1"
       seed="18"
       numOctaves="8"
       type="fractalNoise"
       baseFrequency="0.02" />
    <feGaussianBlur
       id="feGaussianBlur9"
       result="element_2"
       in="SourceAlpha"
       stdDeviation="4" />
    <feDisplacementMap
       id="feDisplacementMap11"
       result="element_3"
       in2="element_1"
       in="element_2"
       scale="100" />
    <feComposite
       id="feComposite13"
       result="element_4"
       in2="element_3"
       in="element"
       operator="in" />
    <feMerge
       id="feMerge15">
      <feMergeNode
         id="feMergeNode17"
         in="element_4" />
    </feMerge>
  </filter>
  <g
     id="g19"
     transform="translate(150,150) scale(1.5)">
    <path
       id="path21"
       style="filter: url(#idgzy); stroke: rgb(255, 83, 73);"
       d="M0,0L1.275371640965971,1.193838964474658C2.550743281931942,2.387677928949316,5.101486563863884,4.775355857898632,3.1887479712384073,5.0180620937865905C1.27600937861293,5.260768329674548,-5.100211088569965,3.3585028725011474,-8.87622168029171,8.060623768017457C-12.652232272013453,12.762744663533768,-13.828032988274042,24.06925191173979,-15.388063358044807,22.499922332784948C-16.948093727815575,20.930592753830105,-18.892353751096515,6.4854263477143945,-16.54805529036102,0.5453487399309329C-14.203756829625526,-5.394728867852529,-7.5708998848736,-2.8297176773037434,2.0802445849537037,-5.976901223311192C11.731389054781006,-9.12408476931864,24.40082104968369,-17.98346305188232,25.346243474732574,-18.05763050982748C26.291665899781464,-18.13179796777263,15.513078754976554,-9.420754601099258,2.5205749187239057,-1.3750640085908565C-10.471928917528746,6.670626583917546,-25.678349445229138,14.050964402260979,-24.67604882077209,10.633964760408386C-23.673748196315035,7.216965118555791,-6.462726419700539,-6.997371983492829,1.3918576899255735,-15.074070514079855C9.246441799551686,-23.15076904466688,7.7445882421894146,-25.08982900379231,6.8432583511371785,-24.774481159779775C5.941928460084942,-24.459133315767236,5.64112223534274,-21.88937766861673,5.382199472708766,-19.69374459414348C5.1232767100747925,-17.498111519670232,4.906237409549044,-15.676601017874244,-1.6154999185232972,-12.44920119902671C-8.137237246595639,-9.221801380179176,-20.963672602214576,-4.5885122442800945,-23.87643852686865,3.451664876468626C-26.78920445152272,11.491841997217348,-19.788300945211937,22.93890710281571,-18.699771666440164,25.04809730432354C-17.611242387668398,27.15728750583137,-22.43508733643565,19.928602803248673,-25.49809367606453,9.264013089525452C-28.561100015693413,-1.4005766241977682,-29.86326774618393,-15.50107134906151,-22.126928850666406,-13.610527084196926C-14.39058995514888,-11.71998281933234,2.3842555663766873,6.161600435260571,0.25719084597965747,14.19984976212466C-1.8698738744173724,22.23809908898875,-22.898848836737,20.433014488124023,-24.160398845063465,22.690991303699576C-25.42194885338993,24.948968119275133,-6.916073907723242,31.270006351290974,-0.5428848594627247,29.04616368284476C5.830304188797793,26.822321014398543,0.07080733965213737,16.053597445490272,-1.9909176762133622,11.576893085863954C-4.052642692078861,7.100188726237636,-2.416595874664205,8.915503575893274,-1.4017644869620494,4.801563336172592C-0.3869330992598936,0.6876230964519099,0.006682858729761376,-9.355572232645091,9.824507867653553,-11.158901087069006C19.642332876577346,-12.962229941492923,38.88436693643528,-6.525692321243753,29.669093507604924,1.9048604041160249C20.453820078774577,10.335413129475802,-17.218760838744053,20.759980959946187,-25.639064225028946,29.78192571667628C-34.05936761131384,38.80387047340638,-13.227393466364997,46.423192156396176,-6.677989093720706,39.458292149655975C-0.1285847210764155,32.49339214291576,-7.8617501207366765,10.944270446445543,-6.8646213679678185,7.356385595135859C-5.867492615198959,3.768500743826176,3.8599302899990198,18.14185273767703,13.73006076622589,19.006972783795717C23.60019124245276,19.872092829914408,33.613029289708514,7.22898092830093,39.10789409638942,1.7836539480404243C44.602758903070324,-3.6616730322200817,45.57965046917637,-1.909215091127617,36.51525316958041,-6.3757645911414365C27.45085586998445,-10.842314091155258,8.345169704686484,-21.52787103227536,3.536999816588539,-14.179695523549533C-1.271170071509406,-6.831520014823704,8.218176317592672,18.550387943748056,9.92804010477814,17.53874102931267C11.637903891963607,16.52709411487728,5.568285077232467,-10.878107672565259,9.948654861316847,-15.14098577426414C14.329024645401228,-19.40386387596302,29.15938302830113,-0.5244182919182379,29.23407039947332,-3.581494147690065C29.308757770645514,-6.638570003461892,14.627774130089993,-31.632167299050327,-1.147111483836408,-37.668610663293514C-16.92199709776281,-43.70505402753671,-33.79078468506009,-30.784343460434656,-42.22517847870873,-24.323988176883635L-50.65957227235737,-17.863632893332607" />
  </g>
</svg>
