<svg viewBox="0 0 300 300" preserveAspectRatio="xMidYMid" width="300" height="300"><filter id="lodpn" width="300" height="500" x="-50%" y="-50%"><feFlood flood-color="#fd3a4a" result="element"></feFlood><feTurbulence baseFrequency="0.02" type="fractalNoise" numOctaves="8" seed="46" result="element_1"></feTurbulence><feGaussianBlur stdDeviation="4" in="SourceAlpha" result="element_2"></feGaussianBlur><feDisplacementMap scale="100" in="element_2" in2="element_1" result="element_3"></feDisplacementMap><feComposite operator="in" in="element" in2="element_3" result="element_4"></feComposite><feMerge><feMergeNode in="element_4"></feMergeNode></feMerge></filter><g transform="translate(150,150) scale(1.5)"><path d="M0,0L8.511974442982364,2.893607576645144C17.023948885964728,5.787215153290288,34.047897771929456,11.574430306580576,27.496931593655315,3.592118746324706C20.945965415381174,-4.390192813931163,-9.17991582713184,-26.14203108773319,-19.465602355472278,-23.726944042631423C-29.751288883812716,-21.311856997529663,-20.19678069798058,5.2701553664758904,-19.843634244001127,17.290478901202775C-19.490487790021675,29.31080243592966,-28.338703067894908,26.769437141377875,-21.745871073141206,12.129327964168713C-15.153039078387502,-2.5107812130404525,6.880840188993135,-29.249634272906995,5.430019983458286,-32.06521873048386C3.9791997779234354,-34.88080318806073,-20.9563199005269,-13.773119043347933,-24.46422232638991,-12.560540967358826C-27.97212475225291,-11.347962891369718,-10.052409925528583,-30.030490884104307,-5.017555326276297,-33.46195818974019C0.017299272975988877,-36.89342549537608,-7.832706355243767,-25.073832113913255,-11.51040970701236,-14.422933359654442C-15.188113058780955,-3.7720346053956284,-14.693514134098388,5.710169521659179,-11.034537955187012,8.843077578988105C-7.375561776275636,11.975985636317029,-0.552208343135451,8.759597623920072,3.485785198701763,8.737800031101521C7.523778740538977,8.71600243828297,8.776412391073219,11.888795265042821,6.254557476564201,10.945760826529217C3.732702562055181,10.00272638801561,-2.563640917497101,4.943864684228545,0.7554348529121651,5.01030743594354C4.07451062332143,5.076750187658535,17.00900564369224,10.268497394875588,18.61167597910049,3.3858518607703383C20.214346314508738,-3.4967936733349116,10.48519196495442,-22.453831948762463,-0.6372899984194715,-29.990226373120024C-11.759771961793362,-37.52662079747758,-24.275581538986827,-33.64237137076513,-24.003886771926016,-28.29681374629069C-23.732192004865205,-22.95125612181625,-10.672992893550116,-16.144390299579804,0.6783887551279495,-11.804463350894375C12.029770403806015,-7.464536402208946,21.67333458984706,-5.591548327074533,25.623834563612434,-8.258287699875137C29.57433453737781,-10.92502707267574,27.831770298867518,-18.13149389341136,20.026480925199646,-11.306369035690814C12.22119155153177,-4.481244177970266,-1.6468229572936846,16.375472358206448,-6.690129550499183,16.485338593398012C-11.73343614370468,16.59520482858958,-7.952034821290221,-4.041779237204002,2.386554270939021,-16.342564332222228C12.725143363168263,-28.64334942724045,29.620920225212288,-32.60793555148332,38.68993697739745,-26.81380153463828C47.75895372958261,-21.019667517793234,49.001210371908904,-5.466813359860284,41.87477557635475,0.5672272811915784C34.748340780800596,6.601267922243441,19.253214547365996,3.1164950464142143,7.925968121821248,1.3200923837597438C-3.401278303723499,-0.4763102788947268,-10.560644921378392,-0.5843427283744417,-10.8194075613732,2.4633889100555697C-11.07817020136801,5.5111205484855805,-4.4363288637027365,11.714616274825318,-0.5464441211500203,11.856112510734102C3.3434406214026957,11.997608746642882,4.481368768842854,6.07710549212071,1.1443925670683965,9.417275476537592C-2.1925836347060605,12.757445460954472,-10.004464185695133,25.35828868431041,-13.704746522939416,25.079519138664136C-17.405028860183698,24.800749593017866,-16.993712983683192,11.642367278369386,-10.865277040290875,3.3709237296068464C-4.736841096898556,-4.9005198191556945,7.108714913385573,-8.285024602032298,3.853610475707594,-8.695230109732421C0.5985060380296137,-9.105435617432546,-17.757258847610476,-6.54134184995619,-26.69817849967557,-3.4393833101106375C-35.63909815174067,-0.337424770265085,-35.16517257023078,3.302398541949664,-36.56894029974655,-0.09048938625057712C-37.97270802926232,-3.483377314450818,-41.25416906980376,-13.908976483066049,-45.41750088391255,-15.64132826431927C-49.58083269802134,-17.373680045572492,-54.62603528569748,-10.412784439463707,-52.73749263724431,-3.8363533630943696C-50.848949988791134,2.7400777132749665,-42.02666210420865,8.93204425990485,-28.91097552011967,10.808991938041899C-15.795288936030703,12.685939616178945,1.6137963475647545,10.247868425823155,10.318338989362484,9.02883283064526L19.022881631160214,7.809797235467364" style="filter: url(#lodpn); stroke: rgb(253, 58, 74);"></path></g></svg>