<?xml version="1.0" encoding="UTF-8" standalone="no"?>
<svg
   xmlns:dc="http://purl.org/dc/elements/1.1/"
   xmlns:cc="http://creativecommons.org/ns#"
   xmlns:rdf="http://www.w3.org/1999/02/22-rdf-syntax-ns#"
   xmlns:svg="http://www.w3.org/2000/svg"
   xmlns="http://www.w3.org/2000/svg"
   version="1.1"
   id="svg2"
   height="300"
   width="300"
   preserveAspectRatio="xMidYMid"
   viewBox="0 0 300 300">
  <metadata
     id="metadata27">
    <rdf:RDF>
      <cc:Work
         rdf:about="">
        <dc:format>image/svg+xml</dc:format>
        <dc:type
           rdf:resource="http://purl.org/dc/dcmitype/StillImage" />
      </cc:Work>
    </rdf:RDF>
  </metadata>
  <defs
     id="defs25" />
  <filter
     y="-50%"
     x="-50%"
     height="500"
     width="300"
     id="mzfjh">
    <feFlood
       id="feFlood5"
       result="element"
       flood-color="#c0448f" />
    <feTurbulence
       id="feTurbulence7"
       result="element_1"
       seed="99"
       numOctaves="8"
       type="fractalNoise"
       baseFrequency="0.02" />
    <feGaussianBlur
       id="feGaussianBlur9"
       result="element_2"
       in="SourceAlpha"
       stdDeviation="4" />
    <feDisplacementMap
       id="feDisplacementMap11"
       result="element_3"
       in2="element_1"
       in="element_2"
       scale="100" />
    <feComposite
       id="feComposite13"
       result="element_4"
       in2="element_3"
       in="element"
       operator="in" />
    <feMerge
       id="feMerge15">
      <feMergeNode
         id="feMergeNode17"
         in="element_4" />
    </feMerge>
  </filter>
  <g
     id="g19"
     transform="translate(150,150) scale(1.5)">
    <path
       id="path21"
       style="filter: url(#mzfjh); stroke: rgb(192, 68, 143);"
       d="M0,0L0.8958215752853946,6.073852910393528C1.7916431505707893,12.147705820787056,3.5832863011415785,24.295411641574113,-4.287683803713669,24.185255355974014C-12.158653908568917,24.075099070373913,-29.692237268850203,11.707080678386658,-32.05757381236072,5.518075684058672C-34.422910355871245,-0.6709293102693131,-21.620000082611007,-0.6809209069380291,-12.948498229573977,0.6688822821555266C-4.276996376536947,2.018685471249082,0.2630970562768704,4.72828344610491,4.484999774900771,13.828303760646483C8.706902493524673,22.92832407518806,12.610614497958657,38.418766729415374,7.1551457540195,35.776778063751635C1.6996770100803449,33.13478939808788,-13.114972482231952,12.36036941253307,-15.804907156883736,3.368548447331501C-18.49484183153552,-5.623272517870068,-9.060061688526796,-2.832494462718391,-2.0777284424539975,-1.335530895689116C4.9046048036188,0.16143267134015846,9.434491152755669,0.3645817502470309,11.540524438619084,-1.5955437159822254C13.6465577244825,-3.555669182211482,13.328737947072463,-7.679069193576867,18.016567242892446,-7.278327249010488C22.704396538712427,-6.877585304444109,32.39787490776243,-1.952701403945965,30.48674558431571,-6.476983061280074C28.57561626086899,-11.001264718614184,15.059879244925558,-24.974711933780544,4.657534877176451,-24.348839028206406C-5.744809490572656,-23.722966122632265,-13.033761210127436,-8.497773096317625,-12.277346110131894,-8.689947741497022C-11.520931010136351,-8.88212238667642,-2.7191490905904896,-24.491664703349855,5.94413110839262,-19.408230693931692C14.60741130737573,-14.324796684513533,23.132189785796086,11.451613650996226,21.744435506211836,17.837678331268478C20.356681226627586,24.223743011540726,9.056394189038732,11.219462036575464,-2.5008341853336384,9.378002319195698C-14.05806255970601,7.536542601815932,-25.872232270861897,16.85790414202166,-21.41996327834879,16.446771531653575C-16.967694285835684,16.035638921285493,3.751013410346415,5.892012160343599,7.27660897690627,0.43136410019724214C10.802204543466123,-5.029283959949114,-2.865312019596267,-5.806953319299934,-8.20842563549061,-5.4680503866409405C-13.55153925138495,-5.129147453981946,-10.570249920111245,-3.673672229313138,-13.079753228912514,-9.620801032408858C-15.589256537713784,-15.567929835504577,-23.589552486590033,-28.917662666364826,-22.658696987650934,-25.37322118666724C-21.727841488711835,-21.828779706969655,-11.865834541957392,-1.3901639167142417,-0.272820998620543,4.474362681700553C11.320192544716306,10.338889280115348,24.644212684635562,1.629326686689521,25.384395663698246,-4.380233927288765C26.124578642760937,-10.389794541267051,14.280924460967057,-13.699353175797798,4.751647718692069,-13.272691929363464C-4.77762902358292,-12.846030682929129,-11.992528326339016,-8.683149555529711,-10.926236177053,0.6733269841612728C-9.859944027766982,10.029803523852257,-0.5124604264388495,24.579875475834807,2.804632529151313,18.359818331141916C6.121725484741475,12.13976118644902,3.408427794593667,-14.85042505491932,0.7751876275584848,-23.24487006440736C-1.8580525394766971,-31.63931507389539,-4.411235183399253,-21.43801885150312,-9.679639341345855,-18.98818271077831C-14.948043499292458,-16.538346570053506,-22.93166917126311,-21.839970510996164,-19.303814304072205,-20.304220641810687C-15.675959436881302,-18.768470772625204,-0.43662403052884535,-10.395347093311587,0.6998948126648701,-5.661620290519694C1.8364136558585855,-0.9278934877278014,-11.12988406410644,0.16643643854236734,-5.861614970264916,1.5427652604625592C-0.5933458764233901,2.9190940823827516,22.909490031224685,4.577421799952966,32.4801976031835,4.116534198667723C42.050905175142304,3.6556465973824777,37.68948441141185,1.075543677241774,30.849694129398888,-1.142828408316273C24.009903847385935,-3.36120049387432,14.69174404709048,-5.21784174484971,1.282330946960677,-5.152207196278246C-12.127082153169127,-5.086572647706783,-29.627748553133276,-3.0986622995884665,-31.424725347897056,-3.2268611176251554C-33.22170214266083,-3.3550599356618442,-19.314989332224233,-5.599367919853538,-12.361632927005932,-6.721521911949385L-5.4082765217876325,-7.843675904045233" />
  </g>
</svg>
