<svg viewBox="0 0 300 300" preserveAspectRatio="xMidYMid" width="300" height="300"><filter id="nlsnl" width="300" height="500" x="-50%" y="-50%"><feFlood flood-color="#1fcecb" result="element"></feFlood><feTurbulence baseFrequency="0.02" type="fractalNoise" numOctaves="8" seed="98" result="element_1"></feTurbulence><feGaussianBlur stdDeviation="5" in="SourceAlpha" result="element_2"></feGaussianBlur><feDisplacementMap scale="100" in="element_2" in2="element_1" result="element_3"></feDisplacementMap><feComposite operator="in" in="element" in2="element_3" result="element_4"></feComposite><feMerge><feMergeNode in="element_4"></feMergeNode></feMerge></filter><g transform="translate(150,150) scale(1.5)"><path d="M0,0L4.865039020202905,2.6730133806345653C9.73007804040581,5.346026761269131,19.46015608081162,10.692053522538261,22.82251143523859,13.068931819368858C26.184866789665556,15.445810116199455,23.179499458113686,14.853539948591518,23.708433993579277,9.280137566361923C24.237368529044872,3.7067351841323264,28.300604931527925,-6.8477994127189294,25.195422876096604,-3.8423481567463558C22.09024082066528,-0.8368969007737821,11.816640307319574,15.728540208022622,5.848775227310439,15.770762148109835C-0.11908985269869676,15.812984088197046,-1.7812194993712642,-0.6680091404249318,0.9955473261970464,-1.793069684024097C3.7723141517653573,-2.918130227623262,10.987977449574547,11.312741913800386,10.474906977326084,5.905878155322608C9.96183650507762,0.49901439684482796,1.720032262771504,-24.545585261534377,-10.690589656422755,-35.03792748978035C-23.101211575617015,-45.53026971802633,-39.68065117169942,-41.470354516139075,-38.42995247721229,-33.852798851928554C-37.179253782725155,-26.23524318771804,-18.0984167976685,-15.060047061184259,-6.898914777815204,-8.20171970584704C4.30058724203809,-1.343392350509822,7.618754296688018,1.1980662336308339,8.124597754933811,6.944871948396652C8.630441213179605,12.69167766316247,6.323961075021265,21.64383050855345,6.54966242331221,15.187118557096433C6.775363771603156,8.730406605639415,9.533246606343386,-13.1351701426656,9.500113285259964,-22.89367411875603C9.466979964176542,-32.65217809484647,6.642830487269464,-30.30360929872232,9.271780249069508,-21.570319560766503C11.900730010869552,-12.837029822810688,19.982779011376714,2.280980856976795,19.30716018558092,6.690434782798583C18.631541359785125,11.099888708620371,9.198254707686369,4.800785880476464,6.337237459792218,-3.1821260265830515C3.4762202118980685,-11.165037933642566,7.187472368208525,-20.83175891961769,8.884376513989324,-17.61373101248045C10.581280659770124,-14.395703105343213,10.263836795021268,1.7070736949063896,6.884794055295831,2.857056279096505C3.505751315570394,4.0070388632866205,-2.9348902991316246,-9.79577276858275,-5.485958475789406,-12.445685434657374C-8.037026652447187,-15.095598100731996,-6.698521391060732,-6.592611801011873,-2.470744732331168,3.6514219778225696C1.7570319263983967,13.895455756657013,8.87407998247107,25.88053701460577,4.737624060105796,20.524658034890088C0.6011681377405225,15.168779055174404,-14.788791763062697,-7.528060162205724,-23.22972172739894,-12.809407132977942C-31.67065169173518,-18.090754103750157,-33.162551719604444,-5.956608827914458,-30.68518481076663,-7.323727496775244C-28.20781790192881,-8.69084616563603,-21.76118405638391,-23.559228779193297,-17.4100618935242,-25.085906891977146C-13.058939730664488,-26.612585004760987,-10.80332925048996,-14.797558616771408,-13.679368864181427,-8.534685283008917C-16.555408477872895,-2.2718119492464286,-24.563098185430356,-1.5610916697110309,-28.482416919014266,-2.8523676504905673C-32.40173565259818,-4.143643631270104,-32.23268341220854,-7.436915872364575,-27.997450143866708,-4.445445647463978C-23.762216875524874,-1.4539754225633814,-15.460802579230855,7.822237268332283,-8.635006803157049,8.821905231615197C-1.8092110270832413,9.82157319489811,3.540966228770351,2.5446964305682753,5.71218897549692,0.8815863572332019C7.883411722223489,-0.7815237161018715,6.875679959823033,3.1691329015578176,3.3505494050626234,9.104681345923684C-0.1745811496977865,15.040229790289548,-6.217110496818152,22.96067006136159,-11.17559099295518,28.329976127211054C-16.13407148909221,33.69928219306051,-20.008503134245906,36.5174540536874,-18.042583013660945,33.7555963261106C-16.076662893075987,30.993738598533803,-8.270391006752375,22.651851282753324,0.3299310650592968,18.77228710726469C8.93025313687097,14.892722931776053,18.324625394170702,15.475481896579263,22.48952844004162,10.662918644958085C26.65443148591254,5.850355393336906,25.58986532035464,-4.35753007470866,21.22559903988182,-14.060319863298584C16.86133275940901,-23.763109651888506,9.197366364021278,-32.96080376102279,5.365383166327414,-37.55965081558993L1.5333999686335478,-42.15849787015707" style="filter: url(#nlsnl); stroke: rgb(31, 206, 203);"></path></g></svg>