<?xml version="1.0" encoding="UTF-8" standalone="no"?>
<svg
   xmlns:dc="http://purl.org/dc/elements/1.1/"
   xmlns:cc="http://creativecommons.org/ns#"
   xmlns:rdf="http://www.w3.org/1999/02/22-rdf-syntax-ns#"
   xmlns:svg="http://www.w3.org/2000/svg"
   xmlns="http://www.w3.org/2000/svg"
   version="1.1"
   id="svg2"
   height="300"
   width="300"
   preserveAspectRatio="xMidYMid"
   viewBox="0 0 300 300">
  <metadata
     id="metadata27">
    <rdf:RDF>
      <cc:Work
         rdf:about="">
        <dc:format>image/svg+xml</dc:format>
        <dc:type
           rdf:resource="http://purl.org/dc/dcmitype/StillImage" />
      </cc:Work>
    </rdf:RDF>
  </metadata>
  <defs
     id="defs25" />
  <filter
     y="-50%"
     x="-50%"
     height="500"
     width="300"
     id="jsfff">
    <feFlood
       id="feFlood5"
       result="element"
       flood-color="#BD559C" />
    <feTurbulence
       id="feTurbulence7"
       result="element_1"
       seed="48"
       numOctaves="8"
       type="fractalNoise"
       baseFrequency="0.02" />
    <feGaussianBlur
       id="feGaussianBlur9"
       result="element_2"
       in="SourceAlpha"
       stdDeviation="4" />
    <feDisplacementMap
       id="feDisplacementMap11"
       result="element_3"
       in2="element_1"
       in="element_2"
       scale="100" />
    <feComposite
       id="feComposite13"
       result="element_4"
       in2="element_3"
       in="element"
       operator="in" />
    <feMerge
       id="feMerge15">
      <feMergeNode
         id="feMergeNode17"
         in="element_4" />
    </feMerge>
  </filter>
  <g
     id="g19"
     transform="translate(150,150) scale(1.5)">
    <path
       id="path21"
       style="filter: url(#jsfff); stroke: rgb(189, 85, 156);"
       d="M0,0L2.473349484800938,-7.491839513250793C4.946698969601876,-14.983679026501585,9.893397939203751,-29.96735805300317,13.37146994899377,-25.6974886195026C16.84954195878379,-21.42761918600203,18.858987008761947,2.0957987075006965,21.094864711808206,4.359504439763006C23.33074241485447,6.623210172025313,25.793052770968835,-12.372796256952796,22.46848451703363,-20.27080862853039C19.143916263098426,-28.16882100010798,10.032469399113655,-24.968839314285056,-1.8872185799981445,-22.592203782159928C-13.806906559109944,-20.215568250034806,-28.53483565334877,-18.66227887160748,-25.82610768792192,-15.979335352604407C-23.11737972249507,-13.296391833601335,-2.9719946974025397,-9.483794174022512,8.020968602391495,-3.2876191375444512C19.013931902185526,2.9085558989336087,20.854473476681065,11.488308312310906,16.972919551854112,9.20364734729833C13.09136562702716,6.918986382285754,3.487716202877719,-6.2300879611166975,-2.0486006179259504,-2.3705365541140697C-7.58491743872962,1.489014852888559,-9.053901656187517,22.357192010296266,-1.3551324733316683,18.2596504662249C6.343636709524182,14.162108922153536,23.210159292693778,-14.901151323396903,25.523088841627658,-21.530090639536088C27.836018390561538,-28.159029955675276,15.595354905259704,-12.353648342403211,3.484529019954646,-7.621079096454225C-8.626296865350412,-2.8885098505052382,-20.607285150658694,-9.22875297187933,-19.228578466290344,-1.5961580195400824C-17.849871781921998,6.036436932799166,-3.1114701278770234,27.641869958851757,0.6486629339957455,28.94081287137672C4.408795995868514,30.239755783901686,-2.809339534430924,11.232208582899025,1.5949730663058022,1.6520218007885032C5.999285667042528,-7.928164981322018,22.026046398815417,-8.080991344540402,28.00168944303596,-3.047297999008575C33.977332487256504,1.9863953465232536,29.9018578439247,12.206608400805294,27.512396020870103,12.229729464678938C25.1229341978155,12.252850528552583,24.419485195038106,2.0788796020178326,23.66307419912161,-6.223984356564032C22.906663203205106,-14.526848315145898,22.0972902141495,-20.958605305774878,13.045145797308038,-18.27379325410912C3.9930013804665734,-15.588981202443364,-13.301914464160745,-3.787600108482871,-15.158557083200606,-4.527062775898223C-17.015199702240466,-5.266525443313575,-3.4335690956928637,-18.54683187210477,5.126127570880786,-20.798601120917073C13.685824237454435,-23.050370369729382,17.223586964054135,-14.273602438562794,6.7901743052767145,-1.2741768964697915C-3.6432383535007027,11.72524864562321,-28.047826397655236,28.947331798642626,-31.48690619279843,20.521332030422222C-34.92598598794162,12.095332262201815,-17.39955753407348,-21.978750427258415,-13.583436458137859,-28.891936214739484C-9.76731538220224,-35.80512200222055,-19.66150168419915,-15.55741088772246,-18.60593584981788,-3.068579742378767C-17.55037001543661,9.420251402964926,-5.545052044677165,14.15020257915422,-8.035499223366285,15.299841596323086C-10.525946402055405,16.449480613491954,-27.51215873019309,14.018807471640393,-22.250326360279384,8.083723870761503C-16.988493990365676,2.148640269882609,10.521383077599427,-7.290853790023616,11.784840816919475,-6.58480338990693C13.048298556239523,-5.878752989790245,-11.934663033085483,4.972841870349351,-22.79929860565374,7.5436789173961625C-33.66393417822199,10.114515964442974,-30.410243734033504,4.404595198397002,-17.124073546209416,0.8823896330216338C-3.8379033583853257,-2.639815932353735,19.48074657307436,-3.9743062970585012,20.858471482596958,-3.7246983356200665C22.23619639211956,-3.4750903741816317,1.672996279705071,-1.641384086599996,-4.1529046913224406,1.456900557990609C-9.978805662349952,4.555185202581214,-1.0674074919904903,8.918048204180788,5.416073186457993,3.605653852659949C11.899553864906476,-1.7067404988608903,15.955117051443978,-16.694392203502144,14.668514292960616,-24.79552032605804C13.38191153447725,-32.89664844861394,6.75314283097302,-34.11125298908448,7.135425512047716,-36.40979646370425C7.517708193122411,-38.708339938324016,14.911042258776034,-42.09082234709301,18.607709291602845,-43.7820635514775L22.304376324429658,-45.473304755862" />
  </g>
</svg>
