<svg viewBox="0 0 300 300" preserveAspectRatio="xMidYMid" width="300" height="300"><filter id="sjbbm" width="300" height="500" x="-50%" y="-50%"><feFlood flood-color="#f03865" result="element"></feFlood><feTurbulence baseFrequency="0.02" type="fractalNoise" numOctaves="8" seed="55" result="element_1"></feTurbulence><feGaussianBlur stdDeviation="4" in="SourceAlpha" result="element_2"></feGaussianBlur><feDisplacementMap scale="100" in="element_2" in2="element_1" result="element_3"></feDisplacementMap><feComposite operator="in" in="element" in2="element_3" result="element_4"></feComposite><feMerge><feMergeNode in="element_4"></feMergeNode></feMerge></filter><g transform="translate(150,150) scale(1.5)"><path d="M0,0L6.831333040388644,2.071003627771665C13.662666080777289,4.14200725554333,27.325332161554577,8.28401451108666,27.783734697461117,16.64665420610123C28.242137233367657,25.009293901115797,15.496276224403452,37.59256603560161,13.639586734718566,39.16782373905488C11.78289724503368,40.74308144250816,20.815379274628114,31.310324714928914,24.386630065502693,18.239289836456997C27.957880856377272,5.168254957985079,26.067900408531997,-11.541058071379508,19.45215657576126,-19.800160368920295C12.836412742990532,-28.05926266646108,1.4949055252943433,-27.868154232178064,4.731560656919454,-18.23026657815074C7.968215788544565,-8.592378924123416,25.783033269490975,10.492287949648219,25.77812321914711,15.389011978007527C25.773213168803245,20.285736006366836,7.948575587169105,10.99451718931382,1.585018590721321,2.1385193889518805C-4.778538405726463,-6.717478411410058,0.3189851830121082,-15.13825519508092,7.791422919834652,-13.916779402546315C15.263860656657195,-12.695303610011706,25.111212541563713,-1.831575241271632,29.348042950915726,2.9074331722451987C33.58487336026775,7.646441585762029,32.21118229406527,6.260730044055617,34.52443780605476,-2.38847571780214C36.83769331804426,-11.037681479659897,42.837895408225734,-26.950381461668997,33.160067962624076,-30.700203911879786C23.48224051702242,-34.450026362090576,-1.8736164643623816,-26.03697128050306,-4.29432995318423,-14.554875925746103C-6.715043442006078,-3.0727805709891403,13.799386561735025,11.478355056937263,17.064920361976732,7.645574818289858C20.330454162218437,3.8127945796424516,6.3470917589607465,-18.40390152557876,-5.781387988679249,-24.960705505693706C-17.909867736319246,-31.517509485808652,-28.183464828341545,-22.414421340817327,-32.26313373479969,-15.487635381515982C-36.342802641257826,-8.560849422214643,-34.228543362151804,-3.8103656486032844,-20.02056172577637,-7.13934893058012C-5.812580089400939,-10.468332212556955,20.489123904243908,-21.876782550121984,24.1872077984729,-23.94020854971711C27.885291692701887,-26.003634549312235,8.979755487515025,-18.722036210937457,0.6275180488846368,-13.604904345196546C-7.724719389745751,-8.487772479455634,-5.52365806181966,-5.535107086348589,-8.90492511562322,1.931840532704908C-12.28619216942678,9.398788151758405,-21.249787604959995,21.38001799675835,-17.025344314637504,21.802986674682863C-12.800901024315015,22.225955352607375,4.611580991863175,11.090662863456451,4.735679691005268,9.104514136539741C4.859778390147362,7.118365409623032,-12.304506227746641,14.281360444940539,-17.970491832355773,14.882354993269091C-23.636477436964906,15.483349541597644,-17.804164028289165,9.522343602937244,-14.136052791650348,7.454978491891905C-10.467941555011528,5.387613380846565,-8.96403249040963,7.213889097416287,-6.618762067777518,2.714078065574042C-4.2734916451454055,-1.7857329662682035,-1.0868598644830771,-12.611630746522415,6.106023896059142,-12.226737224459944C13.298907656601362,-11.841843702397473,24.498043397023473,-0.24615887801831793,23.00375908126775,-2.5529312392400447C21.50947476551202,-4.8597036004617715,7.32177039357846,-21.06893314728438,2.6360302172975723,-29.57016653157072C-2.049709958983316,-38.071399915857064,2.7665140603884697,-38.86463713760714,3.9332056372833692,-32.7778846186416C5.099897214178268,-26.691132099676064,2.6170563485962823,-13.724389839994913,-7.171195315788472,-9.660854517420418C-16.959446980173226,-5.597319194845924,-34.053109443360746,-10.436990809378084,-33.42001802790029,-13.340679082199967C-32.78692661243985,-16.24436735502185,-14.427081318331428,-17.21207228613346,-9.529961398666375,-14.439091847292996C-4.63284147900132,-11.666111408452531,-13.19844693377963,-5.152445599659995,-9.728782203206228,-0.1454323575478229C-6.259117472632823,4.861580884564349,9.245817443292294,8.361941559996156,17.09948302414194,7.176142696145141C24.953148604991586,5.990343832294126,25.15554485076576,0.11838542916028816,26.747452511303177,-0.8877684788888509C28.339360171840596,-1.89392238693799,31.320779247141257,1.9657282000975698,32.81148878479159,3.89555349361535L34.30219832244192,5.82537878713313" style="filter: url(#sjbbm); stroke: rgb(240, 56, 101);"></path></g></svg>