<svg viewBox="0 0 300 300" preserveAspectRatio="xMidYMid" width="300" height="300"><filter id="wargd" width="300" height="500" x="-50%" y="-50%"><feFlood flood-color="#9e5e6f" result="element"></feFlood><feTurbulence baseFrequency="0.02" type="fractalNoise" numOctaves="8" seed="60" result="element_1"></feTurbulence><feGaussianBlur stdDeviation="4" in="SourceAlpha" result="element_2"></feGaussianBlur><feDisplacementMap scale="100" in="element_2" in2="element_1" result="element_3"></feDisplacementMap><feComposite operator="in" in="element" in2="element_3" result="element_4"></feComposite><feMerge><feMergeNode in="element_4"></feMergeNode></feMerge></filter><g transform="translate(150,150) scale(1.5)"><path d="M0,0L2.373108094201545,-0.12226469801579068C4.74621618840309,-0.24452939603158136,9.49243237680618,-0.4890587920631627,3.2355884375105397,1.6183046486179835C-3.0212555017851006,3.7256680892991296,-20.281159568779472,8.184924366693004,-20.372332023247203,10.898351877231288C-20.463504477714938,13.611779387769571,-3.3859453196560345,14.579378131452266,1.102099732171222,15.813734767043394C5.590144783998479,17.048091402634522,-2.511324270405912,18.549205930134086,0.40826393273929984,16.663806260608595C3.3278521358845117,14.778406591083105,17.268497596579326,9.506492724532563,18.60420335232908,0.7728402418327454C19.93990910807884,-7.960812240867073,8.670675158883537,-20.156203339716168,4.165137275216113,-24.94579990116873C-0.34040060845131315,-29.735396462621296,1.9177575734091379,-27.119198486677327,7.75986009245646,-24.22766294800423C13.601962611503783,-21.336127409331134,23.028009467737977,-18.169254307928913,26.78300699793413,-8.308680576999665C30.538004528130283,1.5518931539295853,28.621952732288392,18.106167514385863,24.67886681522205,21.87530593255423C20.735780898155706,25.644444350722605,14.765660859864909,16.628446826603067,7.308250664989847,13.158844858537417C-0.14915952988521486,9.689242890471768,-9.09385988134454,11.766036478460002,-12.119030829870008,7.112774874819963C-15.144201778395473,2.459513271179924,-12.249843323987081,-8.923803524088386,-5.291331806096245,-12.47064466653356C1.6671797117945912,-16.017485808978734,12.689844293167871,-11.727851298600772,19.436030808634566,-10.583395430025542C26.18221732410126,-9.43893956145031,28.65192577366137,-11.43966233467781,25.147049139290353,-4.570688035323355C21.642172504919333,2.2982862640310984,12.162710786617183,18.036957635967507,9.494822051123998,20.31402228902432C6.826933315630813,22.591086942081123,10.970617562946595,11.406544876258332,5.5015638516306975,-0.7365905837889235C0.03251014031480004,-12.879726043836179,-15.049281529632776,-25.9814548981079,-23.59703581627167,-26.146587200298217C-32.14479010291057,-26.311719502488543,-34.15850700624079,-13.540255252597467,-29.260144362249235,-9.301964656331938C-24.361781718257678,-5.0636740600664085,-12.55133952694435,-9.358557117426425,-12.776867834810659,-9.118163308558923C-13.00239614267697,-8.877769499691421,-25.263894949722918,-4.102098824596399,-32.812782606217425,-2.8601305148155736C-40.36167026271193,-1.6181622050347477,-43.197946768654994,-3.909896260568117,-32.451423747411,-0.12198162284133085C-21.704900726167,3.6659330148854563,2.6244218222640523,13.5334963458724,5.915726255716989,14.577322953273788C9.207030689169924,15.621149560675176,-8.539682992355257,7.841239444491012,-12.910181971223889,4.745863937849062C-17.28068095009252,1.6504884312071135,-8.274965226304607,3.239647534107381,-1.1463308308307978,1.9171621285663547C5.982303564643011,0.5946767230253283,11.233856631802714,-3.639453190956992,11.625050043918609,3.267923786494622C12.016243456034502,10.175300763946236,7.547077213106587,28.224184632831786,4.243767378240009,23.763538599202562C0.9404575433734306,19.302892565573337,-1.196995883431811,-7.667283370570662,5.016363048093827,-11.695125833502598C11.229721979619466,-15.722968296434532,25.793893269475983,3.191522713845595,28.953540459356883,14.409643624409034C32.11318764923779,25.62776453497247,23.86831073914307,29.149515345819218,17.60252607917367,19.90527499702365C11.336741419204273,10.661034648228082,7.050049009360191,-11.349196860209805,5.718358026898066,-16.525457158996918C4.386667044435942,-21.701717457784035,6.009977489355775,-10.044006546920379,1.3028987320602958,0.46839563285726094C-3.404180025235183,10.9807978126349,-14.441647984745973,20.347891261326524,-12.937296348646376,24.160606996247246C-11.432944712546778,27.973322731167972,2.6132265191632076,26.231660752317797,6.508921120445906,20.216952161675053C10.404615721728604,14.202243571032305,4.149833692584016,3.91448836859699,3.860435820617261,-2.458290431974633C3.5710379486505057,-8.831069232546255,9.247024233861582,-11.288871631254185,12.085017376467121,-12.517772830608148L14.923010519072662,-13.746674029962115" style="filter: url(#wargd); stroke: rgb(158, 94, 111);"></path></g></svg>