<?xml version="1.0" encoding="UTF-8" standalone="no"?>
<svg
   xmlns:dc="http://purl.org/dc/elements/1.1/"
   xmlns:cc="http://creativecommons.org/ns#"
   xmlns:rdf="http://www.w3.org/1999/02/22-rdf-syntax-ns#"
   xmlns:svg="http://www.w3.org/2000/svg"
   xmlns="http://www.w3.org/2000/svg"
   version="1.1"
   id="svg2"
   height="300"
   width="300"
   preserveAspectRatio="xMidYMid"
   viewBox="0 0 300 300">
  <metadata
     id="metadata27">
    <rdf:RDF>
      <cc:Work
         rdf:about="">
        <dc:format>image/svg+xml</dc:format>
        <dc:type
           rdf:resource="http://purl.org/dc/dcmitype/StillImage" />
      </cc:Work>
    </rdf:RDF>
  </metadata>
  <defs
     id="defs25" />
  <filter
     y="-50%"
     x="-50%"
     height="500"
     width="300"
     id="rxpnz">
    <feFlood
       id="feFlood5"
       result="element"
       flood-color="#AA4069" />
    <feTurbulence
       id="feTurbulence7"
       result="element_1"
       seed="23"
       numOctaves="8"
       type="fractalNoise"
       baseFrequency="0.02" />
    <feGaussianBlur
       id="feGaussianBlur9"
       result="element_2"
       in="SourceAlpha"
       stdDeviation="4" />
    <feDisplacementMap
       id="feDisplacementMap11"
       result="element_3"
       in2="element_1"
       in="element_2"
       scale="100" />
    <feComposite
       id="feComposite13"
       result="element_4"
       in2="element_3"
       in="element"
       operator="in" />
    <feMerge
       id="feMerge15">
      <feMergeNode
         id="feMergeNode17"
         in="element_4" />
    </feMerge>
  </filter>
  <g
     id="g19"
     transform="translate(150,150) scale(1.5)">
    <path
       id="path21"
       style="filter: url(#rxpnz); stroke: rgb(170, 64, 105);"
       d="M0,0L0.1643507826374208,-1.8122754095858995C0.3287015652748416,-3.624550819171799,0.6574031305496832,-7.249101638343598,-1.187162348795924,-4.59069806945376C-3.0317278281415314,-1.9322945005639216,-7.049560352107587,7.009063456387554,-10.114167406449168,15.89680144275594C-13.178774460790748,24.784539429124322,-15.290156045507851,33.618657444909616,-7.42392015951798,28.513462561533377C0.4423157264718931,23.408267678157134,18.286169083168744,4.363759895619355,20.318239010545337,-2.2305541435234164C22.35030893792193,-8.824868182666187,8.57059543597827,-2.9689884784139497,0.25571642762901314,-0.6489533091420041C-8.059162580720242,1.6710818601299415,-10.909207095475093,0.45527249442159534,-8.433934229779398,0.3941210238651863C-5.958661364083704,0.3329695533087773,1.8419288820625361,1.4264759779043055,3.536587734188199,2.2219656736171016C5.231246586313862,3.017455369329898,0.819974044418947,3.5149283361599624,-2.3788462649328372,-3.621551085524517C-5.577666574284621,-10.758030507208996,-7.564034651093275,-25.528462317408017,0.2544628068749377,-30.741724008352705C8.07296026484315,-35.954985699297396,25.69632325758823,-31.611077270987742,24.99839045604915,-30.45547912419199C24.300457654510076,-29.29988097739624,5.281229058686847,-31.33259311211438,-9.929981694134991,-29.900795359116664C-25.14119244695683,-28.468997606118947,-36.54438535677727,-23.57268996540537,-31.78348892830428,-12.530893637138368C-27.022592499831298,-1.4890973088713615,-6.097606733064877,15.69818770694907,2.2334121634100503,17.778806887331093C10.564431059884978,19.859426067713112,6.301483086068414,6.833379412656724,6.4608126975178815,1.8293217987766779C6.620142308967349,-3.174735815103368,11.201749505682848,-0.15680438780707062,8.736900063132323,-2.229095746514502C6.272050620581797,-4.301387105221933,-3.2392554612347535,-11.463901249933093,-5.711711624955497,-15.348978806682995C-8.184167788676241,-19.234056363432895,-3.6177740343011786,-19.841697332221536,-6.097601420041702,-20.930179943712375C-8.577428805782226,-22.018662555203218,-18.103477331638334,-23.587986809396256,-12.63590067997658,-23.846147391079413C-7.168324028314821,-24.10430797276257,13.292877800864805,-23.051304881935845,17.505225650414,-22.106304572837207C21.717573499963205,-21.161304263738565,9.681067369881978,-20.32430673636801,7.233201357884834,-13.506141115304002C4.78533534588769,-6.687975494239995,11.926109451974627,6.111358220517461,12.513167831350103,16.185042268106514C13.100226210725575,26.25872631569557,7.133568863389586,33.60676069611622,5.265897734788045,25.24672716326956C3.398226606186505,16.886693630422904,5.629541696319415,-7.181407815691056,-2.220683740821526,-13.755675721003724C-10.070909177962466,-20.329943626316393,-28.002675142377257,-9.41037799082777,-33.389914085679465,-5.539754905601585C-38.77715302898166,-1.6691318203753989,-31.619864951171273,-4.84745128541165,-24.64941464147979,-10.179516606873893C-17.678964331788308,-15.511581928336136,-10.895351790215729,-22.997393106224372,-8.256461109318554,-28.053474903321614C-5.617570428421377,-33.109556700418864,-7.123401608199605,-35.73590911672511,-11.958946753101923,-33.925094085089704C-16.794491898004246,-32.11427905345429,-24.959751008030658,-25.86629657387721,-19.68968537070941,-24.55151576619197C-14.419619733388163,-23.236734958506734,4.2857706512807425,-26.855155822713336,9.779334337974188,-26.481094236288605C15.272898024667635,-26.107032649863875,7.554635013385622,-21.740488612807816,6.024990635677831,-13.772694713599899C4.495346257970041,-5.804900814391978,9.154320513836474,5.7641429469678,9.280379934025582,1.2412642110203738C9.40643935421469,-3.281614524927054,4.999583938726474,-23.896415758181686,8.688441147684998,-29.20894651156626C12.377298356643522,-34.52147726495083,24.161868190048786,-24.531737538465354,29.10047781366106,-16.86285508897615C34.03908743727334,-9.193972639486944,32.13173685109262,-3.845947466994016,25.734511187806984,-1.6776550174401175C19.337285524521345,0.49063743211378097,8.450184784130789,-0.5208028412713499,3.00663441393551,-1.0265229779639153L-2.436915956259769,-1.532243114656481" />
  </g>
</svg>
