<svg viewBox="0 0 300 300" preserveAspectRatio="xMidYMid" width="300" height="300"><filter id="gjsrx" width="300" height="500" x="-50%" y="-50%"><feFlood flood-color="#ff9baa" result="element"></feFlood><feTurbulence baseFrequency="0.02" type="fractalNoise" numOctaves="8" seed="90" result="element_1"></feTurbulence><feGaussianBlur stdDeviation="5" in="SourceAlpha" result="element_2"></feGaussianBlur><feDisplacementMap scale="100" in="element_2" in2="element_1" result="element_3"></feDisplacementMap><feComposite operator="in" in="element" in2="element_3" result="element_4"></feComposite><feMerge><feMergeNode in="element_4"></feMergeNode></feMerge></filter><g transform="translate(150,150) scale(1.5)"><path d="M0,0L2.9319301597370306,1.8960049627336555C5.863860319474061,3.792009925467311,11.727720638948123,7.584019850934622,12.508610063676326,7.826694056585425C13.289499488404529,8.069368262236228,8.987418018386874,4.762706748070523,6.083683256885722,5.614278023495476C3.179948495384569,6.465849298920428,1.6745604423999187,11.475653363936038,1.7638502882581992,10.177132985963292C1.8531401341164802,8.878612607990545,3.5371078788176917,1.2717677870294422,4.284404912013181,4.352420118118096C5.031701945208669,7.43307244920675,4.842328266898434,21.20122193234516,3.5803164559581018,21.996219741477262C2.3183046450177685,22.79121755060936,-0.016345298552663312,10.613063685735147,-2.527556213888807,4.499362236569508C-5.038767129224951,-1.6143392125961316,-7.726539016326806,-1.663588246053199,-0.08298958630784448,1.9332044190347788C7.560559843711118,5.529997084122757,25.5354305908509,12.77283144775578,27.978861233544084,11.599995754876739C30.422291876237267,10.4271600619977,17.334282414483855,0.8386543126066002,6.171203478600112,1.1149505415743715C-4.99187545728363,1.3912467705421427,-14.2300238672977,11.532344977868785,-21.46781508427783,21.925224891301475C-28.70560630125796,32.31810480473417,-33.943040325204144,42.96276642427291,-27.001972362901448,41.56731786187436C-20.06090440059875,40.1718692994758,-0.9413344520471725,26.736310555139962,5.545205117931871,24.835355112642013C12.031744687910914,22.934399670144067,5.8852538793174185,32.56804752948402,4.670541605617711,31.27625332382906C3.455829331918003,29.9844591181741,7.172895593112083,17.767222847524238,4.209165837725099,10.057546609114159C1.2454360823381156,2.347870370704083,-8.39908968962993,-0.8542458354662066,-16.436578098827614,-1.7692253267501745C-24.474066508025295,-2.6842048180341425,-30.904517554452617,-1.312047594431789,-31.177848210945886,-2.0547633355288926C-31.451178867439154,-2.797479076625996,-25.56738913399837,-5.655067782422556,-25.099044024934557,-2.9511304017316617C-24.63069891587075,-0.24719302104076846,-29.577798431183915,8.01827044613758,-17.128645105374602,11.698491450980676C-4.679491779565289,15.378712455823774,25.165914387366502,14.47369099833162,30.958368776700894,13.91745233955483C36.75082316603529,13.36121368077804,18.490325777772284,13.153757820716613,9.477777483067202,13.160918672167098C0.46522918836212174,13.168079523617584,0.700629987214963,13.38985708657998,1.8762229550157565,11.151088563658423C3.05181592281655,8.912320040736866,5.167601059565296,4.213005431931352,-1.037541968973212,2.3839631534386916C-7.24268499751172,0.5549208749460304,-21.76875619133748,1.5961509267662213,-21.95256705533188,5.289472330701583C-22.13637791932627,8.982793734636946,-7.977928453489302,15.328206490687478,-7.340648667018489,23.559297064590638C-6.703368880547677,31.7903876384938,-19.587258773443022,41.90715603024959,-18.437562322393767,37.29484714565019C-17.28786587134451,32.68253826105079,-2.104583076350652,13.341152100096192,3.833317282457539,5.939008423773056C9.77121764126573,-1.4631352525500794,6.463735563888255,3.073963555758243,2.07086367061438,3.803228603413112C-2.3220082226594942,4.532493651067981,-7.800269931829767,1.453924938069397,-12.987045052156581,-4.786154515570444C-18.173820172483396,-11.026233969210285,-23.06910870396675,-20.427824163491383,-18.21164232165413,-25.632716086927765C-13.354175939341513,-30.837608010364143,1.2560453567670837,-31.845801662955804,4.298553361029002,-22.554817603404825C7.34106136529092,-13.263833543853842,-1.1841439222938392,6.326328227839781,3.7554541881563748,20.446951452400253C8.695052298606589,34.567574676960724,27.099453807091777,43.218659354388045,30.991633295842426,33.03830325495777C34.883812784593076,22.857947155527494,24.263770253609188,-6.153849720760377,13.904866241268056,-13.801243456467372C3.5459622289269195,-21.448637192174367,-6.551803264771464,-7.731627787300487,-1.2943412611692064,-1.0547472449850326C3.963120742433052,5.622133297330421,24.57581024333595,5.258884977087449,34.8821549937874,5.077260816965962L45.188499744238854,4.895636656844476" style="filter: url(#gjsrx); stroke: rgb(255, 155, 170);"></path></g></svg>