<svg viewBox="0 0 300 300" preserveAspectRatio="xMidYMid" width="300" height="300"><filter id="fbfhv" width="300" height="500" x="-50%" y="-50%"><feFlood flood-color="#2D5DA1" result="element"></feFlood><feTurbulence baseFrequency="0.02" type="fractalNoise" numOctaves="8" seed="63" result="element_1"></feTurbulence><feGaussianBlur stdDeviation="5" in="SourceAlpha" result="element_2"></feGaussianBlur><feDisplacementMap scale="100" in="element_2" in2="element_1" result="element_3"></feDisplacementMap><feComposite operator="in" in="element" in2="element_3" result="element_4"></feComposite><feMerge><feMergeNode in="element_4"></feMergeNode></feMerge></filter><g transform="translate(150,150) scale(1.5)"><path d="M0,0L2.844657816355666,5.248219495439841C5.689315632711332,10.496438990879682,11.378631265422664,20.992877981759364,17.837490986920983,18.83332255137554C24.2963507084193,16.67376712099172,31.524754518704604,1.8582172693443972,29.646897084259393,0.5627826485001428C27.769039649814175,-0.7326519723441116,16.784920970638442,11.492028637614704,10.303829073541625,15.92093520425578C3.8227371764448064,20.34984177089686,1.8446720614269045,16.982974294220195,0.6085815856255046,16.85366799997003C-0.6275088901758954,16.72436170571986,-1.1216247267607935,19.83261659389619,1.1271410496027126,22.142857615473254C3.3759068259662186,24.453098637050317,8.36755421527813,25.96532579202811,-1.2231346905654874,14.522311634825815C-10.813823596409105,3.079297477623518,-34.98684879740825,-21.31895799175887,-30.791031770639293,-23.048678809039316C-26.595214743870343,-24.778399626319754,5.969444510666708,-3.8395857914982496,17.12242826573704,3.8466562790735277C28.275412020807366,11.532898349645306,18.01672027641098,5.966568655967355,11.557347453299968,4.797619369740969C5.0979746301889595,3.6286700835145824,2.437920728363333,6.85710120473976,-0.37249333467004675,3.305436660085626C-3.1829073977034263,-0.2462278845685093,-6.143681621944559,-10.577988095101958,-10.11911153554103,-17.196941751723354C-14.0945414491375,-23.81589540834475,-19.08462705208931,-26.7220425110541,-15.497382205303797,-29.722332204406477C-11.910137358518284,-32.722621897758856,0.2544379380045516,-35.81705418175427,9.759438464247847,-31.65682153325402C19.26443899049114,-27.496588884753773,26.109864746454893,-16.081691303757864,16.97348203719806,-17.571810690952642C7.837099327941232,-19.06193007814742,-17.281091846536185,-33.45706643353288,-16.239964659862114,-33.66186468307744C-15.198837473188043,-33.86666293262199,12.001608074637513,-19.881123076325647,16.67867232722745,-7.8411021211134635C21.355736579817385,4.198918834098719,3.5094195371717003,14.29342088822674,-0.1822281143846851,15.297464376251247C-3.8738757659410705,16.301507864275756,6.589145973591843,8.21509278619675,12.502086433050621,-4.886558275411672C18.4150268925094,-17.988209337020095,19.777886071894045,-36.10509638215794,15.412648807933273,-40.2632719787894C11.047411543972501,-44.421447575420856,0.9540778366663156,-34.62091172354594,-2.921490911939758,-31.762010644784773C-6.797059660545831,-28.90310956602361,-4.454863450451792,-32.98584326037621,-7.818050599396428,-32.843119427201756C-11.181237748341065,-32.7003955940273,-20.249808256324375,-28.332214233325796,-20.891696119016068,-14.166444029781907C-21.533583981707757,-0.0006738262380157067,-13.74878919910783,23.962685220148263,-5.778222133129211,30.75464920626986C2.192344932849406,37.54661319239146,10.348684282206712,27.16718211824838,12.739144987961044,14.748897695639124C15.129605693715376,2.3306132730298685,11.754187755866738,-12.126524498045564,6.281065967125614,-15.4702456613143C0.8079441783844921,-18.813966824583037,-6.762881461249115,-11.044271380045076,-2.148429193814957,-5.846790335172704C2.4660230736192013,-0.6493092903003332,19.265753248121122,1.9759573549064509,22.486496950205186,2.5589971377990484C25.70724065228925,3.142036920691645,15.348997881955453,1.6828498412700559,13.222046441438984,-1.219466210896769C11.095095000922512,-4.1217822630635945,17.19943489022337,-8.467227287975655,15.56900630323251,-2.386412443334909C13.93857771624165,3.694402401305835,4.573380652959075,20.201477115499387,-0.4812656562558195,28.442549289473657C-5.535911965470714,36.683621463447935,-6.280007520617927,36.65869109720293,-8.787678726628421,24.36531340424597C-11.295349932638917,12.07193571128901,-15.56659678951269,-12.48988930837991,-13.413196085602642,-20.51696002369399C-11.259795381692594,-28.54403073900807,-2.681747116998722,-20.03634714996731,4.647037411916198,-11.699661655155175C11.975821940831118,-3.362976160343039,18.055342733967088,4.802711240240471,23.92353658328071,8.519639349799485C29.791730432594335,12.2365674593585,35.44859733808562,11.50473627789302,38.27703079083126,11.138820687160278L41.105464243576904,10.77290509642754" style="filter: url(#fbfhv); stroke: rgb(45, 93, 161);"></path></g></svg>