<svg viewBox="0 0 300 300" preserveAspectRatio="xMidYMid" width="300" height="300"><filter id="zgijb" width="300" height="500" x="-50%" y="-50%"><feFlood flood-color="#ff4681" result="element"></feFlood><feTurbulence baseFrequency="0.02" type="fractalNoise" numOctaves="8" seed="44" result="element_1"></feTurbulence><feGaussianBlur stdDeviation="4" in="SourceAlpha" result="element_2"></feGaussianBlur><feDisplacementMap scale="100" in="element_2" in2="element_1" result="element_3"></feDisplacementMap><feComposite operator="in" in="element" in2="element_3" result="element_4"></feComposite><feMerge><feMergeNode in="element_4"></feMergeNode></feMerge></filter><g transform="translate(150,150) scale(1.5)"><path d="M0,0L2.0651889168093445,6.852885724551545C4.130377833618689,13.70577144910309,8.260755667237378,27.41154289820618,16.32062145377246,27.275881198311527C24.380487240307538,27.140219498416872,36.36984097975901,13.16312464952448,28.97448560975089,3.182882721306427C21.57913023974276,-6.7973592069116275,-5.200934239724969,-12.78074821445534,-7.6383394452996125,-5.48745934564379C-10.075744650874256,1.8058295231677608,11.829509417444184,22.375796268334575,15.334255230777876,28.490868619345818C18.839001044111566,34.60594097035706,3.94323860246051,26.26611892721273,-1.6830252076531753,9.419228279650458C-7.309289017766861,-7.427662367911813,-3.6660541963431745,-32.78162161989202,-5.624044849712545,-36.17013731305905C-7.582035503081916,-39.55865300622608,-15.141251631244344,-20.981725140579922,-14.677767120061688,-5.09756448275013C-14.21428260887903,10.786596175079664,-5.728097458351288,23.977989625093095,-1.4393851257202228,25.44065743882874C2.849327206910842,26.903325252564386,2.9405667216452276,16.63726743002225,6.584616978761543,11.686879399678483C10.22866723587786,6.7364913693347175,17.425528235376106,7.101773131189326,22.173355510308134,0.36165674966434924C26.92118278524016,-6.378459631860627,29.219976335605967,-20.223974156765188,18.503040991055077,-21.94373280644678C7.786105646504181,-23.663491456128373,-15.946558592963413,-13.257494230586996,-17.622910341292624,-5.5993336829067095C-19.299262089621834,2.058826864773578,1.0806986531873353,6.969150734592774,7.364118834344275,5.924758444038767C13.647539015501216,4.880366153484761,5.834418635005925,-2.118742297442448,10.043390046391956,-0.9129403476876687C14.252361457777985,0.2928616020671111,30.483424661045337,9.70357395250388,34.73102506192929,16.83451999314193C38.97862546281324,23.96546603377998,31.242763061313788,28.81664576461931,27.036098890033017,25.790014498481078C22.829434718752246,22.76338323234285,22.151968777690154,11.858940969227056,10.352434862146678,5.508800953965988C-1.4470990533968013,-0.8413390612950812,-24.368700943421665,-2.6371768287014277,-37.51897920383995,1.0451926934922406C-50.66925746425822,4.727562215685909,-54.048212095069914,13.888139027479593,-44.54455228748259,14.309410255239426C-35.04089247989526,14.730681482999255,-12.654618233908913,6.4126471267252345,-9.089127501428951,-0.003003964117787472C-5.523636768948989,-6.418655054960809,-20.778929549975416,-10.93192288037283,-23.081456535346724,-6.380691448055371C-25.383983520718033,-1.8294600157379133,-14.733744710434221,11.786270674309026,-5.097876417997492,14.972326744045754C4.537991874439237,18.15838281378248,13.159489649028885,10.914764263209001,13.109609006474601,-1.1272805027225887C13.059728363920318,-13.169325268654177,4.338469304222101,-30.009796249943875,-3.5055411264944203,-32.66869786279931C-11.34955155721094,-35.32759947565476,-18.316313358945767,-23.804931720075942,-17.627172836158227,-17.822791854857712C-16.938032313370684,-11.840651989639486,-8.592989466060773,-11.399040014781844,-7.017817290884423,-3.574357180956432C-5.442645115708074,4.250325652868982,-10.637343612665283,19.458079345662167,-9.992067656985403,29.06640215917183C-9.346791701305522,38.67472497268149,-2.8615412929885484,42.68361690690763,1.8506677693844518,38.04183493726753C6.5628768317574515,33.40005296762744,9.502044548186479,20.1075970941211,10.410314204984228,12.052401922894598C11.318583861781976,3.997206751668096,10.195955458948445,1.179272282721426,4.740174086636383,-2.132715369409608C-0.7156072856756781,-5.444703021540642,-10.50454162746627,-9.25074385685604,-12.171602282005258,-7.169532896993756C-13.838662936544244,-5.088321937131472,-7.383849903831625,2.8801408179084964,-4.713733170673116,2.6034480939488374C-2.0436164375146064,2.3267553699891783,-3.158196003910206,-6.195092832970108,4.7442830333257895,-5.728719682458824C12.646762070561785,-5.262346531947538,29.566299711429373,4.192247972034316,27.732939928132502,11.288750796260391C25.89958014483563,18.385253620486466,5.313322937374302,23.123664764956764,-4.979805666356364,25.492870337191913L-15.27293427008703,27.862075909427062" style="filter: url(#zgijb); stroke: rgb(255, 70, 129);"></path></g></svg>