<?xml version="1.0" encoding="UTF-8" standalone="no"?>
<svg
   xmlns:dc="http://purl.org/dc/elements/1.1/"
   xmlns:cc="http://creativecommons.org/ns#"
   xmlns:rdf="http://www.w3.org/1999/02/22-rdf-syntax-ns#"
   xmlns:svg="http://www.w3.org/2000/svg"
   xmlns="http://www.w3.org/2000/svg"
   version="1.1"
   id="svg2"
   height="300"
   width="300"
   preserveAspectRatio="xMidYMid"
   viewBox="0 0 300 300">
  <metadata
     id="metadata27">
    <rdf:RDF>
      <cc:Work
         rdf:about="">
        <dc:format>image/svg+xml</dc:format>
        <dc:type
           rdf:resource="http://purl.org/dc/dcmitype/StillImage" />
      </cc:Work>
    </rdf:RDF>
  </metadata>
  <defs
     id="defs25" />
  <filter
     y="-50%"
     x="-50%"
     height="500"
     width="300"
     id="faxkb">
    <feFlood
       id="feFlood5"
       result="element"
       flood-color="#fc2847" />
    <feTurbulence
       id="feTurbulence7"
       result="element_1"
       seed="99"
       numOctaves="8"
       type="fractalNoise"
       baseFrequency="0.02" />
    <feGaussianBlur
       id="feGaussianBlur9"
       result="element_2"
       in="SourceAlpha"
       stdDeviation="5" />
    <feDisplacementMap
       id="feDisplacementMap11"
       result="element_3"
       in2="element_1"
       in="element_2"
       scale="100" />
    <feComposite
       id="feComposite13"
       result="element_4"
       in2="element_3"
       in="element"
       operator="in" />
    <feMerge
       id="feMerge15">
      <feMergeNode
         id="feMergeNode17"
         in="element_4" />
    </feMerge>
  </filter>
  <g
     id="g19"
     transform="translate(150,150) scale(1.5)">
    <path
       id="path21"
       style="filter: url(#faxkb); stroke: rgb(252, 40, 71);"
       d="M0,0L4.541494781042297,6.680586156630246C9.082989562084594,13.361172313260491,18.165979124169187,26.722344626520982,22.15932841525761,25.41998802729835C26.15267770634604,24.11763142807572,25.056386726438298,8.15174591636996,13.94735039489341,-3.625982162945C2.8383140633485233,-15.40371024225996,-18.283467619833512,-22.99328088918412,-16.393298327013866,-21.4334955989168C-14.50312903419422,-19.873710308649475,10.398991234627108,-9.164569081190667,14.975387862879522,2.285487084359751C19.551784491131933,13.735543249910169,3.802457478815433,25.9265143535522,-4.528903170233322,17.59040143020573C-12.860263819282078,9.254288506859261,-13.773658105063086,-19.608908443475705,-14.413610610417782,-23.31825379350748C-15.053563115772477,-27.02759914353926,-15.420073840700857,-5.583092893267844,-22.15277762173795,0.29018188510289367C-28.885481402775042,6.163456663473632,-41.984378239920844,-3.5345000300563063,-37.24621786014463,1.5184743588926173C-32.50805748036843,6.571448747841542,-9.932839883670201,26.375354219269326,0.7974274377644921,33.41511519868475C11.527694759199186,40.45487617810018,10.413011805370347,34.73049266550324,9.14263975507926,31.393784809252324C7.872267704788175,28.057076953001413,6.446206558034841,27.10804475309652,6.596336780233524,23.793652561297343C6.746467002432208,20.47926036949816,8.472788593582909,14.799508185804688,10.571093322886389,10.914290081452357C12.66939805218987,7.029071977100028,15.139685919646126,4.938387952088839,15.133981853711694,8.102989889796062C15.128277787777261,11.267591827503285,12.646581788452139,19.687479727928917,14.906075274710325,13.31850751214749C17.165568760968515,6.9495352963660615,24.166251732810014,-14.20829703562243,23.589333129098467,-17.995187267101077C23.012414525386916,-21.782077498579724,14.857894346122318,-8.198025629548528,5.894004078437304,-3.898740975952769C-3.069886189247714,0.4005436776429896,-12.843146545353147,-4.58493888419669,-21.021948497836313,-7.507514808615486C-29.200750450319482,-10.430090733034284,-35.78509399918038,-11.289760020032197,-30.382821901445592,-3.358513880886674C-24.9805498037108,4.572732258258847,-7.5916620593803215,21.294893823547806,-6.077839159104937,28.0741168827845C-4.564016258829553,34.85333994202121,-18.925258202609264,31.689624495205646,-13.075344788541855,22.827277113552146C-7.225431374474445,13.96492973189865,18.835637397440085,-0.5960495845927873,22.540552185540747,-12.059580840784175C26.245466973641413,-23.52311209697556,7.594227777928209,-31.889195292866898,0.8372522804313487,-32.46347772864333C-5.919723217065512,-33.03776016441977,-0.7824350163460299,-25.820241840081316,3.622158084110973,-19.572944826034735C8.026751184567976,-13.325647811988155,11.6986491847625,-8.048572108233456,7.193528440658453,0.9863396008960716C2.6884076965544086,10.021251310025601,-9.993731791848207,22.81399902452996,-4.023038096075123,27.30626021510834C1.9476555996979634,31.79852140568672,26.57118247964675,27.990296072339124,31.086966423715833,24.34070857367564C35.602750367784914,20.691121075012166,20.010791375974293,17.200171411032805,10.979176844289215,10.104056772406679C1.9475623126041377,3.007942133780551,-0.5237077589553951,-7.693337479492342,-0.9864092847171984,-17.40394146362604C-1.4491108104790014,-27.11454544775974,0.09675620955692488,-35.83447380275424,0.13893410653621702,-31.506958106481065C0.18111200351550905,-27.17944241020789,-1.280399222561833,-9.804482662667036,-5.426228659608125,-8.694552243901677C-9.572058096654416,-7.584621825136319,-16.402205744669658,-22.739720735146456,-16.04563000499432,-25.45626219830801C-15.689054265318983,-28.172803661469562,-8.145755137953069,-18.450787677782536,-4.297465570636486,-9.267434655632755C-0.4491760033199036,-0.08408163348297393,-0.2958959960526533,8.560608427129559,-0.504509073474185,10.441565395312958C-0.7131221508957166,12.322522363496358,-1.2836283130060304,7.439746239250627,-10.80513435855818,10.450801875507604C-20.32664040411033,13.461857511764581,-38.79914633310431,24.366744908524264,-48.0353992976013,29.819188606904106L-57.2716522620983,35.27163230528395" />
  </g>
</svg>
