<svg viewBox="0 0 300 300" preserveAspectRatio="xMidYMid" width="300" height="300"><filter id="revvd" width="300" height="500" x="-50%" y="-50%"><feFlood flood-color="#76ff7a" result="element"></feFlood><feTurbulence baseFrequency="0.02" type="fractalNoise" numOctaves="8" seed="2" result="element_1"></feTurbulence><feGaussianBlur stdDeviation="5" in="SourceAlpha" result="element_2"></feGaussianBlur><feDisplacementMap scale="100" in="element_2" in2="element_1" result="element_3"></feDisplacementMap><feComposite operator="in" in="element" in2="element_3" result="element_4"></feComposite><feMerge><feMergeNode in="element_4"></feMergeNode></feMerge></filter><g transform="translate(150,150) scale(1.5)"><path d="M0,0L7.385315646104461,1.3381875112135104C14.770631292208922,2.676375022427021,29.541262584417844,5.352750044854042,30.655843647007565,5.15183413756893C31.770424709597286,4.950918230283817,19.228955542567807,1.8727113932865709,11.48216493221235,1.8036375239976417C3.7353743218568907,1.7345636547087124,0.7832622681754537,4.6746227531281,1.747388369413703,-0.314036927938C2.7115144706519523,-5.302696609004101,7.591878726809887,-18.220075069555687,9.843073011839994,-22.18812156949979C12.094267296870104,-26.156168069443886,11.716291610772386,-21.174882608780496,7.3023101715283,-15.959146931292967C2.8883287322842133,-10.743411253805437,-5.561658460106241,-5.2932253594937695,-11.85579886811809,-10.573276612161177C-18.14993927612994,-15.853327864828584,-22.28823289976318,-31.863616264475066,-16.947064548706646,-34.100476239982925C-11.60589619765011,-36.33733621549078,3.2147341280962074,-24.80076776686,5.603576545829227,-10.807260991795868C7.992418963562246,3.1862457832682622,-2.0505265267180324,19.636690884765752,-6.920896712072011,20.557979283874182C-11.791266897425988,21.47926768298261,-11.489061777853667,6.871399379701973,-9.506006083016986,2.3595276604577604C-7.522950388180304,-2.152344058786452,-3.859044118079262,3.431780806005757,-7.58129141784176,4.708804446381947C-11.303538717604257,5.985828086758136,-22.411939587230293,2.9557505027183066,-25.69646627822827,-0.6969906933300378C-28.98099296922625,-4.349731889378383,-24.44164548159617,-8.625136697435241,-13.617684627146366,0.8172716738966592C-2.7937237726965627,10.25968004522856,14.314850448572965,33.41990159594922,24.103231424745125,36.69087745805272C33.891612400917296,39.9618533201562,36.35980013199209,23.343583493642527,33.611329664150546,18.03774905132752C30.862859196308992,12.731914609012515,22.897730529551094,18.738515550896185,18.727588575540004,19.832609249829797C14.55744662152892,20.92670294876341,14.182291380264644,17.10828940474697,9.43355591192013,17.03625217463972C4.684820443575619,16.964214944532475,-4.43749525184913,20.638554028334426,-1.2030849533802819,16.157652375214774C2.0313253450885664,11.67675072209512,17.62246163745101,-0.9593916679461376,23.696061072596564,-0.8090906385851193C29.769660507742117,-0.658789609224101,26.325723085670774,12.277954839539193,28.28841649993691,17.547677531210574C30.251109914203052,22.817400222881957,37.620434164806674,20.420101157461428,37.13014501926332,11.31123786744737C36.63985587371995,2.2023745774333072,28.289953332029608,-13.618052937174284,22.5716839766288,-23.102309562988125C16.853414621227998,-32.58656618880197,13.766778452116732,-35.73465192582205,10.498170442750688,-27.498915759086373C7.229562433384642,-19.26317959235069,3.7789825837638182,0.35637847814076196,-7.463978268062224,8.341526332038171C-18.706939119888265,16.32667418593558,-37.74228097391953,12.677411823238947,-36.666568127777104,7.9508888303650505C-35.59085528163469,3.2243658374911535,-14.404087735318592,-2.579417785560006,-1.6249821816693677,-2.5554142411459013C11.154123371979857,-2.5314106967317964,15.52556693296221,3.320380015147572,15.231366927425968,1.977783729274285C14.937166921889727,0.635187443400997,9.977323349834892,-7.901795840224947,15.267630774303086,-10.440631625855762C20.557938198771282,-12.979467411486578,36.09839661976251,-9.520155699122265,34.96046530280266,-4.693950136624096C33.8225339858428,0.1322554258740718,16.00621293093188,6.325354838506096,7.546957462185021,9.046630737739628C-0.9122980065618372,11.767906636973159,-0.014487889144627841,11.017359022808199,3.9520100630371098,9.351245199675105C7.918508015218848,7.685131376542012,14.953693802165112,5.103451344440785,12.70317961062195,-1.3279831699387228C10.452665419078787,-7.7594176843182305,-1.0835487509538062,-18.04060668097602,-5.561110670712424,-27.81216831211259C-10.038672590471041,-37.58372994324917,-7.457582259955684,-46.84566420886452,-10.899124414656997,-50.29674813381537C-14.340666569358309,-53.747832058766214,-23.804841209276294,-51.38806564305255,-28.536928529235283,-50.20818243519571L-33.269015849194275,-49.028299227338884" style="filter: url(#revvd); stroke: rgb(118, 255, 122);"></path></g></svg>