<?xml version="1.0" encoding="UTF-8" standalone="no"?>
<svg
   xmlns:dc="http://purl.org/dc/elements/1.1/"
   xmlns:cc="http://creativecommons.org/ns#"
   xmlns:rdf="http://www.w3.org/1999/02/22-rdf-syntax-ns#"
   xmlns:svg="http://www.w3.org/2000/svg"
   xmlns="http://www.w3.org/2000/svg"
   version="1.1"
   id="svg2"
   height="300"
   width="300"
   preserveAspectRatio="xMidYMid"
   viewBox="0 0 300 300">
  <metadata
     id="metadata27">
    <rdf:RDF>
      <cc:Work
         rdf:about="">
        <dc:format>image/svg+xml</dc:format>
        <dc:type
           rdf:resource="http://purl.org/dc/dcmitype/StillImage" />
      </cc:Work>
    </rdf:RDF>
  </metadata>
  <defs
     id="defs25" />
  <filter
     y="-50%"
     x="-50%"
     height="500"
     width="300"
     id="lfoxj">
    <feFlood
       id="feFlood5"
       result="element"
       flood-color="#9fe2bf" />
    <feTurbulence
       id="feTurbulence7"
       result="element_1"
       seed="77"
       numOctaves="8"
       type="fractalNoise"
       baseFrequency="0.02" />
    <feGaussianBlur
       id="feGaussianBlur9"
       result="element_2"
       in="SourceAlpha"
       stdDeviation="4" />
    <feDisplacementMap
       id="feDisplacementMap11"
       result="element_3"
       in2="element_1"
       in="element_2"
       scale="100" />
    <feComposite
       id="feComposite13"
       result="element_4"
       in2="element_3"
       in="element"
       operator="in" />
    <feMerge
       id="feMerge15">
      <feMergeNode
         id="feMergeNode17"
         in="element_4" />
    </feMerge>
  </filter>
  <g
     id="g19"
     transform="translate(150,150) scale(1.5)">
    <path
       id="path21"
       style="filter: url(#lfoxj); stroke: rgb(159, 226, 191);"
       d="M0,0L6.396392505030585,0.03921177179088975C12.79278501006117,0.0784235435817795,25.58557002012234,0.156847087163559,29.458558630274098,6.64493049991922C33.33154724042586,13.133013912674881,28.28473945066821,26.030757194604426,23.2680327540154,27.714244849740012C18.251326057362594,29.3977325048756,13.264720453814629,19.866964533217235,8.50670616514985,17.59934606238876C3.748691876485071,15.331727591560295,-0.780731097296524,20.327258621561725,-3.460336558299503,21.054236510326174C-6.139942019302483,21.781214399090622,-6.969729967526845,18.239639146618096,-9.368530111101716,15.729859836968375C-11.767330254676587,13.220080527318654,-15.735142593601964,11.742097160491738,-15.663064160939603,11.844286309445685C-15.590985728277245,11.946475458399632,-11.479016524027148,13.628837123134442,-9.9159795432958,21.197757043149878C-8.35294256256445,28.766676963165313,-9.338837805351845,42.222155138461375,-7.032356295323476,35.345874402247524C-4.725874785295107,28.46959366603367,0.8729834775490266,1.2615540183099014,-2.97710803899279,-3.644285780292118C-6.827199555534607,-8.550125578894137,-20.126240851462374,8.846234471625593,-14.112016965520349,13.97472924434792C-8.09779307957832,19.103224017070247,17.2296959882335,11.963853511995168,22.522783443459957,9.621769933180179C27.815870898686413,7.279686354365188,13.0745567413275,9.734889701810285,5.98277739590494,15.021741804808451C-1.1090019495176189,20.308593907806618,-0.5512464830038256,28.427094766357854,-0.4994359236161528,36.186125731476274C-0.44762536422848004,43.945156696594694,-0.9017597119669278,51.3447177682803,0.7832352828564626,49.1720330647219C2.468230277679853,46.9993483611635,6.292354615065082,35.25441788236109,5.207089751451687,21.86041940889026C4.121824887838294,8.466420935419432,-1.872829176773723,-6.57664553271982,-4.5205015867565566,-8.470558658694543C-7.16817399673939,-10.364471784669263,-6.46886475209304,0.890768431520546,3.1434638336572505,-0.32963906283203404C12.755792419407543,-1.550046557184615,31.281140346261775,-15.246101762079586,26.793029401311784,-20.759501118517914C22.30491845636179,-26.272900474956238,-5.196651360392433,-23.60364398293792,-14.836970605573548,-11.662783944671292C-24.477289850754666,0.2780760935953399,-16.256358524362675,21.490539678110284,-13.994273086000732,23.71485380904447C-11.732187647638794,25.939167939978663,-15.428948097306906,9.1753326173321,-16.2483553766928,1.9859708717401292C-17.0677626560787,-5.20339087385184,-15.009816765182377,-2.8182790423892166,-11.82408042105539,-3.349876146845468C-8.638344076928405,-3.881473251301719,-4.3248172795707545,-7.329779291676846,-1.4667963223357872,-5.317356636773871C1.3912246348991806,-3.304933981870895,2.7937397520114655,4.168217368310183,4.582758420004735,2.155985976212864C6.371777087998004,0.14375458411554565,8.547299306872258,-11.353859550260168,9.818355066996977,-11.666848941261634C11.089410827121696,-11.979838332263098,11.456000128496882,-1.1082029798903115,1.135518385344124,9.43617274463293C-9.184963357808634,19.980548469156172,-30.192516145489332,30.197664565829868,-35.96225190706944,22.64135613472107C-41.73198766864954,15.08504770361227,-32.263906404129045,-10.244685255279025,-32.31208890133925,-16.89467123088689C-32.36027139854946,-23.54465720649475,-41.92471765749037,-11.514896198819184,-38.44658536227383,-5.01966726294308C-34.96845306705729,1.4755616729330225,-18.447742217683295,2.436258537009659,-11.031025759503036,7.991290430645387C-3.614309301322778,13.546322324281117,-5.3015872343362505,23.695689247475936,0.7716082025177853,17.31529943339323C6.844803639371821,10.934909619310513,20.678472446093366,-11.975236932049732,17.997043312942996,-24.123986865482102C15.315614179792629,-36.27273679891448,-3.880912893229654,-37.66009011441898,-1.7049224938653165,-27.76749408531829C0.4710679054990212,-17.874898056217607,24.01957577724998,3.2976473174882592,28.63142828480735,7.0118513994307765C33.24328079236472,10.726055481373294,18.9184779357285,-3.0180817284475374,11.756076507410393,-9.890150333357953L4.593675079092284,-16.76221893826837" />
  </g>
</svg>
