<?xml version="1.0" encoding="UTF-8" standalone="no"?>
<svg
   xmlns:dc="http://purl.org/dc/elements/1.1/"
   xmlns:cc="http://creativecommons.org/ns#"
   xmlns:rdf="http://www.w3.org/1999/02/22-rdf-syntax-ns#"
   xmlns:svg="http://www.w3.org/2000/svg"
   xmlns="http://www.w3.org/2000/svg"
   version="1.1"
   id="svg2"
   height="300"
   width="300"
   preserveAspectRatio="xMidYMid"
   viewBox="0 0 300 300">
  <metadata
     id="metadata27">
    <rdf:RDF>
      <cc:Work
         rdf:about="">
        <dc:format>image/svg+xml</dc:format>
        <dc:type
           rdf:resource="http://purl.org/dc/dcmitype/StillImage" />
      </cc:Work>
    </rdf:RDF>
  </metadata>
  <defs
     id="defs25" />
  <filter
     y="-50%"
     x="-50%"
     height="500"
     width="300"
     id="sddhi">
    <feFlood
       id="feFlood5"
       result="element"
       flood-color="#4bc7cf" />
    <feTurbulence
       id="feTurbulence7"
       result="element_1"
       seed="22"
       numOctaves="8"
       type="fractalNoise"
       baseFrequency="0.02" />
    <feGaussianBlur
       id="feGaussianBlur9"
       result="element_2"
       in="SourceAlpha"
       stdDeviation="5" />
    <feDisplacementMap
       id="feDisplacementMap11"
       result="element_3"
       in2="element_1"
       in="element_2"
       scale="100" />
    <feComposite
       id="feComposite13"
       result="element_4"
       in2="element_3"
       in="element"
       operator="in" />
    <feMerge
       id="feMerge15">
      <feMergeNode
         id="feMergeNode17"
         in="element_4" />
    </feMerge>
  </filter>
  <g
     id="g19"
     transform="translate(150,150) scale(1.5)">
    <path
       id="path21"
       style="filter: url(#sddhi); stroke: rgb(75, 199, 207);"
       d="M0,0L4.46548241284656,9.740133951886872C8.93096482569312,19.480267903773743,17.86192965138624,38.96053580754749,18.483284590419313,41.3214176466882C19.10463952945238,43.682299485828906,11.416384581825401,28.92379526033658,7.577762198148027,24.487054918440766C3.739139814470651,20.050314576544956,3.75014999474288,25.935338118245653,4.107371170073609,19.94339298018489C4.464592345404339,13.951447842124125,5.168024515793569,-3.9174659756981054,1.251301864287826,-6.749732176616818C-2.6654207872179163,-9.581998377535529,-11.202298260618631,2.6223830384492786,-7.617004673532474,7.717434285582456C-4.031711086446318,12.812485532715634,11.67575356112671,10.798206610997184,14.32609522464556,-0.7831993976410061C16.976436888164407,-12.364605406279194,6.56965556762908,-33.51313850183712,2.935697350749052,-40.51606295146266C-0.6982608661309759,-47.5189874010882,2.4406040206442974,-40.37630320478135,8.93261617051147,-25.115760609901976C15.42462832037864,-9.855218015022604,25.269787733337708,13.523182978429293,25.079319658503106,11.518820733647903C24.8888515836685,9.51445848886651,14.662756021040225,-17.872666994148172,10.826937344037463,-25.635217134864426C6.9911186670347,-33.39776727558068,9.545576875657451,-21.535742073998495,4.074714840068008,-16.490955259855454C-1.3961471955214328,-11.446168445712416,-14.892329475323066,-13.218620019008513,-20.077653428804396,-13.981249825706076C-25.262977382285722,-14.743879632403637,-22.13744300944675,-14.496687672502663,-14.16738328864025,-8.498230535530059C-6.197323567833753,-2.4997733985574513,6.6172615009402636,9.249948915486787,3.5247379902724543,12.12386864213848C0.4322144796046441,14.997788368790172,-18.567417610504993,8.99590550804932,-21.725897326576277,4.022118729540626C-24.88437704264756,-0.9516680489680707,-12.201704384680495,-4.8973587452446115,-6.679374349067566,-9.359736938031043C-1.1570443134546369,-13.822115130817474,-2.795056900195845,-18.801180820113796,-3.428744242846329,-18.19529449423678C-4.062431585496812,-17.589408168359764,-3.69179368405657,-11.398569827309407,-1.6107445588814997,0.5233372279001314C0.47030456629357076,12.44524428310967,4.26176491520347,30.09822005247839,4.440476037836253,25.676273432692078C4.619187160469036,21.25432681290576,1.185149056824703,-5.242542196035592,-2.1360747026611238,-13.156603684599132C-5.457298462146951,-21.07066517316267,-8.665707877474272,-10.401919141348394,-2.7377284825010664,-2.722706282710967C3.1902509124721377,4.95650657592646,18.254619117745868,9.646186261387042,26.261038427707454,12.185082463291835C34.26745773766905,14.723978665196631,35.2159281523185,15.11209138354564,24.923390815325106,9.997572812815422C14.630853478331712,4.883054242085204,-6.902691610304526,-5.73409561772424,-8.232299980736528,-7.053011094509633C-9.56190835116853,-8.371926571295024,9.312419996603705,-0.3926076650563646,16.520821319957914,3.78261450395868C23.729222643312127,7.957836672973724,19.27169694224831,8.328962104765154,20.165983594633904,6.583093741687129C21.060270247019496,4.837225378609106,27.306369252854488,0.9743632206616284,22.019961260923758,0.9426878939407957C16.73355326899302,0.9110125672199629,-0.08536172070344072,4.710524071725775,-2.367286627278816,1.1770894573099557C-4.649211533854191,-2.3563451571058627,7.605853642691521,-13.222725890443312,13.79129441892577,-12.735855107504268C19.97673519516002,-12.248984324565225,20.092551571082808,-0.40886202534968685,17.056552468610167,1.3051271489307625C14.020553366137523,3.019116323211212,7.832738785269452,-5.393027627443427,-2.841221488925938,-2.3523743829046637C-13.515181763121326,0.6882788616340996,-28.675287730644033,15.181729301366264,-32.02213736892438,17.728666578508662C-35.36898700720474,20.275603855651056,-26.90258031624273,10.876027970203683,-13.802856399358426,10.641541508105785C-0.7031324824741176,10.407055046007887,17.02990866033249,19.337658007259463,17.377592598848935,16.278629465182348C17.725276537365378,13.219600923105231,0.6876032715916569,-1.8290591223005777,-7.831233361295204,-9.353389145003483L-16.350069994182064,-16.87771916770639" />
  </g>
</svg>
