<svg viewBox="0 0 300 300" preserveAspectRatio="xMidYMid" width="300" height="300"><filter id="prcoa" width="300" height="500" x="-50%" y="-50%"><feFlood flood-color="#8a795d" result="element"></feFlood><feTurbulence baseFrequency="0.02" type="fractalNoise" numOctaves="8" seed="31" result="element_1"></feTurbulence><feGaussianBlur stdDeviation="4" in="SourceAlpha" result="element_2"></feGaussianBlur><feDisplacementMap scale="100" in="element_2" in2="element_1" result="element_3"></feDisplacementMap><feComposite operator="in" in="element" in2="element_3" result="element_4"></feComposite><feMerge><feMergeNode in="element_4"></feMergeNode></feMerge></filter><g transform="translate(150,150) scale(1.5)"><path d="M0,0L1.3751251554354778,-3.8648464562606337C2.7502503108709555,-7.7296929125212674,5.500500621741911,-15.459385825042535,-1.9555103286253575,-12.29431711711386C-9.411521278992627,-9.129248409185186,-27.073793490598117,4.930581919193431,-23.435363192344063,15.667243716556454C-19.796932894090006,26.403905513919476,5.1421999140236,33.817398780266906,11.122516455950862,27.83262410057923C17.102832997878124,21.847849420891553,4.124333273619042,2.464806795168773,5.754208476831709,-9.406394637255307C7.384083680044377,-21.277596069679387,23.622333810728794,-25.636956308804766,26.896301977676547,-24.786390115422083C30.170270144624304,-23.935823922039408,20.479956347835397,-17.875331296148666,22.015873811044006,-11.627395722918775C23.551791274252615,-5.379460149688882,36.31393999745874,1.0559183708801636,29.436830877692486,2.258539785341675C22.559721757926237,3.4611611998031857,-3.956645204812393,-0.5689744918428374,-6.307419194787344,2.68949917314816C-8.658193184762295,5.947972838139157,13.156625798026433,16.495055859767174,16.080889159570823,26.24000517352649C19.005152521115207,35.984954487285805,3.038860261415257,44.92777009317642,-5.331516792250211,47.771463325303635C-13.701893845915677,50.61515655743084,-14.476355693546662,47.359727415794666,-11.09762770360268,44.734931952018115C-7.718899713658695,42.110136488241565,-0.18698188613974498,40.11597470232464,-4.410932453145136,29.480789984011807C-8.634883020150529,18.845605265698968,-24.614701981680263,-0.4306023850097933,-27.05063656106283,-6.349225098619733C-29.486571140445403,-12.267847812229673,-18.378621337680805,-4.828885588740794,-16.16120135524332,-0.770321818227969C-13.943781372805839,3.2882419522848565,-20.616891210695467,3.966407269821627,-12.50267037566434,9.310744157107035C-4.388449540633216,14.655081044392443,18.51310196731866,24.665589501426485,26.959317066051813,23.20781620202261C35.405532164784965,21.75004290261873,29.396410854299393,8.823987846776934,20.75200791541141,6.639499613364656C12.10760497652343,4.455011379952378,0.8279204092330366,13.012089968969619,-4.090821467183155,19.6060330290314C-9.009563343599346,26.199976089093184,-7.567362529141338,30.830783620199504,-1.8860930582595534,27.580431605209807C3.7951764126222303,24.33007959022011,13.71551453992779,13.19856802913439,16.574253731885378,-1.4431260110838586C19.432992923842967,-16.084820051302106,15.230133180452587,-34.23669657065289,16.960410887963555,-40.33581037016183C18.690688595474526,-46.43492416967077,26.35410375388685,-40.481275249337884,21.920810823073385,-31.957399374290777C17.487517892259916,-23.433523499243673,0.9575168722206548,-12.339420669482358,2.664097890557514,-0.6039914587657149C4.370678908894373,11.13143775195093,24.313841965607352,23.508193343622903,32.02966064969618,24.998575540382937C39.74547933378501,26.488957737142968,35.2339536452497,17.09296653899106,28.676595140923297,6.357006204703853C22.1192366365969,-4.378954129583356,13.51604531647941,-16.454883600005864,11.646284455268072,-16.5106954858827C9.776523594056734,-16.566507371759535,14.640193191751544,-4.6022016730907005,11.94168465251605,-9.20602847039028C9.243176113280555,-13.809855267689857,-1.0175105628852466,-34.98181456095785,-6.018043532378201,-35.532861053570926C-11.018576501871156,-36.08390754618401,-10.758955764691263,-16.01404123814217,-12.613908399455784,-7.916946725833115C-14.468861034220307,0.18014778647594243,-18.438387040929243,-3.6955294969477785,-23.65198705265245,0.5469653391281586C-28.865587064375667,4.789460175204095,-35.32326108111316,17.150127130779687,-27.602581360593895,18.025328580783356C-19.881901640074634,18.90053003078702,2.0171318177013813,8.290265975218762,0.5754996040211537,-4.996942523612397C-0.8661326096590738,-18.284151022443556,-25.648430494795544,-34.24830396453761,-30.45452516718826,-36.24224970340588C-35.26061983958098,-38.236195442274145,-20.090511299229952,-26.259933977916617,-10.988942347827528,-15.335140667874025C-1.8873733964251023,-4.410347357831434,1.1456559660287198,5.462977797896225,2.662170647255631,10.399640375760054L4.178685328482542,15.336302953623884" style="filter: url(#prcoa); stroke: rgb(138, 121, 93);"></path></g></svg>