<?xml version="1.0" encoding="UTF-8" standalone="no"?>
<svg
   xmlns:dc="http://purl.org/dc/elements/1.1/"
   xmlns:cc="http://creativecommons.org/ns#"
   xmlns:rdf="http://www.w3.org/1999/02/22-rdf-syntax-ns#"
   xmlns:svg="http://www.w3.org/2000/svg"
   xmlns="http://www.w3.org/2000/svg"
   version="1.1"
   id="svg2"
   height="300"
   width="300"
   preserveAspectRatio="xMidYMid"
   viewBox="0 0 300 300">
  <metadata
     id="metadata27">
    <rdf:RDF>
      <cc:Work
         rdf:about="">
        <dc:format>image/svg+xml</dc:format>
        <dc:type
           rdf:resource="http://purl.org/dc/dcmitype/StillImage" />
      </cc:Work>
    </rdf:RDF>
  </metadata>
  <defs
     id="defs25" />
  <filter
     y="-50%"
     x="-50%"
     height="500"
     width="300"
     id="vfwik">
    <feFlood
       id="feFlood5"
       result="element"
       flood-color="#ffcff1" />
    <feTurbulence
       id="feTurbulence7"
       result="element_1"
       seed="46"
       numOctaves="8"
       type="fractalNoise"
       baseFrequency="0.02" />
    <feGaussianBlur
       id="feGaussianBlur9"
       result="element_2"
       in="SourceAlpha"
       stdDeviation="4" />
    <feDisplacementMap
       id="feDisplacementMap11"
       result="element_3"
       in2="element_1"
       in="element_2"
       scale="100" />
    <feComposite
       id="feComposite13"
       result="element_4"
       in2="element_3"
       in="element"
       operator="in" />
    <feMerge
       id="feMerge15">
      <feMergeNode
         id="feMergeNode17"
         in="element_4" />
    </feMerge>
  </filter>
  <g
     id="g19"
     transform="translate(150,150) scale(1.5)">
    <path
       id="path21"
       style="filter: url(#vfwik); stroke: rgb(255, 207, 241);"
       d="M0,0L0.5189963671920835,5.583479465775796C1.037992734384167,11.166958931551592,2.075985468768334,22.333917863103185,6.886286937413013,21.593686352218626C11.696588406057693,20.853454841334067,20.279198608962886,8.206032888013358,22.636626684173407,0.9847726436366548C24.994054759383932,-6.236487600740047,21.126300706899787,-8.031586136172741,22.539121835477868,-6.853157215296409C23.951942964055945,-5.674728294420076,30.64533927369625,-1.5227719172347154,27.17109499918323,-5.774161593176013C23.69685072467021,-10.02555126911731,10.054965866003862,-22.680286998185263,-5.278212684298291,-17.206837178277127C-20.611391234600443,-11.733387358368983,-37.6358634765384,11.868248010515252,-34.95538520666059,20.648513206506628C-32.27490693678277,29.428778402498008,-9.889478155089185,23.387673425596528,1.6556255732032819,15.335480477174007C13.200729301495748,7.28328752875149,13.905507976387096,-2.7799933911920682,14.065914430000564,-3.940715765545349C14.226320883614035,-5.1014381398986295,13.842355115949625,2.6403980313383677,10.152445874320623,7.235009267080932C6.462536632691619,11.829620502823497,-0.5333160829019761,13.277006803071629,-3.5704850852848162,15.355964064743532C-6.607654087667656,17.434921326415434,-5.686139376839742,20.14544954951111,-7.476589910699552,20.881202046914915C-9.267040444559361,21.616954544318716,-13.769456223106895,20.377931316030647,-19.45999025965872,18.99759758731723C-25.15052429621055,17.61726385860382,-32.02917659076667,16.09561962946506,-24.287110270624687,13.533890009025288C-16.545043950482704,10.97216038858552,5.817740984357375,7.370345376844738,19.777862579031645,6.470045662980759C33.73798417370591,5.569745949116781,39.29544242821437,7.370961533129606,33.94696913356148,-0.40679724711436105C28.598495838908597,-8.184556027358328,12.344090995094366,-25.541289171859084,4.196162311290229,-27.032512550646864C-3.951766372513905,-28.523735929434643,-3.9932188963079422,-14.149449542509448,-5.344732366332694,-14.730876209579401C-6.696245836357447,-15.312302876649355,-9.357820252612916,-30.849442597714457,0.11244311928853357,-32.861004709586105C9.582706491189981,-34.87256682145775,31.184807651248345,-23.358551324135938,31.801802195982695,-13.870427384992064C32.41879674071704,-4.382303445848187,12.050684670127382,3.0799289351177523,2.978496230415812,0.9287578862404704C-6.0936922092957575,-1.222413162636812,-3.8699570181292318,-12.986987641357317,-4.10128347040305,-17.202551297180474C-4.33260992267687,-21.41811495300363,-7.018998018391033,-18.084667785929447,-9.230036241751533,-15.32054423186639C-11.441074465112035,-12.556420677803333,-13.17676281611887,-10.361620736751409,-4.73592196545638,-5.611606681651729C3.704918885206112,-0.8615926265520493,22.322288937537934,6.443635542595384,27.762465989798308,4.744644195973314C33.20264304205869,3.045652849351244,25.465627094247623,-7.657558013040329,18.80979395108526,-10.116917126751114C12.1539608079229,-12.576276240461898,6.579310469409246,-6.791783605491893,5.3142368422739095,-2.7448862927011883C4.049163215138573,1.3020110200895156,7.093666299381554,3.6113130107009193,-0.9653548493403106,2.3475842268340106C-9.024375998062174,1.083855442967101,-28.18692137974888,-3.7529041153781213,-22.62810974065775,-1.322002193488387C-17.069298101566616,1.1088997284013473,13.210870558302359,10.807463130526038,27.012364428774557,14.496047313920265C40.81385829924675,18.184631497314495,38.136677380322176,15.86323646197826,25.166422015756385,6.474643468801341C12.19616665119059,-2.913949524375578,-11.067163159016419,-19.369740475393186,-15.146704571769073,-16.787420138528812C-19.226245984521725,-14.205099801664439,-4.121998999820023,7.415331823081914,10.203261867756709,15.34457796907534C24.52852273533344,23.273824115068766,38.074797485785204,17.511884782309263,33.09549745622347,16.647227908323504C28.11619742666175,15.782571034337748,4.6113226170865325,19.815196619125732,-4.796473927474228,19.984871932252027C-14.204270472034988,20.15454724537832,-9.514988751581296,16.461272286842924,-7.170347891354448,14.614634807575225L-4.825707031127601,12.767997328307528" />
  </g>
</svg>
