<?xml version="1.0" encoding="UTF-8" standalone="no"?>
<svg
   xmlns:dc="http://purl.org/dc/elements/1.1/"
   xmlns:cc="http://creativecommons.org/ns#"
   xmlns:rdf="http://www.w3.org/1999/02/22-rdf-syntax-ns#"
   xmlns:svg="http://www.w3.org/2000/svg"
   xmlns="http://www.w3.org/2000/svg"
   version="1.1"
   id="svg2"
   height="300"
   width="300"
   preserveAspectRatio="xMidYMid"
   viewBox="0 0 300 300">
  <metadata
     id="metadata27">
    <rdf:RDF>
      <cc:Work
         rdf:about="">
        <dc:format>image/svg+xml</dc:format>
        <dc:type
           rdf:resource="http://purl.org/dc/dcmitype/StillImage" />
      </cc:Work>
    </rdf:RDF>
  </metadata>
  <defs
     id="defs25" />
  <filter
     y="-50%"
     x="-50%"
     height="500"
     width="300"
     id="ckdno">
    <feFlood
       id="feFlood5"
       result="element"
       flood-color="#8fd400" />
    <feTurbulence
       id="feTurbulence7"
       result="element_1"
       seed="87"
       numOctaves="8"
       type="fractalNoise"
       baseFrequency="0.02" />
    <feGaussianBlur
       id="feGaussianBlur9"
       result="element_2"
       in="SourceAlpha"
       stdDeviation="4" />
    <feDisplacementMap
       id="feDisplacementMap11"
       result="element_3"
       in2="element_1"
       in="element_2"
       scale="100" />
    <feComposite
       id="feComposite13"
       result="element_4"
       in2="element_3"
       in="element"
       operator="in" />
    <feMerge
       id="feMerge15">
      <feMergeNode
         id="feMergeNode17"
         in="element_4" />
    </feMerge>
  </filter>
  <g
     id="g19"
     transform="translate(150,150) scale(1.5)">
    <path
       id="path21"
       style="filter: url(#ckdno); stroke: rgb(143, 212, 0);"
       d="M0,0L4.181052930907509,0.2101477964745702C8.362105861815017,0.4202955929491404,16.724211723630034,0.8405911858982807,12.437797201527136,2.2488731227056786C8.151382679424238,3.657155059513076,-8.783552226596576,6.053423340178732,-5.200679127393534,12.845083555935938C-1.6178060281904916,19.636743771693144,22.482875076236407,30.823795922541905,26.20912885106407,30.375692375800426C29.935382625891727,29.927588829058948,13.287209071120149,17.844329584727234,14.8618309505994,17.00415703320872C16.43645283007865,16.16398448169021,36.23387014380873,26.5668986229849,31.840748768461793,28.33330616675208C27.44762739311486,30.09971371051926,-1.136032671309085,23.229614656758933,-15.16000466683888,17.67916983531641C-29.183976662368675,12.128725013873888,-28.64826058900432,7.89793442474917,-25.804687726311194,1.823082541119093C-22.96111486361807,-4.251769342510986,-17.809685211596175,-12.170682520646425,-13.606630082444287,-10.92841823177884C-9.403574953292397,-9.686153942911254,-6.148894347010514,0.7172878129593574,2.79640642925132,-5.886116331816548C11.741707205513153,-12.489520476592453,26.377628151754937,-36.09977052201488,27.534658800318756,-42.534349643948396C28.691689448882567,-48.96892876588191,16.36982979976841,-38.227836964326535,14.119090263215162,-24.473036001286562C11.868350726661912,-10.71823503824659,19.68873130266957,6.050275086277976,20.916381273640955,11.577662464566211C22.14403124461234,17.10504984285445,16.778950610547447,11.391314474906354,12.420122072933907,7.387673666566652C8.061293535320363,3.384032858226949,4.708717094158168,1.0904866094956378,4.719535696115168,1.0081297011903705C4.730354298072168,0.9257727928851031,8.104567943148364,3.0546052250058797,6.203587763942709,-0.6549830292376484C4.3026075847370535,-4.364571283481176,-2.8735664187504515,-13.912580224089009,-4.537764494971675,-14.207590722757855C-6.2019625711929,-14.502601221426703,-2.354184720147843,-5.544613278156566,1.1424974460815998,-7.915409985558C4.639179612311043,-10.286206692959436,7.784766093724872,-23.98578805103244,12.942156825313635,-17.348614613098956C18.099547556902394,-10.71144117516547,25.26874253866609,16.262487058774504,28.311148380127808,21.81820662506335C31.353554221589526,27.373926191352197,30.269170922749268,11.511437089989911,24.826642040125332,5.950447022613419C19.384113157501396,0.38945695523692647,9.583438691093782,5.129965921846225,4.1967000869643885,6.902136078466445C-1.1900385171650054,8.674306235086664,-2.1628412590161803,7.478137581717807,-7.18293566466974,4.676392653293416C-12.203030070323301,1.8746477248690248,-21.270416139779247,-2.5326734786108993,-24.1531315792466,-3.6069047016526192C-27.03584701871396,-4.681135924694339,-23.733891828192725,-2.422277167297856,-17.928902663217134,-0.24831185913238163C-12.123913498241546,1.9256534490330923,-3.8158903588116018,4.014725307967557,0.9755443933361558,9.11829501867097C5.766979145483914,14.221864729374383,7.041825510349485,22.339932291846747,8.231192365236545,22.028448680955897C9.420559220123605,21.716965070065047,10.524446565032155,12.975930285810987,12.427265485986947,8.114134485494214C14.330084406941737,3.2523386851774405,17.031834903942766,2.269781868797954,20.51345399607997,4.478989443360573C23.995073088217175,6.6881970179231915,28.25656077549055,12.089168983427916,29.03749411994744,14.355672924329106C29.818427464404323,16.622176865230294,27.118806466044717,15.754212781527947,22.98427295532262,11.804076892178788C18.849739444600523,7.853941002829628,13.280293421515934,0.821633307833654,16.90924288992376,1.5109043383087548C20.538192358331592,2.2001753687838557,33.36553731823184,10.61102512473003,35.70147971090209,10.244548055504087C38.037422103572354,9.87807098627814,29.881961929012615,0.7342670918800716,21.62856839281018,3.52117725692889C13.375174856607748,6.308087421977708,5.023847958762616,21.02571164647341,-1.8282365171062525,30.499997346119365C-8.68032099297512,39.97428304576532,-14.033163046867724,44.20523022056151,-16.709584073814028,46.32070380795962L-19.38600510076033,48.43617739535771" />
  </g>
</svg>
