<svg viewBox="0 0 300 300" preserveAspectRatio="xMidYMid" width="300" height="300"><filter id="epbll" width="300" height="500" x="-50%" y="-50%"><feFlood flood-color="#d98695" result="element"></feFlood><feTurbulence baseFrequency="0.02" type="fractalNoise" numOctaves="8" seed="74" result="element_1"></feTurbulence><feGaussianBlur stdDeviation="5" in="SourceAlpha" result="element_2"></feGaussianBlur><feDisplacementMap scale="100" in="element_2" in2="element_1" result="element_3"></feDisplacementMap><feComposite operator="in" in="element" in2="element_3" result="element_4"></feComposite><feMerge><feMergeNode in="element_4"></feMergeNode></feMerge></filter><g transform="translate(150,150) scale(1.5)"><path d="M0,0L0.15457737627519536,6.574972858235509C0.3091547525503907,13.149945716471018,0.6183095051007814,26.299891432942037,-2.23730424343871,32.71078656668661C-5.092917991978202,39.121681700431175,-11.113300241607575,38.79352625144929,-7.589384208456668,34.0147351132096C-4.06546817530576,29.235943974969903,9.00274614062543,20.006517147472387,14.91463362317636,9.416344922676423C20.82652110572729,-1.1738273021195456,19.582081754897963,-13.124744924213966,12.038296697712045,-11.315182739333991C4.494511640526127,-9.505620554454019,-9.348619123016384,6.064421437400348,-4.749714629207258,13.382910166907877C-0.1508101353981317,20.701398896415405,22.890129615762632,19.768334363576095,28.572109115589686,15.404291677119284C34.25408861541674,11.04024899066247,22.577107863910093,3.245228150588154,17.124576636500525,-8.162490027701889C11.672045409090952,-19.570208205991932,12.443963705778456,-34.590623722497696,8.589029965602268,-26.952198521070518C4.734096225426077,-19.31377331964334,-3.7476895516138082,10.983492599716794,-6.116939283356316,21.002677821904793C-8.486189015098823,31.02186304409279,-4.742902701543952,20.762967569108657,5.572398372199146,14.240505274622027C15.887699445942244,7.718042980135395,32.77501527987357,4.932013866146266,27.37199622186816,6.659720167111464C21.96897716386275,8.387426468076663,-5.724376786079393,14.62886818399619,-16.524928985267138,9.6132309993911C-27.325481184454883,4.597593814786009,-21.23323163288823,-11.675122270343696,-7.701186140575652,-16.174351102725346C5.830859351736926,-20.673579935106993,26.80270078479543,-13.399321514740587,29.949223169227917,-8.588794339156175C33.0957455536604,-3.7782671635717646,18.41694888946687,-1.4314712327693502,4.135458384419713,1.2671331131068515C-10.146032120627446,3.965737458983053,-24.030216466528227,7.016150219933042,-22.396022657516305,9.040363391327723C-20.76182884850438,11.064576562722408,-3.6092568845797555,12.062590144561783,2.7499671225629703,18.19232926031484C9.109191129705696,24.322068376067897,4.675067180066522,35.58353302573463,7.526589242503511,41.24539284827583C10.3781113049405,46.907252670817016,20.515279379453652,46.96950766623266,22.632504337472014,39.85398490780093C24.749729295490372,32.738462149369205,18.84701113701394,18.445161637090102,11.633537816100432,4.823272612251867C4.420064495186924,-8.798616412586366,-4.104163988163659,-21.749093949983727,-7.381688158460699,-19.4502909640784C-10.65921232875774,-17.151487978173073,-8.690032186001238,0.39659553103494893,-9.017561502405776,8.287627974892194C-9.345090818810316,16.178660418749438,-11.969329594375896,14.41264179725591,-8.051016202975712,11.302191689963912C-4.132702811575526,8.191741582671911,6.328162746790426,3.736859989581442,8.522844956480766,1.6137803517664853C10.717527166171108,-0.5092992860484714,4.6460260271858385,-0.30057696858791544,-3.6726521302268997,-0.7025014002105041C-11.991330287639638,-1.1044258318330928,-22.557185463479843,-2.1169970125388264,-22.918820266202108,-1.9027857533068364C-23.280455068924372,-1.688574494074847,-13.437869498528698,-0.2475807949051344,-4.81052882442795,-7.3282138171884625C3.8168118496727974,-14.40884683947179,11.228907627478616,-30.011106583208157,17.856498127770337,-24.043446991994145C24.484088628062057,-18.075787400780133,30.327173850839678,9.46179152538426,31.428618711866292,16.854410413631772C32.5300635728929,24.24702930187928,28.889868072168497,11.494688152209905,30.266475041567503,6.33198748868531C31.64308201096651,1.1692868251607134,38.036491450488924,3.596226647780895,43.0121329770907,4.78041854930695C47.987774503692485,5.964610450833005,51.54564811737363,5.906054431264935,53.9862850267165,5.5467516141702005C56.42692193605936,5.187448797075467,57.75032214106393,4.527399182454069,44.42397406150049,2.3864123093899536C31.09762598193705,0.24542543632583946,3.121529617805585,-3.376498695180991,-5.2672063346270015,3.911164020331622C-13.655942287059588,11.198826735844236,-2.4573178277932968,29.396076298376293,3.141994401839849,38.494701079642326L8.741306631472995,47.59332586090835" style="filter: url(#epbll); stroke: rgb(217, 134, 149);"></path></g></svg>