<?xml version="1.0" encoding="UTF-8" standalone="no"?>
<svg
   xmlns:dc="http://purl.org/dc/elements/1.1/"
   xmlns:cc="http://creativecommons.org/ns#"
   xmlns:rdf="http://www.w3.org/1999/02/22-rdf-syntax-ns#"
   xmlns:svg="http://www.w3.org/2000/svg"
   xmlns="http://www.w3.org/2000/svg"
   version="1.1"
   id="svg2"
   height="300"
   width="300"
   preserveAspectRatio="xMidYMid"
   viewBox="0 0 300 300">
  <metadata
     id="metadata27">
    <rdf:RDF>
      <cc:Work
         rdf:about="">
        <dc:format>image/svg+xml</dc:format>
        <dc:type
           rdf:resource="http://purl.org/dc/dcmitype/StillImage" />
      </cc:Work>
    </rdf:RDF>
  </metadata>
  <defs
     id="defs25" />
  <filter
     y="-50%"
     x="-50%"
     height="500"
     width="300"
     id="vpxqb">
    <feFlood
       id="feFlood5"
       result="element"
       flood-color="#5fa778" />
    <feTurbulence
       id="feTurbulence7"
       result="element_1"
       seed="28"
       numOctaves="8"
       type="fractalNoise"
       baseFrequency="0.02" />
    <feGaussianBlur
       id="feGaussianBlur9"
       result="element_2"
       in="SourceAlpha"
       stdDeviation="5" />
    <feDisplacementMap
       id="feDisplacementMap11"
       result="element_3"
       in2="element_1"
       in="element_2"
       scale="100" />
    <feComposite
       id="feComposite13"
       result="element_4"
       in2="element_3"
       in="element"
       operator="in" />
    <feMerge
       id="feMerge15">
      <feMergeNode
         id="feMergeNode17"
         in="element_4" />
    </feMerge>
  </filter>
  <g
     id="g19"
     transform="translate(150,150) scale(1.5)">
    <path
       id="path21"
       style="filter: url(#vpxqb); stroke: rgb(95, 167, 120);"
       d="M0,0L8.389773537977032,0.15958013935089246C16.779547075954063,0.3191602787017849,33.55909415190813,0.6383205574035699,38.737021638106725,1.3861827465369114C43.914949124305316,2.134044935670253,37.49125702074845,3.310609035235151,28.26093728145549,3.906763806356947C19.030617542162535,4.502918577478743,6.9936701671335,4.518664020157436,5.704005547039176,7.765390552194868C4.414340926944853,11.012117084232301,13.871959061785244,17.48982470562847,12.732979448211676,16.90065997116773C11.593999834638112,16.311495236706993,-0.14157752734941198,8.655458146389345,1.0419019752620855,0.21561126348000315C2.225381477873582,-8.224235619429338,16.327917845084098,-17.447892294930373,12.379252553612787,-22.253966594756715C8.43058726214147,-27.060040894583054,-13.569279688011676,-27.448532818734698,-19.127984283497092,-16.529775302871236C-24.686688878982512,-5.611017787007773,-13.804231119800205,16.614989168870796,-2.057212377237952,22.504695047769943C9.6898063653243,28.394400926669093,22.301386091266497,17.94780572858882,21.288980976861012,11.889286675647693C20.27657586245553,5.830767622706564,5.640185907702369,4.160324714904583,6.908240369100208,-2.7607173743062363C8.176294830498048,-9.681759463517055,25.348793708046887,-21.853400734136713,26.916517841302333,-28.752937161399014C28.484241974557772,-35.652473588661316,14.447191363519819,-37.27990517256626,7.980489512390134,-32.44866804996125C1.5137876612604502,-27.617430927356235,2.617434570039036,-16.327525098241264,7.007424527798985,-8.548854022259855C11.397414485558933,-0.7701829462784442,19.073747492300246,3.497253376569404,17.162044013507224,7.999348020016531C15.250340534714198,12.50144266346366,3.750600570386835,17.238195627510066,-9.257049341213357,8.121721473678164C-22.26469925281355,-0.9947526801537361,-36.78025911168657,-23.964453951863945,-35.082127033463124,-30.425943545788094C-33.383994955239686,-36.88743313971224,-15.472170939919778,-26.840711055850328,-8.642211042463703,-10.506582647255998C-1.8122511450076277,5.827545761338328,-6.064155365415383,28.44908049466507,-4.808844984783905,32.73096124187884C-3.5535346041524267,37.012841989092614,3.208990377518285,22.95506875019342,8.188361776717827,22.704235980356863C13.167733175917366,22.453403210520307,16.363950992645734,36.009510909746396,12.14259888734879,37.60521301778081C7.921246782051844,39.200915125815236,-3.717675245270417,28.83621164265799,-3.0972596422293512,21.18144891836178C-2.4768440391882853,13.526686194065572,10.402909194216107,8.5818642286304,21.030416752291593,7.532231261270707C31.65792431036708,6.482598293911012,40.03318619311366,9.328154324626798,39.827784251019274,3.193947220718374C39.6223823089249,-2.94025988319005,30.83631654198956,-18.054230121722682,30.163986562012525,-20.99125146291339C29.49165658203549,-23.92827280410409,36.93306238901676,-14.688345247952862,35.79119768272213,-8.712713237223904C34.6493329764275,-2.7370812264949453,24.924197756856973,-0.025744761188257304,16.95076495234358,1.1680599595512966C8.977332147830188,2.36186468029085,2.7556017583739285,2.0381376564632694,0.401777166591765,-3.843382356904337C-1.9520474251903985,-9.724902370271943,-0.4379662192984667,-21.164215373179577,-2.5717875706765008,-16.953541108917836C-4.705608922054535,-12.742866844656097,-10.487332830702535,7.117794686775014,-11.24742849927581,14.758808996375805C-12.007524167849082,22.399823305976597,-7.745991596347629,17.821190393747074,-1.6929840403713725,11.331636805068982C4.360023515604884,4.842083216390892,12.204506056055944,-3.5583910487357624,9.209169562876673,-8.39500947116082C6.213833069697398,-13.231627893585879,-7.621322457112208,-14.504390473309341,-10.009892723161459,-12.609284726952215C-12.398462989210708,-10.71417898059509,-3.340447994499602,-5.651204908157377,6.22072679889213,6.168256376813782C15.781901592283862,17.98771766178494,25.846236184356222,36.563666159289546,31.87885818633014,29.74195610791483C37.91148018830407,22.92024605654012,39.91238960017955,-9.299122543713914,40.912844306117286,-25.408806843840928L41.913299012055035,-41.51849114396795" />
  </g>
</svg>
