<?xml version="1.0" encoding="UTF-8" standalone="no"?>
<svg
   xmlns:dc="http://purl.org/dc/elements/1.1/"
   xmlns:cc="http://creativecommons.org/ns#"
   xmlns:rdf="http://www.w3.org/1999/02/22-rdf-syntax-ns#"
   xmlns:svg="http://www.w3.org/2000/svg"
   xmlns="http://www.w3.org/2000/svg"
   version="1.1"
   id="svg2"
   height="300"
   width="300"
   preserveAspectRatio="xMidYMid"
   viewBox="0 0 300 300">
  <metadata
     id="metadata27">
    <rdf:RDF>
      <cc:Work
         rdf:about="">
        <dc:format>image/svg+xml</dc:format>
        <dc:type
           rdf:resource="http://purl.org/dc/dcmitype/StillImage" />
      </cc:Work>
    </rdf:RDF>
  </metadata>
  <defs
     id="defs25" />
  <filter
     y="-50%"
     x="-50%"
     height="500"
     width="300"
     id="rgazq">
    <feFlood
       id="feFlood5"
       result="element"
       flood-color="#fb7efd" />
    <feTurbulence
       id="feTurbulence7"
       result="element_1"
       seed="61"
       numOctaves="8"
       type="fractalNoise"
       baseFrequency="0.02" />
    <feGaussianBlur
       id="feGaussianBlur9"
       result="element_2"
       in="SourceAlpha"
       stdDeviation="4" />
    <feDisplacementMap
       id="feDisplacementMap11"
       result="element_3"
       in2="element_1"
       in="element_2"
       scale="100" />
    <feComposite
       id="feComposite13"
       result="element_4"
       in2="element_3"
       in="element"
       operator="in" />
    <feMerge
       id="feMerge15">
      <feMergeNode
         id="feMergeNode17"
         in="element_4" />
    </feMerge>
  </filter>
  <g
     id="g19"
     transform="translate(150,150) scale(1.5)">
    <path
       id="path21"
       style="filter: url(#rgazq); stroke: rgb(251, 126, 253);"
       d="M0,0L3.56301195647753,0.7784919334932596C7.12602391295506,1.5569838669865192,14.25204782591012,3.1139677339730385,21.820497742187328,10.178078251112456C29.38894765846453,17.24218876825187,37.39982357806389,29.81342593554419,32.30549842100947,28.500737190602C27.211173263955054,27.18804844565981,9.011647030246866,11.991433788483118,8.51598713489675,-2.567993699826136C8.020327239546635,-17.12742118813539,25.22853368255459,-31.049661507577206,23.029144636708434,-32.44761122338318C20.829755590862277,-33.84556093918914,-0.7772289438379936,-22.719220051359265,-14.753858663200988,-13.005856829522036C-28.730488382563983,-3.2924936076848095,-35.0767632865897,5.007891948159766,-27.558174853816105,4.971584770849249C-20.03958642104251,4.935277593538733,1.3438653485304055,-3.437722316926875,9.357049265197913,-3.596917825448969C17.37023318186542,-3.7561133339710633,12.01314924562752,4.298495559450356,6.906578065087914,6.053283311263077C1.80000688454831,7.8080710630758,-3.056051540292999,3.263037673279823,3.100621180051866,6.709611028186014C9.25729390039673,10.156184383092205,26.42669776592777,21.594364482700563,35.71049845264286,17.450341771141595C44.994299139357956,13.306319059582624,46.392496647257104,-6.419906463143672,37.86738859000113,-9.678288033487863C29.342280532745153,-12.936669603832053,10.893866910334058,0.27279277820586145,-3.483545949982302,6.010938840692757C-17.860958810298662,11.749084903179652,-28.167370908520287,10.015914646115528,-25.38030460294332,5.1386122240849375C-22.59323829736635,0.2613098020543472,-6.712693587990795,-7.760124784942709,-6.446750382516819,-12.314846046250363C-6.180807177042842,-16.86956730755802,-21.529465475470445,-17.957575243176272,-19.79142792733617,-8.243740646112697C-18.053390379201893,1.4700939509508828,0.7713430154942671,21.985771080696296,6.972286896901105,22.516726816982576C13.173230778307943,23.047682553268857,6.750385146425461,3.5939168960960117,3.4313202463209045,-0.56690808738673C0.11225534621634903,-4.727733070869472,-0.10302882211027974,6.404382619337891,-1.1560323367349066,6.052600501747179C-2.209035851359533,5.700818384156465,-4.099758712282158,-6.134861541232325,-4.25503841913623,-9.063539736226451C-4.410318125990302,-11.992217931220575,-2.8301546787758207,-6.013894395820035,0.5128856747257471,0.16265151413958678C3.855926028227315,6.3391974240992095,8.961843288015968,12.713965708617915,7.68536259259535,9.876447981916682C6.40888189717473,7.03893025521545,-1.2499967534551635,-5.010873482705719,1.0859150234337474,-12.08905578529643C3.421826800322658,-19.167238087887146,15.752529004730373,-21.273798955147402,12.563528921778284,-11.091729893575003C9.374528838826198,-0.9096608320026043,-9.334173531485693,21.561038158402454,-21.468018499893873,29.222075587059393C-33.60186346830205,36.88311301571633,-39.16085103480651,29.73448888262516,-30.018522569269486,22.327421012800063C-20.87619410373246,14.920353142974964,2.967450393846068,7.254841536415939,4.79725683968638,3.3972416701261503C6.627063285526692,-0.46035819616363893,-13.55696832037121,-0.5100463221841925,-17.65631437899613,-0.23331458375386435C-21.755660437621046,0.0434171546764639,-9.77032094897298,0.646568757557674,0.05336418326974712,1.4712972768289974C9.877049315512476,2.2960257961003205,17.539080091349867,3.3423312317617575,13.35366267633426,4.904491735909688C9.168245261318654,6.466652240057618,-6.864620344549948,8.544667812692044,-7.272109847540994,10.90546007239274C-7.6795993505320395,13.266252332093439,7.538287249354472,15.90982127886041,11.37486450056069,13.1387039137289C15.211441751766905,10.367586548597387,7.66670965429283,2.1817828715673953,2.4396521416342507,-1.1292803222518608C-2.787405371024328,-4.440343516071117,-5.696788298867409,-2.876666226679636,-2.81666523839857,-2.526210697000052C0.06345782207026929,-2.175755167320468,8.733086870851029,-3.0385213973527803,6.401305620061886,-0.2670813149409019C4.069524369272745,2.5043587674709764,-9.263667181086298,8.910005162327046,-15.930262956265818,12.112828359755081L-22.59685873144534,15.315651557183116" />
  </g>
</svg>
