<?xml version="1.0" encoding="UTF-8" standalone="no"?>
<svg
   xmlns:dc="http://purl.org/dc/elements/1.1/"
   xmlns:cc="http://creativecommons.org/ns#"
   xmlns:rdf="http://www.w3.org/1999/02/22-rdf-syntax-ns#"
   xmlns:svg="http://www.w3.org/2000/svg"
   xmlns="http://www.w3.org/2000/svg"
   version="1.1"
   id="svg2"
   height="300"
   width="300"
   preserveAspectRatio="xMidYMid"
   viewBox="0 0 300 300">
  <metadata
     id="metadata27">
    <rdf:RDF>
      <cc:Work
         rdf:about="">
        <dc:format>image/svg+xml</dc:format>
        <dc:type
           rdf:resource="http://purl.org/dc/dcmitype/StillImage" />
      </cc:Work>
    </rdf:RDF>
  </metadata>
  <defs
     id="defs25" />
  <filter
     y="-50%"
     x="-50%"
     height="500"
     width="300"
     id="dnwpu">
    <feFlood
       id="feFlood5"
       result="element"
       flood-color="#cdc5c2" />
    <feTurbulence
       id="feTurbulence7"
       result="element_1"
       seed="15"
       numOctaves="8"
       type="fractalNoise"
       baseFrequency="0.02" />
    <feGaussianBlur
       id="feGaussianBlur9"
       result="element_2"
       in="SourceAlpha"
       stdDeviation="4" />
    <feDisplacementMap
       id="feDisplacementMap11"
       result="element_3"
       in2="element_1"
       in="element_2"
       scale="100" />
    <feComposite
       id="feComposite13"
       result="element_4"
       in2="element_3"
       in="element"
       operator="in" />
    <feMerge
       id="feMerge15">
      <feMergeNode
         id="feMergeNode17"
         in="element_4" />
    </feMerge>
  </filter>
  <g
     id="g19"
     transform="translate(150,150) scale(1.5)">
    <path
       id="path21"
       style="filter: url(#dnwpu); stroke: rgb(205, 197, 194);"
       d="M0,0L1.9813239336390966,6.131858938470474C3.9626478672781933,12.263717876940948,7.925295734556387,24.527435753881896,12.781283487758575,27.91664580750763C17.63727124096076,31.305855861133363,23.386598880086943,25.820558091443885,21.246167699377608,19.516569935902982C19.105736518668273,13.212581780362083,9.07554651812342,6.089903238969763,5.638350781320276,3.4819793674038415C2.2011550445171313,0.8740554958379203,5.356953571455694,2.7808862940983987,2.8609217762444947,1.7236710503233885C0.3648899810332953,0.6664558065483783,-7.7829721363276665,-3.354805479262121,-12.080385340507554,-5.008697528221764C-16.377798544687437,-6.662589577181406,-16.82476283568625,-5.9491123892901925,-12.858312402167247,-1.4011974033104861C-8.891861968648245,3.1467175826692215,-0.5119968106114303,11.529070366737422,1.056711399672082,14.62977242613709C2.6254196099555944,17.730474485536757,-2.6170291275141953,15.549525820267892,-10.471159133943125,4.301562013854362C-18.325289140372057,-6.94640179255917,-28.791100415760127,-27.261380740117367,-27.653487019947637,-35.01959063310867C-26.51587362413515,-42.777800526099966,-13.774835557122103,-37.97924136452438,-6.707687155529247,-27.741544893447077C0.35946124606360685,-17.503848422369774,1.7527199822362687,-1.8270146417907647,-0.6803105699837835,3.9979444295663296C-3.1133411222038356,9.822903500923424,-9.372660962816601,5.795987863058602,-11.063463017042281,5.855119835185364C-12.754265071267959,5.914251807312126,-9.876549339106552,10.059431389430472,-10.103206016403224,14.331004394351577C-10.329862693699898,18.602577399272683,-13.660891780454651,23.00054382699655,-20.60902990564809,19.83017920091709C-27.557168030841527,16.659814574837633,-38.122415194473646,5.921118894954845,-35.039638296368985,3.8479491518174407C-31.956861398264326,1.7747794086800361,-15.226060438422882,8.367135602288014,-10.980985771364598,8.282855420708032C-6.7359111043063145,8.19857523912805,-14.976562730031189,1.4376586823601096,-14.203731510779873,4.147340320846798C-13.430900291528557,6.857021959333487,-3.6445862273010485,19.037301793074803,8.602461932495713,19.66461588657169C20.849510092292473,20.29192998006857,35.55729234765849,9.366278333321018,37.54143110223343,3.8593827427933C39.525569856808374,-1.6475128477344179,28.78606511059224,-1.735652382042302,20.70949336662969,-0.6480348190774574C12.632921622667144,0.4395827438873874,7.2192828809581755,2.7029574041249607,-4.737201990791283,1.5709928992684992C-16.69368686254074,0.43902839441203767,-35.19301786433069,-4.088275275538459,-32.1416086449082,2.0414863703987685C-29.09019942548572,8.171248016335996,-4.4880499848508,24.958074978160948,4.420654042565184,27.275640327943865C13.329358069981168,29.593205677726782,6.544616684178217,17.441509415467664,8.791071738213185,17.629738837911752C11.037526792248153,17.81796826035584,22.315178286121043,30.346123367503132,31.45923233029793,22.210309898664153C40.60328637447482,14.074496429825174,47.613742968955705,-14.725285615000075,41.45252441645539,-21.803354108168435C35.29130586395507,-28.88142260133679,15.95841216447354,-14.23777754284826,4.967297888990934,-5.520177339865251C-6.0238163864916725,3.197422863117758,-8.673151237975357,5.988978210595242,-16.191061499036717,4.949984426460406C-23.708971760098077,3.9109906423255714,-36.09545743073711,-0.9585522734215846,-28.769995045390605,-3.795526211973595C-21.444532660044096,-6.632500150525605,5.592877781287964,-7.43690511188247,17.70578919648605,-14.895946162454969C29.818700611684136,-22.354987213027467,27.007113000748248,-36.4686643528156,13.99522766978049,-30.702436025012698C0.9833423388127311,-24.936207697209802,-22.2288407121869,0.7099260981841269,-25.8921816795823,15.909699103408318C-29.555522646977696,31.10947210863251,-13.670021530768858,35.86288432368696,-14.924736520084629,34.554960668388134C-16.179451509400398,33.247037013089304,-34.574382604240775,25.87777748743719,-38.902201114930854,26.348054165828415C-43.23001962562094,26.818330844219638,-33.490725552160725,35.1281437266542,-28.62107851543062,39.28305016787148L-23.751431478700514,43.437956609088765" />
  </g>
</svg>
