<svg viewBox="0 0 300 300" preserveAspectRatio="xMidYMid" width="300" height="300"><filter id="plhov" width="300" height="500" x="-50%" y="-50%"><feFlood flood-color="#ff3855" result="element"></feFlood><feTurbulence baseFrequency="0.02" type="fractalNoise" numOctaves="8" seed="11" result="element_1"></feTurbulence><feGaussianBlur stdDeviation="5" in="SourceAlpha" result="element_2"></feGaussianBlur><feDisplacementMap scale="100" in="element_2" in2="element_1" result="element_3"></feDisplacementMap><feComposite operator="in" in="element" in2="element_3" result="element_4"></feComposite><feMerge><feMergeNode in="element_4"></feMergeNode></feMerge></filter><g transform="translate(150,150) scale(1.5)"><path d="M0,0L8.145008896837647,0.9174768980489235C16.290017793675293,1.834953796097847,32.58003558735059,3.669907592195694,37.67560433237305,8.55362539924564C42.77117307739552,13.437343206295584,36.67229277376515,21.369825024297626,27.027315047455982,21.797857690835567C17.38233732114682,22.225890357373505,4.191262172158864,15.149473872447338,-0.6456017579175148,10.11972126773904C-5.482465687993893,5.089968663030741,-1.9651183991586934,2.1068799385403114,-2.293753773352197,1.134644386979399C-2.622389147545701,0.1624088354184866,-6.797007184767908,1.2010264567870923,-7.038725988953087,4.376549344584021C-7.280444793138266,7.552072232380949,-3.5892643642864157,12.8645003866062,-1.1551935555338078,14.88353510556406C1.2788772532188004,16.90256982452192,2.4558384418721664,15.628211108212387,2.8338906380381745,5.856651805273366C3.2119428342041827,-3.9149074976656575,2.7910860378828324,-22.18366738723417,5.883842181446447,-24.78398588369155C8.97659832501006,-27.384304380148937,15.58296740845864,-14.316181483495193,7.098349000258317,-10.721138330595542C-1.3862694079420077,-7.126095177695891,-24.961875307791235,-13.004131768550335,-30.917702295709567,-17.10800093692961C-36.8735292836279,-21.211870105308886,-25.209577359615345,-23.541571851212993,-12.144808997219238,-16.051308109135874C0.919959365176874,-8.561044367058749,15.385544165956539,8.749184862999604,22.637277670810306,8.669320417424842C29.889011175664074,8.589455971850079,29.92689338459195,-8.880502149357799,32.924246862675034,-15.324591665276419C35.921600340758125,-21.76868118119504,41.878425087996426,-17.1869020918244,38.43211934154754,-4.8929104183982775C34.985813595098655,7.401081255027847,22.136377354962583,27.40728551250946,11.160570674552732,32.87780261986902C0.18476399414287759,38.348319727228585,-8.917413126540758,29.283149684466096,-4.252953947622973,27.66595921768247C0.41150523129481087,26.04876875089884,18.842600709814015,31.87955786009407,23.92110606040854,30.755265837413866C28.999611411003073,29.63097381473366,20.725526633672928,21.55160066017802,16.789897239439185,17.195568630945303C12.854267845205442,12.839536601712581,13.257093834068097,12.20684569780278,14.521365982606184,18.25615708701096C15.785638131144271,24.305468476219136,17.91135643935779,37.03678215854529,12.671673994119278,40.032174759724896C7.431991548880766,43.0275673609045,-5.173091649809775,36.287038880937544,-7.41969245428779,28.893925253330856C-9.666293258765805,21.50081162572417,-1.5544116690312926,13.455112850477743,-1.6850487597627737,10.831792632720461C-1.8156858504942548,8.208472414963179,-10.18884162169173,11.007530754695038,-11.311678091887801,9.326482368317073C-12.434514562083875,7.645433981939108,-6.307031731278547,1.4842788694513174,4.509920883904738,-1.0958776815514426C15.326873499088023,-3.676034232554203,30.83329589864927,-2.6751922220719324,25.543140658429202,-4.379241751441725C20.252985418209143,-6.083291280811519,-5.8337474617922265,-10.492232350033376,-17.985435876529692,-8.306227923939677C-30.137124291267156,-6.120223497845978,-28.35376824074072,2.6607264235632764,-28.391537294527172,0.3553254974304041C-28.42930634831363,-1.950075428702469,-30.288200506412977,-15.34182720237747,-29.371677812741122,-18.76269894263683C-28.455155119069275,-22.183570682896192,-24.763215573626226,-15.633562389739915,-22.24909948624148,-13.168707019261237C-19.734983398856734,-10.70385164878256,-18.398690769530294,-12.324149200981486,-19.226284411065414,-10.083836232566403C-20.05387805260053,-7.84352326415132,-23.045357964997212,-1.7425997751222275,-17.91688624857888,-6.3550678693325064C-12.788414532160543,-10.967535963542785,0.4600088130728075,-26.293395640992433,5.531855731824794,-24.81495943786905C10.60370265057678,-23.336523234745663,7.498973142847403,-5.053791151049239,8.720099480424539,0.1422399479684866C9.941225818001675,5.338271046986213,15.488208000885322,-2.5523988386747574,9.007598276151153,-2.5890603763310125C2.5269885514169843,-2.6257219139872676,-15.981213080935003,5.191624896361192,-25.235313897110995,9.100298301535421L-34.48941471328699,13.008971706709652" style="filter: url(#plhov); stroke: rgb(255, 56, 85);"></path></g></svg>