<?xml version="1.0" encoding="UTF-8" standalone="no"?>
<svg
   xmlns:dc="http://purl.org/dc/elements/1.1/"
   xmlns:cc="http://creativecommons.org/ns#"
   xmlns:rdf="http://www.w3.org/1999/02/22-rdf-syntax-ns#"
   xmlns:svg="http://www.w3.org/2000/svg"
   xmlns="http://www.w3.org/2000/svg"
   version="1.1"
   id="svg2"
   height="300"
   width="300"
   preserveAspectRatio="xMidYMid"
   viewBox="0 0 300 300">
  <metadata
     id="metadata27">
    <rdf:RDF>
      <cc:Work
         rdf:about="">
        <dc:format>image/svg+xml</dc:format>
        <dc:type
           rdf:resource="http://purl.org/dc/dcmitype/StillImage" />
      </cc:Work>
    </rdf:RDF>
  </metadata>
  <defs
     id="defs25" />
  <filter
     y="-50%"
     x="-50%"
     height="500"
     width="300"
     id="nkyse">
    <feFlood
       id="feFlood5"
       result="element"
       flood-color="#ffdb00" />
    <feTurbulence
       id="feTurbulence7"
       result="element_1"
       seed="90"
       numOctaves="8"
       type="fractalNoise"
       baseFrequency="0.02" />
    <feGaussianBlur
       id="feGaussianBlur9"
       result="element_2"
       in="SourceAlpha"
       stdDeviation="4" />
    <feDisplacementMap
       id="feDisplacementMap11"
       result="element_3"
       in2="element_1"
       in="element_2"
       scale="100" />
    <feComposite
       id="feComposite13"
       result="element_4"
       in2="element_3"
       in="element"
       operator="in" />
    <feMerge
       id="feMerge15">
      <feMergeNode
         id="feMergeNode17"
         in="element_4" />
    </feMerge>
  </filter>
  <g
     id="g19"
     transform="translate(150,150) scale(1.5)">
    <path
       id="path21"
       style="filter: url(#nkyse); stroke: rgb(255, 219, 0);"
       d="M0,0L3.271251019403492,-4.23043057105295C6.542502038806984,-8.4608611421059,13.085004077613968,-16.9217222842118,12.349349256351848,-18.84485701132633C11.613694435089727,-20.767991738440863,3.5998827537585023,-16.153400050564024,-2.053402460895097,-2.892018642457284C-7.706687675548697,10.369362765649456,-10.99944642352467,32.277533893986096,-9.688236186633851,40.83376991765589C-8.377025949743034,49.39000594132568,-2.4618467279854244,44.594306860328636,2.234738379221444,30.558529570798346C6.931323486428313,16.52275228126805,10.40931447908444,-6.753103216795486,10.122541922521034,-16.68467236083293C9.835769365957628,-26.616241504870374,5.784233260174689,-23.20352429488172,-4.038221631644621,-22.241715168604404C-13.860676523463932,-21.279906042327088,-29.454050201319614,-22.76900499976111,-24.074369917401402,-22.726292482870562C-18.694689633483193,-22.683579965980012,7.658044612208908,-21.1090559747649,15.692255877489497,-18.02629941149461C23.72646714277009,-14.943542848224313,13.442155427639168,-10.352553712898837,6.0076740160594,-4.937388770931855C-1.426807395520369,0.4777761710351287,-6.011458503548986,6.717116919643619,-6.415436431807834,7.396461190625444C-6.819414360066681,8.075805461607269,-3.0427191085557594,3.19515325496243,-4.259953918945483,-4.774007978089185C-5.477188729335206,-12.7431692111408,-11.688353601625575,-23.80083947059919,-15.471378371452355,-22.720863580369535C-19.254403141279134,-21.64088769013988,-20.609287808642325,-8.42326565022218,-10.818295891782848,-1.3869134260079665C-1.0273039749233739,5.649438798206249,19.909564526158768,6.504521206716978,21.164798257303687,13.682822048727708C22.42003198844861,20.86112289073844,3.9936309496563105,34.362642166249174,-1.7649135029465417,31.1449272825181C-7.523457955549394,27.927212398787038,-0.6141458219627989,7.990263355814173,0.7168105261158233,-0.40842482634923477C2.0477668741944455,-8.807113008512642,-2.199632563234905,-5.667540329866595,-10.662027611968787,1.8778846462301093C-19.124422660702667,9.423309622326814,-31.80181332074108,21.374586895874177,-32.01053407418966,13.484929432491612C-32.21925482763823,5.595271969109049,-19.959305674496967,-22.13532023120344,-19.387321398091032,-20.289573047826394C-18.81533712168509,-18.44382586444935,-29.931317722014477,12.97826070261723,-28.57016872640721,23.641271153278304C-27.209019730799945,34.30428160393937,-13.370741139256028,24.20821593819494,-15.272020236723382,17.369700953413062C-17.173299334190737,10.531185968631187,-34.81413612066936,6.95022166481187,-30.317613880620605,11.157093741099601C-25.821091640571854,15.363965817387328,0.8127896260042746,27.3586742737821,12.706947975791074,29.38040771176254C24.601106325577874,31.40214114974298,21.755541758575344,23.450899569309087,15.690370803060967,17.13059535372455C9.625199847546588,10.810291138140023,0.34042250352036074,6.120924287404854,-11.849770609002693,3.7768204905170273C-24.039963721525744,1.4327166936292004,-39.13557260254562,1.4338759505887144,-43.80545188440308,6.941852029510602C-48.47533116626053,12.44982810843249,-42.719480848955556,23.46462100931675,-28.982306125816407,20.71907361003884C-15.245131402677265,17.973526210760927,6.473367726296047,1.4676385113208426,12.645109544169086,-0.4560695347878543C18.816851362042126,-2.379777580896551,9.441835868814891,10.27869402632614,4.764603955279994,10.278744369683878C0.08737204174509566,10.278794713041616,0.10792370790253356,-2.379576207465597,0.595975643766846,-2.212721811174251C1.0840275796311583,-2.0458674148829052,2.039579785202345,10.946212298207,7.239426510715302,20.212174338177846C12.439273236228258,29.478136378148697,21.883414481682987,35.017980745000486,21.84046636805892,26.179396592013255C21.79751825443485,17.34081243902602,12.267480781731988,-5.876200233800237,6.260602311118205,-14.259749449648087C0.2537238405044244,-22.643298665495937,-2.229995628020277,-16.19338442436538,-2.606943994071416,-17.159390828958063C-2.9838923601225558,-18.125397233550746,-1.2540696237001336,-26.507324283866666,-0.3891582554889225,-30.698287809024627L0.4757531127222886,-34.88925133418259" />
  </g>
</svg>
