<?xml version="1.0" encoding="UTF-8" standalone="no"?>
<svg
   xmlns:dc="http://purl.org/dc/elements/1.1/"
   xmlns:cc="http://creativecommons.org/ns#"
   xmlns:rdf="http://www.w3.org/1999/02/22-rdf-syntax-ns#"
   xmlns:svg="http://www.w3.org/2000/svg"
   xmlns="http://www.w3.org/2000/svg"
   version="1.1"
   id="svg2"
   height="300"
   width="300"
   preserveAspectRatio="xMidYMid"
   viewBox="0 0 300 300">
  <metadata
     id="metadata27">
    <rdf:RDF>
      <cc:Work
         rdf:about="">
        <dc:format>image/svg+xml</dc:format>
        <dc:type
           rdf:resource="http://purl.org/dc/dcmitype/StillImage" />
      </cc:Work>
    </rdf:RDF>
  </metadata>
  <defs
     id="defs25" />
  <filter
     y="-50%"
     x="-50%"
     height="500"
     width="300"
     id="njsly">
    <feFlood
       id="feFlood5"
       result="element"
       flood-color="#80daeb" />
    <feTurbulence
       id="feTurbulence7"
       result="element_1"
       seed="35"
       numOctaves="8"
       type="fractalNoise"
       baseFrequency="0.02" />
    <feGaussianBlur
       id="feGaussianBlur9"
       result="element_2"
       in="SourceAlpha"
       stdDeviation="5" />
    <feDisplacementMap
       id="feDisplacementMap11"
       result="element_3"
       in2="element_1"
       in="element_2"
       scale="100" />
    <feComposite
       id="feComposite13"
       result="element_4"
       in2="element_3"
       in="element"
       operator="in" />
    <feMerge
       id="feMerge15">
      <feMergeNode
         id="feMergeNode17"
         in="element_4" />
    </feMerge>
  </filter>
  <g
     id="g19"
     transform="translate(150,150) scale(1.5)">
    <path
       id="path21"
       style="filter: url(#njsly); stroke: rgb(128, 218, 235);"
       d="M0,0L4.171342557644033,-1.7825654617676805C8.342685115288067,-3.565130923535361,16.685370230576133,-7.130261847070722,17.71329732527305,-3.1580337148213404C18.741224419969967,0.8141944174280411,12.454393494075735,12.323781605462166,7.338573116002531,14.031806855941193C2.222752737929325,15.739832106420218,-1.7220570923228533,7.646295419344147,6.510316936898032,-2.09130700699804C14.742690966118918,-11.828909433340227,35.15224885481287,-23.21057759894853,36.78572138192483,-18.000411721301994C38.41919390903679,-12.790245843655459,21.27658107456677,9.011754077245916,13.794626121521796,23.642508252604756C6.31267116847682,38.273262427963594,8.491374096856891,45.7327708577799,10.164447822470965,42.32938480788016C11.83752154808504,38.92599875798043,13.004966070933113,24.659718228364653,7.604057882792441,21.984507449605466C2.203149694651767,19.309296670846276,-9.766111204477655,28.225155642943673,-8.117814425763777,27.37580830010549C-6.469517647049901,26.526460957267307,8.796336809507274,15.911907299493544,12.794675217998797,16.712018150024374C16.79301362649032,17.512129000555205,9.523835986916191,29.72690435939063,3.808531943170441,28.34919455506067C-1.9067721005753089,26.971484750730717,-6.068202548492681,12.001289783235377,-3.598103296289096,8.224872855940497C-1.128004044085512,4.4484559286456165,7.973624908239029,11.865817041551193,18.658533514219663,9.257257133863966C29.343442120200294,6.648697226176738,41.611630379837024,-5.985783702103293,37.893678984537424,-10.286539597193057C34.17572758923782,-14.58729549228282,14.471636539001903,-10.554326354182313,-0.3276630464290857,-9.852336798024991C-15.126962631860074,-9.15034724186767,-25.02147075248613,-11.779337267653531,-16.86470654777131,-5.556092679649333C-8.707942343056486,0.6671519083548674,17.500094186999213,15.74263111014913,24.27043652200758,17.978146108850044C31.040778857015937,20.21366110755096,18.373426996976963,9.609211903158524,12.977266166427171,6.914318957525315C7.5811053358773774,4.219426011892106,9.456135534816767,9.434089325018123,7.968858963205635,13.51656988542965C6.481582391594504,17.599050445841172,1.6319990494328502,20.549348253538206,-2.543308046388944,13.418112589606928C-6.718615142210738,6.286876925675646,-10.219645991692673,-10.92589220988395,-10.456093333419384,-14.796083419543399C-10.692540675146097,-18.66627462920285,-7.664404509117583,-9.193887912962152,-11.50505203344294,-2.7936927896214008C-15.345699557768295,3.6065023337193507,-26.05513077244752,6.934505864160157,-29.33680848749876,5.686956132665511C-32.61848620255,4.4394064011708645,-28.472410417973258,-1.383696592259235,-24.520713444834794,-11.496785994428885C-20.569016471696337,-21.609875396598532,-16.81169830999616,-36.01295120750773,-17.2033477856766,-31.469563381863576C-17.594997261357044,-26.926175556219412,-22.135614374418104,-3.4363240940218915,-22.448803947281146,9.522274915470362C-22.761993520144188,22.480873924962616,-18.847755552809218,24.908220481749606,-9.445550660999132,17.827930096018484C-0.043345769189048866,10.74763971028736,14.846826047096146,-5.840287617961872,19.043784708447294,-13.624388928854605C23.24074336979844,-21.408490239747337,16.74448887621554,-20.38876553328357,20.751842093407156,-11.792172607158431C24.759195310598763,-3.195579681033289,39.27015623856489,12.977881464753228,33.1693570842419,9.114745875212073C27.068557929918928,5.251610285670919,0.3559986933068515,-18.648122039197904,-9.040983642330724,-24.925219921893945C-18.4379659779683,-31.20231780458999,-10.519371412631378,-19.856781245113247,-5.177695284609925,-8.392627319799551C0.16398084341152774,3.0715266055141415,2.9287385341175094,14.654297896664788,-2.884298116280703,16.3435985521436C-8.697334766678916,18.032899207622407,-23.088165758181322,9.828729227429381,-23.979634409583927,0.7120027326195331C-24.87110306098653,-8.404723762190317,-12.263209372289333,-18.43400677161699,-2.9034386527044846,-16.28016451199254C6.456332066880364,-14.126322252368098,12.567979817352864,0.21064527630746532,15.623803692589114,7.379129040645246L18.679627567825364,14.547612804983029" />
  </g>
</svg>
