<?xml version="1.0" encoding="UTF-8" standalone="no"?>
<svg
   xmlns:dc="http://purl.org/dc/elements/1.1/"
   xmlns:cc="http://creativecommons.org/ns#"
   xmlns:rdf="http://www.w3.org/1999/02/22-rdf-syntax-ns#"
   xmlns:svg="http://www.w3.org/2000/svg"
   xmlns="http://www.w3.org/2000/svg"
   version="1.1"
   id="svg2"
   height="300"
   width="300"
   preserveAspectRatio="xMidYMid"
   viewBox="0 0 300 300">
  <metadata
     id="metadata27">
    <rdf:RDF>
      <cc:Work
         rdf:about="">
        <dc:format>image/svg+xml</dc:format>
        <dc:type
           rdf:resource="http://purl.org/dc/dcmitype/StillImage" />
      </cc:Work>
    </rdf:RDF>
  </metadata>
  <defs
     id="defs25" />
  <filter
     y="-50%"
     x="-50%"
     height="500"
     width="300"
     id="rdobw">
    <feFlood
       id="feFlood5"
       result="element"
       flood-color="#ff6d3a" />
    <feTurbulence
       id="feTurbulence7"
       result="element_1"
       seed="87"
       numOctaves="8"
       type="fractalNoise"
       baseFrequency="0.02" />
    <feGaussianBlur
       id="feGaussianBlur9"
       result="element_2"
       in="SourceAlpha"
       stdDeviation="4" />
    <feDisplacementMap
       id="feDisplacementMap11"
       result="element_3"
       in2="element_1"
       in="element_2"
       scale="100" />
    <feComposite
       id="feComposite13"
       result="element_4"
       in2="element_3"
       in="element"
       operator="in" />
    <feMerge
       id="feMerge15">
      <feMergeNode
         id="feMergeNode17"
         in="element_4" />
    </feMerge>
  </filter>
  <g
     id="g19"
     transform="translate(150,150) scale(1.5)">
    <path
       id="path21"
       style="filter: url(#rdobw); stroke: rgb(255, 109, 58);"
       d="M0,0L0.003349943054275918,-5.613404793156418C0.006699886108551836,-11.226809586312836,0.013399772217103673,-22.45361917262567,3.5264711249942073,-30.453575977811163C7.0395424777713105,-38.45353278299665,14.058985297216966,-43.2266368070548,14.973529813691492,-41.2208087515058C15.888074330166017,-39.2149806959568,10.697720543669412,-30.43022056080064,7.311764412649628,-22.605816810946163C3.925808281629844,-14.781413061091682,2.3442498060868804,-7.917365696538871,-0.8877281927738181,-1.9683892123392743C-4.119706191634517,3.980587271860322,-9.00210371381295,9.014492875706706,-8.70189086376921,0.9518693774085474C-8.40167801372547,-7.110754120889613,-2.9188547914595553,-28.26990672133232,-0.9158144078562178,-31.151057239499863C1.0872259757471197,-34.03220775766741,-0.3895164793121204,-18.635356193559794,-5.377607861339642,-14.249155831550627C-10.365699243367162,-9.862955469541463,-18.865139552362965,-16.48740630963075,-19.97945308691745,-11.76592053632997C-21.093766621471936,-7.044434763029191,-14.822953381585105,9.022987623661653,-8.965086289742557,18.623114907129736C-3.1072191979000077,28.22324219059782,2.3377017458982587,31.356074370843142,4.264937952680322,25.558961094137025C6.192174159462384,19.761847817430915,4.601725629228245,5.034789083773364,2.49829961712107,6.994589175428104C0.3948736050138961,8.954389267082846,-2.2215298889663115,27.601048184049876,1.6442054461094493,26.82323017638792C5.509940781185211,26.045412168725967,15.85781494531694,5.8431172364350275,19.879514392800957,-6.648297071939916C23.90121384028497,-19.139711380314857,21.59673857112127,-23.920245064773805,24.18192250501825,-21.33986431352935C26.76710643891523,-18.7594835622849,34.24194957587289,-8.818188375337044,25.853457482132114,-12.393327945178248C17.464965388391334,-15.968467515019453,-6.786861936047876,-33.06004184164971,-15.704019287355909,-33.5963882495631C-24.62117663866394,-34.13273465747647,-18.203664016840797,-18.113853146672966,-14.11053110651179,-11.130514372800274C-10.017398196182784,-4.147175598927585,-8.248644997347919,-6.199379561985713,-9.295155587649687,-11.50152785544228C-10.341666177951453,-16.803676148898845,-14.203440557389854,-25.35576877275385,-8.972316728050735,-29.044564878888043C-3.741192898711617,-32.73336098502223,10.582829139405021,-31.558860573435606,14.319372924024693,-19.825514301138774C18.055916708644364,-8.09216802884194,11.204982239767066,14.2000241041651,6.807176705387422,17.618475524022934C2.4093711710077774,21.03692694388077,0.4646945711257844,5.5816376505893945,-1.3612253309516866,-2.935078890178682C-3.187145233029158,-11.45179543094676,-4.894308437302106,-13.02993921919154,-2.664100922147595,-18.40236883973415C-0.433893406993084,-23.774798460276763,5.733684827588887,-32.94151391311721,12.090862899026913,-29.692807249940945C18.448040970464938,-26.44410058676468,24.99481887875902,-10.779971807571703,15.924659163559316,-3.870555694787289C6.854499448359615,3.038860417997125,-17.832597890333872,1.1935638643729776,-19.104690398389,9.929383938825088C-20.376782906444127,18.665204013277197,1.766129416139103,37.98214071580556,6.013450040039481,33.165929719382376C10.260770663939859,28.349718722959185,-3.387500410842615,-0.599639972415563,-16.05627909535554,-13.552470426571482C-28.72505777986846,-26.5053008807274,-40.41434407411183,-23.461603093664493,-35.46330294636501,-18.711213568184665C-30.512261818618185,-13.960824042704841,-8.920893268881162,-7.503742778808099,-6.648360004469483,2.31532715527862C-4.3758267400578035,12.13439708936534,-21.422128760971468,25.315455693642036,-22.630208005591005,26.966343256261762C-23.838287250210545,28.617230818881488,-9.208143718535961,18.73794733984424,-1.1618279276555465,12.246387146774094C6.884487863224868,5.754826953703949,8.34697591331111,2.650990046600909,4.6365311940870395,1.5639043757944715C0.92608647486297,0.4768187049880337,-7.957291013671414,1.4064842704781988,-18.266006781739847,3.119892354240176C-28.57472254980828,4.833300438002153,-40.30877659741076,7.330451040035943,-46.17580362121201,8.579026341052836L-52.04283064501325,9.827601642069732" />
  </g>
</svg>
