<svg viewBox="0 0 300 300" preserveAspectRatio="xMidYMid" width="300" height="300"><filter id="ekffy" width="300" height="500" x="-50%" y="-50%"><feFlood flood-color="#832A0D" result="element"></feFlood><feTurbulence baseFrequency="0.02" type="fractalNoise" numOctaves="8" seed="46" result="element_1"></feTurbulence><feGaussianBlur stdDeviation="5" in="SourceAlpha" result="element_2"></feGaussianBlur><feDisplacementMap scale="100" in="element_2" in2="element_1" result="element_3"></feDisplacementMap><feComposite operator="in" in="element" in2="element_3" result="element_4"></feComposite><feMerge><feMergeNode in="element_4"></feMergeNode></feMerge></filter><g transform="translate(150,150) scale(1.5)"><path d="M0,0L4.533079785332447,-1.0155619532008349C9.066159570664894,-2.0311239064016697,18.132319141329788,-4.0622478128033395,15.201704039779106,-3.3270813801934818C12.271088938228424,-2.5919149475836236,-2.656300835537836,0.909541824037762,-6.300424005247042,1.2384289693685129C-9.944547174956249,1.5673161146992638,-2.305403740608402,-1.27636636626062,2.6734396000036167,-6.654752790543212C7.652282940615635,-12.033139214825802,9.970826187491825,-19.9462295824311,3.160853447427307,-18.202254013743698C-3.649119292637213,-16.458278445056294,-19.587608019642442,-5.057236940076186,-28.205491833255174,0.5024020299369256C-36.82337564686791,6.062040999950037,-38.12065454708815,5.7802774349961545,-33.2296135910482,13.887729077642781C-28.338572635008248,21.995180720289408,-17.25921182270811,38.49184757053654,-13.314439031143628,34.71163182282883C-9.369666239579148,30.931416075121103,-12.55948146875033,6.874317729458523,-9.839571503965887,0.4373599450676271C-7.119661539181442,-5.999597839323269,1.5099736195586253,5.183584937557517,3.2409781760908833,9.54514773151842C4.971982732623141,13.90671052547932,-0.19564331305240934,11.44665333652034,-1.6834450857619667,8.015363318081747C-3.171246858471524,4.584073299643153,-0.9792243582150877,0.18155045172494688,5.276593252212181,-0.506665814047124C11.53241086263945,-1.1948820798191948,21.852023583237553,1.8312082365548694,21.653587634318285,2.9161317201001635C21.455151685399024,4.001055203645457,10.738667066962392,3.14481185436198,9.309631615631542,2.4234308774971316C7.88059616430069,1.702049900632283,15.739009880075617,1.115531296186062,18.405778013485566,-4.461517903498707C21.07254614689552,-10.038567103183475,18.54766869794049,-20.606146898106793,18.834959850019555,-24.2770197100277C19.122251002098622,-27.947892521948614,22.221710755211774,-24.72205835086712,19.395187248500488,-23.45696534491038C16.568663741789198,-22.191872338953637,7.816156975253466,-22.887520498121653,7.932896606656259,-16.44093968568485C8.049636238059051,-9.994358873248046,17.03562226740037,3.594450910793576,22.912564704343964,8.208257194821362C28.78950714128756,12.822063478849149,31.557405985833434,8.4608662628631,30.09491358718508,9.221773372028853C28.632421188536725,9.982680481194606,22.939537546694147,15.865691915512162,22.36388354730851,21.55489070870731C21.78822954792287,27.244089501902454,26.329805190994172,32.73947565397519,22.575724333003453,30.48070819099024C18.821643475012735,28.221940728005283,6.77190611595999,18.209019649962638,0.8385512949203412,9.918879210567376C-5.094803526119307,1.6287387711721126,-4.91177580914586,-4.938621029575767,4.220570346050012,-7.732156003302269C13.352916501245886,-10.525690977028773,31.434581094664185,-9.545401123733898,31.699697286520255,-7.742258976612204C31.96481347837633,-5.9391168294905095,14.413381268670173,-3.313122388541995,5.730629915514171,-5.3692165370208755C-2.952121437641832,-7.425310685499755,-2.7661919342476824,-14.163493423406031,-2.264849841143567,-16.222970453242652C-1.7635077480394523,-18.282447483079277,-0.9467530652253722,-15.663218804846249,-1.3259146547526703,-12.318458309976004C-1.7050762442799683,-8.973697815105758,-3.2801541061486446,-4.903405503598296,-1.7729859029482709,-5.0992480130092295C-0.2658176997478976,-5.295090522420163,4.323596568521525,-9.757067852749493,4.990278831221372,-16.471623957082237C5.6569610939212165,-23.18618006141498,2.4009113510514846,-32.153314939751134,9.452084507539512,-34.50860412028514C16.50325766402754,-36.86389330081916,33.861653719873324,-32.60733678355102,35.93921856768864,-25.476625693668584C38.016783415503944,-18.345914603786156,24.813517055288784,-8.34104894128943,14.489454899290722,-11.436351737389309C4.165392743292667,-14.531654533489188,-3.2794652084882845,-30.727125788185674,-9.670214062744229,-31.50996546253082C-16.060962917000175,-32.29280513687596,-21.397602673731114,-17.66301323086977,-19.653258340257725,-9.612367504418694C-17.90891400678434,-1.5617217779676211,-9.083585583106625,-0.09022223107166816,-4.670921371267768,0.6455275423763083L-0.2582571594289121,1.3812773158242848" style="filter: url(#ekffy); stroke: rgb(131, 42, 13);"></path></g></svg>