<svg viewBox="0 0 300 300" preserveAspectRatio="xMidYMid" width="300" height="300"><filter id="anuvo" width="300" height="500" x="-50%" y="-50%"><feFlood flood-color="#738276" result="element"></feFlood><feTurbulence baseFrequency="0.02" type="fractalNoise" numOctaves="8" seed="76" result="element_1"></feTurbulence><feGaussianBlur stdDeviation="5" in="SourceAlpha" result="element_2"></feGaussianBlur><feDisplacementMap scale="100" in="element_2" in2="element_1" result="element_3"></feDisplacementMap><feComposite operator="in" in="element" in2="element_3" result="element_4"></feComposite><feMerge><feMergeNode in="element_4"></feMergeNode></feMerge></filter><g transform="translate(150,150) scale(1.5)"><path d="M0,0L1.7941222903613963,4.064451986780851C3.5882445807227925,8.128903973561702,7.176489161445585,16.257807947123403,15.99560451664886,21.68539618277591C24.814719871852137,27.11298441842842,38.8647060015359,29.83925691617174,43.99415736313749,24.51115567269803C49.12360872473908,19.18305442922432,45.332525318258504,5.800579444533582,37.34046934898534,2.424900343424768C29.348413379712177,-0.9507787576840467,17.15538484764643,5.6803380247890605,8.250672175904379,12.620235269269827C-0.6540404958376707,19.56013251375059,-6.270437307256024,26.808810220239017,-2.486564393821509,26.40744905098071C1.297308519613006,26.006087881722404,14.481451157900391,17.954687836717365,13.045970667130671,16.41585148771958C11.610490176360955,14.877015138721795,-4.444613443465865,19.850742485731264,-11.102527100726569,18.219524063122673C-17.760440757987276,16.58830564051409,-15.021164452681862,8.35214144828745,-13.047416482562664,7.055686668253434C-11.073668512443465,5.759231888219418,-9.865448877510481,11.402486520378027,-7.645947026726882,10.423306718561205C-5.426445175943282,9.444126916744384,-2.195661109309071,1.842512680952134,2.5062966798975093,-1.2866880795232518C7.208254469104089,-4.415888839998638,13.381385980883037,-3.0726761251571593,16.081347958689875,0.03911645703287636C18.78130993649671,3.1509090392229115,18.008102380331433,8.031281488761504,7.285530546141009,4.708257698300878C-3.4370412880494143,1.3852339078402514,-24.108977400264987,-10.141186122619594,-25.731126102431077,-13.416374291036869C-27.353274804597163,-16.691562459454147,-9.925636096713767,-11.715518765828854,-4.981947935012084,-7.9917860712353015C-0.038259773310401535,-4.268053376641751,-7.5785221577904345,-1.7966316810799408,-2.4062393294154685,0.5219410336647425C2.7660434989594975,2.8405137484094256,20.650871540189463,5.006237482336982,20.341319836058755,2.693811246842741C20.031768131928047,0.3813850113484998,1.5278366824366643,-6.4091911935675405,-5.1385720887775745,-4.864434897611316C-11.804980859991813,-3.3196786016550908,-6.633866952928911,6.560410195173398,-0.03894676926568508,8.895738362201408C6.555973414397541,11.231066529229418,14.574699874661091,6.021634066456948,17.29395172833173,2.8161044485830966C20.013203582002376,-0.38942516929075455,17.43298082908011,-1.591051942265987,20.8681918006222,-7.367164131242657C24.30340277216429,-13.143276320219325,33.75404746817074,-23.49387392519743,35.97991222383217,-21.847925743264025C38.205776979493606,-20.20197756133062,33.206861794810024,-6.559483592485698,23.722298081031923,1.6913777502565894C14.237734367253829,9.942239092998877,0.2675221243812178,12.801467809638531,-11.665428208216607,7.8495320562702915C-23.59837854081443,2.897596302902051,-33.49406696313747,-9.865503920474085,-34.57785430876835,-13.737685827770104C-35.66164165439924,-17.609867735066125,-27.933527923337962,-12.591131326282026,-14.296369082080647,-6.637563814763143C-0.6592102408233256,-0.6839963032442595,18.88699371063004,6.20440231100941,20.21765561483952,3.2848589362782565C21.548317519049,0.3653155615471029,4.663437376014592,-12.362169802168873,-1.045021135259621,-16.621335686279327C-6.753479646533834,-20.880501570389782,-1.2855165260478532,-16.67134797489472,9.961022652675718,-10.596278842913181C21.20756183139929,-4.521209710931645,38.232677068360445,3.4197749575363643,35.9316558681089,8.14770746987275C33.63063466785735,12.875639982209135,12.003477030393089,14.390520338413896,2.52574910854246,10.634554151302336C-6.951978813308168,6.878587964190775,-4.280277019545164,-2.1482247662371092,-4.480058516318747,-0.030083609235118658C-4.679840013092331,2.088057547766873,-7.751104800402503,15.351152592198739,-3.927551490583133,14.587788901324757C-0.10399818076376377,13.824425210450775,10.614373226185148,-0.9653972157290553,14.443080820543159,-3.7936649239193563C18.271788414901174,-6.621932632109657,15.210832196668285,2.511354377689571,18.758300439060612,5.363065305077844C22.30576868145294,8.214776232466116,32.46166138447048,4.784911077443433,37.53960773597925,3.0699784999320916L42.617554087488024,1.35504592242075" style="filter: url(#anuvo); stroke: rgb(115, 130, 118);"></path></g></svg>