<?xml version="1.0" encoding="UTF-8" standalone="no"?>
<svg
   xmlns:dc="http://purl.org/dc/elements/1.1/"
   xmlns:cc="http://creativecommons.org/ns#"
   xmlns:rdf="http://www.w3.org/1999/02/22-rdf-syntax-ns#"
   xmlns:svg="http://www.w3.org/2000/svg"
   xmlns="http://www.w3.org/2000/svg"
   version="1.1"
   id="svg2"
   height="300"
   width="300"
   preserveAspectRatio="xMidYMid"
   viewBox="0 0 300 300">
  <metadata
     id="metadata27">
    <rdf:RDF>
      <cc:Work
         rdf:about="">
        <dc:format>image/svg+xml</dc:format>
        <dc:type
           rdf:resource="http://purl.org/dc/dcmitype/StillImage" />
      </cc:Work>
    </rdf:RDF>
  </metadata>
  <defs
     id="defs25" />
  <filter
     y="-50%"
     x="-50%"
     height="500"
     width="300"
     id="ecyqr">
    <feFlood
       id="feFlood5"
       result="element"
       flood-color="#cec8ef" />
    <feTurbulence
       id="feTurbulence7"
       result="element_1"
       seed="25"
       numOctaves="8"
       type="fractalNoise"
       baseFrequency="0.02" />
    <feGaussianBlur
       id="feGaussianBlur9"
       result="element_2"
       in="SourceAlpha"
       stdDeviation="5" />
    <feDisplacementMap
       id="feDisplacementMap11"
       result="element_3"
       in2="element_1"
       in="element_2"
       scale="100" />
    <feComposite
       id="feComposite13"
       result="element_4"
       in2="element_3"
       in="element"
       operator="in" />
    <feMerge
       id="feMerge15">
      <feMergeNode
         id="feMergeNode17"
         in="element_4" />
    </feMerge>
  </filter>
  <g
     id="g19"
     transform="translate(150,150) scale(1.5)">
    <path
       id="path21"
       style="filter: url(#ecyqr); stroke: rgb(206, 200, 239);"
       d="M0,0L5.811062907624952,2.398512978163663C11.622125815249904,4.797025956327326,23.244251630499807,9.594051912654653,29.48909385917495,13.10405119931142C35.7339360878501,16.61405048596819,36.60149472995048,18.837023102954397,34.450772713769624,17.475058771474746C32.300050697588766,16.113094439995095,27.131048023126667,11.166193160049579,22.433041301627256,14.143579481052596C17.73503458012785,17.120965802055615,13.508023811591123,28.022639724007163,14.025706538748429,26.97774546860682C14.54338926590573,25.932851213206472,19.805765488757064,12.941388780454234,18.26638513714246,-2.6544833432798693C16.72700478552786,-18.25035546701397,8.385867859447329,-36.45063728172994,6.727874303237167,-41.61110027279157C5.069880747027004,-46.771563263853196,10.095030560687212,-38.89220743126049,9.155278183025379,-33.124685577728265C8.215525805363548,-27.35716372419604,1.3108712363796755,-23.701475849724314,4.554970123702699,-12.569901108775511C7.799069011025722,-1.4383263678267042,21.19192135465564,17.16913523959918,21.60800633300964,22.206569195156412C22.024091311363648,27.244003150713652,9.463408924441739,18.711409454402244,2.6386132545964744,15.01261242555275C-4.18618241524879,11.313815396703255,-5.275091368017408,12.448815035315674,-10.798942011328764,9.896953379007067C-16.322792654640118,7.345091722698459,-26.281584988494213,1.1063687714688246,-26.356834937738405,5.152889885719778C-26.432084886982604,9.19941099997073,-16.6237924516169,23.53117617970227,-9.009741183250071,22.416415888284003C-1.3956899148832385,21.301655596865736,4.024120186484724,4.740369834297658,6.656535454253003,-2.442685661008807C9.288950722021283,-9.625741156315271,9.133971156189883,-7.430566384360125,6.730954666836317,-9.93696766654998C4.3279381774827534,-12.443368948739835,-0.32311523539297404,-19.651346285074695,-8.561573958953714,-10.29183122526847C-16.800032682514455,-0.9323161654622467,-28.625896716760206,24.994691290485058,-26.803392479374416,25.031933441010427C-24.980888241988623,25.069175591535796,-9.51001573297129,-0.7833475633607705,-2.038805301145567,-9.924912205389484C5.432405130680156,-19.066476847418198,4.903953485314265,-11.497082976579055,2.9104895410648877,-6.664769709729555C0.9170255968155103,-1.8324564428800545,-2.541450646317354,0.26277621997980605,-3.3434090894329023,-7.802339728887047C-4.14536753254845,-15.867455677753899,-2.290808175646682,-34.09292023834747,-4.9539828198038425,-35.3397828972856C-7.617157463961003,-36.58664555622374,-14.798066109177093,-20.854906313506447,-17.161296139204588,-8.86352080676459C-19.524526169232082,3.1278646999772635,-17.070077584070987,11.378896470743683,-18.504892438657656,21.233268366859974C-19.939707293244325,31.08764026297626,-25.26378558757876,42.54535228444242,-30.805977215940302,32.83754604730288C-36.34816884430185,23.12973981016334,-42.1084738066905,-7.743584685581901,-27.271274708980688,-20.420975555098217C-12.43407561127087,-33.09836642461453,23.000627546537412,-27.57982366790192,32.271761119444314,-14.75572428224684C41.54289469235122,-1.9316248965917566,24.65045868035674,18.198031118005794,12.935969258886159,30.95745671320091C1.22147983741558,43.71688230839602,-5.3150629935311,49.1060774841887,-2.7529509671258205,33.37307258609721C-0.19083894072054086,17.640067688005708,11.469927943036698,-19.21513728396996,9.83176036866956,-25.66034102662442C8.193592794302422,-32.10554476927888,-6.743509238189096,-8.140747282612129,-13.239352072989657,-2.4186573259997397C-19.735194907790216,3.303432630612649,-17.78977854489982,-9.217184942829322,-23.12043462575863,-11.944678551160903C-28.45109070661744,-14.672172159492485,-41.05781923122545,-7.606541802713676,-33.43129909492932,-0.40599190988878764C-25.80477895863319,6.7945579829361,2.054989838567085,14.130027411807067,8.123102149936447,16.471176046484118C14.191214461305808,18.812324681161165,-1.532329713155745,16.15915252164429,-5.222314190533873,17.69191648733757C-8.912298667912001,19.224680453030842,-0.5687234482067041,24.943380543934268,3.6030641616459445,27.802730589385977L7.774851771498593,30.662080634837693" />
  </g>
</svg>
