<svg viewBox="0 0 300 300" preserveAspectRatio="xMidYMid" width="300" height="300"><filter id="qulzc" width="300" height="500" x="-50%" y="-50%"><feFlood flood-color="#757575" result="element"></feFlood><feTurbulence baseFrequency="0.02" type="fractalNoise" numOctaves="8" seed="96" result="element_1"></feTurbulence><feGaussianBlur stdDeviation="4" in="SourceAlpha" result="element_2"></feGaussianBlur><feDisplacementMap scale="100" in="element_2" in2="element_1" result="element_3"></feDisplacementMap><feComposite operator="in" in="element" in2="element_3" result="element_4"></feComposite><feMerge><feMergeNode in="element_4"></feMergeNode></feMerge></filter><g transform="translate(150,150) scale(1.5)"><path d="M0,0L3.1234239458880233,0.439570456693601C6.246847891776047,0.879140913387202,12.493695783552093,1.758281826774404,13.160452755611548,1.7821696855394709C13.827209727671,1.8060575443045377,8.913875780013864,0.9746923484474692,6.822213067913085,2.7792643206017753C4.730550355812308,4.583836292756081,5.46055887926789,9.024345432921761,0.7612157270486213,8.327104554354799C-3.9381274251706486,7.629863675787836,-14.066822253064771,1.7948727784882292,-15.400893345756447,-0.5151877755491263C-16.734964438448124,-2.825248329586482,-9.274411795937356,-1.6103785403615862,-12.987176792061762,-0.5980303659169631C-16.699941788186166,0.41431780852766,-31.586024422945744,1.2241443681920106,-30.07754410075601,2.305755768634389C-28.56906377856627,3.3873671690767675,-10.666020499427221,4.740763410297173,-3.0547878914504247,6.375841073251751C4.5564447165263715,8.010918736206328,1.875866653340913,9.927677820895077,-0.04159240909952011,10.755495399142136C-1.9590514715399532,11.583312977389193,-3.1133915332353608,11.32218904919456,-3.9375279074189407,11.784333906957972C-4.7616642816025205,12.246478764721385,-5.255596968274272,13.431892408442842,-3.8503035656457385,7.554768460151617C-2.445010163017205,1.677644511860393,0.8595093289116149,-11.262017028443514,3.1956875868043415,-10.672124089079912C5.5318658446970685,-10.082231149716305,6.899702868553702,4.037216269314811,8.906953833705696,14.213479741877503C10.91420479885769,24.389743214440195,13.56086970530504,30.62282274053446,11.54301373800888,28.34410241008019C9.525157770712722,26.06538207962592,2.842780929673052,15.274861892623107,-5.544528346727269,7.662684562718344C-13.931837623127588,0.05050723281358138,-24.02407933488856,-4.383327239993135,-23.53439921099899,-6.693692497879315C-23.044719087109424,-9.004057755765496,-11.973117127569317,-9.19095379873114,0.9957674266930976,-7.723972234117373C13.96465198095551,-6.256990669503608,28.83081912994023,-3.1361314973104313,23.932355659502704,0.6149247273347827C19.033892189065178,4.365980951979997,-5.629201900794596,8.747234229077248,-10.269597476603174,13.579715194330483C-14.909993052411748,18.41219615958372,0.4723098858308745,23.695904812992936,14.55983360293299,23.32982945471918C28.647357320035105,22.96375409644543,41.44010181599671,16.947894726488705,39.02415413192494,10.76563423020807C36.60820644785316,4.583373733927438,18.983566583747997,-1.7652878886771024,17.49876647913834,-11.148280541938412C16.01396637452868,-20.531273195199724,30.669006029414525,-32.9485968791178,30.60122673554555,-24.746082450317132C30.533447441676568,-16.543568021516464,15.742849199052769,12.278784520002956,7.244101222847384,29.338718258716177C-1.2546467533580006,46.3986519974294,-3.4615444631449677,51.696166933336414,-2.348646783516664,51.55688853891279C-1.2357491038883603,51.41761014448916,3.1969439651552145,45.841538419734874,4.458909785885473,43.66201952389874C5.720875606615731,41.48250062806261,3.812114179032673,42.69953456114463,5.847259120685871,27.198073408673963C7.88240406233907,11.696612256203284,13.861455373228527,-20.523343981820087,14.189842884483808,-29.246031631148778C14.518230395739089,-37.96871928047747,9.195954107360198,-23.19413834111149,10.82583398137915,-13.790180038569476C12.455713855398104,-4.386221736027466,21.037749891814904,-0.35288607030942787,14.68797874752309,-0.31564517313559337C8.338207603231274,-0.2784042759617589,-12.943370721769156,-4.237258147332128,-17.98433696557449,-10.720675196244379C-23.025303209379825,-17.20409224515663,-11.825657371990063,-26.212072471610767,-4.380576168637766,-23.004774981030305C3.06450503471453,-19.797477490449843,6.755021604029361,-4.3749022828347846,5.74467132671502,0.3796559521725502C4.7343210494006795,5.134214187179885,-0.9768960745428332,-0.7792445504205054,-5.420340048296316,0.2319221788795729C-9.8637840220498,1.2430889081796517,-13.03945484561325,9.1788811043802,-14.003335398238253,9.401624535939693C-14.967215950863256,9.624367967499186,-13.719306232549808,2.1340626344176243,-13.095351373393083,-1.6110900321231563L-12.47139651423636,-5.356242698663937" style="filter: url(#qulzc); stroke: rgb(117, 117, 117);"></path></g></svg>