<svg viewBox="0 0 300 300" preserveAspectRatio="xMidYMid" width="300" height="300"><filter id="gbydo" width="300" height="500" x="-50%" y="-50%"><feFlood flood-color="#87ff2a" result="element"></feFlood><feTurbulence baseFrequency="0.02" type="fractalNoise" numOctaves="8" seed="80" result="element_1"></feTurbulence><feGaussianBlur stdDeviation="4" in="SourceAlpha" result="element_2"></feGaussianBlur><feDisplacementMap scale="100" in="element_2" in2="element_1" result="element_3"></feDisplacementMap><feComposite operator="in" in="element" in2="element_3" result="element_4"></feComposite><feMerge><feMergeNode in="element_4"></feMergeNode></feMerge></filter><g transform="translate(150,150) scale(1.5)"><path d="M0,0L1.7331579155125365,5.527952141542437C3.466315831025073,11.055904283084875,6.932631662050146,22.11180856616975,12.267863536398387,23.654485722747243C17.60309541074663,25.19716287932474,24.807243328418043,17.226612909394852,28.007933054912677,12.50248716885455C31.20862278140731,7.778361428314247,30.40585431672517,6.300659917163525,25.738767345521676,4.046779541612587C21.07168037431818,1.7928991660616487,12.540274896593337,-1.2371600738895059,5.794930729862372,1.724333887967866C-0.9504134368685917,4.685827849825238,-5.909696292605676,13.638875013491138,0.7051651745362717,8.409772402261108C7.3200266416782185,3.180669791031079,25.509032431699197,-16.23058259509488,36.097531310653906,-14.380650846449516C46.686030189608616,-12.530719097804152,49.67402215749706,10.580396785612532,40.35616617026179,18.60295338900238C31.038310183026525,26.625509992392224,9.414606240667538,19.55950731575523,0.02753660441150163,6.711982717115861C-9.359533031844535,-6.135541881523508,-6.509968361997624,-24.764588402165252,-3.9629981373001586,-26.136457974036553C-1.4160279126026927,-27.50832754590785,0.8283478669453277,-11.623020169008702,3.9428838536013653,-3.54162974361959C7.057419840257403,4.539760681769524,11.042116034021458,4.8172341556486,19.016654956624887,-2.9660655280625576C26.99119387922832,-10.749365211773716,38.955575530671126,-26.593438053075108,36.1875450181529,-27.27880283024845C33.41951450563469,-27.96416760742179,15.91907182915545,-13.490824320467077,7.389338127819021,-15.084970743114713C-1.1403955735174087,-16.67911716576235,-0.6994202997110295,-34.34075329801233,-4.668248821244347,-36.207931520431025C-8.637077342777665,-38.07510974284972,-17.01570965965068,-24.14783005543712,-18.66705928266147,-9.148874549844926C-20.31840890567226,5.850080955747266,-15.242475834820825,21.920712279519055,-12.750249681120733,23.16003939411005C-10.258023527420642,24.399366508701046,-10.349504290871895,10.807389414111249,-7.003500316193929,5.020728011858122C-3.657496341515962,-0.7659333903950056,3.1259923712912228,1.2527208996885366,1.8143275333104119,0.250478666916482C0.502662695329601,-0.7517635658555726,-8.904155693439206,-4.774902321483224,-8.461561976692519,-5.13180436813117C-8.018968259945833,-5.488706414779116,2.273037562316346,-2.179371752447357,3.6497496321420226,-5.114129981750901C5.0264617019676985,-8.048888211054445,-2.512119980643128,-17.227739331993295,-9.21926920144189,-26.451530540013238C-15.92641842224065,-35.67532174803318,-21.802135181227346,-44.94405304313421,-19.598285813624564,-41.494507144918394C-17.39443644602179,-38.04496124670257,-7.111020951829537,-21.877138155169895,-3.367396753499339,-13.776742523692969C0.37622744483085824,-5.676346892216041,-2.4199396527009984,-5.643378720794864,-2.235190589195608,-4.39685205555169C-2.050441525690218,-3.1503253903085158,1.1152236988524187,-0.6902402312433444,2.313529793092559,2.425772124473143C3.5118358873326994,5.54178448018963,2.7427828512703427,9.313724032557435,2.916275739620411,14.523771766797292C3.0897686279704795,19.733819501037154,4.205807440732972,26.381975417149064,-4.6806820247556296,25.509946299479953C-13.567171490244233,24.63791718181084,-32.45618923398393,16.245703030360694,-32.90589942213965,7.186136675895635C-33.35560961029537,-1.8734296785694262,-15.366012242867106,-11.600348236049403,-14.971646452564631,-19.415010686551547C-14.577280662262156,-27.229673137053688,-31.77814644908547,-33.13207948057799,-29.683654242706208,-20.42620301331718C-27.589162036326954,-7.72032654605637,-6.1993118367451245,23.59383273198956,4.173363402623981,26.86983005217225C14.546038641993087,30.145827372354937,13.901538921149472,5.383662734674385,13.074547618204098,-4.124851950796677C12.247556315258727,-13.63336663626774,11.2380734302116,-7.88823136952931,8.7540198899628,-5.271735778704648C6.269966349714001,-2.6552401878799854,2.3113421542635306,-3.16738427296909,-6.461030871329603,-10.314262529105317C-15.233403896922736,-17.461140785241547,-28.81952575265853,-31.242753212424898,-35.612586680526434,-38.133559426016575L-42.40564760839433,-45.02436563960825" style="filter: url(#gbydo); stroke: rgb(135, 255, 42);"></path></g></svg>