<?xml version="1.0" encoding="UTF-8" standalone="no"?>
<svg
   xmlns:dc="http://purl.org/dc/elements/1.1/"
   xmlns:cc="http://creativecommons.org/ns#"
   xmlns:rdf="http://www.w3.org/1999/02/22-rdf-syntax-ns#"
   xmlns:svg="http://www.w3.org/2000/svg"
   xmlns="http://www.w3.org/2000/svg"
   version="1.1"
   id="svg2"
   height="300"
   width="300"
   preserveAspectRatio="xMidYMid"
   viewBox="0 0 300 300">
  <metadata
     id="metadata27">
    <rdf:RDF>
      <cc:Work
         rdf:about="">
        <dc:format>image/svg+xml</dc:format>
        <dc:type
           rdf:resource="http://purl.org/dc/dcmitype/StillImage" />
      </cc:Work>
    </rdf:RDF>
  </metadata>
  <defs
     id="defs25" />
  <filter
     y="-50%"
     x="-50%"
     height="500"
     width="300"
     id="yxovr">
    <feFlood
       id="feFlood5"
       result="element"
       flood-color="#5f8a8b" />
    <feTurbulence
       id="feTurbulence7"
       result="element_1"
       seed="54"
       numOctaves="8"
       type="fractalNoise"
       baseFrequency="0.02" />
    <feGaussianBlur
       id="feGaussianBlur9"
       result="element_2"
       in="SourceAlpha"
       stdDeviation="4" />
    <feDisplacementMap
       id="feDisplacementMap11"
       result="element_3"
       in2="element_1"
       in="element_2"
       scale="100" />
    <feComposite
       id="feComposite13"
       result="element_4"
       in2="element_3"
       in="element"
       operator="in" />
    <feMerge
       id="feMerge15">
      <feMergeNode
         id="feMergeNode17"
         in="element_4" />
    </feMerge>
  </filter>
  <g
     id="g19"
     transform="translate(150,150) scale(1.5)">
    <path
       id="path21"
       style="filter: url(#yxovr); stroke: rgb(95, 138, 139);"
       d="M0,0L2.0658633467769922,-8.109269451582215C4.1317266935539845,-16.21853890316443,8.263453387107969,-32.43707780632886,8.29605265654177,-30.790509674442774C8.32865192597557,-29.14394154255669,4.262123771289187,-9.63226637562009,1.1201061336630898,-5.912628388013243C-2.0219115039630076,-2.192990400406396,-4.239418624528819,-14.265389592129303,0.8052836185442489,-18.57494074164113C5.849985861617316,-22.88449189115295,18.156897468329262,-19.431194998453698,20.010551576151997,-21.46650664454191C21.86420568397473,-23.501818290630126,13.26460229290825,-31.025738475505808,14.30043706258531,-28.691486919704854C15.33627183226237,-26.3572353639039,26.00754476268297,-14.164812067426306,26.44406570885702,-10.529911783549705C26.88058665503108,-6.895011499673105,17.082355616958594,-11.817634228397496,10.712571083869685,-9.25657968612982C4.342786550780775,-6.695525143862141,1.4014485226754414,3.349206669397608,-5.005184057211243,5.319577762613813C-11.411816637097926,7.289948855830017,-21.283743768765962,1.1859592290026768,-19.96044284123179,-5.338543155031518C-18.63714191369762,-11.863045539065713,-6.118612926961244,-18.808060680306763,1.0356140072114828,-15.09187131683791C8.18984094138421,-11.375681953369053,9.979765822993288,3.0017119148097073,9.047986065830909,0.41758366382280787C8.116206308668525,-2.1665445871640916,4.462721912734685,-21.71219495731665,-0.770671742061666,-17.474107036052857C-6.004065396858017,-13.236019114789059,-12.81736831051688,14.785807097891093,-10.958415185176499,23.282995713757106C-9.09946205983612,31.78018432962312,1.4317471045035006,20.75273534867499,10.125288079467557,9.952133909073295C18.818829054431614,-0.8484675305284011,25.67470184002011,-11.422221428783665,23.96666944890702,-14.620526351961566C22.258637057793933,-17.818831275139466,11.98669948997927,-13.641687223240005,13.669732081038447,-3.255362275447853C15.352764672097626,7.1309626723443,28.99076742203065,23.726468516029144,30.72529203712121,24.025944206851094C32.45981665221177,24.32541989767304,22.290863132459872,8.328865435632098,13.939813195897417,2.381968163144734C5.588763259334959,-3.56492910934263,-0.9443830940380549,0.5378308077235854,-1.3310533059257232,10.0943557513292C-1.7177235178133916,19.650880694934813,4.0420824117842855,34.66117066507983,3.346198128574146,34.77565264745624C2.650313845364006,34.89013462983265,-4.5012606506539505,20.108808624440464,-10.19999647363679,19.687343023821818C-15.89873229661963,19.26587742320317,-20.14462944656735,33.204272227358075,-18.089762939723347,33.76258581741932C-16.034896432879343,34.32089940748057,-7.679266269243613,21.49913178344816,-2.853733083921515,16.712438017185892C1.9718001014005835,11.925744250923625,3.2672363084090503,15.174124342431494,2.1084288602171903,14.719868594079042C0.9496214120253299,14.26561284572659,-2.6634296913668574,10.108721257513817,-0.9859419792549486,9.434726108537708C0.6915457328569605,8.760730959561599,7.659572260472966,11.569632249822153,11.239947591732985,8.179564092240287C14.820322922993004,4.789495934658422,15.013047057897037,-4.799541670765861,16.242316352624744,-13.73144141417663C17.47158564735245,-22.663341157587396,19.73740010190383,-30.93810303898465,19.73161231509443,-21.11490893292754C19.72582452828503,-11.29171482687043,17.448434500114857,16.62943526664104,9.234129647649544,24.433666415492834C1.0198247951842347,32.23789756434463,-13.131394881576208,19.92520976853675,-23.209554697943283,8.790230887420147C-33.287714514310366,-2.3447479936964584,-39.29281447028407,-12.302017960121788,-37.00792346317141,-16.045232583703857C-34.72303245605874,-19.788447207285927,-24.148150485859695,-17.317606488024737,-21.05562302159857,-13.432456903975698C-17.96309555733744,-9.547307319926665,-22.352922599014228,-4.247848871089785,-12.319505715643906,-3.325663924256273C-2.286088832273583,-2.403478977422761,22.170571976143854,-5.858567532592619,25.668907277558397,-11.023989364103748C29.16724257897294,-16.189411195614877,11.707252373384584,-23.06516630346728,2.977257270590407,-26.50304385739348L-5.7527378322037706,-29.94092141131968" />
  </g>
</svg>
