<?xml version="1.0" encoding="UTF-8" standalone="no"?>
<svg
   xmlns:dc="http://purl.org/dc/elements/1.1/"
   xmlns:cc="http://creativecommons.org/ns#"
   xmlns:rdf="http://www.w3.org/1999/02/22-rdf-syntax-ns#"
   xmlns:svg="http://www.w3.org/2000/svg"
   xmlns="http://www.w3.org/2000/svg"
   version="1.1"
   id="svg2"
   height="300"
   width="300"
   preserveAspectRatio="xMidYMid"
   viewBox="0 0 300 300">
  <metadata
     id="metadata27">
    <rdf:RDF>
      <cc:Work
         rdf:about="">
        <dc:format>image/svg+xml</dc:format>
        <dc:type
           rdf:resource="http://purl.org/dc/dcmitype/StillImage" />
      </cc:Work>
    </rdf:RDF>
  </metadata>
  <defs
     id="defs25" />
  <filter
     y="-50%"
     x="-50%"
     height="500"
     width="300"
     id="spiat">
    <feFlood
       id="feFlood5"
       result="element"
       flood-color="#0081ab" />
    <feTurbulence
       id="feTurbulence7"
       result="element_1"
       seed="50"
       numOctaves="8"
       type="fractalNoise"
       baseFrequency="0.02" />
    <feGaussianBlur
       id="feGaussianBlur9"
       result="element_2"
       in="SourceAlpha"
       stdDeviation="4" />
    <feDisplacementMap
       id="feDisplacementMap11"
       result="element_3"
       in2="element_1"
       in="element_2"
       scale="100" />
    <feComposite
       id="feComposite13"
       result="element_4"
       in2="element_3"
       in="element"
       operator="in" />
    <feMerge
       id="feMerge15">
      <feMergeNode
         id="feMergeNode17"
         in="element_4" />
    </feMerge>
  </filter>
  <g
     id="g19"
     transform="translate(150,150) scale(1.5)">
    <path
       id="path21"
       style="filter: url(#spiat); stroke: rgb(0, 129, 171);"
       d="M0,0L0.012891455543746613,0.05629746146703464C0.025782911087493227,0.11259492293406928,0.05156582217498645,0.22518984586813856,3.0377967060554885,5.338984708921734C6.024027589935991,10.452779571975329,11.970706446609501,20.56777437514845,19.037750805023467,24.09117282202769C26.10479516343743,27.61457126890693,34.29220502359185,24.54637335949229,31.829587085344862,23.60932079299581C29.366969147097876,22.672268226499327,16.25432341044948,23.866361002921003,10.950948182856525,24.6843580834388C5.647572955263568,25.502355163956594,8.153468236726052,25.944256548570507,11.856811469285542,19.53877189115302C15.560154701845033,13.133287233735537,20.460945885501527,-0.11958346571334744,24.3716037403138,-5.758951672637426C28.282261595126077,-11.398319879561505,31.202786121094128,-9.424185593960782,26.92605519239146,-8.046379658596917C22.64932426368879,-6.668573723233052,11.175337880315396,-5.887096138106049,11.619273480668886,-9.950757712740193C12.063209081022375,-14.014419287374338,24.425066665102744,-22.923220021769634,33.069794138682944,-20.27269938943314C41.71452161226314,-17.622178757096652,46.64211897534317,-3.412336758028376,48.39623968893088,6.364317699287627C50.15036040251859,16.14097215660363,48.73100446661397,21.48443907216736,38.31246423345845,24.767532090267053C27.89392400030294,28.050625108366745,8.476199469896525,29.2733442290024,-5.654021370937047,18.353504689856827C-19.784242211770618,7.433665150711249,-28.62695936303135,-15.628733048215558,-29.47412775988374,-18.211663311553956C-30.321296156736132,-20.794593574892353,-23.17291579918018,-2.8980559026423443,-15.192837577853952,5.914132367824183C-7.212759356527726,14.72632063829071,1.599016728568781,14.454159506973754,4.0176196181905555,11.618865545876154C6.43622250781233,8.783571584778553,2.4616522019593714,3.3851447939003085,4.950447550483677,4.405202575176659C7.439242899007983,5.42526035645301,16.391403901909552,12.863802709883956,16.77223716920341,13.488968197096241C17.153070436497273,14.114133684308527,8.96257596818343,7.925922305302151,3.710791790596809,2.3337327499933487C-1.5409923869898126,-3.2584568053154532,-3.8540662738492086,-8.25462453692668,-3.110463686866165,-6.714980501808339C-2.366861099883121,-5.175336466689997,1.433417960942363,2.9001193351579158,2.3486592844480167,5.077531921785289C3.26390060795367,7.2549445084126605,1.2941041941394933,3.5343138798194933,8.53619081856667,3.440034552420222C15.778277442993847,3.3457552250209504,32.232247105662374,6.877827198815575,30.216327844122997,3.6485643458862143C28.200408582583613,0.41930149295685304,7.7146003968363175,-9.571296186696493,-0.7967436831767225,-4.4262051326396765C-9.308087763189762,0.7188859214171401,-5.844967737468547,20.99966570918412,-6.916694867962022,15.640783824296214C-7.988421998455498,10.281901939408307,-13.594996285163663,-20.716641618134485,-12.577724841110234,-33.3800343520979C-11.5604533970568,-46.043427086061314,-3.9193362222417734,-40.37166899644536,-5.8793013003203995,-28.862113330849965C-7.839266378399026,-17.352557665254572,-19.400313709371307,-0.005204423679749937,-24.666798767905966,9.545982060739172C-29.933283826440626,19.097168545158095,-28.905206612537665,20.852188272421117,-23.75379616435692,16.141274459628924C-18.60238571617618,11.43036064683673,-9.327642033717657,0.2535132939893243,-1.5128272429481227,-5.058178415147493C6.301987547821412,-10.369870124284311,12.656873446901958,-9.81640618971054,9.070966527901886,-7.964092683140626C5.485059608901813,-6.111779176570711,-8.041640128178877,-2.960616098004653,-5.527510779566402,-4.47405965575118C-3.0133814309539293,-5.987503213497706,15.541577003351708,-12.165553407556818,18.217078510779565,-14.410284282304913C20.892580018207422,-16.65501515705301,7.6886245987574995,-14.966426712490094,6.826902519580633,-14.402341773742094C5.965180440403767,-13.838256834994098,17.445691701499957,-14.39867540206102,20.6198794421039,-11.981344110721357C23.794067182707845,-9.564012819381697,18.661931402819544,-4.168931669635453,16.095863512875393,-1.471391094762331L13.529795622931243,1.226149480110791" />
  </g>
</svg>
