<svg viewBox="0 0 300 300" preserveAspectRatio="xMidYMid" width="300" height="300"><filter id="ocmfs" width="300" height="500" x="-50%" y="-50%"><feFlood flood-color="#fc5a8d" result="element"></feFlood><feTurbulence baseFrequency="0.02" type="fractalNoise" numOctaves="8" seed="49" result="element_1"></feTurbulence><feGaussianBlur stdDeviation="4" in="SourceAlpha" result="element_2"></feGaussianBlur><feDisplacementMap scale="100" in="element_2" in2="element_1" result="element_3"></feDisplacementMap><feComposite operator="in" in="element" in2="element_3" result="element_4"></feComposite><feMerge><feMergeNode in="element_4"></feMergeNode></feMerge></filter><g transform="translate(150,150) scale(1.5)"><path d="M0,0L4.104652079591819,-5.126210783580238C8.209304159183638,-10.252421567160477,16.418608318367276,-20.504843134320954,16.944679477514896,-18.910615338475132C17.470750636662512,-17.316387542629315,10.313588795774109,-3.875510383777197,0.612850953673667,5.716913050578532C-9.087886888426775,15.309336484934262,-21.332200731739256,21.053306194793603,-21.815774093483846,14.691759955067107C-22.29934745522844,8.330213715340609,-11.022180335405142,-10.136848473971728,-6.03453203772878,-12.082407356367487C-1.0468837400524185,-14.027966238763247,-2.348754264522993,0.5479781857575716,1.6616175294456306,7.923391862744323C5.671989323414254,15.298805539731074,14.994603435822077,15.47368846918376,19.788826456863998,12.79529460269067C24.58304947790592,10.11690073619758,24.848881407581942,4.5852300737587175,25.85736808284431,2.312900638831746C26.865854758106675,0.04057120390477509,28.616996178955386,1.0275829964896963,26.337879923690963,0.14529229267760568C24.058763668426543,-0.7369984111344852,17.749389737048993,-3.488591611343588,18.19632624931728,-3.2690412023864885C18.643262761585568,-3.04949079342939,25.846509717499693,0.14120322469391144,30.203833115937083,-2.0315703685376754C34.561156514374474,-4.204343961769262,36.072556355335124,-11.740585166355737,32.052509074597225,-8.796404235667097C28.03246179385933,-5.852223304978458,18.48096739142288,7.572379760985296,3.306635743739184,13.214136607285475C-11.86769590394451,18.85589345358565,-32.66486479687545,16.71480408022225,-25.74752163572124,9.98790246159934C-18.830178474567035,3.2610008429764274,15.801676740672313,-8.051713020905998,23.294577366005484,-14.807596570177381C30.787477991338655,-21.563480119448766,11.141424026765652,-23.76253335410911,0.17341114707279148,-26.169847258905254C-10.794601732620068,-28.577161163701398,-13.08457352743278,-31.192735738633345,-16.38425521700084,-27.164439892694286C-19.683936906568903,-23.13614404675523,-23.993328490892313,-12.463977779945166,-20.08699018230834,-8.283940291019086C-16.18065187372437,-4.103902802093005,-4.058583672233012,-6.4159940910509095,1.0152054196944158,-5.972036221659354C6.088994511621843,-5.5280783522678,4.1145044939853435,-2.3280713245267854,7.422342483161414,-1.6259191467854646C10.730180472337487,-0.9237669690441435,19.32034646832613,-2.719469641302515,11.379477125789789,2.9348131079836177C3.438607783253449,8.58909585726975,-21.033296897807876,21.693364028100387,-27.060452470836214,25.12335655660955C-33.08760804386455,28.553349085118715,-20.6700145088599,22.309065971306406,-12.689394227100687,21.535537039061253C-4.708773945341474,20.762008106816097,-1.1651269168276985,25.459233356138093,8.373402661925576,30.004284239929877C17.91193224067885,34.54933512372166,33.44534436967162,38.942211641983235,35.01526827838693,42.966599395568636C36.58519218710223,46.99098714915404,24.191627875540064,50.64688613806327,9.823083865647702,46.363930762669085C-4.54546014424466,42.08097538727489,-20.88898385246722,29.859165647577264,-18.79658650374973,27.853940519067073C-16.704189155032235,25.848715390556883,3.824129250625308,34.06007487323412,10.365094464277052,31.15126989890592C16.906059677928795,28.242464924577718,9.45967169957474,14.213495493244078,9.920187743069558,6.5114662906321685C10.380703786564379,-1.1905629119797394,18.748123851908073,-2.5656518858699178,18.56280143563346,2.751577258088083C18.377479019358844,8.068806402046084,9.639414121465922,20.078353663852262,0.41821579027182665,15.466354006304151C-8.802982540922267,10.854354348756038,-18.507314305417534,-10.379192228146366,-18.695933783211167,-21.01850322304025C-18.884553261004804,-31.65781421793413,-9.557460452096807,-31.70288963081949,-7.5006112955861655,-19.765144392787107C-5.443762139075525,-7.827399154754724,-10.65715663496224,16.0931667341954,-10.775800145339721,25.97288045278072C-10.894443655717199,35.852594171366036,-5.9183361805854435,31.69145571958655,-5.568480186299855,15.539664963201417C-5.218624192014267,-0.612125793183715,-9.495019678574845,-28.754568854174494,-11.633217421855136,-42.82579038466989L-13.771415165135426,-56.89701191516528" style="filter: url(#ocmfs); stroke: rgb(252, 90, 141);"></path></g></svg>