<?xml version="1.0" encoding="UTF-8" standalone="no"?>
<svg
   xmlns:dc="http://purl.org/dc/elements/1.1/"
   xmlns:cc="http://creativecommons.org/ns#"
   xmlns:rdf="http://www.w3.org/1999/02/22-rdf-syntax-ns#"
   xmlns:svg="http://www.w3.org/2000/svg"
   xmlns="http://www.w3.org/2000/svg"
   version="1.1"
   id="svg2"
   height="300"
   width="300"
   preserveAspectRatio="xMidYMid"
   viewBox="0 0 300 300">
  <metadata
     id="metadata27">
    <rdf:RDF>
      <cc:Work
         rdf:about="">
        <dc:format>image/svg+xml</dc:format>
        <dc:type
           rdf:resource="http://purl.org/dc/dcmitype/StillImage" />
      </cc:Work>
    </rdf:RDF>
  </metadata>
  <defs
     id="defs25" />
  <filter
     y="-50%"
     x="-50%"
     height="500"
     width="300"
     id="hmlvs">
    <feFlood
       id="feFlood5"
       result="element"
       flood-color="#914e75" />
    <feTurbulence
       id="feTurbulence7"
       result="element_1"
       seed="51"
       numOctaves="8"
       type="fractalNoise"
       baseFrequency="0.02" />
    <feGaussianBlur
       id="feGaussianBlur9"
       result="element_2"
       in="SourceAlpha"
       stdDeviation="4" />
    <feDisplacementMap
       id="feDisplacementMap11"
       result="element_3"
       in2="element_1"
       in="element_2"
       scale="100" />
    <feComposite
       id="feComposite13"
       result="element_4"
       in2="element_3"
       in="element"
       operator="in" />
    <feMerge
       id="feMerge15">
      <feMergeNode
         id="feMergeNode17"
         in="element_4" />
    </feMerge>
  </filter>
  <g
     id="g19"
     transform="translate(150,150) scale(1.5)">
    <path
       id="path21"
       style="filter: url(#hmlvs); stroke: rgb(145, 78, 117);"
       d="M0,0L6.1110000119778665,-7.1630699375654C12.222000023955733,-14.3261398751308,24.444000047911466,-28.6522797502616,25.76639784584055,-22.049822474849748C27.088795643769636,-15.4473651994379,17.511591215672073,12.083689226516597,8.830682583228324,21.511489628233562C0.1497739507845699,30.939290029950527,-7.634838886005372,22.26383640742996,-6.583615417990987,15.745201097280098C-5.532391949976601,9.226565787130236,4.354667822842112,4.864748789351079,13.535878942775728,1.3118816631941916C22.717090062709342,-2.2409854629626964,31.19245252975786,-4.984902717497317,32.51582216313008,-2.0110136952021342C33.83919179650231,0.9628753270930481,28.010568596198244,9.654570626218032,13.79505254960714,18.514493236078337C-0.4204634969839631,27.374415845938643,-23.0228723898621,36.402565766534266,-20.450635897299655,29.485008014966C-17.87839940473721,22.56745026339774,9.868482473265829,-0.2958151603344117,20.803482496940116,-5.648264791489681C31.73848252061441,-11.00071442264495,25.861600689959957,1.1576517387766607,16.39218067558021,5.9438520564078265C6.922760661200465,10.730052374038992,-6.13919753690457,8.144086847879713,-9.260094093555427,10.511808054321296C-12.380990650206284,12.879529260762878,-5.560825565402961,20.200937199805324,1.703853219094479,19.399219131488202C8.96853200359192,18.59750106317108,16.67772448778348,9.672656987494396,18.424762616076414,13.73698623182323C20.171800744369353,17.801315476152066,15.956684516763668,34.85481804048643,12.164246778005406,38.62934138695566C8.371809039247147,42.40386473342489,5.00204978933631,32.89940886202899,0.3850759827112693,19.404562923291465C-4.231897823913772,5.909716984553937,-10.096086187253016,-11.575519021525228,-8.206939306846195,-11.397110264502267C-6.317792426439372,-11.218701507479306,3.3246896977135183,6.62335201264578,2.2263464851267543,11.18034111823931C1.1280032725399902,15.737330223832839,-10.711165276786428,7.009254914894812,-16.982300276130946,10.919812236542388C-23.253435275475464,14.830369558189965,-23.95653672483808,31.379559510423146,-19.91624287557242,28.806510548291524C-15.875949026306754,26.233461586159898,-7.092259878412808,4.5381737096634645,-4.029615456554778,-7.07538260744126C-0.9669710346967486,-18.688938924545987,-3.6253713388746363,-20.220763682259005,1.610236894356678,-12.341608008333123C6.845845127587992,-4.462452334407246,19.97546189822851,12.82768377115753,21.081457064729978,9.805359274110856C22.187452231231447,6.783034777064179,11.26982579359387,-16.551750322593946,4.856187602362472,-17.72339722058083C-1.5574505888689254,-18.89504411856771,-3.4671005336941434,2.096447185116647,-2.95437868252505,8.004522474765658C-2.4416568313559566,13.912597764414667,0.4934368158074487,4.737257040028327,0.17179796536241576,1.0897459775898029C-0.14984088508261717,-2.5577650848487212,-3.7282122331360883,-0.6774464853394301,3.6849808348526185,2.1463353678366857C11.098173902841326,4.970117221012802,29.502931386872213,8.737362327855742,23.918666556946068,6.646612904843245C18.334401727019923,4.555863481830748,-11.238885416863251,-3.392880471037186,-14.14610746502478,-9.085006683635747C-17.053329513186306,-14.777132896234308,6.705513534373818,-18.212641368563496,10.56644084598294,-21.28613407044618C14.427368157592063,-24.359626772328866,-1.609620266749813,-27.071103703765047,0.02814569095774022,-23.411830079484975C1.6659116486652934,-19.752556455204907,20.978431988422276,-9.72253227520858,17.58679205419086,-6.854627534082711C14.195152119959449,-3.986722792956843,-11.900648088260361,-8.280937490701431,-25.594599018766,-9.75352186160898C-39.28854994927164,-11.226106232516527,-40.580651602063114,-9.877060276587034,-30.023292993535886,-3.6835618062306743C-19.465934385008662,2.509936664125685,2.9408844848372606,13.54788764890891,5.725315102795678,14.774771051968605C8.509745720754093,16.0016544550283,-8.328211913174997,7.417470276364468,-16.200412570466156,-3.931063535997748C-24.072613227757316,-15.279597348359964,-22.97905690841055,-29.392480794420564,-22.432278748737165,-36.44892251745087L-21.88550058906378,-43.505364240481164" />
  </g>
</svg>
