<?xml version="1.0" encoding="UTF-8" standalone="no"?>
<svg
   xmlns:dc="http://purl.org/dc/elements/1.1/"
   xmlns:cc="http://creativecommons.org/ns#"
   xmlns:rdf="http://www.w3.org/1999/02/22-rdf-syntax-ns#"
   xmlns:svg="http://www.w3.org/2000/svg"
   xmlns="http://www.w3.org/2000/svg"
   version="1.1"
   id="svg2"
   height="300"
   width="300"
   preserveAspectRatio="xMidYMid"
   viewBox="0 0 300 300">
  <metadata
     id="metadata27">
    <rdf:RDF>
      <cc:Work
         rdf:about="">
        <dc:format>image/svg+xml</dc:format>
        <dc:type
           rdf:resource="http://purl.org/dc/dcmitype/StillImage" />
      </cc:Work>
    </rdf:RDF>
  </metadata>
  <defs
     id="defs25" />
  <filter
     y="-50%"
     x="-50%"
     height="500"
     width="300"
     id="nzddi">
    <feFlood
       id="feFlood5"
       result="element"
       flood-color="#ff404c" />
    <feTurbulence
       id="feTurbulence7"
       result="element_1"
       seed="70"
       numOctaves="8"
       type="fractalNoise"
       baseFrequency="0.02" />
    <feGaussianBlur
       id="feGaussianBlur9"
       result="element_2"
       in="SourceAlpha"
       stdDeviation="5" />
    <feDisplacementMap
       id="feDisplacementMap11"
       result="element_3"
       in2="element_1"
       in="element_2"
       scale="100" />
    <feComposite
       id="feComposite13"
       result="element_4"
       in2="element_3"
       in="element"
       operator="in" />
    <feMerge
       id="feMerge15">
      <feMergeNode
         id="feMergeNode17"
         in="element_4" />
    </feMerge>
  </filter>
  <g
     id="g19"
     transform="translate(150,150) scale(1.5)">
    <path
       id="path21"
       style="filter: url(#nzddi); stroke: rgb(255, 64, 76);"
       d="M0,0L8.277409527881968,-1.881038403020876C16.554819055763936,-3.762076806041752,33.10963811152787,-7.524153612083504,36.30760792995772,-7.097299649826975C39.50557774838756,-6.670445687570446,29.346698329483313,-2.0546609570156367,23.81557762320712,3.477610914628497C18.284456916930928,9.00988278627263,17.381094923282788,15.458641799006086,13.418546636321897,10.203817413780992C9.45599834936101,4.948993028555902,2.4342637690873743,-12.009414754627738,6.032543700964016,-19.76511853960644C9.63082363284066,-27.52082232458514,23.84911807686758,-26.0738221113589,17.331116774592203,-19.904331353758497C10.813115472316829,-13.73484059615809,-16.441181576260842,-2.8428592941835173,-19.89262139176271,1.450914196581478C-23.34406120726458,5.744687687346473,-2.9926437896906446,3.44025336690189,12.57621733287138,10.8989490227052C28.145078455433403,18.35764467850851,38.93138328298352,35.579470310559714,32.91349331194155,38.87730950054145C26.895603340899576,42.17514869052319,4.073518571265524,31.549001438435454,-4.6478116377244545,22.56662823030907C-13.369141846714433,13.584255022182687,-7.989717495060336,6.245655858017651,-10.674178555642161,-2.8917076193677227C-13.358639616223986,-12.029071096753096,-24.106986089041733,-22.965198887358806,-23.529562877685883,-22.880432672467208C-22.952139666330034,-22.79566645757561,-11.048946770800582,-11.690006237186704,-3.657334131480396,1.615187162362707C3.7342785078397913,14.92038056191212,6.614310890950715,30.42510714062204,2.479015611154139,35.05570417615758C-1.656279668642437,39.686301211693134,-12.806902611346512,33.4427687040543,-5.220563592304666,26.84588088578385C2.365775426737178,20.24899306751339,28.689076407524944,13.2987499386113,30.02527722397891,9.567733220912269C31.361478040432885,5.836716503213237,7.71057869255306,5.324926196717266,-2.844172711804143,7.343848491014613C-13.398924116161346,9.362770785311959,-10.85752757699593,13.912405680402625,-10.447672856017718,18.436077544047823C-10.037818135039506,22.95974940769302,-11.7595052322485,27.457458239892752,-16.180175898246894,31.67817975315894C-20.600846564245288,35.89890126642513,-27.720500799033076,39.842635460757776,-26.78353808803191,36.112765743793005C-25.846575377030746,32.382896026828234,-16.85299572024062,20.97942239856604,-11.780960202645812,11.333741102916449C-6.708924685051003,1.6880598072668596,-5.55843330665151,-6.199829155770129,-0.07483651593562612,-7.76611137824731C5.408760274780258,-9.332393600724492,15.225462477812535,-4.577069082641867,15.128508182578503,-7.975509182983668C15.031553887344472,-11.37394928332547,5.020943093844134,-22.926154002091696,-1.9119162082429764,-23.196800793697584C-8.844775510330088,-23.46744758530347,-12.69988332100397,-12.456536449749018,-8.58520086316471,-7.322829867613657C-4.47051840532545,-2.1891232854782956,7.613954321026952,-2.9326212567620265,9.44440607952615,-0.5210715738809673C11.274857838025346,1.890478109000092,2.851288628671339,7.457075446045941,6.712103683544507,5.9630028367522225C10.572918738417677,4.468930227458503,26.718118057518023,-4.085812328174784,29.312944401587465,-10.44006925332755C31.90777074565691,-16.79432617848032,20.952224114695454,-20.94809747315256,15.60575756226589,-17.78292594497888C10.259291009836327,-14.617754416805198,10.521904535938653,-4.133640065785588,9.369937289082012,-1.4135423184487097C8.217970042225371,1.306555428888169,5.651422022409763,-3.7373634274576837,-1.5959756141265733,-5.648025214417779C-8.84337325066291,-7.558687001377875,-20.771620503919976,-6.336091718952213,-13.923447804893332,-0.6113917197104062C-7.075275105866686,5.113308279531402,18.54931754544367,15.340112995589356,28.342225375936117,10.818941704159135C38.13513320642857,6.297770412728912,32.09635621610311,-12.971376886189486,24.31116788994145,-20.166850425404228C16.5259795637798,-27.362323964618977,6.994379901781948,-22.48412374413007,3.179851851868549,-20.25432448380039C-0.6346761980448505,-18.02452522347071,1.2678673641262015,-18.443126923300262,2.2191391452117273,-18.652427773215038L3.1704109262972535,-18.861728623129814" />
  </g>
</svg>
