<?xml version="1.0" encoding="UTF-8" standalone="no"?>
<svg
   xmlns:dc="http://purl.org/dc/elements/1.1/"
   xmlns:cc="http://creativecommons.org/ns#"
   xmlns:rdf="http://www.w3.org/1999/02/22-rdf-syntax-ns#"
   xmlns:svg="http://www.w3.org/2000/svg"
   xmlns="http://www.w3.org/2000/svg"
   version="1.1"
   id="svg2"
   height="300"
   width="300"
   preserveAspectRatio="xMidYMid"
   viewBox="0 0 300 300">
  <metadata
     id="metadata27">
    <rdf:RDF>
      <cc:Work
         rdf:about="">
        <dc:format>image/svg+xml</dc:format>
        <dc:type
           rdf:resource="http://purl.org/dc/dcmitype/StillImage" />
      </cc:Work>
    </rdf:RDF>
  </metadata>
  <defs
     id="defs25" />
  <filter
     y="-50%"
     x="-50%"
     height="500"
     width="300"
     id="sggxr">
    <feFlood
       id="feFlood5"
       result="element"
       flood-color="#ffcf48" />
    <feTurbulence
       id="feTurbulence7"
       result="element_1"
       seed="81"
       numOctaves="8"
       type="fractalNoise"
       baseFrequency="0.02" />
    <feGaussianBlur
       id="feGaussianBlur9"
       result="element_2"
       in="SourceAlpha"
       stdDeviation="4" />
    <feDisplacementMap
       id="feDisplacementMap11"
       result="element_3"
       in2="element_1"
       in="element_2"
       scale="100" />
    <feComposite
       id="feComposite13"
       result="element_4"
       in2="element_3"
       in="element"
       operator="in" />
    <feMerge
       id="feMerge15">
      <feMergeNode
         id="feMergeNode17"
         in="element_4" />
    </feMerge>
  </filter>
  <g
     id="g19"
     transform="translate(150,150) scale(1.5)">
    <path
       id="path21"
       style="filter: url(#sggxr); stroke: rgb(255, 207, 72);"
       d="M0,0L1.2084975344352653,4.332961075283942C2.4169950688705306,8.665922150567884,4.833990137741061,17.331844301135767,10.248461136435354,14.668759579967936C15.662932135129648,12.005674858800106,24.074879063647703,-1.9864167341034413,16.043837837564126,-10.56203131995151C8.012796611480542,-19.13764590579958,-16.461232769204674,-22.29678348459217,-24.38685428398893,-15.521783568183125C-32.312475798773185,-8.74678365177408,-23.689689447656477,7.962353759836599,-16.643692181039278,7.121543359419597C-9.597694914422084,6.280732959002595,-4.128486732304399,-12.110025253442089,3.7820325947135736,-7.560164813973252C11.692551921731546,-3.0103043745044147,22.04438239364981,24.480174716877944,22.000834640893284,34.70123378544458C21.957286888136757,44.92229285401121,11.518360910705445,37.87393189976213,6.973553043118169,28.18764557257577C2.4287451755308935,18.50135924538942,3.778055417787656,6.177147545265804,-5.1293306674588806,6.367765712999681C-14.036716752705416,6.558383880733558,-33.20079916545525,19.26383191632493,-35.135178267202214,18.717844674939155C-37.069557368949184,18.171857433553384,-21.774233159693274,4.374434915190471,-12.25957843369675,0.39045056730487104C-2.7449237077002246,-3.593533780580729,0.9890615350369223,2.2359200420109846,7.651702867600233,12.380329646940503C14.314344200163543,22.52473925187002,23.905641622553016,36.98410463913734,24.66407816154909,44.76882892973615C25.422514700545157,52.553553220334976,17.34809035614783,53.663636414265284,5.152743736010705,43.9886155203841C-7.042602884126415,34.313594626502926,-23.358871780003327,13.853469644810271,-21.615756949570304,7.899506294822922C-19.87264211913729,1.9455429448355739,-0.0701435623943425,10.497741226553536,3.0303194322184055,10.306028746484492C6.1307824268311535,10.114316266415447,-7.470790140686296,1.1786930245593972,-5.204672985745369,-7.962162730167026C-2.9385558308044413,-17.103018484893447,15.195251046594864,-26.449106752490245,17.411953191488184,-28.504614344787484C19.6286553363815,-30.560121937084723,5.928252748768831,-25.32504885408241,-2.3664186899406565,-16.01735045176653C-10.661090128650144,-6.70965204945065,-13.550030418456448,6.670671672178797,-12.193952202890124,18.855730151874013C-10.837873987323796,31.040788631569228,-5.2367772663848395,42.03058186933021,0.13277361772547636,31.010087181204938C5.502324501835791,19.98959249307967,10.640329549117466,-13.041190120931862,19.821155620690284,-17.896447162107233C29.001981692263104,-22.7517042032826,42.22562878812707,0.5685643283781889,39.89324164652525,6.548200279781319C37.560854504923434,12.527836231184446,19.67243312585583,1.1668396023299135,17.71908103349289,-11.416540996434708C15.765728941129954,-23.999921595199332,29.74744613547168,-37.80568616387404,23.035306440051183,-29.265525319247335C16.323166744630683,-20.72536447462062,-11.082829840552044,10.160721783307523,-18.6009383670643,16.45730062217032C-26.119046893576556,22.75387946103312,-13.749267361418337,4.460950880830573,-4.83534657836462,-1.0030855240614724C4.078574204689097,-6.467121928953518,9.536636238638316,0.8977338414649347,11.464404770726942,-2.5353939897781683C13.392173302815571,-5.968521821021271,11.789648333043608,-20.19963325392593,7.361406972872816,-22.479830104537186C2.933165612702024,-24.760026955148437,-4.320792137867596,-15.089309223466286,-2.6060954307934785,-2.0737114765730524C-0.8913987237193597,10.94188627032018,9.791952440998497,27.302364032424496,10.054859445028043,25.149255419251176C10.31776644905759,22.996146806077864,0.16022929239882444,2.329451817626918,1.1899680591412207,0.6971871522635382C2.219706825883617,-0.9350775130998414,14.436721516027175,16.467088144624345,14.02114471819553,19.65693688721752C13.605567920363887,22.8467856298107,0.5573996345570418,11.824317457272866,-12.433878413718435,-0.5954401876103228C-25.42515646199391,-13.015197832493511,-38.35954427273802,-26.832244949722053,-31.66842637920277,-35.566591797466145C-24.977308485667518,-44.30093864521023,1.3393151121470908,-47.95258522346986,14.497626911054395,-49.778408512599675L27.655938709961703,-51.6042318017295" />
  </g>
</svg>
