<?xml version="1.0" encoding="UTF-8" standalone="no"?>
<svg
   xmlns:dc="http://purl.org/dc/elements/1.1/"
   xmlns:cc="http://creativecommons.org/ns#"
   xmlns:rdf="http://www.w3.org/1999/02/22-rdf-syntax-ns#"
   xmlns:svg="http://www.w3.org/2000/svg"
   xmlns="http://www.w3.org/2000/svg"
   version="1.1"
   id="svg2"
   height="300"
   width="300"
   preserveAspectRatio="xMidYMid"
   viewBox="0 0 300 300">
  <metadata
     id="metadata27">
    <rdf:RDF>
      <cc:Work
         rdf:about="">
        <dc:format>image/svg+xml</dc:format>
        <dc:type
           rdf:resource="http://purl.org/dc/dcmitype/StillImage" />
      </cc:Work>
    </rdf:RDF>
  </metadata>
  <defs
     id="defs25" />
  <filter
     y="-50%"
     x="-50%"
     height="500"
     width="300"
     id="iztsb">
    <feFlood
       id="feFlood5"
       result="element"
       flood-color="#f2f27a" />
    <feTurbulence
       id="feTurbulence7"
       result="element_1"
       seed="6"
       numOctaves="8"
       type="fractalNoise"
       baseFrequency="0.02" />
    <feGaussianBlur
       id="feGaussianBlur9"
       result="element_2"
       in="SourceAlpha"
       stdDeviation="4" />
    <feDisplacementMap
       id="feDisplacementMap11"
       result="element_3"
       in2="element_1"
       in="element_2"
       scale="100" />
    <feComposite
       id="feComposite13"
       result="element_4"
       in2="element_3"
       in="element"
       operator="in" />
    <feMerge
       id="feMerge15">
      <feMergeNode
         id="feMergeNode17"
         in="element_4" />
    </feMerge>
  </filter>
  <g
     id="g19"
     transform="translate(150,150) scale(1.5)">
    <path
       id="path21"
       style="filter: url(#iztsb); stroke: rgb(242, 242, 122);"
       d="M0,0L4.420182768070221,-5.401667559546638C8.840365536140443,-10.803335119093276,17.680731072280885,-21.606670238186553,20.88771519018293,-23.7084585855757C24.094699308084973,-25.81024693296484,21.668302007748622,-19.210488508649853,22.357951397357752,-23.52735923019402C23.04760078696689,-27.844229951738185,26.853296866521507,-43.0777298191415,28.698556441884445,-38.70222114880459C30.54381601724738,-34.326712478467684,30.428639088418635,-10.342195270390548,22.685561879517525,-3.249763327236135C14.942484670616423,3.842668615918278,-0.4284928183570429,-5.956984705850031,-1.8320722148412387,-8.755613612231791C-3.2356516113254346,-11.554242518613549,9.328167084679638,-7.351847009608756,13.439979915159942,3.761061130284041C17.551792745640242,14.873969270176838,13.21159971059577,32.89739004095764,9.983059453515137,33.77158146369898C6.754519196434504,34.645772886440305,4.637631717317708,18.370734961142173,7.118793684286935,14.826201572456192C9.599955651256161,11.281668183770213,16.67916706431141,20.46763933169639,9.140463770376238,14.743676672226467C1.601760476441065,9.019714012756545,-20.554857524484532,-11.614182454109478,-22.645293847131455,-9.692976216756179C-24.73573016977838,-7.771769979402876,-6.759984814146633,16.70453896216975,1.41368085957431,21.50140436456513C9.587346533295253,26.298269766960505,7.958932525105393,11.415691630178637,1.9448249409396245,1.4121527710206934C-4.069282643226143,-8.59138608813725,-14.469083803367818,-13.71588566967127,-14.971270870355944,-19.246887570828772C-15.473457937344072,-24.777889471986274,-6.078030911178651,-30.71539369276726,-0.011268849166895967,-27.43495414192005C6.055493212844858,-24.154514591072836,8.793590310702948,-11.656131268597427,8.135970144964777,-7.269355439373363C7.478349979226606,-2.882579610149298,3.425012549892175,-6.607411274176579,3.3427769498195783,-13.636645030840707C3.2605413497469815,-20.665878787504838,7.14940757893622,-30.999514636805813,4.154396287094414,-26.50758459318584C1.1593849952526094,-22.015654549565873,-8.71950381762024,-2.698158613024958,-4.982807728303335,8.972682229805757C-1.2461116389864326,20.643523072636473,16.106169352520222,24.66770882175699,18.910288040436967,21.826715083244633C21.714406728353715,18.985721344732276,9.970363112680555,9.279548118587044,8.382572053368358,2.164398282394396C6.794780994056162,-4.950751553798252,15.363242491104929,-9.474878000038316,9.622154759632645,-5.496888168080186C3.881067028160361,-1.5188983361220556,-16.169569931832974,10.961207774034271,-22.571785244665868,16.19721843722548C-28.974000557498762,21.433229100416693,-21.727794223171212,19.425144316642786,-12.121824195253804,17.001088061755052C-2.5158541673363954,14.577031806867318,9.449879554170874,11.737004080865756,15.873536763498224,7.005836704305114C22.297193972825575,2.274669327744471,23.178774669973002,-4.347637699375251,19.732875745120687,-5.670520725622187C16.28697682026837,-6.993403751869121,8.513598273416312,-3.0168627772432712,1.9394103939995517,3.339660212692187C-4.6347774854172075,9.696183202627646,-10.009774697398665,18.43268820787271,-2.6261225290760155,13.157274221613521C4.757529639246634,7.881860235354335,24.89983118787339,-11.405472742409106,23.80667891672962,-22.255417346722844C22.713526645585855,-33.105361951036585,0.3849205546715613,-35.517918181900626,-9.843728128726195,-39.1053928117657C-20.072376812123952,-42.69286744163077,-18.201068088005172,-47.45526047049688,-11.57467471474504,-38.16994458646671C-4.948281341484908,-28.884628702436558,6.433196680916576,-5.551603905510124,5.190857493690621,2.9634047626209306C3.948518306464665,11.478413430751985,-9.91763809038873,5.17540597008766,-4.522885570790738,6.520517371139681C0.8718669488072557,7.865628772191702,25.527528384856637,16.85885903496007,34.522023106087076,16.437461515508488C43.516517827317514,16.016063996056907,36.849845833729006,6.180038694385379,29.19514471293551,-0.6157810032485873C21.54044359214201,-7.411600700882554,12.89771334414352,-11.167214794478959,8.576348220144276,-13.04502184127716L4.25498309614503,-14.922828888075362" />
  </g>
</svg>
