<svg viewBox="0 0 300 300" preserveAspectRatio="xMidYMid" width="300" height="300"><filter id="haeqn" width="300" height="500" x="-50%" y="-50%"><feFlood flood-color="#f1cc79" result="element"></feFlood><feTurbulence baseFrequency="0.02" type="fractalNoise" numOctaves="8" seed="64" result="element_1"></feTurbulence><feGaussianBlur stdDeviation="5" in="SourceAlpha" result="element_2"></feGaussianBlur><feDisplacementMap scale="100" in="element_2" in2="element_1" result="element_3"></feDisplacementMap><feComposite operator="in" in="element" in2="element_3" result="element_4"></feComposite><feMerge><feMergeNode in="element_4"></feMergeNode></feMerge></filter><g transform="translate(150,150) scale(1.5)"><path d="M0,0L0.8985425877075517,0.2638100406602579C1.7970851754151034,0.5276200813205159,3.5941703508302068,1.0552401626410317,-0.5724835938606514,1.358340917778273C-4.7391375385515095,1.6614416729155144,-14.869530603348329,1.7400231018694812,-21.196747938447004,-5.763798854945237C-27.523965273545674,-13.267620811759954,-30.048006878946197,-28.35384615434336,-33.092919972251806,-29.894473096088706C-36.13783306555741,-31.435100037834054,-39.703617646768095,-19.430128578741346,-39.57093825078725,-20.335130752429016C-39.438258854806406,-21.24013292611669,-35.60711548163404,-35.05510873258474,-29.239183480670366,-33.49820640862014C-22.871251479706693,-31.94130408465554,-13.966530850951726,-15.012523630258288,-4.653128396855147,-10.899381633453654C4.6602740572414305,-6.786239636649018,14.382358336679617,-15.488736097436998,19.18542024854954,-15.47553600902626C23.988482160419462,-15.462335920615521,23.872521704721123,-6.733439283006064,17.45543831522079,-3.40244668178175C11.03835492572046,-0.07145408055743685,-1.6798513975818592,-2.1383655157182693,0.4103561191498839,-1.1227738229133943C2.500563635881628,-0.1071821301085194,19.399184992647434,3.9909126906620624,30.78098211427381,12.361449129626411C42.16277923590019,20.73198556859076,48.02775212238714,33.374963625748876,44.24375607291719,30.425588444064342C40.45976002344725,27.476213262379805,27.026795038020403,8.934484841852626,14.523747351060715,5.0973256808116965C2.020699664101029,1.2601665197707677,-9.552430724391503,12.127576618216091,-11.343054104398373,17.12967206773258C-13.133677484405245,22.131767517249074,-5.1417938559264575,21.268548317836736,-5.829806982278372,15.582144637318452C-6.5178201086302865,9.895740956800168,-15.885729989812903,-0.6138472048240624,-16.846169728349782,-2.300889998239466C-17.80660946688666,-3.9879327916548686,-10.359579062777803,3.1475697831385547,1.253814238769504,5.085840511426198C12.867207540316809,7.024111239713842,28.646963739302564,3.7651501214957066,30.204537868489254,2.9212620758207706C31.762111997675948,2.077374030145835,19.097504057063578,3.648559057014099,15.83029331201986,9.393811925168547C12.563082566976142,15.139064793322996,18.693269017501077,25.05838550276363,21.145236399947635,25.77312155569519C23.597203782394192,26.487857608626754,22.37095209676238,17.99800900504924,16.36396984880439,17.780908066655325C10.356987600846406,17.56380712826141,-0.43072520943775405,25.619453855051088,-7.641073594821311,18.03394664279179C-14.851421980204869,10.448439430532488,-18.484405940687825,-12.778221720775788,-13.397513857220378,-20.67516825194195C-8.31062177375293,-28.572114783108113,5.496146353664921,-21.139346694132158,3.5143162508288253,-13.563430444836445C1.5324861479927279,-5.987514195540731,-16.237942185097317,1.7315502140747423,-13.678279215972655,3.8664863334250024C-11.11861624684799,6.001422452775262,11.771138024491378,2.552230281860308,11.985047422369739,5.7971469579297C12.198956820248101,9.042063633999092,-10.262978655334544,18.98108915705283,-14.339224815489656,24.169106499101797C-18.415470975644766,29.357123841150766,-4.106027820372344,29.79413300219497,-0.829130576427386,25.626786484519975C2.4477666675175724,21.45943996684498,-5.307881999864934,12.68773777045078,-7.381321028909956,7.536029841914953C-9.454760057954978,2.3843219133791242,-5.8459894486625155,0.8526082527016647,-11.041681921943342,6.482349173423109C-16.23737439522417,12.112090094144554,-30.237529951078283,24.9032855962649,-27.15575759308514,34.12238019161133C-24.073985235092007,43.34147478695776,-3.9102849632516143,48.98846847553027,9.604268305055317,42.67573121630906C23.11882157336225,36.36299395708786,29.984227838135723,18.09052575007293,29.973253478826404,15.21393197745144C29.962279119517078,12.337338204829948,23.074924136124963,24.85661886660189,17.556945954277264,23.115550289812568C12.038967772429569,21.374481713023243,7.890366392126293,5.373063897672651,3.928424194464911,-3.717683715682725C-0.03351800319647147,-12.8084313290381,-3.8088010182159615,-14.988508740398263,-5.696442525725706,-16.078547446078346L-7.5840840332354515,-17.168586151758426" style="filter: url(#haeqn); stroke: rgb(241, 204, 121);"></path></g></svg>