<?xml version="1.0" encoding="UTF-8" standalone="no"?>
<svg
   xmlns:dc="http://purl.org/dc/elements/1.1/"
   xmlns:cc="http://creativecommons.org/ns#"
   xmlns:rdf="http://www.w3.org/1999/02/22-rdf-syntax-ns#"
   xmlns:svg="http://www.w3.org/2000/svg"
   xmlns="http://www.w3.org/2000/svg"
   version="1.1"
   id="svg2"
   height="300"
   width="300"
   preserveAspectRatio="xMidYMid"
   viewBox="0 0 300 300">
  <metadata
     id="metadata27">
    <rdf:RDF>
      <cc:Work
         rdf:about="">
        <dc:format>image/svg+xml</dc:format>
        <dc:type
           rdf:resource="http://purl.org/dc/dcmitype/StillImage" />
      </cc:Work>
    </rdf:RDF>
  </metadata>
  <defs
     id="defs25" />
  <filter
     y="-50%"
     x="-50%"
     height="500"
     width="300"
     id="lonqv">
    <feFlood
       id="feFlood5"
       result="element"
       flood-color="#fd5e53" />
    <feTurbulence
       id="feTurbulence7"
       result="element_1"
       seed="36"
       numOctaves="8"
       type="fractalNoise"
       baseFrequency="0.02" />
    <feGaussianBlur
       id="feGaussianBlur9"
       result="element_2"
       in="SourceAlpha"
       stdDeviation="5" />
    <feDisplacementMap
       id="feDisplacementMap11"
       result="element_3"
       in2="element_1"
       in="element_2"
       scale="100" />
    <feComposite
       id="feComposite13"
       result="element_4"
       in2="element_3"
       in="element"
       operator="in" />
    <feMerge
       id="feMerge15">
      <feMergeNode
         id="feMergeNode17"
         in="element_4" />
    </feMerge>
  </filter>
  <g
     id="g19"
     transform="translate(150,150) scale(1.5)">
    <path
       id="path21"
       style="filter: url(#lonqv); stroke: rgb(253, 94, 83);"
       d="M0,0L3.7310901259222584,0.3197885027309462C7.462180251844517,0.6395770054618924,14.924360503689034,1.279154010923785,13.302933658963727,3.496693350370207C11.681506814238421,5.71423268981663,0.9764728729432921,9.509734363247583,0.8836276264003504,6.0826632675523715C0.7907823798574087,2.655592171857161,11.310125828066655,-7.994051692964213,16.1843723672935,-10.010340149226735C21.05861890652034,-12.02662860548926,20.28776853676478,-5.409561653192933,12.310489563202376,7.294967626047946C4.333210589639968,19.999496905288826,-10.850496987729285,38.791488511474256,-9.120965147279577,36.67336102903455C-7.391433306829866,34.55523354659485,11.251337951438806,11.526986975530015,20.371794109238802,1.0285354158818174C29.4922502670388,-9.46991614376638,29.090391324370117,-7.438572691997937,28.597938355133614,-2.805237286884209C28.10548538589711,1.8280981182295184,27.522438390092788,9.063425476688531,28.080011939296433,11.916119389466791C28.637585488500076,14.768813302245054,30.335779582711684,13.238873769342565,24.15446167884921,2.0606836773307773C17.97314377498673,-9.117506414681014,3.912313873050172,-29.943947065802103,-0.7795291592350456,-31.896758469914612C-5.471372191520263,-33.849569874027125,-0.794228354154138,-16.92875203113106,-3.619076813474888,-9.868444505815303C-6.443925272795639,-2.8081369804995426,-16.770766028803262,-5.608339772764087,-16.287464048598252,-5.50023168264722C-15.80416206839324,-5.392123592530353,-4.51071735197559,-2.375704620032074,0.014443753940640758,-3.027114462487365C4.539604859856871,-3.678524304942656,2.2964823552716824,-7.9977629623515165,2.0275184441542597,-12.390438618275994C1.758554533036837,-16.78311427420047,3.463749215387181,-21.249226928640567,-1.4148215498175127,-25.677108422208825C-6.293392315022206,-30.10498991577708,-17.755728527781937,-34.4946402484735,-21.688861376229987,-30.60145198188378C-25.621994224678037,-26.708263715294066,-22.025923708814407,-14.532236849418215,-8.584561322674165,1.3543349518469103C4.856801063466079,17.240906753112036,28.143455319882936,36.838023489766435,32.691301539761724,42.023754405653385C37.23914775964051,47.20948532154034,23.048185942981235,37.98383041665985,18.59393739891023,23.24518974991708C14.13968885483923,8.506549083174312,19.422153583356508,-11.745077345430733,21.6394772876806,-16.146303602982425C23.856800992004697,-20.547529860534116,23.00898367213561,-9.098355947032458,19.52951223820137,-5.817494656086488C16.050040804267134,-2.536633365140518,9.938915256267746,-7.4240846967502385,3.1264264947234564,-10.796977420410014C-3.6860622668208336,-14.16987014406979,-11.199914241910026,-16.02820425977962,-18.419397164116354,-14.222084512971943C-25.638880086322686,-12.415964766164267,-32.563993955646154,-6.945391156839084,-31.630999507009413,-0.7486343103412065C-30.698005058372676,5.448122536156672,-21.906902291775733,12.371062619827244,-18.83207623191765,18.734161857433236C-15.757250172059566,25.097261095039222,-18.39870081894034,30.90051948658063,-21.625128586087442,27.491515181727312C-24.851556353234546,24.08251087687399,-28.662961240647974,11.461243875625941,-30.830861590201273,10.757975399297536C-32.99876193975457,10.05470692296913,-33.52315775144775,21.269436971560367,-37.08173057629952,21.868503110211687C-40.640303401151286,22.467569248863008,-47.23305323916164,12.450971477574413,-43.84844801487702,8.145329239740876C-40.46384279059239,3.8396870019073415,-27.101882504012774,5.245000297528868,-16.44189034759588,4.771669361989786C-5.781898191178984,4.298338426450703,2.176125835075193,1.9463632597510128,0.4518600392958181,2.0695832771719305C-1.2724057564835567,2.1928032945928475,-12.678961374296483,4.791218496134373,-13.51947551904803,2.8549524541197804C-14.359989663799578,0.9186864121051874,-4.634462335489747,-5.552260873465524,-5.056712530929676,-10.156970089265142C-5.4789627263696055,-14.76167930506476,-16.048990445559294,-17.500150451093283,-13.363075193520427,-15.892051168244077C-10.67715994148156,-14.28395188539487,5.264698281785861,-8.329282173667934,13.235627393419573,-5.3519473178044645L21.206556505053285,-2.3746124619409965" />
  </g>
</svg>
