<svg viewBox="0 0 300 300" preserveAspectRatio="xMidYMid" width="300" height="300"><filter id="hmfbf" width="300" height="500" x="-50%" y="-50%"><feFlood flood-color="#a83731" result="element"></feFlood><feTurbulence baseFrequency="0.02" type="fractalNoise" numOctaves="8" seed="18" result="element_1"></feTurbulence><feGaussianBlur stdDeviation="4" in="SourceAlpha" result="element_2"></feGaussianBlur><feDisplacementMap scale="100" in="element_2" in2="element_1" result="element_3"></feDisplacementMap><feComposite operator="in" in="element" in2="element_3" result="element_4"></feComposite><feMerge><feMergeNode in="element_4"></feMergeNode></feMerge></filter><g transform="translate(150,150) scale(1.5)"><path d="M0,0L1.1333611938062682,-0.11658254580298169C2.2667223876125364,-0.23316509160596338,4.533444775225073,-0.46633018321192676,2.4680441955253976,0.8782775969722404C0.4026436158257223,2.2228853771564077,-5.994879931186165,5.145266029130705,-15.504456337718851,6.245427518942556C-25.014032744251537,7.3455890087544065,-37.635662010305026,6.6235313364038095,-35.65753652348828,-3.6538238754219377C-33.67941103667154,-13.931179087247685,-17.101530796984566,-33.76383183854858,-9.727987242933432,-34.88636479294895C-2.3544436888823,-36.00889774734932,-4.185236820467007,-18.42131090484917,-2.0107076967573922,-14.93234650155577C0.16382142695222335,-11.44338209826237,6.343672805956161,-22.053040134175724,13.650887049235067,-29.720382134299086C20.958101292513973,-37.38772413442245,29.392678400067847,-42.11275009875582,24.302331056055404,-33.20916795330825C19.21198371204296,-24.305585807860687,0.5967119164641996,-1.7733955526321878,-6.092568734139414,6.405560291590998C-12.781849384743028,14.584516135814184,-7.545138890371495,8.410237569032056,-4.403786066799044,6.042099994742011C-1.2624332432265915,3.673962420451967,-0.21643809045322004,5.111965838654009,-8.937313147135054,2.93492878132911C-17.658188203816888,0.7578917240042116,-36.145933469953924,-5.034185808847627,-42.358953165514244,-10.699292202209786C-48.57197286107455,-16.36439859557195,-42.51026698605814,-21.90253384944443,-35.98584611396965,-21.19871218284469C-29.46142524188116,-20.494890516244954,-22.474289372720595,-13.549111929172994,-13.364212634721504,-12.225211207522364C-4.25413589672241,-10.901310485871733,6.97888171011521,-15.199287629642429,10.870019109436114,-15.558669135744164C14.76115650875702,-15.918050641845896,11.310413700561211,-12.338836510278668,4.606774952810815,-5.935330415006567C-2.09686379493958,0.46817568026553236,-12.053398482244562,9.695973739242502,-11.704084906185019,6.346305033426644C-11.354771330125477,2.996636327610787,-0.6996094907014072,-12.930499142997897,5.017136547138408,-16.041252184025506C10.733882584978225,-19.152005225053117,11.512212821233788,-9.446375836499652,18.32555811977872,-3.5842573794177945C25.13890341832365,2.277861077664063,37.987263779157956,4.296468603274311,37.35880704785269,6.2886221970092535C36.73035031654743,8.280775790744196,22.625076493102597,10.246475452603832,9.121967817516651,7.079365636702746C-4.381140858069294,3.9122558208016596,-17.282084385796356,-4.387663472860147,-14.685425443225352,-3.061736605123383C-12.08876650065435,-1.735809737386619,6.0054949122147185,9.215963291748716,16.289899774013687,12.002193847496928C26.574304635812656,14.788424403245138,29.048852946541523,9.409112485606224,19.05763960303688,5.94474903925801C9.066426259532236,2.480385592909795,-13.390548738205922,0.9309706178522787,-20.483658337472722,-4.687840892783838C-27.57676793673952,-10.306652403419957,-19.306012137534964,-19.994860449634675,-13.615970017526507,-28.844068797341848C-7.925927897518051,-37.693277145049024,-4.816599456705695,-45.70348579424865,-11.341507819691794,-46.289534625201014C-17.866416182677895,-46.87558345615338,-34.02556134946245,-40.037472468858475,-33.28162256743841,-31.120765980148185C-32.53768378541438,-22.204059491437896,-14.890661054581754,-11.208757501312219,-6.870727306393558,2.4140764345365104C1.1492064417946382,16.03691037038524,-0.45794879266159383,32.28727625195702,-8.763159716415853,26.255567074508175C-17.06837064017011,20.223857897059325,-32.07163725322239,-8.089926339410148,-24.6179193686543,-24.16588776433857C-17.164201484086206,-40.24184918926699,12.74650089810227,-44.07998780265437,21.61172033464509,-34.085496512634165C30.476939771187908,-24.091005222613965,18.296676262085075,-0.26388402918618503,14.414249064917426,0.8447571403453749C10.531821867749779,1.9533983098769347,14.947230982517317,-19.656440544487722,11.681455586542231,-24.738613425410527C8.415680190567144,-29.82078630633333,-2.531279716150565,-18.375293213814274,-10.562817087352624,-14.670350685850883C-18.59435445855468,-10.965408157887492,-23.710469294241083,-15.00101619447976,-26.268526712084284,-17.018820212775893L-28.82658412992749,-19.03662423107203" style="filter: url(#hmfbf); stroke: rgb(168, 55, 49);"></path></g></svg>