<svg viewBox="0 0 300 300" preserveAspectRatio="xMidYMid" width="300" height="300"><filter id="sjrwu" width="300" height="500" x="-50%" y="-50%"><feFlood flood-color="#faa76c" result="element"></feFlood><feTurbulence baseFrequency="0.02" type="fractalNoise" numOctaves="8" seed="58" result="element_1"></feTurbulence><feGaussianBlur stdDeviation="5" in="SourceAlpha" result="element_2"></feGaussianBlur><feDisplacementMap scale="100" in="element_2" in2="element_1" result="element_3"></feDisplacementMap><feComposite operator="in" in="element" in2="element_3" result="element_4"></feComposite><feMerge><feMergeNode in="element_4"></feMergeNode></feMerge></filter><g transform="translate(150,150) scale(1.5)"><path d="M0,0L0.9756862618507683,3.586785595207747C1.9513725237015367,7.173571190415494,3.9027450474030734,14.347142380830988,4.8484350721790275,8.380704735976742C5.794125096954982,2.414267091122495,5.734132622805354,-16.692179389001492,6.755158502337627,-25.38998186798681C7.7761843818699,-34.08778434697213,9.878228615084074,-32.37694282481878,0.7411524879300995,-26.32070653319685C-8.395923639223875,-20.264470241574934,-28.772120126746,-9.86283918048444,-37.97406827140612,-8.834626959287522C-47.17601641606624,-7.806414738090602,-45.203716217864354,-16.151621356787256,-39.460300297481915,-17.236561168629844C-33.716884377099476,-18.32150098047244,-24.202352734536476,-12.146173985460969,-17.063236880669564,-4.265452037152676C-9.92412102680265,3.615269911155619,-5.160420961631823,13.20138681276074,1.5340848455544522,9.983693072762598C8.228590652740728,6.76599933276446,16.853902201942454,-9.25550504883694,19.3317323278167,-20.41867203041597C21.809562453690944,-31.581839011994994,18.139911156237716,-37.88666859355165,13.896026894466134,-29.966188769065795C9.652142632694558,-22.045708944579935,4.834025406604632,0.10008028594843488,8.535065534854398,12.290491581213036C12.236105663104166,24.480902876477636,24.45630314569362,26.71593623647847,31.016981053169154,27.991487813303195C37.57765896064468,29.267039390127923,38.47881729300629,29.583109183776543,32.10532021928342,26.62801488943963C25.73182314556055,23.67292059510272,12.08367066575321,17.446662212780275,8.266109626373678,12.30496651477061C4.448548586994146,7.163270816760943,10.461578988042422,3.106137803064052,2.035094620129465,3.4789494234596345C-6.391389747783492,3.851761043855216,-29.257388884657683,8.654517298343272,-37.80975492714216,15.629895465236526C-46.36212096962663,22.60527363212978,-40.600853917721395,31.753273711428236,-36.31867437396674,23.11437653452395C-32.03649483021209,14.475479357619658,-29.233402794608033,-11.95031507548737,-19.877606828208105,-14.20661102275625C-10.521810861808179,-16.462906970025127,5.386689035387613,5.450295568544146,9.65558800898892,12.583130790166418C13.924486982590226,19.71596601178869,6.553785032597045,12.06843391646396,5.437261342612844,9.44825911975932C4.320737652628644,6.82808432305468,9.458392222653424,9.235266824970129,9.509024981950406,11.367892878704296C9.559657741247388,13.500518932438462,4.523268689816574,15.358588537991345,3.9646982270832636,15.426048208875372C3.406127764349953,15.493507879759397,7.325375890314146,13.770357615974564,7.611102057497206,4.104290597792518C7.896828224680266,-5.561776420389528,4.549032433082193,-23.170760192968785,6.294391161731031,-24.708134300029343C8.03974989037987,-26.2455084070899,14.878263139275619,-11.711272848631754,13.72160071805946,-7.081459658117974C12.564938296843302,-2.4516464676041934,3.413100205515234,-7.7262556450347795,-0.7634212742075037,-11.76925916771986C-4.939942753930241,-15.812262690404937,-4.141147622047651,-18.62366055834451,1.8830575485563439,-19.697237494548965C7.907262719160339,-20.770814430753422,19.156877928485738,-20.106570435222764,19.191260827526065,-25.1581625853884C19.225643726566393,-30.209754735554036,8.044794315321653,-40.97718303141597,5.464382279921807,-39.97582117913862C2.883970244521963,-38.97445932686127,8.903995584967015,-26.20430732644464,8.986939889258839,-19.140489459091363C9.069884193550662,-12.076671591738087,3.215747461689257,-10.719187857448166,3.277498234143403,-10.773485388862047C3.339249006597549,-10.827782920275931,9.316887283367246,-12.293861717393618,11.451520739364272,-6.636351098447767C13.586154195361296,-0.9788404795019154,11.877782830585646,11.802259555507472,8.970223312816426,12.357037382287427C6.0626637950472055,12.911815209067383,1.9559161242844127,1.2402708276179046,-3.1407068966709737,-2.8711364940994675C-8.23732991762636,-6.98254381581684,-14.32382828877434,-3.5338140778021065,-4.621619902672304,0.5405505134130526C5.080588483429732,4.614915104628212,30.571503626781784,9.314914549043795,43.31696119845782,11.664914271251588L56.062418770133846,14.01491399345938" style="filter: url(#sjrwu); stroke: rgb(250, 167, 108);"></path></g></svg>