<svg viewBox="0 0 300 300" preserveAspectRatio="xMidYMid" width="300" height="300"><filter id="mucdm" width="300" height="500" x="-50%" y="-50%"><feFlood flood-color="#18a7b5" result="element"></feFlood><feTurbulence baseFrequency="0.02" type="fractalNoise" numOctaves="8" seed="79" result="element_1"></feTurbulence><feGaussianBlur stdDeviation="4" in="SourceAlpha" result="element_2"></feGaussianBlur><feDisplacementMap scale="100" in="element_2" in2="element_1" result="element_3"></feDisplacementMap><feComposite operator="in" in="element" in2="element_3" result="element_4"></feComposite><feMerge><feMergeNode in="element_4"></feMergeNode></feMerge></filter><g transform="translate(150,150) scale(1.5)"><path d="M0,0L1.9337610279685529,5.123212014202876C3.8675220559371057,10.246424028405752,7.7350441118742115,20.492848056811503,6.461837583642136,28.24081513931937C5.18863105541006,35.988782221827236,-1.2253040569911988,41.23829235843722,-2.487849957406675,35.448347364191676C-3.7503958578221512,29.658402369946135,0.13844745374815437,12.829002244845068,0.36752875056015566,5.079408434105028C0.596610047372157,-2.6701853766350108,-2.834070670574146,-1.3399728730140206,-1.5044054601503536,-2.017927173078516C-0.1747402497265611,-2.695881473143012,5.915270889067327,-5.382002576892993,3.3426005620081454,-5.662368463097916C0.7699302349489647,-5.942734349302841,-10.465421557963285,-3.8173450179627073,-6.795964283552712,-2.963015333280846C-3.126507009142136,-2.1086856485989847,15.447759332591264,-2.5254156105753958,20.462502959774692,-1.0382682818467242C25.477246586958124,0.44887904688194746,16.932467499591585,3.839903666315702,10.750009272292669,4.857190981505454C4.567551044993752,5.874478296695207,0.7474136777624576,4.518028307640959,1.5196925059512933,-3.1704841760883835C2.291971334140129,-10.858996659817727,7.656666357749095,-24.879571638222163,6.4426792557128145,-31.580807180114686C5.228692153676533,-38.28204272200721,-2.5639770740049936,-37.663938827387824,-4.923554648602255,-34.433477875984735C-7.283132223199516,-31.20301692458164,-4.20961814471251,-25.360198916394847,-4.073025231869284,-25.776282942027066C-3.9364323190260584,-26.19236696765929,-6.736760571826611,-32.867353027110525,-9.712878314249723,-29.634097148596666C-12.688996056672835,-26.400841270082807,-15.840903288718502,-13.259343453603849,-13.05700147073679,-2.009270346843917C-10.273099652755075,9.240802759916013,-1.5533887847459802,18.599451156956917,-3.6224968241809767,23.20359456879697C-5.691604863615973,27.80773798063702,-18.54953181049506,27.65737640727622,-24.350902537967684,28.421555591548586C-30.15227326544031,29.185734775820954,-28.89708777350647,30.86445471772649,-25.31006422275566,26.095923132657145C-21.723040672004853,21.3273915475878,-15.804179062437072,10.111608435543577,-10.6069342934725,3.035341665994355C-5.409689524507926,-4.0409251035548674,-0.9340615961465581,-6.9776755306090905,2.7318730888585048,-6.75948689291846C6.397807773863567,-6.541298255227829,9.254049215512325,-3.168170552792346,9.703645238677902,-5.471869644458243C10.15324126184348,-7.775568736124141,8.19619186652588,-15.75609462189142,15.414282173628814,-10.873603957840427C22.63237248073175,-5.991113293789436,39.025602490255224,11.754393920079826,36.94443701614748,14.075165854612532C34.86327154203974,16.395937789145236,14.30771058430078,3.291974444341383,5.6922440163540955,-5.721579519152021C-2.9232225515925885,-14.735133482645425,0.40140527025300177,-19.65827806482838,6.470032002641059,-17.801317966814953C12.538658735029115,-15.944357868801527,21.351284377959637,-7.307293090591717,16.64422444963438,2.839084176978568C11.937164521309121,12.985461444548854,-6.289580978271918,24.641151201479612,-12.031167657490187,15.556096830969242C-17.772754336708456,6.471042460458868,-11.029182195563953,-23.35475603749264,-2.398999288323189,-29.477980173015833C6.231183618917575,-35.60120430853903,16.7479772922546,-18.021854081633926,15.242233174321122,-7.746811825806816C13.73648905638764,2.5282304300202942,0.20820714718365352,5.498964714769404,-10.140076032688516,9.84538220695389C-20.488359212560685,14.191799699138375,-27.656643663101036,19.913900398758237,-23.601822288393524,12.903723404099964C-19.547000913686016,5.89354640944169,-4.269073713730643,-13.848908279494719,-3.993045859069853,-16.999611991508207C-3.717018004409063,-20.15031570352169,-18.442889495042856,-6.709268438612256,-20.22873908303381,-4.065300646517263C-22.01458867102476,-1.421332854422272,-10.860416356372879,-9.574444535141724,-4.861015778455063,-15.302298816770593C1.138384799462751,-21.03015309839946,1.9830136406464953,-24.332749980937745,4.513842832219901,-23.498384184615222C7.044672023793307,-22.664018388292696,11.261701565756375,-17.692689913109366,13.370216336737908,-15.207025675517698L15.478731107719444,-12.721361437926033" style="filter: url(#mucdm); stroke: rgb(24, 167, 181);"></path></g></svg>