<?xml version="1.0" encoding="UTF-8" standalone="no"?>
<svg
   xmlns:dc="http://purl.org/dc/elements/1.1/"
   xmlns:cc="http://creativecommons.org/ns#"
   xmlns:rdf="http://www.w3.org/1999/02/22-rdf-syntax-ns#"
   xmlns:svg="http://www.w3.org/2000/svg"
   xmlns="http://www.w3.org/2000/svg"
   version="1.1"
   id="svg2"
   height="300"
   width="300"
   preserveAspectRatio="xMidYMid"
   viewBox="0 0 300 300">
  <metadata
     id="metadata27">
    <rdf:RDF>
      <cc:Work
         rdf:about="">
        <dc:format>image/svg+xml</dc:format>
        <dc:type
           rdf:resource="http://purl.org/dc/dcmitype/StillImage" />
      </cc:Work>
    </rdf:RDF>
  </metadata>
  <defs
     id="defs25" />
  <filter
     y="-50%"
     x="-50%"
     height="500"
     width="300"
     id="zrzua">
    <feFlood
       id="feFlood5"
       result="element"
       flood-color="#fc89ac" />
    <feTurbulence
       id="feTurbulence7"
       result="element_1"
       seed="46"
       numOctaves="8"
       type="fractalNoise"
       baseFrequency="0.02" />
    <feGaussianBlur
       id="feGaussianBlur9"
       result="element_2"
       in="SourceAlpha"
       stdDeviation="4" />
    <feDisplacementMap
       id="feDisplacementMap11"
       result="element_3"
       in2="element_1"
       in="element_2"
       scale="100" />
    <feComposite
       id="feComposite13"
       result="element_4"
       in2="element_3"
       in="element"
       operator="in" />
    <feMerge
       id="feMerge15">
      <feMergeNode
         id="feMergeNode17"
         in="element_4" />
    </feMerge>
  </filter>
  <g
     id="g19"
     transform="translate(150,150) scale(1.5)">
    <path
       id="path21"
       style="filter: url(#zrzua); stroke: rgb(252, 137, 172);"
       d="M0,0L5.803772564603823,-2.673976350930968C11.607545129207645,-5.347952701861936,23.21509025841529,-10.695905403723872,13.765263005635271,-8.185089404190197C4.315435752855251,-5.674273404656525,-26.191763881912436,4.695311296272759,-31.34718421671454,3.4240669612264805C-36.50260455151664,2.1528226261802015,-16.306245586353164,-10.759250744841639,-0.5657132908634308,-15.796421864603037C15.1748190046263,-20.83359298436443,26.45952463044229,-17.99586185286538,27.197567178815195,-15.25505928120135C27.9356097271881,-12.514256709537312,18.126989198117933,-9.87038269770829,14.040937145840315,-10.38882033182064C9.954885093562702,-10.907257965932988,11.591401518077642,-14.588007245986708,12.374926873732228,-12.976790813775333C13.158452229386814,-11.365574381563958,13.088986516181045,-4.462392237087487,13.554247492182043,0.5833660641409604C14.01950846818304,5.629124365369407,15.019496133390806,8.81745882334983,14.986688688444636,8.526249519010362C14.953881243498463,8.235040214670894,13.888278688398355,4.464287148011535,5.171014173648299,-1.284511460792853C-3.546250341101757,-7.033310069597241,-19.915176815501763,-14.760154220546658,-15.400378874417175,-21.51985827145078C-10.885580933332589,-28.2795623223549,14.51294142323659,-34.07212627321372,25.881547636241606,-34.81996078452232C37.250153849246615,-35.56779529583093,34.588843918687466,-31.270900367589334,25.277118859837707,-16.618687625482522C15.965393800987945,-1.9664748833757066,0.0032536138475727228,23.041055672596322,-2.881835590647563,24.07407052125306C-5.766924795142699,25.107085369909797,4.425036983007402,2.165584511251243,4.8656434213993585,-4.999170347040002C5.306249859791315,-12.163925205331248,-4.004499041574873,-3.5519340632551852,-5.482210205742019,1.6008000149678154C-6.959921369909165,6.753534093190816,-0.6045947968772682,8.447011107560755,2.236854473853753,11.845044873783074C5.078303744584773,15.243078640005395,4.405875713014918,20.345669158080096,7.637052965072977,23.96921687960699C10.868230217131035,27.592764601133883,18.00301275281701,29.737269526112968,12.128851357788959,23.941554668520194C6.25468996276091,18.145839810927423,-12.628415362981162,4.4099051707627925,-18.012504290569943,-1.0913777715894977C-23.39659321815872,-6.592660713941788,-15.281665747594209,-3.8592919584817382,-12.237027714775632,-2.5994436900454247C-9.192389681957053,-1.3395954216091122,-11.218041086884408,-1.5532676401965362,-10.167407342782273,-3.4325796922087792C-9.116773598680137,-5.311891744221022,-4.989854705548507,-8.856843629658085,-10.101894693513731,-8.923325187048743C-15.213934681478957,-8.9898067444394,-29.564933550541035,-5.577817973783655,-31.237734567496737,-4.672746414097931C-32.91053558445244,-3.7676748544122063,-21.90513874930177,-5.369520505696504,-12.60434007575913,-3.761961709434449C-3.303541402216486,-2.1544029131723947,4.292659109718129,2.662560330636011,11.968713184257776,3.5114283457436635C19.644767258797426,4.360296360851316,27.400674895942107,1.2410691472582145,28.197013413714345,1.8472841842087462C28.99335193148658,2.453499221159278,22.830121329886374,6.785156508653443,18.367740615011453,6.944620457981586C13.905359900136537,7.104084407309729,11.14382907198691,3.0913550184718517,13.99141757902559,-5.193726944487692C16.839006086064273,-13.478808907447236,25.295713928291264,-26.036243444528445,26.841772020194888,-22.136665161502354C28.387830112098513,-18.237086878476255,23.023238453678776,2.1195042246571436,13.587985013677404,11.076516954112275C4.152731573676029,20.03352968356741,-9.353183647906981,17.59096403934427,-9.343304274319735,16.61720188636103C-9.33342490073249,15.643439733377791,4.192249068025008,16.138481071634452,5.829105303646669,12.987369194645877C7.465961539268328,9.836257317657308,-2.785999958245851,3.038992225423507,-0.6155793355624875,-5.415474542705711C1.554841287120876,-13.869941310834928,16.147644030001782,-23.981609754859566,13.858907392539333,-18.400845229820312C11.570170755076887,-12.820080704781066,-7.600105262728913,8.453116789322067,-17.185243271631812,19.08971553637363L-26.770381280534714,29.726314283425204" />
  </g>
</svg>
