<?xml version="1.0" encoding="UTF-8" standalone="no"?>
<svg
   xmlns:dc="http://purl.org/dc/elements/1.1/"
   xmlns:cc="http://creativecommons.org/ns#"
   xmlns:rdf="http://www.w3.org/1999/02/22-rdf-syntax-ns#"
   xmlns:svg="http://www.w3.org/2000/svg"
   xmlns="http://www.w3.org/2000/svg"
   version="1.1"
   id="svg2"
   height="300"
   width="300"
   preserveAspectRatio="xMidYMid"
   viewBox="0 0 300 300">
  <metadata
     id="metadata27">
    <rdf:RDF>
      <cc:Work
         rdf:about="">
        <dc:format>image/svg+xml</dc:format>
        <dc:type
           rdf:resource="http://purl.org/dc/dcmitype/StillImage" />
      </cc:Work>
    </rdf:RDF>
  </metadata>
  <defs
     id="defs25" />
  <filter
     y="-50%"
     x="-50%"
     height="500"
     width="300"
     id="jxlid">
    <feFlood
       id="feFlood5"
       result="element"
       flood-color="#B56917" />
    <feTurbulence
       id="feTurbulence7"
       result="element_1"
       seed="95"
       numOctaves="8"
       type="fractalNoise"
       baseFrequency="0.02" />
    <feGaussianBlur
       id="feGaussianBlur9"
       result="element_2"
       in="SourceAlpha"
       stdDeviation="5" />
    <feDisplacementMap
       id="feDisplacementMap11"
       result="element_3"
       in2="element_1"
       in="element_2"
       scale="100" />
    <feComposite
       id="feComposite13"
       result="element_4"
       in2="element_3"
       in="element"
       operator="in" />
    <feMerge
       id="feMerge15">
      <feMergeNode
         id="feMergeNode17"
         in="element_4" />
    </feMerge>
  </filter>
  <g
     id="g19"
     transform="translate(150,150) scale(1.5)">
    <path
       id="path21"
       style="filter: url(#jxlid); stroke: rgb(181, 105, 23);"
       d="M0,0L0.1739696412982314,5.1691398524793986C0.3479392825964628,10.338279704958797,0.6958785651929256,20.676559409917594,0.865299515144478,29.560262613407396C1.0347204650960307,38.443965816897204,1.0256230824026726,45.873092518918014,0.5383036049648785,41.1698964088653C0.050984127527084144,36.4667002988126,-0.9145574446551467,19.631181376686367,-0.9666503985013284,6.701068618180379C-1.01874335234751,-6.229044140325609,-0.15738768785764273,-15.253750735211359,1.6639337665181182,-14.473225696019968C3.485255220893879,-13.692700656828578,6.266542465155533,-3.1069439835600487,1.0675541803309025,2.026058412277781C-4.131434104493729,7.159060808115611,-17.310697918404646,6.839308926522741,-19.136455008855137,13.496567032494411C-20.962212099305624,20.153825138466082,-11.434462466295688,33.78809323200229,-5.124098424380315,37.44714754742863C1.1862656175350577,41.10620186285496,4.279244068355865,34.790042400171416,5.712723957110019,26.892565994842602C7.146203845864173,18.995089589513785,6.9201851725516725,9.516296241539695,6.56057269799499,3.7471303450649973C6.200960223438309,-2.022035551409701,5.707753947637447,-4.081573996385005,3.1175961481264585,-4.051922875864905C0.5274383486154695,-4.022271755344805,-4.159670974605646,-1.9034310693293008,-14.544598490758052,1.6548330418326018C-24.929526006910457,5.2130971529945045,-41.01227171599415,10.210784689302805,-40.131415927157065,9.58086872761175C-39.250560138319976,8.95095276592069,-21.406102851562103,2.6934333062302738,-13.337167472597248,3.3487984782337663C-5.268232093632388,4.004163650237259,-6.974818622460544,11.57241345393466,-6.212219252546657,12.460118972710237C-5.449619882632767,13.347824491485813,-2.2178346139768346,7.5549857253395665,5.896147589434429,3.530720410276635C14.010129792845694,-0.4935449047862954,27.00630893101229,-2.7492367687659094,24.840254847829712,-1.5062136220611673C22.67420076464713,-0.2631904753564256,5.345913460115375,4.478547682032672,3.5255816645554283,8.258619815418971C1.705249868995482,12.038691948805269,15.392873582407343,14.857098058188768,19.292745573520634,17.29426987366952C23.192617564633924,19.731441689150273,17.304737833448637,21.787379210728275,19.818137867363184,20.318628400413974C22.331537901277727,18.849877590099677,33.2462177002921,13.856438447893076,28.351652736563114,12.427328590546487C23.45708777283413,10.998218733199895,2.75327804636178,13.133438160713315,-6.045877324577994,13.702688687103278C-14.84503269551777,14.27193921349324,-11.73953371092497,13.27522083875975,-13.374351522079884,11.998393572871473C-15.009169333234798,10.721566306983199,-21.384303940137425,9.164630149940137,-20.956455474996922,10.553350908216165C-20.528607009856422,11.942071666492195,-13.297775472672788,16.276449340087314,-12.771101568573595,16.911347146719354C-12.244427664474406,17.546244953351394,-18.42191139345966,14.48166289302035,-22.830276487024626,10.464942125781599C-27.2386415805896,6.448221358542847,-29.87788803873429,1.4793618843963858,-17.980206876092737,-1.1669641742177657C-6.08252571345119,-3.813290232831917,20.3520830699766,-4.137082875913759,18.52086333524948,-1.5247578065346268C16.689643600522363,1.087567262844506,-13.407404652359663,6.636010044684614,-22.952988578931432,8.410220057141455C-32.4985725055032,10.184430069598294,-21.4926921057647,8.184407312671867,-13.859094188592211,-0.11552253506883936C-6.225496271419721,-8.415452382809546,-1.9641808368132347,-23.015289321364534,6.773813990883916,-27.778081641237314C15.511808818581066,-32.540873961110094,28.726483039368883,-27.466621662300675,24.386744946597968,-23.49685718433823C20.047006853827057,-19.527092706375782,-1.8471435525025868,-16.661816049260313,-2.401093895992088,-14.08974187523594C-2.9550442394815892,-11.51766770121157,17.83120547986905,-9.238796010278298,21.293931749106015,-8.851866630012998C24.756658018342975,-8.464937249747695,10.895860837466262,-9.969950180150366,5.123224082616765,-11.95840407845581C-0.6494126722327329,-13.946857976761255,1.6661109989449838,-16.418752842969475,2.8238728345338426,-17.654700276073584L3.981634670122701,-18.890647709177696" />
  </g>
</svg>
