<?xml version="1.0" encoding="UTF-8" standalone="no"?>
<svg
   xmlns:dc="http://purl.org/dc/elements/1.1/"
   xmlns:cc="http://creativecommons.org/ns#"
   xmlns:rdf="http://www.w3.org/1999/02/22-rdf-syntax-ns#"
   xmlns:svg="http://www.w3.org/2000/svg"
   xmlns="http://www.w3.org/2000/svg"
   version="1.1"
   id="svg2"
   height="300"
   width="300"
   preserveAspectRatio="xMidYMid"
   viewBox="0 0 300 300">
  <metadata
     id="metadata27">
    <rdf:RDF>
      <cc:Work
         rdf:about="">
        <dc:format>image/svg+xml</dc:format>
        <dc:type
           rdf:resource="http://purl.org/dc/dcmitype/StillImage" />
      </cc:Work>
    </rdf:RDF>
  </metadata>
  <defs
     id="defs25" />
  <filter
     y="-50%"
     x="-50%"
     height="500"
     width="300"
     id="bmlat">
    <feFlood
       id="feFlood5"
       result="element"
       flood-color="#dbd7d2" />
    <feTurbulence
       id="feTurbulence7"
       result="element_1"
       seed="45"
       numOctaves="8"
       type="fractalNoise"
       baseFrequency="0.02" />
    <feGaussianBlur
       id="feGaussianBlur9"
       result="element_2"
       in="SourceAlpha"
       stdDeviation="5" />
    <feDisplacementMap
       id="feDisplacementMap11"
       result="element_3"
       in2="element_1"
       in="element_2"
       scale="100" />
    <feComposite
       id="feComposite13"
       result="element_4"
       in2="element_3"
       in="element"
       operator="in" />
    <feMerge
       id="feMerge15">
      <feMergeNode
         id="feMergeNode17"
         in="element_4" />
    </feMerge>
  </filter>
  <g
     id="g19"
     transform="translate(150,150) scale(1.5)">
    <path
       id="path21"
       style="filter: url(#bmlat); stroke: rgb(219, 215, 210);"
       d="M0,0L4.728960086700557,3.4222931641073306C9.457920173401114,6.844586328214661,18.915840346802227,13.689172656429323,27.19183746366432,10.158554416113468C35.467834580526414,6.627936175797611,42.561908640849495,-7.2778866330487615,45.61745539836635,-9.06181930815956C48.6730021558832,-10.845751983270357,47.690021610593824,-0.5077945246455791,38.3934490491084,0.10035312243400618C29.096876487622968,0.7085007695135914,11.486711909941485,-8.413161394952017,0.9269283783583537,-14.984036303092335C-9.632855153224778,-21.554911211232657,-13.142257638709559,-25.57499886304769,-19.86483383298913,-25.99962929326048C-26.587410027268703,-26.424259723473277,-36.52315993034307,-23.253432932083832,-30.70935129555306,-21.01627452564724C-24.895542660763056,-18.779116119210652,-3.3321754881086747,-17.475626097726916,-0.012957322396492721,-22.607976503408906C3.3062608433156893,-27.7403269090909,-11.618669997914328,-39.308517741938616,-14.89644589352671,-35.35300207020833C-18.174221789139093,-31.397486398478037,-9.804842739133845,-11.918264222169745,-11.451574678620059,-7.298114339284377C-13.098306618106273,-2.6779644563990086,-24.76114954708395,-12.916886866936565,-16.41301803093085,-13.895385504970328C-8.06488651477775,-14.87388414300409,20.294219446506126,-6.591959008534058,27.143805502449823,-9.336649212703536C33.99339155839352,-12.081339416873014,19.333457708997038,-25.852644959682003,8.774734012182197,-31.728378398421963C-1.7839896846326422,-37.60411183716192,-8.24150322886584,-35.58427317183286,-6.150821716668016,-32.01971159223322C-4.06014020447019,-28.455150012633588,6.578736364158658,-23.345865518763382,5.523734445051496,-8.820672308894505C4.468732525944336,5.704520900974369,-8.280147880898834,29.645622826841915,-7.742430044739925,24.32970563704929C-7.204712208581016,19.013788447256665,6.6196038705799705,-15.559147858196127,18.668867601383766,-24.30083979123073C30.718131332187564,-33.04253172426533,40.99234271463417,-15.952979284881748,38.12099045884667,-5.314831116968775C35.24963820305917,5.323317050944198,19.23272230903756,9.510060947386558,1.3397567869659355,11.162539523467643C-16.553208735105688,12.81501809954873,-36.322223885227324,11.933231355268545,-36.63099813547334,16.259300721357505C-36.939772385719344,20.585370087446464,-17.788305736089725,30.11929556390457,-8.008144350172124,28.41771952708905C1.7720170357454776,26.716143490273527,2.180873157951063,13.779065940184383,-0.9225703816110631,2.5323701714401956C-4.026013921173189,-8.714325597303992,-10.641757122503027,-18.270639584703222,-14.796710993285556,-22.527431527591624C-18.951664864068086,-26.784223470480025,-20.645829404303306,-25.7414933688576,-18.138765117306527,-12.681387934301089C-15.631700830309747,0.3787175002554193,-8.923407716080963,25.456198267746014,-1.6037787753344075,21.633994216763718C5.715850165412148,17.81179016578142,13.646814932676474,-14.910098703673768,14.753438987530345,-28.406524004403042C15.860063042384214,-41.90294930513232,10.142346384827627,-36.17391103713568,6.2406703757137985,-27.798534984331777C2.33899436659997,-19.423158931527873,0.2533590059288986,-8.401445093916704,4.942550165619487,-3.401711138706626C9.631741325310074,1.5980228165034527,21.09575900536232,0.575776889312442,21.365060011043283,3.6642017903181365C21.63436101672424,6.752626691323831,10.708945348033911,13.951722420526231,8.346414251986758,17.929507559120854C5.983883155939607,21.907292697715476,12.184236632535631,22.663767245702317,12.269884850284027,16.933312144587546C12.355533068032422,11.202857043472777,6.326476026933189,-1.014527706743607,3.1508892793550873,-1.9838913214198932C-0.024697468223013413,-2.9532549360961795,-0.346813922279982,7.325402584767632,-2.1456296542879993,7.110674221950433C-3.9444453862960174,6.895945859133234,-7.219960396255084,-3.8121683873649754,-5.1925370690752874,-3.2668512427317387C-3.165113741895491,-2.721534098098502,4.165247922423168,9.077214437666182,7.83084204327132,14.848226085383077C11.496436164119473,20.619237733099972,11.497262741497117,20.362512492769078,11.49767603018594,20.23414987260363L11.498089318874761,20.105787252438187" />
  </g>
</svg>
