<svg viewBox="0 0 300 300" preserveAspectRatio="xMidYMid" width="300" height="300"><filter id="glzqi" width="300" height="500" x="-50%" y="-50%"><feFlood flood-color="#17806d" result="element"></feFlood><feTurbulence baseFrequency="0.02" type="fractalNoise" numOctaves="8" seed="67" result="element_1"></feTurbulence><feGaussianBlur stdDeviation="4" in="SourceAlpha" result="element_2"></feGaussianBlur><feDisplacementMap scale="100" in="element_2" in2="element_1" result="element_3"></feDisplacementMap><feComposite operator="in" in="element" in2="element_3" result="element_4"></feComposite><feMerge><feMergeNode in="element_4"></feMergeNode></feMerge></filter><g transform="translate(150,150) scale(1.5)"><path d="M0,0L3.4783708757246856,4.48688117882352C6.956741751449371,8.97376235764704,13.913483502898742,17.94752471529408,16.071503364215495,19.43521497281777C18.229523225532247,20.922905230341467,15.588821196716383,14.924523387741813,12.081341043454211,13.397876701660865C8.573860890192037,11.871230015579918,4.199602612483557,14.816318486017675,4.588248867629381,11.319009604228894C4.976895122775204,7.82170072244011,10.128445910775332,-2.1180055115752134,8.324443902568115,-4.479416792259853C6.520441894360897,-6.840828072944491,-2.239112910053665,-1.623944400298444,0.5414705322475806,1.0162185739398202C3.322053974548826,3.6563815481780844,17.642775663565878,3.719823824008566,14.418749063033538,2.7196276793024694C11.194722462501192,1.7194315345963724,-9.574052427580549,-0.34440303064630307,-12.893035779019645,-9.630712665792553C-16.21201913045874,-18.917022300938804,-2.0812109432551864,-35.425807005988624,5.014212835434643,-38.71621892956621C12.109636614124472,-42.00663085314379,12.169675984300579,-32.07866999524912,7.356438571047441,-22.804219492672406C2.5432011577943037,-13.529768990095695,-7.1433130388880794,-4.908828842836929,-11.213909566079712,2.435067400843061C-15.284506093271343,9.778963644523051,-13.739184950972225,15.845815984624265,-3.9819992554480805,17.700724574381006C5.775186440076064,19.555633164137745,23.744236688825236,17.19859800355001,20.27213264255511,12.617443269319383C16.80002859628499,8.036288535088758,-8.113229745004432,1.231014227215241,-15.253676595410331,-4.244104245358818C-22.39412344581623,-9.719222717932876,-11.761758805338609,-13.864185355207477,-5.287830700870674,-15.156028401822748C1.186097403597261,-16.447871448438022,3.50158897205551,-14.886594904393963,2.8641284664529305,-16.65169189617491C2.2266679608503512,-18.41678888795586,-1.363744618813056,-23.508259415561817,-1.6339639632666842,-19.738155863782975C-1.904183307720312,-15.968052312004133,1.145790583035839,-3.3363746808404953,1.3806366418449552,-2.888518400061857C1.6154827006540713,-2.4406621192832185,-0.9647990724838476,-14.17662718888958,-2.0929349279466676,-9.069195394061136C-3.221070783409487,-3.9617635992326914,-2.8970607211972084,17.989065060030555,-4.703635890110196,15.551534310440648C-6.510211059023182,13.114003560850735,-10.447371459061435,-13.711886597592335,-15.53061828872005,-20.339827905792685C-20.613865118378662,-26.96776921399303,-26.843198377657636,-13.397761671950658,-17.328176316436625,-2.9437665335593097C-7.813154255215611,7.5102286048320375,17.446223126505387,14.848211339572359,23.149126035753113,22.848879398593105C28.852028945000836,30.84954745761385,14.998457381775287,39.512900840915016,6.851673498121344,42.54935690040111C-1.2951103855325978,45.58581295988719,-3.7351065896149325,42.995371695558205,2.5460720596066353,33.990682826019594C8.827250708828203,24.98599395648098,23.829604211353672,9.56705748173275,24.706899381859976,3.6485383753378384C25.584194552366284,-2.2699807310570734,12.336431390853429,1.3119175309013316,0.845945355637082,-2.826646446354797C-10.644540679579267,-6.965210423610926,-20.377749588499107,-18.824236640081587,-19.96182248724683,-10.740999029516976C-19.545895385994555,-2.657761418952365,-8.980832274570167,25.36774001864752,-8.187770176400708,30.15749646646886C-7.394708078231249,34.9472529142902,-16.37364699331672,16.501264372333004,-14.471405562673255,14.27446493489252C-12.569164132029789,12.04766549745204,0.21425764434261296,26.04005516452828,-0.396768009218766,24.744057416738865C-1.007793662780145,23.448059668949455,-15.013266746275304,6.863674506294386,-19.002769837899358,0.28712633209368565C-22.992272929523406,-6.289421842107014,-16.96580602927635,-2.8581330278533468,-13.96354869971065,0.9320811477934017C-10.96129137014495,4.72229532344015,-10.983243611260608,8.87143486047998,-6.704867958259386,3.7829347672853952C-2.4264923052581633,-1.305565325909189,6.152211241859941,-15.631705049338187,14.694736218887986,-11.069785431256424C23.237261195916034,-6.507865813174661,31.74360760285402,16.942113146417864,35.99678080632301,28.667102626214128L40.249954009792006,40.39209210601039" style="filter: url(#glzqi); stroke: rgb(23, 128, 109);"></path></g></svg>