<?xml version="1.0" encoding="UTF-8" standalone="no"?>
<svg
   xmlns:dc="http://purl.org/dc/elements/1.1/"
   xmlns:cc="http://creativecommons.org/ns#"
   xmlns:rdf="http://www.w3.org/1999/02/22-rdf-syntax-ns#"
   xmlns:svg="http://www.w3.org/2000/svg"
   xmlns="http://www.w3.org/2000/svg"
   version="1.1"
   id="svg2"
   height="300"
   width="300"
   preserveAspectRatio="xMidYMid"
   viewBox="0 0 300 300">
  <metadata
     id="metadata27">
    <rdf:RDF>
      <cc:Work
         rdf:about="">
        <dc:format>image/svg+xml</dc:format>
        <dc:type
           rdf:resource="http://purl.org/dc/dcmitype/StillImage" />
      </cc:Work>
    </rdf:RDF>
  </metadata>
  <defs
     id="defs25" />
  <filter
     y="-50%"
     x="-50%"
     height="500"
     width="300"
     id="ltnnh">
    <feFlood
       id="feFlood5"
       result="element"
       flood-color="#ff878d" />
    <feTurbulence
       id="feTurbulence7"
       result="element_1"
       seed="9"
       numOctaves="8"
       type="fractalNoise"
       baseFrequency="0.02" />
    <feGaussianBlur
       id="feGaussianBlur9"
       result="element_2"
       in="SourceAlpha"
       stdDeviation="4" />
    <feDisplacementMap
       id="feDisplacementMap11"
       result="element_3"
       in2="element_1"
       in="element_2"
       scale="100" />
    <feComposite
       id="feComposite13"
       result="element_4"
       in2="element_3"
       in="element"
       operator="in" />
    <feMerge
       id="feMerge15">
      <feMergeNode
         id="feMergeNode17"
         in="element_4" />
    </feMerge>
  </filter>
  <g
     id="g19"
     transform="translate(150,150) scale(1.5)">
    <path
       id="path21"
       style="filter: url(#ltnnh); stroke: rgb(255, 135, 141);"
       d="M0,0L3.7538142335969598,-4.054123737841015C7.5076284671939195,-8.10824747568203,15.015256934387839,-16.21649495136406,8.55603062118808,-13.79525497203121C2.0968043079883216,-11.37401499269836,-18.329276785605117,1.57671244164937,-26.611245643743256,10.206762780421439C-34.893214501881396,18.836813119193508,-31.031071124564242,23.14618636238992,-33.789330296681655,22.235148837906834C-36.54758946879906,21.32411131342375,-45.926251190351024,15.19266302126117,-44.75623319745349,6.505361215528713C-43.58621520455596,-2.1819405902037445,-31.867517497208922,-13.42509590950608,-19.364761649337918,-20.520596363065078C-6.862005801466907,-27.616096816624076,6.424808186928074,-30.563942404439736,17.985482617929954,-26.548176438256768C29.546157048931835,-22.5324104720738,39.38069192254061,-11.553032951892195,30.128531902173115,-6.085376419273361C20.876371881805607,-0.6177198866545249,-7.462483032538181,-0.6617843415984557,-20.95692883679125,-0.23713795274783156C-34.451374641044325,0.18750843610279255,-33.10141133520668,1.0808656687479714,-28.46946067927805,-2.3236605535956056C-23.837510023349427,-5.728186775939182,-15.92357201732983,-13.430596453271516,-10.515356091385511,-17.154642395579597C-5.107140165441192,-20.878688337887677,-2.204646319572152,-20.624370545171505,-8.438959562655201,-19.433925024523404C-14.67327280573825,-18.2434795038753,-30.04439313777339,-16.116906255295262,-25.04413043672187,-6.354863432192911C-20.04386773567035,3.407179390909441,5.327777998467829,20.80469178853411,15.806231754928739,18.77709781790952C26.284685511389647,16.749503847284924,21.869947290173286,-4.703196491588933,16.964978998734583,-14.553178719991667C12.06001070729588,-24.4031609483944,6.664812345634838,-22.65042506632601,1.6341026571533637,-11.82792156154504C-3.39660703132811,-1.0054180567640696,-8.062828046630013,18.886853070729483,-14.176262596512888,32.153834791088954C-20.289697146395767,45.420816511448436,-27.850345230859617,52.06250882467383,-26.481791356169385,45.652083558311666C-25.113237481479157,39.2416582919495,-14.815481647634847,19.77911544599977,-3.6025999197953293,10.045436730689453C7.61028180804419,0.3117580153791323,19.738289429878918,0.3069434307082178,15.136027315799733,2.8772389745548126C10.533765201720547,5.447534518401407,-10.798766648272554,10.59294019076551,-16.288521863635065,15.663950208640117C-21.778277078997572,20.734960226514723,-11.425255659729489,25.73157458989983,-6.954668352457156,21.267353793630832C-2.4840810451848245,16.803132997361836,-3.8959278499082446,2.8780770414387353,-6.970396337590376,2.307099329301307C-10.044864825272509,1.736121617163879,-14.78195499591335,14.519222148812124,-9.584880805045202,14.098374649881862C-4.387806614177052,13.6775271509516,10.743431938200091,0.05273162144282928,14.371014206797241,-6.1976435157872505C17.998596475394393,-12.448018653017328,10.122522460211554,-11.323973397968718,7.938603612779621,-11.841209901815207C5.7546847653476885,-12.358446405661695,9.262921085666662,-14.516964668403283,6.54204514688693,-14.661407572807862C3.8211692081071984,-14.805850477212443,-5.12881898977124,-12.936218023280016,-8.657056796822197,-9.494867252490934C-12.185294603873153,-6.053516481701853,-10.29178202009663,-1.0404473940561139,-9.95252408284908,-0.970887462201123C-9.613266145601532,-0.9013275303461321,-10.828262854882958,-5.775276754281889,-5.771829364799582,-11.822183265051887C-0.7153958747162061,-17.869089775821887,10.612467814731973,-25.088953573426128,16.078378271274055,-28.313271011132954C21.54428872781613,-31.537588448839784,21.14824595145211,-30.766359526649197,22.068181025777818,-26.015289618668177C22.988116100103525,-21.264219710687165,25.224029025118956,-12.533308816915723,29.87713923562839,-8.348213099629392C34.53024944613782,-4.163117382343063,41.60055694214125,-4.523836841541845,33.97135290869542,-3.6146157608460987C26.342148875249595,-2.7053946801503512,4.0134333123545005,-0.5262330595600744,-4.382378530172012,-2.249622724162105C-12.778190372698525,-3.9730123887641358,-7.241098494856454,-9.598953338558474,-4.472552555935419,-12.411923813455644L-1.7040066170143833,-15.224894288352814" />
  </g>
</svg>
