<?xml version="1.0" encoding="UTF-8" standalone="no"?>
<svg
   xmlns:dc="http://purl.org/dc/elements/1.1/"
   xmlns:cc="http://creativecommons.org/ns#"
   xmlns:rdf="http://www.w3.org/1999/02/22-rdf-syntax-ns#"
   xmlns:svg="http://www.w3.org/2000/svg"
   xmlns="http://www.w3.org/2000/svg"
   version="1.1"
   id="svg2"
   height="300"
   width="300"
   preserveAspectRatio="xMidYMid"
   viewBox="0 0 300 300">
  <metadata
     id="metadata27">
    <rdf:RDF>
      <cc:Work
         rdf:about="">
        <dc:format>image/svg+xml</dc:format>
        <dc:type
           rdf:resource="http://purl.org/dc/dcmitype/StillImage" />
      </cc:Work>
    </rdf:RDF>
  </metadata>
  <defs
     id="defs25" />
  <filter
     y="-50%"
     x="-50%"
     height="500"
     width="300"
     id="qtsqi">
    <feFlood
       id="feFlood5"
       result="element"
       flood-color="#deaa88" />
    <feTurbulence
       id="feTurbulence7"
       result="element_1"
       seed="98"
       numOctaves="8"
       type="fractalNoise"
       baseFrequency="0.02" />
    <feGaussianBlur
       id="feGaussianBlur9"
       result="element_2"
       in="SourceAlpha"
       stdDeviation="5" />
    <feDisplacementMap
       id="feDisplacementMap11"
       result="element_3"
       in2="element_1"
       in="element_2"
       scale="100" />
    <feComposite
       id="feComposite13"
       result="element_4"
       in2="element_3"
       in="element"
       operator="in" />
    <feMerge
       id="feMerge15">
      <feMergeNode
         id="feMergeNode17"
         in="element_4" />
    </feMerge>
  </filter>
  <g
     id="g19"
     transform="translate(150,150) scale(1.5)">
    <path
       id="path21"
       style="filter: url(#qtsqi); stroke: rgb(222, 170, 136);"
       d="M0,0L2.4239818685523904,-5.481704523737513C4.847963737104781,-10.963409047475025,9.695927474209562,-21.92681809495005,4.738556155232521,-20.13783431843249C-0.21881516374451948,-18.348850541914928,-14.981521538803381,-3.8074739414047816,-19.38161213383525,1.074035144586182C-23.78170272886712,5.9555442305771455,-17.819177543871994,1.1771858020489252,-12.865686782606772,-2.202904502551216C-7.91219602134155,-5.582994807151357,-3.967739683806227,-7.564816987823419,-2.073212741594639,-7.114631295112292C-0.17868579938305082,-6.664445602401165,-0.3340882524951972,-3.782252036306849,4.950917459632898,-8.355637403287467C10.235923171760994,-12.929022770268084,20.96133704912933,-24.957987070323636,30.483936379382094,-24.453135689384137C40.00653570963485,-23.948284308444638,48.32632049277204,-10.90961724651009,43.15413911439874,-6.105823712774348C37.98195773602544,-1.3020301790386077,19.317810196141664,-4.733110173501675,2.1168615614531854,-5.63600514582976C-15.084087073235292,-6.538900118157844,-30.821836802728466,-4.913610068350947,-36.68980832340759,1.2841717975383675C-42.55777984408672,7.481953663427682,-38.55597315595179,18.252227345399415,-34.64341791350704,17.31765794545302C-30.73086267106228,16.383088545506627,-26.907558874307696,3.74367606364211,-15.12116355138373,-4.043043831901381C-3.3347682284597653,-11.82976372744487,16.41471862063358,-14.763791036667334,16.93661032583912,-8.993086537789848C17.458502031044667,-3.222382038912361,-1.24720140763759,11.253054268065075,-7.010503082702205,15.522240450584327C-12.77380475776682,19.79142663310358,-5.594704669213796,13.854362691164647,1.2010541968433097,14.919460656743572C7.996813062900414,15.984558622322497,14.4092307064616,24.05181849541928,17.860575264836655,15.597248435769576C21.31191982321171,7.142678376119873,21.802191296400633,-17.833721616276314,23.194625592246005,-19.870793308398977C24.58705988809138,-21.90786500052164,26.88165700659321,-1.0056083923707746,28.59303169658568,0.52698012155113C30.30440638657815,2.0595686354730347,31.432558648061274,-15.77751094483402,25.56863994655336,-28.011962387442544C19.704721245045455,-40.246413830051075,6.848731580546513,-46.878237134961076,-5.018748203524358,-45.828755492497265C-16.886227987595227,-44.77927385003346,-27.765197891238028,-36.04848726019584,-24.059273103224232,-32.508303702361175C-20.353348315210432,-28.968120144526516,-2.0625288355400357,-30.618539618694818,5.499566169049133,-22.872131079697187C13.061661173638301,-15.125722540699552,9.895031703146241,2.017514011464014,9.67980289451485,3.0168084509499957C9.46457408588346,4.0161028904359775,12.200745939112739,-11.128544782755625,8.173449591313405,-22.16161497149224C4.146153243514068,-33.19468516022886,-6.644611305313881,-40.11617786451049,-9.754907189370362,-29.70103871939514C-12.865203073426843,-19.28589957427978,-8.295030292711855,8.465871420232567,-10.463709397531078,16.73021286912511C-12.632388502350299,24.99455431801765,-21.53991949270373,13.771466221290385,-17.643703705795176,6.893832571581383C-13.747487918886621,0.016198921872382366,2.952474645283921,-2.515980280818356,5.730355494239569,-4.715650592910494C8.508236343195216,-6.915320905002632,-2.6359645230640307,-8.782482326496172,-13.032884927696585,-3.537288224190503C-23.429805332329142,1.7079058781151666,-33.079445275335004,14.065455504220044,-34.329689616844966,15.473575681709617C-35.579933958354935,16.88169585919919,-28.430782698368994,7.340386588073461,-15.190277019628951,6.008037460480702C-1.9497713408889101,4.675688332887946,17.38208875660524,11.55229934882816,21.729322932112503,18.377523101220326C26.07655710761977,25.202746853612496,15.439165361140157,31.976583342456614,11.600275357017315,38.111223241252276C7.761385352894473,44.245863140047945,10.720997091128405,49.741306448795164,7.420795905654213,41.83809049823473C4.120594720180022,33.934874547674276,-5.439419389002291,12.632999337806172,-10.611788281562962,3.449165095914608C-15.784157174123632,-5.734669145976956,-16.56888085006266,-2.800462419891978,-16.961242688032172,-1.3333590568494889L-17.35360452600169,0.133744306193" />
  </g>
</svg>
