<svg viewBox="0 0 300 300" preserveAspectRatio="xMidYMid" width="300" height="300"><filter id="cmgvy" width="300" height="500" x="-50%" y="-50%"><feFlood flood-color="#77dde7" result="element"></feFlood><feTurbulence baseFrequency="0.02" type="fractalNoise" numOctaves="8" seed="45" result="element_1"></feTurbulence><feGaussianBlur stdDeviation="5" in="SourceAlpha" result="element_2"></feGaussianBlur><feDisplacementMap scale="100" in="element_2" in2="element_1" result="element_3"></feDisplacementMap><feComposite operator="in" in="element" in2="element_3" result="element_4"></feComposite><feMerge><feMergeNode in="element_4"></feMergeNode></feMerge></filter><g transform="translate(150,150) scale(1.5)"><path d="M0,0L0.7463245800689471,4.511947510919211C1.4926491601378942,9.023895021838422,2.9852983202757883,18.047790043676844,2.386843664332315,25.247937341755225C1.788389008388842,32.4480846398336,-0.9011694636359984,37.82448421415194,-2.788262846419061,33.70872539474106C-4.675356229202124,29.592966575330177,-5.759984522743409,15.98504936219008,-13.627678429958085,9.163678133676004C-21.49537233717276,2.342306905161929,-36.14613185806083,2.3074816612738758,-39.35303982568976,-2.252866303610839C-42.5599477933187,-6.813214268495554,-34.32300420768849,-15.89908495437693,-33.10494946693028,-16.198634826297894C-31.88689472617207,-16.498184698218854,-37.68772883028585,-8.011413756179403,-29.876961481496604,-7.522396733304438C-22.066194132707352,-7.033379710429474,-0.6438253310150674,-14.542116606718999,4.820484409856306,-13.878101193955963C10.284794150727677,-13.214085781192926,-0.20895516922186008,-4.377318059377329,-3.3928459061353835,-5.321730562192516C-6.576736643048907,-6.266143065007704,-2.450768796926416,-16.991735792453674,-0.4414907919877245,-19.119604397378467C1.5677872129509671,-21.247473002303263,1.460375376705859,-14.777617484706877,7.807296150564481,-12.201435155486887C14.154216924423103,-9.6252528262669,26.955470308385458,-10.94274368542331,35.08184372141701,-12.54488711773483C43.20821713444856,-14.147030550046349,46.659710576549315,-16.03382655551298,41.00130483972158,-15.561268170597648C35.34289910289384,-15.088709785682315,20.574594187137603,-12.256797010385023,13.438939202170367,-8.511869586696179C6.30328421720313,-4.766942163007336,6.800279163024891,-0.10900009092694063,5.921519775825925,2.6536408039548864C5.0427603886269585,5.4162816988367135,2.788246668407265,6.283621416519972,0.6804672727273792,6.508728421689678C-1.4273121229525065,6.733835426859384,-3.3883571940925843,6.316709719515537,0.6418236006696079,7.0746860474534365C4.6720043954318005,7.832662375391336,14.693411056096261,9.765740738610981,15.119748787675888,0.9215860698892193C15.546086519255516,-7.9225685988325445,6.377355321750308,-27.54395629949572,3.30740739863464,-21.328843993534328C0.23745947551897184,-15.113731687572937,3.266294826792844,16.937880625013015,6.452917349505767,29.63108123978936C9.63953987221869,42.324281854565704,12.983949566370661,35.65907077153244,7.130580676299579,26.973493909851207C1.2772117862284968,18.287917048169973,-13.773935688065642,7.581974407840759,-12.914009951535236,3.128333330973578C-12.054084215004828,-1.3253077458936038,4.716914732350126,0.47335274070124567,7.259661642835532,7.617280669138994C9.802408553320937,14.761208597576744,-1.8830965730632032,27.25040396785739,-5.041479132683051,27.119108070035175C-8.199861692302898,26.987812172212962,-2.8311216851584504,14.236025006287889,5.147170830040794,7.8257289247722275C13.125463345240039,1.4154328432565648,23.71330836849408,1.3466278461503158,24.341487965788563,-2.2695246189233034C24.969667563083046,-5.885677083996923,15.638181734417973,-13.04917701703791,12.695222012128113,-14.185096656137185C9.752262289838253,-15.321016295236458,13.19782867392361,-10.429355640394013,18.62908734756125,-0.03482177551997978C24.06034602119889,10.359712089354053,31.47729698438881,26.257119164259674,32.98680912749024,22.887285011375724C34.496321270591665,19.517450858491774,30.098394593604603,-3.1196245221817485,20.73957795011682,-16.432409264625242C11.38076130662904,-29.745194007068736,-2.938945303359459,-33.733688111282206,-3.5218635712370023,-25.401095449935106C-4.104781839114546,-17.068502788588013,9.049088235118866,3.585176638319645,15.800997806594445,2.4006843551300214C22.552907378070024,1.216192071940398,22.902856446787773,-21.806471921346507,19.6361717562062,-25.50421975262207C16.369487065624625,-29.201967583897638,9.486168615743733,-13.574799253161865,7.122056414218616,-13.961234439449438C4.7579442126935,-14.347669625737007,6.913038259524163,-30.74770832904792,11.577889427437217,-27.2993816632781C16.24274059535027,-23.85105499750829,23.417348884345717,-0.5543629626577431,27.004653028843435,11.093983054767529L30.591957173341164,22.742329072192803" style="filter: url(#cmgvy); stroke: rgb(119, 221, 231);"></path></g></svg>