<?xml version="1.0" encoding="UTF-8" standalone="no"?>
<svg
   xmlns:dc="http://purl.org/dc/elements/1.1/"
   xmlns:cc="http://creativecommons.org/ns#"
   xmlns:rdf="http://www.w3.org/1999/02/22-rdf-syntax-ns#"
   xmlns:svg="http://www.w3.org/2000/svg"
   xmlns="http://www.w3.org/2000/svg"
   version="1.1"
   id="svg2"
   height="300"
   width="300"
   preserveAspectRatio="xMidYMid"
   viewBox="0 0 300 300">
  <metadata
     id="metadata27">
    <rdf:RDF>
      <cc:Work
         rdf:about="">
        <dc:format>image/svg+xml</dc:format>
        <dc:type
           rdf:resource="http://purl.org/dc/dcmitype/StillImage" />
      </cc:Work>
    </rdf:RDF>
  </metadata>
  <defs
     id="defs25" />
  <filter
     y="-50%"
     x="-50%"
     height="500"
     width="300"
     id="xknuq">
    <feFlood
       id="feFlood5"
       result="element"
       flood-color="#8a496b" />
    <feTurbulence
       id="feTurbulence7"
       result="element_1"
       seed="25"
       numOctaves="8"
       type="fractalNoise"
       baseFrequency="0.02" />
    <feGaussianBlur
       id="feGaussianBlur9"
       result="element_2"
       in="SourceAlpha"
       stdDeviation="4" />
    <feDisplacementMap
       id="feDisplacementMap11"
       result="element_3"
       in2="element_1"
       in="element_2"
       scale="100" />
    <feComposite
       id="feComposite13"
       result="element_4"
       in2="element_3"
       in="element"
       operator="in" />
    <feMerge
       id="feMerge15">
      <feMergeNode
         id="feMergeNode17"
         in="element_4" />
    </feMerge>
  </filter>
  <g
     id="g19"
     transform="translate(150,150) scale(1.5)">
    <path
       id="path21"
       style="filter: url(#xknuq); stroke: rgb(138, 73, 107);"
       d="M0,0L6.2571545592567475,0.25087510136772495C12.514309118513495,0.5017502027354499,25.02861823702699,1.0035004054708998,26.918171960341134,5.903169771457909C28.807725683655278,10.80283913744492,20.07252401177007,20.10042766668349,15.580112185894894,24.304452379309147C11.087700360019713,28.508477091934807,10.838078380154561,27.618937987947554,14.154333878859216,21.1610043173481C17.47058937756387,14.70307064674865,24.35272235483833,2.6767424095369936,23.40751383198284,-6.889675803490235C22.462305309127352,-16.45609401651746,13.689755286141914,-23.562602205360264,7.32302500076393,-26.36927161123523C0.9562947153859431,-29.175941017110198,-3.0046158323845904,-27.68277164001733,-0.45392186398333356,-23.646493247402358C2.0967721044179237,-19.610214854787387,11.159070588990971,-13.030827446650314,7.495275601995877,-4.610516273990384C3.8314806150007836,3.809794898669546,-12.558407843562453,14.071029835852332,-20.920998024541504,18.863686303783815C-29.28358820552055,23.656342771715295,-29.61888010891542,22.980420770395472,-23.496573779326376,15.181151646858265C-17.374267449737335,7.381882523321053,-4.794362887164386,-7.540733722433543,1.6997592829336396,-13.730763954940706C8.193881453031665,-19.920794187447868,8.602221230654767,-17.378238406707602,7.523081414137954,-16.17142167989989C6.443941597621142,-14.964604953092183,3.877322186964416,-15.093527280217033,0.4090675934934018,-12.13641739214417C-3.0591869999776122,-9.179307504071303,-7.429076776262914,-3.1361654008007225,-4.577803478680932,-3.454461545726627C-1.7265301810989495,-3.772757690652531,8.345906190350316,-10.45249208377492,6.345456034748509,-9.287799845736895C4.3450058791467026,-8.123107607698872,-9.728330803506177,0.8860112614995677,-18.550614786794984,-0.39568680780630494C-27.372898770083793,-1.6773848771121775,-30.944130054008525,-13.249899884922362,-26.906098227003074,-16.79877610032506C-22.868066399997616,-20.347652315727764,-11.220771462061972,-15.872889738722979,-1.8846639287281075,-12.396539021344298C7.451443604605757,-8.920188303965618,14.476363733337841,-6.44224944621304,10.035478019544207,-10.738553838871063C5.594592305750574,-15.034858231529082,-10.312099250568776,-26.1054058745977,-6.587639255655947,-22.55867087243383C-2.8631792607431166,-19.01193587026996,20.492432285401893,-0.8479182228735951,34.20250035804925,4.556919817876643C47.912568430696616,9.96175785862688,51.97709302984633,2.607416292730993,40.88490252245889,2.343232943269919C29.79271201507144,2.079049593808845,3.5438064011468366,8.905024460782585,-7.207173800313895,9.668744591709599C-17.958154001774627,10.432464722636613,-13.211208790771488,5.133930117516902,-2.831611306216189,2.709740191508951C7.547986178339111,0.28555026550099943,23.56023593644657,0.7357050186048072,26.629484574452388,6.609190613948209C29.6987332124582,12.482676209291611,19.82498073036237,23.779492646874605,10.166469645415091,26.25782076006315C0.5079585604678094,28.736148873251693,-8.935311127330923,22.395988662045788,-11.190248436942513,14.810868841311185C-13.4451857465541,7.225749020576585,-8.51179067797855,-1.6043304096867077,-6.792447314188977,-5.688861172431019C-5.073103950399407,-9.77339193517533,-6.567812291395818,-9.112374030400659,-1.8850619632714478,-9.371370635321743C2.797688364852921,-9.630367240242826,13.65789736209807,-10.809378354859664,15.433430940747192,-13.994005611497876C17.208964519396314,-17.17863286813609,9.899822679449409,-22.36887626679568,7.790054038219825,-23.705796188734006C5.680285396990243,-25.042716110672337,8.769889954477984,-22.526312555889405,7.883117774137567,-19.945776902849904C6.99634559379715,-17.3652412498104,2.1331966756285765,-14.720573498514325,-4.299850454589412,-16.250502961277455C-10.7328975848074,-17.78043242404059,-18.735842927074803,-23.484959100862927,-17.482200682746296,-27.89003113718826C-16.22855843841779,-32.29510317351359,-5.718328607493374,-35.400720569341914,6.249491336785811,-30.141103358185205C18.217311281064994,-24.881486147028504,31.642721338698948,-11.256634328886767,38.355426367515925,-4.444208419815899L45.0681313963329,2.3682174892549686" />
  </g>
</svg>
