<?xml version="1.0" encoding="UTF-8" standalone="no"?>
<svg
   xmlns:dc="http://purl.org/dc/elements/1.1/"
   xmlns:cc="http://creativecommons.org/ns#"
   xmlns:rdf="http://www.w3.org/1999/02/22-rdf-syntax-ns#"
   xmlns:svg="http://www.w3.org/2000/svg"
   xmlns="http://www.w3.org/2000/svg"
   version="1.1"
   id="svg2"
   height="300"
   width="300"
   preserveAspectRatio="xMidYMid"
   viewBox="0 0 300 300">
  <metadata
     id="metadata27">
    <rdf:RDF>
      <cc:Work
         rdf:about="">
        <dc:format>image/svg+xml</dc:format>
        <dc:type
           rdf:resource="http://purl.org/dc/dcmitype/StillImage" />
      </cc:Work>
    </rdf:RDF>
  </metadata>
  <defs
     id="defs25" />
  <filter
     y="-50%"
     x="-50%"
     height="500"
     width="300"
     id="pvvum">
    <feFlood
       id="feFlood5"
       result="element"
       flood-color="#ffff66" />
    <feTurbulence
       id="feTurbulence7"
       result="element_1"
       seed="45"
       numOctaves="8"
       type="fractalNoise"
       baseFrequency="0.02" />
    <feGaussianBlur
       id="feGaussianBlur9"
       result="element_2"
       in="SourceAlpha"
       stdDeviation="4" />
    <feDisplacementMap
       id="feDisplacementMap11"
       result="element_3"
       in2="element_1"
       in="element_2"
       scale="100" />
    <feComposite
       id="feComposite13"
       result="element_4"
       in2="element_3"
       in="element"
       operator="in" />
    <feMerge
       id="feMerge15">
      <feMergeNode
         id="feMergeNode17"
         in="element_4" />
    </feMerge>
  </filter>
  <g
     id="g19"
     transform="translate(150,150) scale(1.5)">
    <path
       id="path21"
       style="filter: url(#pvvum); stroke: rgb(255, 255, 102);"
       d="M0,0L9.941912106841905,1.0877778067652812C19.88382421368381,2.1755556135305625,39.76764842736762,4.351111227061125,43.63563548401765,5.678070677249885C47.50362254066768,7.005030127438644,35.35577244028393,7.483393414285601,20.627263192798836,5.601734716249981C5.898753945313745,3.7200760182143613,-11.410414449272693,-0.521604664703835,-13.810371227423705,-2.4700181051925822C-16.210328005574716,-4.4184315456813295,-3.701073167290307,-4.0735777437406275,1.1145940478962948,0.4550194512013741C5.930261263082897,4.983616646143376,3.052340855171689,13.695957234086677,7.95589907068726,16.2568084351769C12.859457286202831,18.817659636267123,25.54449412514518,15.227021450504271,22.96870744999696,15.948434835381383C20.39292077484874,16.669848220258494,2.556310585609948,21.703313175775577,-10.627776979872092,18.15060660862869C-23.811864545354133,14.5979000414818,-32.34342948707942,2.459021951670943,-28.34177895427869,7.126243984384963C-24.340128421477967,11.793466017098984,-7.805262414151224,33.26678817233788,-7.715165454028445,34.95673066376684C-7.625068493905665,36.646673155195806,-23.97974058098685,18.553235982814833,-28.55887443718075,13.854149005237428C-33.13800829337466,9.155062027660025,-25.941603918681288,17.850325244886193,-28.525828489560958,12.981844516412737C-31.11005306044063,8.113363787939281,-43.474906576893346,-10.318860886233796,-39.54498932604698,-14.311972406829568C-35.61507207520061,-18.30508392742534,-15.390384057055153,-7.859082294443806,-3.3568768640268116,-3.08135499575594C8.67663032900153,1.6963723029319262,12.518956696912756,0.8058252673261245,11.60517611265854,-6.41654571185723C10.691395528404325,-13.638916691040585,5.0215079919846675,-27.19311161380149,3.757150837064887,-23.829805809023647C2.4927936821451064,-20.466500004245805,5.633966908725203,-0.18569347192921093,11.67383010457309,14.140396608135562C17.713693300420978,28.466486688200334,26.652246465536656,36.83786031601329,21.290527154985774,42.72802400726337C15.928807844434893,48.618187698513445,-3.7331839417825545,52.02714145320065,-11.467030733817309,43.29017622672013C-19.20087752585206,34.55321100023959,-15.006579323704122,13.670326792591336,-11.875982812414634,-0.13388002881850092C-8.745386301125146,-13.938086850228338,-6.67849148069411,-20.663616285399755,-9.862273505718516,-20.051326143095437C-13.046055530742924,-19.43903600079112,-21.480514401222774,-11.488926281011071,-25.45220094958757,-6.923082355680167C-29.42388749795236,-2.357238430349263,-28.932801724202097,-1.1756602994675038,-17.6692445500616,-1.6304455879174922C-6.405687375921101,-2.0852308763674805,15.630341198609631,-4.176379584149216,22.696619045897055,-8.71176740724297C29.762896893184475,-13.247155230336725,21.85942401322859,-20.2267821687425,23.18780528645256,-19.889730651707467C24.516186559676523,-19.552679134672434,35.07642198608034,-11.898949162196597,35.6089940155377,-12.453082825795505C36.141566044995045,-13.007216489394413,26.64647467750593,-21.769213789068065,18.18028591553846,-25.264141248324776C9.71409715357098,-28.759068707581484,2.276810997125148,-26.986926326421255,-6.215921862855577,-16.053706271656928C-14.7086547228363,-5.120486216892601,-24.256834286351918,14.973811511475821,-23.87826461008323,19.180881566388713C-23.49969493381455,23.3879516213016,-13.194376017761565,11.707794002758959,-12.755940075085677,14.725177961106029C-12.317504132409791,17.7425619194531,-21.745951163111002,35.45748745468988,-17.23585989504941,26.78812347504824C-12.725768626987815,18.1187594954066,5.722860939836583,-16.934893999113463,11.149671850340178,-29.82920490755737C16.576482760843774,-42.723515816001274,8.98147501502657,-33.45848413836902,10.188828286857278,-24.816950255114705C11.396181558687987,-16.175416371860383,21.405895848166608,-8.157380282983993,21.327253062859214,-4.825600341127989C21.248610277551816,-1.4938203992719832,11.081610417458402,-2.8482966044363622,4.697102418569183,-3.916309684662917C-1.6874055803200356,-4.9843227648894715,-4.289421718005059,-5.765872720178202,-5.59042978684757,-6.156647697822568L-6.891437855690082,-6.547422675466933" />
  </g>
</svg>
