<?xml version="1.0" encoding="UTF-8" standalone="no"?>
<svg
   xmlns:dc="http://purl.org/dc/elements/1.1/"
   xmlns:cc="http://creativecommons.org/ns#"
   xmlns:rdf="http://www.w3.org/1999/02/22-rdf-syntax-ns#"
   xmlns:svg="http://www.w3.org/2000/svg"
   xmlns="http://www.w3.org/2000/svg"
   version="1.1"
   id="svg2"
   height="300"
   width="300"
   preserveAspectRatio="xMidYMid"
   viewBox="0 0 300 300">
  <metadata
     id="metadata27">
    <rdf:RDF>
      <cc:Work
         rdf:about="">
        <dc:format>image/svg+xml</dc:format>
        <dc:type
           rdf:resource="http://purl.org/dc/dcmitype/StillImage" />
      </cc:Work>
    </rdf:RDF>
  </metadata>
  <defs
     id="defs25" />
  <filter
     y="-50%"
     x="-50%"
     height="500"
     width="300"
     id="oeeff">
    <feFlood
       id="feFlood5"
       result="element"
       flood-color="#926eae" />
    <feTurbulence
       id="feTurbulence7"
       result="element_1"
       seed="67"
       numOctaves="8"
       type="fractalNoise"
       baseFrequency="0.02" />
    <feGaussianBlur
       id="feGaussianBlur9"
       result="element_2"
       in="SourceAlpha"
       stdDeviation="4" />
    <feDisplacementMap
       id="feDisplacementMap11"
       result="element_3"
       in2="element_1"
       in="element_2"
       scale="100" />
    <feComposite
       id="feComposite13"
       result="element_4"
       in2="element_3"
       in="element"
       operator="in" />
    <feMerge
       id="feMerge15">
      <feMergeNode
         id="feMergeNode17"
         in="element_4" />
    </feMerge>
  </filter>
  <g
     id="g19"
     transform="translate(150,150) scale(1.5)">
    <path
       id="path21"
       style="filter: url(#oeeff); stroke: rgb(146, 110, 174);"
       d="M0,0L5.581089970594641,5.192072056879757C11.162179941189281,10.384144113759515,22.324359882378563,20.76828822751903,27.909801976798867,19.06502017492511C33.495244071219176,17.36175212233119,33.503948318870506,3.5710719033838316,27.613823223157414,-6.623192881444499C21.723698127444326,-16.81745766627283,9.934743688366813,-23.415307016982133,6.083850184396569,-23.766726200106376C2.232956680426324,-24.11814538323062,6.320124111563344,-18.223134398769794,9.870062661355984,-9.073889697793604C13.420001211148627,0.0753550031825867,16.432710879596886,12.478833420674144,10.31572466204818,15.828109853228206C4.198738444499471,19.17738628578227,-11.047943659046206,13.472460733398833,-14.167166660788961,9.697865964525846C-17.286389662531715,5.92327119565286,-8.278153562471548,4.079007210290321,0.6262341081655882,4.973830294223514C9.530621778802724,5.868653378156706,18.33116102001683,9.502563531385631,20.128069152086404,13.636019267497332C21.92497728415598,17.769475003609035,16.718254307081025,22.402476322603516,11.310589748834179,11.776858656425976C5.902925190587333,1.1512409902484393,0.294319051168594,-24.732995661101118,-9.704947809242567,-22.012413749633843C-19.70421466965373,-19.291831838166576,-34.09414225105731,12.033568636117522,-24.78544063223886,23.0026040995806C-15.47673901342041,33.97163956304368,17.530591805620077,24.584310015685737,27.772638856170207,21.432153063266753C38.01468590672034,18.279996110847776,25.49144918878011,21.363011753367758,25.766847341446738,25.221756153738305C26.042245494113363,29.080500554108852,39.116278517386846,33.71497371232997,37.832607158989035,28.23391563706868C36.548935800591224,22.75285756180738,20.907560060522123,7.156268253063677,7.285688656166014,-1.7400372653863014C-6.336182748190094,-10.63634278383628,-17.93854981683321,-12.832364511992532,-17.110818972701665,-10.906451230778458C-16.28308812857012,-8.980537949564388,-3.0252593716639193,-2.9326896589799922,5.302783353463914,-5.180729491989497C13.630826078591749,-7.428769324999001,17.029082771941212,-17.972697281602407,23.172108007704786,-22.814524873540577C29.315133243468356,-27.65635246547875,38.20292702164603,-26.79607969275169,35.06629285778286,-17.987605105228038C31.929658693919702,-9.179130517704385,16.76859658801569,7.577545884615862,8.016460107470067,18.08873390273482C-0.735676373075556,28.599921920853777,-3.07888722826279,32.865621554771444,-1.7373381904442553,28.425519086961405C-0.3957891526257207,23.98541661915137,4.6305197781985825,10.83951204961362,4.271154149638004,5.658672028019268C3.9117885210774257,0.4778320064249151,-1.8332516668680352,3.2620565327739546,-10.54406109401601,3.216525094282281C-19.254870521163983,3.1709936557906078,-30.931449187514474,0.29570625245822124,-23.406620178889145,-0.3026341514140593C-15.881791170263815,-0.9009745552863399,10.84444551333733,0.7776320403014855,17.954378091209144,0.08483234065758727C25.06431066908096,-0.607967358986311,12.557939141223441,-3.672173353861933,4.177604135534998,-1.3572709587849876C-4.202730870153446,0.9576314362919573,-8.457029353672818,8.65164222132147,-0.9235388771660151,10.880413234722944C6.609951599340786,13.10918424812442,25.931231035873758,9.872715489897859,25.264874663025545,4.444773668406292C24.598518290177335,-0.9831681530852769,3.944526107947935,-8.602583037841852,5.457893846428885,-8.50149208932517C6.9712615849098345,-8.400401140808487,30.651989244101134,-0.5788043590185508,25.848851260628855,-0.3682477292489561C21.045713277156572,-0.15769109947936144,-12.241290348979291,-7.558174621730109,-29.914679955385587,-8.754831738723595C-47.58806956179189,-9.951488855717082,-49.647845148468626,-4.944319567453307,-42.77357492362699,-9.37825803056735C-35.89930469878536,-13.812196493681393,-20.090988662425342,-27.687242708173255,-13.285156881213206,-23.512567909098436C-6.479325100001068,-19.33789311002361,-8.675977573936805,2.8865027026178964,-15.083913268238632,9.689084660757835C-21.49184896254046,16.491666618897774,-32.11106787720838,7.872434722536144,-37.42067733454233,3.5628187743553292L-42.730286791876296,-0.7467971738254858" />
  </g>
</svg>
