<?xml version="1.0" encoding="UTF-8" standalone="no"?>
<svg
   xmlns:dc="http://purl.org/dc/elements/1.1/"
   xmlns:cc="http://creativecommons.org/ns#"
   xmlns:rdf="http://www.w3.org/1999/02/22-rdf-syntax-ns#"
   xmlns:svg="http://www.w3.org/2000/svg"
   xmlns="http://www.w3.org/2000/svg"
   version="1.1"
   id="svg2"
   height="300"
   width="300"
   preserveAspectRatio="xMidYMid"
   viewBox="0 0 300 300">
  <metadata
     id="metadata27">
    <rdf:RDF>
      <cc:Work
         rdf:about="">
        <dc:format>image/svg+xml</dc:format>
        <dc:type
           rdf:resource="http://purl.org/dc/dcmitype/StillImage" />
      </cc:Work>
    </rdf:RDF>
  </metadata>
  <defs
     id="defs25" />
  <filter
     y="-50%"
     x="-50%"
     height="500"
     width="300"
     id="symau">
    <feFlood
       id="feFlood5"
       result="element"
       flood-color="#324ab2" />
    <feTurbulence
       id="feTurbulence7"
       result="element_1"
       seed="30"
       numOctaves="8"
       type="fractalNoise"
       baseFrequency="0.02" />
    <feGaussianBlur
       id="feGaussianBlur9"
       result="element_2"
       in="SourceAlpha"
       stdDeviation="4" />
    <feDisplacementMap
       id="feDisplacementMap11"
       result="element_3"
       in2="element_1"
       in="element_2"
       scale="100" />
    <feComposite
       id="feComposite13"
       result="element_4"
       in2="element_3"
       in="element"
       operator="in" />
    <feMerge
       id="feMerge15">
      <feMergeNode
         id="feMergeNode17"
         in="element_4" />
    </feMerge>
  </filter>
  <g
     id="g19"
     transform="translate(150,150) scale(1.5)">
    <path
       id="path21"
       style="filter: url(#symau); stroke: rgb(50, 74, 178);"
       d="M0,0L6.414595188373525,-2.508724851112019C12.82919037674705,-5.017449702224038,25.6583807534941,-10.034899404448076,29.34431027112278,-6.080024159541127C33.03023978875146,-2.1251489146341775,27.572908447261767,10.80205127740376,19.42310555468689,16.188268949366407C11.27330266211202,21.57448662132905,0.43102821845195916,19.41972177321641,-0.2593983627923224,16.01246498044075C-0.949824944036604,12.60520818766509,8.511596337134893,7.945459450226414,10.0470592217532,6.94805387924996C11.582522106371508,5.950648308273505,5.192026594436627,8.615585903759271,8.565925635241602,7.744417154602316C11.939824676046577,6.87324840544536,25.078118269591407,2.4659733116456826,28.992488581861004,-3.610188321390136C32.90685889413061,-9.686349954425953,27.59730592512497,-17.43139812669791,29.174359760078346,-11.297578655474627C30.751413595031718,-5.163759184251342,39.215074233944094,14.848927930467186,37.12577874763366,25.305370587743106C35.03648326132322,35.76181324501902,22.394231649789955,36.662011444852325,16.605694031327857,27.02367311370549C10.817156412865756,17.385334782558655,11.882332787474816,-2.7915400795683247,4.747677679990028,-9.954550699245857C-2.3869774274947595,-17.11756131892339,-17.721464017073394,-11.266707696151474,-19.09625046954826,-12.156020984326538C-20.471036922023124,-13.045334272501602,-7.886123237394214,-20.67481447162364,1.9560220167907825,-17.442765336053867C11.798167270975778,-14.210716200484088,18.89754409471686,-0.11713773022249363,22.963341097641873,4.327606421193045C27.02913810056689,8.772350572608584,28.061355282675834,3.5682604051780684,20.49064427430464,2.9452703360987202C12.919933265933444,2.322280267019372,-3.2537059329178923,6.280390296291192,-8.959834504313378,1.6109090809795745C-14.665963075708863,-3.058572134332043,-9.904581019648496,-16.355644594227098,-7.055021292341034,-13.910196187676108C-4.205461565033572,-11.46474778112512,-3.267724166479012,6.723221491871916,4.246495436478516,8.954765104696307C11.760715039436043,11.186308717520697,25.851416846796543,-2.538573329827557,26.088106447731754,-13.456234331179427C26.324796048666965,-24.373895332531298,12.707473443176891,-32.48433528788678,4.278284858931093,-20.45586138352072C-4.150903725314706,-8.427387479154657,-7.39195828831623,23.740000284932954,0.6993617183127459,29.722484224080162C8.790681724941722,35.70496816322737,28.2143763012012,15.502548277434185,29.74415934100249,11.132273705842001C31.273942380803785,6.761999134249818,14.909813884146892,18.22386987685864,4.137750531512783,17.55934702778859C-6.634312821121327,16.894824178718547,-11.814311029732657,4.103907737969633,-11.571687446010435,0.15796115984010628C-11.329063862288216,-3.787985418289421,-5.663818486232444,1.111037866200438,-3.43923498048669,10.914423442334101C-1.2146514747409365,20.71780901846776,-2.4307298393052013,35.42555688624523,1.3914335940631246,28.961518622037033C5.21359702743145,22.49748035782883,14.074002258732365,-5.138344038365034,13.01302788321736,-3.507975730343766C11.952053507702354,-1.877607422322498,0.9696995253714258,29.018953589913902,-2.9257838227761153,34.324200239377674C-6.821267170923656,39.629446888841436,-3.629879884887811,19.34337917553257,-1.3253008080813224,11.677173667713049C0.9792782687251662,4.010968159893528,2.397049136302298,8.964624857563354,2.890510246547718,13.69845557119679C3.3839713567931384,18.432286284830226,2.953122709706847,22.946291014427274,0.3717918006647509,26.06506189438789C-2.2095391083773457,29.183832774348502,-6.941352279375247,30.907369804672687,-7.574641233494134,24.659593569997842C-8.207930187613021,18.411817335323,-4.742694924852895,4.1927278356491335,2.8368144219683904,-0.49403537839285305C10.416323768789676,-5.18079859243484,22.110107199672118,-0.335235520844944,29.340119269403363,1.5295843493193746C36.57013133913461,3.394404219483693,39.33637204771466,2.2784808882224343,38.17989066352714,0.9336566055416398C37.023409279339624,-0.41116767713915514,31.944205802384538,-1.9848929112394862,29.404604063906994,-2.7717555282896518L26.865002325429455,-3.558618145339817" />
  </g>
</svg>
