<?xml version="1.0" encoding="UTF-8" standalone="no"?>
<svg
   xmlns:dc="http://purl.org/dc/elements/1.1/"
   xmlns:cc="http://creativecommons.org/ns#"
   xmlns:rdf="http://www.w3.org/1999/02/22-rdf-syntax-ns#"
   xmlns:svg="http://www.w3.org/2000/svg"
   xmlns="http://www.w3.org/2000/svg"
   version="1.1"
   id="svg2"
   height="300"
   width="300"
   preserveAspectRatio="xMidYMid"
   viewBox="0 0 300 300">
  <metadata
     id="metadata27">
    <rdf:RDF>
      <cc:Work
         rdf:about="">
        <dc:format>image/svg+xml</dc:format>
        <dc:type
           rdf:resource="http://purl.org/dc/dcmitype/StillImage" />
      </cc:Work>
    </rdf:RDF>
  </metadata>
  <defs
     id="defs25" />
  <filter
     y="-50%"
     x="-50%"
     height="500"
     width="300"
     id="sxjgg">
    <feFlood
       id="feFlood5"
       result="element"
       flood-color="#f75394" />
    <feTurbulence
       id="feTurbulence7"
       result="element_1"
       seed="5"
       numOctaves="8"
       type="fractalNoise"
       baseFrequency="0.02" />
    <feGaussianBlur
       id="feGaussianBlur9"
       result="element_2"
       in="SourceAlpha"
       stdDeviation="5" />
    <feDisplacementMap
       id="feDisplacementMap11"
       result="element_3"
       in2="element_1"
       in="element_2"
       scale="100" />
    <feComposite
       id="feComposite13"
       result="element_4"
       in2="element_3"
       in="element"
       operator="in" />
    <feMerge
       id="feMerge15">
      <feMergeNode
         id="feMergeNode17"
         in="element_4" />
    </feMerge>
  </filter>
  <g
     id="g19"
     transform="translate(150,150) scale(1.5)">
    <path
       id="path21"
       style="filter: url(#sxjgg); stroke: rgb(247, 83, 148);"
       d="M0,0L1.1109136807285742,-0.05133831217954672C2.2218273614571484,-0.10267662435909344,4.443654722914297,-0.2053532487181869,3.0993694250802575,1.8852833858105347C1.755084127246218,3.975920020339256,-3.155313829879009,8.259869913755793,-9.692537746872144,7.46086548495484C-16.229761663865276,6.66186105615389,-24.39381154072632,0.7799023051354497,-25.75104736161179,-1.2690329363846413C-27.108283182497267,-3.3179681779047323,-21.658704947407173,-1.5338799099264748,-11.100019422417116,1.3686925446583516C-0.5413338974270623,4.271264999243178,15.126458917462953,8.292321640434574,23.334575970323904,5.477079029061228C31.542693023184857,2.6618364176878826,32.291134314016745,-6.989705446250204,27.68791914974224,-6.889951801851152C23.08470398546773,-6.7901981574520995,13.129832366086827,3.060850995284091,-1.457013287038749,4.884051509654125C-16.043858940164327,6.707252024024156,-35.262678627034575,0.5026039000280313,-30.567245882738113,-9.60322329410112C-25.871813138441656,-19.709050488230268,2.7378720370215177,-33.71605675249245,8.258901849493203,-31.058408373386857C13.779931661964886,-28.400759994281266,-3.7876938885549194,-9.07845697180791,-12.045306561907271,-3.8310354730871268C-20.302919235259623,1.4163860256336562,-19.250519031444522,-7.411073999398134,-14.858983227038383,-3.3525997873884705C-10.467447422632244,0.705874424621193,-2.7367760176350657,17.65028287367231,-1.3089935153691905,21.40890619317684C0.11878898689668471,25.167529512681373,-4.756317413568743,15.740367702639317,-5.073617420727315,10.557598177882182C-5.390917427885887,5.374828653125047,-1.1504110417376037,4.436451413652834,1.7691696682146336,4.738024297642207C4.688750378166871,5.03959718163158,6.2874054119230625,6.58112018908254,7.919992751178948,8.298685395175834C9.552580090434834,10.016250601269132,11.219099735190413,11.909858006004761,8.272679330647179,8.853548503183971C5.326258926103948,5.797239000363181,-2.2331015277380972,-2.2089874100140303,-4.6444475902085465,-6.697438480873874C-7.055793652678995,-11.185889551733718,-4.319125323777848,-12.156565283076194,2.6625947243628287,-7.3268313750626834C9.644314772503506,-2.497097467049173,20.871086539883713,8.133046080320325,25.006277126639368,8.006192415190116C29.14146771339503,7.879338750059904,26.18507711952614,-3.004512127570015,28.19325090180319,-9.936645886400687C30.20142468408024,-16.86877964523136,37.17416284250322,-19.849196285262785,35.01648344291173,-18.537320482434204C32.85880404332023,-17.225444679605626,21.570707085714247,-11.621276433917043,11.768269931232577,-11.555077710755914C1.9658327767509078,-11.488878987594786,-6.350944574606447,-16.960649786961113,0.9295285334262786,-14.372090992295043C8.210001641459005,-11.783532197628974,31.087725208881814,-1.1346438089305106,37.84778829849513,-4.587689080273997C44.60785138810846,-8.040734351617484,35.25025399991229,-25.595713283002922,31.966404066510826,-25.021710963413064C28.68255413310936,-24.447708643823205,31.472451654502596,-5.744725073258053,19.342157491500522,6.119331456041941C7.211863328498449,17.983387985341935,-19.838622518898934,23.00851747337677,-16.700558670373002,26.93144045085844C-13.562494821847068,30.854363428340108,19.76411872260218,33.67507989526861,26.478213152456625,29.33372146516565C33.192307582311074,24.99236303506268,13.293882897570715,13.488929707928248,-4.065960577188324,3.8848665348511564C-21.425804051947363,-5.719196638225935,-36.24706631672508,-13.423889657245685,-35.79405161562982,-20.153565162879985C-35.34103691453456,-26.883240668514283,-19.613745247566317,-32.63789866076313,-9.189406585690818,-27.98062623906625C1.2349320761846823,-23.323353817369373,6.356317732967437,-8.254150981726774,0.13834832731294266,2.2160182045659242C-6.079621078341551,12.68618739085862,-23.636945546433296,18.557322927801415,-22.320912292488423,13.020785184906906C-21.004879038543553,7.484247442012396,-0.8154880625620677,-9.459963580719414,1.0077812432591804,-14.110432266303317C2.8310505490804285,-18.760900951887223,-13.71180181525856,-11.117627300323218,-21.983227997428056,-7.295990474541216L-30.25465417959755,-3.474353648759214" />
  </g>
</svg>
