<svg viewBox="0 0 300 300" preserveAspectRatio="xMidYMid" width="300" height="300"><filter id="bjqyx" width="300" height="500" x="-50%" y="-50%"><feFlood flood-color="#ffa089" result="element"></feFlood><feTurbulence baseFrequency="0.02" type="fractalNoise" numOctaves="8" seed="7" result="element_1"></feTurbulence><feGaussianBlur stdDeviation="4" in="SourceAlpha" result="element_2"></feGaussianBlur><feDisplacementMap scale="100" in="element_2" in2="element_1" result="element_3"></feDisplacementMap><feComposite operator="in" in="element" in2="element_3" result="element_4"></feComposite><feMerge><feMergeNode in="element_4"></feMergeNode></feMerge></filter><g transform="translate(150,150) scale(1.5)"><path d="M0,0L1.979219061188423,0.1227210090703408C3.958438122376846,0.2454420181406816,7.916876244753692,0.4908840362813632,9.936178513646873,4.80255085423164C11.955480782540054,9.114217672181917,12.035647197949567,17.49210928994179,15.408180497374842,18.79741791438945C18.780713796800114,20.102726538837107,25.44561398024115,14.335452169972552,20.266773974963684,15.940180520860627C15.087933969686222,17.544908871748703,-1.934646224309736,26.52163994238941,-11.029137982073163,25.139654556067963C-20.123629739836588,23.757669169746514,-21.29003306136748,12.016967326462915,-13.439237878288216,2.63771395978585C-5.588442695208947,-6.7415394068912144,11.279550992480482,-13.759344296961743,13.488962404236897,-13.491145116236387C15.698373815993314,-13.222945935511031,3.2492029518167183,-5.668742683989793,-9.65830846159367,-1.7550208761100148C-22.56581987500406,2.158700931769763,-35.93167183764824,2.4319412960080804,-33.093302499428184,-6.485590119505855C-30.254933161208136,-15.40312153501979,-11.212342522123853,-33.51142473028598,-2.0567605126440354,-36.71596186679442C7.098821496835782,-39.92049900330287,6.367394876711137,-28.221270081053582,4.824695003058138,-18.44207373192722C3.2819951294051375,-8.662877382800858,0.928022002223785,-0.8037136067974231,-1.2173424416145937,2.3583503661138545C-3.3627068854529725,5.520414339025132,-5.299462645948378,3.9853785088442533,-5.982284757886275,2.944069312421048C-6.6651068698241716,1.9027601159978427,-6.093995333204561,1.355177553332311,-4.514186649551053,0.14175083856231596C-2.934377965897544,-1.071675876207679,-0.3458721352101375,-2.9509467430821372,-1.6773239437624436,0.5670771965814616C-3.00877575231475,4.08510113624506,-8.260185200106768,13.000419882446716,-11.370704415187358,13.719583832681407C-14.481223630267948,14.438747782916096,-15.450852612637107,6.96175693718382,-11.300081359754623,2.4531385483454375C-7.14931010687214,-2.055479840492944,2.1218613812619838,-3.595725772437432,4.6870206032670705,-5.006394781546196C7.252179825272156,-6.417063790654961,3.1113267811482044,-7.698155876928,-6.802134578003711,-7.206875365439178C-16.715595937155626,-6.715594853950353,-32.40166561133551,-4.451941744699666,-35.232902854205044,1.1695643314540378C-38.064140097074585,6.791070407607743,-28.040544908633777,15.770429450664462,-17.571253712676377,16.19531434007174C-7.1019625167189755,16.620199229479013,3.8130246867550213,8.49060996523684,12.876375669535308,8.248873853341335C21.939726652315596,8.007137741445828,29.15144141440217,15.653254781896985,21.10429762690299,12.906117664809376C13.057153839403814,10.158980547721765,-10.248848497681124,-2.9814107269046124,-23.472755800205952,-3.328036548521159C-36.69666310273078,-3.674662370137705,-39.838475370695505,8.77247726125558,-34.961470663241,16.300010680261014C-30.0844659557865,23.827544099266454,-17.18864427291277,26.435471305884043,-10.480884182956432,23.798304168638154C-3.773124093000092,21.16113703139227,-3.2534255959611365,13.278875550282905,-7.145352468418961,0.9074016715340871C-11.037279340876786,-11.46407220721473,-19.34083158283139,-28.324758483603006,-19.35678465866934,-23.696406228654233C-19.372737734507293,-19.06805397370546,-11.10109164422859,7.049336812580361,-14.409024060762682,9.62509412665304C-17.716956477296776,12.200851440725721,-32.604467400643664,-8.76502471741474,-28.73185974599766,-12.602778955630555C-24.859252091351664,-16.44053319384637,-2.226525858712776,-3.150165512137539,5.568146197020304,5.5066796212662315C13.362818252753383,14.163524754670004,6.319436131580654,18.186847339768715,8.112344730438519,15.656826372131729C9.905253329296384,13.12680540449474,20.534452648184843,4.043440884122056,18.988747036779845,-2.4898510710552153C17.44304142537484,-9.023143026232486,3.72243088367638,-13.006362416214344,1.1739471676120057,-9.60946759715466C-1.3745365484523688,-6.212572778094976,7.249106561117344,4.564436250006251,0.5047873191528556,6.986705010206447C-6.239531922811631,9.408973770406643,-28.35181351631032,3.47650226270581,-39.40795431305966,0.5102665088553928L-50.46409510980901,-2.4559692449950243" style="filter: url(#bjqyx); stroke: rgb(255, 160, 137);"></path></g></svg>