<svg viewBox="0 0 300 300" preserveAspectRatio="xMidYMid" width="300" height="300"><filter id="gtonh" width="300" height="500" x="-50%" y="-50%"><feFlood flood-color="#8f509d" result="element"></feFlood><feTurbulence baseFrequency="0.02" type="fractalNoise" numOctaves="8" seed="22" result="element_1"></feTurbulence><feGaussianBlur stdDeviation="4" in="SourceAlpha" result="element_2"></feGaussianBlur><feDisplacementMap scale="100" in="element_2" in2="element_1" result="element_3"></feDisplacementMap><feComposite operator="in" in="element" in2="element_3" result="element_4"></feComposite><feMerge><feMergeNode in="element_4"></feMergeNode></feMerge></filter><g transform="translate(150,150) scale(1.5)"><path d="M0,0L6.153299979058961,-6.808109584311991C12.306599958117921,-13.616219168623982,24.613199916235843,-27.232438337247963,17.479163575245536,-33.87494269975831C10.345127234255227,-40.517447062268644,-16.22954540584331,-40.18623661866535,-23.553097750943554,-37.81650970827619C-30.8766500960438,-35.446782797887025,-18.94908214614575,-31.038539420712002,-12.177296369222548,-23.15651642666835C-5.405510592299344,-15.274493432624698,-3.789506988350986,-3.9186908217124197,-1.988153113630429,1.4833953747052098C-0.18679923890987093,6.885481571122839,1.7999049065828872,6.333851353045819,1.632254018729044,4.9968846852932405C1.4646031308752012,3.6599180175406616,-0.8574027903252426,1.5376149001125228,5.69929385043594,6.694944423620376C12.255990491197124,11.852273947128229,27.691389693919934,24.289236111572073,31.727941852403724,23.869309740880144C35.76449401088752,23.449383370188215,28.402199125132295,10.172568464360513,27.93548134460339,6.63627546876015C27.468763564074486,3.0999824731597867,33.8976228887719,9.304211387786761,32.07981054795783,11.307053075415253C30.26199820714376,13.309894763043744,20.197514200818198,11.11134922367375,8.459140753944428,1.864299971771068C-3.2792326929293445,-7.382749280131613,-16.69149558035133,-23.678302244566982,-12.657760116565772,-25.305382424426817C-8.62402465278021,-26.93246260428666,12.855709162212895,-13.891069999570965,14.999832770071285,-12.176730970688084C17.143956377929673,-10.462391941805201,-0.047530221346654855,-20.075106488755132,-7.1505758461102875,-14.054882139197392C-14.25362147087392,-8.034657789639654,-11.268226121124856,13.618505456425753,-12.179746896657312,21.775054342806225C-13.091267672189767,29.9316032291867,-17.899704573003742,24.591537755882236,-19.894546247948043,23.447264441297847C-21.889387922892347,22.302991126713465,-21.070634371966975,25.354509970849158,-15.33561177904701,27.994703718013C-9.600589186127042,30.63489746517684,1.0507024487875185,32.86376611536883,4.746959942581432,27.325434792025725C8.443217436375345,21.78710346868262,5.184440789048612,8.481572171804421,-6.182241013436021,3.133463894643204C-17.548922815920655,-2.2146443825180127,-37.023509773563184,0.39467036003775147,-39.33259806179447,-2.998712069782167C-41.64168635002575,-6.392094499602086,-26.785275968845788,-15.788174101797686,-16.61345041330452,-20.836609688861074C-6.441624857763251,-25.88504527592446,-0.9543841278606804,-26.585836847855628,-0.916874899296547,-24.586919693021855C-0.8793656707324136,-22.588002538188086,-6.291587943506717,-17.889376656589377,-4.711926769419996,-19.348778593228015C-3.1322655953332754,-20.808180529866657,5.43927902561447,-28.42561028474265,2.7969953316808294,-26.3516376762868C0.1547116377471891,-24.27766506783095,-13.701400371067837,-12.512290096043252,-16.053429679242768,-7.781947055649762C-18.405458987417706,-3.051604015256272,-9.253405594952548,-5.356292906256988,-4.756455728481173,-6.32917353250091C-0.259505862009798,-7.302054158744831,-0.41765952153220537,-6.943126520231957,-5.524737978872968,-4.479902377851852C-10.631816436213729,-2.0166782354717476,-20.687819691372844,2.5508424107755885,-16.61319141328218,1.5888956520111899C-12.538563135191513,0.6269488932467908,5.666696676148938,-5.864465270529343,11.080989219473139,-7.528589749084368C16.495281762797344,-9.192714227639392,9.1186070381053,-6.029549020973307,2.6236787108299016,-4.038984633378501C-3.8712496164454957,-2.048420245783695,-9.484431546304245,-1.230456677260167,-0.4258867413951162,-4.458479770125193C8.632658063514015,-7.686502862990218,32.36292960319103,-14.960512617243797,39.94692871859847,-11.421520801896106C47.53092783400591,-7.882528986548414,38.968654525143776,6.469464398400547,30.020544465821896,11.906832738388312C21.07243440650001,17.344201078376077,11.738487596718375,13.866944373402648,15.127377500618596,13.25177553105335C18.516267404518818,12.63660668870405,34.6279940221009,14.883525708978883,29.727509690032498,16.271734893409736C24.827025357964104,17.659944077840585,-1.0856699237547716,18.189443426427452,-14.04201756461421,18.454193100720886L-26.998365205473647,18.718942775014323" style="filter: url(#gtonh); stroke: rgb(143, 80, 157);"></path></g></svg>