<?xml version="1.0" encoding="UTF-8" standalone="no"?>
<svg
   xmlns:dc="http://purl.org/dc/elements/1.1/"
   xmlns:cc="http://creativecommons.org/ns#"
   xmlns:rdf="http://www.w3.org/1999/02/22-rdf-syntax-ns#"
   xmlns:svg="http://www.w3.org/2000/svg"
   xmlns="http://www.w3.org/2000/svg"
   version="1.1"
   id="svg2"
   height="300"
   width="300"
   preserveAspectRatio="xMidYMid"
   viewBox="0 0 300 300">
  <metadata
     id="metadata27">
    <rdf:RDF>
      <cc:Work
         rdf:about="">
        <dc:format>image/svg+xml</dc:format>
        <dc:type
           rdf:resource="http://purl.org/dc/dcmitype/StillImage" />
      </cc:Work>
    </rdf:RDF>
  </metadata>
  <defs
     id="defs25" />
  <filter
     y="-50%"
     x="-50%"
     height="500"
     width="300"
     id="jesex">
    <feFlood
       id="feFlood5"
       result="element"
       flood-color="#ffffff" />
    <feTurbulence
       id="feTurbulence7"
       result="element_1"
       seed="75"
       numOctaves="8"
       type="fractalNoise"
       baseFrequency="0.02" />
    <feGaussianBlur
       id="feGaussianBlur9"
       result="element_2"
       in="SourceAlpha"
       stdDeviation="4" />
    <feDisplacementMap
       id="feDisplacementMap11"
       result="element_3"
       in2="element_1"
       in="element_2"
       scale="100" />
    <feComposite
       id="feComposite13"
       result="element_4"
       in2="element_3"
       in="element"
       operator="in" />
    <feMerge
       id="feMerge15">
      <feMergeNode
         id="feMergeNode17"
         in="element_4" />
    </feMerge>
  </filter>
  <g
     id="g19"
     transform="translate(150,150) scale(1.5)">
    <path
       id="path21"
       style="filter: url(#jesex); stroke: rgb(255, 255, 255);"
       d="M0,0L3.422761842313014,6.1350762027676655C6.845523684626028,12.270152405535331,13.691047369252056,24.540304811070662,14.957141116158908,24.417294083949354C16.22323486306576,24.294283356828046,11.909898672253435,11.778109497050098,-0.18328107126225035,7.801381328869414C-12.276460814777938,3.8246531606887295,-32.14948411099699,8.387370684105308,-33.015583349691276,10.479774841120518C-33.881682588385566,12.572178998135724,-15.740857769555104,12.194269788749562,-12.0115718160365,10.597382946808882C-8.282285862517897,9.000496104868201,-18.964538774311155,6.184631630373005,-15.355850715909916,14.051111706609321C-11.74716265750868,21.917591782845637,6.152466371087051,40.46641640981347,6.503041276810254,46.17122089399622C6.853616182533457,51.87602537817897,-10.344863034615868,44.736809719576655,-13.012247532172227,37.942247400608245C-15.679632029728584,31.147685081639835,-3.815921807691973,24.69777610230534,-4.325177969575902,20.70280934509611C-4.834434131459831,16.70784258788688,-17.7166566772643,15.167818052802918,-19.849226191223067,18.307527234820927C-21.981795705181842,21.447236416838937,-13.364712187294916,29.266679315958918,-3.624284366345676,29.74992164732854C6.116143454603562,30.23316397869816,16.979915578615113,23.38020574231742,16.75801987231097,13.727026016253502C16.53612416600683,4.073846290189583,5.22856062938699,-8.37955492555751,9.154861741460198,-13.465100292329991C13.081162853533408,-18.55064565910247,32.24132861429966,-16.268335176900333,36.33867765714312,-13.739626621753203C40.43602669998657,-11.210918066606073,29.470559024907224,-8.435811438513948,11.311696816472665,-1.152186357972675C-6.847165391961898,6.131438722568599,-32.199422133751675,17.923582255559023,-33.42983568841237,22.365175961537766C-34.66024924307307,26.806769667516512,-11.768819610604695,23.897813546483583,-1.1056092760253202,17.01413564878243C9.557601058554052,10.13045775108127,7.992592095244422,-0.7279419232881104,6.122080140128179,-6.791865340266159C4.2515681850119345,-12.855788757244207,2.075553238089077,-14.125235916830924,-2.471840182677783,-12.6291295134058C-7.0192336034446425,-11.133023109980677,-13.938005498055505,-6.871363143543713,-12.620091766376234,-5.244070909904703C-11.302178034696961,-3.6167786762656946,-1.7475786767275547,-4.62385417542464,3.4828797688387585,-7.12940339680403C8.713338214405072,-9.63495261818342,9.619655747568292,-13.638975561783255,10.599162442642859,-13.441929135460418C11.578669137717426,-13.24488270913758,12.631364994703342,-8.846766912892068,19.942012270181454,-8.687894423844657C27.252659545659565,-8.529021934797244,40.82125823962987,-12.60939275294793,38.67774307864738,-11.371553546924435C36.53422791766488,-10.13371434090094,18.678598901729575,-3.577665110703265,3.5465746756983876,-0.05975907500577338C-11.585449550332802,3.458146960691718,-23.99386898645988,3.937909801889025,-26.120796784958628,8.588896710439283C-28.24772458345738,13.23988361898954,-20.093160744327804,22.06209459489275,-16.564641201453664,20.53280279686387C-13.036121658579525,19.003510998834994,-14.133646411960823,7.12271642687403,-5.2356792673796155,3.9107812154188184C3.6622878772015923,0.6988460039636073,22.555746919745307,6.155770153014148,27.7836065164502,15.681253856704721C33.01146611315509,25.206737560395297,24.57372626402116,38.800780818725904,15.697671334244486,41.06413148285076C6.821616404467816,43.32748214697561,-2.492753605951598,34.260140216894705,-5.400763959143443,22.3254992293159C-8.30877431233529,10.39085824173709,-4.810425008299568,-4.41108180333962,1.6328623881468172,-6.735669286121677C8.076149784593202,-9.060256768903734,17.464375273450248,1.0925083106088636,19.228542399461997,-0.5245519827425182C20.99270952547375,-2.1416122760939,15.132818288640202,-15.528497942309262,15.025767311270982,-19.76270921104644C14.918716333901761,-23.996920479783626,20.564505615996865,-19.078457351042626,14.540895011928876,-9.529774199684875C8.517284407860885,0.018908951672877095,-9.175726082370202,14.197812125647383,-18.02223132748575,21.287263712634633L-26.868736572601293,28.37671529962189" />
  </g>
</svg>
