<?xml version="1.0" encoding="UTF-8" standalone="no"?>
<svg
   xmlns:dc="http://purl.org/dc/elements/1.1/"
   xmlns:cc="http://creativecommons.org/ns#"
   xmlns:rdf="http://www.w3.org/1999/02/22-rdf-syntax-ns#"
   xmlns:svg="http://www.w3.org/2000/svg"
   xmlns="http://www.w3.org/2000/svg"
   version="1.1"
   id="svg2"
   height="300"
   width="300"
   preserveAspectRatio="xMidYMid"
   viewBox="0 0 300 300">
  <metadata
     id="metadata27">
    <rdf:RDF>
      <cc:Work
         rdf:about="">
        <dc:format>image/svg+xml</dc:format>
        <dc:type
           rdf:resource="http://purl.org/dc/dcmitype/StillImage" />
      </cc:Work>
    </rdf:RDF>
  </metadata>
  <defs
     id="defs25" />
  <filter
     y="-50%"
     x="-50%"
     height="500"
     width="300"
     id="wvumd">
    <feFlood
       id="feFlood5"
       result="element"
       flood-color="#ff43a4" />
    <feTurbulence
       id="feTurbulence7"
       result="element_1"
       seed="23"
       numOctaves="8"
       type="fractalNoise"
       baseFrequency="0.02" />
    <feGaussianBlur
       id="feGaussianBlur9"
       result="element_2"
       in="SourceAlpha"
       stdDeviation="4" />
    <feDisplacementMap
       id="feDisplacementMap11"
       result="element_3"
       in2="element_1"
       in="element_2"
       scale="100" />
    <feComposite
       id="feComposite13"
       result="element_4"
       in2="element_3"
       in="element"
       operator="in" />
    <feMerge
       id="feMerge15">
      <feMergeNode
         id="feMergeNode17"
         in="element_4" />
    </feMerge>
  </filter>
  <g
     id="g19"
     transform="translate(150,150) scale(1.5)">
    <path
       id="path21"
       style="filter: url(#wvumd); stroke: rgb(255, 67, 164);"
       d="M0,0L1.6070667798581404,-9.684187926693648C3.214133559716281,-19.368375853387295,6.428267119432562,-38.73675170677459,9.741499663884472,-38.555984332637806C13.05473220833638,-38.37521695850102,16.46706373752392,-18.645306356840155,15.150734913497272,-9.00395314550109C13.834406089470628,0.6374000658379757,7.789416912229798,0.19019588685524047,-3.986434140182139,2.5922289637695735C-15.762285192594074,4.994262040683906,-33.268998120177116,10.245532373495307,-37.724520908573545,7.31109121662894C-42.180043696969975,4.3766500597625715,-33.584376346179795,-6.743502586781565,-30.300101154524818,-3.6076674790280725C-27.01582596286984,-0.4718323712745782,-29.042942930350073,16.919990490776545,-27.21148863767623,14.50200951817879C-25.380034345002386,12.084028545581035,-19.69000879217446,-10.1437562616656,-13.05003628000511,-13.451383868430977C-6.410063767835759,-16.759011475196353,1.1798557036750186,-1.1464818814804687,1.0657485452181295,1.3806169640778267C0.9516413867612403,3.907715809636122,-6.866492401663315,-6.650616092963169,-4.0457406099660105,-16.22096441439961C-1.2249888182687059,-25.79131273583605,12.234648553550459,-34.37367747610965,20.974674057878005,-38.284056678916144C29.714699562205553,-42.19443588172264,33.73511319904148,-41.43282954706205,37.3589331504432,-28.570961880985806C40.982753101844914,-15.709094214909559,44.20997936781242,9.253034782582336,36.419785406552364,20.812896554088603C28.629591445292313,32.372758325594866,9.821977256804699,30.530352871115504,2.493960971696878,23.46987199738263C-4.834055313410943,16.409391123649755,-0.6824736951389729,4.1308348306633675,-4.533652813174673,7.197053168634202C-8.384831931210375,10.263271506605037,-20.238771785553745,28.674264475533093,-24.358499445004036,25.666457349146825C-28.478227104454326,22.658650222760564,-24.863742569011535,-1.7679569989400203,-16.88103143927977,-14.866911781023456C-8.898320309548005,-27.96586656310689,3.452617414472739,-29.737168905573174,9.65814812215445,-31.49773704792901C15.863678829836164,-33.258305190284844,15.923802521178846,-35.00813913253023,16.921058031264533,-34.94683371198648C17.918313541350216,-34.885528291442725,19.852700870178904,-33.013083508109844,15.350079759863279,-26.810241951401434C10.847458649547654,-20.607400394693023,-0.09217089991228278,-10.074162064609094,-8.024934854477593,-0.5614586720960588C-15.957698809042903,8.951244720416975,-20.883597168713585,17.443413175359115,-22.617584578112883,17.944331303759146C-24.35157198751218,18.445249432159184,-22.893648446640096,10.954917234017111,-19.379530754070956,9.565303342696955C-15.865413061501814,8.175689451376801,-10.295101217235615,12.88679386687856,1.5755678671329942,9.529661938983029C13.446236951501604,6.172530011087495,31.617263275972626,-5.252838260205329,38.45797969089614,-12.254090496969647C45.29869610581964,-19.255342733733965,40.80910261119563,-21.832478935969775,36.11826218897383,-16.314203524646462C31.42742176675204,-10.795928113323152,26.535334416932464,2.8177589115592845,15.862884873696645,0.7146882372325845C5.190435330460829,-1.3883824370941156,-11.262376406191224,-19.20821081062995,-14.442949150940885,-26.612747110027478C-17.623521895690548,-34.017283409425005,-7.53185564853782,-31.00652763468423,-0.6259342290464112,-26.096992119374736C6.279987190444998,-21.187456604065247,10.000163782275086,-14.37914134818704,10.005459937011498,-7.245849957635765C10.010756091747908,-0.11255856708448686,6.301171809390641,7.3457089581398645,9.894694388825634,5.218757343141004C13.488216968260629,3.0918057281421447,24.38484640948788,-8.620365027079925,17.709009375400598,-8.26085629478682C11.033172341313309,-7.901347562493711,-13.215131168088519,4.529840657314574,-17.621751116004532,15.082079497788264C-22.028371063920552,25.634318338261956,-6.593307450350755,34.30760779940105,4.552276935992864,38.52659438969234C15.697861322336482,42.745580979983636,22.553966481453926,42.51026469942713,20.583821242807762,34.99475631199779C18.613676004161597,27.47924792456844,7.817280367751824,12.683547430266254,2.419082549546938,5.285697183115161L-2.9791152686579476,-2.1121530640359323" />
  </g>
</svg>
