<svg viewBox="0 0 300 300" preserveAspectRatio="xMidYMid" width="300" height="300"><filter id="ibkpe" width="300" height="500" x="-50%" y="-50%"><feFlood flood-color="#56887d" result="element"></feFlood><feTurbulence baseFrequency="0.02" type="fractalNoise" numOctaves="8" seed="38" result="element_1"></feTurbulence><feGaussianBlur stdDeviation="4" in="SourceAlpha" result="element_2"></feGaussianBlur><feDisplacementMap scale="100" in="element_2" in2="element_1" result="element_3"></feDisplacementMap><feComposite operator="in" in="element" in2="element_3" result="element_4"></feComposite><feMerge><feMergeNode in="element_4"></feMergeNode></feMerge></filter><g transform="translate(150,150) scale(1.5)"><path d="M0,0L0.06847793351849703,0.6590132268863056C0.13695586703699406,1.3180264537726112,0.2739117340739881,2.6360529075452224,0.35714652899384586,2.869688376886636C0.4403813239137036,3.1033238462280504,0.469895046716425,2.2525683311382667,-4.246300792245204,0.7173811625836095C-8.962496631206832,-0.8178060059710476,-18.424402031932814,-3.0374248279905784,-14.263022682319276,2.7629325996534546C-10.101643332705738,8.563290027297487,7.683020767247317,22.383623704605085,22.052095209884207,23.311882334614406C36.421169652521094,24.240140964623723,47.37465443784181,12.276324547334765,36.53933672002759,7.796473704983204C25.704019002213364,3.3166228626316436,-6.920101218735809,6.320737595217482,-15.276341773370836,4.228980409275312C-23.632582328005864,2.1372232233331436,-7.720943216326743,-5.050405881137033,3.4870017325245106,-14.901786102975926C14.694946681375765,-24.753166324814817,21.199197467399152,-37.26829766402243,17.462011407670246,-29.90259341012648C13.724825347941335,-22.536889156230536,-0.25379755753987077,4.70965069076896,1.585703627785704,11.07810501549693C3.4252048131112787,17.4465593402249,21.082830089243636,2.936928142681344,29.74205759043518,-8.618387769652312C38.40128509162673,-20.173703681985966,38.06211481787747,-28.77470430910972,24.820504563007802,-25.664743601083085C11.578894308138143,-22.554782893056448,-14.565155927851922,-7.733860849879425,-16.879809669617636,2.1871704166561763C-19.194463411383346,12.108201683191776,2.320279341075299,17.129342173085956,12.30684084848037,16.887535421218644C22.29340235588544,16.64572866935133,20.751782618236938,11.140974675722534,16.260950287123574,0.5047895650377336C11.770117956010216,-10.131395545647067,4.330073031432,-25.89901177338787,5.957571261129454,-24.755713084258268C7.585069490826908,-23.612414395128674,18.280110874800034,-5.558200789128676,15.86258431664631,2.45633384272095C13.445057758492586,10.470868474570576,-2.0850367417879845,8.44572413226983,-2.1865607453076477,8.4760069297317C-2.288084748827311,8.506289727193568,13.038961744413934,10.591999664418049,22.360145577881145,5.5226767834353545C31.681329411348358,0.4533539024526618,34.996650585041536,-11.771001796737206,32.53874702786669,-18.189536604002992C30.080843470691846,-24.608071411268774,21.849715182648985,-25.22078532661048,21.142793564962354,-24.34207557112822C20.435871947275725,-23.46336581564596,27.253156999945332,-21.09323238933974,25.931892708372338,-11.872493151613334C24.610628416799347,-2.651753913886928,15.150814780983758,13.419591135259665,8.269558772372978,19.620966462330156C1.3883027637621979,25.822341789400646,-2.914395617643772,22.15374739439503,0.13355228948977516,17.055868377944616C3.181500196623322,11.957989361494201,13.580094392296385,5.430825723598989,17.710969309600664,5.862313150759785C21.84184422690494,6.293800577920581,19.704999865840435,13.683939070137384,12.596698399108151,7.75489193445522C5.48839693237587,1.825844798773053,-6.591361640024186,-17.422387964808085,-8.621204554526061,-20.530130857754013C-10.651047469027937,-23.63787375069995,-2.6309747256316314,-10.605126773010676,3.2234616471803608,2.170792637419858C9.077898019992354,14.946712047850392,12.766698022220032,27.465803891022187,11.475873637592972,27.19374962344836C10.185049252965909,26.921695355874533,3.914600481484107,13.858494977555083,-5.402643040045169,1.9398982864070629C-14.719886561574445,-9.978698404740957,-27.083924833151194,-20.752691408717546,-26.999723408756537,-25.84112539045803C-26.91552198436188,-30.92955937219851,-14.383080863995815,-30.33243433170289,-8.88966501642552,-29.962352480795502C-3.396249168855223,-29.592270629888123,-4.9418585940806965,-29.44923196856898,-4.208738461570997,-29.831635233463146C-3.475618329061297,-30.21403849835731,-0.46376863881642416,-31.121883689464788,0.975481442841116,-28.300608320187074C2.4147315244986562,-25.479332950909356,2.2813819975688636,-18.92893702124645,0.8185466078076704,-13.642061818159165C-0.6442887819535228,-8.355186615071878,-3.436610034546117,-4.331832138560212,-4.832770660842414,-2.320154900304378L-6.228931287138711,-0.30847766204854454" style="filter: url(#ibkpe); stroke: rgb(86, 136, 125);"></path></g></svg>