<?xml version="1.0" encoding="UTF-8" standalone="no"?>
<svg
   xmlns:dc="http://purl.org/dc/elements/1.1/"
   xmlns:cc="http://creativecommons.org/ns#"
   xmlns:rdf="http://www.w3.org/1999/02/22-rdf-syntax-ns#"
   xmlns:svg="http://www.w3.org/2000/svg"
   xmlns="http://www.w3.org/2000/svg"
   version="1.1"
   id="svg2"
   height="300"
   width="300"
   preserveAspectRatio="xMidYMid"
   viewBox="0 0 300 300">
  <metadata
     id="metadata27">
    <rdf:RDF>
      <cc:Work
         rdf:about="">
        <dc:format>image/svg+xml</dc:format>
        <dc:type
           rdf:resource="http://purl.org/dc/dcmitype/StillImage" />
      </cc:Work>
    </rdf:RDF>
  </metadata>
  <defs
     id="defs25" />
  <filter
     y="-50%"
     x="-50%"
     height="500"
     width="300"
     id="cumij">
    <feFlood
       id="feFlood5"
       result="element"
       flood-color="#a0e6ff" />
    <feTurbulence
       id="feTurbulence7"
       result="element_1"
       seed="80"
       numOctaves="8"
       type="fractalNoise"
       baseFrequency="0.02" />
    <feGaussianBlur
       id="feGaussianBlur9"
       result="element_2"
       in="SourceAlpha"
       stdDeviation="5" />
    <feDisplacementMap
       id="feDisplacementMap11"
       result="element_3"
       in2="element_1"
       in="element_2"
       scale="100" />
    <feComposite
       id="feComposite13"
       result="element_4"
       in2="element_3"
       in="element"
       operator="in" />
    <feMerge
       id="feMerge15">
      <feMergeNode
         id="feMergeNode17"
         in="element_4" />
    </feMerge>
  </filter>
  <g
     id="g19"
     transform="translate(150,150) scale(1.5)">
    <path
       id="path21"
       style="filter: url(#cumij); stroke: rgb(160, 230, 255);"
       d="M0,0L1.0079646611322037,-5.774298915364821C2.0159293222644075,-11.548597830729642,4.031858644528815,-23.097195661459285,6.5066454870121735,-19.565809941912608C8.981432329495533,-16.03442422236593,11.915076692197841,2.576945047457066,7.663157314626954,6.857400079958101C3.4112379370560637,11.137855112459135,-8.026245180788024,1.0873959076382098,-8.058204175626349,-2.421902821715668C-8.090163170464674,-5.931201551069546,3.283401957702762,-2.899339804956375,5.228524706735257,-2.708561253765951C7.173647455767752,-2.517782702575527,-0.3096721743346942,-5.16808734630785,-2.6049278335654704,-5.432638873291796C-4.900183492796247,-5.697190400275743,-2.007375181155352,-3.575988810511314,-3.269706914678849,-8.854718368783864C-4.532038648202345,-14.133447927056416,-9.949510426890233,-26.812108633365945,-9.463030504201999,-29.479541163287124C-8.976550581513767,-32.1469736932083,-2.5861189574494112,-24.803178046741124,2.2779339806898067,-14.24499213948355C7.141986918829025,-3.6868062322259796,10.479661171043105,10.085769935821986,3.3780612974850657,12.798235801999489C-3.7235385760729756,15.510701668176992,-21.26441257540314,7.163057232484033,-19.145065395377994,4.595080388767721C-17.025718215352846,2.0271035450514088,4.753850144027604,5.238794293311742,8.094126511528186,8.05771445284761C11.434402879028767,10.87663461238348,-3.6646127453505226,13.302784183194882,-8.166131437939649,10.86849413297089C-12.667650130528775,8.434204082746895,-6.571671891327738,1.1394744114875035,-2.6355745828437542,0.549188982310838C1.3005227256402299,-0.041096446865827474,3.0767391034071605,6.073062366040233,3.493409117923771,2.748188443249415C3.910079132440381,-0.5766854795414034,2.96720278370667,-13.3405921380291,-1.009136958863727,-18.994816962929985C-4.9854767014341235,-24.649041787830868,-11.995279837841208,-23.193584779144942,-3.870432110212862,-23.710741346368998C4.254415617415482,-24.227897913593054,27.513914209079253,-26.717668056727092,26.81038720361906,-23.342433447624597C26.10686019815887,-19.9671988385221,1.4403075955747155,-10.726959477183067,-2.49196340146327,-8.672520491752815C-6.424234398501255,-6.618081506322562,10.37777621000693,-11.749442896801089,13.1742501125057,-8.50825750280064C15.970724015004471,-5.267072108800192,4.761661211493829,6.346660069679231,3.6450071099160177,9.375916390027607C2.5283530083382066,12.405172710375982,11.504107608693229,6.849953172593311,15.78340780059828,-1.5094452337317485C20.062707992503334,-9.868843640056808,19.64555377595842,-21.032420914924256,21.269522484296665,-21.30801409882384C22.89349119263491,-21.58360728272342,26.55858282585632,-10.971216375655136,20.005585815340346,-3.3925175786417676C13.452588804824376,4.186181218371599,-3.3184968494289713,8.731187905330048,-8.359767053911122,4.098533141442671C-13.401037258393272,-0.5341216224447063,-6.712492013104226,-14.34443783717791,6.104125189889764,-21.124627214858677C18.920742392883756,-27.90481659253945,37.86543155358269,-27.65487913316779,45.68317954348245,-25.488207570323276C53.50092753338221,-23.321536007478763,50.19173435248279,-19.238130341161394,44.64506766303659,-12.777847160831481C39.098400973590394,-6.317563980501566,31.31426077559741,2.5195967138408957,23.690161823576766,7.531949730303246C16.066062871556124,12.544302746765597,8.602005165507816,13.731848085347837,2.9503210432305647,14.329065780427342C-2.7013630790466867,14.926283475506846,-6.540673617552882,14.933173527083616,-1.0537319700838905,12.279893125280726C4.4332096773851,9.626612723477834,19.246403510829275,4.313161868295283,23.57521992438679,9.273178767647716C27.904036337944305,14.233195667000148,21.748475331615158,29.466680320887566,15.533926343939518,28.790664627415257C9.319377356263882,28.114648933942945,3.0458403872417525,11.52913289311091,5.486825318438092,5.964654006396547C7.927810249634432,0.40017511968218233,19.08331708104924,5.856733387085491,20.936938502560686,5.933599454092217C22.790559924072138,6.0104655210989435,15.342295935680225,0.7076393877090865,11.61816394148427,-1.9437736789858417L7.894031947288313,-4.5951867456807705" />
  </g>
</svg>
