<?xml version="1.0" encoding="UTF-8" standalone="no"?>
<svg
   xmlns:dc="http://purl.org/dc/elements/1.1/"
   xmlns:cc="http://creativecommons.org/ns#"
   xmlns:rdf="http://www.w3.org/1999/02/22-rdf-syntax-ns#"
   xmlns:svg="http://www.w3.org/2000/svg"
   xmlns="http://www.w3.org/2000/svg"
   version="1.1"
   id="svg2"
   height="300"
   width="300"
   preserveAspectRatio="xMidYMid"
   viewBox="0 0 300 300">
  <metadata
     id="metadata27">
    <rdf:RDF>
      <cc:Work
         rdf:about="">
        <dc:format>image/svg+xml</dc:format>
        <dc:type
           rdf:resource="http://purl.org/dc/dcmitype/StillImage" />
      </cc:Work>
    </rdf:RDF>
  </metadata>
  <defs
     id="defs25" />
  <filter
     y="-50%"
     x="-50%"
     height="500"
     width="300"
     id="rtygu">
    <feFlood
       id="feFlood5"
       result="element"
       flood-color="#cda4de" />
    <feTurbulence
       id="feTurbulence7"
       result="element_1"
       seed="45"
       numOctaves="8"
       type="fractalNoise"
       baseFrequency="0.02" />
    <feGaussianBlur
       id="feGaussianBlur9"
       result="element_2"
       in="SourceAlpha"
       stdDeviation="4" />
    <feDisplacementMap
       id="feDisplacementMap11"
       result="element_3"
       in2="element_1"
       in="element_2"
       scale="100" />
    <feComposite
       id="feComposite13"
       result="element_4"
       in2="element_3"
       in="element"
       operator="in" />
    <feMerge
       id="feMerge15">
      <feMergeNode
         id="feMergeNode17"
         in="element_4" />
    </feMerge>
  </filter>
  <g
     id="g19"
     transform="translate(150,150) scale(1.5)">
    <path
       id="path21"
       style="filter: url(#rtygu); stroke: rgb(205, 164, 222);"
       d="M0,0L6.597559672483521,4.8252706076896335C13.195119344967042,9.650541215379267,26.390238689934083,19.301082430758534,26.389319150977602,23.248732475201024C26.388399612021125,27.19638251964351,13.191441189141123,25.44114139314922,2.1463321622337252,24.61122474251916C-8.898776864673673,23.781308091889098,-17.792036495608468,23.87671591712327,-17.361762268905633,16.589605574800654C-16.93148804220279,9.30249523247804,-7.177679957862319,-5.367133277401357,-2.6342177968372664,-5.030296212290825C1.9092443641877863,-4.693459147180292,1.2423606018974194,10.649843492920171,-3.6679513504662142,12.52611943288837C-8.578263302829848,14.40239537285657,-17.73200344526675,2.811644612692506,-14.49069230178385,-4.058106955082753C-11.249381158300956,-10.927858522858012,4.386981271101739,-13.076610898244464,9.702965226147532,-14.01446249344805C15.018949181193324,-14.952314088651637,10.014554661882217,-14.679264903672355,8.201264052162347,-18.783315156109868C6.387973442442478,-22.88736540854738,7.765786742313848,-31.368515098401694,13.42281175285758,-31.382076665205947C19.07983676340131,-31.395638232010192,29.0160734846174,-22.941611675764385,27.51509463740787,-16.241002967919428C26.014115790198336,-9.540394260074478,13.07592137456318,-4.593203400630384,3.5183413989542203,-8.034612467444889C-6.039238576654738,-11.476021534259395,-12.216204112237497,-23.3060305273325,-17.800819818964317,-24.563338862280357C-23.385435525691136,-25.82064719722822,-28.377701403562014,-16.505254874050834,-25.29412747508195,-6.920464092188531C-22.21055354660189,2.6643266896737705,-11.051139811770893,12.518515930220989,-8.33391500207517,22.73726842055857C-5.616690192379447,32.95602091089616,-11.341654307819,43.539336651024115,-8.89802020901682,43.72050587619958C-6.4543861102146405,43.90167510137504,4.157846202829273,33.68069781159802,0.7867368041096254,27.342721015310996C-2.584372594610022,21.004744219023976,-19.938823705093228,18.549767916226955,-17.636778100986575,6.884207694461876C-15.334732496879916,-4.7813525273031985,6.6238098218166055,-25.65749666803633,14.556808499516464,-30.210167016518444C22.48980717721632,-34.76283736500056,16.39726221391951,-22.99203392123166,7.335628856993726,-15.540284821701167C-1.7260044999320616,-8.088535722170672,-13.756726250486828,-4.955840966878583,-23.581161494482203,-6.407447927742073C-33.40559673847757,-7.859054888605563,-41.02374547591355,-13.89496356562463,-42.08870818694801,-15.932865146846035C-43.153670897982465,-17.97076672806744,-37.6654475826154,-16.01066121349118,-29.34886315806524,-10.903489750375059C-21.032278733515078,-5.796318287258934,-9.887333199781812,2.4579191243970504,-1.8716624487366618,-3.9909858516993513C6.144008302308489,-10.439890827795754,11.030404270665526,-31.591938191644545,18.930452763955692,-30.756024451789095C26.830501257245864,-29.920110711933646,37.74420227546916,-7.096235868373958,39.36211897899537,4.211145062411344C40.98003568252157,15.518525993196645,33.30216807135067,15.30941301120756,26.432831949065314,9.9700085958286C19.56349582677995,4.63060418044964,13.502691193380128,-5.839091668319197,10.941471942471393,-10.851175994907315C8.380252691562658,-15.863260321495435,9.318618823145012,-15.417733125902835,8.808578200229592,-8.041240176562631C8.298537577314171,-0.6647472272224277,6.3400901999009776,13.642711475865381,-2.390890704245451,15.910729643022314C-11.12187160839188,18.178747810179246,-26.625386039271543,8.407325441405298,-34.8864070038581,2.9437354204981103C-43.14742796844465,-2.519854600409079,-44.1659554667381,-3.675612273449511,-29.789622139969186,-3.6102213756835657C-15.413288813200262,-3.54483047791762,14.357905338631022,-2.258291009345296,21.731181329657815,-3.395239358378239C29.10445732068461,-4.532187707411183,14.079815150906908,-8.092623874049394,6.863456900838376,-13.654069834841525C-0.3529013492301574,-19.215515795633657,0.2390243204104759,-26.777971550579704,1.58286330829342,-23.731496210306464C2.926702296176364,-20.68502087003322,5.022454602301619,-7.02961443454069,6.070330755364247,-0.20191121679442414L7.118206908426874,6.625792000951842" />
  </g>
</svg>
