<svg viewBox="0 0 300 300" preserveAspectRatio="xMidYMid" width="300" height="300"><filter id="dkotb" width="300" height="500" x="-50%" y="-50%"><feFlood flood-color="#ffb653" result="element"></feFlood><feTurbulence baseFrequency="0.02" type="fractalNoise" numOctaves="8" seed="78" result="element_1"></feTurbulence><feGaussianBlur stdDeviation="4" in="SourceAlpha" result="element_2"></feGaussianBlur><feDisplacementMap scale="100" in="element_2" in2="element_1" result="element_3"></feDisplacementMap><feComposite operator="in" in="element" in2="element_3" result="element_4"></feComposite><feMerge><feMergeNode in="element_4"></feMergeNode></feMerge></filter><g transform="translate(150,150) scale(1.5)"><path d="M0,0L3.4906952674253073,-1.232821874003156C6.981390534850615,-2.465643748006312,13.96278106970123,-4.931287496012624,20.701233524147668,-4.879215528548886C27.439685978594103,-4.827143561085148,33.93520035263636,-2.257355878151359,36.44691202282202,-5.67100010820487C38.95862369300767,-9.084644338258382,37.48653265933672,-18.481720481299195,32.98133083289476,-20.21078127610552C28.47612900645281,-21.939842070911848,20.93781638723985,-16.00088751748369,23.39354374254301,-9.363581057794399C25.849271097846174,-2.7262745981051095,38.29903842766546,4.609383767845316,40.57757383944973,8.205108731511768C42.85610925123399,11.800833695178218,34.96341274498324,11.656625256560698,28.61897816429575,15.192426905424856C22.274543583608263,18.728228554289018,17.47837092848404,25.94404029063486,15.710138185985516,27.551013079097558C13.941905443486991,29.15798586756026,15.201612613614166,25.15611970813982,14.771807603072586,19.630018213888587C14.342002592531008,14.103916719637354,12.222685401320676,7.053579890555327,5.2689071335856195,7.875375534811104C-1.6848711341494385,8.697171179066881,-13.473110478409222,17.39109929666046,-18.324806571853053,9.674968109431951C-23.17650266529688,1.9588369222034423,-21.09165550792476,-22.167353569847158,-12.966061833798948,-35.15438605780118C-4.8404681596731365,-48.14141854575521,9.325872031206364,-49.98929302961266,8.260695593705792,-37.93646670956875C7.1955191562052185,-25.88364038952485,-9.101173909675428,0.06988673442041815,-13.507006307021783,9.339357556940794C-17.912838704368138,18.60882837946117,-10.4278104331802,11.194242900556656,-3.764873466192589,6.800467149395448C2.898063500795022,2.4066913982342397,8.738909163582306,1.0337253748163373,13.164314363251691,0.6403920572957844C17.589719562921076,0.24705873977523152,20.599684299472564,0.8333581281520285,12.757672174934283,6.103096590712164C4.915660050396006,11.3728350532723,-13.778328935232034,21.326012590015775,-17.478023621421244,15.155324870846204C-21.17771830761046,8.984637151676637,-9.883118694360839,-13.309915823405976,-3.9165443898027705,-19.440767924344136C2.0500299147552985,-25.5716200252823,2.688578910621819,-15.538771252076007,8.825468794911806,-4.427249794413932C14.962358679201794,6.684271663248143,26.597589451915248,18.874465805366,34.6949709898188,13.995473638891651C42.79235252772234,9.116481472417302,47.351884830815976,-12.831697002649257,41.01942872595847,-13.213543294193956C34.686972621100956,-13.595389585738655,17.462528108292297,7.589096306238506,11.447013550841454,11.012816330832038C5.431498993390612,14.43653635542557,10.624914391297587,0.09949051263547304,6.290911269259933,-8.141989934984135C1.9569081472222791,-16.383470382603743,-11.904513494760003,-18.529385435052866,-10.740606761431952,-10.474962208369897C-9.5767000281039,-2.4205389816869296,6.612535080534485,15.834222524128126,15.890035146103322,11.281529307124165C25.16753521167216,6.728836090120208,27.533300234171453,-20.631311849702765,22.38999902155025,-26.001171771210842C17.24669780892905,-31.371031692718923,4.594330361187353,-14.750603595912104,1.2473365313817182,-6.368237969385308C-2.099657298423917,2.0141276571414894,3.8587224897065084,2.158430813388266,4.468573968188884,6.423299029514532C5.078425446671261,10.688167245640798,0.339748615505588,19.073600521646554,-1.2527937400284135,18.663045174815412C-2.845336095562415,18.252489827984267,-1.2917439754647448,9.045945858316225,-4.769796535471659,11.38521325423037C-8.247849095478575,13.724480650144516,-16.757546335590074,27.60955941164085,-13.679416931073389,19.946945832514615C-10.601287526556707,12.284332253388376,4.0646685225881605,-16.92597366636043,8.399208527103212,-31.38233424949939C12.733748531618266,-45.83869483263835,6.736872491503503,-45.54111007916746,2.6431242334116494,-32.357723322561455C-1.4506240246802042,-19.17433656595545,-3.641244500749149,6.8948521937856775,-8.776622436382606,5.346079443436555C-13.912000372016063,3.7973066930874317,-21.992135767214034,-25.36942756735194,-26.032203464813023,-39.952794697571626L-30.072271162412004,-54.53616182779132" style="filter: url(#dkotb); stroke: rgb(255, 182, 83);"></path></g></svg>