<?xml version="1.0" encoding="UTF-8" standalone="no"?>
<svg
   xmlns:dc="http://purl.org/dc/elements/1.1/"
   xmlns:cc="http://creativecommons.org/ns#"
   xmlns:rdf="http://www.w3.org/1999/02/22-rdf-syntax-ns#"
   xmlns:svg="http://www.w3.org/2000/svg"
   xmlns="http://www.w3.org/2000/svg"
   version="1.1"
   id="svg2"
   height="300"
   width="300"
   preserveAspectRatio="xMidYMid"
   viewBox="0 0 300 300">
  <metadata
     id="metadata27">
    <rdf:RDF>
      <cc:Work
         rdf:about="">
        <dc:format>image/svg+xml</dc:format>
        <dc:type
           rdf:resource="http://purl.org/dc/dcmitype/StillImage" />
      </cc:Work>
    </rdf:RDF>
  </metadata>
  <defs
     id="defs25" />
  <filter
     y="-50%"
     x="-50%"
     height="500"
     width="300"
     id="skelp">
    <feFlood
       id="feFlood5"
       result="element"
       flood-color="#fce883" />
    <feTurbulence
       id="feTurbulence7"
       result="element_1"
       seed="9"
       numOctaves="8"
       type="fractalNoise"
       baseFrequency="0.02" />
    <feGaussianBlur
       id="feGaussianBlur9"
       result="element_2"
       in="SourceAlpha"
       stdDeviation="5" />
    <feDisplacementMap
       id="feDisplacementMap11"
       result="element_3"
       in2="element_1"
       in="element_2"
       scale="100" />
    <feComposite
       id="feComposite13"
       result="element_4"
       in2="element_3"
       in="element"
       operator="in" />
    <feMerge
       id="feMerge15">
      <feMergeNode
         id="feMergeNode17"
         in="element_4" />
    </feMerge>
  </filter>
  <g
     id="g19"
     transform="translate(150,150) scale(1.5)">
    <path
       id="path21"
       style="filter: url(#skelp); stroke: rgb(252, 232, 131);"
       d="M0,0L6.650332041157627,-3.665997715399391C13.300664082315254,-7.331995430798782,26.60132816463051,-14.663990861597563,27.241237417022614,-12.267551466078682C27.881146669414722,-9.871112070559803,15.860301091883677,2.253762151276738,11.463162754781322,7.527894755156799C7.066024417678969,12.80202735903686,10.292593321005302,11.22541834496044,18.578066630439054,3.8833138473911246C26.86353993987281,-3.458790650178189,40.20791765541398,-16.5663906312404,44.5339205942236,-22.060711411638465C48.85992353303323,-27.555032192036528,44.167551695111314,-25.43607377177045,37.04122370468792,-24.61915289374913C29.914895714264535,-23.802232015727814,20.354611571339667,-24.287348679951258,15.727464842944652,-19.035082908853514C11.100318114549639,-13.782817137755766,11.406308800684476,-2.793168931336827,9.62942900387843,1.9822362795726391C7.852549207072384,6.757641490482105,3.992798927325454,5.318803705882099,3.3844669066548967,8.894206290858758C2.77613488598434,12.469608875835416,5.419221124390156,21.05925183038874,10.050023796076694,29.049216991851907C14.680826467763229,37.039182153315075,21.299345572730488,44.42946952168809,13.45361871712334,37.356312990777326C5.607891861516192,30.28315645986656,-16.70208095466536,8.74655602967202,-13.43996711952168,-0.8320555182630504C-10.177853284378003,-10.41066706619812,18.656347202090906,-8.03128973187372,25.888333069996115,3.0294560733383245C33.120318937901324,14.090201878550369,18.75009018724284,33.83231615465006,6.6361261361105885,33.05018106377489C-5.477837915021661,32.268045972899735,-15.335537266627673,10.961661515049727,-18.66262053913542,-7.689828635652224C-21.989703811643167,-26.341318786354172,-18.78617100505265,-42.33791462990806,-17.18908987443054,-45.10958313634146C-15.592008743808426,-47.881251642774856,-15.60137928915472,-37.427992812087766,-5.804361360182089,-33.736354520206845C3.99265656879054,-30.04471622832592,23.596062972082095,-33.114698475251174,27.50119271071417,-27.57256432026199C31.40632244934625,-22.03043016527281,19.61317552331885,-7.876179608369206,2.7681764274228975,0.4848191526212493C-14.076822668473056,8.845817913611704,-35.97367393423757,11.413564878689009,-33.20889026680603,11.655274266667183C-30.444106599374493,11.896983654645357,-3.0176879987469043,9.812655465524402,7.1964940890349505,0.30980976798817395C17.410676176816807,-9.193035929548056,10.41262175175293,-26.114399135499557,8.316085191498233,-24.166560028142992C6.219548631243539,-22.218720920786428,9.024529935798025,-1.4016795001217925,2.1015323258159766,4.891316275222915C-4.821465284166074,11.184312050567623,-21.47244180868466,2.953262180592404,-30.860185718751946,0.8920504054339884C-40.247929628819236,-1.1691613697244274,-42.372440924435224,2.93946494993396,-41.74756694329024,4.625669724546503C-41.12269296214525,6.311874499159045,-37.74843370423929,5.575657728725744,-26.91641351376225,-1.8013498082066022C-16.084393323285212,-9.178357345138949,2.2053877997629066,-23.19615564857034,6.021173392143946,-24.27803332503171C9.836958984524985,-25.359911001493085,-0.821250953761056,-13.505868050984441,-8.02771433285324,-3.791744556377837C-15.234177711945422,5.922378938228768,-18.988894531843748,13.496582976933334,-15.34974367920537,8.801420621373813C-11.710592826566991,4.106258265814292,-0.6775743013919096,-12.858270484009317,0.6909645681588672,-15.975007713093701C2.059503437709644,-19.091744942178085,-6.236437348363885,-8.360690650523248,-15.43763627767551,-3.816148308993478C-24.638835206987135,0.7283940325362925,-34.745292279536855,-0.9135755760590046,-34.401689740982995,-1.5420759262901962C-34.058087202429135,-2.1705762765213876,-23.26442505277169,-1.7856073683884737,-15.48081199947994,0.6785830595320665C-7.697198946188189,3.142773487452607,-2.9236349892621356,7.686185435160773,-0.8440166624767546,8.266903235051094C1.2356016643086265,8.847621034941417,0.6212743609533349,5.465644687013893,0.7334870822164145,-3.8626597633460573C0.8456998034794941,-13.190964213706007,1.684452549360945,-28.465596766498386,2.1038289223016706,-36.10291304289457L2.5232052952423962,-43.74022931929076" />
  </g>
</svg>
