<?xml version="1.0" encoding="UTF-8" standalone="no"?>
<svg
   xmlns:dc="http://purl.org/dc/elements/1.1/"
   xmlns:cc="http://creativecommons.org/ns#"
   xmlns:rdf="http://www.w3.org/1999/02/22-rdf-syntax-ns#"
   xmlns:svg="http://www.w3.org/2000/svg"
   xmlns="http://www.w3.org/2000/svg"
   version="1.1"
   id="svg2"
   height="300"
   width="300"
   preserveAspectRatio="xMidYMid"
   viewBox="0 0 300 300">
  <metadata
     id="metadata27">
    <rdf:RDF>
      <cc:Work
         rdf:about="">
        <dc:format>image/svg+xml</dc:format>
        <dc:type
           rdf:resource="http://purl.org/dc/dcmitype/StillImage" />
      </cc:Work>
    </rdf:RDF>
  </metadata>
  <defs
     id="defs25" />
  <filter
     y="-50%"
     x="-50%"
     height="500"
     width="300"
     id="gbvbo">
    <feFlood
       id="feFlood5"
       result="element"
       flood-color="#c5e384" />
    <feTurbulence
       id="feTurbulence7"
       result="element_1"
       seed="45"
       numOctaves="8"
       type="fractalNoise"
       baseFrequency="0.02" />
    <feGaussianBlur
       id="feGaussianBlur9"
       result="element_2"
       in="SourceAlpha"
       stdDeviation="4" />
    <feDisplacementMap
       id="feDisplacementMap11"
       result="element_3"
       in2="element_1"
       in="element_2"
       scale="100" />
    <feComposite
       id="feComposite13"
       result="element_4"
       in2="element_3"
       in="element"
       operator="in" />
    <feMerge
       id="feMerge15">
      <feMergeNode
         id="feMergeNode17"
         in="element_4" />
    </feMerge>
  </filter>
  <g
     id="g19"
     transform="translate(150,150) scale(1.5)">
    <path
       id="path21"
       style="filter: url(#gbvbo); stroke: rgb(197, 227, 132);"
       d="M0,0L1.971655419444587,6.44986554220494C3.943310838889174,12.89973108440988,7.886621677778348,25.79946216881976,3.802129314507474,23.172904671690667C-0.2823630487633997,20.546347174561575,-12.394658614194322,2.3935010958935123,-12.273978616325586,-6.1469402310373225C-12.153298618456851,-14.687381557968157,0.20035694271154192,-13.615418133161764,11.402074890081003,-10.622674609271462C22.603792837450467,-7.629931085381159,32.653573171021,-2.7164074624069467,24.679850309474364,-2.968612522313366C16.706127447927727,-3.2208175822197855,-9.291098608736073,-8.638751325006837,-16.627844550408383,-2.8087849347731444C-23.964590492080696,3.021181455460548,-12.640856318761514,20.099047978714985,-4.05421844699972,19.77647057760953C4.532419424762075,19.453893176504074,10.381960994966484,1.7308718510387333,16.48031873010723,3.280475647221503C22.578676465247973,4.830079443404273,28.925850365325058,25.652308361235157,35.675190549747214,21.336657578302272C42.42453073416936,17.02100679536939,49.576037202936575,-12.432523688327255,44.71668516588446,-15.7121667744082C39.85733312883236,-18.99180986048914,22.98712258596092,3.902434451045618,12.45463617577778,12.844071641070274C1.9221497655946411,21.78570883109493,-2.272612511900202,16.77473889960948,-3.055077137801563,9.728703959113044C-3.837541763702924,2.6826690186166076,-1.207708738010803,-6.398430930890821,0.8743568752049163,-13.673163470436723C2.9564224884206354,-20.947896009982625,4.490720689159953,-26.416261139567,6.159956149522429,-28.364870865887504C7.829191609884906,-30.31348059220801,9.633364329870542,-28.742334915264646,6.952911527226365,-27.356655666358623C4.272458724582187,-25.970976417452597,-2.8926196006918046,-24.770763596583915,0.7061284926729652,-20.286814382041996C4.304876586037736,-15.802865167500073,18.66745109804127,-8.035179559284913,20.05306587781637,-0.8951942385769223C21.43868065759147,6.2447910821310675,9.847335705138143,12.757076115331888,5.031260069624315,7.414079845533674C0.21518443411048582,2.071083575735459,2.1743781155361575,-15.127193997061791,5.49239531991685,-21.4539836529955C8.810412524297542,-27.780773308929213,13.487253251633256,-23.236075047999382,16.08935738499047,-21.53463406507403C18.691461518347683,-19.833193082148682,19.218829057726403,-20.975009377227806,19.1707481479121,-13.656068471291249C19.122667238097797,-6.337127565354686,18.499137879090473,9.442570541597563,9.554090286726819,13.822104092838597C0.6090426943631648,18.20163764407963,-16.65752313135682,11.181006639609446,-22.142701252719174,2.864384959983216C-27.62787937408153,-5.452236719643014,-21.331669791086252,-15.06484907442529,-15.391926078062038,-25.43564304997662C-9.452182365037824,-35.806437025527956,-3.8689045219846756,-46.93541262184834,-9.574740987176934,-50.85182880793266C-15.280577452369194,-54.76824499401699,-32.275528225806866,-51.47210176986525,-30.186251227153612,-36.96085705451503C-28.096974228500358,-22.44961233916482,-6.9234694577561875,3.276733867383875,3.802247734391977,17.44863821542909C14.527964926540141,31.620542563474302,14.805894540092298,34.23800505301604,6.912445571133533,32.65090419101662C-0.9810033978252335,31.0638033290172,-17.045830949294924,25.27213911547663,-14.714941252875152,18.712817121592142C-12.384051556455379,12.153495127707652,8.342555387853853,4.826515353479246,19.142530943741647,-4.659003143536805C29.942506499629445,-14.144521640552856,30.815850667095805,-25.78857886035655,18.872507971485142,-27.819890307228185C6.92916527587448,-29.85120175409982,-17.830864282813206,-22.26976742803939,-20.41952645089071,-8.836809790148907C-23.00818861896822,4.596147847741573,-3.425483396435544,23.88062879746211,-1.1434250081072976,21.619274014876268C1.1386333802209485,19.357919232290424,-13.879955065655233,-4.449271282601796,-10.713788861839936,-18.655419073381157C-7.54762265802464,-32.86156686416052,13.803298195482135,-37.46667193082702,18.23621075429841,-29.307464100918452C22.66912331311468,-21.14825627100988,10.184027577240455,-0.22473554452623468,3.941479709303341,10.237024818715588L-2.3010681586337727,20.698785181957412" />
  </g>
</svg>
