<?xml version="1.0" encoding="UTF-8" standalone="no"?>
<svg
   xmlns:dc="http://purl.org/dc/elements/1.1/"
   xmlns:cc="http://creativecommons.org/ns#"
   xmlns:rdf="http://www.w3.org/1999/02/22-rdf-syntax-ns#"
   xmlns:svg="http://www.w3.org/2000/svg"
   xmlns="http://www.w3.org/2000/svg"
   version="1.1"
   id="svg2"
   height="300"
   width="300"
   preserveAspectRatio="xMidYMid"
   viewBox="0 0 300 300">
  <metadata
     id="metadata27">
    <rdf:RDF>
      <cc:Work
         rdf:about="">
        <dc:format>image/svg+xml</dc:format>
        <dc:type
           rdf:resource="http://purl.org/dc/dcmitype/StillImage" />
      </cc:Work>
    </rdf:RDF>
  </metadata>
  <defs
     id="defs25" />
  <filter
     y="-50%"
     x="-50%"
     height="500"
     width="300"
     id="acwqf">
    <feFlood
       id="feFlood5"
       result="element"
       flood-color="#fff700" />
    <feTurbulence
       id="feTurbulence7"
       result="element_1"
       seed="45"
       numOctaves="8"
       type="fractalNoise"
       baseFrequency="0.02" />
    <feGaussianBlur
       id="feGaussianBlur9"
       result="element_2"
       in="SourceAlpha"
       stdDeviation="4" />
    <feDisplacementMap
       id="feDisplacementMap11"
       result="element_3"
       in2="element_1"
       in="element_2"
       scale="100" />
    <feComposite
       id="feComposite13"
       result="element_4"
       in2="element_3"
       in="element"
       operator="in" />
    <feMerge
       id="feMerge15">
      <feMergeNode
         id="feMergeNode17"
         in="element_4" />
    </feMerge>
  </filter>
  <g
     id="g19"
     transform="translate(150,150) scale(1.5)">
    <path
       id="path21"
       style="filter: url(#acwqf); stroke: rgb(255, 247, 0);"
       d="M0,0L5.463808462202126,0.8777725278988302C10.927616924404251,1.7555450557976604,21.855233848808503,3.511090111595321,22.53093287745211,-0.8502016385620648C23.206631906095716,-5.21149338871945,13.630413038978674,-15.689621944831881,16.468549820794323,-13.392148944465497C19.306686602609975,-11.09467594409911,34.55917903335832,3.9783986127460924,39.99621292911986,16.50469680605633C45.433246824881394,29.030994999366563,41.05482218565613,39.01051682914183,38.08485965769083,35.24389591819976C35.114897129725534,31.4772750072577,33.553396713020206,13.964511355598301,26.2758742777942,6.991455056891836C18.998351842568187,0.018398758185371733,6.004807388821494,3.5850498124318406,5.1588520649373235,-3.257513842301595C4.312896741053153,-10.10007749703503,15.614530547031507,-27.351855860748373,21.33659443727408,-23.745021288728747C27.05865832751665,-20.13818671670912,27.201152302023438,4.327260791043468,23.049237140947877,15.522655679422144C18.897321979872313,26.718050567800823,10.450997683214402,24.643392836805585,9.805949293681845,18.077379476396963C9.16090090414929,11.511366115988345,16.31712842174209,0.4539971261663407,20.54415714118207,-1.3107756984344094C24.77118586062205,-3.0755485230351596,26.069015781909208,4.452274817585344,21.686723585653997,3.478090834271666C17.304431389398786,2.5039068509579874,7.242017075601207,-6.972284456289874,5.452759361428794,-17.381029620758618C3.663501647256381,-27.789774785227358,10.147400532709137,-39.13107380691698,11.436188638912531,-38.60687735954528C12.724976745115928,-38.08268091217358,8.818654072069965,-25.69298899574055,5.952999700698311,-15.017897164032014C3.0873453293266593,-4.342805332323474,1.262359259629318,4.617686414660573,-5.747130769931718,5.072676724616956C-12.756620799492753,5.52766703457334,-24.950614788917484,-2.522844092497941,-19.865693205970903,-4.0944547967929985C-14.780771623024322,-5.666065501088057,7.5830655322935705,-0.7587757826068917,15.528485500396231,7.13346732409724C23.47390546849889,15.025710430801372,17.00090824938632,25.90290692572847,12.333778682334179,22.227796168173857C7.666649115282036,18.552685410619244,4.805387200290319,0.32526740058291637,7.526657510478658,1.7911002173740256C10.247927820666996,3.256933034165135,18.55173035603539,24.41601667778368,15.856662277503908,27.72927745719088C13.161594198972425,31.042538236598077,-0.5323444934589308,16.509976151793925,-2.9263165678885414,9.706459403942906C-5.320288642318152,2.9029426560918865,3.5857059012539825,3.828471245193996,9.777647027478203,-0.31436367619702965C15.969588153702423,-4.4571985975880555,19.447475862578727,-13.668397029472217,21.08659673230434,-8.59711851216944C22.725717602029945,-3.5258399948666597,22.526071632604857,15.827915471623061,13.593519793929646,19.232669241125148C4.660967955254433,22.63742301062724,-13.004489752670903,10.093175083141698,-16.822227445673338,5.746829027138967C-20.639965138675777,1.4004829711362328,-10.609982816755316,5.252038786616307,-5.169785602640159,11.268634890687736C0.27041161147499715,17.285230994759168,1.1208237177848503,25.46686738742195,2.8595635703987456,24.48388982386841C4.598303423012641,23.50091226031487,7.225371021930578,13.353320740545001,11.842117269443618,1.8821278851797771C16.458863516956654,-9.589064970185447,23.065288413064795,-22.383859161146027,20.618522227536417,-26.496423717773702C18.17175604200803,-30.608988274401376,6.6717987748431264,-26.039323196696138,1.6016539753796706,-22.84623090902536C-3.4684908240837853,-19.653138621354582,-2.1088231558457924,-17.836619123718265,2.0579006888648697,-13.480977067388224C6.224624533575532,-9.125335011058183,13.198404554758861,-2.230570396034422,14.507265113049764,1.505018605272968C15.816125671340664,5.240607606580358,11.460066766739137,5.817020994171375,8.635078642943846,4.477314320653134C5.810090519148554,3.1376076471348915,4.516173176159498,-0.11821908749260945,3.5248777219772585,-3.4000614494101673C2.533582267795019,-6.681903811327725,1.8449087024195958,-9.98976180053534,1.500571919731884,-11.643690795139147L1.1562351370441726,-13.297619789742956" />
  </g>
</svg>
