<svg viewBox="0 0 300 300" preserveAspectRatio="xMidYMid" width="300" height="300"><filter id="clzqs" width="300" height="500" x="-50%" y="-50%"><feFlood flood-color="#c46210" result="element"></feFlood><feTurbulence baseFrequency="0.02" type="fractalNoise" numOctaves="8" seed="77" result="element_1"></feTurbulence><feGaussianBlur stdDeviation="4" in="SourceAlpha" result="element_2"></feGaussianBlur><feDisplacementMap scale="100" in="element_2" in2="element_1" result="element_3"></feDisplacementMap><feComposite operator="in" in="element" in2="element_3" result="element_4"></feComposite><feMerge><feMergeNode in="element_4"></feMergeNode></feMerge></filter><g transform="translate(150,150) scale(1.5)"><path d="M0,0L6.529630906876241,1.8587321972788609C13.059261813752482,3.7174643945577217,26.118523627504963,7.434928789115443,27.569265354618636,7.3081753206411C29.02000708173231,7.181421852166757,18.86222872220717,3.2104505206603484,12.657540754246217,0.3477066299743552C6.452852786285262,-2.5150372607116376,4.20125520988849,-4.269553710577215,2.6542609940645083,-3.5775964108780762C1.1072667782405266,-2.885639111178936,0.2648759229893351,0.2527919380849206,9.332334149230666,-0.7184209451939767C18.399792375471996,-1.689633828472874,37.37709968320585,-6.770490644294526,37.48061631635324,-4.822137256557473C37.58413294950065,-2.8737838688204196,18.813858908061594,6.103779722475338,12.902053678480662,14.047423965408708C6.990248448899727,21.991068208342078,13.936912031176911,28.900793102913063,13.105882916070376,26.510571427741347C12.274853800963838,24.12034975256963,3.66613198847358,12.430181507655218,-2.254689198178074,5.825423476044738C-8.175510384829728,-0.7793345555657427,-11.408430945642777,-2.2986823738722904,-11.30702844855772,0.6466771176570374C-11.205625951472662,3.592036609186365,-7.7699003964895,11.002103410551568,-4.307372181714804,11.772142936194992C-0.8448439669401084,12.542182461838417,2.6444869076261197,6.672194711760062,-4.359911490475604,8.815738460261063C-11.364309888577326,10.959282208762062,-28.862437559347,21.116357455842415,-29.45107592768775,22.443047001231893C-30.039714296028496,23.769736546621363,-13.71886336194032,16.266040390319958,-7.636588586256094,9.552152730827782C-1.5543138105718688,2.838265071335607,-5.710615193291594,-3.085814091347334,-3.0929836160993203,-4.622175298675634C-0.47535203890704736,-6.158536506003934,8.916212498197226,-3.3071797579775923,10.468264996663956,-4.669254016686321C12.020317495130685,-6.031328275395051,5.732857954959875,-11.606833540838851,7.740300153518929,-9.726957867337813C9.747742352077982,-7.847082193836776,20.050086289366902,1.4881744186090984,21.46168945963673,4.20453944000933C22.873292629906558,6.920904461409561,15.394155033157295,3.018377891764151,11.088682689698867,-1.8920689319876856C6.783210346240439,-6.802515755739522,5.651403256072847,-12.720882833597784,4.876772874299665,-12.175504492718789C4.102142492526486,-11.630126151839791,3.6846888191477176,-4.621002392223534,0.5500567144090063,4.271555329530744C-2.5845753903297046,13.164113051285023,-8.43638592642836,23.940104735177325,-8.168483959462007,21.308551016719516C-7.900581992495656,18.67699729826171,-1.5129675224643,2.63789817745379,-0.5671780242003073,-3.9963063878598133C0.37861147406368545,-10.630510953173417,-4.117423999439685,-7.859820962992706,-7.0018714981951815,-2.2993093425236384C-9.886318996950678,3.2612022779454293,-11.1591785209583,11.611535528702854,-17.922242434477802,17.41062025416116C-24.685306347997308,23.209704979619467,-36.938574651028695,26.45754117977865,-42.41888623232326,21.32677464038207C-47.89919781361782,16.196008100985484,-46.60655267317556,2.686638822033128,-42.66165590359871,2.7560322236159953C-38.71675913402186,2.8254256251988625,-32.11961073531044,16.473581707316953,-31.474195748710738,19.13560244110455C-30.828780762111045,21.79762317489215,-36.13509918762308,13.473508560349256,-38.19812886426819,9.69871568924967C-40.26115854091331,5.923922818150084,-39.080899468691506,6.698451690493806,-28.780553870519665,-0.7699846719632442C-18.480208272347824,-8.238421034420293,0.9402238517740589,-23.949822631678114,4.765102327324396,-21.011349398449095C8.589980802874734,-18.072876165220073,-3.1806943701464725,3.5154718984957842,-6.822741939564998,16.478721906937487C-10.464789508983523,29.441971915379185,-5.97820947479937,33.780123868546724,-4.803073544253282,36.4754230305879C-3.627937613707195,39.17072219262907,-5.764245786799175,40.22316856354388,-1.8156950920197423,33.58683949927114C2.1328556027596894,26.950510434998407,12.166265165410532,12.625405935538128,12.541466928118929,15.070193393800041C12.916668690827326,17.514980852061953,3.633662653593274,36.72966026804606,-1.007840365023752,46.336999976038115L-5.649343383640778,55.94433968403017" style="filter: url(#clzqs); stroke: rgb(196, 98, 16);"></path></g></svg>