<svg viewBox="0 0 300 300" preserveAspectRatio="xMidYMid" width="300" height="300"><filter id="hpzxe" width="300" height="500" x="-50%" y="-50%"><feFlood flood-color="#ffa474" result="element"></feFlood><feTurbulence baseFrequency="0.02" type="fractalNoise" numOctaves="8" seed="36" result="element_1"></feTurbulence><feGaussianBlur stdDeviation="4" in="SourceAlpha" result="element_2"></feGaussianBlur><feDisplacementMap scale="100" in="element_2" in2="element_1" result="element_3"></feDisplacementMap><feComposite operator="in" in="element" in2="element_3" result="element_4"></feComposite><feMerge><feMergeNode in="element_4"></feMergeNode></feMerge></filter><g transform="translate(150,150) scale(1.5)"><path d="M0,0L3.624378356747841,0.709306926100622C7.248756713495682,1.418613852201244,14.497513426991365,2.837227704402488,7.42975554613051,-5.509573661139023C0.36199766526965504,-13.856375026680535,-21.02227480994774,-31.9685916099648,-16.139929669869506,-38.42418285650703C-11.257584529791274,-44.87977410304926,19.89137822558258,-39.678740012849445,28.067716875048056,-30.508911270607157C36.24405552451353,-21.339082528364873,21.447770068070625,-8.200459134080106,12.581633811094562,-3.865528977552777C3.7154975541185005,0.4694011789745516,0.7795104966092841,-3.9993619022555587,-1.9004884846534786,-3.9422791173717995C-4.580487465916241,-3.8851963324880407,-7.00449837093255,0.6977323185095874,-11.76983500513419,4.86759579756747C-16.53517163933583,9.037459276625352,-23.6418340027228,12.79425758374349,-24.79132589094587,17.878465060665654C-25.940817779168935,22.96267253758782,-21.1331391922281,29.374289184314016,-21.17483674687143,26.43152785824654C-21.21653430151476,23.488766532179064,-26.10760799774225,11.19162723331792,-16.175688779553184,5.231780417195232C-6.243769561364115,-0.7280663989274557,18.511142571241514,-0.35062073231168667,23.095091603794824,-3.8566468275718604C27.679040636348134,-7.362672922832034,12.092026568849128,-14.75217077996815,8.573083795648856,-13.827361199126377C5.05414102244858,-12.902551618284603,13.603269543547036,-3.6634345994649404,15.181546404983111,0.04578148885677809C16.759823266419186,3.7549975771784965,11.367248468192878,1.9343127350022706,4.805587333597351,-4.114440219388827C-1.7560738009981764,-10.163193173779925,-9.486821271962924,-20.440014240385896,-13.130288554768107,-25.08064528163947C-16.77375583757329,-29.721276322893047,-16.329942932218913,-28.725717338794233,-13.008454310156024,-25.13484088109505C-9.686965688093139,-21.543964423395867,-3.487801349321746,-15.357770492096314,3.155942509061406,-5.852547679336423C9.799686367444558,3.6526751334234673,16.88800974543947,16.476926827643695,18.981957436298714,25.49533966525852C21.075905127157956,34.513752502873345,18.175477130881532,39.72632648388277,10.73311835507827,31.21547304426651C3.290759579275007,22.704619604650254,-8.69352997605509,0.47033874440831447,-20.841091670561873,-9.291265934884867C-32.98865336506866,-19.052870614178048,-45.29948719875213,-16.341799112522473,-46.02817301991794,-7.141260485581045C-46.756858841083755,2.0592781413603873,-35.90339664973192,17.749283893587673,-31.57410353277544,21.7529552540702C-27.24481041581896,25.75662661455273,-29.439686373257846,18.073963583290496,-22.337437809379747,20.73579918459746C-15.235189245501651,23.397634785904422,1.1641838396934308,36.40396901978058,3.694545719855586,40.29879515129741C6.224907600017741,44.19362128281423,-5.113741724853029,38.97693931197172,-4.684186830512495,30.796779122701988C-4.2546319361719585,22.61661893343226,7.943127177379883,11.47298052573532,12.305176350355373,2.939461301288728C16.667225523330863,-5.594057923157865,13.193564755730002,-11.51745796435411,11.445119049485717,-16.340171383439134C9.696673343241432,-21.162884802524154,9.673442698353728,-24.884911599497954,7.895398108764767,-20.437782747170548C6.117353519175809,-15.99065389484314,2.5844949848855947,-3.3743693932145282,4.81807982533567,-1.0866885080061017C7.0516646657857445,1.2009923772023248,15.051692880976107,-6.839930354009434,18.36191331426506,-11.75933270015483C21.672133747554007,-16.67873504630023,20.292546398941546,-18.476617007379268,17.27734070199037,-8.077758587911847C14.262135005039191,2.321099831555575,9.611310959749297,24.916698631569453,15.85576809187793,34.09884591478084C22.100225224006564,43.28099319799222,39.23996353355372,39.0496889644011,43.81219116865198,26.97330683966173C48.384418803750236,14.89692471492236,40.3891357643996,-5.024535300965269,35.51367661746799,-9.307654777534033C30.638217470536397,-13.590774254102797,28.882582216023838,-2.235553191352695,22.716358571084648,-0.07247072060291804C16.55013492614546,2.090611750146859,5.973322890779643,-4.938444371103689,0.6849168730967338,-8.452972431728963L-4.603489144586176,-11.967500492354237" style="filter: url(#hpzxe); stroke: rgb(255, 164, 116);"></path></g></svg>