<svg viewBox="0 0 300 300" preserveAspectRatio="xMidYMid" width="300" height="300"><filter id="sukso" width="300" height="500" x="-50%" y="-50%"><feFlood flood-color="#c39953" result="element"></feFlood><feTurbulence baseFrequency="0.02" type="fractalNoise" numOctaves="8" seed="91" result="element_1"></feTurbulence><feGaussianBlur stdDeviation="5" in="SourceAlpha" result="element_2"></feGaussianBlur><feDisplacementMap scale="100" in="element_2" in2="element_1" result="element_3"></feDisplacementMap><feComposite operator="in" in="element" in2="element_3" result="element_4"></feComposite><feMerge><feMergeNode in="element_4"></feMergeNode></feMerge></filter><g transform="translate(150,150) scale(1.5)"><path d="M0,0L0.11241977727294723,8.764543328702779C0.22483955454589447,17.529086657405557,0.44967910909178893,35.058173314811114,0.7396839951048606,38.71608783910592C1.029688881117932,42.37400236340072,1.384859098598181,32.160744754584776,4.293774173272716,28.17041872646567C7.2026892479472515,24.180092698346566,12.665349179816074,26.412698250924304,13.38459505285306,25.532060354404493C14.103840925890042,24.651422457884685,10.079672740095187,20.657541112267324,1.6559193399384746,11.419888522396292C-6.767834060218239,2.182235932525259,-19.59117267473681,-12.299187901599447,-15.102892913133022,-15.45462692695748C-10.614613151529229,-18.610065952315516,11.185284986196928,-10.439520168906881,19.264428859512883,3.1582824603546937C27.343572732828836,16.756085089616267,21.70196234173459,35.78114456473078,13.62248159407984,35.49223874026467C5.5430008464250875,35.20333291579855,-4.974350257790166,15.60046179175181,-13.724057929630074,4.385931549692942C-22.473765601469985,-6.828598692365926,-29.45582984093455,-9.65478805243692,-20.435004148925906,-14.8997546954675C-11.41417845691727,-20.14472133849808,13.60953716656457,-27.80846526448824,19.654338935921263,-22.98471556420298C25.69914070527796,-18.160965863917717,12.765028620509506,-0.8497225373570316,5.737879601450787,3.3363453288279437C-1.2892694176079322,7.522413195012919,-2.4094553709569193,-1.4166943991778176,-2.219305376548523,-5.17579611129925C-2.0291553821401256,-8.934897823420682,-0.5286694399743446,-7.51399365347281,0.18973642790225712,-6.063266724088434C0.9081422957788587,-4.61253979470406,0.844468089366281,-3.131990105883181,-0.1295853253461673,-8.411014215588331C-1.1036387400586154,-13.690038325293482,-2.9880713630709343,-25.72863623352466,-8.151347478590921,-22.97385858863673C-13.314623594110909,-20.219080943748793,-21.756743202138566,-2.6709277457417446,-28.241932514835668,5.032642285024732C-34.72712182753277,12.736212315791207,-39.25538084489932,10.595199179317111,-34.176816471313586,-1.0316769971949888C-29.098252097727848,-12.658553173707089,-14.412864333189816,-33.771292390257194,-0.8043720065415032,-42.99483425075804C12.804120320106811,-52.21837611125889,25.335717208865407,-49.55272061571049,22.33817246338227,-40.45676671044463C19.34062771789913,-31.360812805178778,0.81394133817426,-15.834560490195466,-8.646151251979479,-8.518417527828177C-18.106243842133217,-1.2022745654608873,-18.499742642715823,-2.096240955709619,-6.436772146698749,4.336561864498227C5.626198349318326,10.769364684706073,30.145638141935077,24.528936715370495,36.293727280206575,24.963243202313727C42.44181641847807,25.397549689256962,30.218554902404314,12.506590632479003,12.673994611588075,8.245768886069943C-4.870565679228168,3.984947139660881,-27.736424744786895,8.354262703620718,-28.132541530884453,2.9341947185031803C-28.52865831698201,-2.485873266614357,-6.455032823618399,-17.695324800809267,4.146908469246744,-11.144404108642522C14.748849762111888,-4.593483416475777,13.879106854478568,23.71780950205262,7.205401302414028,32.75752506846632C0.5316957503494866,41.79724063488003,-11.945972446146275,31.56537884917904,-8.360928463845154,19.455349856282563C-4.775884481544033,7.34532086338608,14.87187167955397,-6.642875336705894,21.62664544776649,-8.997011436988661C28.381419215979008,-11.351147537271427,22.24321059130605,-2.071223537744986,10.433118677927153,-3.7195843259171433C-1.376973235451743,-5.3679451140893,-18.858948437536576,-17.944590689960055,-24.362248301507027,-20.006765637430686C-29.865548165477477,-22.068940584901313,-23.390172691333554,-13.61664490397181,-14.641760751224357,-12.638027744915272C-5.893348811115155,-11.65941058585873,5.128099594959318,-18.154471948675152,8.237182120555657,-8.294386435506688C11.346264646151997,1.565699077661776,6.542981291270204,27.780931466815122,2.271137758754997,32.363060130264046C-2.000705773760209,36.94518879371297,-5.7411094839088275,19.89421373145748,-8.137301651420923,12.747405218877867C-10.533493818933021,5.600596706298255,-11.585474443808597,8.357954743394524,-12.111464756246384,9.73663376194266L-12.637455068684172,11.115312780490795" style="filter: url(#sukso); stroke: rgb(195, 153, 83);"></path></g></svg>