<svg viewBox="0 0 300 300" preserveAspectRatio="xMidYMid" width="300" height="300"><filter id="puyfh" width="300" height="500" x="-50%" y="-50%"><feFlood flood-color="#fefefa" result="element"></feFlood><feTurbulence baseFrequency="0.02" type="fractalNoise" numOctaves="8" seed="42" result="element_1"></feTurbulence><feGaussianBlur stdDeviation="5" in="SourceAlpha" result="element_2"></feGaussianBlur><feDisplacementMap scale="100" in="element_2" in2="element_1" result="element_3"></feDisplacementMap><feComposite operator="in" in="element" in2="element_3" result="element_4"></feComposite><feMerge><feMergeNode in="element_4"></feMergeNode></feMerge></filter><g transform="translate(150,150) scale(1.5)"><path d="M0,0L0.1250435430561357,0.762409832951478C0.2500870861122714,1.524819665902956,0.5001741722245427,3.049639331805912,2.4538609659939365,10.609265141884514C4.407547759763331,18.168890951963117,8.064834261189846,31.763322906217365,7.412063368224182,31.590311849020253C6.759292475258517,31.417300791823145,1.7964641879006717,17.47684672317468,-1.290308797969626,10.390354837617732C-4.377081783839923,3.3038629520607836,-5.5877994682226735,3.0713332495953534,-6.483749810465508,-3.609379237545144C-7.3797001527083435,-10.290091724685642,-7.960883152811263,-23.418986996501204,-7.539533830297642,-24.047092641241974C-7.1181845077840205,-24.675198285982745,-5.694302862653857,-12.802514303648719,3.761811104458273,-4.53496505362863C13.217925071570402,3.7325841963914588,30.7062713606645,8.39499871409761,31.22451298014873,8.341806859486443C31.74275459963297,8.288615004875274,15.290891549507343,3.5198167779467844,7.139863490677864,4.737377052594631C-1.0111645681516164,5.954937327242478,-0.861357635684951,13.158856103466661,0.7841031779258599,17.05459131198937C2.429563991536671,20.95032652051208,5.570678686291627,21.537878161333314,9.786953103113923,12.486474135345293C14.00322751993622,3.4350701093572678,19.294661658825856,-15.255289583440014,24.47556590996516,-15.54784817039429C29.656470161104465,-15.840406757348568,34.726844524493444,2.264835761540162,30.927022127235986,8.074135581972765C27.12719972997853,13.88343540240537,14.457180572074638,7.396792524381848,10.487707208743084,6.47710332493202C6.51823384541153,5.557414125482192,11.249306276652312,10.204678604606059,16.21964890478376,18.957218140709642C21.189991532915208,27.709757676813226,26.399604357937324,40.56757226989653,33.11185682904047,38.59528466137142C39.824109300143604,36.622997052846316,48.039001417327775,19.8206072427128,48.15764010112242,8.475274802563526C48.27627878491707,-2.8700576375857465,40.29866403532219,-8.75833270775078,31.118116586598916,-6.146970638234207C21.93756913787565,-3.5356085687176364,11.554088990023992,7.57539064048054,7.850027241018012,12.971004735853477C4.145965492012032,18.36661883122642,7.121322141851731,18.046847812774118,0.8266653406917976,19.041194296353567C-5.467991460468136,20.035540779933022,-21.032661712627704,22.344004765544227,-19.00874747685375,22.71436382193046C-16.984833241079798,23.08472287831669,2.6276654826276697,21.516977005477944,13.554922801353234,25.21878922046493C24.482180120078798,28.92060143545192,26.72419603382246,37.891971738264644,22.626076290156426,37.39110347535459C18.527956546490394,36.89023521244454,8.089701145414672,26.91712838381171,5.306387085918448,18.58245057305632C2.5230730264222254,10.247772762300928,7.3947003085055005,3.5515239694229708,4.872194058483194,1.1947714992706882C2.349687808460886,-1.1619809708815945,-7.5669519736670035,0.8207628816917967,-5.387461706230933,2.941752636981861C-3.2079714387948624,5.062742392271926,11.06764887820517,7.321978050278664,13.627522174375578,3.664104345155824C16.187395470545987,0.006230640032983459,7.031521745886773,-9.568752428219437,-2.2909267161708486,-17.901063466491813C-11.613375178228472,-26.233374504764193,-21.1023983776845,-33.32301351305653,-25.03146434253112,-21.074412562050284C-28.960530307377738,-8.825811611044038,-27.329639037614943,22.76102929926079,-19.80577119186244,31.509400338311284C-12.281903346109944,40.25777137736178,1.134941075632259,26.167672545157938,-1.7807915059853503,18.90051194981034C-4.69652408760296,11.63335135446274,-23.94483367258038,11.189128995971384,-26.296263779868525,12.479709570185465C-28.647693887156674,13.770290144399546,-14.102244516755544,16.795673651319063,-3.1509894747708396,19.664970782194917C7.800265567213865,22.534267913070774,15.157326280782144,25.247478667902968,20.22641739816487,21.494163332267856C25.295508515547596,17.74084799663274,28.076630036744767,7.521006570530316,24.931222510153674,-0.751552599703099C21.785814983562585,-9.024111769936514,12.71387840918323,-15.349388684300923,8.177910121993554,-18.512027141483127L3.641941834803877,-21.67466559866533" style="filter: url(#puyfh); stroke: rgb(254, 254, 250);"></path></g></svg>