<svg viewBox="0 0 300 300" preserveAspectRatio="xMidYMid" width="300" height="300"><filter id="ywrad" width="300" height="500" x="-50%" y="-50%"><feFlood flood-color="#fd7c6e" result="element"></feFlood><feTurbulence baseFrequency="0.02" type="fractalNoise" numOctaves="8" seed="28" result="element_1"></feTurbulence><feGaussianBlur stdDeviation="4" in="SourceAlpha" result="element_2"></feGaussianBlur><feDisplacementMap scale="100" in="element_2" in2="element_1" result="element_3"></feDisplacementMap><feComposite operator="in" in="element" in2="element_3" result="element_4"></feComposite><feMerge><feMergeNode in="element_4"></feMergeNode></feMerge></filter><g transform="translate(150,150) scale(1.5)"><path d="M0,0L5.019013406300684,4.1352329378296435C10.038026812601368,8.270465875659287,20.076053625202736,16.540931751318574,21.91807359790325,16.49030546963434C23.76009357060376,16.439679187950105,17.406106703403417,8.067960748922351,15.919583286147695,-3.9567024042911534C14.433059868891972,-15.98136555750466,17.81399990158087,-31.658973424903916,17.65090607611484,-32.19593420012448C17.487812250648805,-32.732894975345054,13.78068456702784,-18.12920865838694,10.975999678453459,-10.60780050034558C8.171314789879077,-3.0863923423042197,6.269072696351277,-2.647262343179616,8.780645935701468,-3.990740502863699C11.29221917505166,-5.334218662547782,18.217607747279843,-8.46030498104055,13.585637583590492,-8.710587731418196C8.95366741990114,-8.96087048179584,-7.235661479705746,-6.335349664058361,-8.175782281709633,-3.3507784244442016C-9.11590308371352,-0.3662071848300421,5.1931842118855895,2.9774144766607975,10.048916458638459,1.6975616146897625C14.904648705391326,0.41770875271872754,10.307025903297951,-5.485618632714182,13.297709181158083,-7.240450018875684C16.28839245901822,-8.995281405037186,26.86738181683186,-6.601616791927279,26.1425845245013,-4.948376548748219C25.417787232170742,-3.29513630556916,13.389203289695985,-2.382320432320946,4.697265008279998,-9.11584357957641C-3.994673273135988,-15.849366726831873,-9.349965893493204,-30.229228894591014,-16.417933666323602,-34.74753953745918C-23.485901439154002,-39.26585018032735,-32.26654436445759,-33.92260929830455,-30.149412397432624,-20.160955193658005C-28.032280430407656,-6.399301089011461,-15.017373571054145,15.780766238258822,-6.830019410993208,15.059558868362153C1.3573347490677286,14.338351498465482,4.717136209836092,-9.284130568598142,0.5530471149524745,-20.02165784057091C-3.6110419799311417,-30.759185112543676,-15.299021630466738,-28.61175758942559,-16.663150657958273,-29.856631350672824C-18.027279685449805,-31.101505111920062,-9.06755808989728,-35.73868015753262,-6.806794817933146,-31.181940154473075C-4.546031545969012,-26.625200151413534,-8.984226597593272,-12.874545099681887,-9.846149866407178,-5.97745126599592C-10.708073135221085,0.919642567690047,-7.993724621224637,0.9631751833303368,-2.7193040054921083,-0.663729220749306C2.555116610240421,-2.2906336248289487,10.389609327709032,-5.587975048628524,11.28819439057114,-7.48588539612615C12.18677945343325,-9.383795743623779,6.149456861688856,-9.882275014819456,-3.4333816077966817,-9.764958930760912C-13.01622007728222,-9.647642846702368,-26.144574424508903,-8.9145314073896,-31.558632824539778,-14.219702283545274C-36.97269122457065,-19.52487315970095,-34.67245367740573,-30.868326351325067,-26.043913233285775,-33.842287319583264C-17.415372789165822,-36.816248287841454,-2.4585294480908466,-31.42071703273372,1.031254793324403,-23.83436457265697C4.521039034739653,-16.24801211258022,-3.456235823504824,-6.470838447534451,-11.961554884126091,-0.6207460242681639C-20.46687394474736,5.229346398998123,-29.50023720774542,7.152357580484928,-32.73717176973567,10.759363245667284C-35.97410633172591,14.366368910849642,-33.41461219270835,19.65736905972755,-29.33041001284098,13.93728416814035C-25.246207832973607,8.217199276553146,-19.637297612256432,-8.51397065549917,-11.643739368996172,-17.539605550229503C-3.6501811257359122,-26.565240444959834,6.7280251400674365,-27.885340302368185,6.004696479356031,-23.278901198132615C5.281367818644625,-18.672462093897046,-6.5434957685815345,-8.139484028017556,-16.924195817559465,-4.359253600905265C-27.30489586653739,-0.579023173792975,-36.24143237726709,-3.551540385447885,-31.02924312544673,2.3932396346426286C-25.81705387362638,8.338019654733142,-6.456138859255981,23.20009690656908,-4.685316146510655,24.77962106496493C-2.9144934337653297,26.359145223360784,-18.73376302264508,14.65611628831655,-12.617288940465134,12.254171406190824C-6.500814858285192,9.852226524065097,21.551402894954443,16.751365694857878,23.909444848342833,18.963728538549987C26.267486801731227,21.1760913822421,2.9313529552683786,18.701677898833537,-8.736713967963045,17.46447115712926L-20.40478089119447,16.227264415424983" style="filter: url(#ywrad); stroke: rgb(253, 124, 110);"></path></g></svg>