<svg viewBox="0 0 300 300" preserveAspectRatio="xMidYMid" width="300" height="300"><filter id="ggrze" width="300" height="500" x="-50%" y="-50%"><feFlood flood-color="#a2a2d0" result="element"></feFlood><feTurbulence baseFrequency="0.02" type="fractalNoise" numOctaves="8" seed="70" result="element_1"></feTurbulence><feGaussianBlur stdDeviation="4" in="SourceAlpha" result="element_2"></feGaussianBlur><feDisplacementMap scale="100" in="element_2" in2="element_1" result="element_3"></feDisplacementMap><feComposite operator="in" in="element" in2="element_3" result="element_4"></feComposite><feMerge><feMergeNode in="element_4"></feMergeNode></feMerge></filter><g transform="translate(150,150) scale(1.5)"><path d="M0,0L2.214445667215147,1.8005354109790237C4.428891334430294,3.6010708219580474,8.857782668860589,7.202141643916095,9.921950496877956,8.301879158174403C10.986118324895324,9.401616672432711,8.685562646499765,8.000020878991279,8.490666443244189,9.369589197075932C8.295770239988613,10.739157515160585,10.206533511873019,14.879889944771321,9.53593522002417,10.7514923707646C8.86533692817532,6.623094796757878,5.613377072593215,-5.7744327808663005,3.788901819142171,-16.245174797834697C1.964426565691127,-26.71591681480309,1.5674359143711438,-35.2598732711157,-3.041699965785829,-29.690167728536753C-7.650835845942802,-24.120462185957805,-16.472116954936766,-4.437094644487294,-21.085499406009287,6.652000833433434C-25.69888185708181,17.741096311354163,-26.10436565023289,20.23591972572511,-23.542485609928857,17.971245575414205C-20.98060556962482,15.706571425103295,-15.451361695865673,8.682399710110534,-4.57059613577561,-0.7973000422147996C6.310169424314452,-10.276999794540133,22.54245667073543,-22.21222758419804,29.044686710146088,-20.557670988432047C35.54691674955674,-18.90311439266606,32.31908958195709,-3.658773411476173,22.22746845346905,-3.6084274943637675C12.135847324981018,-3.558081577251362,-4.819567764395396,-18.701730724216436,-11.754230723981308,-16.839673387349325C-18.688893683567223,-14.977616050482213,-15.602804513362635,3.8901477702170855,-16.61123160609835,9.63009991884327C-17.619658698834066,15.370052067469452,-22.722602054510084,7.982192544022519,-13.126436296958168,9.05890700849032C-3.530270539406253,10.135621472958118,20.765004331373593,19.67690992534065,30.645011087180976,20.38889806205642C40.52501784298836,21.100886198772198,35.98975648382329,12.983574019821216,26.790049529374595,-0.8941720926476435C17.590342574925895,-14.7719182051165,3.7261900251935733,-34.410098251103236,-2.5106712043393062,-33.436747764580375C-8.747532433872186,-32.463397278057506,-7.3571023432056215,-10.878516259025055,-1.2866155238998092,-3.1570554599911094C4.783871295406003,4.564405339042835,15.534414843351065,-1.5775540819217304,15.656511439878313,-1.5900616941025525C15.778608036405563,-1.6025693062833741,5.272257681515001,4.514374890319548,-0.7239614940816672,0.7183846013818354C-6.720180669678335,-3.0776056875558764,-8.206268665981106,-16.78653046203422,-6.520798604565951,-27.091741059204683C-4.835328543150796,-37.396951656375144,0.021699575982287556,-44.29844807623772,1.6470378421095533,-40.170078212314415C3.272376108236819,-36.04170834839111,1.6660245213582678,-20.883472200681926,-6.058872786869077,-11.73613676074492C-13.783770095096422,-2.5888013208079146,-27.627213124672558,0.5476334113569141,-28.050198613757317,9.287778189158603C-28.473184102842072,18.02792296696029,-15.475712051435448,32.37177779039884,-14.506448170189678,30.7445881599886C-13.537184288943909,29.11739852957836,-24.59612857785899,11.519164445319335,-19.610352097947136,5.221401702362785C-14.624575618035273,-1.076361040593766,6.40592163070353,3.926347557752158,10.251182483017931,10.063263297000207C14.096443335332332,16.200179036248258,0.756467791222331,23.47130191639843,1.4182492707956902,16.051088393107378C2.0800307503690494,8.630874869816328,16.74356925362577,-13.480675056915949,18.41850314496293,-15.002923106081184C20.09343703630009,-16.52517115524642,8.7797663157177,2.541882673155392,4.953949546163359,8.150733663283752C1.1281327766090183,13.759584653412112,4.790169958082732,5.9102328052670225,7.880363651000165,-3.2775719686039935C10.970557343917598,-12.46537674247501,13.48890754827875,-22.991634442071952,5.422411458325177,-22.388451013468362C-2.6440846316283935,-21.785267584864773,-21.29542701589669,-10.052643028060647,-23.399481044218497,-4.977988449091387C-25.503535072540306,0.09666612987787304,-11.060300744915633,-1.4866492689877304,-1.5926642269685356,0.9515139226378637C7.874972290978561,3.3896771142634576,12.367010999248079,9.849318896380248,11.28624929321616,5.772657746553772C10.205487587184239,1.6959965967272943,3.5519254668508813,-12.916967485042452,0.22514440668420233,-20.223449525927325L-3.1016366534824766,-27.5299315668122" style="filter: url(#ggrze); stroke: rgb(162, 162, 208);"></path></g></svg>