<svg viewBox="0 0 300 300" preserveAspectRatio="xMidYMid" width="300" height="300"><filter id="sqzqc" width="300" height="500" x="-50%" y="-50%"><feFlood flood-color="#dde26a" result="element"></feFlood><feTurbulence baseFrequency="0.02" type="fractalNoise" numOctaves="8" seed="85" result="element_1"></feTurbulence><feGaussianBlur stdDeviation="4" in="SourceAlpha" result="element_2"></feGaussianBlur><feDisplacementMap scale="100" in="element_2" in2="element_1" result="element_3"></feDisplacementMap><feComposite operator="in" in="element" in2="element_3" result="element_4"></feComposite><feMerge><feMergeNode in="element_4"></feMergeNode></feMerge></filter><g transform="translate(150,150) scale(1.5)"><path d="M0,0L1.3499935491668724,-0.6847675810311432C2.699987098333745,-1.3695351620622864,5.39997419666749,-2.739070324124573,5.647166744159142,-3.8262367313094248C5.894359291650794,-4.913403138494276,3.688757288300353,-5.718200790801694,5.078550021509403,-2.840573508304975C6.468342754718453,0.03705377419174383,11.453530224486993,6.597105991492599,4.910529012043495,2.1699285156316357C-1.632472200400004,-2.2572489602293277,-19.70366209505554,-17.67165612925211,-24.779402231953938,-18.254848737805396C-29.855142368852327,-18.83804134635868,-21.93543274799358,-4.590019394442466,-16.2686378691088,-1.3409222357256931C-10.601842990224029,1.9081749229910798,-7.187962853313229,-5.841652711491587,-4.33281621310237,-14.095170890011818C-1.4776695728915112,-22.34868906853205,0.8187435706194064,-31.105897791089845,3.924644381590997,-21.401498767396617C7.030545192562587,-11.697099743703388,10.945933670994851,16.468907026240863,6.568818611025025,28.587492741004983C2.1917035510551974,40.7060784557691,-10.477915047316719,36.77724311535309,-18.33422066318201,28.87675907575022C-26.1905262790473,20.976275036147356,-29.233518912405966,9.10414229735764,-31.138365105111156,1.57520235740202C-33.04321129781635,-5.9537375825536,-33.80991104986806,-9.139484723675125,-24.28592934708388,-10.92028708136764C-14.761947644299696,-12.701089439060153,5.0527155133203845,-13.076947013323656,4.854119427378893,-5.7649949404406104C4.6555233414374,1.5469571324424365,-15.556331988065665,16.546718852472033,-21.811135024390282,17.24842274873641C-28.0659380607149,17.950126645000786,-20.363688803861073,4.353772717499949,-17.059070892534116,-1.2167115382916318C-13.754452981207159,-6.787195794083213,-14.847466415407075,-4.331810378165537,-7.377916044662269,4.582899241413633C0.09163432608253785,13.497608860992804,16.123748501772067,28.87164268423347,21.32679527702296,27.561793610180537C26.529842052273857,26.251944536127606,20.903821427086122,8.25821256478108,11.132622442603687,-1.5812466222525323C1.3614234581212514,-11.420705809286144,-12.55495388565588,-13.105892212006841,-19.946854860771552,-6.298750763238295C-27.338755835887227,0.5083906855302534,-28.20618044234144,15.807859985788046,-25.99049647302138,15.59896369659934C-23.774812503701323,15.390067407410633,-18.476019958606987,-0.3271944712245727,-13.870576754617932,-9.227529890681492C-9.26513355062888,-18.12786531013841,-5.353039687745108,-20.21127427041704,-3.4183939686798452,-17.918482668317615C-1.4837482496145822,-15.625691066218186,-1.5265506743678272,-8.956698901740701,-0.4482206983294039,-5.82479995797066C0.6301092777090196,-2.6929010142006184,2.8295716545391114,-3.098095291138021,8.344653221593106,-3.7251203862194826C13.8597347886471,-4.352145481300944,22.690435545925,-5.2010013945264655,22.169024857171966,-4.185077290425667C21.647614168418933,-3.1691531863248694,11.774092033634972,-0.28844906489775246,0.5371000760942577,6.884793975511168C-10.699891881446456,14.058037015920089,-23.300353661743923,25.52381897531081,-21.356552605418543,24.193892115998697C-19.41275154909316,22.863965256686583,-2.9246876561449273,8.738329578671632,1.4342210164669593,-2.9809620763678293C5.793129689078846,-14.70025373140729,-1.977116858645612,-24.01320136347126,-3.193566097531728,-23.917947811220106C-4.410015336417844,-23.822694258968955,0.9273327335343815,-14.319239522402677,5.18886089767669,-10.230882683194706C9.450389061819,-6.142525843986734,12.636097320151391,-7.469266902137066,8.553543673847747,-15.745802265979426C4.4709900275441,-24.022337629821784,-6.879825523395583,-39.24866729935617,-11.205142155027854,-43.360476973349456C-15.530458786660123,-47.472286647342735,-12.830276498984981,-40.46957632579491,-6.625765154981582,-35.28590446758378C-0.4212538109781816,-30.102232609372635,9.287586589353475,-26.73759921449819,10.877215791080344,-20.543574106164524C12.466844992807212,-14.349548997830865,5.937262995929294,-5.3261321760379925,7.371507587209193,0.005780706339934216C8.805752178489092,5.33769358871786,18.20382335792681,6.97810253168084,22.90285894764567,7.798307003162329L27.60189453736453,8.61851147464382" style="filter: url(#sqzqc); stroke: rgb(221, 226, 106);"></path></g></svg>