<svg viewBox="0 0 300 300" preserveAspectRatio="xMidYMid" width="300" height="300"><filter id="rtnuc" width="300" height="500" x="-50%" y="-50%"><feFlood flood-color="#cb4154" result="element"></feFlood><feTurbulence baseFrequency="0.02" type="fractalNoise" numOctaves="8" seed="70" result="element_1"></feTurbulence><feGaussianBlur stdDeviation="5" in="SourceAlpha" result="element_2"></feGaussianBlur><feDisplacementMap scale="100" in="element_2" in2="element_1" result="element_3"></feDisplacementMap><feComposite operator="in" in="element" in2="element_3" result="element_4"></feComposite><feMerge><feMergeNode in="element_4"></feMergeNode></feMerge></filter><g transform="translate(150,150) scale(1.5)"><path d="M0,0L1.6426696591086885,-2.2408441651476605C3.285339318217377,-4.481688330295321,6.570678636434754,-8.963376660590642,9.045750558442617,-4.479701449074394C11.52082248045048,0.003973762441853879,13.185627006248831,13.453012515769672,14.069714777121195,16.574312653904283C14.95380254799356,19.695612792038894,15.057173563939937,12.4891743149803,15.538215279649739,8.653057300781533C16.01925699535954,4.816940286582767,16.87796941083277,4.351144735243829,12.239518408926479,1.4105425645762404C7.601067407020192,-1.5300596060913483,-2.5345470122656115,-6.945468396087588,-9.341946146977353,-1.046279213101486C-16.149345281689094,4.852909969884616,-19.628529131826774,22.066697125853057,-25.287339997449237,20.60365898992125C-30.946150863071704,19.14062085398944,-38.78458874417896,-0.9992425738426203,-36.63286268932977,-5.2716638060777425C-34.48113663448059,-9.544085038312865,-22.339246643674965,2.0509359250489503,-15.36505668271445,7.187233635299901C-8.390866721753934,12.323531345550851,-6.584376790638526,11.001105802690939,-9.50700614001329,9.532780168805374C-12.429635489388055,8.06445453491981,-20.08138411925299,6.450228810008593,-20.457680465662875,0.2546707482553927C-20.833976812072752,-5.940887313497807,-13.934820875027576,-16.71777771209299,-9.659768790467808,-22.011201454438336C-5.3847167059080405,-27.304625196783682,-3.733768473833681,-27.11458228287919,-3.061723338328737,-26.952832921093016C-2.389678202823793,-26.79108355930684,-2.696536163888264,-26.657627749638984,-2.029341210971017,-21.622308765206807C-1.3621462580537709,-16.586989780774626,0.2791016088451934,-6.649807621578129,2.6458839650236436,-2.1512720909420264C5.012666321202094,2.3472634396940766,8.10498316666003,1.407152341769785,2.7892023894773157,10.43745673199374C-2.526578387705399,19.46776112221769,-16.250456787528766,38.46848100058989,-18.744995962578294,38.72800465171885C-21.239535137627822,38.98752830284781,-12.504735087903512,20.505855726733518,-3.046948599907621,11.436843870639539C6.4108378880882695,2.367832014545562,16.59161081435574,2.711480878471895,13.194769649321309,-1.2315866972268004C9.797928484286876,-5.174654272925496,-7.17652677204946,-13.40443828824922,-6.397189448024463,-14.667158109189188C-5.617852123999466,-15.929877930129154,12.915277780386864,-10.225533556685363,24.176558693132296,-5.497898424468586C35.43783960587773,-0.7702632922518098,39.42727152698227,2.980662598737954,36.740614273656895,-1.2848938452076544C34.053957020331524,-5.550450289153263,24.691210592576255,-17.832489068034242,25.822930100760047,-25.969299874710824C26.954649608943843,-34.106110681387406,38.58083505306671,-38.09769351585959,44.01260123234076,-36.28094269608405C49.44436741161481,-34.464191876308504,48.68171432604006,-26.83910740228523,32.962643445335104,-19.79199318743674C17.243572564630156,-12.744878972588253,-13.431916111204995,-6.275735016914547,-21.232810032594575,2.8044205004757297C-29.03370395398415,11.884576017866006,-13.96000312092816,23.57574309697285,-10.723105892271722,23.08301818269643C-7.486208663615284,22.590293268420012,-16.086115039358397,9.913676360760327,-17.677481507819333,8.438396744198608C-19.268847976280263,6.963117127636888,-13.851674537459015,16.689174802173135,-12.65988059511847,14.984243688236862C-11.468086652777924,13.27931257430059,-14.50167220691808,0.14339267189179772,-11.258795335036782,-4.157133961496398C-8.015918463155483,-8.457660594884594,1.5034208347472733,-3.9227939592521937,3.9169392755112065,-1.7793713892909473C6.33045771627514,0.3640511806702992,1.6381552999002502,0.11602968496039179,-0.582806225635613,4.07201067461602C-2.8037677511714763,8.027991664271648,-2.5533883858683133,16.18797513929281,1.8887729694095357,12.112468775621016C6.330934324687385,8.036962411949222,14.96487766993992,-8.27403379041553,11.749154028465753,-15.324155368367604C8.533430386991586,-22.37427694631968,-6.531960241209283,-20.16352389985908,-4.312201990114828,-15.447542252269997C-2.092443739020375,-10.731560604680917,17.412463391369403,-3.510350355963358,27.16491695656429,0.10025476839542113L36.91737052175918,3.7108598927542005" style="filter: url(#rtnuc); stroke: rgb(203, 65, 84);"></path></g></svg>