<svg viewBox="0 0 300 300" preserveAspectRatio="xMidYMid" width="300" height="300"><filter id="yhqve" width="300" height="500" x="-50%" y="-50%"><feFlood flood-color="#ffaa1d" result="element"></feFlood><feTurbulence baseFrequency="0.02" type="fractalNoise" numOctaves="8" seed="77" result="element_1"></feTurbulence><feGaussianBlur stdDeviation="5" in="SourceAlpha" result="element_2"></feGaussianBlur><feDisplacementMap scale="100" in="element_2" in2="element_1" result="element_3"></feDisplacementMap><feComposite operator="in" in="element" in2="element_3" result="element_4"></feComposite><feMerge><feMergeNode in="element_4"></feMergeNode></feMerge></filter><g transform="translate(150,150) scale(1.5)"><path d="M0,0L0.022257278775097145,0.5008084932328696C0.04451455755019429,1.0016169864657392,0.08902911510038858,2.0032339729314783,5.652725183363947,1.5883892080443003C11.216421251627505,1.1735444431571223,22.299298830604428,-0.6577620730829732,17.231241857135064,-8.940272607407993C12.163184883665698,-17.222783141733014,-9.055806642249955,-31.956497694142957,-9.965857128641176,-29.64195813059655C-10.875907615032396,-27.327418567050145,8.522982938100816,-7.964624887547387,5.896954379069011,2.263774258249346C3.2709258200372044,12.49217340404608,-21.38002185115962,13.586178016136788,-28.346858354615282,17.074699752961646C-35.31369485807094,20.5632214897865,-24.59642019378544,26.446260351345504,-16.65328289509943,31.313169957114972C-8.710145596413426,36.180079562884444,-3.5411456633269127,40.03085991286437,-5.005615451132874,24.91212213228401C-6.470085238938835,9.79338435170365,-14.56802474763727,-24.294871559437006,-7.972662338076795,-32.251828571037436C-1.3772999285163188,-40.208785582637866,19.911364399303068,-22.034443694698066,23.21274909554711,-11.208514755231256C26.51413379179115,-0.3825858157644486,11.828238856459848,3.0949301752293716,4.038975521918591,9.208819440948673C-3.7502878126226658,15.322708706667974,-4.642919546373875,24.072971247112758,-5.206299556210061,30.97736005520431C-5.769679566046245,37.88174886329587,-6.003807851967406,42.940263939034196,-5.681584018791446,40.43435999715931C-5.359360185615484,37.928456055284435,-4.480784233342403,27.858133095796344,-5.057834489662218,19.93940877882572C-5.634884745982033,12.020684461855089,-7.667561210894744,6.253558787401922,1.4643473715764266,1.4027946421172215C10.596255954047598,-3.4479695031674797,30.892749583902653,-7.382372119283716,25.473605225095827,-4.71970878459072C20.054460866289,-2.057045449897724,-11.080321481179709,7.202683835604505,-18.801856015254103,17.215495844544947C-26.5233905493285,27.228307853485386,-10.831677270008582,37.99420258586404,-9.229962101000153,30.48415517704614C-7.628246931991725,22.97410776822824,-20.116529873294787,-2.8118817817862123,-17.86985696620912,-13.559236000277526C-15.623184059123453,-24.30659021876884,1.3584446963509418,-20.015309105737018,7.117449533021337,-21.950766876350563C12.876454369691732,-23.886224646964113,7.412835287558128,-32.04842130122303,4.556248563589237,-35.2564558506782C1.6996618396203467,-38.464490400133364,1.4501074738161694,-36.71836284478478,7.06805603349352,-39.109443660985775C12.686004593170871,-41.50052447718676,24.17145607832975,-48.028813664937324,22.544483923102042,-46.08959503823342C20.917511767874338,-44.15037641152951,6.178115972260043,-33.743649970371116,0.784558085697888,-23.474871387104475C-4.608999800864267,-13.206092803837834,-0.6567197783742849,-3.0752620784629396,1.0143515492867572,3.0306426906706667C2.6854228769477992,9.136547459804273,2.075285509779901,11.217526272696592,-2.9746095661079774,8.292809901505047C-8.024504641995856,5.3680935303135024,-17.514157426603717,-2.562318024961904,-19.547616662926373,-7.953641423271101C-21.58107589924903,-13.344964821580298,-16.158341587286486,-16.197200062923287,-14.085963627902547,-11.039333809626644C-12.01358566851861,-5.8814675563300005,-13.291564061713279,7.286500191606272,-12.92257282954187,9.198423339958477C-12.553581597370464,11.110346488310684,-10.537620739832978,1.7662250370788222,-5.778479109497402,3.0786403717642474C-1.0193374791618277,4.391055706449673,6.482984923971837,16.360007827052385,8.153746191644283,17.912110871702268C9.82450745931673,19.464213916352154,5.663707591527958,10.59946788504921,1.2123248079362652,9.103527916443444C-3.239057975655428,7.607587947837679,-7.981023675050042,13.480454041929091,-7.590245739200669,17.988158470121608C-7.199467803351295,22.495862898314122,-1.6759462322579335,25.638405660607738,-3.8062873367128587,29.632167520273576C-5.936628441167784,33.62592937993942,-15.720832221170996,38.47091033697749,-13.56235413177915,39.21106391281359C-11.403876042387306,39.951217488649704,2.697283916399595,36.586543683283836,9.747863895793046,34.90420678060091L16.798443875186496,33.22186987791798" style="filter: url(#yhqve); stroke: rgb(255, 170, 29);"></path></g></svg>