<svg viewBox="0 0 300 300" preserveAspectRatio="xMidYMid" width="300" height="300"><filter id="qwbag" width="300" height="500" x="-50%" y="-50%"><feFlood flood-color="#ffd3f8" result="element"></feFlood><feTurbulence baseFrequency="0.02" type="fractalNoise" numOctaves="8" seed="38" result="element_1"></feTurbulence><feGaussianBlur stdDeviation="5" in="SourceAlpha" result="element_2"></feGaussianBlur><feDisplacementMap scale="100" in="element_2" in2="element_1" result="element_3"></feDisplacementMap><feComposite operator="in" in="element" in2="element_3" result="element_4"></feComposite><feMerge><feMergeNode in="element_4"></feMergeNode></feMerge></filter><g transform="translate(150,150) scale(1.5)"><path d="M0,0L0.3916153736846398,0.15383459254095627C0.7832307473692796,0.30766918508191254,1.5664614947385591,0.6153383701638251,6.857601076315603,2.555526230938554C12.148740657892647,4.495714091713284,21.947789073677455,8.06842062818083,21.821778565094675,10.569362403363712C21.695768056511895,13.070304178546596,11.64469862356153,14.499481192444819,12.772468006003237,9.260702416399015C13.900237388444946,4.0219236403532115,26.206845586278728,-7.884810925636616,22.043154760369987,-14.099451026914993C17.87946393446125,-20.314091128193372,-2.7545259151900154,-20.8366367647603,-7.2576358080049115,-19.961966253268017C-11.760745700819808,-19.087295741775733,-0.13297563679833768,-16.815409082224235,3.534986010658603,-10.124436534987112C7.202947658115543,-3.433463987749988,2.9111008890079546,7.6765944471727625,3.088992369885007,6.548122797460837C3.266883850762059,5.4196511477489135,7.914513581623752,-7.947350586597686,8.638026139818061,-13.481101022030597C9.36153869801237,-19.014851457463507,6.160934083539292,-16.715350593982734,2.6880076791098992,-12.975271371741453C-0.7849187253194931,-9.235192149500175,-4.530166919705202,-4.054534568498397,-4.351533653766092,1.1268902024088316C-4.1729003878269815,6.30831497331606,-0.07038566156305137,11.490506934128739,-2.0930653409617546,13.803918333246244C-4.115745020360458,16.11732973236375,-12.263619105421794,15.561960569786088,-11.867385004166508,16.394948500313077C-11.471150902911223,17.227936430840067,-2.530808615339316,19.44928145447171,-0.32809174238553585,13.376856169845283C1.8746251305682442,7.304430885218858,-2.6602834110961027,-7.061764707665633,-9.46334862284872,-10.694090093015607C-16.266413834601337,-14.32641547836558,-25.337635716442225,-7.224870656181037,-24.492452323559725,-7.154670983393034C-23.647268930677228,-7.084471310605032,-12.885680263071343,-14.045616787213572,-6.825339540653907,-14.63492565472118C-0.7649988182364713,-15.224234522228791,0.5940939589925163,-9.44170678063547,4.23833014367721,2.415188713455854C7.882566328361904,14.272084207547179,13.811945920502303,32.203347454136505,11.01816617782447,32.97758715643262C8.224386435146638,33.751826858728734,-3.2925526423494276,17.369043016731634,-8.537549543307106,6.433893408209126C-13.782546444264785,-4.501256200313382,-12.755601168684077,-9.988771575361298,-15.656580991056414,-8.483647149689721C-18.55756081342875,-6.9785227240181475,-25.386465733754132,1.5192415023729184,-29.261557886358087,-2.8221230319850648C-33.13665003896204,-7.163487566343049,-34.05792942384456,-24.34398086145008,-26.81626612362032,-28.821449776667443C-19.57460282339608,-33.2989186918848,-4.169996838065073,-25.07336322721249,-3.1175353582267924,-21.174403197554486C-2.065073878388512,-17.275443167896476,-15.36475690404296,-17.70307857325278,-26.153134249491107,-15.526269538064891C-36.94151159493926,-13.349460502877003,-45.218583260181106,-8.568207027144926,-43.03045961867318,-4.872284347960698C-40.842335977165256,-1.1763616687764702,-28.189017028907543,1.4342302138599083,-20.35875397890516,3.308852765391255C-12.528490928902773,5.183475316922602,-9.521283777155713,6.322128537348918,-11.030841888949423,12.078245817879973C-12.540400000743135,17.834363098411025,-18.566723376077622,28.20794443904682,-15.993451799042587,21.806269478954746C-13.420180222007556,15.404594518862668,-2.247313692603006,-7.772336741957277,6.508128096908372,-18.428166665394194C15.26356988641975,-29.083996588831113,21.601586936037958,-27.218725174885,25.240915276842763,-19.376563657033234C28.880243617647572,-11.534402139181474,29.820883249638985,2.2846494825759436,25.28047308023823,0.8537878290542542C20.740062910837473,-0.5770738244674352,10.718602940044553,-17.25784875326823,11.325704641280344,-27.560313575059016C11.932806342516136,-37.862778396849805,23.16846971578064,-41.78693311163059,17.253680950672056,-31.1794612978614C11.338892185563473,-20.571989484092217,-11.726348717918198,4.567108858226931,-10.092613393593346,9.51133090349721C-8.458878069268492,14.455552948767489,17.873833482862885,-0.7951013030111014,31.040189258928574,-8.420428428900397L44.206545034994264,-16.045755554789693" style="filter: url(#qwbag); stroke: rgb(255, 211, 248);"></path></g></svg>