<svg viewBox="0 0 300 300" preserveAspectRatio="xMidYMid" width="300" height="300"><filter id="umjax" width="300" height="500" x="-50%" y="-50%"><feFlood flood-color="#ff7f49" result="element"></feFlood><feTurbulence baseFrequency="0.02" type="fractalNoise" numOctaves="8" seed="53" result="element_1"></feTurbulence><feGaussianBlur stdDeviation="4" in="SourceAlpha" result="element_2"></feGaussianBlur><feDisplacementMap scale="100" in="element_2" in2="element_1" result="element_3"></feDisplacementMap><feComposite operator="in" in="element" in2="element_3" result="element_4"></feComposite><feMerge><feMergeNode in="element_4"></feMergeNode></feMerge></filter><g transform="translate(150,150) scale(1.5)"><path d="M0,0L1.3966436576968166,6.136811741633439C2.7932873153936333,12.273623483266878,5.586574630787267,24.547246966533756,5.7433431663063255,27.655642368683875C5.900111701825384,30.764037770833994,3.420361457469869,24.70720509186736,2.709821501800668,16.249847702620944C1.9992815461314666,7.7924903133745245,3.0579518791485794,-3.0653917861516717,6.386865300200693,-6.554525239716502C9.715778721252805,-10.043658693281332,15.31493523033992,-6.164043500884794,18.78461757408455,-0.8700125180687346C22.254299917829183,4.424018464747325,23.594508096231333,11.132465237982906,20.911593495771523,12.63680465576567C18.228678895311717,14.141144073548434,11.522641515989951,10.441376135878379,10.787363889344526,8.614466914293505C10.0520862626991,6.787557692708631,15.287568388730016,6.833507187208937,11.901327598237998,0.7466392372860478C8.515086807745982,-5.340228712636841,-3.4928768992689676,-17.559914106982923,2.2649690956691817,-20.695710766943577C8.022815090607331,-23.831507426904228,31.546470787498578,-17.88341535247945,31.240139031938917,-15.175144412231369C30.933807276379248,-12.466873471983284,6.797488068368672,-12.998423665911897,6.771174899021348,-9.998386812654116C6.7448617296740245,-6.998349959396338,30.828554598989953,-0.4667260589521627,34.65529814310244,3.0111255883085497C38.482041687214924,6.488977235569262,22.051835906123966,6.913056629646512,15.342991732321686,5.851448921972844C8.634147558519405,4.7898412142991775,11.646664992005809,2.2425464048745916,10.14309832058603,1.2209632823676724C8.639531649166255,0.19938015986075314,2.6198808728403016,0.7035087242715001,1.1194240132028093,5.987222661451079C-0.38103284643468305,11.270936598630657,2.6377042106162865,21.334235908579068,11.613184100038433,22.986787987949704C20.588663989460578,24.639340067320333,35.5208867112539,17.88114491611319,35.30461748257578,12.136697069693938C35.08834825389765,6.392249223274687,19.72358707474808,1.66154868164333,20.409862026517338,-4.9642032067419954C21.096136978286594,-11.589955095127321,37.833448060974675,-20.110758330266616,37.839902322604765,-20.735554135228853C37.84635658423486,-21.360349940191092,21.121954024806957,-14.089138314976276,11.860451291016915,-3.210863784579164C2.5989485572268736,7.667410745817948,0.8003456490746943,22.152748181397357,1.4222250523764104,23.548441961458334C2.0441044556781267,24.944135741519307,5.086466170433738,13.250185866061853,2.8554250319659484,7.177693962389775C0.6243838934981589,1.1052020587176967,-6.880060098193032,0.6541681268309945,-2.595950735617193,6.986049670054582C1.6881586269586446,13.31793121327817,17.76082134380151,26.432728231612046,21.01607564686949,31.088673198076144C24.271329949937464,35.74461816454024,14.70917583923055,31.941711079134567,5.708330232531785,25.385806695448306C-3.2925153741669813,18.829902311762044,-11.732052476857598,9.5210006297952,-19.863412549677943,3.1139011385274724C-27.99477262249829,-3.2931983527402546,-35.81795566544836,-6.798495653308863,-32.66632013307104,-5.871817485722156C-29.51468460069372,-4.945139318135448,-15.388230492989013,0.4135143176065754,-4.878683711493902,2.1585919809649807C5.630863070001211,3.903669644323386,12.523502525286728,2.0351713352981724,15.37801361925995,1.0501553968842317C18.23252471323317,0.06513945847029064,17.04890744589409,-0.036394109332377966,16.7060860813926,-4.79199755889314C16.363264716891102,-9.547601008453901,16.86123925522719,-18.957274339772756,9.264517645729835,-22.39867270548225C1.6677960362324828,-25.840071071191744,-14.023621721098314,-23.31319447129188,-26.562621794781286,-17.404811546098145C-39.101621868464264,-11.496428620904418,-48.48820425849941,-2.206539370416821,-40.75071669644601,8.150297880722057C-33.01322913439262,18.507135131860938,-8.15167162025068,29.9309203836511,9.374357278955438,25.186959831700594C26.900386178161554,20.442999279750083,37.090886462431854,-0.46870707594109184,37.3362859823013,-5.625978917748592C37.58168550217074,-10.783250759556092,27.881984257639346,-0.18608808747991468,23.032133635373647,5.112493248558174L18.182283013107945,10.411074584596262" style="filter: url(#umjax); stroke: rgb(255, 127, 73);"></path></g></svg>