<svg viewBox="0 0 300 300" preserveAspectRatio="xMidYMid" width="300" height="300"><filter id="hickf" width="300" height="500" x="-50%" y="-50%"><feFlood flood-color="#1cd3a2" result="element"></feFlood><feTurbulence baseFrequency="0.02" type="fractalNoise" numOctaves="8" seed="1" result="element_1"></feTurbulence><feGaussianBlur stdDeviation="4" in="SourceAlpha" result="element_2"></feGaussianBlur><feDisplacementMap scale="100" in="element_2" in2="element_1" result="element_3"></feDisplacementMap><feComposite operator="in" in="element" in2="element_3" result="element_4"></feComposite><feMerge><feMergeNode in="element_4"></feMergeNode></feMerge></filter><g transform="translate(150,150) scale(1.5)"><path d="M0,0L5.420909758661333,5.320049496920075C10.841819517322666,10.64009899384015,21.68363903464533,21.2801979876803,30.650217501144585,20.032024521724814C39.61679596764384,18.78385105576933,46.70813338331968,5.64740513001821,41.763277142925865,3.001653024254243C36.818420902532054,0.35590091849027594,19.837371006068583,8.20084263271346,12.420572769320584,13.260372576555469C5.003774532572586,18.319902520397477,7.151227955540056,20.594020693858308,3.093777915288517,24.90028595717317C-0.963672124963022,29.20655122048803,-11.226025628433572,35.54496357365692,-14.484225998628416,34.332016623844986C-17.74242636882326,33.11906967403306,-13.9964736057424,24.354763421240296,-10.291975325875098,11.981458981995441C-6.587477046007796,-0.3918454572494152,-2.924433249354051,-16.37414808294637,-5.617488469325057,-24.004497239028048C-8.310543689296063,-31.634846395109726,-17.35969792589182,-30.91324208157613,-9.624001914415688,-23.7717240610934C-1.8883059029395604,-16.63020604061067,22.632240356608452,-3.0687743131788032,30.742491113325556,-1.523904317299046C38.85274187004266,0.020965678580711078,30.55269712392885,-10.450726057091641,15.6537820383436,-13.520389463895272C0.7548669527583503,-16.5900528706989,-20.742918472298342,-12.257687948633812,-23.949372871283515,-8.71921083236028C-27.155827270268684,-5.180733716086751,-12.070950643182332,-2.436144405604782,-3.662786516340682,-0.7104122705441367C4.745377610500968,1.0153198645165082,6.476829237097913,1.722194824155829,6.181045873133817,-0.9667311901512396C5.88526250916972,-3.6556572044583087,3.56224415464458,-9.740384192711767,2.7623196542462365,-10.229637758048256C1.962395153847892,-10.718891323384748,2.685564507576344,-5.61267146580427,-0.2068379847542925,0.757766103302036C-3.099240477084929,7.1282036724083415,-9.607214815474654,14.762858953040475,-8.832773684149583,20.060016997673376C-8.058332552824513,25.357175042306277,-0.0014759517846476555,28.316835850939945,10.929254830161618,24.87948746994691C21.859985612107884,21.442139088953873,35.664590574960556,11.607781518334129,28.588431547062793,-2.080046669409537C21.51227251916503,-15.767874857153204,-6.4446504994831635,-33.3091736620208,-17.951310295311355,-27.25049460202439C-29.457970091139547,-21.191815542027978,-24.514366664147737,8.466841382832428,-24.401705605403798,15.94489271724644C-24.289044546659863,23.42294405166045,-29.007325856163796,8.720389795628073,-23.871952937986386,-0.8069760872570235C-18.736580019808976,-10.33434197014212,-3.7475528739502266,-14.686519479879928,-3.3589080713036132,-12.734179846418346C-2.970263268657,-10.781840212956762,-17.182000809222522,-2.5249834362957873,-11.616055977607116,0.41980692464658553C-6.0501111459917105,3.3645972855889585,19.293516057804627,0.9973212308127282,19.98415296264907,2.8611943632484036C20.674789867493505,4.72506749568408,-3.2875635266139547,10.820089815331661,-11.399165580401867,11.971998217416111C-19.51076763418978,13.12390661950056,-11.771618347658148,9.332701104021876,1.8935826623534302,5.368100569309307C15.558783672365006,1.403500034596738,35.150036405856525,-2.734495519349718,32.62232269248629,-2.207409247832122C30.094608979116064,-1.680322976314526,5.44792881888408,3.5118451206671217,-0.8912717972028275,10.853187644752623C-7.230472413289735,18.194530168838124,4.737806514768435,27.685047120027477,5.878254337864872,29.1646855601916C7.0187021609613085,30.64432400035572,-2.6686811209039876,24.11308392949461,-7.704478536498094,13.070892228198069C-12.7402759520922,2.0287005269015257,-13.124487501415114,-13.52444280483045,-16.762037352285695,-16.36066088780567C-20.399587203156273,-19.196878970780887,-27.290475355574518,-9.316171804999353,-24.82510183841697,0.17794127245045566C-22.359728321259425,9.672054349900264,-10.538093134526086,18.77957333901835,-0.36802860440665697,15.848169779570565C9.80203592571277,12.916766220122783,18.32052979921829,-2.053559887890863,15.12460756405686,-11.381857509648647C11.928685328895428,-20.71015513140643,-2.9816530149329523,-24.396424266908355,-10.436822186847142,-26.239558834659313L-17.891991358761334,-28.08269340241028" style="filter: url(#hickf); stroke: rgb(28, 211, 162);"></path></g></svg>