<svg viewBox="0 0 300 300" preserveAspectRatio="xMidYMid" width="300" height="300"><filter id="khcmu" width="300" height="500" x="-50%" y="-50%"><feFlood flood-color="#6ada8e" result="element"></feFlood><feTurbulence baseFrequency="0.02" type="fractalNoise" numOctaves="8" seed="82" result="element_1"></feTurbulence><feGaussianBlur stdDeviation="5" in="SourceAlpha" result="element_2"></feGaussianBlur><feDisplacementMap scale="100" in="element_2" in2="element_1" result="element_3"></feDisplacementMap><feComposite operator="in" in="element" in2="element_3" result="element_4"></feComposite><feMerge><feMergeNode in="element_4"></feMergeNode></feMerge></filter><g transform="translate(150,150) scale(1.5)"><path d="M0,0L1.1908421546254928,4.5937848945375706C2.3816843092509856,9.187569789075141,4.763368618501971,18.375139578150282,-5.096012736733721,14.88422475946481C-14.955394091969413,11.393309940779341,-37.055841111691784,-4.776089485666741,-39.21805333936225,-9.667764146514733C-41.38026556703272,-14.559438807362726,-23.604243002651287,-8.173388702612627,-7.321098069329957,-2.330414001270865C8.962046863991374,3.5125607000708983,23.752314166252603,8.812459998004325,26.126414919762418,14.92958228531931C28.500515673272236,21.04670457263429,18.458449878030642,27.98104984933083,14.558883395441157,21.20089795681156C10.659316912851672,14.420746064292292,12.902249742914295,-6.0739029974427865,12.367800263150015,-10.897734051224441C11.833350783385734,-15.721565105006096,8.521518993794553,-4.8745781508343295,0.25804343514384165,6.40637608655708C-8.005432123506871,17.687330323948487,-21.220551451217112,29.402251844559537,-20.508034323200395,29.447849014903845C-19.79551719518368,29.493446185248153,-5.155363611440007,17.869719005325724,-0.4103427768259147,12.38762013675736C4.334678057788178,6.905521268188997,-0.8154338567273092,7.565050710974701,-1.543050185040345,13.99359359009768C-2.270666513353381,20.42213646922066,1.4242127445360344,32.619692784680915,3.397955222778541,31.203569696598652C5.371697701021048,29.78744660851639,5.624303399616646,14.757644116891614,11.223143436722523,11.315320996068746C16.821983473828404,7.8729978752458765,27.767057849444562,16.018154125224918,26.219039061286306,20.1732499942445C24.671020273128054,24.328345863264083,10.629908321195389,24.49338135132421,5.378122620494285,20.3751199083024C0.12633691979318096,16.256858465280583,3.663877470323639,7.855300091176831,5.16006736096963,9.130461511788742C6.656257251615621,10.405622932400652,6.111096482377146,21.357504147728225,0.9611979802760322,17.777991861117552C-4.188700521825081,14.198479574506875,-13.943336756788833,-3.91242621404205,-18.10721796844922,-8.521505413127626C-22.27109918010961,-13.130584612213202,-20.844225368466635,-4.237837221835429,-11.267078001990974,-1.7206656740384494C-1.68993063551531,0.7965058737585298,16.03749028579304,-3.061898421025285,19.738299180922716,5.553712711557951C23.4391080760524,14.169323844141188,13.113304945003406,35.25895040409147,10.892843587233099,38.87496125617418C8.672382229462793,42.490972108256884,14.557262644971171,28.633367252472,14.165309080199357,18.175356021285754C13.77335551542754,7.717344790099508,7.10456797037553,0.6589271835118993,6.169568259426756,-7.35797480410548C5.234568548477981,-15.37487679172286,10.033356671632442,-24.350263160370012,1.9109723793704596,-19.466206762213965C-6.211411912891524,-14.582150364057924,-27.254968620569954,4.1613488009013135,-25.597311939353652,7.777455411379884C-23.939655258137353,11.393562021858452,0.4192148119736743,-0.11772392214364658,8.481781292534535,-0.3801782689925264C16.544347773095396,-0.6426326158414062,8.310610664106092,10.343744634462933,1.3230521111742282,15.391405266264142C-5.664506441757634,20.43906589806535,-11.405886438632054,19.54800991136343,-2.6851866096217787,13.299548181156553C6.035513219388497,7.051086450949676,29.218292874283467,-4.554781022762156,31.612186081028412,-2.871609178809977C34.00607928777336,-1.188437334857797,15.611086046368285,13.783773826758393,0.04223066287389443,16.931582973326677C-15.526624720620497,20.079392119894955,-28.269342246204207,11.402799251415328,-25.7520378748821,13.90351386996553C-23.23473350355999,16.40422848851573,-5.457407235332063,30.08225059409576,3.946730977198656,36.6851969192722C13.350869189729375,43.28814324444864,14.381819346562885,42.816013789221486,8.521633604628494,39.30186601472266C2.6614478626941027,35.78771824022383,-10.089873778008192,29.231552146453325,-17.391562370665355,18.675797287737034C-24.693250963322512,8.12004242902074,-26.54530650793454,-6.435301194641336,-29.925239211615196,-8.502093669928813C-33.30517191529585,-10.568886145216291,-38.21298177804513,-0.14712747212916977,-40.666886709419785,5.063751864414391L-43.12079164079442,10.274631200957952" style="filter: url(#khcmu); stroke: rgb(106, 218, 142);"></path></g></svg>