<svg viewBox="0 0 300 300" preserveAspectRatio="xMidYMid" width="300" height="300"><filter id="qrahf" width="300" height="500" x="-50%" y="-50%"><feFlood flood-color="#1dacd6" result="element"></feFlood><feTurbulence baseFrequency="0.02" type="fractalNoise" numOctaves="8" seed="55" result="element_1"></feTurbulence><feGaussianBlur stdDeviation="4" in="SourceAlpha" result="element_2"></feGaussianBlur><feDisplacementMap scale="100" in="element_2" in2="element_1" result="element_3"></feDisplacementMap><feComposite operator="in" in="element" in2="element_3" result="element_4"></feComposite><feMerge><feMergeNode in="element_4"></feMergeNode></feMerge></filter><g transform="translate(150,150) scale(1.5)"><path d="M0,0L0.24290656766701893,-8.301584179284458C0.48581313533403786,-16.603168358568915,0.9716262706680757,-33.20633671713783,-7.7850733858369745,-42.94021047574675C-16.541773042342026,-52.67408423435568,-34.54098549068616,-55.53866339300462,-31.743039016255356,-45.07643570399924C-28.945092541824554,-34.61420801499385,-5.349987144618803,-10.825173478334136,3.6211173334651,-1.641180782399758C12.592221811549003,7.542811913534621,6.939325370511057,2.1217627687436673,0.31419650533175014,-3.2243049818372667C-6.310932359847557,-8.5703727324182,-13.908293649168225,-13.841459088789115,-18.208645408548257,-13.00662966711524C-22.508997167928293,-12.171800245441366,-23.512339397367686,-5.2310550457227,-25.214154125529618,5.667008738741199C-26.91596885369155,16.565072523205096,-29.316256080576014,31.42045489241423,-21.49169695235624,38.06675519592588C-13.667137824136459,44.71305549943752,4.382267659187562,43.15027373725169,10.786239121434848,37.01560510029048C17.190210583682134,30.88093646332927,11.948748024852684,20.174380951592692,11.91231679474693,14.636429783698361C11.875885564641175,9.098478615804027,17.044485663259117,8.72913179175194,18.234913564821703,7.083614391762408C19.425341466384285,5.438096991772876,16.637597170891514,2.5164090158458987,5.875066349570049,4.39769245029094C-4.887464471751416,6.278975884735982,-23.624781818901575,12.963230729553043,-19.002095714539294,15.283600560876618C-14.37940961017701,17.603970392200196,13.603279945697713,15.560455210030286,28.929652529595856,15.971405010555896C44.256025113494,16.382354811081505,46.92608072541556,19.247769594302635,42.028500116593065,19.20262260632993C37.13091950777057,19.157475618357218,24.665702678204017,16.201766859190673,17.108009182234817,7.886299773568049C9.550315686265613,-0.4291673120545756,6.900145523893761,-14.10439272413328,11.140087630911887,-10.188963943329037C15.380029737930013,-6.273535162524794,26.510084114338117,15.232547811162396,32.31015055408438,17.9932628524822C38.11021699383063,20.753977893802,38.580295496915056,4.769325002754413,32.5350651743844,-2.7272307533107503C26.48983485185375,-10.223786509375914,13.929295703708032,-9.232245130458654,4.482589323033904,-10.538549588122063C-4.964117057640225,-11.844854045785473,-11.296990670842764,-15.449004340029552,-16.012513630498674,-9.93561306732517C-20.72803659015458,-4.422221794620787,-23.826208896263857,10.208711045032057,-17.034657926827336,14.218865435619232C-10.243106957390811,18.229019826206407,6.438167287591515,11.618395767727911,14.359001286002421,1.5363760727168145C22.279835284413327,-8.545643622294282,21.440229036252816,-22.09905895383798,8.737658996177917,-22.639985208382573C-3.964911043896981,-23.18091146292716,-28.530444875886264,-10.709348640472642,-32.1248023996997,-2.312514782486308C-35.719159923513146,6.0843190755000265,-18.342341139150754,10.406423969018176,-4.416595012468324,19.899947183727352C9.509151114214104,29.393470398436527,19.983824583216563,44.058411934336725,20.408021973509136,35.71321318303154C20.83221936380171,27.368014431726362,11.205940675384392,-3.9873246067842025,9.033954025107336,-10.566627137983534C6.8619673748302805,-17.14592966918287,12.144272762693486,1.050804306929031,9.405262317846969,4.502989041444566C6.666251873000449,7.955173775960101,-4.094074404555795,-3.337190731120728,-12.534502136601212,-12.193669151429276C-20.974929868646626,-21.050147571737824,-27.095459055181216,-27.470739905274087,-29.715037250809317,-21.027371392061774C-32.33461544643741,-14.584002878849459,-31.453242651159023,4.723326481111435,-29.22755076591794,12.941260159023471C-27.001858880676853,21.159193836935508,-23.431847905473074,18.28773183279869,-15.551295897618118,17.80893131308384C-7.670743889763164,17.330130793368987,4.520349150742966,19.243991758076106,5.495004159243667,16.55108513359977C6.469659167744367,13.858178509123436,-3.7721238557603627,6.558504295463649,-6.651503154041583,1.4268889016496873C-9.530882452322803,-3.704726492164274,-5.047858025380514,-6.66828306613241,-2.80634581190937,-8.15006135311648L-0.5648335984382256,-9.631839640100548" style="filter: url(#qrahf); stroke: rgb(29, 172, 214);"></path></g></svg>