<svg viewBox="0 0 300 300" preserveAspectRatio="xMidYMid" width="300" height="300"><filter id="pvdal" width="300" height="500" x="-50%" y="-50%"><feFlood flood-color="#6d9bc3" result="element"></feFlood><feTurbulence baseFrequency="0.02" type="fractalNoise" numOctaves="8" seed="30" result="element_1"></feTurbulence><feGaussianBlur stdDeviation="5" in="SourceAlpha" result="element_2"></feGaussianBlur><feDisplacementMap scale="100" in="element_2" in2="element_1" result="element_3"></feDisplacementMap><feComposite operator="in" in="element" in2="element_3" result="element_4"></feComposite><feMerge><feMergeNode in="element_4"></feMergeNode></feMerge></filter><g transform="translate(150,150) scale(1.5)"><path d="M0,0L2.428998813856511,-4.6951381423839536C4.857997627713022,-9.390276284767907,9.715995255426044,-18.780552569535814,18.174769341584327,-15.323938971986156C26.63354342774261,-11.867325374436497,38.69309397234615,4.436178105430727,45.769494383811136,15.384663530916498C52.845894795276116,26.33314895640227,54.93914507360254,31.92661632750659,43.62453744580954,27.318762114848166C32.30992981801653,22.71090790218974,7.587464284104101,7.901732105768572,-2.456089777491383,10.775520426096904C-12.499643839086866,13.649308746425238,-7.8642864283654035,34.206061183503074,-2.680177598207881,39.16257226671208C2.503931231949641,44.1190833499211,8.236791481543223,33.47535307926129,8.932479079760181,25.47804040103661C9.628166677977143,17.48072772281192,5.28668162481748,12.129832637022357,10.083630774105483,8.547046448473752C14.880579923393487,4.964260259925149,28.815963275129157,3.1495829686175063,31.981871292409412,0.17155783996547447C35.14777930968966,-2.8064672886865574,27.544211992514494,-6.947840254682978,20.687045701841342,-6.492036169908243C13.829879411168186,-6.036232085133507,7.719114146997045,-0.9832509495876174,3.994729904911683,4.4840195553413675C0.270345662826321,9.951290060270352,-1.0676575571732612,15.83284993458243,-1.9280398289521699,18.996184054100777C-2.7884221007310783,22.15951817361912,-3.171183424289313,22.604626538343734,-1.0840677622612742,14.354557303927898C1.0030478997667647,6.10448806951206,5.560040547381078,-10.840758764044226,5.490762501017206,-15.104411260968131C5.421484454653333,-19.368063757892035,0.7259357143112757,-10.950121918183555,5.645722130016475,-11.376464853391925C10.565508545721674,-11.802807788600296,25.10063011747413,-21.073435498725516,19.773058459831596,-15.479801851086588C14.445486802189055,-9.88616820344766,-10.744778084848473,10.571726801955414,-16.363832061594415,11.498276339219466C-21.98288603834036,12.424825876483515,-8.03072910479472,-6.1799700543914575,-3.530670738504342,-8.925168482270516C0.9693876277860358,-11.670366910149575,-3.982652573178851,1.4440321649672807,3.4203230722870037,10.35134858287816C10.82329871775286,19.258665000789037,30.581290209649453,23.95889876149394,31.043365007626367,20.69159738533713C31.505439805603277,17.424296009180317,12.671597909660509,6.189459496161794,6.885533685705922,-0.972849689934391C1.0994694617513359,-8.135158876030575,8.361182909784935,-11.224940735204418,12.170765629258295,-8.558322584285316C15.980348348731656,-5.891704433366211,16.33780033964478,2.5313137276458395,18.5826231522683,2.859252905907943C20.82744596489182,3.1871920841700465,24.95963959922573,-4.579947720317797,21.441120953298956,-1.3442511039869611C17.922602307372177,1.891445512343875,6.7533713811847065,16.12997854949339,0.6805334429229455,27.479194543163963C-5.392304495338815,38.82841053683454,-6.368749445674866,47.28830948702617,-0.043002562620565676,37.23094774621647C6.282744320433736,27.17358600540679,19.91068303687839,-1.4010364264042146,21.950525706968502,-4.453133037751549C23.990368377058612,-7.505229649098883,14.442115000794184,14.965199560017453,6.00415359856589,20.522100263140423C-2.4338078036624036,26.079000966263397,-9.761477231854562,14.722373163393005,-12.786879957410129,1.5991381648669938C-15.812282682965694,-11.524096833659017,-14.535418705884668,-26.413939027840648,-17.607258239389914,-22.255272296394654C-20.679097772895158,-18.096605564948653,-28.099640816986675,5.110570092124968,-22.068415402034297,11.743320591463327C-16.03718998708192,18.376071090801684,3.4458038869143515,8.434396432404776,7.384600757608683,1.3380728739974268C11.323397628303015,-5.758250684409923,-0.28200250430459306,-10.009223142827715,-7.631890978474658,-12.30092514826987C-14.981779452644723,-14.592627153712026,-18.076156268377247,-14.925058706178548,-11.07213197219335,-20.513629068748486C-4.068107676009454,-26.102199431318418,13.034317732090862,-36.94690860399177,11.092803708934415,-34.09200412321159C9.151289685777972,-31.237099642431403,-11.834163768635234,-14.682581508197682,-22.326890495841837,-6.405322441080823L-32.81961722304844,1.8719366260360357" style="filter: url(#pvdal); stroke: rgb(109, 155, 195);"></path></g></svg>