<svg viewBox="0 0 300 300" preserveAspectRatio="xMidYMid" width="300" height="300"><filter id="ydlnu" width="300" height="500" x="-50%" y="-50%"><feFlood flood-color="#da2647" result="element"></feFlood><feTurbulence baseFrequency="0.02" type="fractalNoise" numOctaves="8" seed="75" result="element_1"></feTurbulence><feGaussianBlur stdDeviation="4" in="SourceAlpha" result="element_2"></feGaussianBlur><feDisplacementMap scale="100" in="element_2" in2="element_1" result="element_3"></feDisplacementMap><feComposite operator="in" in="element" in2="element_3" result="element_4"></feComposite><feMerge><feMergeNode in="element_4"></feMergeNode></feMerge></filter><g transform="translate(150,150) scale(1.5)"><path d="M0,0L2.1411515875068323,-0.912635537520382C4.282303175013665,-1.825271075040764,8.56460635002733,-3.650542150081528,6.8991601033933785,3.3075861777810043C5.233713856759428,10.265714505643537,-2.3794818115221386,26.007242236409365,-5.073054372305543,23.70718215596107C-7.766626933088947,21.40712207551278,-5.540576386374188,1.065474183850366,4.580308903892371,-15.369618151476173C14.70119419415893,-31.804710486802712,32.71691422797729,-44.333247265793375,39.50971971502837,-43.567153385248936C46.30252520207944,-42.80105950470448,41.87241614236322,-28.740334964624928,23.607688851122393,-19.884021572919277C5.342961559881566,-11.027708181213622,-26.756383962883874,-7.375805937881874,-32.07950086470885,-4.850975208203489C-37.40261776653383,-2.326144478525104,-15.949506047418344,-0.9283852625000832,-5.972006869122106,0.140981463214154C4.005492309174132,1.2103481889283911,2.5073789466511243,1.9513224243318446,7.2513253127168715,4.328533027678998C11.995271678782618,6.705743631026151,22.98127777343712,10.719190602317004,19.64058820348328,12.203198163553935C16.29989863352944,13.687205724790863,-1.367486601032743,12.641773875973868,-6.02678567985221,10.308191944573021C-10.68608475867168,7.9746100131721755,-2.3372976817484306,4.35287799918748,-1.2488197368830631,-4.467476779344887C-0.16034179201769572,-13.287831557877254,-6.332172979210209,-27.30680910095729,-11.584526080178641,-33.78320446788665C-16.836879181147072,-40.259599834816015,-21.16975419589142,-39.1934130255947,-18.6675089885432,-35.9707468392756C-16.165263781194977,-32.74808065295649,-6.827898351754179,-27.36893508953959,-7.8970430521825286,-18.359159818685075C-8.966187752610878,-9.349384547830564,-20.441842582908375,3.2910204304615673,-22.2188351807349,14.299102309465482C-23.99582777856142,25.3071841884694,-16.07415814391697,34.682942968185095,-10.419064090818411,38.48939877131218C-4.763970037719853,42.29585457443927,-1.3754515661671847,40.53300740097774,2.264723751779125,35.58273363186993C5.904899069725435,30.63245986276212,9.796731234065387,22.49475949800803,10.169709000955857,19.140576893460953C10.542686767846325,15.786394288913879,7.3968101372873125,17.21572944457382,7.729947158197041,15.335504992955007C8.063084179106768,13.455280541336192,11.875234851485237,8.265496482438621,12.294315537511034,10.441722987478046C12.71339622353683,12.617949492517472,9.739406923209952,22.16018656149389,13.303846139403024,22.457707408700898C16.8682853555961,22.75522825590791,26.971153088309123,13.808032881345508,28.815562149767924,7.906778587094683C30.659971211226726,2.0055242928438624,24.245921601431302,-0.8497889210953806,22.278046419331105,-2.763145890125836C20.310171237230904,-4.676502859156292,22.78847048282593,-5.64790358327796,24.925460068239424,-2.3044892373209267C27.062449653652923,1.038925108636107,28.858129578884895,8.697154524671841,21.847496922459964,8.029368826389204C14.836864266035034,7.361583128106566,-0.9800809720467996,-1.6322176844944458,-6.076384328186017,-5.428725972118926C-11.172687684325235,-9.225234259743406,-5.548349158521837,-7.8244500223913525,1.3165824348539625,-5.072023234028737C8.181514028229762,-2.3195964456661216,16.28703868917796,1.7844728937070573,21.497442482565503,8.053991178546905C26.70784627595305,14.323509463386754,29.023129201779934,22.758476693693275,25.07417252150213,28.569647300939675C21.125215841224332,34.380817908186074,10.912019554841846,37.56819189237236,5.648538999634964,40.36408586602295C0.3850584444280808,43.15997983967352,0.07129362039680096,45.56439380278839,0.22544874791859718,37.13374653782559C0.3796038754403934,28.703099272862794,1.0016789545152656,9.437390779822326,-2.284920661919511,4.454421206984334C-5.571520278354287,-0.5285483658536583,-12.766794590298712,8.771220981510822,-12.834581926320487,5.104643136594701C-12.902369262342262,1.4380652916785817,-5.842669622441385,-15.19485974551814,-2.520945556158559,-12.432869363061982C0.8007785101242674,-9.670878980605826,0.3845270027890437,12.48602682150321,0.17640124912143196,23.564479722557728L-0.03172450454617983,34.642932623612246" style="filter: url(#ydlnu); stroke: rgb(218, 38, 71);"></path></g></svg>