<svg viewBox="0 0 300 300" preserveAspectRatio="xMidYMid" width="300" height="300"><filter id="jqyab" width="300" height="500" x="-50%" y="-50%"><feFlood flood-color="#f5f5f5" result="element"></feFlood><feTurbulence baseFrequency="0.02" type="fractalNoise" numOctaves="8" seed="84" result="element_1"></feTurbulence><feGaussianBlur stdDeviation="5" in="SourceAlpha" result="element_2"></feGaussianBlur><feDisplacementMap scale="100" in="element_2" in2="element_1" result="element_3"></feDisplacementMap><feComposite operator="in" in="element" in2="element_3" result="element_4"></feComposite><feMerge><feMergeNode in="element_4"></feMergeNode></feMerge></filter><g transform="translate(150,150) scale(1.5)"><path d="M0,0L8.605278283513126,-2.797158148714923C17.210556567026252,-5.594316297429846,34.421113134052504,-11.188632594859692,37.432158649454244,-11.122293772582317C40.443204164855985,-11.055954950304942,29.254738628633206,-5.328961008320345,24.74796856574737,-0.3911743691529197C20.241198502861536,4.5466122700145055,22.416123913312646,8.695191606364759,20.371524975017792,14.899018068581576C18.326926036722945,21.102844530798393,12.062802749682133,29.361918118881775,11.382564733447385,20.673433006092832C10.702326717212639,11.984947893303888,15.605973971783955,-13.651095920357378,19.549788842570496,-17.774509496891092C23.49360371335704,-21.897923073424806,26.47758620035881,-4.5087064128309695,21.473279204906277,3.3742974190424957C16.468972209453746,11.257301250915962,3.4763757315469093,9.634092254069055,-0.5809157566955644,4.053579906578888C-4.638207244938038,-1.5269324409112803,0.23980625648385034,-11.06474813904471,5.023183805606142,-5.132725147277833C9.806561354728434,0.7992978444890415,14.49530295155113,22.20115952615622,17.913111592539764,24.683630121765542C21.330920233528403,27.166100717374867,23.47779591868298,10.729180226926335,28.163416962826943,3.797351405710137C32.84903800697091,-3.13447741550606,40.07340441010426,-0.5612145674899229,35.608317713366965,-0.9993917522176649C31.143231016629674,-1.4375689369454068,14.988691220021739,-4.887186154417028,7.310563520975588,-4.007989107713955C-0.3675641780705615,-3.128792061010882,0.43072022044507097,2.0792192498668856,3.5490029007254984,1.375315973882345C6.667285581005926,0.6714126978978046,12.105566543051147,-5.944405164949044,2.814689601062348,-8.716988108354343C-6.476187340926451,-11.489571051759642,-30.49622218694927,-10.418919075723391,-26.1165162308479,-5.486615345849255C-21.736810274746528,-0.5543116159751191,11.042636483479036,8.239643867736904,21.14380598073533,11.402253076979623C31.244975477991623,14.564862286222342,18.667867714278646,12.09612522099576,2.156202118938218,6.4257124389454C-14.355463476402214,0.7552996568950405,-34.8016869033701,-8.116788841979094,-35.769444443546334,-15.121247709246877C-36.737201983722564,-22.125706576514663,-18.22649363710715,-27.262535812176097,-3.244663770372309,-26.86884908769441C11.737166096362532,-26.475162363212718,23.190117483216802,-20.55095967858791,29.614982860823606,-7.382046475314462C36.03984823843041,5.78686672795898,37.43662760678975,26.200490449881052,34.52020675970966,29.60167546810616C31.603785912629572,33.002860486331265,24.374164850110056,19.3916068008594,22.953164699499833,13.54757259603197C21.53216454888961,7.703538391204537,25.919785310188683,9.626723667021537,19.814649882024295,5.482666110542021C13.709514453859903,1.3386085540625032,-2.8883771637679505,-8.872691834713532,-12.477957113478382,-17.128643845011055C-22.067537063188816,-25.384595855308582,-24.648805344981824,-31.685199487127598,-13.305916528022609,-26.308902449193802C-1.9630277110633934,-20.932605411260013,23.30401820464805,-3.8794077035734134,34.666937992779324,-6.734689478306911C46.0298577809106,-9.589971253040408,43.48865144146171,-32.353732510194,30.5326618764634,-39.85969887760457C17.5766723114651,-47.36566524501514,-5.794100479082619,-39.613836722682684,-14.211267453699515,-26.376827684664654C-22.62843442831641,-13.13981864664662,-16.091995587002486,5.582370907056987,-11.457417926368585,11.64968016873125C-6.822840265734685,17.716989430405512,-4.090123785780811,11.12941840005043,-3.507972148033194,6.111765266595727C-2.9258205102855754,1.094112133141024,-4.4942337147442135,-2.3536231034133004,-3.8610562769174943,2.8161106501822966C-3.2278788390907756,7.985844403777894,-0.3931107589787002,21.773047147523414,-2.67903597694991,30.266887025200607C-4.96496119492112,38.7607269028778,-12.371579710975615,41.96120391448667,-13.52357389609385,36.5978753959446C-14.675568081212086,31.23454687740254,-9.572937935394062,17.307412828709545,2.9912677621130177,6.072194012334007C15.555473459620098,-5.16302480404153,35.58125470881623,-13.706328388099612,45.5941453334143,-17.977980180128654L55.607035958012375,-22.249631972157694" style="filter: url(#jqyab); stroke: rgb(245, 245, 245);"></path></g></svg>