<svg viewBox="0 0 300 300" preserveAspectRatio="xMidYMid" width="300" height="300"><filter id="ytpsk" width="300" height="500" x="-50%" y="-50%"><feFlood flood-color="#fddb6d" result="element"></feFlood><feTurbulence baseFrequency="0.02" type="fractalNoise" numOctaves="8" seed="79" result="element_1"></feTurbulence><feGaussianBlur stdDeviation="5" in="SourceAlpha" result="element_2"></feGaussianBlur><feDisplacementMap scale="100" in="element_2" in2="element_1" result="element_3"></feDisplacementMap><feComposite operator="in" in="element" in2="element_3" result="element_4"></feComposite><feMerge><feMergeNode in="element_4"></feMergeNode></feMerge></filter><g transform="translate(150,150) scale(1.5)"><path d="M0,0L8.666470198248518,-0.3010596156059546C17.332940396497037,-0.6021192312119092,34.66588079299407,-1.2042384624238185,32.86898837599854,1.4663282926872392C31.072095959003015,4.136895047798297,10.14537072851492,10.08014778923232,-0.8783902536846728,9.725029189672982C-11.902151235884265,9.36991059011364,-13.02294796979535,2.716420649560937,-11.08793945045787,1.319039435462412C-9.152930931120393,-0.07834177863611291,-4.162117158534347,3.780385733719542,-3.3015863788474347,-0.7337044680258806C-2.441055599160522,-5.247794669771304,-5.7108078123727415,-18.134702585617806,-6.833596444694806,-19.36162448729384C-7.95638507701687,-20.588546388969885,-6.93221012844878,-10.155482276475462,3.567509638684232,-6.489726702215961C14.067229405817244,-2.82397112795646,34.04249399151517,-5.925524091931881,40.801289392318395,-6.307808481274534C47.56008479312162,-6.690092870617188,41.10241100903012,-4.353108685327074,32.32609774336646,-6.4615426315711275C23.549784477702808,-8.569976577815181,12.454831730466992,-15.123828655593401,-2.4886278463984253,-10.595333800685733C-17.43208742326384,-6.0668389457780645,-36.22405382975886,9.544002841815495,-30.781162105947367,11.866557193562539C-25.338270382135878,14.189111545309583,4.339479471982116,3.2233784612101157,10.722503723959864,-2.4261583286614625C17.105527975937612,-8.07569511853304,0.19382662577511134,-8.40903561417673,-0.42636984411107903,1.3688425713716814C-1.0465663139972694,11.146720756920093,14.62474209639285,31.035817623660606,19.703846254974255,34.50845471849306C24.78295041355566,37.98109181332552,19.269850320328356,25.03726913624992,11.310784656761948,14.873763518892915C3.351718993195539,4.710257901535906,-7.053312240709971,-2.672930656102511,-4.737662645069033,-4.226917699903917C-2.422013049428097,-5.780904743705322,12.614317375759288,-1.5056902736697162,15.469489870474806,-4.447903424084341C18.324662365190324,-7.390116574498965,8.998676929433977,-17.54975734536382,2.3705463258891495,-12.670336300313263C-4.257584277655677,-7.790915255262705,-8.18786004898898,12.127567605703264,0.9596081208299925,25.334510953681352C10.107076290648966,38.541454301659435,32.33228840162022,45.036858136649634,36.589921552056296,41.125981301885815C40.847554702492374,37.21510446712199,27.137608892393274,22.89794696260415,17.856247513180072,16.156291093037126C8.574886133966865,9.414635223470103,3.72210918563955,10.2484809888539,1.3278017388800432,10.713607315746764C-1.0665057078794637,11.178733642639628,-1.0023436530711622,11.275140531041558,8.500170328747434,12.886772914319653C18.00268431056603,14.498405297597749,36.943550219394915,17.625263175752014,40.440287214599216,6.918322692600217C43.93702420980351,-3.788617790551582,31.98963229138322,-28.329356635009443,30.948588559127792,-32.44897472597812C29.90754482687236,-36.5685928169468,39.77284928078179,-20.267090154426295,32.38595367133626,-12.954276506777706C24.999058061890732,-5.6414628591291205,0.3599623890902386,-7.31733822635245,-15.089019689263854,-13.5902545721112C-30.538001767617942,-19.86317091786995,-36.79687025152563,-30.733128242164117,-30.567529821100244,-25.403051928937135C-24.338189390674863,-20.072975615710153,-5.620640045916403,1.457134335037983,1.9138217879118615,8.477574307899602C9.448283621740126,15.498014280761218,5.799657944638197,8.00878427573632,5.39366518742041,6.065049913882758C4.987672430202625,4.121315552029197,7.824312592868983,7.723076833346973,7.029454154129271,11.719817288690066C6.234595715389559,15.71655774403316,1.8082386752437765,20.108277373401574,-2.633648323204066,17.64968961593361C-7.075535321651908,15.191101858465647,-11.53295227840181,5.882206714161306,-14.239290067082084,2.7138981589947013C-16.945627855762357,-0.4544103961719035,-17.900886476373003,2.5178676377992284,-8.329331211809151,2.9197724695038C1.2422240527546986,3.3216773012083713,21.340593202493046,1.1532089306463826,24.119499302518008,4.483837551170466C26.89840540254297,7.81446617169455,12.357848452854546,16.644191783304706,5.087569978010333,21.059054589109785L-2.182708496833879,25.47391739491486" style="filter: url(#ytpsk); stroke: rgb(253, 219, 109);"></path></g></svg>