<svg viewBox="0 0 300 300" preserveAspectRatio="xMidYMid" width="300" height="300"><filter id="lgzjt" width="300" height="500" x="-50%" y="-50%"><feFlood flood-color="#efcdb8" result="element"></feFlood><feTurbulence baseFrequency="0.02" type="fractalNoise" numOctaves="8" seed="27" result="element_1"></feTurbulence><feGaussianBlur stdDeviation="4" in="SourceAlpha" result="element_2"></feGaussianBlur><feDisplacementMap scale="100" in="element_2" in2="element_1" result="element_3"></feDisplacementMap><feComposite operator="in" in="element" in2="element_3" result="element_4"></feComposite><feMerge><feMergeNode in="element_4"></feMergeNode></feMerge></filter><g transform="translate(150,150) scale(1.5)"><path d="M0,0L6.838145443784936,-3.2837386081150806C13.676290887569872,-6.567477216230161,27.352581775139743,-13.134954432460322,24.269214019132914,-22.467518874279527C21.185846263126084,-31.800083316098732,1.3428198635425534,-43.89773498350698,-0.34668103117385307,-40.28378067065884C-2.0361819258902596,-36.66982635781071,14.427842684260458,-17.344266064706193,14.713168478188138,-6.459815533292094C14.998494272115815,4.424634998122003,-0.8948787501795454,6.867975767845681,-1.6068657816295238,6.294792453822926C-2.318852813079502,5.721609139800172,12.150546146315902,2.131901742030986,12.18433818147704,0.03795243800323922C12.218130216638176,-2.0559968660245076,-2.1836846724349552,-2.6541880763108154,-6.8642021639825765,-2.259620124743035C-11.544719655530198,-1.8650521731752545,-6.503939749552312,-0.47772505975338597,-11.950508520294836,7.2883536247824C-17.39707729103736,15.054432309318186,-33.330994738500294,29.19926256496789,-33.407164279413976,32.240067418433426C-33.48333382032766,35.28087227189896,-17.70175545469208,27.217651723180325,-5.794000622310238,18.014789049984532C6.113754210071605,8.811926376788744,14.147685509199713,-1.5305784208842033,13.729560908694705,-8.12960473429889C13.311436308189695,-14.728631047713579,4.4412558080515705,-17.58417887687001,-0.015298915735476148,-6.048160924313324C-4.471853639522522,5.48785702824336,-4.514782586958489,31.415440762513157,-8.60586262039056,35.41425150034678C-12.696942653822632,39.4130622381804,-20.836173773250806,21.483099979577858,-19.62388296904793,3.8432732321449503C-18.411592164845054,-13.796553515287956,-7.847779437011131,-31.14624475155122,2.662377587180554,-32.321031641416994C13.172534611372239,-33.49581853128276,23.62903593192169,-18.495701074751036,23.154072103277883,-9.658196544528659C22.679108274634086,-0.8206920143062817,11.272679296797035,1.8541995896067487,11.457384474332143,2.5440269611832504C11.64208965186725,3.2338543327597526,23.417928984774516,1.938617471999726,22.707207705080176,10.241101787837497C21.996486425385843,18.54358610367527,8.799204533089904,36.44379159611084,4.476924000834083,36.321887264305005C0.15464346857826206,36.19998293249916,4.707364296362559,18.055968776451916,-1.959385325349161,9.107880290469891C-8.62613494706088,0.15979180448786579,-26.512355018268615,0.4076289885710624,-28.522875633928173,1.00412645024563C-30.53339624958773,1.6006239119201973,-16.668217409699114,2.5457816511861355,-13.119186634103322,3.8712655090946217C-9.570155858507528,5.196749367003108,-16.33727314720456,6.902559343554143,-10.229749854937019,6.2772728206800235C-4.122226562669477,5.651986297805904,14.859937310562637,2.6956032755066324,18.357486907432758,1.0021818289038857C21.855036504302877,-0.6912396176988607,9.867971824811,-1.1216994886050813,-0.28762434252071145,2.5173835795259283C-10.443220509852425,6.156466647656938,-18.767348165023975,13.865092654825176,-22.43659699848885,9.196561270276622C-26.105845831953722,4.528029885728069,-25.12021584371192,-12.517658890537279,-12.544635329138188,-15.71333532225156C0.03094518543554514,-18.90901175396584,24.19647622634121,-8.254675841129052,27.090412301301917,-3.185159394423698C29.984348376262624,1.8843570522816546,11.606689485278375,1.3690540328555727,2.1578824070340357,3.0256925948925564C-7.290924671210304,4.68233115692954,-7.810879936714733,8.510911300429589,-9.409039947073502,2.250225656951435C-11.007199957432272,-4.010459986526719,-13.683564712645381,-20.360411416983077,-10.486199729642793,-22.367444551778792C-7.288834746640205,-24.37447768657451,1.7822599745780812,-12.038592525709591,4.301766267825368,-2.896410638411999C6.8212725610726554,6.2457712488855925,2.7891904263489433,12.194249862615855,0.6410684178134812,16.389074210402704C-1.5070535907219806,20.58389855818955,-1.7712154730691925,23.02506864003298,-2.0852658078115414,16.331852920319932C-2.3993161425538903,9.638637200606885,-2.763254929691376,-6.188964320662642,-1.3457281880031813,-7.330630087134749C0.07179855368501364,-8.472295853606857,3.27079082419889,5.071974134718454,4.870286959455829,11.844109128881112L6.469783094712766,18.616244123043767" style="filter: url(#lgzjt); stroke: rgb(239, 205, 184);"></path></g></svg>