<svg viewBox="0 0 300 300" preserveAspectRatio="xMidYMid" width="300" height="300"><filter id="dajly" width="300" height="500" x="-50%" y="-50%"><feFlood flood-color="#1b1b1b" result="element"></feFlood><feTurbulence baseFrequency="0.02" type="fractalNoise" numOctaves="8" seed="59" result="element_1"></feTurbulence><feGaussianBlur stdDeviation="5" in="SourceAlpha" result="element_2"></feGaussianBlur><feDisplacementMap scale="100" in="element_2" in2="element_1" result="element_3"></feDisplacementMap><feComposite operator="in" in="element" in2="element_3" result="element_4"></feComposite><feMerge><feMergeNode in="element_4"></feMergeNode></feMerge></filter><g transform="translate(150,150) scale(1.5)"><path d="M0,0L5.349739467778708,-0.0004441128802477064C10.699478935557416,-0.0008882257604954128,21.39895787111483,-0.0017764515209908256,24.986956574171224,3.4633913127431404C28.574955277227616,6.928559077007272,25.051473747782985,13.859782831296029,20.10159753335583,7.718416812676903C15.151721318928669,1.5770507940577758,8.77545041951898,-17.636904997469237,11.443839620207317,-22.998922591370327C14.112228820895652,-28.36094018527142,25.82527812168201,-19.87101958154659,25.308235206553302,-15.236307605247433C24.791192291424597,-10.601595628948271,12.044057160380822,-9.822092280074777,2.3296217641878973,-7.353595411737071C-7.384813632005028,-4.885098543399366,-14.066549293347107,-0.7276081555974492,-20.931808772573657,4.029280529677087C-27.79706825180021,8.786169214951624,-34.845851548911234,14.142456197698777,-28.226433229776365,18.62297011431891C-21.607014910641496,23.103484030939043,-1.3193949752607317,26.70822488143215,1.8768359388224862,19.516450730565467C5.073066852905704,12.32467657969878,-8.822091254308623,-5.663612572527704,-4.941785572607882,-5.25068636408121C-1.0614798909071403,-4.837760155634715,20.59428957970867,13.976381413484757,27.06128812087909,17.612121425323387C33.52828666204952,21.247861437162012,24.806514273774553,9.705199891719797,17.810252797758718,2.8143667383627906C10.813991321742877,-4.076466414994217,5.5432407579861644,-6.315471176266012,-1.3551353016456047,-7.531001481863335C-8.253511361277374,-8.746531787460658,-16.779512916784196,-8.938587637383506,-16.92394160975559,-13.826898383120177C-17.06837030272699,-18.715209128856852,-8.831226133162957,-28.29977477040735,-4.2248766755173355,-23.794635779715318C0.3814727821282863,-19.28949678902329,1.357027527855498,-0.6946531660887274,-2.2652745655627617,1.5751848778513287C-5.887576658981022,3.8450229217913847,-14.107735591544753,-10.210144613263065,-14.97378842561214,-11.478311843880839C-15.839841259679526,-12.746479074498613,-9.35178799525057,-1.2276460006797114,-12.65594660059644,-5.73913902804373C-15.960105205942313,-10.250632055407749,-29.056475681063013,-30.792451183954686,-24.86498692651761,-29.837488266846698C-20.673498171972206,-28.882525349738714,0.8058498122393001,-6.430780386975808,8.0507287562475,4.20518650943045C15.295607700255701,14.841153405836709,8.306017604060594,13.661342235886318,-3.6956005497076942,13.28717801197552C-15.697218703475984,12.91301378806472,-32.710864914817456,13.344496510193515,-28.84393302162554,15.173643124986105C-24.97700112843361,17.0027897397787,-0.22949113070828986,20.229600247235087,-0.7952034768789815,18.07995259760986C-1.3609158230496732,15.930304947984633,-27.239850513116377,8.404199141277791,-34.97679195100116,2.327506604711506C-42.713733388885935,-3.749185931854779,-32.30868157458879,-8.376465198280508,-27.953766994192925,-16.1811296131863C-23.598852413797058,-23.985794028092094,-25.294075067302472,-34.96784359147796,-22.18380712551549,-40.156276664652275C-19.073539183728506,-45.34470973782659,-11.157780646649123,-44.73952632078937,-9.308074212439042,-36.02784441454935C-7.4583677782289595,-27.316162508309326,-11.674713446888179,-10.4979821128665,-17.683420562137446,-8.671421992185985C-23.69212767738671,-6.84486187150547,-31.493196239226023,-20.009922025587265,-19.841318453203478,-18.051981459590976C-8.189440667180929,-16.094040893594688,22.91538346670348,0.9869003924796829,30.22002985830184,12.195164382870669C37.524676249900196,23.403428373261654,21.029144899212504,28.739015067969255,9.402145142507429,25.118463273740307C-2.224854614197642,21.497911479511355,-8.983322776920092,8.921221196345861,-10.21712501701226,2.295343994030291C-11.450927257104425,-4.33053320828528,-7.1600635745663075,-5.005597329750923,-5.599822585318922,-3.7815627636807023C-4.039581596071535,-2.5575281976104822,-5.2099633001148815,0.5656050559956021,-4.8012339091483724,3.754635257999234C-4.392504518181864,6.943665460002865,-2.4046640322055017,10.198592610404045,-3.7744277993410424,0.4830503897038554C-5.144191566476584,-9.232491830996334,-9.871559586724029,-31.91850342279789,-12.235243596847752,-43.26150921869868L-14.598927606971474,-54.60451501459946" style="filter: url(#dajly); stroke: rgb(27, 27, 27);"></path></g></svg>