<svg viewBox="0 0 300 300" preserveAspectRatio="xMidYMid" width="300" height="300"><filter id="xrjxl" width="300" height="500" x="-50%" y="-50%"><feFlood flood-color="#44d7a8" result="element"></feFlood><feTurbulence baseFrequency="0.02" type="fractalNoise" numOctaves="8" seed="99" result="element_1"></feTurbulence><feGaussianBlur stdDeviation="4" in="SourceAlpha" result="element_2"></feGaussianBlur><feDisplacementMap scale="100" in="element_2" in2="element_1" result="element_3"></feDisplacementMap><feComposite operator="in" in="element" in2="element_3" result="element_4"></feComposite><feMerge><feMergeNode in="element_4"></feMergeNode></feMerge></filter><g transform="translate(150,150) scale(1.5)"><path d="M0,0L0.8101874816826242,-0.4556074218684065C1.6203749633652484,-0.911214843736813,3.240749926730497,-1.822429687473626,-0.6449426595786765,1.3042407755354288C-4.53063524588785,4.430911238544484,-13.922395381871445,11.595467008299407,-13.262797732221992,12.48280711863394C-12.603200082572538,13.370147228968474,-1.8922446472900383,7.980271679882617,2.338580429137891,5.822577322520165C6.56940550556582,3.6648829651577137,4.320100223139178,4.739369799518666,0.9456269598671507,-4.975202176931197C-2.4288463034048764,-14.689774153381062,-6.9284875475222885,-35.19340494064174,2.6274397711306277,-32.77480442421239C12.183367089783545,-30.35620390778304,35.79486297120679,-5.015372087663653,39.57713446665805,4.875526679429723C43.35940596210932,14.7664254465231,27.312453071588607,9.207391160590467,13.950802819641499,4.773304057594041C0.589152567694387,0.33921695459761514,-10.087195045679122,-2.9699229654626036,-2.890833373602259,-11.322392201568567C4.305528298474602,-19.67486143767453,29.374599256001837,-33.07065998982624,32.99026774984763,-38.95427930872054C36.605936243693435,-44.83789862761484,18.768202273857803,-43.20933871325174,13.078054641508258,-34.00470869252563C7.387907009158712,-24.80007867179953,13.84534571429525,-8.019378544710422,9.485228861459458,-3.2708617009952734C5.125112008623665,1.4776551427198754,-10.052560402184461,-5.806011296938934,-10.518004458655406,-11.517116096905733C-10.983448515126351,-17.228220896872532,3.263335782739885,-21.36676405714732,8.539004262873485,-18.877095457439463C13.814672743007087,-16.387426857731608,10.119225405408052,-7.2695464980411035,7.077160014276228,2.044580417717723C4.035094623144405,11.358707333476548,1.6464111784797946,20.869080805303696,3.0348145813881358,17.45993090992381C4.423217984296477,14.050781014543919,9.588708234777771,-2.2778922480430097,12.61034798179107,-7.185937438637933C15.631987728804372,-12.093982629232856,16.50977697234968,-5.5813997478357775,14.167037877556341,-2.475808805378989C11.824298782763002,0.6297821370777988,6.261031349631013,0.328381140594295,3.865000041980308,1.4013311602117848C1.4689687343296027,2.474281179829275,2.24017355216018,4.921582215547758,-0.6848891174544507,1.6684421733848689C-3.6099517870690816,-1.5846978687780204,-10.23128194412892,-10.538278988822283,-11.918707696045834,-2.7774176248633147C-13.606133447962744,4.983443739095652,-10.35965479473673,29.45874758705785,-9.318619420434093,29.160417014374172C-8.277584046131455,28.862086441690504,-9.441991950752197,3.7901214483609618,-8.012115555749862,3.6707475504757685C-6.582239160747524,3.5513736525905752,-2.5580784661221085,28.38459085014973,-2.701797838840816,33.227945257201654C-2.8455172115595233,38.07129966425359,-7.157116651622354,22.92479128079829,-12.080075480650837,5.882537223535648C-17.00303430967932,-11.159716833726991,-22.537352527673455,-30.09771656479697,-20.835322681683536,-39.74528861501204C-19.133292835693616,-49.39286066522711,-10.19491492571964,-49.750005034587275,-5.841083477902868,-46.287833195535725C-1.4872520300860956,-42.825661356484176,-1.717967044426528,-35.54417330902091,-5.2102695032106086,-26.78295231256466C-8.702571961994689,-18.021731316108408,-15.456461865222419,-7.7807773706591625,-16.045657186614118,-4.239708145072026C-16.634852508005814,-0.6986389194848899,-11.059353247561482,-3.8574544137598608,-7.373706912297668,-2.947964654437208C-3.6880605770338524,-2.038474895114555,-1.8922671669505549,2.939320117805722,3.130685974217495,-2.7335655299961132C8.153639115385545,-8.40645117779795,16.403751987638344,-24.7300174863219,7.183626671225934,-29.00328725622023C-2.0364986451864766,-33.27655702611856,-28.7268621502641,-25.499530257391275,-31.264067759759623,-25.744032451954325C-33.80127336925515,-25.98853464651738,-12.185321083168569,-34.25456580437077,-0.6352605424456441,-32.31260951296534C10.914799998277282,-30.37065322155991,12.398968793636552,-18.220709480895657,2.0091699267097205,-3.211697723433794C-8.380628940217113,11.797314034028071,-30.64439546943005,29.66539380828755,-41.776278734036524,38.59943369541729L-52.90816199864299,47.53347358254703" style="filter: url(#xrjxl); stroke: rgb(68, 215, 168);"></path></g></svg>