<svg viewBox="0 0 300 300" preserveAspectRatio="xMidYMid" width="300" height="300"><filter id="xelgv" width="300" height="500" x="-50%" y="-50%"><feFlood flood-color="#71bc78" result="element"></feFlood><feTurbulence baseFrequency="0.02" type="fractalNoise" numOctaves="8" seed="45" result="element_1"></feTurbulence><feGaussianBlur stdDeviation="4" in="SourceAlpha" result="element_2"></feGaussianBlur><feDisplacementMap scale="100" in="element_2" in2="element_1" result="element_3"></feDisplacementMap><feComposite operator="in" in="element" in2="element_3" result="element_4"></feComposite><feMerge><feMergeNode in="element_4"></feMergeNode></feMerge></filter><g transform="translate(150,150) scale(1.5)"><path d="M0,0L7.342190498076194,-6.2218752731127775C14.684380996152388,-12.443750546225555,29.368761992304776,-24.88750109245111,27.142357818047614,-19.66446830555109C24.91595364379045,-14.441435518651067,5.778764299123733,8.44838060137453,-2.982849747493657,15.555131060260209C-11.744463794111047,22.661881519145886,-10.13050254267911,13.985566316891646,-7.189284518243021,11.459510652906841C-4.248066493806931,8.933454988922035,0.02040830363331425,12.557658863206667,1.9229978980542182,12.506386475904984C3.825587492475122,12.455114088603302,3.3622918838766855,8.728365439715308,2.1914939850393154,2.1894464156285394C1.0206960862019459,-4.349472608458228,-0.8576041028743567,-13.700562007743772,-10.483249217412272,-11.294303470895219C-20.10889433195019,-8.888044934046667,-37.48188437194972,5.275561538935981,-35.88057822105688,10.666086924272182C-34.27927207016403,16.056612309608383,-13.703669728378822,12.674056607298139,0.508389107634347,15.260678326460106C14.720447943647516,17.84730004562207,22.56896327388864,26.40309918625625,24.178636424554192,19.551117252196185C25.788309575219746,12.699135318136118,21.159140546309725,-9.56062769061819,20.105980447651543,-24.10200005588475C19.052820348993365,-38.64337242115131,21.575669180587024,-45.466354142930115,24.763776699108654,-39.98485152134517C27.951884217630276,-34.50334889976021,31.80525042307987,-16.7173619348115,33.297898137880296,-6.895934888249506C34.79054585268072,2.9254921583124873,33.92247507683199,4.782359286487761,30.926156002992474,-3.0924879599213098C27.929836929152962,-10.96733520633038,22.805269557322678,-28.573896827323797,20.1004852697347,-27.960906713735003C17.395700982146725,-27.347916600146217,17.110699778801056,-8.515374751975221,15.224825720168143,-4.644692316920002C13.33895166153523,-0.7740098818647843,9.852204747615076,-11.865186859925341,6.69687583222931,-19.18556992942719C3.541546916843546,-26.505952998929033,0.7176359999921722,-30.05554215987216,-0.329773870555591,-26.6805464683221C-1.3771837411033543,-23.305550776772034,-0.648092565347507,-13.005970232728775,-5.6141970959699385,-6.007921938082921C-10.58030162659237,0.9901263565629321,-21.24160186359308,4.686642401811381,-25.90911141989423,0.4744820313911289C-30.576620976195382,-3.737678339029123,-29.250339851796976,-15.858515125118075,-22.5047220028068,-15.567658882888432C-15.759104153816628,-15.27680264065879,-3.594149580234684,-2.5742533701105543,5.176490441976449,4.225788061605868C13.94713046418758,11.02582949332229,19.323455935027905,11.923363086206898,17.797886018136726,8.587125219641159C16.272316101245547,5.250887353075421,7.84485079662287,-2.319121972940664,-2.6586911836625595,-5.69980899785714C-13.16223316394799,-9.080496022773616,-25.741851819896173,-8.271860746590484,-26.335993818989294,-12.135504770905701C-26.930135818082423,-15.999148795220917,-15.538801160320489,-24.53507212003448,-2.734960758809329,-26.861253732294802C10.06887964270183,-29.187435344555126,24.285225787962215,-25.303875244262212,27.660072459796563,-21.59421253411611C31.034919131630907,-17.884549823970005,23.56826633003921,-14.348784503970716,17.309851289340536,-1.5773956690167807C11.051436248641862,11.193993165937156,6.001258968836208,33.201005515845736,4.160783341816178,32.70409435031345C2.3203077147961495,32.20718318478116,3.689533740561745,9.206348503807995,3.373487871402016,2.6424859015801467C3.0574420022422863,-3.921376700647701,1.056124238157232,5.9517327758697665,-4.962974877869392,3.179098699430405C-10.982073993896018,0.40646462299104336,-21.01895446186421,-15.011913006405148,-10.999081311117825,-18.576222967468713C-0.9792081603714387,-22.14053292853228,29.09741860908953,-13.850775221263225,35.25184916605578,-3.2961802423601076C41.40627972302202,7.25841473654301,23.63851406749354,20.07784698708019,12.536655688625135,21.851177426887702C1.4347973097567315,23.62450786669521,-3.001153792451598,14.351736495773057,0.6802429662884628,7.427190244225747C4.361639725028524,0.5026439926784367,16.160384344716974,-4.073677139494027,22.0597566545612,-6.3618377055802595L27.959128964405426,-8.649998271666492" style="filter: url(#xelgv); stroke: rgb(113, 188, 120);"></path></g></svg>