<svg viewBox="0 0 300 300" preserveAspectRatio="xMidYMid" width="300" height="300"><filter id="dqgxs" width="300" height="500" x="-50%" y="-50%"><feFlood flood-color="#a6e7ff" result="element"></feFlood><feTurbulence baseFrequency="0.02" type="fractalNoise" numOctaves="8" seed="51" result="element_1"></feTurbulence><feGaussianBlur stdDeviation="5" in="SourceAlpha" result="element_2"></feGaussianBlur><feDisplacementMap scale="100" in="element_2" in2="element_1" result="element_3"></feDisplacementMap><feComposite operator="in" in="element" in2="element_3" result="element_4"></feComposite><feMerge><feMergeNode in="element_4"></feMergeNode></feMerge></filter><g transform="translate(150,150) scale(1.5)"><path d="M0,0L5.447465799717809,3.3739499392275194C10.894931599435617,6.747899878455039,21.789863198871235,13.495799756910078,19.161021466920527,15.588041424503153C16.53217973496982,17.680283092096232,0.37956467163278695,15.116866548827344,-4.761419200758445,6.5739174609574205C-9.902403073149676,-1.9690316269125017,-4.031755754595106,-16.49151325938346,-8.57459858424438,-14.816353241956385C-13.117441413893655,-13.141193224529307,-28.07377439174677,4.73160844279581,-28.140540638534905,6.729947333377053C-28.207306885323035,8.728286223958296,-13.384506401046185,-5.147837662204332,-3.4453883067560396,-9.036497180047686C6.493729787534106,-12.925156697891039,11.549165491837543,-6.826351847415114,15.84980139451785,3.150751977047091C20.150437297198156,13.127855801509297,23.69627339825533,26.983258599957782,20.63951694258986,26.61164741073669C17.582760486924393,26.240036221515595,7.9234114745362785,11.641411044624919,-2.341862450288419,-2.0791685114211598C-12.607136375113116,-15.79974806746724,-23.478335212374397,-28.642282002668722,-23.687532338923937,-28.234270137431498C-23.896729465473477,-27.82625827219427,-13.443924881311274,-14.167700606518336,-12.140772457236345,-12.415084528935143C-10.837620033161414,-10.662468451351952,-18.68411976917376,-20.8157939618615,-22.610381375031512,-18.424629145955183C-26.536642980889265,-16.03346433004886,-26.54266645659243,-1.0978091877266696,-24.47102531281048,11.795627934088177C-22.39938416902853,24.689065055903022,-18.250078405761467,35.54028415721052,-14.898679180326488,31.36672155047372C-11.547279954891508,27.193158943736908,-8.99378726728861,7.99481462895579,-1.1694223938372605,-2.098614199099555C6.654942479614089,-12.1920430271549,19.75017953891389,-13.180556368484474,20.151388549277907,-9.272555952253384C20.552597559641917,-5.3645555360222925,8.259778521070142,3.439958637769461,-1.2884037129117845,-1.8772915475788547C-10.836585946893711,-7.194541732927171,-17.64013137628579,-26.633556277415558,-21.955938465981056,-30.190919954262775C-26.271745555676322,-33.74828363110999,-28.099814305674776,-21.42399644031604,-25.953090749776614,-19.05040060820965C-23.806367193878447,-16.676804776103264,-17.684851332083664,-24.253900302684443,-10.090134778312871,-22.29382349106369C-2.4954182245420773,-20.333746679442932,6.572499021204726,-8.836497529620244,5.990279558992993,-8.380428112993329C5.408060096781261,-7.924358696366411,-4.824296073389006,-18.50946901293527,-8.833278166207158,-18.92651694893461C-12.84226025902531,-19.343564884933944,-10.627868274491345,-9.592550440363762,-6.986139035834185,-5.831594821553031C-3.3444097971770255,-2.070639202742299,1.7246566956033291,-4.2997424096910155,10.27570660423671,-8.414478501794326C18.82675651287009,-12.529214593897636,30.8597898373565,-18.52958357115554,23.836864594556715,-21.10114802874962C16.813939351756936,-23.6727124863437,-9.264944458329039,-22.815472424273953,-19.498731827789147,-19.12219777197619C-29.732519197249253,-15.428923119678426,-24.12121012608349,-8.899613877152646,-18.75438270931657,-3.74927392516521C-13.38755529254965,1.4010660268222264,-8.26520953018157,5.172436688271318,-3.694762385383377,4.927547126769634C0.8756847594148174,4.682657565267949,4.894233286643127,0.4215077808154861,1.0806966329195404,-2.700230128560579C-2.732840020804046,-5.821968037936644,-14.378461855479529,-7.804294072236312,-7.858876129354229,-7.678970617003453C-1.3392904032289294,-7.553647161770595,23.34550288369715,-5.320674217005209,28.908369236777194,-1.2552478293115596C34.47123558985724,2.8101785583820895,20.912175009091236,8.708058389004002,11.363675008014063,8.125678475658837C1.8151750069368897,7.543298562313672,-3.7227644144514613,0.4806589050014294,-8.172572718992475,6.250653219635614C-12.622381023533489,12.0206475342698,-15.984058211227167,30.623275820850413,-13.773586302541604,31.966412772812955C-11.563114393856038,33.30954972477549,-3.7804933887912333,17.393195342119956,-1.798975523655753,17.431664539999186C0.18254234147972737,17.470133737878417,-3.6370429333141177,33.463426516292415,-5.546835570711039,41.460072905499416L-7.456628208107962,49.45671929470641" style="filter: url(#dqgxs); stroke: rgb(166, 231, 255);"></path></g></svg>