<svg viewBox="0 0 300 300" preserveAspectRatio="xMidYMid" width="300" height="300"><filter id="ubger" width="300" height="500" x="-50%" y="-50%"><feFlood flood-color="#fcd975" result="element"></feFlood><feTurbulence baseFrequency="0.02" type="fractalNoise" numOctaves="8" seed="51" result="element_1"></feTurbulence><feGaussianBlur stdDeviation="4" in="SourceAlpha" result="element_2"></feGaussianBlur><feDisplacementMap scale="100" in="element_2" in2="element_1" result="element_3"></feDisplacementMap><feComposite operator="in" in="element" in2="element_3" result="element_4"></feComposite><feMerge><feMergeNode in="element_4"></feMergeNode></feMerge></filter><g transform="translate(150,150) scale(1.5)"><path d="M0,0L2.6060575217111506,-2.9875054503733054C5.212115043422301,-5.975010900746611,10.424230086844602,-11.950021801493222,11.16536447839366,-15.777446817721247C11.906498869942716,-19.60487183394927,8.176652609618529,-21.28471096565871,-4.257511079637043,-15.488576732446582C-16.691674768892614,-9.692442499234451,-37.83015588707957,3.579665098899248,-38.5378037238348,4.988392764357939C-39.245451560590034,6.3971204298166295,-19.522266115913546,-4.057531837399688,-12.35483099147853,-4.062448656702179C-5.187395867043515,-4.067365476004669,-10.575711062849974,6.377453152606668,-9.255648864391851,8.811305940203322C-7.935586665933732,11.245158727799977,0.09285292678897061,5.66804567438195,8.903777932542704,9.140858484817235C17.714702938296437,12.61367129525252,27.308113357081204,25.13640996954112,20.992271396466336,25.29828976312643C14.676429435851464,25.46016955671174,-7.54866490416304,13.261190469593762,-11.678621623522574,4.825387421938719C-15.80857834288211,-3.610415625716325,-1.8433974415866743,-8.283042633908435,8.799633829865744,-13.118573639465264C19.442665101318163,-17.954104645022095,26.763546742927566,-22.952539647943645,21.912959346982767,-20.41788611929206C17.062371951037967,-17.883232590640475,0.04031551753896423,-7.815490530415752,-4.041045648323609,1.410810595999492C-8.122406814186181,10.637111722414737,0.736927287587676,19.0219719150205,-3.888686327223123,22.925951730633383C-8.514299942033922,26.829931546246264,-26.624861273429378,26.253030984866264,-32.85017922800985,16.59681411347504C-39.07549718259031,6.940597242083815,-33.415571760355796,-11.794935939318634,-30.000095827332522,-16.22886462985097C-26.58461989430925,-20.662793320383305,-25.41359345049722,-10.79511752004553,-23.880521102145025,-7.681594948339402C-22.347448753792825,-4.568072376633275,-20.452330500900466,-8.208703033558796,-10.633087233222586,-2.483363007518074C-0.8138439655447076,3.2419770185226495,16.929524316918688,18.33328772752962,23.045734677455776,24.27319866987436C29.16194503799287,30.213109612219107,23.650997476603656,27.001620787901622,15.89102122821256,27.744460561414957C8.131044979821464,28.4873003349283,-1.8779599555715203,33.184468706272455,-12.740558493918765,35.01657481414194C-23.603157032266008,36.848680922011425,-35.31934917356752,35.815724766406234,-35.575858670935474,34.54026041074522C-35.83236816830344,33.264796055084204,-24.629195021737857,31.74682349936736,-17.694926694901355,35.247387626433C-10.760658368064853,38.74795175349865,-8.09529486095743,47.26705256334677,-2.9154683951296643,47.23442901123275C2.264358070698102,47.20180545911872,9.958647495246215,38.61745754504254,3.5263308636740645,24.99025986646562C-2.9059857678980876,11.363062187888698,-23.464908455590503,-7.306985255188966,-27.17579423119697,-18.759053012431572C-30.886680006803438,-30.211120769674174,-17.74952887032396,-34.44520884108172,-12.798268455182017,-33.985957962372765C-7.847008040040074,-33.5267070836638,-11.081638346235668,-28.374117254838342,-10.339479177731336,-21.79051408990352C-9.597320009227005,-15.206910924968698,-4.878371366022749,-7.192294423924514,3.4841320402295928,-4.093293186929607C11.846635446481933,-0.9942919499347003,23.85269361578236,-2.810905976989072,27.663601000078117,-4.47045256667113C31.47450838437387,-6.129999156353189,27.090264983664955,-7.632478308662934,26.461226445058696,-5.895887816189616C25.832187906452436,-4.159297323716299,28.95835422994883,0.8163628135400831,20.696834762383567,1.0780403495564945C12.435315294818297,1.339717885572906,-7.213889963808635,-3.112587179650653,-16.97380386541991,-10.921556162006762C-26.733717767031187,-18.730525144362872,-26.604340311626807,-29.896158043851536,-31.973618875519037,-21.7792455743508C-37.34289743941127,-13.662333104850058,-48.21083202260011,13.737124733640082,-47.71636192753501,20.246548233052C-47.221891832469915,26.75597173246392,-35.36501705915087,12.375360892797616,-25.18799832829344,5.409681925714732C-15.010979597436007,-1.5559970413681525,-6.513816909040184,-1.1067441358676193,-2.265235564842273,-0.8821176831173525L1.9833457793556384,-0.657491230367086" style="filter: url(#ubger); stroke: rgb(252, 217, 117);"></path></g></svg>