<svg viewBox="0 0 300 300" preserveAspectRatio="xMidYMid" width="300" height="300"><filter id="umzba" width="300" height="500" x="-50%" y="-50%"><feFlood flood-color="#a8e4a0" result="element"></feFlood><feTurbulence baseFrequency="0.02" type="fractalNoise" numOctaves="8" seed="24" result="element_1"></feTurbulence><feGaussianBlur stdDeviation="4" in="SourceAlpha" result="element_2"></feGaussianBlur><feDisplacementMap scale="100" in="element_2" in2="element_1" result="element_3"></feDisplacementMap><feComposite operator="in" in="element" in2="element_3" result="element_4"></feComposite><feMerge><feMergeNode in="element_4"></feMergeNode></feMerge></filter><g transform="translate(150,150) scale(1.5)"><path d="M0,0L1.7294038226794834,1.6655677593942064C3.458807645358967,3.331135518788413,6.917615290717934,6.662271037576826,14.340836155289193,10.408776383916251C21.76405701986045,14.155281730255677,33.151691103644,18.317156904146117,31.66358243641713,17.161192228844477C30.175473769190262,16.005227553542834,15.811622350952977,9.531423029049115,11.313804115081696,-3.4368805005071863C6.815985879210413,-16.405184030063488,12.184200825705133,-35.86798656468237,16.276299745658697,-26.874198529230537C20.368398665612258,-17.880410493778705,23.18438155902466,19.569968111743847,17.66090264033889,24.86465687362584C12.137423721653116,30.159345635507833,-1.725517009130833,3.2983445537492653,-11.195038280555298,-14.377934656787007C-20.664559551979764,-32.05421386732328,-25.740661364044747,-40.545771206637255,-24.045226500720343,-40.309972520216846C-22.34979163739594,-40.07417383379643,-13.88282009868215,-31.111019121641625,-1.2096160763929316,-19.49565244806822C11.463587945896286,-7.880285774494816,28.343024451760932,6.38729286049719,37.26535574227977,8.246443495063211C46.187687032798614,10.105594129629232,47.15291310797165,-0.4436832362307337,44.90448815031544,-0.2565170257905991C42.65606319265922,-0.0693508153504645,37.19398720217376,10.85425897138977,29.242445647682256,9.777838906835449C21.290904093190758,8.701418842281129,10.849896974693227,-4.3750310735677465,8.544036052553906,-1.6152009508814453C6.2381751304145885,1.1446291718048567,12.067460404633483,19.740739333026333,18.803069792548296,26.130184849579784C25.53867918046311,32.519630366133235,33.18061268207384,26.702411238018655,26.302812573296094,20.924426930541863C19.425012464518346,15.146442623065072,-1.9725212546478819,9.40769313622607,-7.7854615516992185,4.8865536344884015C-13.598401848750555,0.36541413275073253,-3.8267487236870026,-2.938115383885604,0.13785130075978516,5.471385976129684C4.102451325206573,13.880887336144973,2.2599982490365953,34.003419572811886,1.5541052228764836,32.7331457283288C0.848212196716372,31.462871883845708,1.2788792205661266,8.799791958212614,6.982320377806644,-2.0011857269620776C12.685761535047162,-12.80216341213677,23.661976825678444,-11.74103885685306,25.209168516086354,-5.9606782895131385C26.75636020649427,-0.18031772217321684,18.874528296678818,10.319278857222917,14.717719908415384,12.509129081938939C10.560911520151953,14.698979306654962,10.12912665344054,8.579083176690872,0.627443181688089,11.651861143771136C-8.874240290064364,14.724639110851399,-27.445822366857858,26.990091174976012,-26.581380694758536,22.342544278419503C-25.71693902265921,17.69499738186299,-5.416473601667077,-3.8655484753746485,-2.2911386569562513,-11.966449578846767C0.8341962877545743,-20.067350682318885,-13.21559924381591,-14.708607032025485,-9.187496757801606,-15.110383243175775C-5.159394271787299,-15.512159454326063,16.9466062318118,-21.674455526920042,13.247142132349484,-28.170596114193437C9.54767803288717,-34.666736701466824,-19.957250669636554,-41.496721803419625,-22.11151846982694,-36.42771289090249C-24.265786270017333,-31.358703978385357,0.930606832125612,-14.390701051398283,12.583615737490684,-5.01758424925659C24.236624642855755,4.355532552885105,22.346249351442953,6.133763230181418,15.272242201130927,7.328112664654817C8.198235050818898,8.522462099128216,-4.059403958392355,9.1329302907787,-9.396933272089404,8.410947889601156C-14.734462585786451,7.6889654884236105,-13.151882203969294,5.634532494418037,-10.82180387190528,13.04587568765356C-8.491725539841262,20.457218880889084,-5.414149257530388,37.3343382613657,0.6341353949379296,38.23795749769551C6.682420047406247,39.14157673402532,15.701413070032007,24.071695826208323,15.23258103445278,18.99227447647538C14.763748998873549,13.912853126742434,4.80709190508933,18.823891335093546,9.932685634671547,18.96462091333882C15.058279364253764,19.10535049158409,35.26612391720242,14.475771439723525,36.82412937807244,19.24678903848747C38.38213483894246,24.01780663725141,21.29030120773385,38.189420886639866,12.744384392129543,45.275228011334086L4.198467576525239,52.36103513602832" style="filter: url(#umzba); stroke: rgb(168, 228, 160);"></path></g></svg>