<svg viewBox="0 0 300 300" preserveAspectRatio="xMidYMid" width="300" height="300"><filter id="qkdjc" width="300" height="500" x="-50%" y="-50%"><feFlood flood-color="#b2ec5d" result="element"></feFlood><feTurbulence baseFrequency="0.02" type="fractalNoise" numOctaves="8" seed="81" result="element_1"></feTurbulence><feGaussianBlur stdDeviation="5" in="SourceAlpha" result="element_2"></feGaussianBlur><feDisplacementMap scale="100" in="element_2" in2="element_1" result="element_3"></feDisplacementMap><feComposite operator="in" in="element" in2="element_3" result="element_4"></feComposite><feMerge><feMergeNode in="element_4"></feMergeNode></feMerge></filter><g transform="translate(150,150) scale(1.5)"><path d="M0,0L6.356081020325314,-1.127747474283327C12.712162040650629,-2.255494948566654,25.424324081301258,-4.510989897133308,27.5445441187062,-1.4233080016082376C29.66476415611114,1.6643738939168324,21.193042190270397,10.095232633533627,12.320277770133309,10.120964519738072C3.447513349996221,10.146696405942517,-5.82629352443721,1.7673014387346129,-2.910770400818138,6.940680991032756C0.00475272280093364,12.114060543330899,15.109605844472508,30.84021461513509,21.556993995954517,32.94713516208405C28.004382147436527,35.054055709033015,25.794305328728974,20.541742731126746,26.475460322798313,11.861436235655818C27.15661531686765,3.181129740184889,30.729002123713887,0.33282972714929526,31.00268122806977,1.5007218903650639C31.276360332425643,2.6686140535808325,28.251331734291163,7.852698393047963,22.458849478760506,8.591650658096212C16.66636722322985,9.330602923144461,8.106431310303018,5.62442311377383,6.831773548845651,3.4306459732595145C5.557115787388285,1.2368688327451998,11.567736177400386,0.5554943610872022,14.196860535950263,0.24193942351031722C16.825984894500138,-0.07161551406656771,16.07361322158779,-0.01735091756234003,10.45940526756683,-1.8651805880027426C4.845197313545867,-3.713010258443145,-5.630846921583706,-7.462934195828177,-16.79412922213443,-6.097525272865472C-27.957411522685156,-4.732116349902767,-39.80793188865703,1.7486254334076765,-44.56129424746709,-4.938122379084957C-49.31465660627714,-11.62487019157759,-46.97086095792537,-31.479107599873302,-34.31979509198048,-38.58286078047158C-21.66872922603559,-45.68661396106985,1.2896068575024202,-40.0398829139707,-0.1486336352637707,-35.318220438226646C-1.5868741280299616,-30.5965579624826,-27.421691197100355,-26.799964058093657,-33.88553344119164,-20.35518572178155C-40.34937568528292,-13.910407385469444,-27.442243104395097,-4.817444617234176,-15.925254493411302,4.541384118496831C-4.408265882427504,13.900212854227838,5.718578758652266,23.524907557454583,8.652460213811363,27.08005130778697C11.586341668970459,30.635195058119358,7.327259938208879,28.12078785555739,-2.1317973354249338,25.527717081346502C-11.590854609058749,22.934646307135615,-26.249887425564797,20.262911961275808,-26.787951547220096,16.842347525977296C-27.326015668875392,13.421783090678785,-13.74311109567994,9.252388565941565,-6.6480017793208255,8.50192018227824C0.44710753703828787,7.751451798614916,1.0544215965610604,10.419909556025486,3.9594724454732564,1.468368845915876C6.864523294385453,-7.483171864193732,12.067310932687072,-28.054711041823516,3.7124755943730623,-29.024330662994096C-4.642359743940947,-29.993950284164676,-26.554818058870588,-11.361650348876044,-32.99440013329416,4.090808605457893C-39.43398220771772,19.54326755979183,-30.400688041635213,31.81588553317107,-12.706826512406103,28.383182742258008C4.987035016823013,24.950479951344942,31.341463909198737,5.81245639613957,37.045700313264696,4.378732234970228C42.749936717330655,2.945008073800885,27.803980633086855,19.215583306667572,24.642255597693882,16.436429960343894C21.480530562300906,13.657276614020219,30.103036575758757,-8.17160531149382,22.126671090136917,-14.131724156642052C14.150305604515074,-20.091843001790284,-10.424931380186464,-10.183198766572708,-15.76430302246896,-2.0496525081105528C-21.10367466475146,6.083893750351602,-7.207180964614913,12.442342032058335,-5.509239273115967,6.8798508445174855C-3.811297581617021,1.3173596569766364,-14.311907898755674,-16.166070999811794,-15.231533115082653,-21.893010376851553C-16.151158331409633,-27.619949753891312,-7.489798446924939,-21.590397851182395,-2.6103832514501915,-18.32829220211918C2.2690319440245568,-15.066186553055967,3.3665024504893606,-14.571527157638458,-2.6510410394458326,-14.66519853123483C-8.668584529381025,-14.758869904831204,-21.801142015716216,-15.44087204744146,-21.94531635443533,-14.848122942759307C-22.089490693154445,-14.255373838077155,-9.245281884257484,-12.387873486102595,-5.521526399605184,-18.878072555846906C-1.797770914952883,-25.368271625591213,-7.194468754545241,-40.21617011705439,-9.892817674341421,-47.64011936278598L-12.5911665941376,-55.064068608517566" style="filter: url(#qkdjc); stroke: rgb(178, 236, 93);"></path></g></svg>