<svg viewBox="0 0 300 300" preserveAspectRatio="xMidYMid" width="300" height="300"><filter id="oqdma" width="300" height="500" x="-50%" y="-50%"><feFlood flood-color="#469A84" result="element"></feFlood><feTurbulence baseFrequency="0.02" type="fractalNoise" numOctaves="8" seed="40" result="element_1"></feTurbulence><feGaussianBlur stdDeviation="4" in="SourceAlpha" result="element_2"></feGaussianBlur><feDisplacementMap scale="100" in="element_2" in2="element_1" result="element_3"></feDisplacementMap><feComposite operator="in" in="element" in2="element_3" result="element_4"></feComposite><feMerge><feMergeNode in="element_4"></feMergeNode></feMerge></filter><g transform="translate(150,150) scale(1.5)"><path d="M0,0L0.2549841685092248,-2.6033311530758487C0.5099683370184496,-5.2066623061516975,1.0199366740368991,-10.413324612303395,-6.08181091943062,-9.536296118564314C-13.183558512898138,-8.659267624825233,-27.897022036851624,-1.6985483311953748,-26.223317145044668,3.315021833829764C-24.54961225323771,8.328591998854904,-6.488738945670315,11.395013035275323,2.407796711724324,8.805954526016386C11.304332369118963,6.21689601675745,11.036530376340846,-2.0276420381808418,14.727650357139089,-3.4692711086706214C18.41877033793733,-4.910900179160401,26.06881229231194,0.4503797347983318,19.885718151569744,0.8869989832009026C13.702624010827547,1.3236182316034735,-6.3136062250314495,-3.1644231855501177,-10.362356061826858,-4.465187647347318C-14.411105898622269,-5.7659521091445205,-2.4923753363540913,-3.8794396155853317,4.07999897627493,-2.3285660703591815C10.652373288903952,-0.7776925251330307,11.878391351893816,0.4375420717600823,6.427934862578896,2.5265999191089366C0.977478373263974,4.615657766457791,-11.149452668355734,7.578538864262387,-12.170359300570826,2.372406901837513C-13.19126593278592,-2.8337250605873603,-3.1061481555963963,-16.208870083241703,7.154136815680252,-19.34080687194747C17.4144217869569,-22.472743660653233,27.849873952320674,-15.361472215410421,27.902831879345822,-9.442990426889269C27.95578980637097,-3.5245086383681183,17.62625349505749,1.201183493431372,14.220918335490497,-1.3354398239331964C10.815583175923503,-3.872063141297765,14.334449168102992,-13.671001907826392,9.572704834112738,-15.49761794439639C4.8109605001224836,-17.32423398096639,-8.231394160037517,-11.17852728757776,-16.6827439378456,-8.317850493393935C-25.134093715653684,-5.45717369921011,-28.99443861110985,-5.881526804231091,-24.15005712761023,-10.796467627265468C-19.30567564411061,-15.711408450299842,-5.756567781655202,-25.116936991347615,-0.832353423481482,-29.571801701651225C4.091860934692239,-34.02666641195484,0.3911817885842708,-33.5308672915143,-0.932541312663455,-25.36217308811582C-2.2562644139111807,-17.193478884717344,-1.2030314702986649,-1.351889598360934,4.826143916954252,-2.1706294601719476C10.85531930420717,-2.989369321982961,21.860437135100486,-20.4684383319614,13.292138868980016,-20.490978505732066C4.723840602859543,-20.513518679502738,-23.41787376027472,-3.079530017065636,-28.582569795410123,2.0956516297978207C-33.74726583054552,7.2708332766612775,-15.93494353768206,0.1872079079510902,-3.5662369499636766,-6.3892242706334095C8.802469637754708,-12.965656449217908,15.727560520328014,-19.03489543767672,8.312855292483212,-17.625008731120644C0.8981500646384113,-16.21512202456457,-20.856351273624497,-7.326109622993613,-21.929117649725672,-7.7234264170512095C-23.001884025826847,-8.120743211108806,-3.3929154397662877,-17.804389200794958,-0.7822299720372836,-12.37975382407063C1.8284554956917205,-6.955118447346301,-12.55914215491083,13.577798295788508,-12.115493831794808,22.037334778904135C-11.671845508678786,30.496871262019756,3.603048788155812,26.883027485116195,12.584746445210511,24.69752484134628C21.56644410226521,22.512022197576364,24.25494511954001,21.75486068694009,21.738391959907037,21.599449702996818C19.221838800274064,21.444038719053538,11.500231463733314,21.890378261803257,5.105932154673603,18.37731790870539C-1.2883671543861093,14.864257555607523,-6.355358435964783,7.391797306662071,-10.725918316038072,-3.526713768606242C-15.096478196111361,-14.445224843874556,-18.770606674679264,-28.80978674546573,-16.642490542323472,-36.46646770082302C-14.514374409967683,-44.12314865618031,-6.584013666688197,-45.07194866530372,1.7003397391457509,-40.074182404583595C9.984693144979698,-35.076416143863476,18.623039213368106,-24.132083613299827,18.29273689472478,-16.490214662397143C17.962434576081446,-8.84834571149446,8.663483870406377,-4.508940340252744,-1.477435655488061,-6.368620190064521C-11.6183551813825,-8.228300039876299,-22.601243527496308,-16.28706511074157,-20.749100502219985,-18.515410612833605C-18.896957476943665,-20.743756114925638,-4.209783080277212,-17.141682048244434,3.133804118056014,-15.340645014903833L10.477391316389241,-13.539607981563233" style="filter: url(#oqdma); stroke: rgb(70, 154, 132);"></path></g></svg>