<svg viewBox="0 0 300 300" preserveAspectRatio="xMidYMid" width="300" height="300"><filter id="nhvcl" width="300" height="500" x="-50%" y="-50%"><feFlood flood-color="#ca3767" result="element"></feFlood><feTurbulence baseFrequency="0.02" type="fractalNoise" numOctaves="8" seed="56" result="element_1"></feTurbulence><feGaussianBlur stdDeviation="5" in="SourceAlpha" result="element_2"></feGaussianBlur><feDisplacementMap scale="100" in="element_2" in2="element_1" result="element_3"></feDisplacementMap><feComposite operator="in" in="element" in2="element_3" result="element_4"></feComposite><feMerge><feMergeNode in="element_4"></feMergeNode></feMerge></filter><g transform="translate(150,150) scale(1.5)"><path d="M0,0L2.4049933427890307,1.3452429054738542C4.809986685578061,2.6904858109477083,9.619973371156123,5.380971621895417,9.759138449265238,9.23040321424048C9.898303527374356,13.079834806585545,5.366646998014527,18.088212180327965,3.9387212214992626,7.75530504903557C2.5107954449839975,-2.5776020822568206,4.186600421313296,-28.251793718584025,1.6869634055753817,-28.393871188073476C-0.8126736101625323,-28.53594865756293,-7.487752617967658,-3.1459119602146313,-6.35907785955379,7.588446554599866C-5.230403101139922,18.32280506941436,3.7020254234929393,14.401485401695059,13.110882949637839,11.08402540589938C22.51974047578274,7.766565410103703,32.40502700343968,5.052965086231653,36.87147541408837,-3.8395233670211404C41.337923824737075,-12.732011820273934,40.385534118377535,-27.80338840290747,37.7456980401207,-27.81156230738539C35.105861961863866,-27.81973621186331,30.778579511709736,-12.764707438185615,25.37588150050279,1.4925653650961C19.97318348929584,15.749838168377815,13.495069917036075,29.20935500126355,6.337208781157297,28.318813662719414C-0.8206523547214815,27.428272324175275,-8.65826105421927,12.187672814201264,-9.794084974615501,13.756219996764601C-10.929908895011732,15.324767179327939,-5.363948036306405,33.702461054428625,-7.332298261502844,34.04575541700273C-9.300648486699282,34.389049779576844,-18.803309795797485,16.69794462962438,-18.800824661594195,4.21951170845411C-18.798339527390905,-8.258921212716164,-9.290707949886118,-15.524681905104243,-4.022371571958035,-17.19065864092102C1.2459648059700483,-18.856635376737792,2.27500598432143,-14.922828155983261,3.816980079103225,-11.05172425022703C5.358954173885019,-7.180620344470801,7.413861185097227,-3.372219753712871,-0.37507382617717955,-0.8119358758390318C-8.164008837451586,1.7483480020348074,-25.796785871212606,3.060515167024556,-18.39389350981755,-1.159875654764528C-10.991001148422491,-5.3802664765536115,21.447560608128647,-15.133215285121526,31.22992451721295,-14.663782210049611C41.01228842629726,-14.194349134977696,28.13845448791473,-3.5025341762659474,27.262454762278793,0.44102686633237875C26.386455036642857,4.384587908930705,37.50828952375352,1.5798950354156096,38.93577150010289,0.05251044993479059C40.36325347645226,-1.4748741355460284,32.09638294204035,-1.7249504329925707,22.02565724843696,-0.7511600878797644C11.954931554833573,0.22263025723304208,0.08035070203870642,2.4202872449051975,-6.752324037945222,-1.2277688626443868C-13.584998777929151,-4.875824970193971,-15.37576740510214,-14.369594172965295,-14.659259484245379,-21.809421897006125C-13.942751563388617,-29.24924962104696,-10.718967094502103,-34.6351358663573,-7.832934019694474,-28.311638941507052C-4.9469009448868455,-21.988142016656802,-2.3986192641581012,-3.9552619216459597,5.838804646472539,3.8512676153782417C14.076228557103178,11.657797152402443,28.002794697635714,9.237976131440004,26.999876036854793,7.413736415677443C25.996957376073876,5.589496699914882,10.0645539139795,4.360838289352201,-1.3769337187891222,0.8923025895864938C-12.818421351557744,-2.5762331101792135,-19.76899315500061,-8.284646099147947,-21.051826476926664,-3.265712652088885C-22.334659798852712,1.7532207949701775,-17.949754639261947,17.499500678057036,-13.729285749854778,12.966252789304171C-9.508816860447608,8.43300490055131,-5.452784241224036,-16.37977076004127,-9.834335208564786,-20.082481917957082C-14.215886175905537,-23.7851930758729,-27.03502072981061,-6.377839731111948,-31.71828780326566,-0.32197452568900764C-36.40155487672071,5.733890679733932,-32.948954469725734,0.43826774581885974,-31.220453418755618,-10.671766396687577C-29.4919523677855,-21.781800539194013,-29.48755067284024,-38.70624589029181,-33.00668367176512,-35.6949842596014C-36.52581667068999,-32.683722628911,-43.568484363485005,-9.736754016432386,-40.31675295185623,-1.7487318788131003C-37.06502154022746,6.239290258806185,-23.5188910241749,-0.7316340784338564,-19.76019901138573,-9.035238089471285C-16.001506998596554,-17.338842100508714,-22.03025348907077,-26.975125785343526,-25.04462673430788,-31.793267627760933L-28.058999979544986,-36.611409470178344" style="filter: url(#nhvcl); stroke: rgb(202, 55, 103);"></path></g></svg>