<svg viewBox="0 0 300 300" preserveAspectRatio="xMidYMid" width="300" height="300"><filter id="vbpjx" width="300" height="500" x="-50%" y="-50%"><feFlood flood-color="#e8f48c" result="element"></feFlood><feTurbulence baseFrequency="0.02" type="fractalNoise" numOctaves="8" seed="55" result="element_1"></feTurbulence><feGaussianBlur stdDeviation="4" in="SourceAlpha" result="element_2"></feGaussianBlur><feDisplacementMap scale="100" in="element_2" in2="element_1" result="element_3"></feDisplacementMap><feComposite operator="in" in="element" in2="element_3" result="element_4"></feComposite><feMerge><feMergeNode in="element_4"></feMergeNode></feMerge></filter><g transform="translate(150,150) scale(1.5)"><path d="M0,0L5.836330349451837,6.657205384980383C11.672660698903673,13.314410769960766,23.345321397807346,26.628821539921532,26.707502318091397,32.79943129116408C30.069683238375447,38.970041042406635,25.121384380039878,37.99684977493098,22.141987752191266,25.545573786440748C19.16259112434265,13.094297797950516,18.152096726980993,-10.835062911554289,15.23553180605897,-15.507935774348686C12.318966885136948,-20.180808637143087,7.496331440654559,-5.597193653227084,-0.2560768893716139,-1.7877846638603394C-8.008485219397786,2.021624325506405,-18.690666434967742,-4.943172679676111,-20.930368040382316,-5.754445323693473C-23.170069645796897,-6.565717967710837,-16.967291641056093,-1.2234662505630478,-13.156678316680246,6.397380296409827C-9.346064992304397,14.018226843382703,-7.927616348293501,23.917668220180666,-3.6005061386788153,21.80966616283253C0.7266040709358697,19.701664105484394,7.962375846154345,5.586218613990165,7.00705687874151,3.02632583544986C6.051737911328675,0.4664330569095547,-3.094671798715469,9.462092991323175,-0.9082155099690681,18.031397247292546C1.2782407787773327,26.600701503261917,14.797563066314279,34.743650080787035,13.344388790957739,33.11691718206689C11.891214515601202,31.490184283346753,-4.53445632264882,20.093769908381347,-15.168077288927227,12.094292075575812C-25.801698255205636,4.0948142427702745,-30.643269349512426,-0.5077270478753939,-27.30550229336313,-1.1713132249668667C-23.967735237213827,-1.8348994020583396,-12.450630030608433,1.4404695344043836,-7.524078081256355,2.471830327366414C-2.597526131904276,3.503191120328444,-4.261527439805511,2.290543769789781,-8.043036751344085,9.679737075173364C-11.824546062882657,17.068930380556946,-17.723563378058568,33.05996434186277,-21.2770050689338,40.53675095856175C-24.83044675980903,48.013537575260706,-26.03831282638358,46.976076847352815,-12.855366716631156,41.16424099765441C0.32757939312126894,35.352405147956006,27.901337679200672,24.766194176467096,31.868391089656416,19.726852196917676C35.83544450011215,14.68751021736826,16.195793034944238,15.19503722975833,6.872859393448197,16.40162073252166C-2.4500742480478435,17.60820423528499,-1.4562900658720048,19.513844228421583,2.145162863550178,13.53892719286544C5.746615792972362,7.5640101573092995,11.955737469640889,-6.291463906939572,10.471140981729985,-12.680021636606828C8.986544493819082,-19.068579366274083,-0.19177015867125213,-17.990220761359723,1.3060866929439374,-22.777694106943656C2.803943544559127,-27.565167452527586,14.97797190027984,-38.21847274860981,22.946012750091832,-32.65366269130384C30.91405359990383,-27.088852633997885,34.676106943807106,-5.305927223303735,30.080830741655618,6.143392277577265C25.485554539504125,17.592711778458266,12.53294879129787,18.708425369526115,0.6709104726655593,20.984883689965535C-11.19112784596675,23.261342010404956,-21.962598735025114,26.698545060215945,-24.09775566531055,21.25895345238861C-26.232912595595995,15.81936184456128,-19.731755567108515,1.5029755790956258,-22.1239800790084,-3.964487458111179C-24.516204590908288,-9.431950495317983,-35.801810643195545,-6.050490304265938,-38.13127591754915,-1.4342803061972762C-40.46074119190274,3.1819296918713853,-33.83406568832268,9.032889496956663,-24.84590853869319,18.435342622600075C-15.857751389063699,27.837795748243487,-4.508112593384773,40.791742194445035,-3.4089362787319777,29.724804363161905C-2.3097599640791824,18.657866531878774,-11.461046130452518,-16.429955576889036,-13.028320584862294,-29.887485453836764C-14.595595039272071,-43.34501533078449,-8.578857781718288,-35.172252975912144,-6.192737813012407,-33.212332904721315C-3.8066178443065253,-31.25241283353049,-5.051115164448545,-35.50533504602119,1.0273548228779292,-30.887971601475655C7.105824810204404,-26.270608156930123,20.507262104999374,-12.782959055348357,26.50531038600502,-6.468659743071781C32.503358667010666,-0.15436043079520279,31.098017934226988,-1.013410907823814,28.139378637144794,-5.035414100250062C25.1807393400626,-9.057417292676309,20.668801478681893,-16.242373200500193,18.41283254799154,-19.834851154412135L16.156863617301184,-23.42732910832408" style="filter: url(#vbpjx); stroke: rgb(232, 244, 140);"></path></g></svg>