<svg viewBox="0 0 300 300" preserveAspectRatio="xMidYMid" width="300" height="300"><filter id="abpsb" width="300" height="500" x="-50%" y="-50%"><feFlood flood-color="#b2f302" result="element"></feFlood><feTurbulence baseFrequency="0.02" type="fractalNoise" numOctaves="8" seed="0" result="element_1"></feTurbulence><feGaussianBlur stdDeviation="4" in="SourceAlpha" result="element_2"></feGaussianBlur><feDisplacementMap scale="100" in="element_2" in2="element_1" result="element_3"></feDisplacementMap><feComposite operator="in" in="element" in2="element_3" result="element_4"></feComposite><feMerge><feMergeNode in="element_4"></feMergeNode></feMerge></filter><g transform="translate(150,150) scale(1.5)"><path d="M0,0L1.8094784774483765,-5.757289540354081C3.618956954896753,-11.514579080708161,7.237913909793506,-23.029158161416323,5.337807584320846,-26.90397988848983C3.437701258848185,-30.77880161556334,-3.9814683469938896,-27.01386598900219,-11.183050899034466,-30.102191382242275C-18.38463345107504,-33.190516775482365,-25.368628949314118,-43.13210318852368,-18.525077435529383,-35.337980004157025C-11.681525921744655,-27.543856819790363,8.989572604063884,-2.01402403801573,16.31677864876927,4.882880106706672C23.64398469347465,11.779784251429074,17.627298257076877,0.04375975909924534,7.032123573829436,1.0598032338180792C-3.5630511094180077,2.075846708536913,-18.73671403951512,15.84395815030441,-20.24809037226406,17.730628512500427C-21.759466705012994,19.617298874696445,-9.608556440413754,9.622528157320986,-9.835116752543549,6.640211797438034C-10.06167706467334,3.657895437555083,-22.665707953532166,7.688033435164643,-28.757717696952138,12.678280090639884C-34.84972744037211,17.668526746115127,-34.42971603835322,23.618882059456052,-21.14430514587611,20.733107619344704C-7.858894253398999,17.847333179233352,18.291916129536336,6.1254289856697275,29.084140250697594,9.005640540291374C39.876364371858855,11.88585209491302,35.31000223124604,29.368179397719935,24.60766295143634,30.991141059386226C13.90532367162664,32.61410272105252,-2.9329927473799398,18.377698741578193,-11.976140561695349,8.813378294667551C-21.019288376010756,-0.7509421522430899,-22.267267585634997,-5.643179066590042,-17.10193732942646,-4.597342769967982C-11.936607073217928,-3.5515064733459205,-0.3579673511766197,3.432403034245153,1.5415633751077666,11.818864941445199C3.441094101392153,20.205326848645246,-4.338484168080383,29.994341155454265,-6.772204017331727,31.444595708943133C-9.20592386658307,32.894850262432,-6.2937852956132225,26.006345062600708,-4.18485224296396,23.419728435729734C-2.075919190314699,20.83311180885876,-0.7701916559860238,22.5483837549481,-9.42406665922912,12.875694547570603C-18.077941662472213,3.203005340193103,-36.69141920328708,-17.857645020651233,-35.28538611396193,-22.854642607471366C-33.87935302463677,-27.85164019429149,-12.4538093051716,-16.78498500708741,-6.917142582996248,-13.367542501743046C-1.380475860820896,-9.95009999639868,-11.732686135935365,-14.181870172914032,-20.29591458303235,-12.377781791597563C-28.85914303012934,-10.573693410281095,-35.63338964920884,-2.7337464711328066,-35.011717341673865,-1.407421292781184C-34.390045034138886,-0.08109611442956144,-26.372453799989437,-5.268392696874605,-19.000459498330983,-6.558821395974333C-11.628465196672531,-7.849250095074063,-4.90206782750508,-5.242810910828476,-0.19488988167524823,-3.526242870272957C4.512288064154584,-1.8096748297174376,7.200246586646797,-0.982977932851985,3.80562473665832,2.7353096882751187C0.4110028866698432,6.453597309402222,-9.066199335799324,13.063475654790976,-9.7233785150806,20.725230753340455C-10.38055769436188,28.386985851889932,-2.217713830455267,37.10061770360013,4.320005011404769,30.571464443827868C10.857723853264805,24.042311184055606,15.770317673078264,2.270372812800886,16.092889528271066,0.6980195229587123C16.415461383463867,-0.8743337668834616,12.148011274036012,17.752898024686914,1.7431049321748358,20.409545276676887C-8.661801409686339,23.066192528666868,-25.204163983980834,9.752255241076448,-22.52060750676375,6.380923757475558C-19.837051029546664,3.0095922738746674,2.0724244991820004,9.580866594263306,6.715015081106954,11.804738811411285C11.357605663031908,14.028611028559265,-1.2666887018468485,11.905081142466589,-2.230646459102485,9.7783611766771C-3.1946042163581208,7.651641210887608,7.501774634009363,5.521731165401306,5.138418220119929,9.867498177661531C2.7750618062304966,14.213265189921755,-12.648029871915854,25.03470925992851,-15.354137402858337,21.063457011315606C-18.06024493380082,17.092204762702707,-8.049368317539432,-1.671743804529843,0.41223810822109996,-8.710180376198593C8.873844533981632,-15.748616947867344,15.786180769241312,-11.061541523972295,19.242348886871152,-8.71800381202477L22.698517004500992,-6.374466100077246" style="filter: url(#abpsb); stroke: rgb(178, 243, 2);"></path></g></svg>