<svg viewBox="0 0 300 300" preserveAspectRatio="xMidYMid" width="300" height="300"><filter id="axirq" width="300" height="500" x="-50%" y="-50%"><feFlood flood-color="#ffe4cd" result="element"></feFlood><feTurbulence baseFrequency="0.02" type="fractalNoise" numOctaves="8" seed="91" result="element_1"></feTurbulence><feGaussianBlur stdDeviation="5" in="SourceAlpha" result="element_2"></feGaussianBlur><feDisplacementMap scale="100" in="element_2" in2="element_1" result="element_3"></feDisplacementMap><feComposite operator="in" in="element" in2="element_3" result="element_4"></feComposite><feMerge><feMergeNode in="element_4"></feMergeNode></feMerge></filter><g transform="translate(150,150) scale(1.5)"><path d="M0,0L1.0503758322723882,-2.554739095545325C2.1007516645447764,-5.10947819109065,4.201503329089553,-10.2189563821813,-5.48721095794596,-10.652650794487613C-15.175925244981473,-11.086345206793926,-36.65410548359728,-6.844255840315901,-30.592726518717836,-1.6726717229488859C-24.531347553838394,3.4989123944181304,9.069590614536292,9.599991262674138,20.430697632019466,11.19426800796725C31.79180464950264,12.78854475326036,20.913080516094308,9.876019375590575,13.337893047848196,9.605863727742676C5.762705579602083,9.33570807989478,1.4910547765181925,11.707922161868769,-1.4495985824908175,16.167526879208204C-4.390251941499828,20.62713159654764,-5.999907856433957,27.174126949252518,-7.676425155592488,26.332611519004615C-9.35294245475102,25.49109608875671,-11.09632113813395,17.261069875556018,-18.085802558881564,10.351442442108091C-25.075283979629177,3.441815008660166,-37.31086813774147,-2.1474136450349945,-35.20557880304864,-2.7105616762323104C-33.1002894683558,-3.2737097074296257,-16.65412664085783,1.1892228838709036,-11.575645703122742,3.050792790133962C-6.4971647653876525,4.912362696397022,-12.786365717415443,4.17256991762261,-11.859086497704368,1.7041042264452677C-10.931807277993293,-0.7643614647320738,-2.788047886543353,-4.961500068312345,0.9650783638038917,-6.9598628978512025C4.718204614151136,-8.95822572739006,4.080697723395685,-8.757812782887502,0.8651846442125737,-7.466452564902773C-2.3503284349705384,-6.175092346918043,-8.143847702581311,-3.792784855451141,-8.474239947750059,3.126212351311138C-8.804632192918804,10.045209558073418,-3.6718974156455233,21.500896480131075,-6.463947807896735,24.08810832766822C-9.255998200147948,26.675320175205364,-19.972833761923656,20.39405694822199,-24.4766990143186,13.823465402749346C-28.98056426671355,7.2528738572766995,-27.271459209727738,0.3929539933147801,-22.073315103154897,-2.32718123530115C-16.875170996582064,-5.04731646391708,-8.187987840422203,-3.6276670571870215,-3.3830718107179405,-0.8596014881867677C1.421844218986322,1.908464080813486,2.3444931222349874,6.024945812083935,0.6508533082849333,11.26420360505672C-1.0427865056651213,16.503461398029504,-5.352715036813896,22.865495252704626,-3.0396701719500716,21.063848494627347C-0.7266253070862474,19.262201736550068,8.209392953790175,9.29687436572039,8.807152771492548,4.137995008157308C9.404912589194922,-1.020884349405775,1.664413963723244,-1.3733156937022606,-6.170137939629507,-5.1235664446313205C-14.004689842982259,-8.873817195560381,-21.933295024216086,-16.021887353122015,-28.912547259066173,-13.4592607392286C-35.89179949391626,-10.896634125335186,-41.921698782382606,1.3766892600132792,-38.85345239204479,5.136632029302191C-35.78520600170697,8.896574798591104,-23.618813932564976,4.143136951820462,-21.99699432003617,3.996120934412463C-20.375174707507366,3.8491049170044636,-29.297927551591748,8.308510728959106,-27.19127310001934,2.6056286229826284C-25.08461864844693,-3.097253482993848,-11.948556901217732,-18.962423506901445,-12.488589649555731,-20.58652731110879C-13.02862239789373,-22.210631115316136,-27.24474964179893,-9.593668699823233,-29.2295361671401,-8.50035475839973C-31.21432269248127,-7.4070408169762265,-20.967768499258412,-17.837375349622125,-6.531522974106926,-21.540446876856116C7.9047225510445625,-25.24351840409011,26.530659408124677,-22.219326925912195,29.690867798261415,-15.68228911036702C32.85107618839815,-9.145251294821845,20.54555611159151,0.9046328580905927,9.598158575120005,1.640168729637304C-1.349238961351503,2.3757046011840153,-10.938513957487874,-6.203107808635,-10.80945492383296,-7.4935595399074355C-10.680395890178048,-8.784011271179875,-0.8330028267318506,-2.786102323905733,6.126478893404904,-0.5448405720856618C13.085960613541658,1.6964211797344093,17.157530990368972,0.1810357361004109,8.815917312425267,-7.629177474348902C0.47430363448155966,-15.439390684798214,-20.280494098233167,-29.54443166206284,-25.85898975371764,-30.85443963706903C-31.437485409202118,-32.16444761207522,-21.83967898745634,-20.67942258482297,-17.040775776583455,-14.936910071196845L-12.241872565710567,-9.19439755757072" style="filter: url(#axirq); stroke: rgb(255, 228, 205);"></path></g></svg>