<svg viewBox="0 0 300 300" preserveAspectRatio="xMidYMid" width="300" height="300"><filter id="ypmov" width="300" height="500" x="-50%" y="-50%"><feFlood flood-color="#ffbd88" result="element"></feFlood><feTurbulence baseFrequency="0.02" type="fractalNoise" numOctaves="8" seed="5" result="element_1"></feTurbulence><feGaussianBlur stdDeviation="5" in="SourceAlpha" result="element_2"></feGaussianBlur><feDisplacementMap scale="100" in="element_2" in2="element_1" result="element_3"></feDisplacementMap><feComposite operator="in" in="element" in2="element_3" result="element_4"></feComposite><feMerge><feMergeNode in="element_4"></feMergeNode></feMerge></filter><g transform="translate(150,150) scale(1.5)"><path d="M0,0L5.601790375377843,6.709111794697919C11.203580750755686,13.418223589395838,22.40716150151137,26.836447178791676,25.842112681491393,28.120125827120916C29.27706386147142,29.40380447545015,24.94338547067578,18.55293818271279,21.427368665743778,12.541995670232076C17.911351860811777,6.531053157751359,15.212996641743414,5.36003442552729,10.775724663920617,5.006177606132039C6.3384526860978205,4.652320786736788,0.16226394952059042,5.115625880170356,-1.918248129877346,-0.6632282257608608C-3.9987602092752823,-6.442082331692079,-1.983595631493925,-18.463095636988083,-0.8155523539643161,-23.403861310062652C0.35249092356529266,-28.34462698313723,0.6734129008431531,-26.205145023990372,1.004688043498553,-23.486591603190433C1.335963186153953,-20.768038182390487,1.6775914941868924,-17.470413299937462,0.1856447040850313,-22.655834120926514C-1.3063020860168297,-27.841254941915565,-4.631823974253491,-41.509721466346704,-1.9813193389599881,-43.75762176923821C0.6691852963335148,-46.00552207212973,9.295716455157184,-36.83285615348162,18.80637658690504,-27.381251298064626C28.317036718652894,-17.92964644264763,38.711825823324936,-8.199102650461743,37.82009267659434,-2.3263182706422385C36.92835952986376,3.546466109177267,24.75010413173054,5.561491076630393,16.379306565433613,-0.4166015173918334C8.008508999136684,-6.39469411141406,3.4451692646760455,-20.365904266911638,0.9370285387781578,-16.496494910766522C-1.5711121871197298,-12.62708555462141,-2.0240539044548664,9.082943313166396,-5.3773545109194565,13.223106314820148C-8.730655117384046,17.3632693164739,-14.984314612978089,3.9335664519936016,-14.315829262079129,2.457172535391981C-13.64734391118017,0.9807786187903602,-6.056713713788209,11.45769365006742,-9.756333979142331,5.7233505597740075C-13.455954244496453,-0.010992530519402521,-28.445824972596657,-21.956593742383284,-27.528332787450147,-29.740312618904383C-26.610840602303636,-37.52403149542549,-9.785985503910407,-31.145868036603808,-3.6319789630526826,-23.450938166714586C2.5220275778050407,-15.756008296825366,-1.994814438872742,-6.7443120158686,4.0898851486197225,-7.343775278957192C10.174584736112187,-7.943238542045785,26.8608259277749,-18.15386134917974,29.473525406683756,-17.6031016102745C32.08622488559261,-17.05234187136926,20.625382651747607,-5.7401995864248345,10.254734474109506,2.8296748219506576C-0.11591370352859709,11.39954923032615,-9.3963678249598,17.227155762132707,-11.474909816069701,13.996156809058766C-13.553451807179606,10.765157855984828,-8.43008166796821,-1.5244465819696078,-4.729649700932612,-0.6712650779580827C-1.0292177338970123,0.1819164260534425,1.24827606096279,14.177883872030929,4.009813238519099,12.222869399320995C6.771350416075407,10.267854926611063,10.016930976328222,-7.638141464786287,1.2574582496214681,-14.02324540534459C-7.502014477085286,-20.40834934590289,-28.26654049075161,-15.272560835622144,-29.920177869807862,-4.841655927820005C-31.573815248864115,5.589248979982133,-14.116563993310297,21.31527028530566,-8.404365904099723,22.279572030321944C-2.6921678148891486,23.243873775338223,-8.725022892021816,9.446455960047256,-11.4032640278686,8.890650308461414C-14.081505163715384,8.334844656875571,-13.405132358276287,21.020651168994853,-4.8758073651245395,24.462936319572236C3.6535176280272097,27.905221470149616,20.03579480889161,22.103985259185094,23.888954549176084,17.082689853058106C27.74211428946056,12.061394446931116,19.066156589165118,7.820039845641656,13.589900674717574,4.449591018002823C8.113644760270034,1.0791421903639893,5.837090631670396,-1.4204008636242174,7.516081057881254,-6.328956276626969C9.195071484092113,-11.23751168962972,14.829606465113468,-18.55507946164702,11.227209600893094,-20.070250418288104C7.624812736672718,-21.58542137492919,-5.2145159727893855,-17.29819551619407,-7.503735391374629,-16.28107518881816C-9.792954809959873,-15.263954861442253,-1.532064937668256,-17.51694006542556,-7.653818533749662,-14.013092484494015C-13.775572129831067,-10.509244903562475,-34.27996919428549,-1.2485645377160886,-44.53216772651271,3.3817756452071044L-54.78436625873992,8.012115828130298" style="filter: url(#ypmov); stroke: rgb(255, 189, 136);"></path></g></svg>