<svg viewBox="0 0 300 300" preserveAspectRatio="xMidYMid" width="300" height="300"><filter id="wozcx" width="300" height="500" x="-50%" y="-50%"><feFlood flood-color="#aaf0d1" result="element"></feFlood><feTurbulence baseFrequency="0.02" type="fractalNoise" numOctaves="8" seed="92" result="element_1"></feTurbulence><feGaussianBlur stdDeviation="5" in="SourceAlpha" result="element_2"></feGaussianBlur><feDisplacementMap scale="100" in="element_2" in2="element_1" result="element_3"></feDisplacementMap><feComposite operator="in" in="element" in2="element_3" result="element_4"></feComposite><feMerge><feMergeNode in="element_4"></feMergeNode></feMerge></filter><g transform="translate(150,150) scale(1.5)"><path d="M0,0L1.210797916249314,-0.6844794719925319C2.421595832498628,-1.3689589439850638,4.843191664997256,-2.7379178879701276,4.899865620567082,0.2893328464139455C4.956539576136909,3.3165835807980186,2.6482916547779327,10.740043993551229,0.43782713177499843,12.597448386617913C-1.7726373912279358,14.454852779684597,-3.8853185158748285,10.746201153064755,-3.932661287388686,7.46662760344332C-3.9800040589025443,4.1870540538218854,-1.962008477283367,1.3365585811988585,-2.2559244464743724,-4.239152543012651C-2.549840415665378,-9.814863667224161,-5.155667935666566,-18.115790443024153,-4.774471815704757,-24.236864605257622C-4.393275695742949,-30.357938767491092,-1.0250559358181446,-34.29916031615804,2.030444433593467,-25.24417808418513C5.085944803005079,-16.189195852212226,7.828725781903498,5.861990160400534,13.942858507660688,12.792939708275089C20.056991233417875,19.723889256149644,29.542475706033837,11.534602339285994,34.17323983470427,10.12881481870626C38.8040039633747,8.723027298126528,38.5800477480996,14.100739173830712,27.376773574045885,20.570492988230384C16.173499399992163,27.040246802630058,-6.009092732840184,34.60204255572522,-7.851463845437054,31.72557039446939C-9.693834958033923,28.84909823321356,8.804014949604685,15.534358157606736,14.142802067920297,9.158746242300968C19.481589186235908,2.7831343269951976,11.661313515228525,3.346650571990484,4.685123272269628,-4.056794684982591C-2.2910669706892683,-11.460239941955667,-8.423171785599676,-26.830646700897102,-6.6667764460472085,-27.41839516573249C-4.910381106494741,-28.00614363056788,4.7345143875206,-13.81123380129722,9.496680559814495,-10.822315593678669C14.258846732108388,-7.833397386060117,14.138283582680836,-16.050470800093674,16.785685454355068,-12.076122487954523C19.433087326029295,-8.101774175815375,24.84845421880531,8.06399586249648,18.272657178848107,21.78591249837535C11.696860138890903,35.50782913425422,-6.8701008337995155,46.7858923677001,-14.631852398115795,49.47125258590257C-22.393603962432074,52.15661280410503,-19.350146118374216,46.24927000706407,-15.444749042232656,36.91458854600882C-11.539351966091097,27.57990708495358,-6.772015657865836,14.817886959884044,-9.305845013352759,3.6461239133882266C-11.839674368839681,-7.525639133107592,-21.674669388038783,-17.10714510102969,-17.980017527429517,-19.917576420984197C-14.285365666820251,-22.728007740938708,2.938933073597388,-18.76736441292563,8.542612897755529,-15.92935855668113C14.14629272191367,-13.091352700436628,8.12935362981231,-11.375984315960707,5.691394814259527,-4.667604922226779C3.2534359987067436,2.040774471507148,4.394457459702533,13.74216487449908,2.70181183436718,7.169780341076644C1.0091662090318265,0.597395807654209,-3.5171465026346693,-24.248763662182593,-5.448084398015785,-28.01134627147982C-7.379022293396901,-31.773928880777042,-6.714585372492637,-14.452934629534688,-13.645443899292168,-4.037946672712277C-20.576302426091697,6.377041284110135,-35.10245640059502,9.886022946512604,-38.66800073108567,7.284712869657302C-42.23354506157631,4.683402792801998,-34.83847974805428,-4.0281990233110765,-24.187456527441462,-5.595397457279835C-13.536433306828652,-7.162595891248594,0.3705478208749433,-1.5853909430730355,4.8146884707638335,-0.04126823946769487C9.258829120652724,1.5028544641376458,4.24012929272691,-0.9861050768272308,8.782890284610009,-4.849200728810288C13.325651276493108,-8.712296380793344,27.42987308818512,-13.949528143794582,28.01815505748418,-12.03916850389287C28.606437026783233,-10.12880886399116,15.678779153689337,-1.070857821186502,15.637458902627195,-1.9959813219510698C15.596138651565052,-2.9211048227156375,28.441156022534663,-13.829302867049432,32.791156191044834,-15.470645408493786C37.141156359555005,-17.11198794993814,32.99613932560573,-9.486474988493054,24.838912817240125,2.7039617234788036C16.68168630887452,14.894398435450661,4.512250326092586,31.64975889794929,-3.9074816890471893,36.14173890697798C-12.327213704186963,40.633718916006664,-16.997241751684577,32.862318471565416,-19.332255775433385,28.976618249344785L-21.667269799182193,25.09091802712416" style="filter: url(#wozcx); stroke: rgb(170, 240, 209);"></path></g></svg>