<svg viewBox="0 0 300 300" preserveAspectRatio="xMidYMid" width="300" height="300"><filter id="nyjgo" width="300" height="500" x="-50%" y="-50%"><feFlood flood-color="#f37a48" result="element"></feFlood><feTurbulence baseFrequency="0.02" type="fractalNoise" numOctaves="8" seed="73" result="element_1"></feTurbulence><feGaussianBlur stdDeviation="5" in="SourceAlpha" result="element_2"></feGaussianBlur><feDisplacementMap scale="100" in="element_2" in2="element_1" result="element_3"></feDisplacementMap><feComposite operator="in" in="element" in2="element_3" result="element_4"></feComposite><feMerge><feMergeNode in="element_4"></feMergeNode></feMerge></filter><g transform="translate(150,150) scale(1.5)"><path d="M0,0L0.49660909069116177,2.0428930496550675C0.9932181813823235,4.085786099310135,1.986436362764647,8.17157219862027,4.1444318063640395,4.753407043905023C6.302427249963432,1.335241889189776,9.625199955779893,-9.586874519550854,3.9939455844266103,-16.157032511370545C-1.637308786926674,-22.727190503190233,-16.2225902354497,-24.945390078088984,-18.113896550537667,-16.5575407980164C-20.005202865625634,-8.169691517943818,-9.202534047278535,10.8242066171001,-3.0879929652794478,15.29957983120194C3.0265481167196406,19.774953045303782,4.452961462370719,9.731801338463551,2.444739081371507,4.869347018342121C0.4365167003722945,0.0068926982206917176,-5.006341407277208,0.3251357648180655,-3.356140517258763,6.039162405684619C-1.7059396272403182,11.753189046551174,7.037320260446075,22.86299926168691,6.158830198829644,23.673806394425636C5.280340137213216,24.484613527164367,-5.219899873706035,14.996417577506088,-14.809426153268067,15.734920672388679C-24.398952432830097,16.47342376727127,-33.0777649810349,27.438625906694732,-28.37107188914772,21.0471877607376C-23.66437879726053,14.655749614780468,-5.572180065281341,-9.092328816557254,7.828973881724389,-16.189931538961037C21.23012782873012,-23.287534261364815,29.94023699076239,-13.734661274834654,28.65705357576857,-10.932540475244707C27.373870160774754,-8.13041967565476,16.097394168754846,-12.079051063005025,10.673939741803654,-17.33718263238031C5.250485314852462,-22.595314201755592,5.680052452969988,-29.16294595315589,10.047341107201095,-30.690348383168285C14.414629761432202,-32.217750813180686,22.71963993177689,-28.704923921805175,24.18109767368482,-17.54158787527499C25.642555415592753,-6.3782518287448,20.260460729063926,12.435593372940072,20.373832394323706,11.439538824393543C20.48720405958349,10.443484275847013,26.096042076631882,-10.36247002293092,27.611163740750285,-18.605869062716067C29.126285404868693,-26.849268102501213,26.54769071605711,-22.53011188329358,26.845089650506203,-17.26648807293612C27.14248858495529,-12.00286426257866,30.315881142665052,-5.794772861071376,23.147200566231135,-9.091533241640189C15.978519989797217,-12.388293622209002,-1.532233720780381,-25.18990578485391,-10.256993882028851,-30.388137799772196C-18.98175404327732,-35.586369814690485,-18.920520655196665,-33.18122168188215,-18.589721927369666,-25.121777653280564C-18.258923199542664,-17.062333624678978,-17.65855913196932,-3.348593700284134,-14.38505078479295,-1.6060834272640427C-11.11154243761658,0.13642684575604846,-5.164889810837181,-10.092292532598611,-6.582443025853548,-13.223129376964607C-7.999996240869915,-16.3539662213306,-16.781755297682047,-12.38692053170793,-23.41875383471828,-5.569421458730975C-30.055752371754515,1.2480776142459815,-34.547990389014856,10.916030070577223,-32.574582227811234,13.545468735557703C-30.601174066607612,16.174907400538185,-22.162119726940034,11.765832274167908,-16.318118968460052,9.36948152623582C-10.474118209980071,6.973130778303731,-7.225171032687693,6.589504408809833,-1.010248790691926,7.847900843107892C5.204673451303841,9.106297277405952,14.385570758002997,12.00671651549597,17.439252105863773,11.204879535257309C20.492933453724547,10.403042555018647,17.419398842746944,5.898949356451308,7.764207690177225,5.04991891630299C-1.8909834623924944,4.200888476154673,-18.127831156554326,7.006920794425377,-14.72380744689526,5.185768309235493C-11.31978373723619,3.3646158240456083,11.725111376243778,-3.083721464604865,17.59997944913786,-9.56464227565514C23.474847522031936,-16.045563086705414,12.179688554340125,-22.559067420155493,0.793848560844495,-13.268744719668799C-10.591991432651135,-3.9784220191820996,-22.068512451950582,21.11572771524137,-26.952609496200076,31.276031025685736C-31.836706540449565,41.4363343361301,-30.128379609649098,36.66279122259536,-24.99579647066484,25.848088699567047C-19.863213331680583,15.033386176538741,-11.306373984512533,-1.8224757559831346,-15.671578547084012,-8.407838392381697C-20.03678310965549,-14.993201028780259,-37.3240315819665,-11.308064369055508,-45.967655818122,-9.46549603919313L-54.611280054277515,-7.622927709330756" style="filter: url(#nyjgo); stroke: rgb(243, 122, 72);"></path></g></svg>