<svg viewBox="0 0 300 300" preserveAspectRatio="xMidYMid" width="300" height="300"><filter id="wfzrg" width="300" height="500" x="-50%" y="-50%"><feFlood flood-color="#ff8243" result="element"></feFlood><feTurbulence baseFrequency="0.02" type="fractalNoise" numOctaves="8" seed="36" result="element_1"></feTurbulence><feGaussianBlur stdDeviation="4" in="SourceAlpha" result="element_2"></feGaussianBlur><feDisplacementMap scale="100" in="element_2" in2="element_1" result="element_3"></feDisplacementMap><feComposite operator="in" in="element" in2="element_3" result="element_4"></feComposite><feMerge><feMergeNode in="element_4"></feMergeNode></feMerge></filter><g transform="translate(150,150) scale(1.5)"><path d="M0,0L1.7281954567751936,0.2849856886466394C3.456390913550387,0.5699713772932788,6.912781827100774,1.1399427545865577,-1.5629234322922372,-0.07264057649212652C-10.038628691685249,-1.2852239075708107,-30.44643012402166,-4.280361947021458,-30.79804235496657,2.9913917464000868C-31.14965458591148,10.263145439821631,-11.445077615464896,27.80179086611537,-1.1499960779627991,26.08766500847508C9.145085459539297,24.373539150834794,10.030671564096902,3.40664200926048,18.050900825130665,-3.927369152198326C26.071130086164423,-11.261380313657131,41.226002503674344,-4.96250549500043,46.12704307491836,1.5359144545350483C51.028083646162386,8.034334404070528,45.67529237114051,14.732299484484784,45.73557100263234,11.621671139116389C45.79584963412418,8.511042793747993,51.269198172129734,-4.408178977403051,44.70617591838424,-6.360294543275C38.143153664638746,-8.312410109146949,19.54376061914222,0.7025805302602004,12.851567770508005,-3.9443564352651337C6.159374921873795,-8.591293400790468,11.374382270101904,-26.900157971248284,15.619408106854483,-29.414094010382822C19.86443394360706,-31.92803004951736,23.139478268884112,-18.647037557328623,26.068174932926524,-17.09978344104887C28.996871596968933,-15.552529324769123,31.579220599776708,-25.739013584398364,29.271401316807555,-30.338984847082415C26.963582033838396,-34.938956109766465,19.765594465092313,-33.95241437550531,20.391213327451826,-28.046883758322497C21.016832189811343,-22.14135314113967,29.466057483276458,-11.31683364103517,22.619740952771345,-4.354416768097553C15.773424422266228,2.6080001048400647,-6.36843393220912,5.7083143506108,-15.857433243797708,4.08880977696891C-25.346432555386293,2.46930520332702,-22.18257282408812,-3.8700181897274946,-17.572581470370256,1.9968683926325133C-12.962590116652391,7.8637549749925215,-6.906467140514838,25.93685153276705,-6.83261472135157,29.153066661237123C-6.758762302188302,32.36928178970719,-12.667180439999319,20.728615488872798,-6.898620110379653,13.140209994121516C-1.1300597807599893,5.551804499370237,16.315479016290357,2.0156598107020725,20.791838380856834,-0.47207742219401183C25.268197745423308,-2.959814655090096,16.775377677505908,-4.3991444322141,14.272471653464141,-4.3700036443975465C11.769565629422374,-4.340862856580994,15.256573649256238,-2.8432515038238844,15.936789075658098,-5.803625755507814C16.617004502059956,-8.764000007191743,14.49042733502981,-16.182359863316712,10.22302865465003,-19.2959272960198C5.95562997427025,-22.409494728722894,-0.45259021945916444,-21.218269738004107,-1.0270219081896064,-16.394756665210096C-1.6014535969200483,-11.57124359241608,3.6579032193484826,-3.1154424375468404,6.962622535688402,4.608860652354933C10.267341852028322,12.333163742256705,11.61742366843963,19.32596876719101,3.5507702789050706,14.339825257645778C-4.515883110629488,9.353681748100549,-21.999271706109916,-7.61141029592422,-21.443899898427617,-6.076677880235679C-20.888528090745318,-4.541945464547139,-2.294395879900298,15.49261141085471,0.6961987999484727,22.18027859763072C3.6867934797972435,28.867945784406736,-8.926149371350236,22.20872328255691,-19.4422289656787,17.399368190712597C-29.95830856000717,12.590013098868285,-38.37752489751662,9.630525417029489,-27.651053150103785,6.99543469568949C-16.92458140269095,4.360343974349494,12.947578429644171,2.049650213508297,21.527764068561655,1.3689068150892059C30.10794970747914,0.6881634166701145,17.396161152978983,1.6373703806731286,7.718059179736778,0.26199378108517135C-1.9600427935054299,-1.1133828185027856,-8.60445818548969,-4.813342981681714,-12.24421841987642,-5.383506204010307C-15.88397865426315,-5.953669426338901,-16.519083731052348,-3.3940357078171584,-16.352030130663398,-1.4577399589621418C-16.184976530274447,0.4785557898928746,-15.215764252707348,1.7915135690811659,-11.983264926067175,1.0310878734909714C-8.750765599427002,0.2706621779007772,-3.254979223713751,-2.5631469924679027,-0.8949876125815942,-0.02367390081778975C1.4650039985505627,2.515799190832323,0.6892008451016265,10.428554544501228,0.30129926837715837,14.384932221335681L-0.08660230834730973,18.341309898170135" style="filter: url(#wfzrg); stroke: rgb(255, 130, 67);"></path></g></svg>