<svg viewBox="0 0 300 300" preserveAspectRatio="xMidYMid" width="300" height="300"><filter id="afjin" width="300" height="500" x="-50%" y="-50%"><feFlood flood-color="#9c7c38" result="element"></feFlood><feTurbulence baseFrequency="0.02" type="fractalNoise" numOctaves="8" seed="11" result="element_1"></feTurbulence><feGaussianBlur stdDeviation="5" in="SourceAlpha" result="element_2"></feGaussianBlur><feDisplacementMap scale="100" in="element_2" in2="element_1" result="element_3"></feDisplacementMap><feComposite operator="in" in="element" in2="element_3" result="element_4"></feComposite><feMerge><feMergeNode in="element_4"></feMergeNode></feMerge></filter><g transform="translate(150,150) scale(1.5)"><path d="M0,0L3.5568828388580034,-0.05534109385944342C7.113765677716007,-0.11068218771888684,14.227531355432014,-0.22136437543777368,10.960006846385477,-0.6886349892626945C7.69248233733894,-1.1559056030876154,-5.95633235847014,-1.9797646430185702,-6.6095910899552734,-0.8540221113424746C-7.262849821440406,0.271720420333621,5.07944741139841,3.3470645236167673,2.3753923150807656,0.27725553228078503C-0.3286627812368792,-2.7925534590551973,-18.079070206710984,-12.007515545010307,-26.405476382320565,-21.45248247945841C-34.73188255793015,-30.897449413906514,-33.63428748367521,-40.572421196847614,-28.869193259068805,-29.474135498915967C-24.1040990344624,-18.37584980098432,-15.671505659504525,13.495693377820068,-6.957664699913004,26.53709349331224C1.7561762596785195,39.578493608804415,10.751264803903693,33.78975066098438,10.465975023046934,26.62238681353343C10.180685242190174,19.455022966082485,0.6150171362514829,10.90903821900063,-8.138932137385293,3.9670651628614038C-16.892881411022067,-2.9749078932778215,-24.835111852356924,-8.312869258474416,-21.914565681284575,-2.412889582451278C-18.99401951021223,3.48709009357186,-5.210696726732673,20.625010810814732,1.7369181952569606,27.531426265018677C8.684533117246595,34.437841719222625,8.796440177746305,31.11275191038765,11.741899170803606,17.783249527959516C14.687358163860909,4.453747145531375,20.4663690894758,-18.880167810489922,13.937224547154674,-19.838575130895958C7.408080004833543,-20.796982451301986,-11.429220005423609,0.6201178639072484,-11.806504014829642,7.358439535616794C-12.183788024235675,14.096761207326338,5.898943967209412,6.156304235536194,11.098998298854596,-0.4517882534792945C16.29905263049978,-7.059880742494783,8.616429302345058,-12.335608748735613,3.1269387642767428,-12.746516399985465C-2.362551773791573,-13.157424051235315,-5.658909521773484,-8.703511347494187,-14.94812614583634,-5.587233733112734C-24.2373427698992,-2.470956118731282,-39.519418270043005,-0.6923135937095062,-37.05165752374116,-5.771939748768203C-34.58389677743933,-10.851565903826899,-14.36629978469185,-22.789460738966067,-1.3463192332717826,-24.79254448453177C11.673661318148287,-26.795628230097474,17.496025428240948,-18.863900886089713,22.494475392858323,-12.98330544488836C27.4929253574757,-7.102710003687007,31.667461176617792,-3.273246465292064,31.988208209145935,-0.0904045276865193C32.308955241674084,3.0924374099190253,28.775913487588284,5.628657746735171,16.214088844066378,-1.5761921485220194C3.652264200544474,-8.781042043779209,-17.93834333241353,-25.726962171109733,-21.524251068177666,-25.63891503314137C-25.110158803941793,-25.550867895173006,-10.691366742512049,-8.428853491905755,-10.796289257316266,1.3626683933663881C-10.901211772120483,11.15419027863853,-25.529848863158666,13.615219645915566,-20.69692204932783,14.696972462858572C-15.863995235496997,15.778725279801577,8.430495483202854,15.481201546410553,16.717092709022126,12.737859120204341C25.003689934841393,9.99451669399813,17.28239366778008,4.805355574976729,13.232802154604755,-7.513052657448377C9.18321064142943,-19.831460889873483,8.805323882140092,-39.27911623570229,12.011846276814447,-43.1044375630935C15.218368671488802,-46.9297588904847,22.00930022012685,-35.132746199438294,22.23404211539673,-25.4013911205426C22.458784010666605,-15.670036041646895,16.117336252568307,-8.004338574901897,5.8773689575405985,-0.6489459245694822C-4.362598337487112,6.706446725762932,-18.501085169444238,13.751534559682764,-16.986342125208274,19.050796364333927C-15.471599080972315,24.350058168985086,1.6963738394567365,27.90349394436758,8.620521831234884,26.48309647476361C15.54466982301303,25.062699005159637,12.22499288614027,18.668468290569205,10.678476168282046,18.478488008461632C9.131959450423818,18.288507726354062,9.35860295158012,24.30277787672935,8.903012791570506,29.156550023138877C8.44742263156089,34.0103221695484,7.309598810385356,37.70359631199216,4.366503012591819,25.024762157101662C1.423407214798281,12.345928002211167,-3.3249605596132614,-16.705014450013586,-5.699144446819033,-31.230485676125962L-8.073328334024804,-45.75595690223834" style="filter: url(#afjin); stroke: rgb(156, 124, 56);"></path></g></svg>