<svg viewBox="0 0 300 300" preserveAspectRatio="xMidYMid" width="300" height="300"><filter id="xplez" width="300" height="500" x="-50%" y="-50%"><feFlood flood-color="#1a4876" result="element"></feFlood><feTurbulence baseFrequency="0.02" type="fractalNoise" numOctaves="8" seed="15" result="element_1"></feTurbulence><feGaussianBlur stdDeviation="4" in="SourceAlpha" result="element_2"></feGaussianBlur><feDisplacementMap scale="100" in="element_2" in2="element_1" result="element_3"></feDisplacementMap><feComposite operator="in" in="element" in2="element_3" result="element_4"></feComposite><feMerge><feMergeNode in="element_4"></feMergeNode></feMerge></filter><g transform="translate(150,150) scale(1.5)"><path d="M0,0L4.443222207609947,-1.0860057032921815C8.886444415219893,-2.172011406584363,17.772888830439786,-4.344022813168726,17.953434862371363,-5.58193485669563C18.133980894302944,-6.819846900222535,9.608628542946207,-7.123659580691982,-1.2962666063451893,-11.798305808258979C-12.201161755636587,-16.472952035825976,-25.485599702862643,-25.518431810490526,-24.03123380384469,-24.955724795624086C-22.57686790482673,-24.393017780757642,-6.383698159564762,-14.22212397636021,2.133368709792281,-3.75593900253655C10.650435579149324,6.71024597128711,11.491399572601441,17.471722114537,7.564426737643508,17.955627112568138C3.637453902685575,18.43953211059928,-5.057455760682407,8.645865963411675,-7.713118422009636,3.4273831338682683C-10.368781083336863,-1.7910996956751395,-6.985196742623339,-2.4343992075743492,-4.1216551783290605,1.6892743548377154C-1.258113614034781,5.81294791724978,1.085385173840252,14.70359455397312,6.48842054544769,17.915297700809354C11.89145591705513,21.12700084764559,20.354027872394973,18.659760504594715,21.103751598126955,14.944265617706327C21.85347532385893,11.228770730817935,14.890350819983043,6.265021300092025,9.064332044968992,-1.3178719087626236C3.2383132699549453,-8.900765117617272,-1.450599776197265,-19.10280210460066,-7.132566822169305,-18.819663595433752C-12.814533868141345,-18.53652508626685,-19.489554913933212,-7.768211080949651,-21.229255501376528,0.8882023931007184C-22.968956088819837,9.544615867151087,-19.773336217914597,16.08912880993463,-23.10170793858618,14.69154739560202C-26.43007965925777,13.293965981269414,-36.282442971506185,3.9542902098206585,-42.07841044821501,-3.105902015241395C-47.874377924923834,-10.16609424030345,-49.613949566093055,-14.9468029189788,-37.604716665081874,-17.380123693629997C-25.59548376407069,-19.81344446828119,0.16255367912090435,-19.899377338908227,8.857312181933908,-14.239325489942875C17.552070684746912,-8.579273640977519,9.183550247181328,2.8267629275802255,5.185354244654315,9.08544908958961C1.187158242127302,15.344135251598992,1.5592866746388607,16.455471007060016,5.689457867517769,17.63941213733058C9.819629060396677,18.823353267601142,17.707843013642933,20.07989977268124,23.87779891598053,18.22258954255533C30.047754818318126,16.365279312429415,34.499452669747065,11.39411234709749,27.29254428060503,11.226546807785333C20.08563589146299,11.058981268473175,1.2201212617499753,15.695017155180787,0.5589669492093536,7.745512267323985C-0.10218736333126799,-0.20399262053281575,17.441018641300502,-20.73903828295403,13.343515081711715,-18.34445369675759C9.246011522122926,-15.94986911056115,-16.49220160168642,9.374345724252947,-25.369820132566606,14.200387036059096C-34.24743866344679,19.026428347865245,-26.264462601397817,3.3542961366634447,-18.072667047904577,-4.586030820670091C-9.880871494411343,-12.526357778003627,-1.4802564494738473,-12.734879481468898,-3.772904707306849,-7.153640298388721C-6.065552965139851,-1.5724011153085442,-19.05146452574335,9.798598954317082,-27.271947201515413,12.437025020751072C-35.49242987728748,15.075451087185062,-38.94748366822811,8.981303150427415,-37.761379051371954,4.755568851375604C-36.5752744345158,0.5298345523237935,-30.748011409862855,-1.8274861090221797,-24.998847835099472,1.1960384918300089C-19.249684260336092,4.219563092682197,-13.578620135462277,12.623932955732547,-7.697996831294729,13.453327945593058C-1.817373527127181,14.282722935453569,4.272808956334098,7.5371430521242395,6.874338110672802,4.689068001103622C9.475867265011507,1.8409929500830036,8.588743090227638,2.8904227313710957,15.235701835809664,0.6785356759063346C21.88266058139169,-1.533351379558427,36.063702247339606,-7.006555271776042,32.553106126766,-14.58447693173144C29.042510006192394,-22.162398591686838,7.840276099097256,-31.84503801938002,-1.698289143919534,-34.10176359838516C-11.236854386936324,-36.35848917739031,-9.111750965874768,-31.189300907707423,-2.816966303184887,-28.545761663106152C3.477818359504994,-25.902222418504884,13.942284263823199,-25.784332198985233,19.1745172159823,-25.725387089225407L24.406750168141404,-25.66644197946558" style="filter: url(#xplez); stroke: rgb(26, 72, 118);"></path></g></svg>