<svg viewBox="0 0 300 300" preserveAspectRatio="xMidYMid" width="300" height="300"><filter id="jpzxf" width="300" height="500" x="-50%" y="-50%"><feFlood flood-color="#702670" result="element"></feFlood><feTurbulence baseFrequency="0.02" type="fractalNoise" numOctaves="8" seed="8" result="element_1"></feTurbulence><feGaussianBlur stdDeviation="5" in="SourceAlpha" result="element_2"></feGaussianBlur><feDisplacementMap scale="100" in="element_2" in2="element_1" result="element_3"></feDisplacementMap><feComposite operator="in" in="element" in2="element_3" result="element_4"></feComposite><feMerge><feMergeNode in="element_4"></feMergeNode></feMerge></filter><g transform="translate(150,150) scale(1.5)"><path d="M0,0L6.774186955812755,2.18178926992827C13.54837391162551,4.36357853985654,27.09674782325102,8.72715707971308,28.09270453365423,5.154364979142539C29.08866124405744,1.581572878571996,17.53220075323835,-9.927589862425629,6.051867909903441,-16.825360989385956C-5.428464933431466,-23.723132116346278,-16.832670129282192,-26.009511629269305,-20.110368992357202,-22.561659127253645C-23.388067855432208,-19.11380662523798,-18.539260385731502,-9.931722108283632,-15.393209765669736,0.1202398866116301C-12.247159145607974,10.172201881506892,-10.803865375185154,21.094041354343066,-8.758785396215009,22.81572825078742C-6.713705417244865,24.537415147231776,-4.066839229727398,17.05894946728431,-9.5610858682167,15.266307548833208C-15.055332506706005,13.473665630382106,-28.69069197120208,17.366847473427363,-28.91953593374744,14.513719176546719C-29.148379896292795,11.66059087966607,-15.97070835688743,2.0611524428595223,-8.701330358258218,-10.835734530478769C-1.4319523596290056,-23.732621503817057,-0.07086790177594504,-39.926957013687094,-1.880971614103194,-34.824132451263424C-3.6910753264304432,-29.72130788883976,-8.672367208938,-3.321323254122394,-9.697382404705563,11.603122312195033C-10.722397600473123,26.527567878512464,-7.791136109500684,29.976474376429955,-3.459085512284097,26.939884912110607C0.8729650849324915,23.903295447791262,6.60580478839323,14.381210021235077,-0.0023318204251685515,9.480843144546188C-6.610468429243566,4.5804762678573,-25.559581350341098,4.301827941035707,-24.850852801607758,10.910596536001599C-24.142124252874414,17.519365130967493,-3.775554234310194,31.01555064772087,5.304778240530689,25.47096229166371C14.385110715371571,19.926373935606556,12.179205646489118,-4.658988293261132,11.902909952188473,-4.168119203816107C11.626614257887827,-3.6772501143710823,13.279927938168989,21.889850293386655,19.754679900138946,30.27543944860747C26.229431862108907,38.661028603828285,37.52562210576766,29.865106506512177,32.596917673844644,21.96296678423865C27.668213241921617,14.060827061965123,6.514614134416815,7.052469714734172,5.310531246549687,3.2263599973419455C4.106448358682558,-0.59974972005028,22.8518816904531,-1.243611807603781,32.82388028678925,-0.2991050655881504C42.7958788831254,0.6454016764274799,43.99444274402714,3.1782772480122414,33.4152352964856,9.65497543731284C22.836027848944056,16.131673626613438,0.4790490929592153,26.552194433629875,-1.390604326397245,22.133524631693746C-3.260257745753705,17.71485482975762,15.357414171518213,-1.543005581131066,18.252415206182764,-6.896282932575602C21.147416240847313,-12.249560284020138,8.319746392904491,-3.6982545760205214,5.192803016681196,-8.750444230535534C2.0658596404578997,-13.802633885050547,8.639642735954128,-32.45831890208019,8.020250345023213,-39.13978445318357C7.400857954092294,-45.821250004286966,-0.41170992326576794,-40.52849608946411,5.327410144732219,-33.728041545971884C11.066530212730205,-26.927587002479655,30.35733822608424,-18.619431830318057,34.97945624629467,-4.998747887618391C39.601574266505104,8.621936055081274,29.555002293571924,27.55514876831901,25.553874576976057,24.66578376196756C21.552746860380193,21.776418755616113,23.597063400121634,-2.935523970324521,21.30573841964106,-15.358763915962683C19.01441343916048,-27.782003861600845,12.387446938457888,-27.916541026936535,8.675246193897104,-17.700777018920093C4.96304544933632,-7.485013010903646,4.165610460917344,13.081052170464933,8.845339830694016,16.4236963168529C13.525069200470686,19.76634046324087,23.681962928443003,5.885563574648225,24.35579989825765,-0.2456615783226438C25.02963686807229,-6.376886731293513,16.220417079729266,-4.758560148642609,6.563855955899326,-2.7027576642069806C-3.092705167930612,-0.6469551797713529,-13.596607627247462,1.8463232064489976,-20.695898190972184,4.057261917060006C-27.795188754696905,6.268200627671014,-31.4898674228295,8.196799662672682,-33.014041199612734,7.950634308072228C-34.53821497639597,7.704468953471776,-33.89188386182984,5.283539209269204,-33.56871830454678,4.073074337167919L-33.245552747263716,2.8626094650666323" style="filter: url(#jpzxf); stroke: rgb(112, 38, 112);"></path></g></svg>