<svg viewBox="0 0 300 300" preserveAspectRatio="xMidYMid" width="300" height="300"><filter id="kadcy" width="300" height="500" x="-50%" y="-50%"><feFlood flood-color="#bbb477" result="element"></feFlood><feTurbulence baseFrequency="0.02" type="fractalNoise" numOctaves="8" seed="97" result="element_1"></feTurbulence><feGaussianBlur stdDeviation="5" in="SourceAlpha" result="element_2"></feGaussianBlur><feDisplacementMap scale="100" in="element_2" in2="element_1" result="element_3"></feDisplacementMap><feComposite operator="in" in="element" in2="element_3" result="element_4"></feComposite><feMerge><feMergeNode in="element_4"></feMergeNode></feMerge></filter><g transform="translate(150,150) scale(1.5)"><path d="M0,0L5.927140216109935,-2.0170971603013337C11.85428043221987,-4.034194320602667,23.70856086443974,-8.068388641205335,32.629016155363416,-6.756947992525237C41.5494714462871,-5.44550734384514,47.53610159591459,1.211568274117723,45.69736673292843,0.43298986819780927C43.858631869942286,-0.3455885377221044,34.1945319943425,-8.559820967524795,27.675701120408227,-7.169804442792428C21.156870246473964,-5.77978791806006,17.783308374205227,5.214477561207365,15.854491022550636,7.948535506235386C13.925673670896048,10.682593451263406,13.441600839855608,5.156443862052023,9.017685922037408,-3.2185772121697838C4.593771004219212,-11.59359828639159,-3.769986000376745,-22.81749084562382,-9.332030163719837,-15.356307799945133C-14.89407432706293,-7.895124754266444,-17.654405649153155,18.25113389632316,-9.701254941119135,24.51833749864545C-1.74810423308511,30.78554110096774,16.918528505073162,17.17368965502272,25.000298502161865,10.091705507054728C33.08206849925057,3.009721359086738,30.57897575526969,2.4576045090957805,30.795642001640577,1.9166122562844592C31.012308248011465,1.3756200034731378,33.94873348473412,0.8457523478414529,29.2757777667009,0.00812250935487735C24.602822048667687,-0.8295073291316982,12.320485375878608,-1.9748993504731644,7.272417792643894,-9.193346966392394C2.224350209409181,-16.411794582311625,4.410551715728833,-29.70329779280862,7.770088080915747,-20.018176025309664C11.12962444610266,-10.333054257810705,15.662495670156835,22.328692487684204,8.430317796478578,29.487052586477496C1.1981399228003191,36.64541268527079,-17.79908704861037,18.300386137362473,-15.40899375571408,14.648065013684128C-13.018900462817793,10.995743890005784,10.758513094385474,22.036128190557413,8.632888468681065,19.217176941178867C6.507263842976659,16.398225691800324,-21.521398965635424,-0.2800611075084003,-25.06911061649936,-5.780674540944252C-28.6168222673633,-11.281287974380104,-7.683582760479094,-5.6042280419430845,-5.825197214859866,-6.499665307180718C-3.966811669240638,-7.395102572418353,-21.183280084886388,-14.863037035330642,-23.27952798396338,-14.12190835850639C-25.375775883040372,-13.380779681682137,-12.351803265548611,-4.430587865121346,-1.8643456599430124,4.151969495370103C8.623111945662586,12.734526855861551,16.574054539382022,20.949449760283656,16.382108773704772,19.05854342897249C16.190163008027525,17.167637097661324,7.855328882953596,5.170901530616887,6.387014005478147,0.7403083825457593C4.918699128002697,-3.6902847655253685,10.316903498125727,-0.5547354946231864,12.002504598448958,0.25645011051751554C13.688105698772187,1.0676357156582175,11.66110352929562,-0.44554234496256084,6.7772271545273215,-1.5025367167753076C1.8933507797590252,-2.5595310885880544,-5.847399800300999,-3.16034177159277,-8.063968024835779,-2.098863349884767C-10.28053624937056,-1.037384928176764,-6.972922118380095,1.686382598243957,-3.929283419784702,9.895073919181097C-0.8856447211893097,18.10376524011824,1.894018545011011,31.7973803555718,3.0318797965167628,30.40019402628847C4.169741048022516,29.003007697005142,3.6658002848336992,12.515019922984923,2.0762250680996424,8.784749488347028C0.48664985136558503,5.054479053709135,-2.188559818913713,14.081925958453565,-1.6867523764003072,14.714162310715981C-1.184944933886901,15.346398662978398,2.493879621419209,7.583424462758803,-5.173135967466855,1.829697743043353C-12.84015155635292,-3.9240289766720964,-31.853007289431158,-7.668508215883398,-34.85538061463646,-9.979914859641841C-37.857753939841764,-12.291321503400285,-24.849644857174127,-13.169655551705869,-7.587529664034552,-13.011933417726093C9.674585529105027,-12.854211283746316,31.190706832716543,-11.660432967481178,33.58465207809925,-8.475565746797072C35.978597323481964,-5.290698526112964,19.25036651063587,-0.1147424010098872,10.75634538561012,-6.313201019528718C2.2623242605843683,-12.511659638047547,2.0025128233789644,-30.084533000188284,-1.7952293675324142,-25.235909195502288C-5.592971558443793,-20.38728539081629,-12.928644503061147,6.882835580696437,-16.596480975369822,20.5178960664528L-20.2643174476785,34.15295655220917" style="filter: url(#kadcy); stroke: rgb(187, 180, 119);"></path></g></svg>