<svg viewBox="0 0 300 300" preserveAspectRatio="xMidYMid" width="300" height="300"><filter id="vbzti" width="300" height="500" x="-50%" y="-50%"><feFlood flood-color="#30ba8f" result="element"></feFlood><feTurbulence baseFrequency="0.02" type="fractalNoise" numOctaves="8" seed="94" result="element_1"></feTurbulence><feGaussianBlur stdDeviation="5" in="SourceAlpha" result="element_2"></feGaussianBlur><feDisplacementMap scale="100" in="element_2" in2="element_1" result="element_3"></feDisplacementMap><feComposite operator="in" in="element" in2="element_3" result="element_4"></feComposite><feMerge><feMergeNode in="element_4"></feMergeNode></feMerge></filter><g transform="translate(150,150) scale(1.5)"><path d="M0,0L6.218596513818729,-0.7097646144337593C12.437193027637457,-1.4195292288675185,24.874386055274915,-2.839058457735037,26.272920057433367,5.58662728023222C27.671454059591824,14.012313018199476,18.031329036271273,32.28321372300151,11.791648435886245,34.455305609507406C5.5519678355012125,36.6273974960133,2.7127316580517014,22.70068056422306,-0.9180351290290902,9.11663217686556C-4.548801916109882,-4.46741621049194,-8.971099312821954,-17.708796053416698,-13.750807114740846,-18.845580490819163C-18.53051491665974,-19.982364928221628,-23.667633123785457,-9.014553960101793,-20.907616006644837,-1.9469898400594656C-18.147598889504216,5.120574279982861,-7.4904464480972655,8.287891551947684,4.519080837909878,7.342077047578011C16.52860812391702,6.396262543208339,29.890510254524358,1.3373162625041721,28.31170632800503,-3.3896804356043146C26.732902401485703,-8.116677133712802,10.213392417839716,-12.511724249225608,3.2065896934692515,-18.35382090639468C-3.8002130309012125,-24.19591756356375,-1.2943084959961526,-31.485063762389085,6.239141925075244,-31.041710736006667C13.77259234614664,-30.598357709624253,26.33358865338437,-22.422505458034085,21.042056174930874,-16.44766579610878C15.750523696477371,-10.472826134183471,-7.393537567667362,-6.698999061923027,-12.251900353731363,-2.758887469183075C-17.110263139795364,1.181224123556877,-3.6829274477786313,5.287620236776337,-4.618293056949255,9.650636648600372C-5.553658666119878,14.013653060424407,-20.851725576477858,18.63328977085302,-30.2381784239585,20.234036798138508C-39.62463127143915,21.834783825424,-43.09947005604246,20.416641169566372,-39.095535766235734,11.47750628536848C-35.09160147642899,2.53837140117059,-23.608894112212198,-13.921755711367565,-20.00561804532254,-21.03356166304563C-16.402341978432887,-28.145367614723696,-20.67849720887037,-25.908852405541676,-13.084064951822047,-17.213844468126133C-5.489632694773729,-8.51883653071059,13.975387049760391,6.634664134938475,17.79546561969126,11.169220461019542C21.61554418962213,15.703776787100612,9.790681584949748,9.619388773613682,4.844073325697409,5.638986041238188C-0.10253493355493148,1.6585833088626964,1.8291111526127688,-0.21783414240135923,-2.8012597302741615,-1.2472789803112985C-7.431630613161092,-2.2767238182212375,-18.62401846510265,-2.45919604277706,-21.26985405302505,-6.680266817966944C-23.915689640947445,-10.901337593156828,-18.014972964850678,-19.161006918980775,-12.79436720539081,-28.132924879688453C-7.573761445930938,-37.10484284039613,-3.033266603107963,-46.78900943598754,0.1134833377795823,-39.26227117667385C3.260233278667127,-31.735532917360175,5.013238317619242,-6.9978898031414065,4.05951944278961,-0.9897743107708594C3.105800567959979,5.018341181599688,-0.5546422206513992,-7.703070947877985,-1.0536538924337193,-12.709725080710022C-1.5526655642160394,-17.71637921354206,1.1097538808306984,-15.008275349728459,1.8780131217743807,-2.4039420160312517C2.646272362718063,10.200391317665954,1.5203713995586898,32.70095412124677,-2.3704259773634293,35.26078517224592C-6.261223354285549,37.82061622324507,-12.916917144970414,20.439715521662563,-19.44641545991114,11.226025111593005C-25.97591377485187,2.012334701523447,-32.37921661404845,0.9658545829668398,-27.893388254813313,1.057564495107134C-23.407559895578167,1.149274407247428,-8.032600337911296,2.379174350084623,-3.900598495333719,0.5063834643349154C0.23140334724385792,-1.3664074214147917,-6.8795525252678615,-6.341889135751401,-1.9370635614647078,-0.18070023832166449C3.005425402338444,5.980488659108072,20.00135920245647,23.278348168304156,17.340103786334808,18.463492754198434C14.67884837021315,13.64863734009271,-7.639596262148196,-13.278932997314818,-9.763474823407233,-18.282898023009682C-11.887353384666268,-23.28686304870454,6.183334125177005,-6.367222762686734,14.012525419962511,1.1425907507531332C21.841716714748017,8.652404264193,19.429411794475755,6.752391005054928,21.857138915291813,8.083840127818974C24.28486603610788,9.415289250583019,31.552625198012265,13.97820075524918,35.18650477896446,16.25965650758226L38.82038435991666,18.54111225991534" style="filter: url(#vbzti); stroke: rgb(48, 186, 143);"></path></g></svg>