<svg viewBox="0 0 300 300" preserveAspectRatio="xMidYMid" width="300" height="300"><filter id="nwtaa" width="300" height="500" x="-50%" y="-50%"><feFlood flood-color="#1974d2" result="element"></feFlood><feTurbulence baseFrequency="0.02" type="fractalNoise" numOctaves="8" seed="35" result="element_1"></feTurbulence><feGaussianBlur stdDeviation="5" in="SourceAlpha" result="element_2"></feGaussianBlur><feDisplacementMap scale="100" in="element_2" in2="element_1" result="element_3"></feDisplacementMap><feComposite operator="in" in="element" in2="element_3" result="element_4"></feComposite><feMerge><feMergeNode in="element_4"></feMergeNode></feMerge></filter><g transform="translate(150,150) scale(1.5)"><path d="M0,0L7.216145261857887,2.1167686204649216C14.432290523715775,4.233537240929843,28.86458104743155,8.467074481859687,28.613311939343415,13.584107881684554C28.362042831255277,18.701141281509422,13.427214091363231,24.701670840229312,3.5438147634185078,17.407521056469488C-6.3395845645262145,10.113371272709664,-11.171554480523614,-10.475457853529878,-10.998482526095156,-15.547879560666924C-10.825410571666696,-20.62030126780397,-5.647296746812379,-10.176315555838519,-1.5924635590459424,2.442418060899807C2.462369628720494,15.061151677638133,5.393922179399049,29.854633199149333,12.296822264359266,30.392746318213113C19.19972234931948,30.930859437276894,30.073969968561357,17.21360415389325,26.935541510071896,17.354431478252845C23.797113051582432,17.49525880261244,6.646008515361631,31.494168734715274,-4.660501419350047,31.700041094692494C-15.967011354061725,31.90591345466972,-21.42892668726428,18.31874824252133,-20.99230493533587,15.353212961354131C-20.555683183407464,12.38767768018693,-14.220524346348096,20.043772330000923,-8.922065848262235,18.902527270795286C-3.6236073501763726,17.76128221158965,0.6381508089359826,7.822697443364387,5.162341433665546,-0.3535584160234784C9.686532058395109,-8.529814275411344,14.473155148741878,-14.943741225961812,16.83901449774986,-14.257997642895123C19.20487384675784,-13.572254059828436,19.149969454427037,-5.786839943144593,15.26880022585848,-1.7971180600273893C11.387630997289925,2.192603823089815,3.6801969324836183,2.38663347264038,7.824777198882758,6.414875516931698C11.969357465281899,10.443117561223017,27.965952062886483,18.30557200025509,22.550493363801237,16.121809717995944C17.135034664715985,13.938047435736802,-9.692477331059102,1.708068432186442,-14.541567646044287,-0.6073457217298213C-19.390657961029472,-2.9227598756460846,-2.261326595224755,4.676390820071748,3.4527351676954194,4.343866704651043C9.166796930615595,4.0113425892303365,3.4655890906512274,-4.252856337328907,-6.338716692950553,-13.865318968426553C-16.143022476552332,-23.4777815995242,-30.050426203791528,-34.438507935160246,-30.2025599460016,-28.8305069959779C-30.35469368821168,-23.22250605679556,-16.751557445392635,-1.0457778427948288,-8.1517363047341,8.284366715203975C0.4480848359244338,17.61451127320278,4.044590874422463,14.098072175199654,8.150436167236688,11.5737012330873C12.25628146005091,9.049330290974947,16.871466007181333,7.517027504753364,14.509944504483137,5.541399335404302C12.148423001784943,3.565771166055239,2.810195449258135,1.146817613578697,1.4520681982244121,-2.0646125214285487C0.09394094719068935,-5.276042656435794,6.715913997650052,-9.279949373973743,10.760046703969431,-8.822989080799571C14.80417941028881,-8.3660287876254,16.270471772468206,-3.4482014837391084,13.543883668405151,-3.063443811854966C10.817295564342098,-2.6786861399708233,3.8978269940365977,-6.826998100088831,0.35978281626084596,-2.645947806930696C-3.178261361514906,1.535102486227438,-3.3348811467609085,14.045515032661715,-3.2563961881909647,19.602762351183475C-3.177911229621021,25.160009669705236,-2.8643215272351306,23.764091760314482,1.102972783464517,19.74863842417196C5.070267094164165,15.733185088029437,12.69126601317757,9.098196325135145,7.639027035916966,5.817492405363315C2.58678805865636,2.536788485591485,-15.138688814878256,2.610369408942116,-27.59432523011971,6.093450702751824C-40.049961645361165,9.576531996561531,-47.23575760230946,16.469113660830313,-43.77967830283378,15.897611050422139C-40.3235990033581,15.326108440013968,-26.225644447458446,7.290521554928841,-20.506279752909897,8.141974408669629C-14.78691505836135,8.993427262410417,-17.44614022516391,18.73191985497712,-14.68628743791531,21.4250525461557C-11.926434650666714,24.11818523733428,-3.747503909366963,19.765958027124736,-0.11369037126281933,17.822999617075354C3.5201231668413246,15.880041207025975,2.6088195017498617,16.34635159713676,2.1333955811828913,8.208174246564488C1.657971660615921,0.06999689599221526,1.6184274845734432,-16.672668195263114,1.5986553965522041,-25.04400074089078L1.5788833085309655,-33.41533328651845" style="filter: url(#nwtaa); stroke: rgb(25, 116, 210);"></path></g></svg>