<svg viewBox="0 0 300 300" preserveAspectRatio="xMidYMid" width="300" height="300"><filter id="amcwn" width="300" height="500" x="-50%" y="-50%"><feFlood flood-color="#ffa343" result="element"></feFlood><feTurbulence baseFrequency="0.02" type="fractalNoise" numOctaves="8" seed="29" result="element_1"></feTurbulence><feGaussianBlur stdDeviation="5" in="SourceAlpha" result="element_2"></feGaussianBlur><feDisplacementMap scale="100" in="element_2" in2="element_1" result="element_3"></feDisplacementMap><feComposite operator="in" in="element" in2="element_3" result="element_4"></feComposite><feMerge><feMergeNode in="element_4"></feMergeNode></feMerge></filter><g transform="translate(150,150) scale(1.5)"><path d="M0,0L3.9103236745367917,2.1411258133468953C7.8206473490735835,4.282251626693791,15.641294698147167,8.564503253387581,19.81123095671434,13.243370527466796C23.981167215281516,17.92223780154601,24.50039238334228,22.99772072301065,24.44812053659227,13.025212840262114C24.395848689842264,3.0527049575135745,23.77207982828148,-21.96779372944814,24.584675783835948,-35.790904173532965C25.397271739390415,-49.614014617617784,27.646232512060134,-52.239736818825705,20.890948861483047,-45.65755334654756C14.135665210905966,-39.07536987426941,-1.6238628629179228,-23.285280728505192,-5.060199759001742,-11.161370257859154C-8.49653665508556,0.9625402127868803,0.39031762657068914,9.420272008314729,-2.1895548309057156,10.609725300118876C-4.76942728838212,11.799178591923024,-18.81602648499118,5.720353380003467,-22.013825659262757,-2.501421417863602C-25.21162483353434,-10.723196215730672,-17.56062398546844,-21.087920599545253,-13.69821500015632,-13.634789801408374C-9.835806014844199,-6.1816590032714895,-9.761988892285856,19.089326976816857,-5.872901957777673,24.831041749065516C-1.9838150232694902,30.572756521314176,5.720541723188534,16.785200085723147,5.129448286395441,14.136097889047054C4.538354849602348,11.48699569237096,-4.348188770441862,19.976347734609803,-8.218207762837954,21.481435309290674C-12.088226755234047,22.986522883971553,-10.941721119982024,17.50734599109446,-15.441460905948972,12.18990143998085C-19.941200691915917,6.872456888867246,-30.087185899101836,1.7167446795171246,-28.179112116684582,-6.651794076508656C-26.271038334267324,-15.020332832534436,-12.308905562246892,-26.60169813523588,-10.517837316277411,-27.89601108213172C-8.726769070307931,-29.190324029027565,-19.106765350389402,-20.197584620117816,-15.463943515744065,-8.90537281964744C-11.821121681098727,2.3868389808229367,5.8445182682734185,15.978523172853938,13.22833938101115,19.378750764494463C20.61216049374888,22.778978356134985,17.7141627698522,15.987749347385027,12.690857512066131,12.457260606498465C7.667552254280059,8.926771865611903,0.5189394626045978,8.657023392588737,-3.9877769050976735,0.19541817090324098C-8.494493272799945,-8.266187050782253,-10.359313216529026,-24.919649021130077,-8.026052913199175,-24.192539867071872C-5.692792609869323,-23.465430713013667,0.8385479405194616,-5.357750434549432,3.0748094052010613,-3.819741066778202C5.311070869882661,-2.281731699006972,3.252253248857075,-17.313393241928747,8.226006589948721,-13.239033218675543C13.199759931040365,-9.164673195422342,25.20608423424924,14.015708394005838,30.544250189507416,15.375773370258345C35.88241614476559,16.735838346510857,34.55242375207307,-3.724413290412304,36.56513258339285,-7.593636812381378C38.57784141471264,-11.462860334350452,43.93325147004473,1.2589442586345623,38.46922998695751,3.938338104454235C33.005208503870286,6.617731950273908,16.72175548236375,-0.7452849510717607,8.572160523763626,-1.2545943179966683C0.42256556516350596,-1.763903684921576,0.4068286694697978,4.580494482574277,-1.0890344680271122,8.781015188242796C-2.5848976055240223,12.981535893911316,-5.560886984824134,15.0381791377525,-7.209124766564193,13.309338683228118C-8.857362548304252,11.580498228703735,-9.177848732484259,6.066174075813784,0.33224711427597065,4.560450028680005C9.842342961036202,3.0547259815462264,29.183020838736667,5.557602040168621,29.15541568153748,6.346749800581814C29.127810524338297,7.135897560995009,9.73192233223946,6.211317023199003,2.0517039771756664,-4.257832038126147C-5.628514377888127,-14.726981099451297,-1.5930628959168742,-34.74069868430559,0.49921079792941964,-37.03651242415194C2.5914844917757134,-39.33232616399829,2.740580397497049,-23.910236058836695,-2.1864163569916037,-5.987573965968419C-7.113413111480257,11.935088126899856,-17.1165025261789,32.358322207474814,-24.61922725452291,36.1699314933692C-32.12195198286693,39.98154077926358,-37.12431202485632,27.181525270477387,-33.10329831712726,20.109931781240174C-29.082284609398208,13.038338292002962,-16.037897151950702,11.695166822314727,-9.515703423226952,11.02358108747061L-2.9935096945032003,10.351995352626492" style="filter: url(#amcwn); stroke: rgb(255, 163, 67);"></path></g></svg>