<svg viewBox="0 0 300 300" preserveAspectRatio="xMidYMid" width="300" height="300"><filter id="jwlwh" width="300" height="500" x="-50%" y="-50%"><feFlood flood-color="#48bf91" result="element"></feFlood><feTurbulence baseFrequency="0.02" type="fractalNoise" numOctaves="8" seed="17" result="element_1"></feTurbulence><feGaussianBlur stdDeviation="4" in="SourceAlpha" result="element_2"></feGaussianBlur><feDisplacementMap scale="100" in="element_2" in2="element_1" result="element_3"></feDisplacementMap><feComposite operator="in" in="element" in2="element_3" result="element_4"></feComposite><feMerge><feMergeNode in="element_4"></feMergeNode></feMerge></filter><g transform="translate(150,150) scale(1.5)"><path d="M0,0L1.4599809721567267,5.499519501146069C2.9199619443134535,10.999039002292138,5.839923888626907,21.998078004584276,2.9883168026147495,21.450512941936882C0.13670971660259212,20.902947879289485,-8.486466399735177,8.808778751702558,-9.337823936668872,7.766512278973529C-10.189181473602567,6.724245806244502,-3.2687204311321905,16.733881988373373,-2.1075926100195357,13.742497771305642C-0.9464647889068809,10.751113554237907,-5.544670189151948,-5.241291062026432,-13.187643746160697,-9.003868027346353C-20.830617303169447,-12.766444992666276,-31.518359016941876,-4.29919430704178,-32.42516727887546,-4.966937435016099C-33.33197554080905,-5.634680562990417,-24.45785035090379,-15.43741750456355,-18.89991390115999,-17.600149616765528C-13.341977451416184,-19.762881728967507,-11.100229741833834,-14.285609011798332,-7.959009332211405,-6.209253883312038C-4.817788922588975,1.867101245174256,-0.7770958129264667,12.542538784977669,1.720780980533262,23.33846645560589C4.218657773992991,34.13439412623411,5.173718251249939,45.050811927687135,8.108906592830365,33.243725569117586C11.044094934410793,21.43663921054804,15.959411140314696,-13.093951308044083,17.35384042158817,-23.08731228672997C18.748269702861645,-33.080673265415854,16.621812059504688,-18.536804704195507,16.119130984487104,-10.643045751617207C15.616449909469521,-2.74928679903891,16.737545402791312,-1.5056374551026637,7.638666442664762,3.00297658327555C-1.460212517461784,7.511590621653764,-20.77906593103667,15.285169354473945,-20.17650952018285,16.08051796020186C-19.573953109329036,16.875866565929773,0.9500131259534808,10.69298504456542,8.297386605885912,3.752297607681828C15.644760085818342,-3.1883898292017636,9.81554081040069,-10.886883181604594,-2.188799920685728,-14.786947920177859C-14.193140651772147,-18.687012658751122,-32.37260283852733,-18.78864878349482,-33.903933804066384,-15.691832502630653C-35.43526476960544,-12.595016221766489,-20.318464513928376,-6.299747535294458,-3.3306940176717745,0.3865252051841166C13.657076478584827,7.072797945662692,32.51581721542097,14.15007474014781,33.42134409718871,13.924854806280802C34.32687097895646,13.69963487241379,17.27918400565581,6.1719182101946535,13.667349404945735,-1.2588255895487102C10.05551480423566,-8.689569389292075,19.879532576116155,-16.023340326559666,19.522556166699616,-17.768665007799523C19.16557975728307,-19.51398968903938,8.62760916656949,-15.670868114251505,-0.3996118749259532,-15.69167450126108C-9.426832916421397,-15.712480888270658,-16.943304408698705,-19.597215237077688,-19.94559670618753,-13.813560646536423C-22.947889003676355,-8.02990605599516,-21.4360021063767,7.4221374738944,-23.58131029438485,19.01008739286619C-25.726618482393004,30.598037311837977,-31.52912175570896,38.321893619891995,-29.67207772124096,28.159634181953408C-27.815033686772953,17.997374744014813,-18.29844234452099,-10.051000439916391,-13.119698099257006,-16.263796002511086C-7.940953853993021,-22.476591565105778,-7.100056705717014,-6.8538075063639585,-2.682175562698892,4.85696579550245C1.7357055803192303,16.567739097368857,9.73057071807947,24.366501642359857,4.730478922651319,13.397935777700418C-0.26961287277683255,2.429369913040979,-18.26466160139337,-27.3065243612689,-18.471029334684452,-34.13185807912322C-18.677397067975534,-40.95719179697754,-1.095083805941151,-24.871964958376303,11.585986278056513,-17.733925983337766C24.267056362054177,-10.595887008299226,32.04688326801512,-12.405035896823382,29.088103242393018,-19.615835657434467C26.129323216770917,-26.826635418045548,12.431936259565765,-39.439086050743555,8.11982903278445,-35.15057637959336C3.807721806003135,-30.862066708443162,8.880894309645655,-9.67259673344476,6.721373729631396,-4.82537107105777C4.561853149617136,0.02185459132921963,-4.830360514053903,-11.473164058895204,-9.135569506642844,-11.529275327219475C-13.440778499231783,-11.585386595543746,-12.658982820738622,-0.2025904819678619,-11.904024611092634,6.232782395558766C-11.149066401446643,12.668155273085393,-10.420945660647824,14.156104914562764,-10.056885290248413,14.90007973530145L-9.692824919849004,15.644054556040139" style="filter: url(#jwlwh); stroke: rgb(72, 191, 145);"></path></g></svg>