<svg viewBox="0 0 300 300" preserveAspectRatio="xMidYMid" width="300" height="300"><filter id="xctce" width="300" height="500" x="-50%" y="-50%"><feFlood flood-color="#fa5b3d" result="element"></feFlood><feTurbulence baseFrequency="0.02" type="fractalNoise" numOctaves="8" seed="97" result="element_1"></feTurbulence><feGaussianBlur stdDeviation="4" in="SourceAlpha" result="element_2"></feGaussianBlur><feDisplacementMap scale="100" in="element_2" in2="element_1" result="element_3"></feDisplacementMap><feComposite operator="in" in="element" in2="element_3" result="element_4"></feComposite><feMerge><feMergeNode in="element_4"></feMergeNode></feMerge></filter><g transform="translate(150,150) scale(1.5)"><path d="M0,0L1.9010555435884773,-1.2693363493270644C3.8021110871769546,-2.538672698654129,7.604222174353909,-5.077345397308258,16.107921769577032,-2.210356285738149C24.61162136480015,0.6566328258319594,37.81690946806944,8.929283747626306,43.53856899844696,4.135844037850065C49.26022852882448,-0.6575956719261757,47.49825948631023,-18.517126013273003,41.992804212874695,-16.06015333691885C36.487348939439165,-13.603180660564707,27.238407435082355,9.170295033490415,18.051504613567992,5.9731140361566C8.864601792053625,2.775933038822785,-0.26026234661829317,-26.391904649899967,0.49027710959279647,-35.81294941828154C1.240816565803886,-45.23399418666311,11.866759616897983,-34.90824603470351,17.859758722481388,-17.985427504201567C23.852757828064792,-1.0626089736996214,25.212812988137504,22.457279935344662,21.637703064786535,28.93191807955635C18.062593141435567,35.406556223768035,9.552318134660917,24.835943603147122,14.446453290307085,14.065456699123297C19.34058844595325,3.294969795099476,37.63913376402024,-7.675391392327258,35.409156024146625,-0.29864229975180123C33.17917828427302,7.078106792823654,10.420677486458818,32.801966165401296,0.0643064827832478,36.03330498279806C-10.292064520892321,39.264643800194825,-8.246305730429258,20.0034620624107,-5.3677109364396,9.902628014496704C-2.4891161424499417,-0.19820603341729037,1.2223146550663104,-1.1386923914611609,-1.1110950219151037,-1.7026192510699252C-3.444504698896518,-2.2665461106786893,-11.822754850375599,-2.4539134718523474,-4.1272085622117505,-1.6648736420079635C3.568337725952098,-0.8758338121635795,27.337680453758875,0.8896132086988466,31.15354132125673,6.548606852460788C34.96940218875458,12.20760049622273,18.83178119594351,21.760140762884184,13.926451396593134,20.772633586871557C9.021121597242756,19.78512641085893,15.34808299135307,8.257571792172214,15.504222611151238,0.38585878499349313C15.660362230949405,-7.485854222185229,9.645680076435424,-11.70172561785596,8.392182354609208,-14.864919862380296C7.138684632782992,-18.02811410690463,10.646371343644542,-20.13863120028257,10.853305786449724,-11.438169054742307C11.060240229254907,-2.737706909202039,7.966422404003719,16.773734475256433,8.739655492118185,20.09483669850411C9.51288858023265,23.415938921751785,14.153172581712768,10.546701983788665,11.232174183600119,7.628258496214169C8.311175785487473,4.709815008639672,-2.1711050122179394,11.742164971453796,-4.276475685367891,18.961125554861372C-6.381846358517842,26.180086138268948,-0.11030690711233326,33.585657342269975,6.999653011127921,26.583163997654175C14.109612929368176,19.580670653038375,22.057993314443173,-1.8298872401942532,21.682775049851696,-11.777865613405076C21.307556785260214,-21.7258439866159,12.608739871002257,-20.21124283980492,13.923495365283388,-14.557693980861256C15.23825085956452,-8.904145121917587,26.566578762384744,0.8883514491587681,25.334592078339004,2.961369416746617C24.102605394293263,5.034387384334465,10.310304123381554,-0.6120732515661924,-5.122608452554647,-4.908984081731792C-20.555521028490848,-9.205894911897392,-37.629044909451544,-12.153255936327934,-35.79974962962221,-11.523332441370401C-33.97045434979289,-10.893408946412869,-13.238339909173535,-6.686200932067261,-3.359429259531129,-1.1761114716645573C6.5194813901112765,4.333977988738146,5.545188248776737,11.146948895197946,12.295158933052338,17.910783695176256C19.04512961732794,24.67461849515457,33.519364127213684,31.389317188651386,31.023903340184255,32.251119391092885C28.528442553154832,33.11292159353438,9.063286469210238,28.121827304920558,-0.36552056068118977,23.67329645136084C-9.794327590572617,19.224765597801127,-9.186785566410881,15.318798179295522,-4.7934687289425755,12.092607543613513C-0.4001518914742688,8.866416907931505,7.7789397593006075,6.3200030550730935,8.494945447998864,-0.8605561736341061C9.210951136697123,-8.041115402341305,2.4638708633187636,-19.855820006897293,8.1660633486645,-15.696843204031987C13.868255834010236,-11.537866401166678,32.01972107808007,8.594791809119926,41.09545370011499,18.66112091426323L50.1711863221499,28.72745001940653" style="filter: url(#xctce); stroke: rgb(250, 91, 61);"></path></g></svg>