<svg viewBox="0 0 300 300" preserveAspectRatio="xMidYMid" width="300" height="300"><filter id="wojmm" width="300" height="500" x="-50%" y="-50%"><feFlood flood-color="#7b4259" result="element"></feFlood><feTurbulence baseFrequency="0.02" type="fractalNoise" numOctaves="8" seed="78" result="element_1"></feTurbulence><feGaussianBlur stdDeviation="5" in="SourceAlpha" result="element_2"></feGaussianBlur><feDisplacementMap scale="100" in="element_2" in2="element_1" result="element_3"></feDisplacementMap><feComposite operator="in" in="element" in2="element_3" result="element_4"></feComposite><feMerge><feMergeNode in="element_4"></feMergeNode></feMerge></filter><g transform="translate(150,150) scale(1.5)"><path d="M0,0L1.608978527023258,-0.07108998319936813C3.217957054046516,-0.14217996639873626,6.435914108093032,-0.2843599327974725,4.277487005069183,2.0647720764330577C2.1190599020453345,4.413904085663588,-5.415751358048879,9.254348070523385,0.8068941967667378,10.578087113962622C7.029539751582355,11.90182615740186,27.009642121307802,9.708860259420542,30.75784813220011,7.60460114065075C34.50605414309241,5.500342021880958,22.022363795151577,3.4847896823226945,14.93197174368266,4.524723765372476C7.841579692213742,5.564657848422257,6.144485937216742,9.660078354080085,-1.9648082537436986,11.986555750553013C-10.07410244470414,14.313033147025939,-24.59559707162802,14.870567434313967,-29.06007842186237,12.580403879744338C-33.52455977209672,10.290240325174711,-27.932027845641542,5.152378928747428,-21.91794859936512,-5.570580372691078C-15.903869353088691,-16.293539674129583,-9.468242786991022,-32.60159688057931,-2.0081507987434124,-38.84134379840037C5.451941189504197,-45.08109071622143,13.936498599901746,-41.25252734541384,15.99541991021592,-36.17324479707886C18.054341220530095,-31.093962248743885,13.687626430760897,-24.76396052288154,10.633731981694865,-25.5289859501088C7.57983753262883,-26.29401137733607,5.838763424265962,-34.154063957652944,-0.20019928631672723,-36.32176577145782C-6.239161996899416,-38.48946758526269,-16.576013309701924,-34.96481863255555,-19.302231638223585,-22.917712200642775C-22.02844996674525,-10.870605768730009,-17.144035310986062,9.69895814238839,-13.318092248032812,16.433182462574905C-9.492149185079567,23.167406782761415,-6.72467771493226,16.066291512016043,3.469988382218812,4.678010567069331C13.664654479369883,-6.7102703778773805,31.286515203524722,-22.38571699702543,32.45869273814262,-25.0492202359593C33.63087027276051,-27.712723474893174,18.353364617841464,-17.364283333612875,8.501434671215316,-3.5703376943761986C-1.3504952754108324,10.223607944860476,-5.7768495137440805,27.463059082053523,-12.475799681581131,32.60576744268C-19.174749849418184,37.74847580330648,-28.146295946759036,30.794441387366383,-26.285324532097977,14.984200487311238C-24.424353117436922,-0.8260404127439074,-11.730864190773953,-25.49248779691411,-4.45622535011282,-26.616708356044274C2.8184134905483127,-27.740928915174447,4.6742022452076135,-5.322922649264582,7.809164971340521,3.1393043356234696C10.944127697473428,11.601531320511521,15.358264395079942,6.1079790243777605,5.855600835620418,7.242176831599868C-3.647062723839106,8.376374638821975,-27.06652654036467,16.138322549399952,-28.886352390598283,24.43302272992505C-30.706178240831896,32.72772291045015,-10.926366124773555,41.55517536092236,-8.846271267986202,42.383194308866C-6.766176411198849,43.21121325680964,-22.385798813682484,36.039798702224694,-27.854106798971806,25.85680170446263C-33.32241478426113,15.673804706700569,-28.63940835235614,2.4792252657613876,-32.06192334509174,-5.547993715610051C-35.48443833782735,-13.575212696981492,-47.01247475520355,-16.43507121878519,-41.83551543964602,-10.3451437720494C-36.6585561240885,-4.255216325313613,-14.776601075597247,10.784497089961661,-4.750704398559872,15.6911547600891C5.275192278477503,20.59781243021654,3.4450305840610027,15.37141435519614,2.3366996266390703,10.204225753808524C1.2283686692171383,5.037037152420909,0.8418684487897741,-0.07094197533392688,-5.779041340615378,-8.179092064111414C-12.399951130020531,-16.2872421528889,-25.25527048840347,-27.39556320268904,-26.604605226107743,-26.711227779037863C-27.953939963812022,-26.026892355386686,-17.79729008083763,-13.549900458284197,-12.034892411821392,-9.27541185952838C-6.272494742805154,-5.000923260772564,-4.904349287747067,-8.928937960363422,0.43738493500496567,-6.295735296777644C5.779119157756997,-3.6625326331918675,15.094442148202974,5.531887393570544,16.395700684738866,15.008627055215413C17.696959221274764,24.485366716860284,10.984153303900573,34.24442601338761,-1.73667114757838,32.94432251694929C-14.457495599057335,31.644219020510974,-33.18633858464106,19.284952731107012,-42.55076007743291,13.105319586405027L-51.915181570224775,6.9256864417030455" style="filter: url(#wojmm); stroke: rgb(123, 66, 89);"></path></g></svg>