<svg viewBox="0 0 300 300" preserveAspectRatio="xMidYMid" width="300" height="300"><filter id="tfnad" width="300" height="500" x="-50%" y="-50%"><feFlood flood-color="#158078" result="element"></feFlood><feTurbulence baseFrequency="0.02" type="fractalNoise" numOctaves="8" seed="95" result="element_1"></feTurbulence><feGaussianBlur stdDeviation="5" in="SourceAlpha" result="element_2"></feGaussianBlur><feDisplacementMap scale="100" in="element_2" in2="element_1" result="element_3"></feDisplacementMap><feComposite operator="in" in="element" in2="element_3" result="element_4"></feComposite><feMerge><feMergeNode in="element_4"></feMergeNode></feMerge></filter><g transform="translate(150,150) scale(1.5)"><path d="M0,0L1.0324316421196267,0.8024218792256944C2.0648632842392534,1.6048437584513888,4.129726568478507,3.2096875169027776,-3.645387701761562,12.448246359382713C-11.420501972001631,21.68680520186265,-29.035593796721024,38.55907912837113,-28.688923358547868,46.792523350162085C-28.342252920374712,55.025967571953025,-10.033820219309014,54.620582089026435,-7.005323055401544,44.34716061782353C-3.9768258914940757,34.07373914662064,-16.228264264744837,13.932281687141426,-22.699112355985392,8.110880610951618C-29.16996044722595,2.2894795347618118,-29.8602182564563,10.788134841861407,-25.03326891508959,5.117903728936579C-20.206319573722883,-0.5523273839882492,-9.862163081759116,-20.391444916937502,-3.21623173278583,-25.393108807345698C3.429699616187456,-30.394772697753893,6.377405822170261,-20.558982945621032,7.508371580565111,-13.61527972555567C8.63933733895996,-6.671576505490305,7.953562649766854,-2.6199598174924352,11.02307391581313,-2.9292894893731334C14.092585181859405,-3.2386191612538315,20.917382403145066,-7.908895193013096,22.08375895605485,-15.255491171750693C23.250135508964643,-22.602087150488288,18.758091393498564,-32.625003076204216,14.388749160008551,-26.94982420228411C10.01940692651854,-21.274645328364002,5.772766575004594,0.09862834519213948,-2.0946040517122806,5.188405790966786C-9.961974678429156,10.278183236741432,-21.450075580348962,-0.915535545265417,-21.67314496860827,-2.979148727428951C-21.89621435686758,-5.042761909592485,-10.8542522314664,2.0237305080872954,-14.368498287174479,13.324406351867669C-17.882744342882557,24.625082195648044,-35.953198579699894,40.159941465529016,-37.37892766005746,42.62031970898869C-38.80465674041501,45.08069795244837,-23.585660664312783,34.46659516948675,-16.202560353261376,21.549083646656854C-8.819460042209972,8.63157212382695,-9.272255496209384,-6.589348138871236,-8.785166854660995,-4.5961233785536315C-8.298078213112605,-2.602898618236029,-6.871105476016414,16.604471165097365,-11.599829526117652,21.8388913021329C-16.32855357621889,27.073311439168435,-27.21297441351756,18.33478192990611,-21.45628832525405,17.481461887065045C-15.699602236990533,16.628141844223975,6.698190776835165,23.660031267804165,14.368717368054405,22.18925249920572C22.039243959273644,20.718473730607272,14.982504127886427,10.745026769830197,11.669588658454163,-1.8457626281546098C8.3566731890219,-14.436552026139417,8.787582081544588,-29.644683861331956,4.300189568094302,-25.478204093122287C-0.18720294535598558,-21.31172432491262,-9.59289686477925,2.229367046699249,-8.38253891354519,11.137244187009738C-7.172180962311129,20.045121327320228,4.654228859580258,14.319784236329337,6.519411483279488,10.033350148636723C8.384594106978717,5.74691606094411,0.2885495324857885,2.8993849765497743,-0.674970506409946,1.8112151129137546C-1.6384905453056806,0.723045249277735,4.530513951395779,1.3942366064000316,5.247932538562724,1.3991666319195506C5.9653511257296685,1.4040966574390699,1.2311838033620983,0.7427653513558117,0.466187287562271,9.417611673129372C-0.2988092282375563,18.092457994902933,2.905365062530359,36.103481944533314,12.328415569531238,44.521571955820086C21.751466076532115,52.93966196710686,37.393392799765955,51.76481804005003,30.281615304379883,38.276063200735585C23.169837808993815,24.78730836142113,-6.695643905012165,-1.0153573901509425,-13.80580746581887,-4.0090325125939765C-20.915971026625574,-7.0027076350370105,-5.270816434233,12.812607871648993,0.8743440656806205,20.667048462862745C7.01950456559424,28.521489054076497,3.664670973028908,24.415054729818,2.5343657024478734,13.80769762221907C1.404060431866839,3.2003405146201374,2.4982834832701024,-13.907939376319227,3.3926007904942006,-18.35498489890393C4.286918097718299,-22.802030421488634,4.981329660763233,-14.587841575718679,12.222086263980266,-9.591458433696065C19.4628428671973,-4.595075291673452,33.24994451058643,-2.81649785339818,32.87847970287182,-8.193215260107987C32.50701489515721,-13.569932666817794,17.976983636338865,-26.10194491851268,10.711968006929691,-32.36795104436012L3.4469523775205175,-38.633957170207566" style="filter: url(#tfnad); stroke: rgb(21, 128, 120);"></path></g></svg>