<svg viewBox="0 0 300 300" preserveAspectRatio="xMidYMid" width="300" height="300"><filter id="gxati" width="300" height="500" x="-50%" y="-50%"><feFlood flood-color="#45a27d" result="element"></feFlood><feTurbulence baseFrequency="0.02" type="fractalNoise" numOctaves="8" seed="19" result="element_1"></feTurbulence><feGaussianBlur stdDeviation="5" in="SourceAlpha" result="element_2"></feGaussianBlur><feDisplacementMap scale="100" in="element_2" in2="element_1" result="element_3"></feDisplacementMap><feComposite operator="in" in="element" in2="element_3" result="element_4"></feComposite><feMerge><feMergeNode in="element_4"></feMergeNode></feMerge></filter><g transform="translate(150,150) scale(1.5)"><path d="M0,0L0.2598523297334132,3.4828083035457746C0.5197046594668264,6.965616607091549,1.0394093189336528,13.931233214183099,-0.24162182514765207,17.31698124272033C-1.522652969228957,20.70272927125756,-4.604419916858394,20.508608721240478,-4.669678044696386,13.673095786952372C-4.734936172534381,6.837582852664268,-1.7836854805809317,-6.639322465894853,-2.005312021600811,-4.502658376523409C-2.22693856262069,-2.3659942871519632,-5.621442336613898,15.38423921015005,-7.495464382306176,21.762811096641734C-9.369486427998455,28.141382983133422,-9.723026745389804,23.148293258814785,-7.521327749020503,19.727698833488834C-5.319628752651202,16.30710440816288,-0.562690442521248,14.459005281829608,2.1039004980602662,9.62123495334393C4.7704914386417805,4.78346462485825,5.346735009674856,-3.0439769057798394,0.9152049759939955,3.4520099376913587C-3.5163250576868657,9.947996781162557,-12.955628696081662,30.767411998743043,-17.858554783590108,31.257391578806487C-22.761480871098552,31.74737115886993,-23.128029407720643,11.907915101416336,-21.951408679591722,3.1493437316069173C-20.7747879514628,-5.609227638202501,-18.05499795858287,-3.2869143203677424,-13.824986827170605,-3.5842329893006304C-9.59497569575834,-3.8815516582335183,-3.854743425813739,-6.798502313934052,-5.0654572196069525,-5.7786725680265025C-6.276171013400166,-4.758842822118954,-14.437830870931194,0.19776732539667963,-12.612453862829412,5.235127252342293C-10.787076854727628,10.272487179287907,1.0253370190069653,15.3905968856635,4.66011749964936,15.93642264015931C8.294897980291754,16.482248394655123,3.7520450678419515,12.45579019727115,3.0638867023679617,7.384578557094795C2.375728336893972,2.3133669169184383,5.542264518395796,-3.802598166050303,10.86031724866846,-8.405533132268847C16.178369978941127,-13.00846809848739,23.647939257984632,-16.098372947955735,22.109223459198535,-17.366646751804033C20.57050766041244,-18.63492055565233,10.023506783796739,-18.08156331388058,1.7932635449742902,-20.311275301043857C-6.4369796938481585,-22.540987288207134,-12.350465294877358,-27.55376850430544,-19.891704174224753,-15.154347225471968C-27.432943053572153,-2.7549259466384903,-36.601935211237745,27.05669782712677,-29.786087758684122,27.989903489383906C-22.970240306130506,28.923109151641032,-0.16955324335766875,0.9778967023900371,6.939910537376283,-10.424872012972802C14.049374318110235,-21.82764072833564,5.467614816805304,-16.687965709810328,2.3117856405733725,-4.807169525841039C-0.8440435356585585,7.073626658128248,1.4260576131825116,25.695544007541507,7.168984627487778,27.7275521339373C12.911911641793045,29.7595602603331,22.127664521562508,15.201659163711437,13.558187596926722,14.247903585811217C4.988710672290933,13.294148007910996,-21.365996056750106,25.94453794873222,-27.945490451228135,24.157375243863445C-34.52498484570617,22.37021253899467,-21.329266905621196,6.145497188435903,-9.46280031473069,4.068610245747196C2.4036662761598153,1.9917233030584898,12.940881517855852,14.062664768239847,21.61714356451364,14.545535512965023C30.293405611171433,15.0284062576902,37.10871446279098,3.923206281959196,30.12040345507378,4.1672268673704425C23.132092447356577,4.411247452781689,2.340161580302624,16.004488599335186,-6.584127444562446,20.17888139768356C-15.508416469427516,24.353274196031943,-12.565063652103703,21.108818646175205,-7.470031103836887,23.570190652299697C-2.3749985555700697,26.031562658424193,4.871713723639751,34.198762220529915,-0.8802537339705232,38.46356089415365C-6.632221191580797,42.72835956777739,-25.382868386011168,43.09075735291914,-35.67578618829199,26.88702424309816C-45.968703990572806,10.683291133277184,-47.80389240070407,-22.08657287150652,-35.47656639883289,-30.032574452528305C-23.1492403969617,-37.97857603355009,3.340600016911946,-21.10071519080996,13.069073938239711,-12.732295921258125C22.797547859567477,-4.363876651706292,15.76465528834936,-4.504898955342753,8.46223875422267,-7.062693201506523C1.1598222200959771,-9.620487447670293,-6.41211827693929,-14.59505363636137,-10.198088525456923,-17.08233673070691L-13.984058773974557,-19.56961982505245" style="filter: url(#gxati); stroke: rgb(69, 162, 125);"></path></g></svg>