<svg viewBox="0 0 300 300" preserveAspectRatio="xMidYMid" width="300" height="300"><filter id="ulrwa" width="300" height="500" x="-50%" y="-50%"><feFlood flood-color="#391285" result="element"></feFlood><feTurbulence baseFrequency="0.02" type="fractalNoise" numOctaves="8" seed="85" result="element_1"></feTurbulence><feGaussianBlur stdDeviation="4" in="SourceAlpha" result="element_2"></feGaussianBlur><feDisplacementMap scale="100" in="element_2" in2="element_1" result="element_3"></feDisplacementMap><feComposite operator="in" in="element" in2="element_3" result="element_4"></feComposite><feMerge><feMergeNode in="element_4"></feMergeNode></feMerge></filter><g transform="translate(150,150) scale(1.5)"><path d="M0,0L5.969080577421456,-1.6131949268692891C11.938161154842913,-3.2263898537385782,23.876322309685825,-6.4527797074771565,26.38526013896812,-2.29530561288082C28.894197968250417,1.8621684817155169,21.973912471972092,13.403506524646769,11.141749341127527,14.812248318121219C0.3095862102829656,16.22099011159567,-14.434454555127838,7.497135655613319,-20.908440865518426,3.3235198886235677C-27.382427175909015,-0.8500958783661842,-25.586359031279393,-0.47347295636333686,-25.22382402241823,-6.050961953809786C-24.861289013557073,-11.628450951256236,-25.93228714046438,-23.16005186815198,-20.754289120878017,-20.922384882323346C-15.576291101291655,-18.68471789649471,-4.149296935211623,-2.6777830079416916,-2.0197349412566776,1.4442451651657264C0.10982705269826809,5.566273338273144,-7.058043125471872,-2.1966052040650377,-9.657364540197303,-3.3927946693338877C-12.256685954922736,-4.588984134602737,-10.28745860620346,0.781515477197746,-12.26885507572021,-1.4493733328616307C-14.250251545236962,-3.6802621429210074,-20.18227183298974,-13.512539374840244,-19.32476512853879,-21.802898548088635C-18.46725842408784,-30.093257721337025,-10.820224727433168,-36.84169883591457,-2.3753807679189105,-34.568597562401806C6.069463191595347,-32.29549628888904,15.312117413969188,-21.00085262728596,15.705247611688343,-21.53664739520531C16.098377809407495,-22.072442163124663,7.641983982471962,-34.43867536056645,1.7390210406955293,-32.88268734988777C-4.163941901080904,-31.326699339209092,-7.513473957698235,-15.848490120409952,-10.97098066825416,-14.389457430700066C-14.428487378810086,-12.930424740990178,-17.993968743304602,-25.490568580369544,-16.47437639645329,-22.511436811273974C-14.95478404960198,-19.532305042178397,-8.350117991404836,-1.0138976646078817,-5.158741759191441,0.658945056434872C-1.9673655269780452,2.3317877774776257,-2.189279120748396,-12.840934158007382,-2.1133098752698394,-14.328693621444854C-2.0373406297912826,-15.816453084882326,-1.6634885450638186,-3.6192500762722606,-1.1692477096941938,-4.351356782499345C-0.675006874324569,-5.08346348872643,-0.06037728831278377,-18.744879909790665,-2.58503296123999,-28.07995809060492C-5.109688634167196,-37.415036271419176,-10.773629566033394,-42.42377621198345,-14.828401862257389,-41.22891270241751C-18.883174158481385,-40.03404919285156,-21.328777819063177,-32.63558223315539,-20.621793044099764,-21.164824804666306C-19.91480826913635,-9.694067376177227,-16.055235058627733,5.848980521104773,-9.160294256101581,15.234765631373868C-2.265353453575428,24.620550741642965,7.664954940968258,27.849073064899155,9.478053032167523,23.63503723964514C11.291151123366792,19.42100141439112,4.987038911221639,7.764407440626896,-4.552207210602388,1.0957231208568154C-14.091453332426415,-5.572961198913266,-26.86583336392932,-7.253735864689201,-30.810792321990064,-6.472982820796646C-34.75575128005081,-5.6922297769040915,-29.8712891646694,-2.4499490233430476,-24.44126056078665,-0.5553626360515544C-19.0112319569039,1.3392237512399392,-13.035636864519809,1.8861157722618822,-6.0294212068570845,2.249351589201296C0.976794450805639,2.61258740614071,9.013630673746999,2.7921670189975947,18.620093291903146,3.0928368810518103C28.226555910059293,3.393506743106025,39.40264492343023,3.8152668543575707,35.16535984375773,6.49954355621544C30.928074764085228,9.18382025807331,11.277415591369293,14.130613550537502,1.9621830638439204,13.048831394224463C-7.353049463681452,11.967049237911423,-6.332855346016261,4.856691632821152,-2.022720783645306,8.826179657948416C2.2874137787256488,12.795667683075681,9.887488785802367,27.84500133842048,10.25281410964424,30.460685933565266C10.618139433486114,33.076370528710044,3.7487150740931416,23.25840606365481,0.9526536541527977,19.1701072327303C-1.8434077657875463,15.08180840180579,-0.5661062462752624,16.723175205012005,-0.009158901796249772,15.798067847558844C0.5477884426827628,14.87296049010568,0.38438161212850397,11.381378971993133,0.29814234142473,7.249571715718422C0.21190307072095613,3.117764459443712,0.20283135986766718,-1.6542685349931627,0.19829550444102267,-4.0402850322116L0.19375964901437823,-6.426301529430038" style="filter: url(#ulrwa); stroke: rgb(57, 18, 133);"></path></g></svg>