<svg viewBox="0 0 300 300" preserveAspectRatio="xMidYMid" width="300" height="300"><filter id="dpxhd" width="300" height="500" x="-50%" y="-50%"><feFlood flood-color="#8e4585" result="element"></feFlood><feTurbulence baseFrequency="0.02" type="fractalNoise" numOctaves="8" seed="49" result="element_1"></feTurbulence><feGaussianBlur stdDeviation="4" in="SourceAlpha" result="element_2"></feGaussianBlur><feDisplacementMap scale="100" in="element_2" in2="element_1" result="element_3"></feDisplacementMap><feComposite operator="in" in="element" in2="element_3" result="element_4"></feComposite><feMerge><feMergeNode in="element_4"></feMergeNode></feMerge></filter><g transform="translate(150,150) scale(1.5)"><path d="M0,0L6.241012164382771,7.001581512076137C12.482024328765542,14.003163024152274,24.964048657531084,28.006326048304548,21.631558204677326,31.577242021330523C18.299067751823568,35.1481579943565,-0.8479374826494901,28.28682691625618,-9.966085505647396,14.049890709318285C-19.084233528645303,-0.1870454976196072,-18.173524340168058,-21.799586833395075,-13.478427038494523,-25.045093815857015C-8.78332973682099,-28.290600798318952,-0.30384432195116684,-13.169073427467364,0.21746340482179827,-10.358984564984972C0.7387711315947634,-7.548895702502579,-6.69809882972913,-17.05024534838938,-7.652210541303736,-21.178338908176855C-8.606322252878343,-25.306432467964328,-3.0776757147036653,-24.061269941652473,0.04447953866941301,-24.577128819320507C3.1666347920424913,-25.092987696988544,3.8822987606139696,-27.369867978636467,6.368026249033301,-24.994194185006936C8.853753737452632,-22.618520391377402,13.109544745719816,-15.59029252247041,13.821622549667877,-11.309573938578946C14.533700353615938,-7.028855354687481,11.702064953244879,-5.495646055811545,5.263823241004817,4.094560654837459C-1.1744184712352421,13.684767365486465,-11.219266495344304,31.331971487908536,-19.316800885152283,29.851718463635446C-27.414335274960266,28.371465439362353,-33.564556030467166,7.7637552683941,-29.15484675366832,8.853072690362275C-24.745137476869473,9.94239011233045,-9.775498167764884,32.728735127235055,-1.001867835683126,42.05065269418271C7.771762496398632,51.37257026113035,10.349383851457558,47.23006038012104,16.579398641496006,38.145469436781866C22.80941343153445,29.060878493442694,32.69182165655241,15.034206487773663,33.08152218357168,14.578955853477439C33.47122271059095,14.123705219181215,24.36821553961152,27.239875956257798,15.399584412130093,27.790772952437486C6.43095328464867,28.34166994861717,-2.4033017993347556,16.32729320389996,-5.287739039961225,10.49523079450166C-8.172176280587694,4.663168385103361,-5.106795677857209,5.013420311023976,-1.1331587372751382,6.497321887522194C2.8404782033069322,7.981223464020412,7.722371481740586,10.598774691096233,8.179026849142891,2.1765833310712335C8.635682216545197,-6.245608028953768,4.6670996729161525,-25.70754197607959,1.9697725974228668,-19.977195840271026C-0.7275544780704195,-14.246849704462461,-2.153626085427948,16.675776514280493,4.129571480983225,17.644492633470957C10.412769047394399,18.613208752661414,24.40523578757427,-10.371985227700614,22.51750124338585,-12.812613674021511C20.62976669919743,-15.253242120342406,2.8618308706407127,8.850694967377832,-2.3002807404679184,18.41579686487491C-7.46239235157655,27.980898762371986,-0.018679745237095702,23.007165469645905,2.9382167332302203,20.758137082614518C5.895113211697536,18.509108695583123,4.365193562292715,18.98478521424643,-5.462865265953571,20.39566367608805C-15.290924094199859,21.80654213792967,-33.41712210128761,24.152622542949615,-35.13008721336996,24.27518349304878C-36.84305232545232,24.39774444314794,-22.142784542529274,22.296785938326323,-16.754713055351996,24.916132309472072C-11.366641568174716,27.535478680617818,-15.2907663767432,34.875129927730924,-19.54913010339805,28.104112356426814C-23.80749383005289,21.333094785122704,-28.4000964747941,0.451408395401371,-28.279578725392852,-5.005566812207428C-28.159060975991597,-10.462542019816228,-23.325422832447885,-0.4948060453124947,-19.859848832056603,0.3987660274095237C-16.39427483166532,1.2923381001315422,-14.296764974426466,-6.888253728928154,-10.543195195034803,-12.916514309182112C-6.789625415643142,-18.944774889436072,-1.37999571409867,-22.820704220884295,1.910739148568744,-21.012161840920594C5.201474011236158,-19.203619460956897,6.373314035026514,-11.710605369581277,-3.5993598517123635,-0.08204715465454893C-13.57203373845124,11.546511060272177,-34.689221535719355,27.31061339875001,-42.93265851444462,27.977224591073142C-51.17609549316988,28.643835783396266,-46.54578165335231,14.212955829564692,-44.6440534984486,5.240697596564579C-42.74232534354489,-3.731560636435533,-43.56918287355505,-7.24519714860418,-43.98261163856012,-9.002015404688503L-44.39604040356521,-10.758833660772828" style="filter: url(#dpxhd); stroke: rgb(142, 69, 133);"></path></g></svg>