<svg viewBox="0 0 300 300" preserveAspectRatio="xMidYMid" width="300" height="300"><filter id="ghzsu" width="300" height="500" x="-50%" y="-50%"><feFlood flood-color="#5da493" result="element"></feFlood><feTurbulence baseFrequency="0.02" type="fractalNoise" numOctaves="8" seed="27" result="element_1"></feTurbulence><feGaussianBlur stdDeviation="5" in="SourceAlpha" result="element_2"></feGaussianBlur><feDisplacementMap scale="100" in="element_2" in2="element_1" result="element_3"></feDisplacementMap><feComposite operator="in" in="element" in2="element_3" result="element_4"></feComposite><feMerge><feMergeNode in="element_4"></feMergeNode></feMerge></filter><g transform="translate(150,150) scale(1.5)"><path d="M0,0L4.849398556037106,3.6296238706334476C9.698797112074212,7.259247741266895,19.397594224148424,14.51849548253379,24.928326891779967,19.15345011928996C30.459059559411514,23.788404756046134,31.82172778260039,25.799066288291577,31.1536992760433,16.937585713508575C30.485670769486216,8.07610513872557,27.786945533183165,-11.657517543085886,16.06593462637537,-16.89005306666174C4.344923719567575,-22.122588590237594,-16.398372857744967,-12.854036955577845,-20.586307981016578,-1.44366597364034C-24.77424310428819,9.966705008297165,-12.40681677351887,23.518895337512426,-6.837291337543416,29.61626326429562C-1.2677659015679619,35.713631191078804,-2.496141360386374,34.356176715429925,4.225023047514918,25.31251133180512C10.946187455416212,16.268845948180317,25.616891730037207,-0.46103034342041305,25.773726511247983,-7.988571685921852C25.93056129245876,-15.516113028423291,11.573526580259315,-13.841319421825439,2.150274285623133,-6.839775789614188C-7.272978009013048,0.16176784259706345,-11.762447886085967,12.490061500421715,-16.28344378338783,14.202451124658815C-20.804439680689693,15.914840748895914,-25.3569615982205,7.011326339545462,-25.743022172351434,2.0023161534391556C-26.129082746482368,-3.0066940326671507,-22.348681977213424,-4.12119999552931,-15.363453464461504,-6.3649456912767235C-8.378224951709589,-8.608691387024137,1.8118313045253007,-11.981676815656805,2.056255074475228,-11.434290165268541C2.300678844425155,-10.886903514880276,-7.40052987190988,-6.419144785471081,-13.057114818371245,-2.6922573945219694C-18.71369976483261,1.0346299964271415,-20.32566094142031,4.020646048916168,-14.425482817974855,4.2388382226356685C-8.525304694529401,4.457030396355168,4.8870127289492045,1.9073986913051404,6.314994842407502,-0.15124085888597982C7.742976955865799,-2.2098804090771,-2.813376240696213,-3.7775278044093126,-3.2584336500143767,-2.052800137869679C-3.7034910593325403,-0.3280724713300458,5.962747318593144,4.689030257081434,8.124191270002468,8.553007799503707C10.285635221411791,12.41698534192598,4.942284746304756,15.127837698359045,3.452758126251266,12.023378182378195C1.963231506197777,8.918918666397346,4.327528741197836,-0.0008527219974219236,12.665507381171954,-7.231040943018264C21.003486021146074,-14.461229164039105,35.31514606609426,-20.00183421768602,38.10292510209432,-16.1674107188612C40.89070413809438,-12.33298722003637,32.15460216514633,0.876464831260197,27.187048206545374,5.097079864302758C22.219494247944418,9.31769489734532,21.020488303690563,4.549472912133876,21.97821569286573,1.7344826036843544C22.935943082040907,-1.0805077047651672,26.050403804645107,-1.9422663364527655,20.945057407348898,-4.163445945257491C15.839711010052692,-6.384625554062217,2.514557492856074,-9.965226139984072,-6.770984303596283,-3.10097237198946C-16.05652610004864,3.7632813960051497,-21.302456175756735,21.072389517916225,-19.827946551372392,18.934817365932687C-18.353436926988046,16.797245213949154,-10.15848760251126,-4.787007211928991,-1.4867395943278536,-10.479958817856243C7.185008413855552,-16.172910423783495,16.333555105745578,-5.974561209759855,15.058785075858728,-1.5209627381551718C13.784015045971877,2.9326357334495117,2.0859282943081503,1.6414834626352386,1.9349143562384752,9.568048933142855C1.7839004181688,17.494614403650473,13.179959293693177,34.638897615479976,6.4734251862545875,41.16132415064841C-0.23310892118400162,47.68375068581684,-25.04223601158556,43.5843205443242,-28.092914395396928,31.12976138407327C-31.1435927792083,18.675202223822343,-12.435822456429488,-2.1344859551868662,-4.691671042573533,-2.7822202107966145C3.0524803712824222,-3.429954466406361,-0.16698712378448244,16.084265201383353,0.5051869263291597,22.992317722366394C1.177360976442802,29.900370243349435,5.741176571736991,24.2022556175258,6.956145593583464,17.0303715249428C8.17111461542994,9.858487432359805,6.037237063828698,1.212833873017443,5.524002346491518,-0.03823207389030947C5.010767629154339,-1.289298020798062,6.118175746081221,4.854223644728795,6.671879804544663,7.925984477492223L7.2255838630081035,10.997745310255652" style="filter: url(#ghzsu); stroke: rgb(93, 164, 147);"></path></g></svg>