<svg viewBox="0 0 300 300" preserveAspectRatio="xMidYMid" width="300" height="300"><filter id="esjom" width="300" height="500" x="-50%" y="-50%"><feFlood flood-color="#d68a59" result="element"></feFlood><feTurbulence baseFrequency="0.02" type="fractalNoise" numOctaves="8" seed="8" result="element_1"></feTurbulence><feGaussianBlur stdDeviation="5" in="SourceAlpha" result="element_2"></feGaussianBlur><feDisplacementMap scale="100" in="element_2" in2="element_1" result="element_3"></feDisplacementMap><feComposite operator="in" in="element" in2="element_3" result="element_4"></feComposite><feMerge><feMergeNode in="element_4"></feMergeNode></feMerge></filter><g transform="translate(150,150) scale(1.5)"><path d="M0,0L9.035814446198476,0.48668067236666146C18.07162889239695,0.9733613447333229,36.1432577847939,1.9467226894666458,31.097338714877715,10.960288470505358C26.05141964496153,19.97385425154407,-2.1120473872677934,37.02762446888816,-14.785809329206119,44.68181607899216C-27.459571271144444,52.336007689096164,-24.643628122791775,50.59062069196006,-21.38381843179362,35.21276082518385C-18.124008740795468,19.834900958407648,-14.420332507151834,-9.175431778008665,-17.031303739452696,-17.3422381057775C-19.642274971753558,-25.509044433546336,-28.567893669998917,-12.832324352667696,-29.10645254395847,-7.812533491808274C-29.64501141791802,-2.792742630948851,-21.796510467591773,-5.4298809901086456,-16.00409354095074,-5.900526805505328C-10.211676614309708,-6.371172620902011,-6.475343711353891,-4.6753258925355805,1.4755174736266499,2.4923532460263704C9.42637865860719,9.660032384588321,21.591768125612457,22.299543933345795,23.910855630028085,30.37231545489871C26.229943134443715,38.445086976451634,18.702728676269707,41.9511184708,14.894455316959284,40.71732850407484C11.086181957648861,39.483538537349695,10.996849697202023,33.509927109551036,12.931791510086924,25.223874989944235C14.866733322971827,16.937822870337428,18.825949209188472,6.339330058922482,23.25115607244113,8.988480360597363C27.676362935693795,11.637630662272244,32.56756077598247,27.53442407703695,30.30851064758547,37.923812549011004C28.049460519188468,48.31320102098506,18.64016242210578,53.19518455016846,13.483157674516521,43.468129118653856C8.326152926927257,33.74107368713925,7.42144152883142,9.40497929492663,-1.4573998073292493,-2.54642317663754C-10.33624114348992,-14.49782564820171,-27.18921241771542,-14.064536199117429,-32.13452844431647,-14.329313178597744C-37.07984447091752,-14.594090158078057,-30.117505249894126,-15.556933566122966,-24.19322425908185,-14.704388583709566C-18.268943268269567,-13.851843601296167,-13.382720507668408,-11.183910228424459,-6.232128947933762,-9.128557848143805C0.9184626118008836,-7.073205467863151,10.333422970669016,-5.63043408017355,8.615317036527102,-4.283511797580859C6.897211102385187,-2.936589514988169,-5.9539611247667725,-1.6855163374923887,-9.051201864624701,-4.825528854193758C-12.148442604482629,-7.965541370895126,-5.491751857046526,-15.496639581793643,-9.351803544944392,-18.121711756348862C-13.21185523284226,-20.746783930904076,-27.588649356074093,-18.465830069115995,-26.485606890793726,-20.553886520583145C-25.38256442551336,-22.641942972050295,-8.799685371720788,-29.099009736772683,-0.6223837843112987,-27.260690181019672C7.554917803098189,-25.42237062526666,7.326641924124594,-15.288664749038245,2.1150552791848174,-4.1797122079945765C-3.0965313657549594,6.929240333049092,-13.291428776660918,19.013439538908017,-10.64744962166683,13.989073591041263C-8.003470466672741,8.96470764317451,7.4793852542213966,-13.168223458417923,17.94585381150153,-20.422292869245627C28.41232236878166,-27.676362280073334,33.862403762447784,-20.051570000136316,33.23942256761135,-19.358539975394788C32.616441372774915,-18.665509950653263,25.92039758943593,-24.904242181107232,19.415982313476952,-17.381359063886006C12.91156703751797,-9.858475946664777,6.598780268938999,11.42602251823165,11.032501997062099,17.73096780128543C15.4662237251852,24.03591308433921,30.646453950010372,15.361305185550343,26.85683666120376,17.48726391831587C23.067219372397147,19.613222651081387,0.3077545699587496,32.5397480154013,-5.393602733088633,30.996275019282475C-11.094960036136015,29.45280202316365,0.26179016020761825,13.439330666606088,7.946924471344288,12.084571707535154C15.632058782480957,10.729812748464223,19.645577208410664,24.03376618687992,18.64570440136519,32.487682319092C17.645831594319716,40.94159845130409,11.632567554299058,44.54547727731255,3.1934007670010276,39.33805617855987C-5.245766020297004,34.13063507980717,-16.11083555487241,20.111914056293323,-16.37860978732081,12.732009974761276C-16.646384019769208,5.352105893229229,-6.316862950090601,4.611018753678982,-1.1521024152512973,4.240475183903859L4.012658119588007,3.8699316141287357" style="filter: url(#esjom); stroke: rgb(214, 138, 89);"></path></g></svg>