<svg viewBox="0 0 300 300" preserveAspectRatio="xMidYMid" width="300" height="300"><filter id="xeuby" width="300" height="500" x="-50%" y="-50%"><feFlood flood-color="#ff5050" result="element"></feFlood><feTurbulence baseFrequency="0.02" type="fractalNoise" numOctaves="8" seed="7" result="element_1"></feTurbulence><feGaussianBlur stdDeviation="5" in="SourceAlpha" result="element_2"></feGaussianBlur><feDisplacementMap scale="100" in="element_2" in2="element_1" result="element_3"></feDisplacementMap><feComposite operator="in" in="element" in2="element_3" result="element_4"></feComposite><feMerge><feMergeNode in="element_4"></feMergeNode></feMerge></filter><g transform="translate(150,150) scale(1.5)"><path d="M0,0L2.042781042396549,-0.5826399598014805C4.085562084793098,-1.165279919602961,8.171124169586196,-2.330559839205922,11.23192802507236,-6.89807657486776C14.292731880558526,-11.465593310529597,16.328777506737758,-19.435346862250313,6.484512326453064,-20.0414595129564C-3.359752853831626,-20.64757216366249,-25.08432884058024,-13.890043913353955,-24.674889620168823,-11.454045535839544C-24.265450399757405,-9.018047158325137,-1.7219959721859581,-10.903578653604855,15.838117876833309,-8.183434142576894C33.398231725852575,-5.463289631548934,45.97500499631966,1.8625308857867067,47.94260519797624,3.1154743859015204C49.910205399632815,4.368417886016334,41.26863253247889,-0.4515156310896784,35.69546161315856,0.27938258933390947C30.122290693838224,1.0102808097574973,27.61752172235149,7.292010767710686,24.41689845814201,6.945888348084273C21.216275193932532,6.599765928457862,17.319797637000313,-0.3742088687481493,11.521350717666309,-2.7706166317401544C5.7229037983323074,-5.1670243947321595,-1.9775124834034745,-2.985865123510158,-9.8878528159477,-1.4984359309335318C-17.798193148491922,-0.01100673835690591,-25.918457531844588,0.7826923755743446,-27.200325406706394,0.8412262405812786C-28.4821932815682,0.8997601055882127,-22.925664647939147,0.2231287216708303,-13.40265563312068,0.3104131949551644C-3.879646618302216,0.3976976682394985,9.609842777705662,1.248897998725549,11.32101015124707,8.17367131832303C13.032177524788477,15.098444637920512,2.9650228758634123,28.096790946629422,4.670816346062822,34.9190679666362C6.376609816262232,41.74134498664297,19.855351405586116,42.38755271794761,22.081505278182046,32.25358294979075C24.307659150777972,22.119613181633888,15.281225306645949,1.2054659140155337,11.625670670183757,-7.978267200429589C7.970116033721568,-17.16200031487471,9.685440604929212,-14.615319276146604,4.6588052942123985,-12.11976926855122C-0.3678300165044135,-9.624219260955837,-12.136425209145685,-7.179800284493175,-12.217421820544198,-5.138850766031452C-12.29841843194271,-3.09790124756973,-0.691816462098469,-1.4604211871089454,2.341295030347167,0.7223014331558716C5.374406522792803,2.905024053420689,-0.16597246216016792,5.632989233489539,0.7086640804467543,11.879448200154556C1.5833006230536766,18.125907166819573,8.872952693220492,27.89085992008076,9.053065461558631,29.27550514564615C9.23317822989677,30.660150371211536,2.3037516964062354,23.664488069081127,-8.903641123696174,18.73951018058315C-20.111033943798585,13.814532292085168,-35.596393050512866,10.960238817219619,-37.77704958054905,6.170940925023936C-39.95770611058523,1.3816430328282543,-28.8336600639433,-5.342659276697562,-23.515129584108983,-6.165643216434899C-18.19659910427466,-6.988627156172235,-18.68358419124795,-1.9102927261210914,-23.62602296866353,5.107435474600309C-28.568461746079112,12.125163675321708,-37.96635421393699,21.082285646713366,-30.24444913425041,24.113898484154983C-22.522544054563827,27.1455113215966,2.3191585726672095,24.251615025088178,5.761457546787399,18.624542831462C9.20375652090759,12.997470637835827,-8.753348158083067,4.637222547091898,-6.054449626519091,6.6950530715415315C-3.355551094955114,8.752883595991165,19.999350647163496,21.228792735634357,19.245980945530448,26.126599747961947C18.4926112438974,31.02440676028954,-6.369029901487309,28.344111645301528,-16.311739123337333,19.46699572438351C-26.254448345187356,10.58987980346549,-21.278225643502694,-4.484056923382537,-9.944952426368754,-11.350087116718205C1.3883207907651833,-18.216117310053875,19.078644523348395,-16.87424096987718,18.139496188211037,-8.274698119587372C17.200347853073673,0.3248447307024378,-2.36827254978426,16.182054091105368,-8.622066515795025,16.89471456849789C-14.875860481805786,17.607375045890404,-7.814828010969378,3.1754866402725126,2.3083670243439824,4.583048020338084C12.431562059657342,5.990609400403655,25.616919659447653,23.23762056615269,28.794943269634864,28.52722314076851C31.972966879822067,33.816825715384326,25.143656500406166,27.14901969886693,21.729001310698216,23.81511669060823L18.31434612099027,20.481213682349534" style="filter: url(#xeuby); stroke: rgb(255, 80, 80);"></path></g></svg>