<svg viewBox="0 0 300 300" preserveAspectRatio="xMidYMid" width="300" height="300"><filter id="loeif" width="300" height="500" x="-50%" y="-50%"><feFlood flood-color="#7851a9" result="element"></feFlood><feTurbulence baseFrequency="0.02" type="fractalNoise" numOctaves="8" seed="36" result="element_1"></feTurbulence><feGaussianBlur stdDeviation="4" in="SourceAlpha" result="element_2"></feGaussianBlur><feDisplacementMap scale="100" in="element_2" in2="element_1" result="element_3"></feDisplacementMap><feComposite operator="in" in="element" in2="element_3" result="element_4"></feComposite><feMerge><feMergeNode in="element_4"></feMergeNode></feMerge></filter><g transform="translate(150,150) scale(1.5)"><path d="M0,0L3.4803226118873725,4.3215632724547905C6.960645223774745,8.643126544909581,13.92129044754949,17.286253089819162,19.150837389834997,23.84574184200941C24.3803843321205,30.40523059419966,27.878832992916767,34.88108155367058,21.87205018815366,36.79227649196276C15.86526738339055,38.703471430254936,0.3532531130680674,38.05001034736838,-4.37338602119463,31.66846720602675C-9.100025155457327,25.28692406468512,-3.0412891536602387,13.177298864888424,-5.202767974471632,10.754897819074305C-7.364246795283027,8.332496773260187,-17.745940438702902,15.597319881428648,-19.275798192505196,5.710499905338713C-20.805655946307493,-4.176320070751222,-13.483677810492205,-31.214783131099555,-10.176562559330605,-39.10549428947408C-6.869447308169007,-46.99620544784862,-7.577194941661095,-35.73916470424935,-2.7992407225615734,-28.782339103785045C1.9787134965379494,-21.825513503320742,12.242369568229083,-19.168903045991406,6.431425408005628,-17.49939339766241C0.6204812477821733,-15.82988374933341,-21.26506314435587,-15.14747491000475,-32.54330153074652,-7.2944346221573255C-43.82153991713717,0.5586056656900986,-44.492472297780424,15.582277402056286,-37.98475102499438,14.746641452661043C-31.477029752208328,13.911005503265802,-17.79065482599297,-2.7839381318908725,-10.664344882935788,0.7543255167180849C-3.5380349398786084,4.292589165327042,-2.9717899799796035,28.06406009770163,-1.169186061243701,35.71581169911581C0.6334178574922014,43.367563300529994,3.6723807350650017,34.89959557098377,6.994310771857641,34.11972492961597C10.316240808650281,33.33985428824816,13.921138004662758,40.24808073505878,9.966303624495339,36.001670605618045C6.011469244327917,31.755260476177316,-5.503096712019404,16.354213770485238,-13.330357605908425,7.803019690405526C-21.157618499797444,-0.7481743896741876,-25.297574331228166,-2.449515844141534,-14.331625309992756,-2.159150918424719C-3.365676288757342,-1.868785992707904,22.706177585144204,0.41328531319307205,26.911513219302076,-0.717169768509067C31.116848853459945,-1.847624850211206,13.455666247874143,-6.39060631951646,4.269081292986993,-7.051955260129491C-4.917503661900158,-7.713304200742521,-5.629490966088654,-4.493020612663328,-1.2746978918213787,-3.5180834262972054C3.0800951824458975,-2.543146239931083,12.501668635168947,-3.8135554552780326,22.158388802726265,-5.407849591829657C31.815108970283582,-7.002143728381281,41.706975852675164,-8.92032278613758,31.48114115692307,-11.080842525490258C21.255306461170974,-13.241362264842934,-9.088229812724805,-15.644222685791986,-16.137507321762143,-12.539436996972977C-23.186784830799485,-9.434651308153969,-6.941803574978387,-0.8222195095668967,-1.8751386262432983,5.475544775369014C3.1915263224917902,11.773309060304925,-2.9201250358591304,15.756405831589673,-6.7705114347508095,11.894564088481651C-10.620897833642488,8.03272234537363,-12.210019273074924,-3.6740579121271626,-7.802732358682228,-6.985818732015907C-3.395445444289531,-10.29757955190465,7.008249823928299,-5.2143209341813455,9.189703354420992,-1.1582144529398863C11.371156884913685,2.8978920283015728,5.330368677681239,5.926846373061186,-0.2155813209413706,6.675624525892928C-5.76153131956398,7.424402678724671,-10.812643109576754,5.893004639628542,-7.269040633441242,11.711318564846154C-3.725438157305728,17.52963249006377,8.412878584978074,30.69765837959512,11.95793980602526,29.54060333923955C15.503001027072447,28.38354829888398,10.454806726883017,12.901412328641484,6.059472481770767,10.466744905746696C1.6641382366585156,8.032077482851907,-2.078335953376558,18.64487860730483,-2.9561485792674516,19.17919434431965C-3.8339612051583445,19.713510081334473,-1.8471122669050566,10.1693404309112,-9.224514032344981,12.378556061034164C-16.601915797784905,14.587771691157128,-33.34356826691804,28.55037260182633,-32.80912300448467,25.822312910868643C-32.274677742051296,23.094253219910954,-14.464134748051421,3.6755329273263726,-2.385207161634315,-9.539887907483996C9.69372042478279,-22.755308742294364,16.041032603617122,-29.76743011933052,19.21468869303429,-33.2734908078486L22.388344782451455,-36.77955149636668" style="filter: url(#loeif); stroke: rgb(120, 81, 169);"></path></g></svg>