<svg viewBox="0 0 300 300" preserveAspectRatio="xMidYMid" width="300" height="300"><filter id="nzipa" width="300" height="500" x="-50%" y="-50%"><feFlood flood-color="#da2c43" result="element"></feFlood><feTurbulence baseFrequency="0.02" type="fractalNoise" numOctaves="8" seed="48" result="element_1"></feTurbulence><feGaussianBlur stdDeviation="5" in="SourceAlpha" result="element_2"></feGaussianBlur><feDisplacementMap scale="100" in="element_2" in2="element_1" result="element_3"></feDisplacementMap><feComposite operator="in" in="element" in2="element_3" result="element_4"></feComposite><feMerge><feMergeNode in="element_4"></feMergeNode></feMerge></filter><g transform="translate(150,150) scale(1.5)"><path d="M0,0L6.557643231063354,3.8650115272678023C13.115286462126708,7.730023054535605,26.230572924253416,15.46004610907121,26.390001451982858,15.350864716010046C26.5494299797123,15.241683322948882,13.75300057304448,7.29329748229095,7.6619175914730535,12.18887876242784C1.5708346099016266,17.08446004256473,2.1850980534265942,34.82400844349644,9.73594187324893,37.853405220292565C17.286785693071263,40.88280199708869,31.774209889190963,29.202047149749227,31.86701357802683,18.82235982252393C31.959817266862697,8.442672495298629,17.65800044841473,-0.6359473118125081,10.051427528803025,2.0794940735387364C2.44485460919132,4.794935458889981,1.533525588415877,19.30443803670361,3.389765559559388,17.735120924993815C5.246005530702899,16.165803813284022,9.869814493765363,-1.482332987949185,12.625437169674345,-6.4636843598758995C15.381059845583332,-11.445035731802614,16.268496234338837,-3.7596016744228336,16.25055504595214,5.8446330575773064C16.23261385756544,15.448867789577445,15.30929509203654,26.971903196197946,10.092780721340626,32.20375439990496C4.876266350644713,37.435605603611975,-4.633443625218215,36.376272604405514,-13.024006368817844,23.353732546481613C-21.41456911241747,10.331192488557713,-28.6859846237538,-14.654554628083618,-29.2441791425581,-17.85922379977337C-29.80237366136239,-21.063892971463122,-23.647347187634658,-2.4874841982012956,-14.160504492212066,1.665867952513457C-4.6736617967894745,5.81922010322821,8.144997120327972,-4.450484368604112,9.244080530958541,0.8925562678320738C10.343163941589113,6.2355969042682595,-0.27732815426718993,27.191382648972954,-3.7808516082400447,34.02676792075793C-7.2843750622128995,40.86215319254291,-3.6709298743023058,33.57713799140818,3.4320583807609455,34.52089307593982C10.535046635824196,35.46464816047145,21.127577958040106,44.63717353066944,27.13642112701949,41.07111855664465C33.14526429599887,37.505063582619854,34.57041931174173,21.200428264372263,27.1939438759416,13.12880446124467C19.817468440141468,5.0571806581170735,3.6393625527983495,5.218568370109471,-5.969223426347527,6.6861653244512675C-15.577809405493403,8.153762278793064,-18.61687547644204,10.927568475484257,-24.100465358943545,15.569049020825355C-29.584055241445057,20.210529566166453,-37.51216893549944,26.719684460157456,-35.24236218675815,25.49799952932299C-32.97255543801686,24.27631459848852,-20.504828246479896,15.323789842828575,-18.20975400268395,11.895489151010828C-15.914679758888012,8.467188459193084,-23.792258462833093,10.563111831217535,-19.223020309557153,3.2589008938726405C-14.653782156281212,-4.045310043472256,2.362272854215753,-20.749655290186496,-1.1955511780631962,-31.642424556869756C-4.753375210342146,-42.535193823553016,-28.885078285397007,-47.61638711020528,-27.326465316018925,-42.7054465629061C-25.767852346640833,-37.794506015606906,1.481076667170207,-22.89143163435626,2.518712624776902,-8.02069112042551C3.556348582383597,6.850049393505236,-21.617308516214052,21.68845604011608,-24.560498680974163,21.364789725511155C-27.503688845734274,21.04112341090623,-8.216412076656846,5.555384135085543,-2.5225373419601556,-0.19079811303332422C3.171337392736535,-5.936980361152191,-4.728189906947511,-1.943605581569236,-4.233654411133041,-6.241009142770115C-3.7391189153185707,-10.538412703970993,5.149479375994416,-23.126594605955706,8.148858715570931,-23.333730810050245C11.148238055147447,-23.54086701414478,8.25839844298749,-11.366957520349144,9.314242941000483,-8.846103277174745C10.370087439013476,-6.325249034000346,15.371616047199419,-13.457450041447187,19.8598965418374,-7.115251257192531C24.348177036475384,-0.7730524729378772,28.32320941756541,19.043546103018272,31.01064295331287,20.528245223022115C33.698076489060334,22.01294434302596,35.09791117946524,5.165744007077498,35.334172390108876,-1.0383989577034431C35.57043360075251,-7.242541922484384,34.64312133163487,-2.8036275160978037,25.244268513669578,-4.546929512051026C15.845415695704279,-6.290231508004249,-2.024977671108685,-14.215749906297273,-10.960174354515168,-18.178509105443787L-19.89537103792165,-22.141268304590298" style="filter: url(#nzipa); stroke: rgb(218, 44, 67);"></path></g></svg>