<svg viewBox="0 0 300 300" preserveAspectRatio="xMidYMid" width="300" height="300"><filter id="hlncy" width="300" height="500" x="-50%" y="-50%"><feFlood flood-color="#f1444a" result="element"></feFlood><feTurbulence baseFrequency="0.02" type="fractalNoise" numOctaves="8" seed="28" result="element_1"></feTurbulence><feGaussianBlur stdDeviation="5" in="SourceAlpha" result="element_2"></feGaussianBlur><feDisplacementMap scale="100" in="element_2" in2="element_1" result="element_3"></feDisplacementMap><feComposite operator="in" in="element" in2="element_3" result="element_4"></feComposite><feMerge><feMergeNode in="element_4"></feMergeNode></feMerge></filter><g transform="translate(150,150) scale(1.5)"><path d="M0,0L3.5033026995903187,-1.7586882820050767C7.006605399180637,-3.5173765640101533,14.013210798361275,-7.034753128020307,14.798966086679831,-2.4646531930198137C15.584721374998388,2.1054467419806793,10.149626552454862,14.763023175991819,2.8540921343053816,22.61904194264554C-4.4414422838441,30.47506070929927,-13.597416297599537,33.52952180859558,-10.66774891167054,24.85718206990906C-7.73808152574154,16.18484233122254,7.277227259871895,-4.214298245446807,4.362688576163701,-15.538178699841762C1.4481498924555058,-26.862059154236714,-19.39623626057432,-29.11067948635727,-30.499813355324626,-21.25290651314161C-41.60339045007493,-13.395133539925949,-42.96615848654572,4.569032738625932,-36.56179942692852,9.836153989588132C-30.15744036731132,15.103275240550332,-15.985954211606124,7.673351463922851,-12.757494991029468,4.905105724593564C-9.529035770452811,2.1368599852642776,-17.243603485004694,4.030292283233186,-17.161423069370958,2.064117398901365C-17.07924265373722,0.09794251456954362,-9.200314107917867,-5.727839552063007,-0.5841847745358635,-6.926821873646017C8.03194455884614,-8.125804195229028,17.385274679790793,-4.697986771762498,18.683055900969883,-0.5982547849016555C19.980837122148973,3.501477201959187,13.223069443562503,8.273123752214342,15.97394987980638,6.2621585690029695C18.72483031605026,4.251193385791597,30.98435886712448,-4.542383530886305,29.019443938479583,-0.39991978794617467C27.054529009834678,3.7425439549939554,10.865170601470648,20.821048357552115,3.6123314673612086,21.575899073630097C-3.640507666748231,22.330749789708083,-1.9568275266030812,6.761946819305886,-7.494138644593955,-8.654772283435964C-13.031449762584828,-24.07149138617781,-25.789752138711723,-39.33612662125932,-25.203156683202558,-43.324593232843334C-24.6165612276934,-47.31305984442735,-10.68506794054818,-40.02535783251389,-3.9052371356986035,-28.361740563716438C2.874593669150972,-16.698123294918993,2.502761991704903,-0.658590769237561,3.7574216567524985,0.44179699112901183C5.012081321800094,1.5421847514955846,7.893232329341354,-12.2965722534527,8.047984649745239,-12.27422353465925C8.202736970149122,-12.2518748158658,5.631090603415629,1.6315796266693834,3.1434016004095713,9.292317940912879C0.6557125974035134,16.953056255156373,-1.7480190418751094,18.391078441108178,0.2800224751859326,9.842243831673631C2.3080639922469746,1.2934092222390827,8.76787866564768,-17.24228218258182,11.754601345522072,-14.138004075221385C14.74132402539646,-11.033725967860953,14.254954711744533,13.710521651680818,13.951077845476895,20.49767194092112C13.647200979209254,27.284822230161417,13.525816560325902,16.114875189100243,12.165367319955005,6.347355010556343C10.804918079584104,-3.420165167987557,8.205404017725657,-11.785258484014184,6.879703754090261,-16.39822339294278C5.554003490454862,-21.01118830187137,5.502117025042513,-21.872024803701933,7.121462372289573,-20.479779723306102C8.740807719536633,-19.087534642910263,12.031384879443102,-15.442207980288034,9.437814010444109,-15.771437000398299C6.844243141445119,-16.100666020508562,-1.6334757564593332,-20.404450723351324,-4.290985000042782,-19.907635498291686C-6.948494243626232,-19.41082027323205,-3.7857938328886784,-14.113405120270016,-1.0174370125927013,-2.153921016943748C1.7509198077032764,9.805563086382524,4.124933037557677,28.42711614007303,-2.3815150031914323,30.06405181626111C-8.887963043940543,31.700987492449187,-24.274872355293166,16.353305791134837,-30.191624625021177,-0.5153664644219162C-36.1083768947492,-17.38403871997867,-32.554972122852604,-35.773701529777824,-30.688140606186487,-35.9887984026243C-28.821309089520366,-36.20389527547077,-28.64105082808472,-18.24442621136456,-19.496470085184626,-5.737088990093972C-10.35188934228453,6.770248231176614,7.757013882080013,13.825453609611577,13.60739409867419,5.152366762248247C19.457774315268367,-3.5207200851150837,13.049631524092174,-27.92209915827671,14.021833314534405,-23.316693995060348C14.99403510497664,-18.711288831843987,23.346581477037294,14.900900567750355,27.52285466306762,31.706995267547526L31.69912784909795,48.5130899673447" style="filter: url(#hlncy); stroke: rgb(241, 68, 74);"></path></g></svg>