<svg viewBox="0 0 300 300" preserveAspectRatio="xMidYMid" width="300" height="300"><filter id="knbgt" width="300" height="500" x="-50%" y="-50%"><feFlood flood-color="#a5694f" result="element"></feFlood><feTurbulence baseFrequency="0.02" type="fractalNoise" numOctaves="8" seed="76" result="element_1"></feTurbulence><feGaussianBlur stdDeviation="5" in="SourceAlpha" result="element_2"></feGaussianBlur><feDisplacementMap scale="100" in="element_2" in2="element_1" result="element_3"></feDisplacementMap><feComposite operator="in" in="element" in2="element_3" result="element_4"></feComposite><feMerge><feMergeNode in="element_4"></feMergeNode></feMerge></filter><g transform="translate(150,150) scale(1.5)"><path d="M0,0L4.860274851073919,3.3370002236816925C9.720549702147839,6.674000447363385,19.441099404295677,13.34800089472677,19.072077751178085,4.791221127309683C18.70305609806049,-3.765558640107404,8.244463089677467,-27.553118622304964,-1.1456763067137916,-30.734468843183173C-10.53581570310505,-33.91581906406138,-18.857501487504543,-16.490959523620237,-20.032133298873962,-10.800708913642115C-21.20676511024338,-5.110458303663993,-15.234342948582734,-11.154816624148893,-15.35192083955613,-11.31762028241947C-15.469498730529528,-11.48042394069005,-21.67707667413697,-5.761672936746308,-19.15391450560695,-1.0167953237459504C-16.630752337076924,3.728082289254407,-5.37685005640943,7.49908651131138,-0.9681234244222653,8.970299477851144C3.4406032075649,10.44151244439091,1.0041541908717369,9.612934155413464,-6.373867515543937,5.428597074879069C-13.75188922195961,1.2442599943446737,-26.071483618097794,-6.295835877746673,-23.51629649221805,-3.771870699486832C-20.961109366338306,-1.2479055212269916,-3.5311407184406285,11.340120707384036,6.0511377870385985,13.348984999131877C15.633416292517825,15.35784929087972,17.368004655578606,6.787551645764378,14.227932764131547,1.2488213213597459C11.087860872684486,-4.289909003044886,3.0731287267295864,-6.797072006738806,0.010639953396088087,-3.7396359422613985C-3.05184881993741,-0.6821998777839902,-1.1620942206495075,7.939835254864746,-4.367143776085678,13.667740696892489C-7.572193331521849,19.39564613892023,-15.872047041682093,22.229421890326982,-20.0484359953671,13.864372449341055C-24.224824949052103,5.499323008355127,-24.27774914626187,-14.064551625023476,-18.001417390631765,-19.040824050847185C-11.72508563500166,-24.01709647667089,0.880502073468314,-14.4057666949397,5.993114297640856,-10.205643504465602C11.105726521813398,-6.0055203139915045,8.72536326168851,-7.216603714774498,9.223733850584681,2.1950530498048977C9.722104439480852,11.606709814384294,13.099208877398084,31.64110674432608,12.694217976281047,40.73751008633862C12.28922707516401,49.83391342835115,8.102140835012705,47.99232318243443,2.35555263477875,45.01867409840221C-3.391035565455206,42.04502501436997,-10.697125725771812,37.939317092222225,-4.887057354108987,31.26769847418765C0.9230110175538382,24.596079856153075,19.849237921196092,15.358550542231672,24.585216179442828,13.238337687831873C29.32119443768956,11.118124833432072,19.86692405054077,16.115228438553874,6.824096716223013,12.348126082535341C-6.218730618094746,8.58102372651681,-22.850114899581474,-3.9502845906420596,-27.04383687716832,-15.97482079349966C-31.237558854755164,-27.99935699635726,-22.993618528442134,-39.51712108491359,-21.492475278619988,-38.63047568383095C-19.99133202879785,-37.743830282748306,-25.232985855466595,-24.452775392026687,-13.579332237553334,-13.43776138719938C-1.9256786196400704,-2.4227473823720693,26.623282442855206,6.316225736560933,32.14399247984372,0.5818350830939156C37.66470251683223,-5.152555570373103,20.157161528313978,-25.36030999624014,12.112390602948473,-32.54097148077758C4.0676196775829645,-39.72163296531501,5.485618815370201,-33.87520150852284,10.498998803970386,-26.37311850790066C15.512378792570571,-18.871035507278478,24.121139631983706,-9.713300962826283,22.86174724102623,0.6284655203400371C21.60235485006876,10.970232003506355,10.474809228740682,22.4960304253868,10.526717922253358,21.462470086361368C10.578626615766034,20.428909747335933,21.809989624119464,6.835990647404626,24.06458771691957,-5.511895071866563C26.319185809719677,-17.85978079113775,19.597018986966457,-28.962633129748824,13.436115491866799,-26.339412928371264C7.275211996767141,-23.716192726993704,1.675571829321043,-7.366899985627514,0.4838254690763175,4.961005468994662C-0.7079208911684081,17.28891092361684,2.508226555788239,25.595429091495,-4.029435389401467,25.81751256738093C-10.567097334591175,26.039596043266865,-26.858568671927234,18.177244827160564,-25.766178218565614,13.862977651408443C-24.673787765203997,9.548710475656318,-6.197535521144697,8.782527340258367,3.0405906008849515,8.399435772559393L12.278716722914602,8.016344204860419" style="filter: url(#knbgt); stroke: rgb(165, 105, 79);"></path></g></svg>