<svg viewBox="0 0 300 300" preserveAspectRatio="xMidYMid" width="300" height="300"><filter id="ojlfd" width="300" height="500" x="-50%" y="-50%"><feFlood flood-color="#778ba5" result="element"></feFlood><feTurbulence baseFrequency="0.02" type="fractalNoise" numOctaves="8" seed="66" result="element_1"></feTurbulence><feGaussianBlur stdDeviation="5" in="SourceAlpha" result="element_2"></feGaussianBlur><feDisplacementMap scale="100" in="element_2" in2="element_1" result="element_3"></feDisplacementMap><feComposite operator="in" in="element" in2="element_3" result="element_4"></feComposite><feMerge><feMergeNode in="element_4"></feMergeNode></feMerge></filter><g transform="translate(150,150) scale(1.5)"><path d="M0,0L1.9545642938683847,-0.12206244975921283C3.9091285877367694,-0.24412489951842567,7.818257175473539,-0.48824979903685134,6.859224192872223,-1.1170208919831697C5.900191210270908,-1.745791984929488,0.07299665733150684,-2.7592092713036993,-5.225535864482607,-2.644490063913813C-10.52406838629672,-2.5297708565239274,-15.293938876985546,-1.2869151553699443,-11.883908221198386,-3.385371910299633C-8.473877565411222,-5.483828665229322,3.1160542368519293,-10.923597876242683,12.831532904996365,-12.750791962398054C22.5470115731408,-14.577986048553427,30.388037107166518,-12.79260500985081,31.23387189538549,-2.870568452910142C32.07970668360446,7.051468104030526,25.93035072601669,25.110160179209245,24.49621404643584,26.099073782333697C23.062077366854993,27.08798738545815,26.343159965281068,11.007122516528327,23.023035308793524,6.784055949823255C19.702910652305984,2.5609893831181827,9.781578740904822,10.195721118637858,0.7349081992815387,7.5297329137006255C-8.311762342341742,4.863744708763391,-16.483771514187143,-8.102963436630752,-20.14526027883112,-8.206054473847944C-23.806749043475094,-8.309145511065138,-22.957717400917645,4.451380559894619,-22.738879040558075,5.214955474562082C-22.52004068019851,5.978530389229544,-22.931395602036822,-5.254845852395288,-18.631513528962955,-2.3376588224523367C-14.33163145588909,0.5795282074906147,-5.320512387903039,17.64727850900135,-1.3186010336456557,18.508291323619844C2.683310320611728,19.36930413823834,1.6760139611404454,4.023579465964602,8.410219786869998,1.3449384997780838C15.14442561259955,-1.3337024664084343,29.620133623529938,8.654740273492271,25.40084967582798,11.699504906418671C21.181565728126024,14.744269539345073,-1.7327101782082792,10.845356065297167,-11.890237599756382,9.623810153493768C-22.047765021304485,8.402264241690368,-19.44854395806639,9.858085892131474,-10.6919554128186,16.55757407810664C-1.9353668675708082,23.25706226408181,12.978589159686681,35.20021698559104,14.53157475294252,35.64023281194887C16.08456034619836,36.08024863830669,4.276575505452547,25.017125569513112,-1.2364784335587071,16.159354153520677C-6.749532372569961,7.301582737528248,-5.9676554098466585,0.6491629743369671,-4.645044648839392,1.5701326925481727C-3.3224338878321276,2.491102410759378,-1.4590893285409,10.98546161037307,-0.8322486858851199,17.418336479301377C-0.2054080432293398,23.851211348229686,-0.8150713172090072,28.22260188647261,-3.9913266238066716,22.131656033018615C-7.167581930404336,16.04071017956462,-12.910429269619998,-0.5125720655862995,-18.073786716379075,-3.216193063082541C-23.237144163138154,-5.919814060578783,-27.821011717440648,5.226226189579652,-30.788068059610893,13.237052703274054C-33.75512440178113,21.247879216968457,-35.10536953181912,26.123491994198822,-28.21881209963595,14.813408783675326C-21.332254667452773,3.5033255731518302,-6.208894673048432,-23.99245362512553,-0.43893568187526344,-35.582083750661006C5.331023309297905,-47.17171387619649,1.7475812972399005,-42.85519492899009,0.16559591297305373,-34.98787679639753C-1.416389471293793,-27.120558663804978,-0.996918227769482,-15.70244134582628,0.13444910081993,-2.088525234444406C1.265816429409342,11.525390876937465,3.109079843063855,27.33510578172251,6.589091454224321,27.905177812177616C10.069103065384787,28.47524984263272,15.185862874051207,13.80567899875789,14.590638528620541,6.726060884722802C13.995414183189878,-0.35355722931228445,7.688205683662131,0.15677738649237405,9.83919849719824,3.2922361861753324C11.990191310734348,6.427694985858291,22.599385437334313,12.188277969419548,15.03948605096672,5.962849956611428C7.479586664599125,-0.26257805619669305,-18.24940623473603,-18.47401706537419,-22.351056100667396,-24.06909338117579C-26.452705966598764,-29.664169696977382,-8.927012799126347,-22.642883319403076,-4.506466818110873,-12.699365143242888C-0.085920837095399,-2.755846967082703,-8.770522042536868,10.109903007663359,-14.280621243622278,7.952635281500255C-19.790720444707688,5.795367555337149,-22.126317641437044,-11.384917871735123,-23.29411623980172,-19.975060585271258L-24.4619148381664,-28.565203298807397" style="filter: url(#ojlfd); stroke: rgb(119, 139, 165);"></path></g></svg>