<svg viewBox="0 0 300 300" preserveAspectRatio="xMidYMid" width="300" height="300"><filter id="bxlju" width="300" height="500" x="-50%" y="-50%"><feFlood flood-color="#45cea2" result="element"></feFlood><feTurbulence baseFrequency="0.02" type="fractalNoise" numOctaves="8" seed="10" result="element_1"></feTurbulence><feGaussianBlur stdDeviation="5" in="SourceAlpha" result="element_2"></feGaussianBlur><feDisplacementMap scale="100" in="element_2" in2="element_1" result="element_3"></feDisplacementMap><feComposite operator="in" in="element" in2="element_3" result="element_4"></feComposite><feMerge><feMergeNode in="element_4"></feMergeNode></feMerge></filter><g transform="translate(150,150) scale(1.5)"><path d="M0,0L4.812603414486454,4.49691914183886C9.625206828972908,8.99383828367772,19.250413657945817,17.98767656735544,19.95973129782077,21.508029427706493C20.669048937695727,25.028382288057546,12.462477388472728,23.075249725081935,13.633692641296332,17.00650823149445C14.804907894119935,10.937766737906966,25.35390994899014,0.7534163137076062,31.301861411016535,-4.954728916394211C37.249812873042934,-10.66287414649603,38.59671374222553,-11.894814182500308,36.73546530622378,-6.824112645433909C34.874216870222035,-1.7534111083675104,29.80481912903595,9.619932001769564,31.73511156509726,4.985941033407844C33.66540400115857,0.3519500650461218,42.59538661446727,-20.289374981814397,39.925792656715025,-19.197595147791866C37.25619869896277,-18.105815313769337,22.987028170149564,4.719069401136238,18.009530328467015,13.565418406830744C13.032032486784471,22.41176741252525,17.34620733223259,17.279580709008687,17.724186150468217,13.187046087048634C18.102164968703843,9.09451146508858,14.543947759726976,6.041628924685036,11.71408883092192,6.860004683469469C8.884229902116866,7.678380442253901,6.782729253483623,12.368014500226309,10.02137328710695,10.351572944070462C13.260017320730277,8.335131387914616,21.838806036610173,-0.38738578236948484,15.902800808215506,-5.416261374694236C9.966795579820838,-10.445136967018987,-10.484003592848396,-11.780370981384388,-14.003768377813145,-8.248526897086432C-17.523533162777895,-4.7166828127884735,-4.112263560038162,3.6822393701728426,2.9337487674984395,5.491192051931467C9.979761095035041,7.300144733690091,10.660516147368511,2.519127914246024,12.456690882894426,-2.4453697662235774C14.25286561842034,-7.409867446693178,17.164460037138703,-12.557845988188312,18.281802443781757,-15.278805252928132C19.399144850424815,-17.999764517667952,18.722235244992568,-18.293704505652457,15.382327729323928,-14.598246419388833C12.042420213655285,-10.902788333125208,6.03951478775025,-3.2179321726134575,-2.6777473155741895,-3.6054989360095293C-11.39500941889863,-3.993065699405601,-22.82662819964247,-12.453055386709496,-24.59847096142411,-20.593418165135947C-26.370313723205744,-28.733780943562397,-18.48238046602517,-36.554516813111405,-7.171974592996417,-27.315977931940584C4.138431280032335,-18.07743905076976,18.871309768909263,8.22037458112089,26.94800336904919,10.711123769655405C35.02469696918911,13.201872958189918,36.445205680592025,-8.114442296631703,30.346636385113698,-12.429857405478941C24.248067089635363,-16.745272514326178,10.630419787275782,-4.059787477199032,-0.007540461109698526,2.613351420842716C-10.64550070949518,9.286490318884464,-18.30377390390656,9.947283077840815,-27.179816221190666,4.7625871390797805C-36.05585853847477,-0.42210879968125514,-46.14966997863161,-11.452293436159676,-41.379976524925766,-16.395414452860958C-36.61028307121993,-21.33853546956224,-16.977084723651423,-20.194592866486378,-14.720350944118533,-21.381526691794505C-12.463617164585644,-22.568460517102633,-27.583347953088378,-26.086270770794748,-26.873861235883112,-24.28308511139692C-26.164374518677846,-22.479899451999096,-9.625670295764579,-15.355717879511335,0.7840718578581969,-17.30058661511224C11.193814011480972,-19.245455350713147,15.474594095813258,-30.25937439440272,18.720145374736017,-28.40474188326369C21.96569665365878,-26.550109372124663,24.17601912717202,-11.826925306157026,13.952557963253916,2.1720966140964295C3.7290967993358155,16.171118534349887,-18.92814800201362,29.445978308889163,-25.645317435783454,31.44332868797438C-32.36248686955329,33.44067906705959,-23.139580935743506,24.160520050690735,-9.356935776827054,18.523788967684297C4.425709382089401,12.887057884677853,22.768093766112532,10.893754735033827,23.266346002540924,7.03227967430187C23.764598238969317,3.1708046135699153,6.418718327802971,-2.558842358249968,-0.42947184933073956,-5.243159147909239C-7.27766202646445,-7.92747593756851,-3.6281624695655252,-7.566462545067169,3.1520743863480893,-7.442897377745609C9.932311242261704,-7.31933221042405,19.84328539719001,-7.4332152682822725,24.79877247465416,-7.490156797211384L29.754259552118313,-7.547098326140495" style="filter: url(#bxlju); stroke: rgb(69, 206, 162);"></path></g></svg>