<svg viewBox="0 0 300 300" preserveAspectRatio="xMidYMid" width="300" height="300"><filter id="ghnpw" width="300" height="500" x="-50%" y="-50%"><feFlood flood-color="#299617" result="element"></feFlood><feTurbulence baseFrequency="0.02" type="fractalNoise" numOctaves="8" seed="71" result="element_1"></feTurbulence><feGaussianBlur stdDeviation="4" in="SourceAlpha" result="element_2"></feGaussianBlur><feDisplacementMap scale="100" in="element_2" in2="element_1" result="element_3"></feDisplacementMap><feComposite operator="in" in="element" in2="element_3" result="element_4"></feComposite><feMerge><feMergeNode in="element_4"></feMergeNode></feMerge></filter><g transform="translate(150,150) scale(1.5)"><path d="M0,0L3.561437877927221,-3.45592965281185C7.122875755854442,-6.9118593056237,14.245751511708884,-13.8237186112474,12.39730559464573,-10.092069202863621C10.548859677582575,-6.360419794479841,-0.2709079123981759,8.014738327911418,-6.96625451332578,13.624963623787478C-13.661601114253385,19.23518891966354,-16.232526726127844,16.0804813890244,-10.968223490454278,17.313891483781436C-5.703920254780714,18.547301578538477,7.395611828440873,24.168829298691694,8.869098581860763,12.992025449501178C10.342585335280653,1.815221600310661,0.19002675889884557,-26.159913818223593,-3.2852243601048357,-28.769169180478237C-6.760475479108517,-31.37842454273288,-3.5584191407340717,-8.621799848707916,0.4736314232626002,-1.8463232408386951C4.505681987259273,4.929153367030525,9.367726776878172,-4.276518111255998,7.207348897770582,0.4778425005454707C5.046971018662994,5.232203112346939,-4.135829529171082,23.9465958142364,-5.861933716399894,18.587049333366945C-7.588037903628705,13.227502852497494,-1.8574457302522513,-16.20598281113087,6.643336769850949,-22.065060202453555C15.14411926995415,-27.92413759377624,26.415092096784097,-10.20880671279325,25.326370492117405,-0.956543671077871C24.237648887450714,8.295719370637507,10.789232851287379,9.084914573085271,3.7304656385173596,6.1246536062676995C-3.328301574252661,3.164392639450127,-3.9974199636293677,-3.545324496632783,-0.22557228476857816,-4.116835926408031C3.546275394092212,-4.68834735618328,11.759089141190499,0.8783469203491334,14.981375745123863,-0.04050121196553924C18.203662349057225,-0.9593493442802119,16.43542180982567,-8.36373988544197,13.249124687191063,-8.84429901777534C10.062827564556457,-9.324858150108708,5.458473858518803,-2.8815858736136892,4.664363634631277,3.847309184628515C3.87025341074375,10.57620424287072,6.886386669006351,17.590722082860108,6.775257405179298,14.058792501400891C6.664128141352244,10.526862919941676,3.4257363554355367,-3.5515140829661433,2.7995398826718865,-0.9912694743671944C2.1733434099082363,1.5689751342317546,4.159342250297644,20.76784135433747,0.6668537654863385,15.21561670460709C-2.8256347193249676,9.663392054876706,-11.796610529336986,-20.63992346468978,-9.206507101610947,-26.56066577700564C-6.616403673884909,-32.4814080893215,7.534778991579187,-14.019577194386738,14.48174944557756,-4.941646815597161C21.42871989957593,4.136283563192414,21.171478142108583,3.830313425836804,14.803953455449221,2.3948605645764482C8.43642876878986,0.9594077033160928,-4.0413788470615115,-1.6055278818490075,-4.283982870278205,-2.4686989137967483C-4.526586893494898,-3.3318699457444887,7.466012675923087,-2.4932764244748693,9.703467192815333,0.7934246429009324C11.940921709707577,4.080125710276734,4.423231174074082,9.814934323758719,-1.8892099545171095,4.641922301842699C-8.2016510831083,-0.531089720073318,-13.308842804657187,-16.611922377387337,-14.632261236761986,-14.44623343308415C-15.955679668866782,-12.28054448878096,-13.49532481152749,8.13166605713944,-11.08939050860804,14.488490712079772C-8.68345620568859,20.845315367020103,-6.331942457188979,13.146754130980366,-4.956989872520138,2.6763646159196846C-3.582037287851296,-7.794024899140998,-3.1836458670132224,-21.036242693222626,-4.786058452908368,-23.314280110657958C-6.388471038803514,-25.59231752809329,-9.99168763143188,-16.90617456888233,-8.364462644763428,-8.450053842210412C-6.737237658094977,0.006066884461505495,0.12042890787028959,8.232165378594383,-3.58716018920273,11.978585359416249C-7.294749286275749,15.725005340238113,-21.567594046387054,14.991746807748966,-21.700778861017692,8.50065386539778C-21.833963675648334,2.0095609230465907,-7.827488544798305,-10.239366429166637,-0.18569325338430853,-10.442279006209876C7.456102038029687,-10.645191583253117,8.733217490007654,1.1979106148736296,7.44852773527271,3.8973035626336627C6.1638379805377665,6.596696510393696,2.3173430190899156,0.1523802077870151,3.9866046104038677,2.283498324685586C5.655866201717819,4.4146164415841564,12.840884345793574,15.121168977987978,16.433393417831454,20.474445246189887L20.02590248986933,25.8277215143918" style="filter: url(#ghnpw); stroke: rgb(41, 150, 23);"></path></g></svg>