<svg viewBox="0 0 300 300" preserveAspectRatio="xMidYMid" width="300" height="300"><filter id="pdwvz" width="300" height="500" x="-50%" y="-50%"><feFlood flood-color="#eceabe" result="element"></feFlood><feTurbulence baseFrequency="0.02" type="fractalNoise" numOctaves="8" seed="53" result="element_1"></feTurbulence><feGaussianBlur stdDeviation="5" in="SourceAlpha" result="element_2"></feGaussianBlur><feDisplacementMap scale="100" in="element_2" in2="element_1" result="element_3"></feDisplacementMap><feComposite operator="in" in="element" in2="element_3" result="element_4"></feComposite><feMerge><feMergeNode in="element_4"></feMergeNode></feMerge></filter><g transform="translate(150,150) scale(1.5)"><path d="M0,0L6.205056048971747,-0.5069038706375034C12.410112097943493,-1.0138077412750068,24.820224195886986,-2.0276154825500137,28.44292146187911,-1.7665479859436086C32.065618727871225,-1.5054804893372038,26.900901161911978,0.03046224515061291,20.798470010792144,-1.6547317748305703C14.696038859672305,-3.339925794811754,7.655894123391883,-8.246256569261938,-2.2035136061885945,-7.145247560683313C-12.062921335769072,-6.044238552104686,-24.741592058649605,1.0641102395027477,-21.80844064368908,2.8111605882860915C-18.875289228728555,4.558210937069435,-0.33031567592697364,0.9439628430286893,7.620530570094493,-2.7619316816752484C15.57137681611596,-6.467826206379185,12.928095755357312,-10.265367161746314,9.018214293468509,-7.39052134113099C5.108332831579706,-4.515675520515664,-0.068149031439249,5.031557076082114,-3.74357791535121,5.300266948479241C-7.419006799263171,5.568976820876368,-9.593382704068137,-3.440836030927157,-11.193533967289767,-4.231202538603623C-12.793685230511397,-5.021569046280089,-13.819611852149691,2.4075107901705053,-6.540964126122651,-4.651454694141689C0.737683599904388,-11.710420178453884,16.320905673596762,-33.25743098352886,23.674782950071748,-33.697363629179C31.028660226546734,-34.13729627482913,30.153192705804337,-13.470150761054422,22.88802475275761,-3.6067763608702985C15.622856799710876,6.2565980393138245,1.9679884143598132,5.316201325907358,-3.8834671992661374,7.681932472061546C-9.734922812892087,10.047663618215733,-7.7829656547929265,15.719522623930573,-7.209098073598011,7.79687847139072C-6.635230492403098,-0.125765681149133,-7.43945248811243,-21.642912991943682,-6.9959246963820405,-32.44903882516883C-6.5523969046516495,-43.25516465839398,-4.861119325481536,-43.35026901404973,-10.35478315027725,-35.53458940145399C-15.848446975072962,-27.718909788858262,-28.5270522038345,-11.99244620801105,-29.397390818061304,-6.723768047133182C-30.267729432288107,-1.4550898862553168,-19.329801431980172,-6.644197145346798,-15.852347637216024,-8.090360163594127C-12.374893842451879,-9.536523181841456,-16.35791425323152,-7.239741959244633,-16.33953590966364,-0.9431451328314555C-16.321157566095753,5.353451693581721,-12.301380468180339,15.64986412381125,-13.733805444724466,22.860071145200067C-15.16623042126859,30.070278166588885,-22.050857472272256,34.19427977913699,-20.653820925871138,29.42195746749588C-19.256784379470016,24.649635155854767,-9.578084235664111,10.980988920024435,0.21329679386149092,5.541664841249419C10.004677823387095,0.1023407624744026,19.908739738632395,2.8923388407547015,21.96513609577498,0.36308280311475283C24.02153245291757,-2.166173234525196,18.23026325195744,-10.014683388085391,11.102793206163343,-14.707159025274247C3.9753231603692454,-19.399634662463107,-4.48834773025882,-20.93607578328062,-7.885891327535151,-18.69294050123339C-11.283434924811482,-16.449805219186157,-9.61485122873608,-10.427093534274174,-12.679627062711361,-10.808803156501543C-15.74440289668664,-11.190512778728914,-23.5425382607126,-17.976643708095636,-21.44550843795829,-16.009863659979285C-19.348478615203973,-14.043083611862935,-7.356283605669388,-3.323392586263509,-2.4261281140393343,-0.1162653070896692C2.5040273775907194,3.090861972084171,0.37214335131623844,-1.2145744951675757,1.5841636231028318,-6.0902912692308675C2.7961838948894253,-10.96600804329416,7.352108464737093,-16.412005124169,7.6650751103079635,-17.626140599143433C7.978041755878834,-18.840276074117867,4.048050477172908,-15.822549943191898,-1.226038243876439,-6.632238618658626C-6.500126964925785,2.5580727058746486,-13.118313128318553,17.920969224015227,-18.458625287907545,20.644280592926016C-23.798937447496535,23.36759196183681,-27.86137560328175,13.451318181517816,-24.335144053520903,1.0531302097223554C-20.80891250376005,-11.345057762073104,-9.694011248453142,-26.225159925345032,-6.022805406053068,-20.2713872830929C-2.351599563652994,-14.317614640840766,-6.124089134159755,12.470032806935425,-5.088585904308052,12.126722379835453C-4.0530826744563475,11.783411952735483,1.7904133557538215,-15.69085634924065,4.712161370858906,-29.427990500228717L7.633909385963991,-43.165124651216786" style="filter: url(#pdwvz); stroke: rgb(236, 234, 190);"></path></g></svg>