<svg viewBox="0 0 300 300" preserveAspectRatio="xMidYMid" width="300" height="300"><filter id="ooeuh" width="300" height="500" x="-50%" y="-50%"><feFlood flood-color="#fb4d46" result="element"></feFlood><feTurbulence baseFrequency="0.02" type="fractalNoise" numOctaves="8" seed="14" result="element_1"></feTurbulence><feGaussianBlur stdDeviation="5" in="SourceAlpha" result="element_2"></feGaussianBlur><feDisplacementMap scale="100" in="element_2" in2="element_1" result="element_3"></feDisplacementMap><feComposite operator="in" in="element" in2="element_3" result="element_4"></feComposite><feMerge><feMergeNode in="element_4"></feMergeNode></feMerge></filter><g transform="translate(150,150) scale(1.5)"><path d="M0,0L0.9398948242162725,1.1000868993587567C1.879789648432545,2.2001737987175134,3.75957929686509,4.400347597435027,-0.3451702050925962,-0.8333727954887253C-4.449919707050283,-6.0670931884124775,-14.539208359398199,-18.734707772977494,-15.17697273182687,-26.067115628100538C-15.814737104255542,-33.399523483223575,-7.000977196764967,-35.39672460890465,-2.038128404986391,-27.286489649979934C2.924720386792185,-19.17625469105523,4.036658062858762,-0.9585836475247511,4.145054869677951,11.522141356447271C4.25345167649714,24.00286636041929,3.358307614068942,30.746645324832855,-2.717228600781178,27.024673211425476C-8.792764815631298,23.302701098018098,-20.04869318290334,9.114977906789779,-22.044711427054697,-2.4225353395579017C-24.04072967120605,-13.960048585905582,-16.776837792236723,-22.847351887372625,-13.395141009370189,-24.2550016275465C-10.013444226503657,-25.662651367720375,-10.51394253973992,-19.590647546601083,-7.461610310345396,-18.195290461820797C-4.409278080950871,-16.799933377040507,2.1958846910744425,-20.08122302859922,-4.339245496976,-21.291082204399018C-10.874375685026443,-22.50094138019882,-30.549798833152643,-21.639370080239708,-41.917955299592734,-23.825486973368474C-53.28611176603282,-26.01160386649724,-56.3470015507868,-31.24540895271388,-44.64927223695805,-25.38902569466774C-32.95154292312929,-19.532642436621607,-6.495194510717795,-2.586070834312693,9.809236256789944,3.6762541636398236C26.113667024297683,9.93857916159234,32.26618014690167,5.51665755518846,28.3767878748105,-6.717842112013619C24.487395602719328,-18.952341779215697,10.556097935933,-38.999419507215976,4.682836857512004,-43.609947552205256C-1.1904242209089941,-48.220475597194536,0.9943512890353388,-37.39445395917283,2.8164618020167804,-30.70705371514322C4.638572314998223,-24.01965347111361,6.098017831016773,-21.470874621076106,0.10082001877365165,-15.679986132199392C-5.896377793469471,-9.88909764332268,-19.350218933974265,-0.8560995156067612,-23.740269496445684,-0.9749827004071459C-28.1303200589171,-1.0938658852075305,-23.45658004335514,-10.364630382524219,-17.92150411268262,-12.125711633532852C-12.386428182010095,-13.886792884541483,-5.990016336227009,-8.138190889242063,-3.351211277610928,-4.427293192220929C-0.7124062189948478,-0.7163954951997934,-1.831207947545773,0.956797903543054,1.6603811950611678,-2.2241678785026893C5.151970337668109,-5.405133660548433,13.253950351432914,-13.440258623382768,19.596322093348505,-12.801587583366132C25.93869383526409,-12.1629165433495,30.521457305330458,-2.850449500481897,31.80646293219087,-5.931071519637502C33.09146855905128,-9.011693538793107,31.07871634270574,-24.48540461997192,26.215702280351238,-17.51468493809945C21.352688217996732,-10.54396525622698,13.639412309633272,18.871185188696778,9.574959887078142,32.94805201091305C5.510507464523016,47.024918833129334,5.094878527776224,45.76350203263813,9.847695751245334,40.215261135638436C14.600512974714444,34.66702023863874,24.521776358399453,24.83195524513056,21.074720426920482,16.779274369242774C17.627664495441508,8.726593493354994,0.8122892487985531,2.4562967350876157,-12.569251878618955,3.529982405959227C-25.950793006036463,4.6036680768308385,-35.898500014228524,13.021336176841439,-36.29357226207682,10.277269579217037C-36.68864450992512,7.533202981592638,-27.531081997429656,-6.372598313666764,-20.597237133970587,-7.496461383056814C-13.66339227051152,-8.620324452446864,-8.95326505608885,3.0377507040324367,-4.600656792515924,3.549799211195448C-0.24804852894299678,4.061847718358459,3.7470407837801853,-6.572130423794819,0.5033959969496231,-8.213141897993001C-2.7402487898809396,-9.854153372191181,-13.222627676265247,-2.5021981784342646,-14.122477727312601,-0.6961459232689786C-15.022327778359958,1.1099063318963074,-6.339648994070362,-2.629944351530037,2.744325368892305,-9.562825812548418C11.828299731854973,-16.4957072735668,21.313569673490715,-26.621619512177215,15.720098807492302,-35.06856725400651C10.126627941493894,-43.5155149958358,-10.545583732138667,-50.28349824088397,-20.881689568954947,-53.66748986340805L-31.217795405771227,-57.051481485932136" style="filter: url(#ooeuh); stroke: rgb(251, 77, 70);"></path></g></svg>