<svg viewBox="0 0 300 300" preserveAspectRatio="xMidYMid" width="300" height="300"><filter id="minva" width="300" height="500" x="-50%" y="-50%"><feFlood flood-color="#ebc7df" result="element"></feFlood><feTurbulence baseFrequency="0.02" type="fractalNoise" numOctaves="8" seed="5" result="element_1"></feTurbulence><feGaussianBlur stdDeviation="5" in="SourceAlpha" result="element_2"></feGaussianBlur><feDisplacementMap scale="100" in="element_2" in2="element_1" result="element_3"></feDisplacementMap><feComposite operator="in" in="element" in2="element_3" result="element_4"></feComposite><feMerge><feMergeNode in="element_4"></feMergeNode></feMerge></filter><g transform="translate(150,150) scale(1.5)"><path d="M0,0L2.530070627479062,4.746933389166878C5.060141254958124,9.493866778333755,10.120282509916247,18.98773355666751,18.4479623214252,23.173307188955633C26.775642132934156,27.358880821243755,38.37086050099394,26.236161307486242,37.72780576042016,22.001376826867823C37.08475101984637,17.766592346249404,24.20342317063902,10.419742898770075,24.135737266618385,7.418652159537558C24.06805136259775,4.4175614203050415,36.81400740376383,5.7622293893193355,41.1313600318477,5.2475458587828365C45.44871265993156,4.732862328246338,41.337461874933204,2.3588272981590444,39.744416948123444,6.817427583909964C38.151372021313676,11.276027869660885,39.07653295269251,22.567263471250016,31.55036738658743,21.476748565324854C24.024201820482347,20.38623365939969,8.046709756893351,6.913968245960227,9.297943829816626,-1.0946075619836C10.5491779027399,-9.103183369927427,29.029138112175445,-11.648069572375618,35.57847893069968,-10.45209653524437C42.12781974922392,-9.256123498113123,36.74654117683684,-4.319291221402433,28.774216987443655,-0.4146776874160709C20.801892798050474,3.4899358465702917,10.238522991651184,6.362330637832327,3.8462762181969854,-0.7667602283178612C-2.545970555257213,-7.89585109446805,-4.76709429576632,-25.026427618030464,-5.78510229368187,-36.45886482355943C-6.803110291597421,-47.89130202908839,-6.618002546919415,-53.625599916583916,-9.008306921712581,-46.70449753020298C-11.398611296505745,-39.78339514382203,-16.36432779077008,-20.206892483564623,-21.23591030980932,-5.452085733739874C-26.107492828848557,9.302721016084876,-30.884941372662695,19.235831855476967,-27.606740738796802,15.658284351283882C-24.328540104930912,12.080736847090794,-12.994690293384984,-5.00746900068747,-12.819975699516817,-8.038531318458059C-12.64526110564865,-11.069593636228646,-23.629681729458245,-0.04351242399155808,-14.580803290375515,8.895296003106274C-5.531924851292789,17.834104430204107,23.550252650682257,24.685640072162684,30.759467604430895,25.08840264882717C37.96868255817953,25.491165225491656,23.304934963701754,19.44515473686205,22.450210503003696,11.928760668260335C21.595486042305637,4.4123665996586166,34.5497847153873,-4.574411048915213,33.00020009192809,-4.506283850233624C31.450615468468893,-4.438156651552035,15.397147548468832,4.684875394384973,7.853204109284532,1.1764242715895543C0.3092606701002327,-2.332026851205864,1.2748417117316933,-18.471961142733708,-7.28109416424491,-19.74657584428039C-15.837030040221512,-21.021190545827068,-33.914482833806176,-7.430485657392586,-34.83684863458746,-4.081746651150705C-35.75921443536875,-0.7330076449088239,-19.526493243346653,-7.626234520859545,-7.6611790436997955,-8.183424951749345C4.204135155947063,-8.740615382639147,11.702042363218682,-2.961769368468028,11.878780001414444,4.27173231063753C12.055517639610207,11.505233989743088,4.911085708730111,20.193391333783087,5.20101764483274,22.048467379921213C5.49094958093537,23.903543426059343,13.215245384020724,18.925538174295603,15.750992221769645,18.482531753530463C18.286739059518567,18.039525332765322,15.633936931931055,22.13151774299878,10.040858299768763,18.27976952517175C4.447779667606471,14.428021307344725,-4.085575469130601,2.6325324614572096,-2.9054821571262504,-5.942691493482205C-1.7253888451218993,-14.51791544842162,9.168152915623875,-19.872874512412935,5.91879188673515,-15.192459510567296C2.6694308578464234,-10.512044508721658,-14.722832960676804,4.203744558960935,-10.53950417046552,6.699995920900264C-6.356175380254236,9.196247282839593,19.40274601869156,-0.5270390609643432,29.767605019780227,-3.155645168993356C40.132464020868895,-5.784251277022369,35.10326062410044,-1.3181771492764582,24.158058975740563,-3.679346399050765C13.212857327380682,-6.040515648825072,-3.648342572570625,-15.228928276119596,-2.6297546721374125,-13.144653154724246C-1.6111667717042,-11.060378033328893,17.287208929113532,2.296584836756333,21.31515634218833,7.942760653659718C25.343103755263133,13.588936470563103,14.500622880595,11.52432523428465,9.079382443260934,10.492019616145422L3.658142005926869,9.459713998006194" style="filter: url(#minva); stroke: rgb(235, 199, 223);"></path></g></svg>