<svg viewBox="0 0 300 300" preserveAspectRatio="xMidYMid" width="300" height="300"><filter id="yrpfs" width="300" height="500" x="-50%" y="-50%"><feFlood flood-color="#3bbcd0" result="element"></feFlood><feTurbulence baseFrequency="0.02" type="fractalNoise" numOctaves="8" seed="48" result="element_1"></feTurbulence><feGaussianBlur stdDeviation="5" in="SourceAlpha" result="element_2"></feGaussianBlur><feDisplacementMap scale="100" in="element_2" in2="element_1" result="element_3"></feDisplacementMap><feComposite operator="in" in="element" in2="element_3" result="element_4"></feComposite><feMerge><feMergeNode in="element_4"></feMergeNode></feMerge></filter><g transform="translate(150,150) scale(1.5)"><path d="M0,0L4.33265372242773,0.8025807051089733C8.66530744485546,1.6051614102179466,17.33061488971092,3.210322820435893,21.10696455703612,3.4690842983333643C24.88331422436132,3.7278457762308355,23.77070611415627,2.6402073218078312,22.096659451514533,-4.3480170870147195C20.422612788872797,-11.336241495837271,18.187127573794385,-24.22505185905937,16.032148565023864,-25.223340945980713C13.877169556253339,-26.221630032902056,11.802696753790705,-15.329397843522646,14.72774189970643,-11.029053173043241C17.65278704562216,-6.728708502563833,25.577350139916245,-9.020251350984433,25.515223295521476,-10.796653861749908C25.453096451126708,-12.573056372515381,17.404279668043085,-13.834318545625733,13.888123118343625,-19.81773397916197C10.371966568644169,-25.801149412698205,11.388470252328876,-36.50671810666033,6.34674342395112,-38.228593004087344C1.3050165955733624,-39.95046790151437,-9.79494074486686,-32.688649002406294,-9.534031447581132,-28.08302962666223C-9.273122150295404,-23.477410250918172,2.3486537847162756,-21.527990398538137,6.716535507405946,-21.457119232098464C11.084417230095616,-21.386248065658798,8.198404740463276,-23.193925585159494,7.040724270488056,-20.252589805101362C5.883043800512835,-17.31125402504323,6.453695350194734,-9.620904945426261,11.408349175119639,-5.9814820433711295C16.363003000044543,-2.3420591413159966,25.701659100212453,-2.7535624168226973,24.574385409517117,0.6558916982111413C23.447111718821784,4.06534581324498,11.853908237263209,11.295757318819357,1.0952881369460368,8.952043142208375C-9.663331963371133,6.608328965597394,-19.5873686824469,-5.309510893198946,-15.90904358289755,-9.055223197687404C-12.2307184833482,-12.800935502175859,5.0499684348262655,-8.374520252356431,5.617524047150375,-7.707551823455584C6.185079659474484,-7.040583394554735,-9.960496034051763,-10.133061786572467,-14.145078542501675,-10.823181476616261C-18.32966105095159,-11.513301166660053,-10.55325037432517,-9.801062154729905,-7.605868705117473,-4.273017809324691C-4.658487035909776,1.255026536080523,-6.540134374120799,10.598876214960804,-7.096096510409509,8.800683162532884C-7.652058646698217,7.002490110104964,-6.88233558106461,-5.937745673631158,-3.202435407574084,-3.9905023521344356C0.4774647659164408,-2.0432590306377136,7.067542047263885,14.791463396091853,8.295481789110292,22.131009010107515C9.5234215309567,29.470554624123178,5.38922373330207,27.314923425424936,7.443965946539637,23.23042238974365C9.498708159777205,19.145921354062363,17.74239038390697,13.132550481398027,8.734677650212646,12.176481095365277C-0.27303508348167327,11.220411709332527,-26.53214277500008,15.321643809931363,-38.04643299776371,10.361802062188017C-49.56072322052733,5.401960314444671,-46.33019597453618,-8.618955281640856,-33.26581215764346,-5.494330628063866C-20.201428340750745,-2.3697059744868767,2.696812047043535,17.90045892875263,5.451786169697078,14.6817319987181C8.20676029235062,11.463005068683568,-9.181531850136576,-15.244613694625,-8.104350317318517,-23.746752977913346C-7.027168784500459,-32.24889226120169,12.515486423622853,-22.545552064469813,21.51094342871264,-13.42883502777315C30.506400433802423,-4.3121179910764855,28.954659235858678,4.2179758855849645,26.638724645311843,10.619383415215463C24.322790054765004,17.020790944845963,21.242662071615072,21.29351212744551,14.116532964217296,17.45583143770609C6.990403856819512,13.61815074796667,-4.181726374826119,1.6700681858882813,-6.401776444345975,-2.166151897759023C-8.62182651386583,-6.002371981406327,-1.8897964212599105,-1.7267295866225458,-5.082892845334245,-0.6655712070984288C-8.275989269408578,0.3955871724256883,-21.394212210163165,-1.7577384633098587,-25.3429803357973,3.2177095828664646C-29.291748461431435,8.193157629042787,-24.071061771945118,20.297379357130982,-20.46586201112252,21.308465384783833C-16.860662250299924,22.319551412436685,-14.870949418141045,12.237501739654192,-10.776111245441973,10.901660936509387C-6.6812730727429,9.565820133364582,-0.4813095595036341,16.97618819985746,2.6186721971159987,20.6813722331039L5.718653953735632,24.38655626635034" style="filter: url(#yrpfs); stroke: rgb(59, 188, 208);"></path></g></svg>