<svg viewBox="0 0 300 300" preserveAspectRatio="xMidYMid" width="300" height="300"><filter id="llehj" width="300" height="500" x="-50%" y="-50%"><feFlood flood-color="#fc6c85" result="element"></feFlood><feTurbulence baseFrequency="0.02" type="fractalNoise" numOctaves="8" seed="41" result="element_1"></feTurbulence><feGaussianBlur stdDeviation="4" in="SourceAlpha" result="element_2"></feGaussianBlur><feDisplacementMap scale="100" in="element_2" in2="element_1" result="element_3"></feDisplacementMap><feComposite operator="in" in="element" in2="element_3" result="element_4"></feComposite><feMerge><feMergeNode in="element_4"></feMergeNode></feMerge></filter><g transform="translate(150,150) scale(1.5)"><path d="M0,0L8.156172784968447,-2.4583163677486395C16.312345569936895,-4.916632735497279,32.62469113987379,-9.833265470994558,32.812703808896856,-9.279000514625386C33.000716477919916,-8.724735558256214,17.064396246029148,-2.699572910020591,18.212092104531735,-1.5320400659812494C19.359787963034314,-0.36450722194190766,37.59149991193025,-4.054604182098847,41.58377208515704,-0.16665003253351873C45.57604425838382,3.721304117031809,35.32887665594146,15.187309376319405,23.944553771086383,15.709163181642605C12.56023088623131,16.231016986965805,0.03875271896352572,5.808719338324614,-0.11330130739582955,-6.688031422124523C-0.26535533375518483,-19.18478218257366,11.952014780793888,-33.75598605483074,17.04079797372539,-24.610497039758652C22.129581166656887,-15.465008024686561,20.089777437970813,17.3971738777147,15.181260380751453,27.67511844088848C10.272743323532088,37.95306300406226,2.4955129377794387,25.64677022800856,-6.52767537404708,19.40370163363947C-15.550863685873598,13.160633039270385,-25.820009923773984,12.98078862658591,-31.768942398357723,15.25596124496574C-37.717874872941465,17.53113386334557,-39.346593584208556,22.2613235127897,-41.83732649956609,18.015240955392212C-44.32805941492362,13.769158397994723,-47.6808065343716,0.5468036337556086,-43.81504126605134,-5.387543858483986C-39.94927599773108,-11.32189135072358,-28.86499834164258,-9.968231570963656,-26.525001430394198,-6.755426981586117C-24.185004519145824,-3.542622392208579,-30.58928835273757,1.5293270067865734,-25.676193414311836,3.233815835563181C-20.7630984758861,4.938304664339789,-4.532624765442889,3.2753329228978525,1.6768435473748518,0.691048633927386C7.886311860192593,-1.8932356550430804,4.074774775384862,-5.398832491542077,2.13592285905853,-10.17555672880943C0.1970709427321983,-14.952280966076785,0.13090419488726573,-21.000132604112498,0.3535365108391385,-19.18719146633739C0.5761688267910112,-17.37425032856228,1.0876002065396893,-7.7005164149763505,0.3778976608799539,-0.3610749187779754C-0.3318048847797812,6.978366577420399,-2.2626413558479297,11.98351565623122,-2.931302440788547,13.270596772900268C-3.599963525729164,14.557677889569316,-3.0064492245422505,12.126691044096594,-2.9601513198696594,9.418089873452196C-2.9138534151970683,6.709488702807797,-3.4147719070388005,3.7232732069917223,0.9023900146718353,3.6449925806179357C5.219551936382471,3.566711954244149,14.354794271645474,6.396366197312651,14.85270606939712,2.994445020259836C15.350617867148767,-0.40747615679297855,7.211199127389055,-10.04097275396711,-5.247713410720813,-3.7357209905428075C-17.70662594883068,2.5695307728814942,-34.48503228529071,24.81353089690423,-28.96898977390796,34.954201119712316C-23.45294726252522,45.094871342520406,4.357544096700288,43.13221166411384,10.602814070738319,32.27924415059542C16.84808404477635,21.426276637076988,1.5281326336269014,1.6830012884466896,1.1057083665145298,-11.148440187418453C0.6832840994021581,-23.979881663283596,15.158386976326863,-29.899489266383583,20.363946839762114,-24.632407480272175C25.569506703197362,-19.365325694160767,21.505523553143163,-2.9115545188379564,23.148166499319238,3.513810536152521C24.79080944549532,9.939175591142998,32.14007848790168,6.3361345258011434,31.252868163181233,12.751494141350511C30.365657838460784,19.16685375689988,21.241968146613523,35.600614053340465,10.7083783115971,40.014716806793906C0.17478847658067576,44.428819560247334,-11.768701501604912,36.823264770713614,-12.793933080656009,32.54750251554768C-13.819164659707102,28.27174026038174,-3.9261378396237054,27.325770539583587,7.070340900013987,24.00796015470247C18.06681963965168,20.69014976982135,30.166750298843667,15.000498720857262,26.64803114669783,6.416084001437058C23.129311994551983,-2.1683307179831486,3.991943031068315,-13.647509107859474,-0.8553687520247184,-17.93977381626062C-5.702680535117752,-22.232038524661764,3.7400648621798513,-19.33738955158773,5.449351931242572,-11.356470674712234C7.158639000305293,-3.3755517978367404,1.1344677411331308,9.691636982840215,-1.8776178884529502,16.225231373178694L-4.889703518039031,22.758825763517173" style="filter: url(#llehj); stroke: rgb(252, 108, 133);"></path></g></svg>