<svg viewBox="0 0 300 300" preserveAspectRatio="xMidYMid" width="300" height="300"><filter id="qkbii" width="300" height="500" x="-50%" y="-50%"><feFlood flood-color="#a2add0" result="element"></feFlood><feTurbulence baseFrequency="0.02" type="fractalNoise" numOctaves="8" seed="94" result="element_1"></feTurbulence><feGaussianBlur stdDeviation="4" in="SourceAlpha" result="element_2"></feGaussianBlur><feDisplacementMap scale="100" in="element_2" in2="element_1" result="element_3"></feDisplacementMap><feComposite operator="in" in="element" in2="element_3" result="element_4"></feComposite><feMerge><feMergeNode in="element_4"></feMergeNode></feMerge></filter><g transform="translate(150,150) scale(1.5)"><path d="M0,0L7.10292652725321,3.295496709473023C14.20585305450642,6.590993418946046,28.41170610901284,13.181986837892092,29.769123961269056,15.834351314289705C31.12654181352527,18.48671579068732,19.63552446353128,17.200451324536502,15.284664655573687,13.773597374917186C10.933804847616097,10.346743425297872,13.723102581694903,4.779299992210062,20.744507569208473,-1.3259853002626079C27.765912556722043,-7.431270592735277,39.01942479767038,-14.074397744592805,36.317615125549196,-10.984481315327155C33.61580545342802,-7.894564886061505,16.958673868237312,4.928395124327322,11.93589391178876,13.640767607878724C6.913113955340207,22.353140091430127,13.524685627633799,26.9549250481441,6.430458697487253,24.414466012008557C-0.6637682326592937,21.87400697587301,-21.46379376524598,12.191303946887937,-21.46892621045157,11.542020584190986C-21.47405865565716,10.892737221494038,-0.6842980134816532,19.27687352508521,15.025453737658928,18.06288767584685C30.735205488799508,16.848901826608486,41.36494834890516,6.03679382454059,36.945989230001295,-0.5961421316876208C32.52703011109743,-7.229078087915831,13.05936901318405,-9.682841998304356,8.193855860552596,-9.921397364910398C3.3283427079211396,-10.15995273151644,13.064977500571613,-8.18329955434,20.20161242064887,-5.99555850424865C27.338247340726127,-3.807817454157302,31.87488238823017,-1.408988531151047,27.504041109460516,-1.572946807944421C23.133199830690863,-1.7369050847377951,9.854882225647518,-4.463650561330798,-3.959088225067527,-13.967017521090288C-17.773058675782572,-23.47038448084978,-32.12268197216932,-39.75037292377576,-25.58532418349592,-35.466331876549134C-19.047966394822524,-31.182290829322515,8.376372478911021,-6.334220291943295,12.138301297607116,-1.1401208076266407C15.90023011630321,4.053978676690013,-4.000251120038149,-10.405892892055899,-10.514554045100661,-11.501654079298618C-17.028856970163176,-12.597415266541336,-10.156981583946843,-0.3290660722808614,-6.623388025411417,-0.4257982985649216C-3.0897944668759916,-0.5225305248489818,-2.8944827360214713,-12.984344171677577,-3.0380648986893055,-17.621174369722844C-3.1816470613571393,-22.25800456776811,-3.6641231175473274,-19.06985131703005,0.8739735459778504,-16.634609046253768C5.412070209503028,-14.199366775477491,14.970739592743572,-12.517035484662996,21.102900469906775,-15.158030475541674C27.23506134706998,-17.799025466420353,29.94071371815585,-24.763346738992205,27.51427781230061,-21.322477676996474C25.087841906445377,-17.881608615000744,17.529317723649037,-4.035549218437424,9.488337837150844,2.6038346359416273C1.4473579506526546,9.243218490320679,-7.076077639547387,8.675926802515466,-5.231494691858801,6.435922421588759C-3.3869117441702166,4.195918040662052,8.825689741406995,0.2832009666138542,5.140466929189002,-6.732181208527507C1.4552441169710075,-13.747563383668869,-18.12780299304219,-23.865610659903393,-21.985602176297082,-30.303430177594983C-25.843401359551972,-36.74124969528658,-13.975952616048556,-39.49884145443524,-8.187364402508052,-27.06016177168041C-2.398776188967547,-14.621482088925573,-2.6890485053899553,13.013469035732754,-2.4188603673305082,21.134028819903882C-2.1486722292710616,29.254588604075014,-1.3180236367297595,17.86075704775895,6.367482891789671,10.166675988289303C14.052989420309101,2.4725949288196554,28.59335388480666,-1.521735633803571,33.50030449342924,1.8879984224899604C38.40725510205183,5.297732478783492,33.68079185479944,16.11153115399378,26.44965293522772,20.667871265318876C19.218514015656,25.224211376643968,9.482699423764963,23.52309292408387,6.280260487503277,26.671620117150077C3.0778215512415907,29.82014731021629,6.408758270609256,37.81832014890881,1.944352647423103,30.224848761453664C-2.5200529757630497,22.63137737399852,-14.779800941503021,-0.5537382396042911,-9.610247799185398,-7.61694791302436C-4.440694656867775,-14.680157586444427,18.158159593507442,-5.621461319681751,16.67121538038363,2.6393378150089113C15.184271167259812,10.900136949699574,-10.388471509363034,18.363038952318224,-23.17484284767446,22.094489953627544L-35.96121418598588,25.825940954936875" style="filter: url(#qkbii); stroke: rgb(162, 173, 208);"></path></g></svg>