<svg viewBox="0 0 300 300" preserveAspectRatio="xMidYMid" width="300" height="300"><filter id="uyxds" width="300" height="500" x="-50%" y="-50%"><feFlood flood-color="#ff007c" result="element"></feFlood><feTurbulence baseFrequency="0.02" type="fractalNoise" numOctaves="8" seed="94" result="element_1"></feTurbulence><feGaussianBlur stdDeviation="5" in="SourceAlpha" result="element_2"></feGaussianBlur><feDisplacementMap scale="100" in="element_2" in2="element_1" result="element_3"></feDisplacementMap><feComposite operator="in" in="element" in2="element_3" result="element_4"></feComposite><feMerge><feMergeNode in="element_4"></feMergeNode></feMerge></filter><g transform="translate(150,150) scale(1.5)"><path d="M0,0L7.167245132525927,-1.2912051592409892C14.334490265051855,-2.5824103184819784,28.66898053010371,-5.164820636963957,31.354670353032148,-7.865541939165155C34.040360175960586,-10.566263241366352,25.0772495567656,-13.385295527286768,19.15950971002101,-13.589524292849072C13.241769863276415,-13.793753058411374,10.36940078898221,-11.383178303615564,11.230701136564623,-5.984986991271868C12.092001484147035,-0.5867956789281719,16.686971253606067,7.79901219096341,22.15945483698964,2.325029898976757C27.631938420373217,-3.148952393009896,33.98193581768133,-22.48272484687478,33.33949053846638,-22.32885044715288C32.697045259251425,-22.174976047430984,25.0621573035134,-2.5334547941222976,19.5096393273476,6.157706175718251C13.957121351181799,14.848867145558799,10.486973354588226,12.58966783193121,5.51984402919126,13.041185756616224C0.552714703794293,13.492703681301238,-5.911395950406067,16.654938844298854,0.9933776200038578,19.14712542216708C7.898151190413783,21.639312000035297,28.171808985433994,23.461449992774124,31.616675133501413,23.70257016573937C35.061541281568836,23.943690338704613,21.677615782683475,22.603792691896274,20.648712100406847,21.63560199574578C19.61980841813022,20.667411299595283,30.945926552462332,20.07092755410263,35.32080160496013,12.900223105933307C39.69567665745793,5.7295186577639825,37.119308628121416,-8.015406493082018,29.189572295141524,-6.708677949185096C21.25983596216163,-5.401949405288173,7.976731325538353,10.956432833351672,-5.560760229920319,18.320109757509247C-19.09825178537899,25.683786681666824,-32.89013025967306,24.05275829134213,-27.414488577046406,11.377409040504936C-21.93884689441975,-1.2979402103322535,2.8043149451276257,-25.017610321681943,10.786082953175198,-25.352224696879183C18.76785096122277,-25.686839072076424,9.988225137770536,-2.6363977111212176,-0.41338142076338436,6.327164287992152C-10.814987979297305,15.290726287105521,-22.838575272912912,10.167408924377055,-27.667428854846882,4.040304692263115C-32.496282436780845,-2.0867995398508232,-30.130402307033176,-9.217690641350234,-28.34519897823821,-10.441081751964433C-26.55999564944324,-11.664472862578632,-25.35546912160098,-6.980363982307621,-27.793525712860028,-6.217636872783832C-30.231582304119073,-5.454909763260041,-36.31222201447943,-8.613564424483473,-30.99062678499949,-6.680903785789377C-25.669031555519542,-4.748243147095283,-8.945201386199304,2.2757327915163392,-3.3122844407700764,6.691437072878009C2.3206325046591507,11.10714135423968,-3.1373637738026345,12.914573978351399,-9.046573512084624,13.59432065573894C-14.955783250366615,14.27406733312648,-21.31620644846881,13.826128063789843,-26.971898953348663,14.262334210798011C-32.62759145822852,14.69854035780618,-37.57855326988603,16.018891921159156,-32.380141435752655,14.284783765850475C-27.181729601619274,12.550675610541791,-11.833944121695001,7.762107736571452,-3.089933892164324,11.375433186011183C5.6540763373663525,14.988758635450914,7.794311316503432,27.003977408300717,6.152708303935293,26.183092838376385C4.511105291367154,25.362208268452058,-0.912335712906204,11.705220355753596,0.9101733170761404,12.532431261292285C2.7326823470584847,13.359642166830971,11.80114141129653,28.671051890606808,15.822327728104382,28.17949090884995C19.843514044912233,27.68792992709309,18.817427614289883,11.393398239803538,13.014914972996694,-0.09314817741995718C7.212402331703505,-11.579694594643453,-3.366536520260528,-18.258255741800895,2.453845078021498,-19.829109900648607C8.274226676303524,-21.39996405949632,30.49392872483161,-17.863111230034306,33.02483929530929,-12.67982611707103C35.55574986578697,-7.496541004107757,18.39786895821425,-0.6668236076432263,10.095820526365646,6.698478479898178C1.7937720945170457,14.063780567439581,2.347556138392564,21.96466734605786,2.1522028616904043,19.958846393292728C1.9568495849882455,17.953025440527597,1.0123589877084083,6.04049675637906,-4.521494428357499,7.31951515493723C-10.055347844423409,8.5985335534954,-20.178564079275386,23.069099034760278,-25.24017219670138,30.304381775392716L-30.301780314127367,37.539664516025155" style="filter: url(#uyxds); stroke: rgb(255, 0, 124);"></path></g></svg>